<svg width="32" height="32" viewBox="0 0 32 32" fill="none" xmlns="http://www.w3.org/2000/svg">
<path opacity="0.4" fill-rule="evenodd" clip-rule="evenodd" d="M30.2872 2.36692C30.4527 2.89383 30.1597 3.45512 29.6328 3.62059C27.7751 4.20397 25.9346 5.99026 24.4921 7.79957C23.7896 8.6808 23.2154 9.52364 22.8169 10.1466C22.6181 10.4574 22.4639 10.712 22.3604 10.8872C22.3086 10.9748 22.2696 11.0425 22.244 11.0873L22.2157 11.1371L22.2094 11.1485L22.2083 11.1504L22.2082 11.1506L22.2081 11.1507C22.0153 11.4991 21.6342 11.7 21.2378 11.662C20.8421 11.624 20.5066 11.3554 20.3829 10.9779C20.3827 10.9772 20.3825 10.9766 20.3823 10.976L20.3824 10.9764L20.3826 10.9771L20.3783 10.9646C20.3739 10.9518 20.3663 10.9303 20.3555 10.9014C20.3339 10.8434 20.2998 10.7565 20.2535 10.6505C20.1595 10.4357 20.0212 10.1569 19.8414 9.88542C19.4436 9.28491 19.0379 8.99986 18.6665 8.99986C18.1142 8.99986 17.6665 8.55215 17.6665 7.99986C17.6665 7.44758 18.1142 6.99986 18.6665 6.99986C20.0059 6.99986 20.9048 7.92053 21.412 8.63941C21.8109 8.03839 22.3243 7.31044 22.9283 6.55282C24.4039 4.70191 26.5634 2.48819 29.0336 1.71247C29.5605 1.547 30.1218 1.84 30.2872 2.36692ZM20.3829 10.9781C20.383 10.9782 20.383 10.9782 20.3829 10.9781L20.3829 10.9781Z" fill="#1B8354"/>
<path d="M15.3332 1.66602H13.275C11.1381 1.666 9.45504 1.666 8.11579 1.80716C6.74662 1.95148 5.62211 2.2523 4.65147 2.93195C3.98258 3.40031 3.4008 3.98209 2.93244 4.65098C2.25279 5.62163 1.95197 6.74613 1.80765 8.1153C1.66648 9.45455 1.66649 11.1377 1.6665 13.2745V13.3908C1.66649 15.5277 1.66648 17.2108 1.80765 18.5501C1.95197 19.9192 2.25279 21.0437 2.93244 22.0144C3.4008 22.6833 3.98258 23.2651 4.65147 23.7334C5.62211 24.4131 6.74662 24.7139 8.11579 24.8582C9.45503 24.9994 11.1381 24.9994 13.275 24.9993H14.9998V28.3327H10.6665C10.1142 28.3327 9.6665 28.7804 9.6665 29.3327C9.6665 29.885 10.1142 30.3327 10.6665 30.3327H21.3332C21.8855 30.3327 22.3332 29.885 22.3332 29.3327C22.3332 28.7804 21.8855 28.3327 21.3332 28.3327H16.9998V24.9993H18.7247C20.8616 24.9994 22.5446 24.9994 23.8839 24.8582C25.2531 24.7139 26.3776 24.4131 27.3482 23.7334C28.0171 23.2651 28.5989 22.6833 29.0672 22.0144C29.6739 21.148 29.9786 20.1595 30.1398 18.9831C30.2986 17.8242 30.3263 16.4119 30.3318 14.6692C30.3336 14.1169 29.8873 13.6678 29.335 13.666C28.7827 13.6643 28.3336 14.1105 28.3318 14.6628C28.3262 16.4207 28.2964 17.7041 28.1583 18.7116C28.0226 19.7016 27.791 20.3501 27.4289 20.8672C27.0944 21.345 26.6788 21.7606 26.2011 22.0951C25.622 22.5005 24.8786 22.7423 23.6742 22.8692C22.452 22.998 20.8743 22.9993 18.6665 22.9993H13.3332C11.1254 22.9993 9.54764 22.998 8.32544 22.8692C7.12105 22.7423 6.37764 22.5005 5.79862 22.0951C5.32085 21.7606 4.90529 21.345 4.57074 20.8672C4.16531 20.2882 3.92358 19.5448 3.79663 18.3404C3.6678 17.1182 3.6665 15.5405 3.6665 13.3327C3.6665 11.1249 3.6678 9.54715 3.79663 8.32496C3.92358 7.12056 4.16531 6.37715 4.57074 5.79813C4.90529 5.32036 5.32085 4.9048 5.79862 4.57026C6.37764 4.16482 7.12105 3.92309 8.32544 3.79614C9.54764 3.66731 11.1254 3.66602 13.3332 3.66602H15.3332C15.8855 3.66602 16.3332 3.2183 16.3332 2.66602C16.3332 2.11373 15.8855 1.66602 15.3332 1.66602Z" fill="#1B8354"/>
<path d="M14.6665 18.9993C14.1142 18.9993 13.6665 19.4471 13.6665 19.9993C13.6665 20.5516 14.1142 20.9993 14.6665 20.9993H17.3332C17.8855 20.9993 18.3332 20.5516 18.3332 19.9993C18.3332 19.4471 17.8855 18.9993 17.3332 18.9993H14.6665Z" fill="#1B8354"/>
</svg>
