<svg width="18" height="18" viewBox="0 0 18 18" fill="none" xmlns="http://www.w3.org/2000/svg">
<path fill-rule="evenodd" clip-rule="evenodd" d="M6.95727 0.0416262H6.87575C5.54053 0.0416161 4.48273 0.041608 3.64588 0.140526C2.78674 0.24208 2.07949 0.455278 1.4887 0.940126C1.28827 1.10461 1.10449 1.28839 0.940005 1.48882C0.455157 2.07961 0.241958 2.78686 0.140405 3.646C0.0414863 4.48285 0.0414942 5.54065 0.0415041 6.87587V6.95739C0.041494 8.2926 0.0414859 9.3504 0.140404 10.1873C0.241958 11.0464 0.455156 11.7536 0.940004 12.3444C1.10449 12.5449 1.28827 12.7286 1.4887 12.8931C2.04859 13.3526 2.71308 13.5681 3.5127 13.6759C4.16176 13.7634 4.94304 13.7846 5.88376 13.7898C5.89462 14.3082 5.91866 14.7635 5.97194 15.1598C6.07279 15.9098 6.28853 16.5414 6.79013 17.043C7.29173 17.5446 7.92329 17.7603 8.67338 17.8612C9.39585 17.9583 10.3145 17.9583 11.4541 17.9583H12.3789C13.5186 17.9583 14.4372 17.9583 15.1596 17.8612C15.9097 17.7603 16.5413 17.5446 17.0429 17.043C17.5445 16.5414 17.7602 15.9098 17.8611 15.1598C17.9582 14.4373 17.9582 13.5187 17.9582 12.379V11.4542C17.9582 10.3146 17.9582 9.39597 17.8611 8.6735C17.7602 7.92341 17.5445 7.29185 17.0429 6.79025C16.5413 6.28866 15.9097 6.07291 15.1596 5.97206C14.7634 5.91879 14.3081 5.89474 13.7897 5.88388C13.7844 4.94316 13.7632 4.16188 13.6758 3.51282C13.568 2.7132 13.3525 2.04871 12.893 1.48882C12.7285 1.28839 12.5447 1.10461 12.3443 0.940127C11.7535 0.455279 11.0463 0.24208 10.1871 0.140527C9.35028 0.0416084 8.29248 0.0416163 6.95727 0.0416262ZM12.5396 5.87497C12.534 4.94982 12.5132 4.24566 12.437 3.67976C12.3463 3.00662 12.1845 2.59591 11.9267 2.28181C11.8142 2.14468 11.6885 2.01893 11.5513 1.90639C11.2202 1.63461 10.7815 1.46949 10.0404 1.38188C9.28547 1.29265 8.3016 1.29163 6.91651 1.29163C5.53141 1.29163 4.54754 1.29265 3.79261 1.38188C3.05148 1.46949 2.61286 1.63461 2.28169 1.90639C2.14456 2.01893 2.01881 2.14468 1.90627 2.28181C1.63448 2.61298 1.46937 3.0516 1.38176 3.79273C1.29253 4.54766 1.2915 5.53153 1.2915 6.91663C1.2915 8.30172 1.29253 9.28559 1.38176 10.0405C1.46937 10.7816 1.63448 11.2203 1.90627 11.5514C2.01881 11.6886 2.14456 11.8143 2.28169 11.9269C2.59578 12.1846 3.00649 12.3464 3.67964 12.4371C4.24554 12.5134 4.94969 12.5342 5.87485 12.5397C5.87484 12.4866 5.87484 12.4331 5.87484 12.379V11.4542C5.87482 10.3146 5.87481 9.39597 5.97194 8.6735C6.07279 7.92341 6.28853 7.29185 6.79013 6.79025C7.29173 6.28865 7.92329 6.07291 8.67338 5.97206C9.39585 5.87493 10.3145 5.87494 11.4541 5.87496H12.3789C12.433 5.87496 12.4865 5.87496 12.5396 5.87497ZM7.67401 7.67413C7.90465 7.4435 8.22846 7.29313 8.83994 7.21092C9.4694 7.12629 10.3037 7.12496 11.4998 7.12496H12.3332C13.5294 7.12496 14.3636 7.12629 14.9931 7.21092C15.6046 7.29313 15.9284 7.4435 16.159 7.67414C16.3896 7.90477 16.54 8.22858 16.6222 8.84006C16.7068 9.46952 16.7082 10.3038 16.7082 11.5V12.3333C16.7082 13.5295 16.7068 14.3637 16.6222 14.9932C16.54 15.6047 16.3896 15.9285 16.159 16.1591C15.9284 16.3898 15.6045 16.5401 14.9931 16.6223C14.3636 16.707 13.5294 16.7083 12.3332 16.7083H11.4998C10.3037 16.7083 9.4694 16.707 8.83994 16.6223C8.22846 16.5401 7.90465 16.3898 7.67401 16.1591C7.44338 15.9285 7.293 15.6047 7.21079 14.9932C7.12617 14.3637 7.12484 13.5295 7.12484 12.3333V11.5C7.12484 10.3038 7.12617 9.46952 7.21079 8.84006C7.29301 8.22858 7.44338 7.90477 7.67401 7.67413Z" fill="#1B8354"/>
</svg>
