<svg width="20" height="20" viewBox="0 0 20 20" fill="none" xmlns="http://www.w3.org/2000/svg">
<path fill-rule="evenodd" clip-rule="evenodd" d="M10.0001 13.1251C8.27419 13.1251 6.87508 11.726 6.87508 10.0001C6.87508 8.27419 8.27419 6.87508 10.0001 6.87508C11.726 6.87508 13.1251 8.27419 13.1251 10.0001C13.1251 11.726 11.726 13.1251 10.0001 13.1251ZM8.12508 10.0001C8.12508 11.0356 8.96455 11.8751 10.0001 11.8751C11.0356 11.8751 11.8751 11.0356 11.8751 10.0001C11.8751 8.96455 11.0356 8.12508 10.0001 8.12508C8.96455 8.12508 8.12508 8.96455 8.12508 10.0001Z" fill="#161616"/>
<path fill-rule="evenodd" clip-rule="evenodd" d="M10.0001 3.54175C7.85795 3.54175 6.02171 4.48459 4.60034 5.59424C3.17769 6.70488 2.12613 8.01653 1.53792 8.84135L1.49357 8.90319C1.28261 9.19659 1.04175 9.53158 1.04175 10.0001C1.04175 10.4686 1.28261 10.8036 1.49357 11.097L1.53792 11.1588C2.12614 11.9836 3.17769 13.2953 4.60034 14.4059C6.02171 15.5156 7.85795 16.4584 10.0001 16.4584C12.1422 16.4584 13.9785 15.5156 15.3998 14.4059C16.8225 13.2953 17.874 11.9836 18.4622 11.1588L18.5066 11.097C18.7176 10.8036 18.9584 10.4686 18.9584 10.0001C18.9584 9.53158 18.7176 9.19659 18.5066 8.90319L18.4622 8.84135C17.874 8.01653 16.8225 6.70488 15.3998 5.59423C13.9785 4.48459 12.1422 3.54175 10.0001 3.54175ZM2.55564 9.56712C3.10581 8.79565 4.07706 7.58856 5.36955 6.57953C6.66331 5.56951 8.23453 4.79175 10.0001 4.79175C11.7656 4.79175 13.3369 5.56951 14.6306 6.57953C15.9231 7.58856 16.8944 8.79565 17.4445 9.56712C17.5806 9.75797 17.6454 9.85117 17.684 9.92535C17.7086 9.97251 17.7085 9.98543 17.7084 9.99809L17.7084 10.0001L17.7084 10.0021C17.7085 10.0147 17.7086 10.0277 17.684 10.0748C17.6454 10.149 17.5806 10.2422 17.4445 10.433C16.8944 11.2045 15.9231 12.4116 14.6306 13.4206C13.3369 14.4307 11.7656 15.2084 10.0001 15.2084C8.23453 15.2084 6.66331 14.4307 5.36955 13.4206C4.07706 12.4116 3.10581 11.2045 2.55564 10.433C2.41954 10.2422 2.35476 10.149 2.31615 10.0748C2.2916 10.0277 2.29167 10.0147 2.29174 10.0021L2.29175 10.0001L2.29174 9.99809C2.29167 9.98543 2.2916 9.97251 2.31615 9.92535C2.35476 9.85117 2.41954 9.75797 2.55564 9.56712Z" fill="#161616"/>
</svg>
