<svg width="48" height="48" viewBox="0 0 48 48" fill="none" xmlns="http://www.w3.org/2000/svg">
<path d="M0 24C0 10.7452 10.7452 0 24 0C37.2548 0 48 10.7452 48 24C48 37.2548 37.2548 48 24 48C10.7452 48 0 37.2548 0 24Z" fill="#F3FCF6"/>
<g opacity="0.4">
<path d="M28.6252 20.789C28.6404 20.7902 28.6555 20.7902 28.6707 20.7902L28.6695 20.7914C28.9682 20.7914 29.247 20.6385 29.408 20.3854C30.0625 19.3564 31.4707 17.5912 32.46 17.2412C32.9162 17.0802 33.1542 16.5797 32.9932 16.1247C32.8322 15.6685 32.3328 15.4305 31.8767 15.5915C30.6412 16.0279 29.4139 17.4174 28.659 18.4102C28.1422 17.9272 27.6778 17.8747 27.5028 17.8747C27.0198 17.8747 26.6278 18.2667 26.6278 18.7497C26.6278 19.1872 26.9487 19.5489 27.3675 19.6142C27.427 19.6492 27.6347 19.8009 27.8878 20.3072C28.029 20.5884 28.3102 20.7727 28.6252 20.789Z" fill="#161616"/>
<path fill-rule="evenodd" clip-rule="evenodd" d="M23.1301 18.1654C23.1301 21.8649 26.139 24.8737 29.8361 24.8737C33.5333 24.8737 36.5421 21.8649 36.5421 18.1654C36.5421 14.4659 33.5333 11.457 29.8361 11.457C26.139 11.457 23.1301 14.4659 23.1301 18.1654ZM24.8801 18.1654C24.8801 15.4319 27.1038 13.207 29.8361 13.207C32.5685 13.207 34.7921 15.4319 34.7921 18.1654C34.7921 20.8989 32.5685 23.1237 29.8361 23.1237C27.1038 23.1237 24.8801 20.8989 24.8801 18.1654Z" fill="#161616"/>
</g>
<path d="M16.1224 36.3683C18.024 36.4791 20.726 36.5444 23.3043 36.5444V36.5409C25.6493 36.5409 27.8905 36.4873 29.3302 36.3648C30.7652 36.2784 33.5535 35.2634 33.9292 32.0283C34.2407 29.3449 34.215 27.6988 34.2034 26.9953C34.2031 26.9782 34.2029 26.9618 34.2027 26.9459C34.2018 26.8769 34.201 26.8187 34.201 26.7713C34.201 26.2883 33.809 25.8963 33.326 25.8963C32.843 25.8963 32.451 26.2883 32.451 26.7713C32.451 26.8078 32.4518 26.8507 32.4526 26.9C32.4533 26.9374 32.454 26.9785 32.4545 27.0233C32.465 27.6918 32.4895 29.2574 32.1909 31.8264C31.8875 34.4374 29.2438 34.6183 29.217 34.6194C29.2088 34.6206 29.2006 34.6218 29.1925 34.6218C26.2455 34.8749 19.8008 34.8283 16.225 34.6206C13.7318 34.4748 13.222 31.4928 13.222 30.7018V30.6901C13.2022 29.2084 13.208 26.2381 13.215 23.0928C13.2185 21.4326 13.222 19.7153 13.222 18.1263C13.222 14.4548 15.035 13.5529 16.5552 13.4433L16.5948 13.4398C16.5958 13.4397 16.6006 13.4392 16.6089 13.4382C16.8251 13.4143 19.4662 13.1221 22.1668 13.2356C22.651 13.2554 23.0581 12.8809 23.078 12.3979C23.0978 11.9149 22.7234 11.5066 22.2404 11.4868C19.3867 11.3678 16.6882 11.6676 16.4082 11.7003C14.9067 11.8146 11.4708 12.6733 11.4708 18.1274C11.4708 19.7153 11.4673 21.4314 11.4638 23.0904C11.4568 26.2381 11.451 29.2119 11.4708 30.7088C11.472 31.5383 11.7147 32.8356 12.3902 33.9941C13.243 35.4548 14.5334 36.2749 16.1224 36.3683Z" fill="#067647"/>
<path d="M22.8396 26.0409H18.1742C17.6912 26.0409 17.2992 25.6489 17.2992 25.1659C17.2992 24.6829 17.6912 24.2909 18.1742 24.2909H22.8396C23.3226 24.2909 23.7146 24.6829 23.7146 25.1659C23.7146 25.6489 23.3226 26.0409 22.8396 26.0409Z" fill="#067647"/>
<path d="M27.504 30.7076H18.1742C17.6912 30.7076 17.2992 30.3156 17.2992 29.8326C17.2992 29.3496 17.6912 28.9576 18.1742 28.9576H27.504C27.987 28.9576 28.379 29.3496 28.379 29.8326C28.379 30.3156 27.987 30.7076 27.504 30.7076Z" fill="#067647"/>
</svg>
