<svg width="48" height="48" viewBox="0 0 48 48" fill="none" xmlns="http://www.w3.org/2000/svg">
<path d="M0 24C0 10.7452 10.7452 0 24 0C37.2548 0 48 10.7452 48 24C48 37.2548 37.2548 48 24 48C10.7452 48 0 37.2548 0 24Z" fill="#F3FCF6"/>
<path fill-rule="evenodd" clip-rule="evenodd" d="M32.185 11.4605C31.7788 11.4521 30.6772 11.4567 29.4044 11.462L28.8049 11.4645C27.2758 11.4705 25.6087 11.4751 24.5664 11.4603L16.3809 11.4603C16.1745 11.4603 15.7757 11.4649 15.3511 11.5429C14.9506 11.6165 14.3846 11.7794 13.9622 12.1994C13.7575 12.4029 13.5939 12.6611 13.4678 12.891C13.3357 13.1317 13.2153 13.3964 13.1101 13.6499C12.9072 14.1389 12.7402 14.6375 12.6424 14.9292L12.6335 14.9558L11.8416 17.2515C11.7169 17.5845 11.5856 18.0957 11.5141 18.6054C11.4774 18.8673 11.4535 19.1492 11.4591 19.4219C11.4644 19.6832 11.4975 19.9951 11.6137 20.284C11.7994 20.7455 12.2056 21.2342 12.5388 21.5894C12.5547 21.6063 12.5706 21.6232 12.5866 21.64C12.5863 21.6496 12.5862 21.6592 12.5862 21.6688L12.5862 27.5662C12.5862 29.1617 12.5861 30.4477 12.7221 31.4591C12.8633 32.5093 13.1654 33.3934 13.8676 34.0957C14.5698 34.7979 15.454 35.1 16.5041 35.2412C17.5156 35.3772 18.8016 35.3772 20.3972 35.3771L23.9612 35.3771C24.4444 35.3771 24.8362 34.9854 24.8362 34.5021C24.8362 34.0189 24.4444 33.6271 23.9612 33.6271L20.4612 33.6271C18.7865 33.6271 17.6186 33.6253 16.7373 33.5068C15.8813 33.3917 15.4279 33.1812 15.105 32.8583C14.7821 32.5354 14.5716 32.082 14.4565 31.226C14.338 30.3447 14.3362 29.1768 14.3362 27.5021L14.3362 23.0167C14.5743 23.1385 14.8446 23.255 15.1401 23.3559C15.9259 23.6244 16.9446 23.8017 18.1025 23.6502C19.1439 23.514 19.9886 23.0825 20.6572 22.5255C21.3759 23.0752 22.5129 23.6376 23.9592 23.6575C25.0251 23.6723 25.9827 23.3089 26.7229 22.8858C26.9528 22.7543 27.1673 22.614 27.3635 22.4717C28.2516 23.2204 29.9225 24.1272 32.3984 23.448C35.3445 22.6398 36.2884 20.736 36.5235 19.5993C36.5355 19.541 36.5416 19.4816 36.5416 19.4221C36.5416 18.8803 36.374 18.1011 36.0697 17.1093C35.7575 16.0917 35.2756 14.7709 34.5911 13.1109C34.5841 13.094 34.5766 13.0773 34.5686 13.0609C34.4451 12.8075 34.2008 12.4352 33.8286 12.1129C33.4483 11.7835 32.8956 11.4752 32.185 11.4605ZM23.9833 21.9077C23.0286 21.8945 22.2828 21.5361 21.822 21.211C22.234 20.5876 22.4976 19.9596 22.6311 19.4769C22.7599 19.0111 22.4867 18.5291 22.021 18.4003C21.5552 18.2715 21.0732 18.5446 20.9444 19.0104C20.6577 20.0469 19.6422 21.6839 17.8755 21.915C17.0262 22.0261 16.2801 21.8961 15.7058 21.6999C15.1118 21.497 14.7526 21.2417 14.671 21.1647C14.6392 21.1347 14.6052 21.1072 14.5693 21.0823C14.4244 20.9817 14.1202 20.7173 13.8152 20.3922C13.4928 20.0485 13.2908 19.7639 13.2372 19.6307C13.2372 19.6307 13.2298 19.6097 13.2229 19.5667C13.2157 19.5215 13.2102 19.4615 13.2087 19.386C13.2056 19.2333 13.219 19.0487 13.2471 18.8484C13.3043 18.4406 13.4097 18.0517 13.4828 17.859C13.486 17.8506 13.489 17.8422 13.4919 17.8338L14.2891 15.5229L14.2982 15.4957C14.397 15.2012 14.5476 14.7519 14.7265 14.3205C14.8179 14.1002 14.9112 13.8983 15.002 13.7328C15.0987 13.5567 15.1671 13.4691 15.196 13.4404C15.2406 13.396 15.3809 13.3167 15.6673 13.2641C15.9295 13.2159 16.1981 13.2103 16.3809 13.2103L24.5478 13.2103C25.6097 13.2253 27.2907 13.2205 28.8119 13.2145L29.4085 13.212C30.6915 13.2067 31.7665 13.2023 32.1489 13.2102C32.3476 13.2143 32.5227 13.297 32.6829 13.4357C32.8382 13.5702 32.9427 13.7278 32.9861 13.8092C33.6514 15.4244 34.1077 16.6808 34.3967 17.6226C34.6661 18.501 34.7708 19.0464 34.7887 19.3365C34.6342 19.9518 34.0572 21.1783 31.9355 21.7604C30.3017 22.2085 29.2184 21.703 28.6106 21.2332C28.8322 20.8706 29.0955 20.3093 29.3511 19.5103C29.4984 19.0501 29.2447 18.5575 28.7845 18.4103C28.3242 18.263 27.8317 18.5167 27.6844 18.9769C27.3741 19.9466 27.1002 20.3598 27.0434 20.4314C26.8393 20.6625 26.4146 21.0462 25.8544 21.3665C25.2879 21.6903 24.6403 21.9168 23.9833 21.9077Z" fill="#067647"/>
<path d="M17.2528 29.8355C17.2528 29.3522 17.6446 28.9605 18.1278 28.9605L22.7945 28.9605C23.2778 28.9605 23.6695 29.3522 23.6695 29.8355C23.6695 30.3187 23.2778 30.7105 22.7945 30.7105L18.1278 30.7105C17.6446 30.7105 17.2528 30.3187 17.2528 29.8355Z" fill="#067647"/>
<path d="M30.3778 29.8355C30.3778 29.1911 30.9002 28.6688 31.5445 28.6688L31.555 28.6688C32.1993 28.6688 32.7217 29.1911 32.7217 29.8355C32.7217 30.4798 32.1993 31.0021 31.555 31.0021L31.5445 31.0021C30.9002 31.0021 30.3778 30.4798 30.3778 29.8355Z" fill="#067647"/>
<path fill-rule="evenodd" clip-rule="evenodd" d="M31.5833 24.8726C28.8602 24.8726 26.6249 27.0436 26.6249 29.7558C26.6249 31.301 27.4022 32.4555 28.2081 33.3793C28.4953 33.7086 28.811 34.0351 29.1059 34.3402C29.2176 34.4558 29.3267 34.5686 29.4298 34.677C29.8221 35.0895 30.1592 35.4689 30.4197 35.8562C30.6375 36.1802 31.027 36.543 31.59 36.543C32.1625 36.543 32.5509 36.1694 32.762 35.8329C33.0094 35.4385 33.3364 35.0599 33.722 34.6535C33.848 34.5207 33.9867 34.3785 34.1306 34.2311C34.3985 33.9565 34.6842 33.6637 34.9377 33.3799C35.75 32.4708 36.5416 31.3323 36.5416 29.7558C36.5416 27.0436 34.3063 24.8726 31.5833 24.8726ZM28.3749 29.7558C28.3749 28.0406 29.7959 26.6226 31.5833 26.6226C33.3706 26.6226 34.7916 28.0406 34.7916 29.7558C34.7916 30.6833 34.349 31.4123 33.6327 32.214C33.4003 32.4742 33.1686 32.7112 32.9227 32.9627L32.9219 32.9636C32.7718 33.1172 32.6164 33.2761 32.4524 33.4491C32.1555 33.7621 31.8508 34.1007 31.5755 34.4714C31.2978 34.1142 30.9933 33.7817 30.6979 33.471C30.5729 33.3397 30.4512 33.2138 30.3323 33.0908C30.0496 32.7983 29.7828 32.5223 29.5269 32.2289C28.8135 31.4112 28.3749 30.6624 28.3749 29.7558Z" fill="#067647"/>
</svg>
