<svg width="48" height="48" viewBox="0 0 48 48" fill="none" xmlns="http://www.w3.org/2000/svg">
<path d="M0 24C0 10.7452 10.7452 0 24 0C37.2548 0 48 10.7452 48 24C48 37.2548 37.2548 48 24 48C10.7452 48 0 37.2548 0 24Z" fill="#F3FCF6"/>
<path opacity="0.4" fill-rule="evenodd" clip-rule="evenodd" d="M19.967 22.3307L11.9019 17.7609L12.7646 16.2383L20.8298 20.8081C22.2943 21.6379 23.183 21.9579 23.9999 21.9579C24.8168 21.9579 25.7055 21.6379 27.17 20.8081L35.2352 16.2383L36.0979 17.7609L28.0327 22.3307C26.5239 23.1856 25.2978 23.7079 23.9999 23.7079C22.702 23.7079 21.4759 23.1856 19.967 22.3307Z" fill="#161616"/>
<path fill-rule="evenodd" clip-rule="evenodd" d="M27.3626 15.0004C25.1134 14.9439 22.8864 14.9439 20.6372 15.0004C18.7744 15.0472 17.4728 15.0821 16.468 15.2571C15.5025 15.4252 14.9006 15.7094 14.4056 16.2063C13.9072 16.7066 13.6274 17.3009 13.4645 18.2387C13.2944 19.2182 13.2651 20.482 13.2264 22.2968C13.2022 23.4343 13.2022 24.565 13.2264 25.7026C13.2651 27.5174 13.2944 28.7811 13.4645 29.7606C13.6274 30.6984 13.9072 31.2927 14.4056 31.793C14.9006 32.2899 15.5025 32.5741 16.468 32.7423C17.4728 32.9172 18.7744 32.9522 20.6372 32.999C22.8864 33.0555 25.1134 33.0555 27.3626 32.999C29.2254 32.9522 30.5271 32.9172 31.5319 32.7423C32.4973 32.5741 33.0993 32.2899 33.5943 31.793C34.0927 31.2927 34.3725 30.6984 34.5353 29.7606C34.7054 28.7811 34.7347 27.5174 34.7734 25.7026C34.7977 24.5651 34.7977 23.4343 34.7734 22.2968C34.7347 20.482 34.7054 19.2182 34.5353 18.2387C34.3725 17.301 34.0927 16.7066 33.5943 16.2063C33.0993 15.7095 32.4973 15.4252 31.5319 15.2571C30.5271 15.0821 29.2254 15.0472 27.3626 15.0004ZM20.5932 13.2509C22.8718 13.1937 25.1281 13.1937 27.4066 13.2509L27.4745 13.2527C29.2534 13.2973 30.6849 13.3333 31.8321 13.5331C33.0332 13.7422 34.0094 14.1434 34.834 14.9712C35.6553 15.7956 36.0543 16.7577 36.2595 17.9393C36.4549 19.0644 36.4847 20.461 36.5215 22.191L36.523 22.2595C36.5478 23.4219 36.5478 24.5775 36.523 25.7399L36.5215 25.8084C36.4847 27.5384 36.4549 28.9349 36.2595 30.06C36.0543 31.2416 35.6553 32.2038 34.834 33.0281C34.0094 33.8559 33.0332 34.2571 31.8321 34.4663C30.6849 34.6661 29.2535 34.702 27.4745 34.7467L27.4066 34.7484C25.1281 34.8057 22.8718 34.8057 20.5932 34.7484L20.5253 34.7467C18.7464 34.702 17.3149 34.6661 16.1677 34.4663C14.9667 34.2571 13.9905 33.8559 13.1658 33.0281C12.3446 32.2038 11.9455 31.2416 11.7403 30.06C11.5449 28.9349 11.5152 27.5384 11.4783 25.8084L11.4768 25.7399C11.4521 24.5775 11.4521 23.4219 11.4768 22.2595L11.4783 22.1909C11.5152 20.4609 11.5449 19.0644 11.7403 17.9393C11.9455 16.7577 12.3446 15.7956 13.1658 14.9712C13.9905 14.1434 14.9667 13.7422 16.1677 13.533C17.3149 13.3333 18.7464 13.2973 20.5254 13.2526L20.5932 13.2509Z" fill="#067647"/>
</svg>
