<svg width="48" height="48" viewBox="0 0 48 48" fill="none" xmlns="http://www.w3.org/2000/svg">
<path d="M0 24C0 10.7452 10.7452 0 24 0C37.2548 0 48 10.7452 48 24C48 37.2548 37.2548 48 24 48C10.7452 48 0 37.2548 0 24Z" fill="#F3FCF6"/>
<path fill-rule="evenodd" clip-rule="evenodd" d="M23.9999 13.209C18.0399 13.209 13.2083 18.0406 13.2083 24.0007C13.2083 25.4903 13.5096 26.9073 14.0538 28.1958L14.0624 28.2162C14.2178 28.5841 14.3468 28.8895 14.438 29.1386C14.5294 29.3883 14.6102 29.6511 14.629 29.9229C14.6595 30.3641 14.5364 30.8218 14.3949 31.3477C14.3848 31.3853 14.3746 31.4233 14.3644 31.4616L13.5699 34.4306L16.539 33.6362C16.5773 33.626 16.6153 33.6158 16.6529 33.6057C17.1788 33.4642 17.6365 33.3411 18.0777 33.3716C18.3495 33.3904 18.6123 33.4711 18.862 33.5626C19.1111 33.6538 19.4165 33.7828 19.7845 33.9383L19.8048 33.9468C21.0933 34.491 22.5103 34.7923 23.9999 34.7923C29.96 34.7923 34.7916 29.9607 34.7916 24.0007C34.7916 18.0406 29.96 13.209 23.9999 13.209ZM11.4583 24.0007C11.4583 17.0741 17.0734 11.459 23.9999 11.459C30.9265 11.459 36.5416 17.0741 36.5416 24.0007C36.5416 30.9272 30.9265 36.5423 23.9999 36.5423C22.2722 36.5423 20.624 36.1925 19.1239 35.5589C18.7304 35.3927 18.4645 35.2807 18.2601 35.2058C18.0517 35.1295 17.9763 35.1188 17.9569 35.1174C17.8473 35.1099 17.6984 35.1376 16.9913 35.3268L12.5594 36.5126C12.2576 36.5934 11.9355 36.507 11.7146 36.286C11.4936 36.0651 11.4072 35.743 11.488 35.4412L12.6738 31.0093C12.863 30.3022 12.8907 30.1533 12.8831 30.0437C12.8818 30.0243 12.8711 29.9489 12.7947 29.7404C12.7199 29.5361 12.6079 29.2702 12.4417 28.8767C11.8081 27.3766 11.4583 25.7284 11.4583 24.0007Z" fill="#067647"/>
<path opacity="0.4" fill-rule="evenodd" clip-rule="evenodd" d="M20.3606 17.2921C20.3965 17.2922 20.4325 17.2922 20.4687 17.2922C20.7258 17.2922 21.1588 17.3002 21.559 17.4669C22.037 17.6662 22.4311 18.0766 22.5319 18.7199L22.5329 18.7266C22.6579 19.524 22.7529 20.1301 22.8152 20.5588C22.8464 20.7734 22.8706 20.9515 22.8864 21.0908C22.8994 21.2053 22.9158 21.3629 22.908 21.4947C22.8746 22.0658 22.6429 22.5201 22.4018 22.8719C22.2484 23.0958 22.0429 23.3392 21.8813 23.5305C21.8178 23.6056 21.7611 23.6728 21.717 23.7276L21.0764 24.5232C21.4099 24.9691 21.7816 25.3994 22.1913 25.8091C22.601 26.2188 23.0313 26.5905 23.4772 26.924L24.2728 26.2834C24.3276 26.2393 24.3948 26.1826 24.4699 26.1191C24.6612 25.9575 24.9046 25.752 25.1285 25.5986C25.4803 25.3575 25.9346 25.1258 26.5057 25.0924C26.6375 25.0846 26.7951 25.101 26.9096 25.114C27.0489 25.1298 27.227 25.154 27.4416 25.1852C27.8703 25.2475 28.4763 25.3425 29.2738 25.4675L29.2805 25.4685C29.9238 25.5693 30.3342 25.9634 30.5335 26.4414C30.7002 26.8416 30.7082 27.2746 30.7082 27.5317C30.7082 27.5679 30.7082 27.6039 30.7083 27.6398C30.7092 28.1994 30.7101 28.7156 30.4782 29.2233C30.3097 29.5922 30.0235 29.906 29.7376 30.1346C29.4517 30.3631 29.0825 30.5732 28.6856 30.6563C28.1415 30.7702 27.7276 30.6763 27.2847 30.5758C27.2644 30.5712 27.244 30.5665 27.2235 30.5619C24.9785 30.055 22.7771 28.8698 20.9538 27.0466C19.1306 25.2233 17.9454 23.0219 17.4385 20.7769C17.4339 20.7564 17.4292 20.736 17.4246 20.7157C17.3241 20.2728 17.2302 19.8589 17.3441 19.3148L17.3441 19.3148C17.4272 18.9179 17.6373 18.5487 17.8658 18.2628C18.0944 17.9769 18.4082 17.6907 18.7771 17.5222L18.7771 17.5222C19.2848 17.2903 19.801 17.2912 20.3606 17.2921ZM25.0436 27.9096C25.8783 28.3439 26.7428 28.6593 27.6089 28.8549C28.1222 28.9708 28.1852 28.9731 28.327 28.9434C28.3793 28.9325 28.5027 28.8813 28.6449 28.7676C28.787 28.654 28.8642 28.5448 28.8864 28.4962C28.9414 28.3759 28.9582 28.2606 28.9582 27.5317C28.9582 27.4171 28.9547 27.3241 28.9455 27.2457C28.9427 27.2224 28.9397 27.2027 28.9366 27.186C28.168 27.0655 27.595 26.9759 27.1898 26.917C26.9805 26.8866 26.8239 26.8655 26.7121 26.8528C26.6344 26.844 26.5977 26.8417 26.5883 26.8408C26.4567 26.8527 26.3137 26.9078 26.1177 27.0421C25.9652 27.1467 25.8441 27.2496 25.6935 27.3776C25.6014 27.4558 25.4984 27.5434 25.3703 27.6465L25.0436 27.9096ZM20.0908 22.9568L20.3539 22.6301C20.457 22.502 20.5446 22.399 20.6228 22.3069C20.7508 22.1563 20.8537 22.0352 20.9583 21.8827C21.0925 21.6867 21.1477 21.5437 21.1596 21.4121C21.1587 21.4027 21.1564 21.366 21.1476 21.2883C21.1349 21.1765 21.1138 21.0199 21.0834 20.8106C21.0245 20.4054 20.9349 19.8324 20.8144 19.0638C20.7977 19.0607 20.778 19.0577 20.7547 19.0549C20.6763 19.0457 20.5833 19.0422 20.4687 19.0422C19.7398 19.0422 19.6245 19.059 19.5042 19.114C19.4556 19.1362 19.3464 19.2134 19.2328 19.3555C19.1191 19.4977 19.0679 19.6211 19.057 19.6734C19.0273 19.8152 19.0296 19.8782 19.1455 20.3915C19.3411 21.2576 19.6565 22.1221 20.0908 22.9568Z" fill="#161616"/>
</svg>
