<svg width="48" height="48" viewBox="0 0 48 48" fill="none" xmlns="http://www.w3.org/2000/svg">
<path d="M0 24C0 10.7452 10.7452 0 24 0C37.2548 0 48 10.7452 48 24C48 37.2548 37.2548 48 24 48C10.7452 48 0 37.2548 0 24Z" fill="#F3FCF6"/>
<path d="M15.8532 34.2033C15.3853 34.2033 14.9175 34.1614 14.4544 34.0762C14.1487 34.0202 13.8955 33.8067 13.7905 33.5151C13.6844 33.2234 13.7403 32.8967 13.9386 32.6575C14.4228 32.073 14.7565 31.3579 14.9047 30.5891C14.9607 30.2881 14.7052 29.9905 14.592 29.8762C12.5725 27.845 11.4595 25.1804 11.4595 22.3781C11.4595 16.3569 16.6033 11.458 22.9266 11.458C28.431 11.458 33.1688 15.189 34.1932 20.3293C34.2877 20.803 33.9797 21.2639 33.506 21.3584C33.0312 21.4505 32.5715 21.1449 32.477 20.6713C31.6149 16.3476 27.5992 13.2093 22.9278 13.2093C17.5693 13.2093 13.2107 17.3229 13.2107 22.3792C13.2107 24.7172 14.1428 26.942 15.8368 28.6454C16.4866 29.3022 16.7737 30.1293 16.6255 30.9168C16.5228 31.4512 16.3548 31.9657 16.1273 32.4487C17.0152 32.409 17.8902 32.1746 18.6777 31.7557L18.6905 31.7487L18.8118 31.6869C19.2913 31.4419 19.5316 31.3194 19.8011 31.2634C19.8315 31.2576 19.863 31.2529 19.8933 31.2494C20.1068 31.2284 20.3367 31.2458 20.6622 31.3065C21.137 31.3963 21.4497 31.8537 21.361 32.3286C21.2712 32.8034 20.8138 33.116 20.339 33.0273C20.2293 33.0063 20.1594 32.9982 20.1174 32.9935C20.0112 33.039 19.8058 33.144 19.6063 33.2455L19.4908 33.3051C18.372 33.8989 17.1167 34.2046 15.8544 34.2046L15.8532 34.2033Z" fill="#067647"/>
<path opacity="0.4" d="M33.5294 36.5415C32.7104 36.5415 31.8961 36.3397 31.1669 35.9488L31.0771 35.9022C31.0153 35.8696 30.9476 35.8346 30.8962 35.8089C30.8659 35.8136 30.8309 35.8194 30.8006 35.8241C30.7539 35.8322 30.7014 35.8404 30.6443 35.8497C30.2056 35.936 29.7366 35.9804 29.2489 35.9804C25.2286 35.9804 21.9573 32.835 21.9573 28.9687C21.9573 25.1023 25.2286 21.957 29.2489 21.957C33.2693 21.957 36.5406 25.1023 36.5406 28.9687C36.5406 30.7758 35.8312 32.4897 34.5444 33.7952L34.5339 33.8056C34.4779 33.8605 34.4534 33.9153 34.4488 33.9363C34.5281 34.3482 34.7019 34.7215 34.9644 35.0435C35.1592 35.2827 35.2129 35.6071 35.1079 35.8964C35.0017 36.1858 34.7521 36.3981 34.4488 36.4553C34.1443 36.5124 33.8362 36.5415 33.5282 36.5415H33.5294ZM31.1832 34.067C31.4142 34.1032 31.6067 34.2036 31.8879 34.3506L31.9801 34.3983C31.9801 34.3983 31.9871 34.4019 31.9906 34.4042C32.2601 34.5489 32.5483 34.655 32.8446 34.718C32.7979 34.5652 32.7582 34.41 32.7291 34.2525C32.6171 33.6587 32.8317 33.0275 33.3042 32.5608C34.2632 31.5855 34.7917 30.3103 34.7917 28.9687C34.7917 26.0672 32.3056 23.707 29.2501 23.707C26.1946 23.707 23.7084 26.0672 23.7084 28.9687C23.7084 31.8702 26.1946 34.2304 29.2501 34.2304C29.6292 34.2304 29.9886 34.1965 30.3199 34.13C30.3316 34.1277 30.3433 34.1254 30.3549 34.1242C30.4133 34.1149 30.4657 34.1067 30.5124 34.0986C30.7481 34.0589 30.9523 34.025 31.1821 34.067H31.1832Z" fill="#161616"/>
</svg>
