<svg width="48" height="48" viewBox="0 0 48 48" fill="none" xmlns="http://www.w3.org/2000/svg">
<path d="M0 24C0 10.7452 10.7452 0 24 0C37.2548 0 48 10.7452 48 24C48 37.2548 37.2548 48 24 48C10.7452 48 0 37.2548 0 24Z" fill="#F3FCF6"/>
<path d="M24.8609 35.9587C24.4573 35.9587 23.9323 35.9272 23.0036 35.8607C19.9201 35.6402 18.2039 33.777 17.7524 33.2112C16.9883 32.2545 16.5718 31.572 16.0888 30.781C15.8764 30.4333 15.6571 30.074 15.3853 29.654C14.7296 28.639 13.9899 27.3288 14.0914 26.1972C14.1953 25.0352 14.9839 23.8568 15.4926 23.3423L18.1398 20.5657V16.9816C18.1398 16.7156 18.1899 16.0261 18.6508 15.3821C19.1221 14.7253 19.8676 14.3648 20.7508 14.3648C21.0588 14.3648 21.3504 14.4092 21.6188 14.4943C21.6409 14.1653 21.7389 13.5972 22.1239 13.0605C22.5953 12.4037 23.3408 12.042 24.2239 12.042C25.1071 12.042 25.8526 12.4037 26.3239 13.0605C26.7848 13.7033 26.8349 14.3928 26.8349 14.66V22.2107C26.8349 22.6937 26.4429 23.0857 25.9599 23.0857C25.4769 23.0857 25.0849 22.6937 25.0849 22.2107V14.66C25.0849 14.4558 25.0231 13.792 24.2239 13.792C23.4248 13.792 23.3629 14.4558 23.3629 14.66V22.2107C23.3629 22.6937 22.9709 23.0857 22.4879 23.0857C22.0049 23.0857 21.6129 22.6937 21.6129 22.2107V16.9828C21.6129 16.7798 21.5511 16.116 20.7508 16.116C19.9504 16.116 19.8898 16.7798 19.8898 16.9828V26.2765C19.8898 26.7595 19.4978 27.1515 19.0148 27.1515C18.5318 27.1515 18.1398 26.7595 18.1398 26.2765V23.1032L16.7538 24.558C16.7538 24.558 16.7444 24.5673 16.7398 24.572C16.4633 24.8496 15.8939 25.6838 15.8344 26.3547C15.8064 26.6638 15.9616 27.3218 16.8553 28.7055C17.1388 29.1442 17.3744 29.5292 17.5821 29.8698C18.0534 30.641 18.4256 31.25 19.1198 32.1203C19.3613 32.4225 20.6924 33.9427 23.1284 34.1165C24.9403 34.246 25.0254 34.2343 25.8409 34.1223C26.3193 34.0558 26.7614 34.3918 26.8268 34.8701C26.8921 35.3485 26.5573 35.7907 26.0789 35.856C25.5843 35.9237 25.2926 35.9598 24.8621 35.9598L24.8609 35.9587Z" fill="#067647"/>
<path opacity="0.4" d="M25.7745 35.9587C24.9298 35.9587 23.9825 35.926 23.0667 35.8618C19.9633 35.6413 18.2367 33.7805 17.7805 33.2147C17.0117 32.258 16.5917 31.5755 16.104 30.7845C15.8905 30.4368 15.6688 30.0775 15.3947 29.6575C14.7332 28.6414 13.9877 27.33 14.0903 26.1983C14.1965 25.0328 14.991 23.8557 15.5043 23.3412L18.1702 20.5645V16.9828C18.1702 15.9305 18.869 14.366 20.7952 14.366C21.123 14.366 21.4158 14.4115 21.676 14.492C21.746 13.449 22.4693 12.042 24.2952 12.042C26.121 12.042 26.8443 13.449 26.9143 14.492C27.1745 14.4115 27.4662 14.366 27.7952 14.366C29.621 14.366 30.3443 15.7718 30.4143 16.8148C30.6733 16.7343 30.9662 16.6888 31.294 16.6888C33.2202 16.6888 33.919 18.2545 33.919 19.3068V28.6005C33.919 29.815 33.4955 32.2906 31.9112 33.8668C30.7993 34.9751 29.4542 35.6448 27.9142 35.856C27.409 35.9248 26.646 35.9587 25.7745 35.9587ZM18.1702 23.0903L16.7597 24.5592C16.7597 24.5592 16.7503 24.5685 16.7457 24.5732C16.4668 24.8497 15.894 25.6838 15.8333 26.3547C15.8053 26.6615 15.9617 27.3183 16.8623 28.702C17.1482 29.1406 17.385 29.5256 17.595 29.8663C18.0698 30.6375 18.4455 31.2465 19.1443 32.1168C19.3882 32.419 20.731 33.9403 23.1903 34.1153C25.1445 34.2542 26.9272 34.2238 27.6773 34.1212C28.83 33.9637 29.8392 33.4597 30.6768 32.6255C31.9018 31.4075 32.169 29.3063 32.169 28.5993V19.3056C32.169 19.1015 32.106 18.4376 31.294 18.4376C30.482 18.4376 30.4202 19.1015 30.4202 19.3056V23.3715C30.4202 23.8545 30.0282 24.2465 29.5452 24.2465C29.0622 24.2465 28.6702 23.8545 28.6702 23.3715V16.9816C28.6702 16.7786 28.6072 16.1148 27.7952 16.1148C26.9832 16.1148 26.9202 16.7786 26.9202 16.9816V22.2095C26.9202 22.6925 26.5282 23.0845 26.0452 23.0845C25.5622 23.0845 25.1702 22.6925 25.1702 22.2095V14.6588C25.1702 14.4547 25.1072 13.7909 24.2952 13.7909C23.4832 13.7909 23.4202 14.4547 23.4202 14.6588V22.2095C23.4202 22.6925 23.0282 23.0845 22.5452 23.0845C22.0622 23.0845 21.6702 22.6925 21.6702 22.2095V16.9816C21.6702 16.7786 21.6072 16.1148 20.7952 16.1148C19.9832 16.1148 19.9202 16.7786 19.9202 16.9816V26.2753C19.9202 26.7583 19.5282 27.1503 19.0452 27.1503C18.5622 27.1503 18.1702 26.7583 18.1702 26.2753V23.0903Z" fill="#161616"/>
</svg>
