<svg width="16" height="16" viewBox="0 0 16 16" fill="none" xmlns="http://www.w3.org/2000/svg">
<path d="M14.2226 1.83127C12.7839 0.333993 10.4407 0.333995 9.00204 1.83127L8.40744 2.4501C8.16828 2.699 8.17618 3.09465 8.42509 3.33381C8.67399 3.57296 9.06964 3.56506 9.30879 3.31616L9.9034 2.69733C10.8502 1.71197 12.3745 1.71197 13.3212 2.69733C14.2815 3.69674 14.2815 5.32705 13.3212 6.32647L10.6217 9.13596C10.472 9.29182 10.3089 9.4221 10.1371 9.52766C9.21373 10.0952 8.00435 9.96902 7.20391 9.13596C7.0737 9.00045 6.96129 8.85362 6.86651 8.69841C6.68663 8.40381 6.30198 8.31082 6.00738 8.49071C5.71278 8.6706 5.61979 9.05525 5.79968 9.34985C5.94096 9.58121 6.10863 9.8002 6.30256 10.002C7.51464 11.2635 9.37274 11.4647 10.7917 10.5926C11.0539 10.4314 11.2999 10.2343 11.5231 10.002L14.2226 7.19253C15.6477 5.70931 15.6477 3.31448 14.2226 1.83127Z" fill="#1B8354"/>
<path d="M9.69697 5.99793C8.25831 4.50066 5.91505 4.50066 4.47639 5.99793L1.77687 8.80743C0.351719 10.2907 0.351719 12.6855 1.77687 14.1687C3.21553 15.666 5.55879 15.666 6.99745 14.1687L7.59227 13.5496C7.83142 13.3007 7.82352 12.9051 7.57462 12.6659C7.32572 12.4268 6.93007 12.4347 6.69092 12.6836L6.0961 13.3026C5.14932 14.288 3.62501 14.288 2.67822 13.3026C1.71794 12.3032 1.71794 10.6729 2.67822 9.6735L5.37774 6.864C6.32452 5.87864 7.84883 5.87864 8.79562 6.864C8.92579 6.99948 9.03819 7.14627 9.13295 7.30143C9.31285 7.59602 9.6975 7.68898 9.99209 7.50908C10.2867 7.32917 10.3796 6.94452 10.1997 6.64993C10.0585 6.41864 9.89085 6.19971 9.69697 5.99793Z" fill="#1B8354"/>
</svg>
