<svg width="24" height="24" viewBox="0 0 24 24" fill="none" xmlns="http://www.w3.org/2000/svg">
<path fill-rule="evenodd" clip-rule="evenodd" d="M8.98584 15.5111C9.13784 15.6211 9.38784 15.7481 9.73584 15.7481L9.73486 15.747C10.0209 15.747 10.3719 15.662 10.7889 15.414L11.9679 14.714C11.9849 14.712 12.0108 14.711 12.0278 14.714L13.2079 15.4151C14.1369 15.9661 14.7378 15.7121 15.0128 15.5111C15.2888 15.3091 15.7158 14.813 15.4728 13.751L15.1938 12.542C15.1948 12.523 15.2029 12.492 15.2119 12.475L16.1889 11.4901C16.6739 11.0031 16.8559 10.4231 16.6889 9.89807C16.5219 9.37407 16.0389 9.00706 15.3599 8.89006L14.1128 8.68499C14.0938 8.67599 14.0678 8.65702 14.0528 8.64202L13.3619 7.24807C13.0499 6.61707 12.5539 6.25405 11.9999 6.25305H11.9969C11.4439 6.25305 10.9458 6.614 10.6298 7.247L9.93784 8.64202C9.92384 8.65602 9.89685 8.67599 9.87885 8.68499L8.63086 8.89006C7.95986 9.00606 7.47784 9.37107 7.31084 9.89407C7.14284 10.4181 7.32383 10.999 7.80683 11.487L8.78486 12.474C8.79386 12.491 8.80183 12.522 8.80283 12.541L8.52285 13.752C8.28085 14.813 8.70884 15.3101 8.98584 15.5111ZM8.82661 10.3819C8.84039 10.3976 8.85518 10.4144 8.87285 10.4321L9.86386 11.4321C10.2099 11.7821 10.3769 12.364 10.2719 12.849C10.2719 12.852 10.2709 12.856 10.2699 12.859L9.98584 14.089C9.98371 14.0992 9.9816 14.109 9.97956 14.1185C9.97679 14.1313 9.97417 14.1435 9.97187 14.155C9.97871 14.1512 9.98573 14.1471 9.99293 14.143C10.0026 14.1375 10.0125 14.1317 10.0228 14.126L11.2199 13.4151C11.6759 13.1461 12.3318 13.147 12.7818 13.417L13.9739 14.125C13.99 14.1349 14.006 14.1439 14.0207 14.1521L14.0258 14.155C14.0228 14.1392 14.0193 14.1223 14.0156 14.1047C14.0143 14.0989 14.0131 14.093 14.0119 14.087L13.7278 12.859C13.7278 12.859 13.7258 12.852 13.7258 12.849C13.6208 12.364 13.7889 11.782 14.1329 11.433L15.1258 10.4321C15.1387 10.4192 15.1501 10.4068 15.1607 10.3953C15.1648 10.3907 15.1689 10.3863 15.1728 10.3821C15.1705 10.3815 15.168 10.381 15.1656 10.3804C15.1493 10.3768 15.131 10.3726 15.1119 10.37L13.8409 10.1611L13.8258 10.158C13.3798 10.075 12.9269 9.73799 12.7249 9.33899L12.0179 7.91399C12.0109 7.89799 12.0039 7.884 11.9969 7.872C11.9899 7.885 11.9819 7.90004 11.9739 7.91604L11.2708 9.33401C11.0668 9.73801 10.6169 10.074 10.1739 10.158C10.1679 10.159 10.1618 10.1601 10.1568 10.1611L8.88086 10.371C8.8741 10.3724 8.86758 10.3736 8.86124 10.3748C8.84909 10.3771 8.83763 10.3793 8.82661 10.3819Z" fill="#1B8354"/>
<path fill-rule="evenodd" clip-rule="evenodd" d="M10.703 22.412C11.092 22.633 11.541 22.75 12 22.75C12.459 22.75 12.908 22.633 13.297 22.412L13.319 22.399C18.992 18.916 21.75 15.164 21.75 10.93C21.75 8.36598 20.722 5.93804 18.854 4.09404C16.996 2.26004 14.562 1.25 12 1.25C9.438 1.25 7.004 2.26004 5.146 4.09404C3.279 5.93804 2.25 8.36498 2.25 10.93C2.25 16.522 7.05998 20.153 10.678 22.397L10.703 22.412ZM12.547 21.114C12.223 21.292 11.778 21.293 11.454 21.114V21.115C8.143 19.059 3.75 15.769 3.75 10.931C3.75 6.49696 7.528 2.75098 12 2.75098C16.472 2.75098 20.25 6.49696 20.25 10.931C20.25 14.597 17.73 17.928 12.547 21.114Z" fill="#1B8354"/>
</svg>
