<svg width="20" height="22" viewBox="0 0 20 22" fill="none" xmlns="http://www.w3.org/2000/svg">
<path fill-rule="evenodd" clip-rule="evenodd" d="M10 5.75C7.65279 5.75 5.75 7.65279 5.75 10C5.75 12.3472 7.65279 14.25 10 14.25C12.3472 14.25 14.25 12.3472 14.25 10C14.25 7.65279 12.3472 5.75 10 5.75ZM7.25 10C7.25 8.48122 8.48122 7.25 10 7.25C11.5188 7.25 12.75 8.48122 12.75 10C12.75 11.5188 11.5188 12.75 10 12.75C8.48122 12.75 7.25 11.5188 7.25 10Z" fill="#1B8354"/>
<path fill-rule="evenodd" clip-rule="evenodd" d="M10.001 0.25C6.17489 0.25 2.52456 2.51303 0.996647 6.08468C-0.425309 9.40865 0.344475 12.2373 1.94723 14.6595C3.26128 16.6454 5.17786 18.4178 6.90693 20.0168C7.2366 20.3217 7.55961 20.6204 7.87017 20.9129L7.87182 20.9145C8.44685 21.4528 9.21067 21.75 10.001 21.75C10.7914 21.75 11.5553 21.4528 12.1303 20.9145C12.4238 20.6396 12.7281 20.3592 13.0385 20.0732C14.7864 18.4628 16.7299 16.672 18.0577 14.6609C19.6586 12.2362 20.4256 9.40453 19.0055 6.08468C17.4775 2.51303 13.8272 0.25 10.001 0.25ZM2.37575 6.67465C3.65457 3.68528 6.74166 1.75 10.001 1.75C13.2604 1.75 16.3475 3.68528 17.6263 6.67465C18.7984 9.4144 18.207 11.7124 16.806 13.8344C15.5884 15.6786 13.8049 17.3242 12.0516 18.9418C11.7339 19.235 11.4172 19.5272 11.1051 19.8195C10.8127 20.0932 10.4172 20.25 10.001 20.25C9.5852 20.25 9.18997 20.0934 8.89767 19.8201C8.56522 19.5069 8.22753 19.1942 7.88891 18.8806C6.15804 17.2778 4.40275 15.6523 3.19817 13.8318C1.7958 11.7124 1.2022 9.41794 2.37575 6.67465Z" fill="#1B8354"/>
</svg>
