<svg width="20" height="20" viewBox="0 0 20 20" fill="none" xmlns="http://www.w3.org/2000/svg">
<path fill-rule="evenodd" clip-rule="evenodd" d="M9.99992 13.9584C12.6463 13.9584 14.7916 11.8131 14.7916 9.16675V5.83342C14.7916 3.18705 12.6463 1.04175 9.99992 1.04175C7.35355 1.04175 5.20825 3.18705 5.20825 5.83342V9.16675C5.20825 11.8131 7.35355 13.9584 9.99992 13.9584ZM9.99992 2.29175C8.04391 2.29175 6.45825 3.87741 6.45825 5.83342V9.16675C6.45825 11.1228 8.04391 12.7084 9.99992 12.7084C11.7427 12.7084 13.1914 11.4497 13.4866 9.79175H11.6666C11.3214 9.79175 11.0416 9.51193 11.0416 9.16675C11.0416 8.82157 11.3214 8.54175 11.6666 8.54175H13.5416V6.45842H11.6666C11.3214 6.45842 11.0416 6.17859 11.0416 5.83342C11.0416 5.48824 11.3214 5.20842 11.6666 5.20842H13.4866C13.1914 3.55049 11.7427 2.29175 9.99992 2.29175Z" fill="#161616"/>
<path d="M3.95825 9.16675C3.95825 8.82157 3.67843 8.54175 3.33325 8.54175C2.98807 8.54175 2.70825 8.82157 2.70825 9.16675C2.70825 12.9833 5.64042 16.115 9.37492 16.432V17.7084H7.49992C7.15474 17.7084 6.87492 17.9882 6.87492 18.3334C6.87492 18.6786 7.15474 18.9584 7.49992 18.9584H12.4999C12.8451 18.9584 13.1249 18.6786 13.1249 18.3334C13.1249 17.9882 12.8451 17.7084 12.4999 17.7084H10.6249V16.432C14.3594 16.115 17.2916 12.9833 17.2916 9.16675C17.2916 8.82157 17.0118 8.54175 16.6666 8.54175C16.3214 8.54175 16.0416 8.82157 16.0416 9.16675C16.0416 12.5035 13.3366 15.2084 9.99992 15.2084C6.6632 15.2084 3.95825 12.5035 3.95825 9.16675Z" fill="#161616"/>
</svg>
