<svg width="18" height="21" viewBox="0 0 18 21" fill="none" xmlns="http://www.w3.org/2000/svg">
<path fill-rule="evenodd" clip-rule="evenodd" d="M8.88048 1.44922C9.24003 0.718698 9.97962 0.25 10.7964 0.25C12.334 0.25 13.3448 1.8226 12.7778 3.22779L12.7748 3.23527L11.1933 6.92482C11.2628 6.92083 11.333 6.91863 11.4034 6.91863C14.0975 6.91863 16.3831 8.66935 17.1588 11.0926C17.3827 11.7921 17.1757 12.4541 16.7567 12.9178C17.1516 13.3754 17.3403 14.0174 17.1198 14.6934C16.903 15.3581 16.6499 15.974 16.2193 16.5542C15.7898 17.1328 15.2154 17.6339 14.4083 18.1294L12.5622 19.3953C12.5621 19.7194 12.5622 20.1334 12.5624 20.4798C12.5624 20.6896 12.5625 20.8747 12.5625 21H11.0625C11.0625 20.876 11.0624 20.6922 11.0624 20.4834C11.0622 19.9661 11.062 19.2951 11.0625 18.9986L11.0632 18.6044L13.592 16.8704L13.6088 16.8601C14.3082 16.4325 14.726 16.0492 15.0148 15.6601C15.3055 15.2685 15.4981 14.8281 15.6938 14.2282C15.735 14.1019 15.7102 13.9926 15.6082 13.8835C15.4927 13.7599 15.2834 13.6557 15.0293 13.6557C14.8027 13.6557 14.5407 13.7552 14.2142 13.9858C13.9373 14.1813 13.6802 14.4209 13.3995 14.6825C13.3433 14.7349 13.2861 14.7881 13.2277 14.8421C13.0969 14.9628 12.9654 15.0642 12.8464 15.1403L12.8455 15.1409C11.071 16.2719 8.73068 14.9281 8.73068 12.9057C8.73068 10.8936 11.0473 9.55329 12.8185 10.6536C13.2132 10.8656 13.5323 11.1391 13.782 11.4135C14.2152 11.8895 14.65 12.1557 15.0364 12.1557C15.2987 12.1557 15.5162 12.0484 15.6376 11.9188C15.7457 11.8033 15.7735 11.6851 15.7302 11.5499C15.1501 9.73743 13.4344 8.41863 11.4034 8.41863C11.1381 8.41863 10.8397 8.47324 10.5896 8.5367C10.4686 8.56742 10.367 8.59808 10.297 8.62064C10.2621 8.63187 10.2354 8.64096 10.2185 8.64686L10.2008 8.65314L10.1991 8.65375L10.1979 8.65418L8.55851 9.26426L11.3893 2.66039C11.5663 2.20974 11.2332 1.75 10.7964 1.75C10.5604 1.75 10.3376 1.88555 10.2263 2.11162L7.79953 7.04218L7.17453 8.32789L5.82547 7.67211L6.375 6.54165V3.38095C6.375 2.99501 6.0701 2.70238 5.71875 2.70238C5.3674 2.70238 5.0625 2.99501 5.0625 3.38095V10.5238H3.5625V7.19048C3.5625 6.80453 3.2576 6.51191 2.90625 6.51191C2.55491 6.51191 2.25 6.80453 2.25 7.19048V12.3099C2.25 13.5261 2.52876 14.7251 3.06368 15.812L3.07392 15.8328L4.125 18.3497L4.125 21H2.625L2.625 18.6503L1.70744 16.4531C1.07757 15.1652 0.75 13.7471 0.75 12.3099V7.19048C0.75 5.99847 1.70429 5.01191 2.90625 5.01191C3.13566 5.01191 3.35605 5.04785 3.5625 5.11429V3.38095C3.5625 2.18894 4.51679 1.20238 5.71875 1.20238C6.92071 1.20238 7.875 2.18894 7.875 3.38095V3.4921L8.88048 1.44922ZM13.164 12.8974C12.9783 12.742 12.814 12.5784 12.6726 12.4231C12.5115 12.2461 12.3183 12.085 12.0938 11.9671L12.0659 11.9525L12.0393 11.9356C11.2764 11.4493 10.2307 12.0519 10.2307 12.9057C10.2307 13.7594 11.2758 14.3618 12.0386 13.8764C12.0754 13.8528 12.1373 13.8073 12.2101 13.74C12.2566 13.6971 12.3055 13.6515 12.3565 13.6037C12.5884 13.387 12.8656 13.128 13.164 12.8974Z" fill="#067647"/>
</svg>
