<svg width="32" height="32" viewBox="0 0 32 32" fill="none" xmlns="http://www.w3.org/2000/svg">
<path d="M16.7777 1.66675H15.2223C12.6211 1.66673 10.5725 1.66672 8.9718 1.86998C7.33316 2.07805 6.01286 2.51442 4.96736 3.50183C3.91379 4.49687 3.44081 5.76632 3.21673 7.34036C2.99996 8.86313 2.99998 10.8073 3 13.2543V18.7458C2.99998 21.1929 2.99996 23.137 3.21673 24.6598C3.4408 26.2338 3.91379 27.5033 4.96736 28.4983C6.01286 29.4857 7.33316 29.9221 8.97179 30.1302C10.5725 30.3334 12.6211 30.3334 15.2223 30.3334H15.2941L15.3137 30.3332L15.3333 30.3334H17.3333C17.8856 30.3334 18.3333 29.8857 18.3333 29.3334C18.3333 28.7811 17.8856 28.3334 17.3333 28.3334H15.3333L15.3137 28.3336L15.2941 28.3334C12.6053 28.3334 10.6838 28.3315 9.22373 28.1461C7.78682 27.9637 6.9491 27.619 6.34061 27.0443C5.7402 26.4772 5.38619 25.7086 5.19677 24.3779C5.00238 23.0124 5 21.2108 5 18.6667L5 13.3334C5 10.7894 5.00238 8.98777 5.19677 7.62223C5.38619 6.2916 5.7402 5.52292 6.34061 4.95586C6.9491 4.38118 7.78682 4.0365 9.22373 3.85405C10.6838 3.66865 12.6053 3.66675 15.2941 3.66675H16.7059C19.3947 3.66675 21.3162 3.66865 22.7763 3.85405C24.2132 4.0365 25.0509 4.38118 25.6594 4.95586C26.2598 5.52292 26.6138 6.2916 26.8032 7.62223C26.9976 8.98777 27 10.7894 27 13.3334C27 13.8857 27.4477 14.3334 28 14.3334C28.5523 14.3334 29 13.8857 29 13.3334V13.2543C29 10.8073 29 8.86314 28.7833 7.34037C28.5592 5.76632 28.0862 4.49687 27.0326 3.50183C25.9871 2.51442 24.6668 2.07805 23.0282 1.86998C21.4275 1.66672 19.3789 1.66673 16.7777 1.66675Z" fill="#1B8354"/>
<path d="M10.6667 8.33341C10.1144 8.33341 9.66667 8.78113 9.66667 9.33341C9.66667 9.8857 10.1144 10.3334 10.6667 10.3334H21.3333C21.8856 10.3334 22.3333 9.8857 22.3333 9.33341C22.3333 8.78113 21.8856 8.33341 21.3333 8.33341H10.6667Z" fill="#1B8354"/>
<g opacity="0.4">
<path d="M10.6665 15C10.1142 15 9.6665 15.4477 9.6665 16C9.6665 16.5523 10.1142 17 10.6665 17H17.3332C17.8855 17 18.3332 16.5523 18.3332 16C18.3332 15.4477 17.8855 15 17.3332 15H10.6665Z" fill="#1B8354"/>
<path fill-rule="evenodd" clip-rule="evenodd" d="M25.3332 16.3333C22.5733 16.3333 20.3332 18.5675 20.3332 21.3268C20.3332 22.8891 21.0512 24.283 22.1751 25.1984L21.1689 28.7154L21.1617 28.7418C20.903 29.7492 21.8993 30.6155 22.8585 30.2324L25.3332 29.2442L27.8331 30.2425C28.7691 30.6163 29.7516 29.7986 29.5425 28.8058L29.5377 28.7841L28.6646 25.0505C29.6884 24.1364 30.3332 22.8072 30.3332 21.3268C30.3332 18.5675 28.0931 16.3333 25.3332 16.3333ZM22.3332 21.3268C22.3332 19.6751 23.6748 18.3333 25.3332 18.3333C26.9916 18.3333 28.3332 19.6751 28.3332 21.3268C28.3332 22.9786 26.9916 24.3203 25.3332 24.3203C23.6748 24.3203 22.3332 22.9786 22.3332 21.3268ZM23.5051 27.8206L23.9867 26.1372C24.4152 26.2565 24.8667 26.3203 25.3332 26.3203C25.8629 26.3203 26.3734 26.238 26.8527 26.0855L27.2684 27.8634L25.9021 27.3178C25.5369 27.1719 25.1295 27.1719 24.7642 27.3178L23.5051 27.8206Z" fill="#1B8354"/>
</g>
</svg>
