<svg width="22" height="22" viewBox="0 0 22 22" fill="none" xmlns="http://www.w3.org/2000/svg">
<path d="M8.5 0.25C8.91421 0.25 9.25 0.585786 9.25 1C9.25 1.41421 8.91421 1.75 8.5 1.75H4C2.75736 1.75 1.75 2.75736 1.75 4V14C1.75 15.2426 2.75736 16.25 4 16.25H18C18.3574 16.25 18.6044 16.1853 18.7998 16.084C18.9986 15.9809 19.1938 15.8141 19.4092 15.5381C19.6641 15.212 20.1355 15.1544 20.4619 15.4092C20.788 15.6641 20.8456 16.1355 20.5908 16.4619C20.286 16.8523 19.9344 17.1858 19.4902 17.416C19.0424 17.6481 18.5493 17.75 18 17.75H11.7041C11.732 17.8285 11.75 17.912 11.75 18V20.25H15C15.4142 20.25 15.75 20.5858 15.75 21C15.75 21.4142 15.4142 21.75 15 21.75H7C6.58579 21.75 6.25 21.4142 6.25 21C6.25 20.5858 6.58579 20.25 7 20.25H10.25V18C10.25 17.912 10.268 17.8285 10.2959 17.75H4C1.92893 17.75 0.25 16.0711 0.25 14V4C0.25 1.92893 1.92893 0.25 4 0.25H8.5ZM19 0.25C20.5188 0.25 21.75 1.48122 21.75 3V11C21.75 12.5188 20.5188 13.75 19 13.75H14C12.4812 13.75 11.25 12.5188 11.25 11V3C11.25 1.48122 12.4812 0.25 14 0.25H19ZM14 1.75C13.3096 1.75 12.75 2.30964 12.75 3V11C12.75 11.6904 13.3096 12.25 14 12.25H19C19.6904 12.25 20.25 11.6904 20.25 11V3C20.25 2.30964 19.6904 1.75 19 1.75H14ZM16.5088 9C17.0611 9 17.5088 9.44771 17.5088 10C17.5088 10.5523 17.0611 11 16.5088 11H16.5C15.9477 11 15.5 10.5523 15.5 10C15.5 9.44771 15.9477 9 16.5 9H16.5088Z" fill="#067647"/>
</svg>
