<svg width="33" height="32" viewBox="0 0 33 32" fill="none" xmlns="http://www.w3.org/2000/svg">
<path d="M15.6643 0.690983C15.7464 0.522151 16.0003 0.580608 16.0003 0.768341V24.2793C16.0003 24.6465 15.799 24.9842 15.476 25.1589L8.32211 29.0275C7.59017 29.4233 6.72319 28.8042 6.86005 27.9834L8.24915 19.6527C8.30219 19.3346 8.19855 19.0104 7.9708 18.7821L2.0657 12.8614C1.48631 12.2805 1.81446 11.2875 2.62591 11.1662L10.7374 9.9538C11.0655 9.90476 11.348 9.69619 11.4914 9.39702L15.6643 0.690983Z" fill="#1B8354"/>
<path d="M16.3795 0.690983C16.2786 0.507512 15.9997 0.579129 15.9997 0.788491V24.2452C15.9997 24.6303 16.2208 24.9812 16.5681 25.1473L24.9326 29.1487C25.6714 29.5021 26.4985 28.8661 26.3468 28.0613L24.7714 19.703C24.7062 19.3575 24.8274 19.003 25.0905 18.7697L31.6953 12.9115C32.3363 12.343 32.0122 11.2843 31.1628 11.172L21.8613 9.9422C21.5438 9.90023 21.2657 9.70877 21.1131 9.42723L16.3795 0.690983Z" fill="#E5E7EB"/>
</svg>
