<svg width="32" height="32" viewBox="0 0 32 32" fill="none" xmlns="http://www.w3.org/2000/svg">
<path d="M15.0919 1.96866C15.4494 1.19379 16.5506 1.19379 16.9081 1.96866L20.2797 9.27846C20.4254 9.59426 20.7247 9.81171 21.0701 9.85266L29.064 10.8005C29.9114 10.9009 30.2517 11.9483 29.6252 12.5277L23.7151 17.9932C23.4597 18.2293 23.3454 18.5812 23.4132 18.9223L24.982 26.8178C25.1483 27.6548 24.2574 28.3021 23.5128 27.8853L16.4884 23.9534C16.185 23.7835 15.815 23.7835 15.5116 23.9534L8.48722 27.8853C7.74261 28.3021 6.85165 27.6548 7.01795 26.8178L8.5868 18.9223C8.65458 18.5812 8.54026 18.2293 8.28492 17.9932L2.3748 12.5277C1.7483 11.9483 2.08862 10.9009 2.93601 10.8005L10.9299 9.85266C11.2753 9.81171 11.5746 9.59426 11.7203 9.27846L15.0919 1.96866Z" fill="#E5E7EB"/>
</svg>
