<svg width="28" height="28" viewBox="0 0 28 28" fill="none" xmlns="http://www.w3.org/2000/svg">
<path d="M13.0919 0.968665C13.4494 0.193793 14.5506 0.193793 14.9081 0.968665L18.2797 8.27846C18.4254 8.59426 18.7247 8.81171 19.0701 8.85266L27.064 9.80047C27.9114 9.90094 28.2517 10.9483 27.6252 11.5277L21.7151 16.9932C21.4597 17.2293 21.3454 17.5812 21.4132 17.9223L22.982 25.8178C23.1483 26.6548 22.2574 27.3021 21.5128 26.8853L14.4884 22.9534C14.185 22.7835 13.815 22.7835 13.5116 22.9534L6.48722 26.8853C5.74261 27.3021 4.85165 26.6548 5.01795 25.8178L6.5868 17.9223C6.65458 17.5812 6.54026 17.2293 6.28492 16.9932L0.374802 11.5277C-0.251698 10.9483 0.0886183 9.90094 0.936012 9.80047L8.92995 8.85266C9.27531 8.81171 9.57459 8.59426 9.72026 8.27846L13.0919 0.968665Z" fill="#1B8354"/>
</svg>
