<svg width="120" height="40" viewBox="0 0 120 40" fill="none" xmlns="http://www.w3.org/2000/svg">
<rect x="0.5" y="0.5" width="119" height="39" rx="5.5" fill="black"/>
<rect x="0.5" y="0.5" width="119" height="39" rx="5.5" stroke="#A6A6A6"/>
<path d="M24.7045 20.7632C24.7166 19.8433 24.9669 18.9414 25.4321 18.1413C25.8972 17.3412 26.5621 16.6689 27.3648 16.1871C26.8548 15.4761 26.1821 14.8909 25.4 14.4781C24.6178 14.0653 23.7479 13.8362 22.8592 13.8091C20.9635 13.6148 19.1258 14.9165 18.1598 14.9165C17.1751 14.9165 15.6878 13.8284 14.0862 13.8605C13.0502 13.8932 12.0406 14.1873 11.1557 14.7142C10.2708 15.2411 9.54075 15.9828 9.03674 16.867C6.85352 20.5574 8.48201 25.981 10.5734 28.9641C11.6197 30.4248 12.8426 32.0565 14.4428 31.9986C16.0086 31.9352 16.5934 31.0238 18.4835 31.0238C20.3561 31.0238 20.9048 31.9986 22.5374 31.9618C24.2176 31.9352 25.2762 30.4946 26.2859 29.0201C27.0377 27.9793 27.6162 26.8289 28 25.6117C27.0238 25.2086 26.1908 24.5339 25.6048 23.6717C25.0187 22.8095 24.7056 21.798 24.7045 20.7632Z" fill="white"/>
<path d="M21.6208 11.8471C22.5369 10.7734 22.9883 9.39335 22.879 8C21.4793 8.14352 20.1865 8.7966 19.258 9.82911C18.804 10.3335 18.4563 10.9203 18.2348 11.556C18.0132 12.1917 17.9222 12.8638 17.9669 13.5338C18.6669 13.5408 19.3595 13.3927 19.9924 13.1005C20.6253 12.8084 21.1821 12.3798 21.6208 11.8471Z" fill="white"/>
<path d="M36.8657 8.50586H38.7026C39.2856 8.50586 39.772 8.62012 40.1616 8.84863C40.5542 9.07715 40.8472 9.41406 41.0405 9.85938C41.2368 10.3047 41.335 10.8525 41.335 11.5029C41.335 12.1533 41.2368 12.7012 41.0405 13.1465C40.8472 13.5918 40.5557 13.9287 40.166 14.1572C39.7764 14.3857 39.2886 14.5 38.7026 14.5H36.8657V8.50586ZM37.5073 9.09033V13.9111H38.6807C39.0146 13.9111 39.3062 13.8613 39.5552 13.7617C39.8071 13.6592 40.0151 13.5068 40.1792 13.3047C40.3433 13.1025 40.4663 12.8521 40.5483 12.5532C40.6304 12.2515 40.6714 11.9014 40.6714 11.5029C40.6714 10.9727 40.5981 10.5288 40.4517 10.1714C40.3052 9.81104 40.084 9.5415 39.7881 9.36279C39.4951 9.18115 39.126 9.09033 38.6807 9.09033H37.5073ZM44.5342 9.82422C44.9004 9.82422 45.23 9.90332 45.5229 10.0615C45.8159 10.2168 46.0474 10.4438 46.2173 10.7427C46.3872 11.0415 46.4722 11.4062 46.4722 11.8369V12.562C46.4722 12.9927 46.3872 13.3574 46.2173 13.6562C46.0474 13.9551 45.8159 14.1836 45.5229 14.3418C45.23 14.4971 44.9004 14.5747 44.5342 14.5747C44.1592 14.5747 43.8252 14.4971 43.5322 14.3418C43.2422 14.1865 43.0122 13.9595 42.8423 13.6606C42.6753 13.3589 42.5918 12.9927 42.5918 12.562V11.8369C42.5918 11.4209 42.6768 11.0635 42.8467 10.7646C43.0166 10.4629 43.248 10.2314 43.541 10.0703C43.834 9.90625 44.165 9.82422 44.5342 9.82422ZM44.5386 10.3911C44.2749 10.3911 44.0449 10.4541 43.8486 10.5801C43.6523 10.7031 43.4985 10.8789 43.3872 11.1074C43.2788 11.333 43.2246 11.6011 43.2246 11.9116V12.4961C43.2246 12.8096 43.2773 13.0806 43.3828 13.3091C43.4883 13.5347 43.6392 13.709 43.8354 13.832C44.0317 13.9521 44.2661 14.0122 44.5386 14.0122C44.8081 14.0122 45.0396 13.9521 45.2329 13.832C45.4263 13.709 45.5742 13.5347 45.6768 13.3091C45.7822 13.0806 45.835 12.8096 45.835 12.4961V11.9116C45.835 11.6011 45.7808 11.333 45.6724 11.1074C45.5669 10.8789 45.416 10.7031 45.2197 10.5801C45.0264 10.4541 44.7993 10.3911 44.5386 10.3911ZM53.3276 9.89893L52.0928 14.5H51.4688L50.3569 10.8306H50.3394L49.2495 14.5H48.6211L47.3203 9.89893H48.041L48.9287 13.6475H48.9551L50.0405 9.89893H50.647L51.7588 13.6475H51.7896L52.6904 9.89893H53.3276ZM54.4087 14.5V9.89893H55.0415V10.7559H55.0767C55.1177 10.627 55.1865 10.4907 55.2832 10.3472C55.3828 10.2036 55.5293 10.0806 55.7227 9.97803C55.916 9.87549 56.1724 9.82422 56.4917 9.82422C56.9575 9.82422 57.3354 9.95166 57.6255 10.2065C57.9185 10.4614 58.0649 10.8452 58.0649 11.3579V14.5H57.4277V11.5601C57.4277 11.314 57.3853 11.1045 57.3003 10.9316C57.2183 10.7559 57.0967 10.6226 56.9355 10.5317C56.7744 10.438 56.5796 10.3911 56.3511 10.3911C56.0552 10.3911 55.8105 10.46 55.6172 10.5977C55.4238 10.7324 55.2788 10.9155 55.1821 11.147C55.0884 11.3755 55.0415 11.6289 55.0415 11.9072V14.5H54.4087ZM59.6953 14.5V8.18506H60.3325V14.5H59.6953ZM63.7119 9.82422C64.0781 9.82422 64.4077 9.90332 64.7007 10.0615C64.9937 10.2168 65.2251 10.4438 65.395 10.7427C65.5649 11.0415 65.6499 11.4062 65.6499 11.8369V12.562C65.6499 12.9927 65.5649 13.3574 65.395 13.6562C65.2251 13.9551 64.9937 14.1836 64.7007 14.3418C64.4077 14.4971 64.0781 14.5747 63.7119 14.5747C63.3369 14.5747 63.0029 14.4971 62.71 14.3418C62.4199 14.1865 62.1899 13.9595 62.02 13.6606C61.853 13.3589 61.7695 12.9927 61.7695 12.562V11.8369C61.7695 11.4209 61.8545 11.0635 62.0244 10.7646C62.1943 10.4629 62.4258 10.2314 62.7188 10.0703C63.0117 9.90625 63.3428 9.82422 63.7119 9.82422ZM63.7163 10.3911C63.4526 10.3911 63.2227 10.4541 63.0264 10.5801C62.8301 10.7031 62.6763 10.8789 62.5649 11.1074C62.4565 11.333 62.4023 11.6011 62.4023 11.9116V12.4961C62.4023 12.8096 62.4551 13.0806 62.5605 13.3091C62.666 13.5347 62.8169 13.709 63.0132 13.832C63.2095 13.9521 63.4438 14.0122 63.7163 14.0122C63.9858 14.0122 64.2173 13.9521 64.4106 13.832C64.604 13.709 64.752 13.5347 64.8545 13.3091C64.96 13.0806 65.0127 12.8096 65.0127 12.4961V11.9116C65.0127 11.6011 64.9585 11.333 64.8501 11.1074C64.7446 10.8789 64.5938 10.7031 64.3975 10.5801C64.2041 10.4541 63.9771 10.3911 63.7163 10.3911ZM68.2866 14.5747C67.8413 14.5747 67.4795 14.4473 67.2012 14.1924C66.9229 13.9346 66.7837 13.5933 66.7837 13.1685C66.7837 12.7729 66.9199 12.4521 67.1924 12.2061C67.4648 11.957 67.8633 11.8325 68.3877 11.8325H69.6445V11.3359C69.6445 11.0107 69.5493 10.772 69.3589 10.6196C69.1685 10.4673 68.9121 10.3911 68.5898 10.3911C68.373 10.3911 68.1958 10.4175 68.0581 10.4702C67.9233 10.5229 67.8179 10.5947 67.7417 10.6855C67.6685 10.7734 67.6157 10.8716 67.5835 10.98H66.9639C66.9814 10.7925 67.0312 10.627 67.1133 10.4834C67.1982 10.3398 67.311 10.2197 67.4517 10.123C67.5952 10.0234 67.7651 9.94873 67.9614 9.89893C68.1577 9.84912 68.3774 9.82422 68.6206 9.82422C68.9253 9.82422 69.2036 9.87402 69.4556 9.97363C69.7104 10.0703 69.9126 10.2285 70.062 10.4482C70.2114 10.668 70.2861 10.9595 70.2861 11.3228V14.5H69.6709V13.8584H69.6401C69.5698 13.9814 69.4731 14.0972 69.3501 14.2056C69.23 14.314 69.082 14.4033 68.9062 14.4736C68.7305 14.541 68.5239 14.5747 68.2866 14.5747ZM68.4404 14.0122C68.6689 14.0122 68.8726 13.9653 69.0513 13.8716C69.2329 13.7749 69.3765 13.6445 69.4819 13.4805C69.5903 13.3164 69.6445 13.1304 69.6445 12.9224V12.3643H68.4009C68.0581 12.3643 67.812 12.4404 67.6626 12.5928C67.5161 12.7422 67.4429 12.9297 67.4429 13.1553C67.4429 13.4453 67.5425 13.6606 67.7417 13.8013C67.9409 13.9419 68.1738 14.0122 68.4404 14.0122ZM73.459 9.82422C73.6904 9.82422 73.897 9.85791 74.0786 9.92529C74.2603 9.99268 74.4141 10.0864 74.54 10.2065C74.6689 10.3237 74.7627 10.4585 74.8213 10.6108H74.8521V8.18506H75.4893V14.5H74.8828V13.7397H74.8521C74.8228 13.8511 74.7671 13.9565 74.6851 14.0562C74.603 14.1558 74.499 14.2451 74.373 14.3242C74.2471 14.4004 74.105 14.4604 73.9468 14.5044C73.7886 14.5483 73.6187 14.5703 73.437 14.5703C73.0825 14.5703 72.7705 14.4927 72.501 14.3374C72.2344 14.1792 72.0278 13.958 71.8813 13.6738C71.7349 13.3896 71.6616 13.0557 71.6616 12.6719V11.7271C71.6616 11.3374 71.7378 11.0005 71.8901 10.7163C72.0425 10.4321 72.2534 10.2124 72.5229 10.0571C72.7954 9.90186 73.1074 9.82422 73.459 9.82422ZM73.5381 10.3911C73.2861 10.3911 73.0679 10.4497 72.8833 10.5669C72.6987 10.6841 72.5552 10.854 72.4526 11.0767C72.3501 11.2993 72.2988 11.5688 72.2988 11.8853V12.5049C72.2988 12.8213 72.3501 13.0923 72.4526 13.3179C72.5552 13.5405 72.7002 13.7119 72.8877 13.832C73.0781 13.9492 73.3022 14.0078 73.5601 14.0078C73.8267 14.0078 74.0552 13.9478 74.2456 13.8276C74.439 13.7075 74.5884 13.5405 74.6938 13.3267C74.7993 13.1099 74.8521 12.8608 74.8521 12.5796V11.7314C74.8521 11.4736 74.7949 11.2437 74.6807 11.0415C74.5693 10.8394 74.4155 10.6812 74.2192 10.5669C74.0229 10.4497 73.7959 10.3911 73.5381 10.3911ZM80.8945 9.82422C81.2607 9.82422 81.5903 9.90332 81.8833 10.0615C82.1763 10.2168 82.4077 10.4438 82.5776 10.7427C82.7476 11.0415 82.8325 11.4062 82.8325 11.8369V12.562C82.8325 12.9927 82.7476 13.3574 82.5776 13.6562C82.4077 13.9551 82.1763 14.1836 81.8833 14.3418C81.5903 14.4971 81.2607 14.5747 80.8945 14.5747C80.5195 14.5747 80.1855 14.4971 79.8926 14.3418C79.6025 14.1865 79.3726 13.9595 79.2026 13.6606C79.0356 13.3589 78.9521 12.9927 78.9521 12.562V11.8369C78.9521 11.4209 79.0371 11.0635 79.207 10.7646C79.377 10.4629 79.6084 10.2314 79.9014 10.0703C80.1943 9.90625 80.5254 9.82422 80.8945 9.82422ZM80.8989 10.3911C80.6353 10.3911 80.4053 10.4541 80.209 10.5801C80.0127 10.7031 79.8589 10.8789 79.7476 11.1074C79.6392 11.333 79.585 11.6011 79.585 11.9116V12.4961C79.585 12.8096 79.6377 13.0806 79.7432 13.3091C79.8486 13.5347 79.9995 13.709 80.1958 13.832C80.3921 13.9521 80.6265 14.0122 80.8989 14.0122C81.1685 14.0122 81.3999 13.9521 81.5933 13.832C81.7866 13.709 81.9346 13.5347 82.0371 13.3091C82.1426 13.0806 82.1953 12.8096 82.1953 12.4961V11.9116C82.1953 11.6011 82.1411 11.333 82.0327 11.1074C81.9272 10.8789 81.7764 10.7031 81.5801 10.5801C81.3867 10.4541 81.1597 10.3911 80.8989 10.3911ZM84.2388 14.5V9.89893H84.8716V10.7559H84.9067C84.9478 10.627 85.0166 10.4907 85.1133 10.3472C85.2129 10.2036 85.3594 10.0806 85.5527 9.97803C85.7461 9.87549 86.0024 9.82422 86.3218 9.82422C86.7876 9.82422 87.1655 9.95166 87.4556 10.2065C87.7485 10.4614 87.895 10.8452 87.895 11.3579V14.5H87.2578V11.5601C87.2578 11.314 87.2153 11.1045 87.1304 10.9316C87.0483 10.7559 86.9268 10.6226 86.7656 10.5317C86.6045 10.438 86.4097 10.3911 86.1812 10.3911C85.8853 10.3911 85.6406 10.46 85.4473 10.5977C85.2539 10.7324 85.1089 10.9155 85.0122 11.147C84.9185 11.3755 84.8716 11.6289 84.8716 11.9072V14.5H84.2388ZM91.7798 9.89893V8.74756H92.4126V9.89893H93.4937V10.4307H92.4126V13.2827C92.4126 13.5669 92.4683 13.7573 92.5796 13.854C92.6909 13.9507 92.8945 13.999 93.1904 13.999C93.2461 13.999 93.3135 13.9961 93.3926 13.9902C93.4717 13.9844 93.5303 13.98 93.5684 13.9771V14.5088C93.5332 14.5146 93.4541 14.522 93.3311 14.5308C93.208 14.5396 93.1099 14.5439 93.0366 14.5439C92.6851 14.5439 92.4185 14.4985 92.2368 14.4077C92.0581 14.314 91.9365 14.1719 91.8721 13.9814C91.8105 13.7881 91.7798 13.5449 91.7798 13.252V10.4307H91.0459V9.89893H91.7798ZM94.8516 14.5V8.18506H95.4844V10.7559H95.5195C95.5518 10.6416 95.6206 10.5127 95.7261 10.3691C95.8315 10.2227 95.9839 10.0952 96.1831 9.98682C96.3853 9.87842 96.6475 9.82422 96.9697 9.82422C97.415 9.82422 97.7856 9.95312 98.0815 10.2109C98.3774 10.4658 98.5254 10.8511 98.5254 11.3667V14.5H97.8882V11.5688C97.8882 11.3198 97.8442 11.1074 97.7563 10.9316C97.6685 10.7559 97.5425 10.6226 97.3784 10.5317C97.2144 10.438 97.0166 10.3911 96.7852 10.3911C96.498 10.3911 96.2578 10.46 96.0645 10.5977C95.8711 10.7324 95.7261 10.9155 95.6294 11.147C95.5327 11.3755 95.4844 11.6289 95.4844 11.9072V14.5H94.8516ZM101.821 14.5747C101.417 14.5747 101.071 14.4927 100.784 14.3286C100.5 14.1646 100.282 13.9316 100.129 13.6299C99.98 13.3252 99.9053 12.9692 99.9053 12.562V11.8501C99.9053 11.4341 99.9844 11.0752 100.143 10.7734C100.304 10.4717 100.523 10.2388 100.802 10.0747C101.083 9.90771 101.404 9.82422 101.764 9.82422C102.127 9.82422 102.448 9.90771 102.727 10.0747C103.005 10.2388 103.223 10.4717 103.381 10.7734C103.542 11.0752 103.623 11.4341 103.623 11.8501V12.3643H100.542V12.606C100.542 13.0073 100.651 13.3428 100.868 13.6123C101.084 13.8789 101.401 14.0122 101.817 14.0122C102.019 14.0122 102.195 13.9829 102.344 13.9243C102.494 13.8628 102.614 13.7866 102.705 13.6958C102.795 13.6021 102.855 13.5054 102.885 13.4058H103.557C103.54 13.5229 103.491 13.6504 103.412 13.7881C103.333 13.9229 103.222 14.0503 103.078 14.1704C102.938 14.2876 102.762 14.3843 102.551 14.4604C102.343 14.5366 102.1 14.5747 101.821 14.5747ZM100.542 11.8677H102.986C102.986 11.856 102.986 11.8442 102.986 11.8325C102.986 11.8208 102.986 11.8076 102.986 11.793C102.986 11.5088 102.935 11.2612 102.832 11.0503C102.729 10.8394 102.586 10.6768 102.401 10.5625C102.22 10.4482 102.007 10.3911 101.764 10.3911C101.518 10.3911 101.303 10.4482 101.118 10.5625C100.937 10.6768 100.794 10.8394 100.692 11.0503C100.592 11.2612 100.542 11.5088 100.542 11.793C100.542 11.8076 100.542 11.8208 100.542 11.8325C100.542 11.8442 100.542 11.856 100.542 11.8677Z" fill="white"/>
<path d="M38.2061 30.5H36.1758L40.3066 18.5029H42.5391L46.6611 30.5H44.5518L43.4883 27.1777H39.2783L38.2061 30.5ZM41.4316 20.5771H41.3525L39.7266 25.6484H43.04L41.4316 20.5771ZM52.2644 30.6318C51.0603 30.6318 50.1462 30.0605 49.654 29.208H49.5837V33.585H47.6325V21.21H49.531V22.5723H49.6013C50.1111 21.6846 51.0603 21.0869 52.3083 21.0869C54.3913 21.0869 55.8767 22.6602 55.8767 25.4375V26.2637C55.8767 29.0234 54.4089 30.6318 52.2644 30.6318ZM51.8161 29.0234C53.0554 29.0234 53.8991 28.0303 53.8991 26.1582V25.5078C53.8991 23.7061 53.1081 22.6777 51.781 22.6777C50.4187 22.6777 49.5661 23.7852 49.5661 25.499V26.1582C49.5661 27.916 50.4275 29.0234 51.8161 29.0234ZM62.183 30.6318C60.9789 30.6318 60.0649 30.0605 59.5727 29.208H59.5024V33.585H57.5512V21.21H59.4496V22.5723H59.52C60.0297 21.6846 60.9789 21.0869 62.227 21.0869C64.31 21.0869 65.7954 22.6602 65.7954 25.4375V26.2637C65.7954 29.0234 64.3276 30.6318 62.183 30.6318ZM61.7348 29.0234C62.9741 29.0234 63.8178 28.0303 63.8178 26.1582V25.5078C63.8178 23.7061 63.0268 22.6777 61.6996 22.6777C60.3373 22.6777 59.4848 23.7852 59.4848 25.499V26.1582C59.4848 27.916 60.3461 29.0234 61.7348 29.0234ZM69.8387 27.1689H71.7899C71.8778 28.2061 72.7919 29.0938 74.4882 29.0938C76.0438 29.0938 76.9667 28.3643 76.9667 27.2305C76.9667 26.3164 76.3514 25.8242 75.0682 25.5166L73.0995 25.0244C71.5526 24.6641 70.1639 23.7412 70.1639 21.79C70.1639 19.4961 72.1679 18.2393 74.497 18.2393C76.8261 18.2393 78.7684 19.4961 78.8124 21.7373H76.8964C76.8085 20.7178 76.0262 19.874 74.4706 19.874C73.0995 19.874 72.1679 20.5244 72.1679 21.6406C72.1679 22.4229 72.7128 22.9854 73.829 23.2402L75.7889 23.7236C77.5907 24.1631 78.9618 25.0156 78.9618 27.0547C78.9618 29.4102 77.0546 30.7373 74.3387 30.7373C70.9989 30.7373 69.8827 28.7861 69.8387 27.1689ZM81.3395 21.21V18.9512H83.2555V21.21H85.066V22.7744H83.2555V27.7314C83.2555 28.7422 83.6334 29.0234 84.6793 29.0234C84.8463 29.0234 85.0045 29.0234 85.1188 29.0059V30.5C84.9605 30.5264 84.5914 30.5615 84.1959 30.5615C81.9371 30.5615 81.3131 29.7529 81.3131 27.8896V22.7744H80.0299V21.21H81.3395ZM90.3353 21.0518C93.0071 21.0518 94.4573 22.9326 94.4573 25.4639V26.2109C94.4573 28.8301 93.0159 30.6582 90.3353 30.6582C87.6546 30.6582 86.1956 28.8301 86.1956 26.2109V25.4639C86.1956 22.9414 87.6634 21.0518 90.3353 21.0518ZM90.3353 22.6162C88.8851 22.6162 88.1644 23.8027 88.1644 25.4902V26.2021C88.1644 27.8633 88.8763 29.085 90.3353 29.085C91.7943 29.085 92.4974 27.8721 92.4974 26.2021V25.4902C92.4974 23.7939 91.7855 22.6162 90.3353 22.6162ZM96.1055 30.5V21.21H98.0567V22.4316H98.127C98.3643 21.8516 99.0586 21.0781 100.351 21.0781C100.606 21.0781 100.825 21.0957 101.01 21.1309V22.8535C100.843 22.8096 100.5 22.7832 100.175 22.7832C98.6104 22.7832 98.083 23.75 98.083 24.998V30.5H96.1055ZM105.743 30.6582C103.256 30.6582 101.674 29.0146 101.674 26.2637V25.3232C101.674 22.7305 103.22 21.0518 105.664 21.0518C108.142 21.0518 109.636 22.792 109.636 25.4111V26.2988H103.598V26.5186C103.598 28.083 104.442 29.1201 105.769 29.1201C106.762 29.1201 107.439 28.6279 107.677 27.8281H109.531C109.25 29.3311 108.037 30.6582 105.743 30.6582ZM103.598 24.9365H107.729V24.9189C107.729 23.6006 106.912 22.5635 105.673 22.5635C104.416 22.5635 103.598 23.6006 103.598 24.9189V24.9365Z" fill="white"/>
</svg>
