<svg width="120" height="40" viewBox="0 0 120 40" fill="none" xmlns="http://www.w3.org/2000/svg">
<rect x="0.5" y="0.5" width="119" height="39" rx="5.5" fill="black"/>
<rect x="0.5" y="0.5" width="119" height="39" rx="5.5" stroke="#A6A6A6"/>
<path d="M17.8048 19.4617L8.0896 30.0059C8.09051 30.0078 8.09051 30.0106 8.09142 30.0125C8.38981 31.1574 9.41179 32 10.6254 32C11.1108 32 11.5662 31.8656 11.9567 31.6305L11.9877 31.6118L22.9229 25.1593L17.8048 19.4617Z" fill="#EA4335"/>
<path d="M27.6332 17.6662L27.624 17.6597L22.9029 14.8612L17.584 19.7013L22.922 25.1582L27.6177 22.3878C28.4407 21.9324 29.0001 21.045 29.0001 20.0223C29.0001 19.0052 28.4489 18.1225 27.6332 17.6662Z" fill="#FBBC04"/>
<path d="M8.08942 9.99325C8.03102 10.2135 8 10.4449 8 10.6838V29.3163C8 29.5552 8.03102 29.7866 8.09034 30.0059L18.1386 19.7313L8.08942 9.99325Z" fill="#4285F4"/>
<path d="M17.8767 20L22.9044 14.8594L11.982 8.3836C11.5851 8.14005 11.1215 8.00009 10.6261 8.00009C9.41246 8.00009 8.38865 8.84456 8.09027 9.99043C8.09027 9.99136 8.08936 9.9923 8.08936 9.99323L17.8767 20Z" fill="#34A853"/>
<path d="M40.07 10.23H42.54V13.73C42.1533 13.8567 41.7633 13.95 41.37 14.01C40.9767 14.07 40.53 14.1 40.03 14.1C39.29 14.1 38.6667 13.9533 38.16 13.66C37.6533 13.36 37.2667 12.9367 37 12.39C36.74 11.8367 36.61 11.1833 36.61 10.43C36.61 9.68333 36.7567 9.03667 37.05 8.49C37.3433 7.94333 37.7633 7.52 38.31 7.22C38.8633 6.91333 39.53 6.76 40.31 6.76C40.71 6.76 41.0867 6.79667 41.44 6.87C41.8 6.94333 42.1333 7.04667 42.44 7.18L42.1 7.96C41.8467 7.84667 41.56 7.75 41.24 7.67C40.9267 7.59 40.6 7.55 40.26 7.55C39.6933 7.55 39.2067 7.66667 38.8 7.9C38.3933 8.13333 38.0833 8.46667 37.87 8.9C37.6567 9.32667 37.55 9.83667 37.55 10.43C37.55 10.9967 37.64 11.5 37.82 11.94C38.0067 12.3733 38.2967 12.7133 38.69 12.96C39.0833 13.2 39.6 13.32 40.24 13.32C40.4533 13.32 40.64 13.3133 40.8 13.3C40.9667 13.28 41.1167 13.2567 41.25 13.23C41.39 13.2033 41.52 13.1767 41.64 13.15V11.03H40.07V10.23ZM48.2354 14H44.2454V6.86H48.2354V7.65H45.1454V9.88H48.0554V10.66H45.1454V13.21H48.2354V14ZM52.062 14H51.162V7.65H48.932V6.86H54.282V7.65H52.062V14ZM59.9663 14H57.3863V13.48L58.2263 13.29V7.58L57.3863 7.38V6.86H59.9663V7.38L59.1263 7.58V13.29L59.9663 13.48V14ZM63.605 14H62.705V7.65H60.475V6.86H65.825V7.65H63.605V14ZM75.7293 10.42C75.7293 10.9733 75.6593 11.4767 75.5193 11.93C75.3793 12.3767 75.1693 12.7633 74.8893 13.09C74.616 13.4167 74.2726 13.6667 73.8593 13.84C73.4526 14.0133 72.9793 14.1 72.4393 14.1C71.8793 14.1 71.3926 14.0133 70.9793 13.84C70.566 13.66 70.2226 13.41 69.9493 13.09C69.676 12.7633 69.4726 12.3733 69.3393 11.92C69.206 11.4667 69.1393 10.9633 69.1393 10.41C69.1393 9.67667 69.2593 9.03667 69.4993 8.49C69.7393 7.94333 70.1026 7.51667 70.5893 7.21C71.0826 6.90333 71.7026 6.75 72.4493 6.75C73.1626 6.75 73.7626 6.90333 74.2493 7.21C74.736 7.51 75.1026 7.93667 75.3493 8.49C75.6026 9.03667 75.7293 9.68 75.7293 10.42ZM70.0893 10.42C70.0893 11.02 70.1726 11.5367 70.3393 11.97C70.506 12.4033 70.7626 12.7367 71.1093 12.97C71.4626 13.2033 71.906 13.32 72.4393 13.32C72.9793 13.32 73.4193 13.2033 73.7593 12.97C74.106 12.7367 74.3626 12.4033 74.5293 11.97C74.696 11.5367 74.7793 11.02 74.7793 10.42C74.7793 9.52 74.5926 8.81667 74.2193 8.31C73.846 7.79667 73.256 7.54 72.4493 7.54C71.9093 7.54 71.4626 7.65667 71.1093 7.89C70.7626 8.11667 70.506 8.44667 70.3393 8.88C70.1726 9.30667 70.0893 9.82 70.0893 10.42ZM82.9718 14H81.9218L78.1018 8.07H78.0618C78.0685 8.19 78.0751 8.32333 78.0818 8.47C78.0951 8.61667 78.1051 8.77667 78.1118 8.95C78.1185 9.11667 78.1251 9.29 78.1318 9.47C78.1385 9.65 78.1418 9.83 78.1418 10.01V14H77.3118V6.86H78.3518L82.1618 12.77H82.2018C82.1951 12.69 82.1885 12.58 82.1818 12.44C82.1751 12.2933 82.1685 12.1333 82.1618 11.96C82.1551 11.78 82.1485 11.5967 82.1418 11.41C82.1351 11.2233 82.1318 11.05 82.1318 10.89V6.86H82.9718V14Z" fill="white"/>
<path d="M93.5181 29.4097H95.1469V18.3981H93.5181V29.4097ZM108.189 22.3646L106.322 27.1388H106.266L104.328 22.3646H102.573L105.479 29.0371L103.823 32.749H105.521L110 22.3646H108.189ZM98.9519 28.1588C98.4176 28.1588 97.6739 27.8902 97.6739 27.2234C97.6739 26.3742 98.6001 26.0483 99.4005 26.0483C100.116 26.0483 100.454 26.2042 100.889 26.4165C100.762 27.4365 99.892 28.1588 98.9519 28.1588ZM99.1483 22.1241C97.969 22.1241 96.7469 22.6482 96.2424 23.8101L97.6879 24.4188C97.9969 23.8101 98.5721 23.611 99.1762 23.611C100.019 23.611 100.875 24.121 100.889 25.0283V25.1411C100.594 24.971 99.9627 24.7165 99.1902 24.7165C97.632 24.7165 96.0451 25.5806 96.0451 27.1952C96.0451 28.6689 97.323 29.6184 98.7546 29.6184C99.8501 29.6184 100.454 29.1225 100.833 28.5411H100.889V29.3912H102.461V25.1692C102.461 23.2146 101.015 22.1241 99.1483 22.1241ZM89.0821 23.7053H86.7655V19.9308H89.0821C90.2998 19.9308 90.9911 20.9482 90.9911 21.8176C90.9911 22.6711 90.2998 23.7053 89.0821 23.7053ZM89.0402 18.3981H85.1375V29.4097H86.7655V25.2379H89.0402C90.8453 25.2379 92.6199 23.9184 92.6199 21.8176C92.6199 19.7168 90.8453 18.3981 89.0402 18.3981ZM67.7583 28.1606C66.6332 28.1606 65.6913 27.2102 65.6913 25.9047C65.6913 24.5852 66.6332 23.6198 67.7583 23.6198C68.8695 23.6198 69.7406 24.5852 69.7406 25.9047C69.7406 27.2102 68.8695 28.1606 67.7583 28.1606ZM69.6289 22.9812H69.5722C69.2064 22.5417 68.5038 22.1444 67.6178 22.1444C65.7611 22.1444 64.0599 23.7898 64.0599 25.9047C64.0599 28.0047 65.7611 29.6369 67.6178 29.6369C68.5038 29.6369 69.2064 29.2396 69.5722 28.7851H69.6289V29.3251C69.6289 30.7582 68.8695 31.5246 67.6457 31.5246C66.6471 31.5246 66.0282 30.8005 65.7751 30.1901L64.3549 30.7864C64.7626 31.78 65.8458 33 67.6457 33C69.5582 33 71.1757 31.8646 71.1757 29.0978V22.3708H69.6289V22.9812ZM72.3008 29.4097H73.9323V18.3973H72.3008V29.4097ZM76.3362 25.777C76.2943 24.3298 77.4474 23.5916 78.2766 23.5916C78.9243 23.5916 79.4725 23.9176 79.6549 24.3862L76.3362 25.777ZM81.3989 24.528C81.0899 23.6912 80.1472 22.1444 78.2208 22.1444C76.3083 22.1444 74.7196 23.6621 74.7196 25.8907C74.7196 27.9906 76.2943 29.6369 78.4032 29.6369C80.1053 29.6369 81.0899 28.5869 81.4976 27.9765L80.2319 27.1247C79.8103 27.7493 79.2333 28.1606 78.4032 28.1606C77.5739 28.1606 76.983 27.7774 76.6033 27.0261L81.5674 24.9534L81.3989 24.528ZM41.8501 23.2939V24.883H45.6184C45.5058 25.777 45.2107 26.4297 44.7612 26.8834C44.2121 27.4374 43.3541 28.0479 41.8501 28.0479C39.5291 28.0479 37.7152 26.1602 37.7152 23.8189C37.7152 21.4767 39.5291 19.5899 41.8501 19.5899C43.1018 19.5899 44.0157 20.0867 44.6905 20.7254L45.8017 19.604C44.8589 18.6959 43.6081 18 41.8501 18C38.6719 18 36 20.6117 36 23.8189C36 27.0261 38.6719 29.6369 41.8501 29.6369C43.5653 29.6369 44.8589 29.0688 45.8715 28.0047C46.9129 26.9547 47.2358 25.4793 47.2358 24.2866C47.2358 23.9176 47.2079 23.5775 47.1512 23.2939H41.8501ZM51.5208 28.1606C50.3957 28.1606 49.425 27.2243 49.425 25.8907C49.425 24.5421 50.3957 23.6198 51.5208 23.6198C52.6451 23.6198 53.6158 24.5421 53.6158 25.8907C53.6158 27.2243 52.6451 28.1606 51.5208 28.1606ZM51.5208 22.1444C49.4669 22.1444 47.7936 23.7194 47.7936 25.8907C47.7936 28.0479 49.4669 29.6369 51.5208 29.6369C53.5739 29.6369 55.2472 28.0479 55.2472 25.8907C55.2472 23.7194 53.5739 22.1444 51.5208 22.1444ZM59.65 28.1606C58.5249 28.1606 57.5542 27.2243 57.5542 25.8907C57.5542 24.5421 58.5249 23.6198 59.65 23.6198C60.7752 23.6198 61.745 24.5421 61.745 25.8907C61.745 27.2243 60.7752 28.1606 59.65 28.1606ZM59.65 22.1444C57.597 22.1444 55.9237 23.7194 55.9237 25.8907C55.9237 28.0479 57.597 29.6369 59.65 29.6369C61.7031 29.6369 63.3764 28.0479 63.3764 25.8907C63.3764 23.7194 61.7031 22.1444 59.65 22.1444Z" fill="white"/>
</svg>
