<svg width="22" height="22" viewBox="0 0 22 22" fill="none" xmlns="http://www.w3.org/2000/svg">
<path d="M10.9991 0.25C12.6803 0.25 14.0476 0.817993 15.2403 1.43555C15.6006 1.62213 15.936 1.80701 16.2559 1.9834C17.0388 2.41502 17.7333 2.79707 18.4952 3.04004L18.5205 3.04883C18.9676 3.19139 19.3384 3.30992 19.6192 3.41992C19.8836 3.5235 20.198 3.66538 20.4209 3.91309C20.621 4.13551 20.7238 4.38518 20.792 4.62402C20.854 4.84102 20.9014 5.10487 20.9522 5.38672L20.958 5.41699C22.1963 12.2824 19.4921 18.7874 12.8819 21.3184L12.8487 21.3301C12.1989 21.5789 11.7531 21.75 11.002 21.75C10.2512 21.75 9.80583 21.5788 9.15629 21.3301L9.12308 21.3184C2.51263 18.7875 -0.193958 12.2827 1.04398 5.41699C1.0458 5.40691 1.04706 5.39675 1.04887 5.38672C1.09965 5.1049 1.14709 4.84101 1.20902 4.62402C1.27722 4.38522 1.3801 4.13548 1.58012 3.91309C1.80297 3.66541 2.11753 3.52352 2.38187 3.41992C2.66281 3.30984 3.03419 3.19154 3.48148 3.04883L3.50687 3.04004C4.2683 2.79705 4.96185 2.41496 5.74418 1.9834C6.06398 1.80698 6.39857 1.62218 6.75883 1.43555C7.95095 0.817941 9.3178 0.250005 10.9991 0.25ZM10.9991 1.75C9.67267 1.75 8.56072 2.19178 7.44926 2.76758C7.17226 2.91108 6.8858 3.06882 6.59281 3.23047C5.76268 3.68847 4.87459 4.17881 3.96293 4.46973C3.48389 4.62257 3.15984 4.72625 2.92972 4.81641C2.77822 4.87577 2.71168 4.91333 2.69047 4.92578C2.68251 4.94188 2.66889 4.97487 2.6514 5.03613C2.61256 5.17223 2.57781 5.36057 2.51957 5.68359C1.37911 12.0094 3.87109 17.7009 9.65922 19.917C10.3234 20.1713 10.5418 20.25 11.002 20.25C11.4624 20.25 11.6814 20.1714 12.3457 19.917C18.1331 17.7009 20.6223 12.0096 19.4815 5.68359C19.4232 5.36052 19.3885 5.17226 19.3496 5.03613C19.3321 4.97481 19.3185 4.94187 19.3106 4.92578C19.2894 4.91334 19.2235 4.87565 19.0723 4.81641C18.8422 4.72628 18.5181 4.62248 18.0391 4.46973C17.127 4.17884 16.238 3.68855 15.4073 3.23047C15.1141 3.06884 14.828 2.91109 14.5508 2.76758C13.4385 2.19163 12.3257 1.75 10.9991 1.75ZM15.75 7.29297C16.1404 7.15498 16.5688 7.35969 16.7071 7.75C16.8452 8.1404 16.6404 8.56877 16.25 8.70703C15.6734 8.91132 15.0296 9.34205 14.3662 9.92383C13.7106 10.4988 13.0763 11.1858 12.5176 11.8555C11.9604 12.5234 11.4871 13.1629 11.1534 13.6357C10.9867 13.8718 10.7219 14.2686 10.6328 14.4023C10.4879 14.6302 10.2317 14.7627 9.96195 14.749C9.69208 14.7352 9.45006 14.5776 9.32914 14.3359C8.87363 13.4249 8.45222 13.0362 8.20902 12.874C8.08683 12.7926 8.0014 12.7631 7.96586 12.7529C7.95922 12.751 7.95387 12.7499 7.95023 12.749C7.55923 12.7234 7.25004 12.3975 7.25004 12C7.25015 11.5859 7.58885 11.25 8.00297 11.25C8.54732 11.25 8.78841 11.4575 9.04105 11.626C9.3544 11.8349 9.69494 12.1489 10.0381 12.6152C10.3791 12.1386 10.8351 11.53 11.3653 10.8945C11.9536 10.1893 12.6431 9.43953 13.377 8.7959C14.1032 8.15904 14.915 7.58872 15.75 7.29297Z" fill="#067647"/>
</svg>
