<svg width="20" height="22" viewBox="0 0 20 22" fill="none" xmlns="http://www.w3.org/2000/svg">
<path d="M13 1.75H10.75V2.78125C15.646 3.16371 19.5 7.25577 19.5 12.25C19.5 17.4967 15.2467 21.75 10 21.75C4.75329 21.75 0.5 17.4967 0.5 12.25C0.5 7.25577 4.35396 3.16371 9.25 2.78125V1.75H7V0.25H13V1.75ZM10 4.25C5.58172 4.25 2 7.83172 2 12.25C2 16.6683 5.58172 20.25 10 20.25C14.4183 20.25 18 16.6683 18 12.25C18 7.83172 14.4183 4.25 10 4.25ZM13.2959 7.7793C13.5578 7.70447 13.8396 7.77714 14.0322 7.96973C14.2248 8.16231 14.2975 8.44417 14.2227 8.70605L11.9385 16.7061C11.8513 17.0111 11.5813 17.2279 11.2646 17.248C10.948 17.2681 10.6524 17.0875 10.5273 16.7959L8.93164 13.0713L5.20703 11.4756C4.91533 11.3506 4.73384 11.055 4.75391 10.7383C4.774 10.4216 4.99077 10.1516 5.2959 10.0645L13.2959 7.7793ZM7.73633 10.9277L9.79785 11.8105C9.97469 11.8863 10.1155 12.0273 10.1914 12.2041L11.0752 14.2656L12.4102 9.5918L7.73633 10.9277Z" fill="#067647"/>
</svg>
