<svg width="22" height="22" viewBox="0 0 22 22" fill="none" xmlns="http://www.w3.org/2000/svg">
<path fill-rule="evenodd" clip-rule="evenodd" d="M15.5 4.25C14.2574 4.25 13.25 5.25736 13.25 6.5C13.25 7.74264 14.2574 8.75 15.5 8.75C16.7426 8.75 17.75 7.74264 17.75 6.5C17.75 5.25736 16.7426 4.25 15.5 4.25ZM14.75 6.5C14.75 6.08579 15.0858 5.75 15.5 5.75C15.9142 5.75 16.25 6.08579 16.25 6.5C16.25 6.91421 15.9142 7.25 15.5 7.25C15.0858 7.25 14.75 6.91421 14.75 6.5Z" fill="white"/>
<path fill-rule="evenodd" clip-rule="evenodd" d="M11.0572 0.75H10.9428C8.75212 0.749987 7.03144 0.749976 5.68802 0.930594C4.31137 1.11568 3.21911 1.50272 2.36091 2.36091C1.50272 3.21911 1.11568 4.31137 0.930594 5.68802C0.749976 7.03144 0.749987 8.75212 0.75 10.9428V11.0572C0.749987 13.2479 0.749976 14.9686 0.930594 16.312C1.11568 17.6886 1.50272 18.7809 2.36091 19.6391C3.21911 20.4973 4.31137 20.8843 5.68802 21.0694C7.03144 21.25 8.7521 21.25 10.9428 21.25H11.0572C13.2479 21.25 14.9686 21.25 16.312 21.0694C17.6886 20.8843 18.7809 20.4973 19.6391 19.6391C20.4973 18.7809 20.8843 17.6886 21.0694 16.312C21.25 14.9686 21.25 13.2479 21.25 11.0572V10.9428C21.25 8.75214 21.25 7.03144 21.0694 5.68802C20.8843 4.31137 20.4973 3.21911 19.6391 2.36091C18.7809 1.50272 17.6886 1.11568 16.312 0.930594C14.9686 0.749976 13.2479 0.749987 11.0572 0.75ZM3.42157 3.42157C3.95462 2.88853 4.67757 2.57994 5.8879 2.41722C7.11979 2.25159 8.73963 2.25 11 2.25C13.2604 2.25 14.8802 2.25159 16.1121 2.41722C17.3224 2.57994 18.0454 2.88853 18.5784 3.42157C19.1115 3.95462 19.4201 4.67757 19.5828 5.8879C19.7484 7.11979 19.75 8.73963 19.75 11C19.75 12.4282 19.7494 13.6006 19.7071 14.5811C18.9451 14.3613 18.1692 14.2494 17.3875 14.2501C15.7114 14.2438 14.0717 14.7489 12.5381 15.7079C12.1547 15.357 11.7442 15.0271 11.3088 14.7208C8.95443 13.0642 6.01351 12.1954 3.00992 12.2527C2.75685 12.2522 2.50393 12.2579 2.25145 12.2697C2.25006 11.8703 2.25 11.4477 2.25 11C2.25 8.73963 2.25159 7.11979 2.41722 5.8879C2.57994 4.67757 2.88853 3.95462 3.42157 3.42157ZM13.6024 16.8175C14.3298 17.6841 14.9142 18.6419 15.3333 19.6631C15.6094 19.6419 15.8683 19.6156 16.1121 19.5828C17.3224 19.4201 18.0454 19.1115 18.5784 18.5784C19.1114 18.0455 19.4199 17.3228 19.5827 16.1129C18.8543 15.8699 18.12 15.7493 17.3872 15.7501L17.3835 15.7501C16.1183 15.7451 14.8433 16.0978 13.6024 16.8175ZM10.4457 15.9476C11.9005 16.9712 13.0173 18.2766 13.7225 19.7335C12.9328 19.7497 12.0333 19.75 11 19.75C8.73963 19.75 7.11979 19.7484 5.8879 19.5828C4.67757 19.4201 3.95462 19.1115 3.42157 18.5784C2.88853 18.0454 2.57994 17.3224 2.41722 16.1121C2.32885 15.4549 2.28718 14.6872 2.26753 13.7707C2.51617 13.7581 2.76533 13.7521 3.01466 13.7527L3.03112 13.7525C5.73654 13.6994 8.36436 14.4832 10.4457 15.9476Z" fill="white"/>
</svg>
