<svg width="20" height="20" viewBox="0 0 20 20" fill="none" xmlns="http://www.w3.org/2000/svg">
<path d="M5.06066 2.28883C5.40421 2.25526 5.65549 1.94955 5.62192 1.60601C5.58835 1.26247 5.28264 1.01119 4.9391 1.04476C3.77173 1.15883 2.84828 1.42827 2.13815 2.13839C1.42802 2.84852 1.15858 3.77198 1.04451 4.93934C1.01094 5.28289 1.26223 5.58859 1.60577 5.62216C1.94931 5.65573 2.25502 5.40445 2.28859 5.06091C2.39202 4.00245 2.61541 3.4289 3.02203 3.02228C3.42865 2.61566 4.0022 2.39226 5.06066 2.28883Z" fill="#161616"/>
<path d="M15.0607 1.04476C14.7171 1.01119 14.4114 1.26247 14.3778 1.60601C14.3443 1.94955 14.5956 2.25526 14.9391 2.28883C15.9976 2.39226 16.5711 2.61566 16.9777 3.02228C17.3844 3.4289 17.6078 4.00245 17.7112 5.06091C17.7447 5.40445 18.0505 5.65573 18.394 5.62216C18.7375 5.58859 18.9888 5.28289 18.9553 4.93934C18.8412 3.77198 18.5717 2.84852 17.8616 2.13839C17.1515 1.42827 16.228 1.15883 15.0607 1.04476Z" fill="#161616"/>
<path d="M8.33322 1.04179C7.98804 1.04179 7.70822 1.32162 7.70822 1.66679C7.70822 2.01197 7.98804 2.29179 8.33322 2.29179H11.6666C12.0117 2.29179 12.2916 2.01197 12.2916 1.66679C12.2916 1.32162 12.0117 1.04179 11.6666 1.04179L8.33322 1.04179Z" fill="#161616"/>
<path d="M2.29155 8.33346C2.29155 7.98828 2.01173 7.70846 1.66655 7.70846C1.32137 7.70846 1.04155 7.98828 1.04155 8.33346L1.04155 11.6668C1.04155 12.012 1.32137 12.2918 1.66655 12.2918C2.01173 12.2918 2.29155 12.012 2.29155 11.6668L2.29155 8.33346Z" fill="#161616"/>
<path d="M2.28859 14.9393C2.25502 14.5958 1.94931 14.3445 1.60577 14.3781C1.26222 14.4117 1.01094 14.7174 1.04451 15.0609C1.15858 16.2283 1.42802 17.1517 2.13815 17.8619C2.84828 18.572 3.77173 18.8414 4.9391 18.9555C5.28264 18.9891 5.58835 18.7378 5.62192 18.3942C5.65549 18.0507 5.40421 17.745 5.06066 17.7114C4.0022 17.608 3.42865 17.3846 3.02203 16.978C2.61541 16.5714 2.39202 15.9978 2.28859 14.9393Z" fill="#161616"/>
<path d="M12.3749 10.1251C12.7201 10.1251 12.9999 10.4049 12.9999 10.7501V11.7501H13.9999C14.3451 11.7501 14.6249 12.0299 14.6249 12.3751C14.6249 12.7203 14.3451 13.0001 13.9999 13.0001H12.9999V14.0001C12.9999 14.3453 12.7201 14.6251 12.3749 14.6251C12.0298 14.6251 11.7499 14.3453 11.7499 14.0001V13.0001H10.7499C10.4048 13.0001 10.1249 12.7203 10.1249 12.3751C10.1249 12.0299 10.4048 11.7501 10.7499 11.7501H11.7499V10.7501C11.7499 10.4049 12.0298 10.1251 12.3749 10.1251Z" fill="#161616"/>
<path fill-rule="evenodd" clip-rule="evenodd" d="M6.87494 12.3751C6.87494 9.33751 9.33737 6.87508 12.3749 6.87508C15.4125 6.87508 17.8749 9.33751 17.8749 12.3751C17.8749 13.507 17.533 14.559 16.9468 15.4335C16.8631 15.5585 16.7744 15.6798 16.6809 15.7972L18.7752 17.8915C19.0193 18.1355 19.0193 18.5313 18.7752 18.7754C18.5311 19.0194 18.1354 19.0194 17.8913 18.7754L15.797 16.6811C14.8578 17.4285 13.6685 17.8751 12.3749 17.8751C9.33737 17.8751 6.87494 15.4126 6.87494 12.3751ZM12.3749 8.12508C10.0277 8.12508 8.12494 10.0279 8.12494 12.3751C8.12494 14.7223 10.0277 16.6251 12.3749 16.6251C14.7221 16.6251 16.6249 14.7223 16.6249 12.3751C16.6249 10.0279 14.7221 8.12508 12.3749 8.12508Z" fill="#161616"/>
</svg>
