<svg width="22" height="22" viewBox="0 0 22 22" fill="none" xmlns="http://www.w3.org/2000/svg">
<path d="M10.8907 9.27598C11.11 9.30545 11.3902 9.38125 11.626 9.61707C11.8618 9.85285 11.9377 10.133 11.9672 10.3524C11.9924 10.5396 11.9923 10.7614 11.9922 10.9665L11.9922 15.001C11.9922 15.4152 11.6564 15.751 11.2422 15.751C10.828 15.751 10.4922 15.4152 10.4922 15.001V11.001C10.4922 10.9019 10.4922 10.8216 10.491 10.7521C10.4216 10.751 10.3413 10.751 10.2422 10.751C9.82797 10.751 9.49219 10.4152 9.49219 10.001C9.49219 9.58678 9.82797 9.25099 10.2422 9.25099L10.2766 9.25099C10.4817 9.25091 10.7035 9.25082 10.8907 9.27598Z" fill="#067647"/>
<path d="M10.9922 6.00098C10.4399 6.00098 9.99219 6.44869 9.99219 7.00098C9.99219 7.55326 10.4399 8.00098 10.9922 8.00098H11.0012C11.5535 8.00098 12.0012 7.55326 12.0012 7.00098C12.0012 6.44869 11.5535 6.00098 11.0012 6.00098H10.9922Z" fill="#067647"/>
<path fill-rule="evenodd" clip-rule="evenodd" d="M11.0003 21.751H10.8303C9.78034 21.671 9.12033 20.921 8.59033 20.311L8.57944 20.2985C8.24349 19.9132 7.9267 19.5497 7.59033 19.431C7.23548 19.3029 6.75431 19.3399 6.24261 19.3793L6.18596 19.3837C5.2917 19.4534 4.17942 19.5401 3.33034 18.691C2.50433 17.865 2.57759 16.7586 2.63732 15.8567L2.64033 15.811L2.64202 15.7887C2.68143 15.267 2.7185 14.7761 2.59033 14.431C2.46033 14.091 2.10033 13.771 1.71033 13.431C1.10033 12.901 0.350332 12.241 0.270332 11.191C0.180332 9.94104 1.02033 9.20102 1.71033 8.61102L1.72328 8.59974C2.1085 8.26394 2.47177 7.94726 2.60033 7.61102C2.72851 7.26594 2.69143 6.77505 2.65202 6.25336L2.65034 6.23102C2.58034 5.32102 2.50033 4.19101 3.34033 3.35101C4.20033 2.49101 5.33034 2.58101 6.23034 2.66101L6.32523 2.6684C6.81077 2.7064 7.27168 2.74248 7.60033 2.61102C7.94033 2.48102 8.26033 2.12102 8.60033 1.73102C9.13033 1.12102 9.79033 0.371016 10.8403 0.291016H11.1803C12.2285 0.370122 12.8855 1.11413 13.4125 1.71086L13.4303 1.73102L13.4412 1.74352C13.7772 2.1289 14.094 2.49231 14.4303 2.61102C14.7852 2.73916 15.2663 2.70212 15.778 2.66273L15.8003 2.66101C16.7003 2.58101 17.8303 2.49101 18.6903 3.35101C19.5503 4.22101 19.4603 5.34103 19.3803 6.24103L19.373 6.33579C19.3349 6.82137 19.2989 7.28234 19.4303 7.61102C19.5545 7.9357 19.8975 8.24213 20.259 8.56516L20.3103 8.61102C20.9203 9.14102 21.6703 9.80101 21.7503 10.851C21.8403 12.101 20.9903 12.851 20.3103 13.441C19.9403 13.761 19.6003 14.061 19.4503 14.381C19.2818 14.7379 19.3295 15.2617 19.379 15.8065L19.3803 15.821C19.4603 16.721 19.5503 17.841 18.6903 18.701C17.8503 19.541 16.7203 19.4611 15.8103 19.3911L15.7879 19.3894C15.2662 19.35 14.7754 19.3129 14.4303 19.441C14.0903 19.571 13.7703 19.931 13.4303 20.321C12.9003 20.931 12.2403 21.681 11.1903 21.761H11.0103L11.0003 21.751ZM6.95033 17.8311C7.34033 17.8311 7.73034 17.871 8.11034 18.011C8.7808 18.2601 9.24944 18.7843 9.66563 19.2499L9.72034 19.311C10.2103 19.871 10.5303 20.211 10.9403 20.241H11.0703C11.4803 20.211 11.8003 19.871 12.2903 19.311L12.2975 19.3029C12.7257 18.815 13.2042 18.2696 13.9003 18.011C14.5603 17.771 15.2503 17.821 15.9203 17.871C16.7603 17.931 17.3003 17.951 17.6303 17.621C17.9803 17.271 17.9603 16.741 17.8903 15.921L17.8893 15.9097C17.8296 15.2225 17.7621 14.4471 18.0903 13.731C18.3688 13.1243 18.8749 12.6858 19.3231 12.2973L19.3303 12.291C19.9303 11.771 20.3003 11.421 20.2603 10.941C20.2303 10.531 19.8903 10.211 19.3303 9.72101L19.3219 9.71365C18.8341 9.28553 18.2888 8.80703 18.0203 8.11102C17.7726 7.44722 17.8293 6.73439 17.8789 6.10858L17.8803 6.09106C17.9503 5.26106 17.9703 4.74104 17.6203 4.38104C17.2703 4.03104 16.7403 4.05103 15.9103 4.12103L15.8929 4.12241C15.2671 4.17211 14.5542 4.22872 13.8903 3.98102C13.2199 3.73199 12.7512 3.20775 12.335 2.74219L12.2803 2.68103C11.7903 2.12103 11.4703 1.78104 11.0603 1.75104H10.9203C10.5203 1.78104 10.2003 2.12103 9.71033 2.68103L9.70319 2.68917C9.27502 3.17711 8.79646 3.72246 8.10033 3.98102C7.43649 4.22872 6.72357 4.17211 6.09773 4.12241L6.08034 4.12103C5.25034 4.05103 4.73034 4.03104 4.37034 4.38104C4.04034 4.71104 4.06034 5.25106 4.12034 6.09106C4.17034 6.76106 4.22034 7.45102 3.98034 8.11102C3.72034 8.81102 3.16033 9.30101 2.67033 9.72101C2.05033 10.261 1.71033 10.581 1.74033 11.061C1.77033 11.471 2.11033 11.7911 2.67033 12.2811L2.70436 12.3109C3.18602 12.7333 3.72634 13.2072 3.98034 13.8911C4.22034 14.5511 4.17034 15.241 4.12034 15.911C4.06034 16.751 4.04034 17.291 4.37034 17.621C4.72034 17.971 5.25034 17.951 6.08034 17.881C6.1379 17.8768 6.19637 17.8721 6.25566 17.8673C6.47429 17.8496 6.70449 17.8311 6.94034 17.8311H6.95033Z" fill="#067647"/>
</svg>
