<svg width="22" height="20" viewBox="0 0 22 20" fill="none" xmlns="http://www.w3.org/2000/svg">
<path d="M17.5 14.7342H15C14.586 14.7342 14.25 14.3982 14.25 13.9842C14.25 13.5702 14.586 13.2342 15 13.2342H17.5C17.914 13.2342 18.25 13.5702 18.25 13.9842C18.25 14.3982 17.914 14.7342 17.5 14.7342Z" fill="#067647"/>
<path d="M12 14.7342H9.5C9.086 14.7342 8.75 14.3982 8.75 13.9842C8.75 13.5702 9.086 13.2342 9.5 13.2342H12C12.414 13.2342 12.75 13.5702 12.75 13.9842C12.75 14.3982 12.414 14.7342 12 14.7342Z" fill="#067647"/>
<path d="M17.5 10.7342H15C14.586 10.7342 14.25 10.3982 14.25 9.98418C14.25 9.57018 14.586 9.23418 15 9.23418H17.5C17.914 9.23418 18.25 9.57018 18.25 9.98418C18.25 10.3982 17.914 10.7342 17.5 10.7342Z" fill="#067647"/>
<path d="M12 10.7342H9.5C9.086 10.7342 8.75 10.3982 8.75 9.98418C8.75 9.57018 9.086 9.23418 9.5 9.23418H12C12.414 9.23418 12.75 9.57018 12.75 9.98418C12.75 10.3982 12.414 10.7342 12 10.7342Z" fill="#067647"/>
<path d="M17.5 6.73418H9.5C9.086 6.73418 8.75 6.39818 8.75 5.98418C8.75 5.57018 9.086 5.23418 9.5 5.23418H17.5C17.914 5.23418 18.25 5.57018 18.25 5.98418C18.25 6.39818 17.914 6.73418 17.5 6.73418Z" fill="#067647"/>
<path fill-rule="evenodd" clip-rule="evenodd" d="M3.5 19.2342H15C17.934 19.2342 19.55 19.2342 20.65 18.1342C21.75 17.0352 21.75 15.4182 21.75 12.4842V7.48418C21.75 4.55018 21.75 2.93318 20.65 1.83418C19.551 0.734184 17.934 0.734184 15 0.734184H10C9.012 0.734184 8.51608 0.734231 8.03408 0.857231L8.0316 0.858138C8.02907 0.859095 8.02625 0.860161 8.02402 0.860161C6.74002 1.20916 5.72605 2.22323 5.37705 3.50723L5.37567 3.51135C5.37483 3.51356 5.37402 3.51565 5.37402 3.51817C5.28614 3.85909 5.26053 4.20806 5.25307 4.73418H5C2.977 4.73418 1.86006 4.73424 1.06006 5.54424C0.250059 6.34424 0.25 7.46018 0.25 9.48418V15.9842C0.25 17.7762 1.708 19.2342 3.5 19.2342ZM3.5 17.7342C4.465 17.7342 5.25 16.9492 5.25 15.9842V6.23418H5C3.256 6.23418 2.47 6.2492 2.125 6.6002L2.11602 6.60918C1.76502 6.95418 1.75 7.74018 1.75 9.48418V15.9842C1.75 16.9492 2.535 17.7342 3.5 17.7342ZM6.74781 16.1044C6.72598 16.7029 6.54184 17.2607 6.23809 17.7342H15C17.6157 17.7342 18.9291 17.7342 19.59 17.0742C20.25 16.4143 20.25 15.1013 20.25 12.4847V7.48418C20.25 4.8685 20.25 3.5552 19.59 2.89424C18.93 2.23424 17.616 2.23418 15 2.23418H10C9.142 2.23418 8.70903 2.23418 8.41104 2.30918C7.64304 2.52018 7.036 3.12722 6.825 3.89522C6.75 4.19322 6.75 4.62618 6.75 5.48418V15.9842C6.75 16.0244 6.74927 16.0645 6.74781 16.1044Z" fill="#067647"/>
</svg>
