<svg width="21" height="22" viewBox="0 0 21 22" fill="none" xmlns="http://www.w3.org/2000/svg">
<path fill-rule="evenodd" clip-rule="evenodd" d="M14.2442 16.251C14.0552 16.251 13.8661 16.233 13.6781 16.196C12.8781 16.027 12.2041 15.767 11.4831 15.351C9.86813 14.429 8.40915 12.9681 7.48015 11.3441C7.05515 10.6081 6.79615 9.93399 6.63815 9.15999C6.41115 8.03599 6.86812 6.84899 7.83112 6.05999C8.14712 5.80299 8.52216 5.70103 8.89016 5.77103C9.25316 5.84003 9.57213 6.07808 9.76613 6.42308L10.1612 7.13704L10.1627 7.13988C10.5128 7.77029 10.743 8.18478 10.6871 8.70999C10.6322 9.24474 10.3194 9.60166 9.84582 10.1422L9.84514 10.143L9.05715 11.047C9.75715 12.115 10.7161 13.075 11.7781 13.772L12.6842 12.983L12.6887 12.9791C13.2331 12.5063 13.5906 12.1959 14.1212 12.142C14.6712 12.086 15.1022 12.333 15.6982 12.675L16.3982 13.062C16.7452 13.25 16.9871 13.57 17.0581 13.938C17.1301 14.309 17.0271 14.685 16.7681 14.997C16.1191 15.796 15.1881 16.25 14.2431 16.25L14.2442 16.251ZM13.2141 14.513C13.5021 14.617 13.7542 14.679 13.9792 14.726C14.4752 14.824 15.0151 14.641 15.4311 14.242L14.9692 13.987C14.9692 13.987 14.9661 13.9853 14.9632 13.9835C14.9617 13.9826 14.9602 13.9817 14.9592 13.981C14.7382 13.854 14.3691 13.643 14.2721 13.637C14.1931 13.663 13.9171 13.902 13.6741 14.113L13.2141 14.513ZM8.10813 8.86107C7.9902 8.27842 8.25481 7.75165 8.59052 7.39765L8.85114 7.868L8.87352 7.90851C9.02537 8.1834 9.17693 8.45777 9.19314 8.55404C9.16114 8.64604 8.92513 8.91606 8.71413 9.15706L8.31613 9.614C8.22913 9.372 8.16213 9.12507 8.10813 8.86107Z" fill="#067647"/>
<path fill-rule="evenodd" clip-rule="evenodd" d="M11.8301 21.75H10.3301C6.35729 21.75 4.36303 21.75 2.97207 20.361C2.29601 19.6859 1.9483 18.8681 1.76946 17.75H0.830078C0.416078 17.75 0.0800781 17.414 0.0800781 17C0.0800781 16.586 0.416078 16.25 0.830078 16.25H1.62551C1.58008 15.3391 1.58008 14.2707 1.58008 13.0001V11.75H0.830078C0.416078 11.75 0.0800781 11.414 0.0800781 11C0.0800781 10.586 0.416078 10.25 0.830078 10.25H1.58008V9C1.58008 7.72934 1.58008 6.66093 1.62551 5.75H0.830078C0.416078 5.75 0.0800781 5.414 0.0800781 5C0.0800781 4.586 0.416078 4.25 0.830078 4.25H1.76946C1.9483 3.13185 2.29601 2.31405 2.97207 1.63896C4.36203 0.25 6.35698 0.25 10.3298 0.25H11.8301C15.8029 0.25 17.7971 0.25 19.1881 1.63896C20.5801 3.02896 20.5801 5.02398 20.5801 8.99993V13C20.5801 16.976 20.5801 18.971 19.1881 20.361C17.7981 21.75 15.8029 21.75 11.8301 21.75ZM3.29623 4.25C3.43439 3.56928 3.66086 3.07142 4.03208 2.70098C4.98306 1.75 6.76999 1.75 10.3298 1.75H11.8301C15.3899 1.75 17.1761 1.75 18.1281 2.70098C19.0801 3.65098 19.0801 5.439 19.0801 9V13C19.0801 16.561 19.0801 18.349 18.1281 19.299C17.1771 20.25 15.3902 20.25 11.8303 20.25H10.3301C6.77025 20.25 4.98406 20.25 4.03208 19.299C3.66086 18.9286 3.43439 18.4307 3.29623 17.75H3.33008C3.74408 17.75 4.08008 17.414 4.08008 17C4.08008 16.586 3.74408 16.25 3.33008 16.25H3.12711C3.08008 15.3746 3.08008 14.3067 3.08008 13V11.75H3.33008C3.74408 11.75 4.08008 11.414 4.08008 11C4.08008 10.586 3.74408 10.25 3.33008 10.25H3.08008V9C3.08008 7.69335 3.08008 6.62541 3.12711 5.75H3.33008C3.74408 5.75 4.08008 5.414 4.08008 5C4.08008 4.586 3.74408 4.25 3.33008 4.25H3.29623Z" fill="#067647"/>
</svg>
