<svg width="25" height="24" viewBox="0 0 25 24" fill="none" xmlns="http://www.w3.org/2000/svg">
<path fill-rule="evenodd" clip-rule="evenodd" d="M10.4194 0C9.11939 0 8.1244 0.35627 7.55972 1.28574C7.07097 2.09022 7.03068 3.16762 7.03068 4.18604C7.03068 5.20447 7.07097 6.28187 7.55972 7.08635C8.1244 8.01582 9.11939 8.37209 10.4194 8.37209H11.4958V11.1628L8.92612 11.1628C7.92317 11.1628 7.08683 11.1627 6.42289 11.252C5.7221 11.3462 5.08939 11.5535 4.58096 12.0619C4.07253 12.5703 3.86527 13.203 3.77105 13.9038C3.70588 14.3885 3.68831 14.9651 3.68358 15.6313C3.26601 15.6373 2.89283 15.6533 2.57021 15.6967C2.02141 15.7705 1.49535 15.9368 1.06865 16.3635C0.641958 16.7902 0.475567 17.3163 0.401783 17.8651C0.332936 18.3772 0.33297 19.0166 0.33301 19.7588V19.8691C0.33297 20.6112 0.332936 21.2507 0.401783 21.7628C0.475567 22.3116 0.641958 22.8377 1.06865 23.2644C1.49535 23.691 2.02141 23.8574 2.57021 23.9312C3.08229 24.0001 3.72175 24 4.46391 24H4.57417C5.31633 24 5.95583 24.0001 6.46791 23.9312C7.01671 23.8574 7.54277 23.691 7.96947 23.2644C8.39616 22.8377 8.56255 22.3116 8.63633 21.7628C8.70518 21.2507 8.70515 20.6112 8.70511 19.8691V19.7588C8.70515 19.0167 8.70518 18.3772 8.63633 17.8651C8.56255 17.3163 8.39616 16.7902 7.96947 16.3635C7.54277 15.9368 7.01671 15.7705 6.46791 15.6967C6.14625 15.6534 5.77433 15.6374 5.35826 15.6314C5.36295 14.994 5.37859 14.5133 5.43054 14.1269C5.49979 13.6118 5.61948 13.3914 5.76495 13.2459C5.91042 13.1004 6.13089 12.9807 6.64601 12.9115C7.18521 12.839 7.90807 12.8372 8.98417 12.8372H15.6818C16.7579 12.8372 17.4808 12.839 18.02 12.9115C18.5351 12.9807 18.7556 13.1004 18.9011 13.2459C19.0465 13.3914 19.1662 13.6118 19.2355 14.1269C19.2874 14.5133 19.3031 14.994 19.3077 15.6314C18.8917 15.6374 18.5198 15.6534 18.1981 15.6967C17.6493 15.7705 17.1232 15.9368 16.6966 16.3635C16.2699 16.7902 16.1035 17.3163 16.0297 17.8651C15.9608 18.3772 15.9609 19.0167 15.9609 19.7588V19.8691C15.9609 20.6112 15.9608 21.2507 16.0297 21.7628C16.1035 22.3116 16.2699 22.8377 16.6966 23.2644C17.1232 23.691 17.6493 23.8574 18.1981 23.9312C18.7102 24.0001 19.3496 24 20.0918 24H20.2021C20.9442 24 21.5837 24.0001 22.0958 23.9312C22.6446 23.8574 23.1707 23.691 23.5974 23.2644C24.0241 22.8377 24.1904 22.3116 24.2642 21.7628C24.3331 21.2507 24.333 20.6113 24.333 19.8691V19.7588C24.333 19.0167 24.3331 18.3772 24.2642 17.8651C24.1904 17.3163 24.0241 16.7902 23.5974 16.3635C23.1707 15.9368 22.6446 15.7705 22.0958 15.6967C21.7732 15.6533 21.4 15.6373 20.9824 15.6313C20.9777 14.9651 20.9601 14.3885 20.895 13.9038C20.8007 13.203 20.5935 12.5703 20.0851 12.0619C19.5766 11.5535 18.9439 11.3462 18.2431 11.252C17.5792 11.1627 16.7428 11.1628 15.7399 11.1628L13.1702 11.1628V8.37209H14.2466C15.5466 8.37209 16.5416 8.01582 17.1063 7.08635C17.595 6.28187 17.6353 5.20447 17.6353 4.18604C17.6353 3.16762 17.595 2.09022 17.1063 1.28574C16.5416 0.356271 15.5466 0 14.2466 0H10.4194ZM14.2466 6.69767C15.2624 6.69767 15.5431 6.43445 15.6753 6.21696C15.8833 5.87448 15.9609 5.27747 15.9609 4.18604C15.9609 3.09462 15.8833 2.49761 15.6753 2.15513C15.5431 1.93764 15.2624 1.67442 14.2466 1.67442H10.4194C9.40364 1.67442 9.12288 1.93764 8.99075 2.15513C8.78268 2.49761 8.7051 3.09462 8.7051 4.18604C8.7051 5.27747 8.78268 5.87448 8.99075 6.21696C9.12288 6.43445 9.40364 6.69767 10.4194 6.69767H14.2466ZM2.25264 17.5475C2.31638 17.4838 2.43019 17.405 2.79332 17.3562C3.18054 17.3041 3.70606 17.3023 4.51906 17.3023C5.33205 17.3023 5.85758 17.3041 6.24479 17.3562C6.60792 17.405 6.72174 17.4838 6.78547 17.5475C6.8492 17.6113 6.92803 17.7251 6.97685 18.0882C7.02891 18.4754 7.03069 19.001 7.03069 19.814C7.03069 20.6269 7.02891 21.1525 6.97685 21.5397C6.92803 21.9028 6.8492 22.0166 6.78547 22.0804C6.72174 22.1441 6.60792 22.2229 6.24479 22.2717C5.85758 22.3238 5.33205 22.3256 4.51906 22.3256C3.70606 22.3256 3.18054 22.3238 2.79332 22.2717C2.43019 22.2229 2.31638 22.1441 2.25264 22.0804C2.18891 22.0166 2.11009 21.9028 2.06127 21.5397C2.00921 21.1525 2.00743 20.6269 2.00743 19.814C2.00743 19.001 2.00921 18.4754 2.06127 18.0882C2.11009 17.7251 2.18891 17.6113 2.25264 17.5475ZM18.4212 17.3562C18.0581 17.405 17.9443 17.4838 17.8805 17.5475C17.8168 17.6113 17.738 17.7251 17.6892 18.0882C17.6371 18.4754 17.6353 19.001 17.6353 19.814C17.6353 20.6269 17.6371 21.1525 17.6892 21.5397C17.738 21.9028 17.8168 22.0166 17.8805 22.0804C17.9443 22.1441 18.0581 22.2229 18.4212 22.2717C18.8084 22.3238 19.334 22.3256 20.147 22.3256C20.96 22.3256 21.4855 22.3238 21.8727 22.2717C22.2358 22.2229 22.3496 22.1441 22.4134 22.0804C22.4771 22.0166 22.5559 21.9028 22.6047 21.5397C22.6568 21.1525 22.6586 20.6269 22.6586 19.814C22.6586 19.001 22.6568 18.4754 22.6047 18.0882C22.5559 17.7251 22.4771 17.6113 22.4134 17.5475C22.3496 17.4838 22.2358 17.405 21.8727 17.3562C21.4855 17.3041 20.96 17.3023 20.147 17.3023C19.334 17.3023 18.8084 17.3041 18.4212 17.3562Z" fill="#067647"/>
</svg>
