<svg width="21" height="20" viewBox="0 0 21 20" fill="none" xmlns="http://www.w3.org/2000/svg">
<path fill-rule="evenodd" clip-rule="evenodd" d="M4.1665 0.25C2.37157 0.25 0.916504 1.70507 0.916504 3.5C0.916504 5.29493 2.37157 6.75 4.1665 6.75C5.96143 6.75 7.4165 5.29493 7.4165 3.5C7.4165 1.70507 5.96143 0.25 4.1665 0.25ZM2.4165 3.5C2.4165 2.5335 3.2 1.75 4.1665 1.75C5.133 1.75 5.9165 2.5335 5.9165 3.5C5.9165 4.4665 5.133 5.25 4.1665 5.25C3.2 5.25 2.4165 4.4665 2.4165 3.5Z" fill="#067647"/>
<path d="M11.1362 13.4697C11.4291 13.1768 11.9039 13.1768 12.1968 13.4697L14.1665 15.4393L16.1362 13.4697C16.4291 13.1768 16.9039 13.1768 17.1968 13.4697C17.4897 13.7626 17.4897 14.2374 17.1968 14.5303L15.2272 16.5L17.1968 18.4697C17.4897 18.7626 17.4897 19.2374 17.1968 19.5303C16.9039 19.8232 16.4291 19.8232 16.1362 19.5303L14.1665 17.5607L12.1968 19.5303C11.9039 19.8232 11.4291 19.8232 11.1362 19.5303C10.8433 19.2374 10.8433 18.7626 11.1362 18.4697L13.1058 16.5L11.1362 14.5303C10.8433 14.2374 10.8433 13.7626 11.1362 13.4697Z" fill="#067647"/>
<path d="M16.1138 2.49306C16.3937 2.1878 16.8682 2.1673 17.1734 2.44727L19.5478 4.62496C19.7406 4.80167 19.9376 4.98226 20.0795 5.15289C20.2404 5.34631 20.4165 5.6251 20.4165 6C20.4165 6.37491 20.2404 6.65369 20.0795 6.84711C19.9374 7.01795 19.7409 7.19812 19.5479 7.37504L17.1734 9.55273C16.8682 9.83271 16.3937 9.81221 16.1138 9.50695C15.8338 9.20168 15.8543 8.72725 16.1596 8.44727L17.9656 6.79088C10.3299 7.16664 6.4985 10.0696 4.54656 12.8649C2.44116 15.8799 2.41717 18.9175 2.41645 19.008L2.41644 19.0098C2.41104 19.424 2.0709 19.7553 1.65673 19.7499C1.24255 19.7445 0.911168 19.4044 0.916569 18.9902L0.917563 18.9301C0.918369 18.8955 0.91982 18.8488 0.922486 18.7911C0.927815 18.6756 0.937984 18.5159 0.957504 18.3183C0.996516 17.9233 1.07301 17.3758 1.22343 16.7268C1.52393 15.4303 2.12234 13.7165 3.31674 12.0061C5.58775 8.75391 9.91671 5.64902 18.0488 5.28545L16.1596 3.55273C15.8543 3.27276 15.8338 2.79833 16.1138 2.49306Z" fill="#067647"/>
</svg>
