<svg width="23" height="22" viewBox="0 0 23 22" fill="none" xmlns="http://www.w3.org/2000/svg">
<path d="M7.33301 21.75C4.39902 21.75 2.78301 21.75 1.68301 20.652C0.583008 19.555 0.583008 17.937 0.583008 15V7C0.583008 4.063 0.583008 2.446 1.68301 1.348C2.78201 0.25 4.399 0.25 7.33299 0.25H10.333C13.267 0.25 14.883 0.25 15.983 1.348C17.083 2.445 17.083 4.063 17.083 7V8C17.083 8.414 16.747 8.75 16.333 8.75C15.919 8.75 15.583 8.414 15.583 8V7C15.583 4.38231 15.583 3.06797 14.923 2.41001C14.262 1.75001 12.949 1.75 10.333 1.75H7.33301C4.71701 1.75 3.40297 1.75001 2.74297 2.41001C2.08301 3.06897 2.08301 4.38284 2.08301 6.99954V15C2.08301 17.6177 2.08301 18.932 2.74297 19.59C3.40397 20.25 4.71701 20.25 7.33301 20.25C7.74701 20.25 8.08301 20.586 8.08301 21C8.08301 21.414 7.74701 21.75 7.33301 21.75Z" fill="#067647"/>
<path fill-rule="evenodd" clip-rule="evenodd" d="M11.293 21.75C10.35 21.75 9.58301 20.983 9.58301 20.04C9.58301 18.784 10.434 17.716 11.654 17.438L13.458 16.957L13.318 16.263C13.259 15.955 13.14 15.643 13.013 15.313C12.868 14.935 12.719 14.544 12.636 14.111L12.629 14.069C12.608 13.912 12.583 13.716 12.583 13.501C12.583 11.709 14.041 10.251 15.833 10.251C17.625 10.251 19.083 11.709 19.083 13.501C19.083 13.731 19.065 13.932 19.029 14.117C18.947 14.545 18.798 14.936 18.653 15.314L18.6473 15.3291C18.5234 15.6535 18.4061 15.9606 18.35 16.256L18.208 16.958L20.012 17.439C21.232 17.717 22.083 18.785 22.083 20.041C22.083 20.984 21.316 21.751 20.373 21.751L11.293 21.75ZM14.4311 18.25L11.995 18.898C11.458 19.017 11.083 19.487 11.083 20.04C11.083 20.156 11.177 20.25 11.293 20.25H20.373C20.489 20.25 20.583 20.156 20.583 20.04C20.583 19.487 20.208 19.017 19.671 18.898L19.64 18.89L17.235 18.249L14.4311 18.25ZM14.947 16.75H16.72L16.878 15.966C16.959 15.5422 17.1079 15.1534 17.2518 14.7776C17.3788 14.4466 17.4991 14.133 17.5561 13.831C17.5741 13.738 17.583 13.632 17.583 13.501C17.583 12.536 16.798 11.751 15.833 11.751C14.868 11.751 14.083 12.536 14.083 13.501C14.083 13.611 14.099 13.737 14.114 13.85C14.173 14.146 14.29 14.453 14.414 14.777L14.4165 14.7836C14.5597 15.1585 14.7075 15.5455 14.79 15.974L14.947 16.75Z" fill="#067647"/>
<path d="M7.54404 9.74996H7.58301L7.58105 9.75094C7.84405 9.75094 8.089 9.61197 8.225 9.38497C8.943 8.18297 10.493 6.11996 11.597 5.70196C11.985 5.55496 12.18 5.12197 12.033 4.73497C11.886 4.34697 11.453 4.15198 11.066 4.29898C9.72202 4.80798 8.37004 6.49795 7.59004 7.61495C7.03304 6.98195 6.51803 6.91695 6.33203 6.91695C5.91803 6.91695 5.58203 7.25295 5.58203 7.66695C5.58203 8.04795 5.86501 8.36295 6.23301 8.41095C6.29401 8.44095 6.57305 8.60995 6.90205 9.31695C7.02005 9.56895 7.26704 9.73596 7.54404 9.74996Z" fill="#067647"/>
<path d="M9.33301 13.75H5.33301C4.91901 13.75 4.58301 13.414 4.58301 13C4.58301 12.586 4.91901 12.25 5.33301 12.25H9.33301C9.74701 12.25 10.083 12.586 10.083 13C10.083 13.414 9.74701 13.75 9.33301 13.75Z" fill="#067647"/>
<path d="M5.33301 16.75H9.33301C9.74701 16.75 10.083 16.414 10.083 16C10.083 15.586 9.74701 15.25 9.33301 15.25H5.33301C4.91901 15.25 4.58301 15.586 4.58301 16C4.58301 16.414 4.91901 16.75 5.33301 16.75Z" fill="#067647"/>
</svg>
