<svg width="25" height="18" viewBox="0 0 25 18" fill="none" xmlns="http://www.w3.org/2000/svg">
<path fill-rule="evenodd" clip-rule="evenodd" d="M12.6665 0.25C10.3193 0.25 8.4165 2.15279 8.4165 4.5C8.4165 6.84721 10.3193 8.75 12.6665 8.75C15.0137 8.75 16.9165 6.84721 16.9165 4.5C16.9165 2.15279 15.0137 0.25 12.6665 0.25ZM9.9165 4.5C9.9165 2.98122 11.1477 1.75 12.6665 1.75C14.1853 1.75 15.4165 2.98122 15.4165 4.5C15.4165 6.01878 14.1853 7.25 12.6665 7.25C11.1477 7.25 9.9165 6.01878 9.9165 4.5Z" fill="#067647"/>
<path d="M6.16655 2.25C4.37162 2.25 2.91655 3.70507 2.91655 5.5C2.91655 7.29493 4.37162 8.75 6.16655 8.75C6.58076 8.75 6.91655 8.41421 6.91655 8C6.91655 7.58579 6.58076 7.25 6.16655 7.25C5.20005 7.25 4.41655 6.4665 4.41655 5.5C4.41655 4.5335 5.20005 3.75 6.16655 3.75C6.58076 3.75 6.91655 3.41421 6.91655 3C6.91655 2.58579 6.58076 2.25 6.16655 2.25Z" fill="#067647"/>
<path d="M6.4135 9.93242C6.37618 9.5199 6.0115 9.21573 5.59897 9.25305C4.66044 9.33796 3.74789 9.69902 2.9436 10.3184C2.89726 10.3541 2.83622 10.3985 2.76449 10.4506C2.4238 10.6985 1.8421 11.1217 1.45009 11.6179C1.19961 11.935 0.965366 12.3499 0.923193 12.8489C0.879027 13.3714 1.0542 13.8791 1.42976 14.3418C2.00461 15.0501 2.79341 15.75 3.89251 15.75C4.30672 15.75 4.64251 15.4142 4.64251 15C4.64251 14.5858 4.30672 14.25 3.89251 14.25C3.493 14.25 3.08982 14.0069 2.59443 13.3965C2.42226 13.1844 2.41146 13.051 2.41786 12.9752C2.42626 12.8758 2.47915 12.7351 2.62712 12.5477C2.87637 12.2322 3.22575 11.9754 3.56536 11.7258C3.66493 11.6526 3.76366 11.5801 3.85878 11.5068C4.44915 11.0522 5.09381 10.8049 5.73412 10.747C6.14665 10.7096 6.45082 10.345 6.4135 9.93242Z" fill="#067647"/>
<path d="M18.6665 2.25C18.2523 2.25 17.9165 2.58579 17.9165 3C17.9165 3.41421 18.2523 3.75 18.6665 3.75C19.633 3.75 20.4165 4.5335 20.4165 5.5C20.4165 6.4665 19.633 7.25 18.6665 7.25C18.2523 7.25 17.9165 7.58579 17.9165 8C17.9165 8.41421 18.2523 8.75 18.6665 8.75C20.4614 8.75 21.9165 7.29493 21.9165 5.5C21.9165 3.70507 20.4614 2.25 18.6665 2.25Z" fill="#067647"/>
<path d="M19.7341 9.25305C19.3216 9.21573 18.9569 9.5199 18.9196 9.93242C18.8822 10.345 19.1864 10.7096 19.5989 10.747C20.2392 10.8049 20.8839 11.0522 21.4743 11.5068C21.5694 11.5801 21.6681 11.6526 21.7676 11.7258C22.1072 11.9754 22.4567 12.2322 22.7059 12.5477C22.8539 12.7351 22.9068 12.8758 22.9152 12.9752C22.9216 13.051 22.9108 13.1844 22.7386 13.3965C22.2432 14.0069 21.8401 14.25 21.4405 14.25C21.0263 14.25 20.6905 14.5858 20.6905 15C20.6905 15.4142 21.0263 15.75 21.4405 15.75C22.5396 15.75 23.3284 15.0501 23.9033 14.3418C24.2788 13.8791 24.454 13.3714 24.4099 12.8489C24.3677 12.3499 24.1334 11.935 23.883 11.6179C23.491 11.1217 22.9094 10.6986 22.5687 10.4507C22.4969 10.3985 22.4358 10.3541 22.3895 10.3184C21.5852 9.69902 20.6726 9.33796 19.7341 9.25305Z" fill="#067647"/>
<path fill-rule="evenodd" clip-rule="evenodd" d="M8.35601 11.4733C10.9938 9.84224 14.3395 9.84224 16.9773 11.4733C17.055 11.5214 17.1535 11.579 17.2666 11.6452C17.7789 11.9449 18.5922 12.4208 19.1471 12.9849C19.4956 13.3391 19.8432 13.8221 19.9066 14.4242C19.9744 15.0683 19.701 15.6646 19.1794 16.1806C18.3178 17.033 17.2505 17.75 15.851 17.75H9.48228C8.08282 17.75 7.01549 17.033 6.15387 16.1806C5.6323 15.6646 5.3589 15.0683 5.4267 14.4242C5.49008 13.8221 5.83768 13.3391 6.1862 12.9849C6.7411 12.4208 7.55429 11.945 8.06656 11.6452C8.17975 11.579 8.27824 11.5214 8.35601 11.4733ZM16.1884 12.7491C14.0341 11.417 11.2992 11.417 9.1449 12.7491C9.01558 12.8291 8.87691 12.9108 8.73384 12.9952C8.22197 13.297 7.6537 13.6321 7.25549 14.0368C7.01049 14.2859 6.93042 14.4676 6.91846 14.5812C6.91093 14.6527 6.91454 14.8231 7.20883 15.1143C7.94137 15.839 8.64952 16.25 9.48228 16.25H15.851C16.6838 16.25 17.3919 15.839 18.1245 15.1143C18.4188 14.8231 18.4224 14.6527 18.4148 14.5812C18.4029 14.4676 18.3228 14.2859 18.0778 14.0368C17.6796 13.6321 17.1114 13.297 16.5995 12.9952C16.4564 12.9108 16.3177 12.8291 16.1884 12.7491Z" fill="#067647"/>
</svg>
