<svg width="22" height="22" viewBox="0 0 22 22" fill="none" xmlns="http://www.w3.org/2000/svg">
<path d="M10 6.25C9.58579 6.25 9.25 6.58579 9.25 7C9.25 7.41421 9.58579 7.75 10 7.75H12C12.4142 7.75 12.75 7.41421 12.75 7C12.75 6.58579 12.4142 6.25 12 6.25H10Z" fill="#067647"/>
<path d="M10 9.75C9.58579 9.75 9.25 10.0858 9.25 10.5C9.25 10.9142 9.58579 11.25 10 11.25L12 11.25C12.4142 11.25 12.75 10.9142 12.75 10.5C12.75 10.0858 12.4142 9.75 12 9.75L10 9.75Z" fill="#067647"/>
<path d="M10 13.25C9.58579 13.25 9.25 13.5858 9.25 14C9.25 14.4142 9.58579 14.75 10 14.75L12 14.75C12.4142 14.75 12.75 14.4142 12.75 14C12.75 13.5858 12.4142 13.25 12 13.25L10 13.25Z" fill="#067647"/>
<path fill-rule="evenodd" clip-rule="evenodd" d="M0.25 21C0.25 20.5858 0.585786 20.25 1 20.25H1.25L1.25 14C1.25 13.5701 1.27144 13.1737 1.34728 12.8285C1.42498 12.4748 1.56966 12.1287 1.84917 11.8492C2.12868 11.5697 2.4748 11.425 2.82851 11.3473C3.17373 11.2714 3.5701 11.25 4 11.25H6.25L6.25 5C6.25 4.5701 6.27144 4.17373 6.34728 3.82851C6.42498 3.4748 6.56966 3.12868 6.84917 2.84917C7.12868 2.56966 7.4748 2.42498 7.82851 2.34728C8.17373 2.27144 8.5701 2.25 9 2.25L10.25 2.25V1C10.25 0.585787 10.5858 0.25 11 0.25C11.4142 0.25 11.75 0.585787 11.75 1V2.25L13 2.25C13.4299 2.25 13.8263 2.27144 14.1715 2.34728C14.5252 2.42498 14.8713 2.56966 15.1508 2.84917C15.4303 3.12868 15.575 3.4748 15.6527 3.82851C15.7286 4.17373 15.75 4.5701 15.75 5L15.75 11.25H18C18.4299 11.25 18.8263 11.2714 19.1715 11.3473C19.5252 11.425 19.8713 11.5697 20.1508 11.8492C20.4303 12.1287 20.575 12.4748 20.6527 12.8285C20.7286 13.1737 20.75 13.5701 20.75 14V20.25H21C21.4142 20.25 21.75 20.5858 21.75 21C21.75 21.4142 21.4142 21.75 21 21.75L1 21.75C0.585786 21.75 0.25 21.4142 0.25 21ZM10.25 19V20.25H7.75L7.75 5C7.75 4.60256 7.77172 4.33527 7.81234 4.15036C7.8511 3.97395 7.89618 3.92348 7.90983 3.90983C7.92348 3.89618 7.97395 3.8511 8.15036 3.81235C8.33527 3.77172 8.60256 3.75 9 3.75L13 3.75C13.3974 3.75 13.6647 3.77172 13.8496 3.81235C14.0261 3.8511 14.0765 3.89618 14.0902 3.90983C14.1038 3.92348 14.1489 3.97395 14.1877 4.15036C14.2283 4.33527 14.25 4.60257 14.25 5L14.25 20.25H11.75V19C11.75 18.5858 11.4142 18.25 11 18.25C10.5858 18.25 10.25 18.5858 10.25 19ZM18 12.75H15.75L15.75 20.25H19.25V14C19.25 13.6026 19.2283 13.3353 19.1877 13.1504C19.1489 12.9739 19.1038 12.9235 19.0902 12.9098C19.0765 12.8962 19.0261 12.8511 18.8496 12.8123C18.6647 12.7717 18.3974 12.75 18 12.75ZM6.25 12.75L6.25 20.25H2.75L2.75 14C2.75 13.6026 2.77172 13.3353 2.81234 13.1504C2.8511 12.9739 2.89618 12.9235 2.90983 12.9098C2.92349 12.8962 2.97395 12.8511 3.15036 12.8123C3.33527 12.7717 3.60256 12.75 4 12.75H6.25Z" fill="#067647"/>
</svg>
