<svg width="23" height="20" viewBox="0 0 23 20" fill="none" xmlns="http://www.w3.org/2000/svg">
<path d="M2.77892 9.32493C3.71692 10.2639 4.96792 10.7439 6.22492 10.7439C6.96881 10.7439 7.71432 10.5759 8.39742 10.2347C9.50753 12.3261 10.5803 15.3041 10.5803 19C10.5803 19.4052 10.9022 19.7357 11.3041 19.7495C11.313 19.7499 11.322 19.75 11.3311 19.75V19.749C11.7451 19.749 12.0811 19.413 12.0811 18.999C12.0811 12.508 17.678 8.67002 17.748 8.62302C18.092 8.39302 18.1851 7.92703 17.9551 7.58303C17.7251 7.23803 17.26 7.14502 16.915 7.37502C16.8582 7.4129 15.702 8.19138 14.3891 9.6479C13.8375 8.55523 14.0242 7.19744 14.9336 6.28804C15.8876 5.33404 17.5157 4.97206 18.7137 4.83606C19.4487 4.75206 20.1167 4.74205 20.5797 4.75105C20.5877 5.21405 20.5776 5.88304 20.4946 6.61704C20.3596 7.81604 19.9967 9.44405 19.0427 10.398C18.4687 10.972 17.6777 11.282 16.8637 11.247H16.8316C16.4316 11.247 16.0996 11.562 16.0826 11.965C16.0646 12.379 16.3856 12.728 16.7996 12.746C16.8616 12.749 16.9236 12.7501 16.9856 12.7501V12.7491C18.1506 12.7491 19.2776 12.2841 20.1026 11.4581C22.4786 9.08306 22.0626 4.17404 22.0436 3.96604C22.0106 3.60504 21.7256 3.32006 21.3646 3.28706C21.1576 3.26906 16.2476 2.85205 13.8726 5.22805C12.3344 6.76633 12.1599 9.14869 13.3818 10.8775C12.5949 11.939 11.9677 13.0597 11.508 14.2186C10.9821 12.0641 10.1664 10.2767 9.37619 8.90648C9.3522 8.84591 9.31987 8.78752 9.27897 8.73293C9.27345 8.72554 9.26781 8.71827 9.26206 8.71113C9.16192 8.54192 9.06244 8.37951 8.96426 8.22399C7.41926 5.77699 5.87526 4.47699 5.81026 4.42299C5.49226 4.15899 5.02028 4.20198 4.75528 4.51898C4.49028 4.83598 4.53227 5.30899 4.84927 5.57499C4.84927 5.57499 4.85118 5.57666 4.85378 5.57892C4.9421 5.65554 6.28668 6.82187 7.63864 8.93504C6.38395 9.51806 4.84859 9.27543 3.83893 8.26492C2.74593 7.17292 2.33292 5.31793 2.17892 3.95393C2.07992 3.07593 2.07291 2.28093 2.08591 1.75593C2.61191 1.74293 3.4059 1.74993 4.2839 1.84893C5.6479 2.00293 7.50296 2.41694 8.59596 3.50994C9.34696 4.25994 9.70094 5.33692 9.54294 6.38892C9.48094 6.79892 9.76292 7.18092 10.1729 7.24192C10.5819 7.30392 10.9639 7.02194 11.0259 6.61194C11.2549 5.08994 10.7419 3.53393 9.65592 2.44893C7.01493 -0.194075 1.53495 0.271919 1.30295 0.292919C0.941947 0.325919 0.656943 0.611923 0.623943 0.971923C0.601943 1.20392 0.136924 6.68393 2.77892 9.32493Z" fill="#067647"/>
</svg>
