<svg width="21" height="22" viewBox="0 0 21 22" fill="none" xmlns="http://www.w3.org/2000/svg">
<path fill-rule="evenodd" clip-rule="evenodd" d="M10.5023 0.750002C9.84677 0.749968 9.28256 0.74994 8.81944 0.811625C8.31805 0.878409 7.86168 1.02501 7.45568 1.36641C7.05953 1.69952 6.81565 2.13087 6.6184 2.62555C6.44594 3.05806 6.28662 3.60022 6.10058 4.25H3.31442C1.8654 4.25 1.0053 5.32293 0.648204 6.40879C0.293952 7.486 0.334288 8.81185 0.849795 9.79214C0.872935 9.83614 0.89642 9.87981 0.920246 9.92315C0.916353 9.96139 0.915354 10.0004 0.917468 10.04L1.07018 12.9003L1.07255 12.9522C1.15254 14.7125 1.21598 16.1084 1.41069 17.199C1.61123 18.3224 1.96706 19.227 2.7071 19.9342C3.44713 20.6413 4.36702 20.9557 5.49828 21.1051C6.59666 21.25 7.99393 21.25 9.75601 21.25H11.5767C13.3388 21.25 14.7361 21.25 15.8345 21.1051C16.9658 20.9557 17.8857 20.6413 18.6257 19.9342C19.3657 19.227 19.7216 18.3224 19.9221 17.199C20.1168 16.1084 20.1803 14.7125 20.2603 12.9522L20.2625 12.9033L20.2628 12.8973L20.4153 10.04C20.4174 10.0004 20.4164 9.96143 20.4126 9.92321C20.4364 9.87985 20.4599 9.83616 20.483 9.79214C20.9986 8.81185 21.0389 7.486 20.6846 6.40879C20.3275 5.32293 19.4674 4.25 18.0184 4.25H15.232C15.0459 3.60022 14.8866 3.05806 14.7141 2.62555C14.5169 2.13087 14.273 1.69952 13.8769 1.36641C13.4709 1.02501 13.0145 0.878409 12.5131 0.811625C12.05 0.74994 11.4858 0.749968 10.8303 0.750002H10.5023ZM13.6705 4.25C13.5391 3.80116 13.4311 3.45763 13.3208 3.18113C13.1671 2.79567 13.0391 2.62179 12.9115 2.51447C12.7937 2.41544 12.6403 2.34182 12.3151 2.29849C11.9625 2.25154 11.499 2.25 10.7832 2.25H10.5493C9.83351 2.25 9.37 2.25154 9.01749 2.29849C8.69222 2.34182 8.53883 2.41544 8.42106 2.51447C8.29343 2.62179 8.16542 2.79567 8.01172 3.18113C7.90146 3.45763 7.7934 3.80116 7.66202 4.25H13.6705ZM2.07313 6.8774C1.82363 7.63609 1.88177 8.53177 2.17741 9.09398C3.68931 11.969 7.17321 13.25 10.6664 13.25C14.1596 13.25 17.6435 11.969 19.1554 9.09398C19.4511 8.53177 19.5092 7.63609 19.2597 6.87739C19.0131 6.12736 18.5672 5.75 18.0184 5.75H3.31442C2.76568 5.75 2.31979 6.12736 2.07313 6.8774ZM11.4164 14.7317C14.0684 14.6022 16.8437 13.7757 18.8105 11.9629L18.7646 12.8233L18.7643 12.8292C18.6812 14.6568 18.6208 15.9535 18.4455 16.9354C18.274 17.896 18.0089 18.4488 17.5894 18.8497C17.1699 19.2506 16.6056 19.4903 15.6382 19.618C14.6494 19.7485 13.3512 19.75 11.5218 19.75H9.81102C7.98161 19.75 6.68342 19.7485 5.69458 19.618C4.72721 19.4903 4.16294 19.2506 3.7434 18.8497C3.32385 18.4488 3.05883 17.896 2.88734 16.9354C2.71205 15.9535 2.6516 14.6568 2.56853 12.8292L2.52227 11.9628C4.48911 13.7757 7.26444 14.6022 9.91644 14.7317V15.5C9.91644 15.9142 10.2522 16.25 10.6664 16.25C11.0807 16.25 11.4164 15.9142 11.4164 15.5V14.7317Z" fill="#067647"/>
</svg>
