<svg width="18" height="17" viewBox="0 0 18 17" fill="none" xmlns="http://www.w3.org/2000/svg">
<path d="M8.9991 16.5296H9C12.7033 16.5296 14.5617 16.5296 15.8433 15.248C17.055 14.0346 17.1175 12.2338 17.1233 9.15545C17.1233 8.81045 16.8442 8.52963 16.4992 8.52963H16.4975C16.1525 8.52963 15.8725 8.80882 15.8725 9.15382C15.8667 12.1463 15.7792 13.5438 14.9583 14.3646C14.0425 15.2796 12.3575 15.2796 8.99919 15.2796C5.64085 15.2796 3.955 15.2796 3.04 14.3646C2.125 13.4488 2.125 11.763 2.125 8.40465C2.125 5.04632 2.12502 3.3605 3.04085 2.44467C3.86085 1.62384 5.25831 1.53547 8.25081 1.52963C8.59665 1.52963 8.875 1.24882 8.875 0.903819C8.87417 0.558819 8.595 0.279633 8.25 0.279633H8.24833C5.16916 0.285466 3.36832 0.347956 2.15666 1.56129C0.875 2.84211 0.875 4.70127 0.875 8.40455C0.875 12.1078 0.875 13.9663 2.15666 15.248C3.43748 16.5296 5.29666 16.5296 8.9991 16.5296Z" fill="#1B8354"/>
<path d="M7.76675 9.72972C7.88925 9.85056 8.04841 9.91136 8.20758 9.91136C8.36842 9.91136 8.5284 9.84889 8.6509 9.72639L15.8001 2.53555C15.8492 3.04055 15.8876 3.83806 15.8701 5.08389C15.8651 5.42972 16.1409 5.71301 16.4859 5.71801C16.8326 5.72634 17.1151 5.4472 17.1201 5.1022C17.1717 1.47788 16.7821 1.0867 16.5728 0.876635C16.3628 0.666601 15.9718 0.275563 12.3501 0.327218C12.0051 0.332218 11.7292 0.616332 11.7342 0.961332C11.7392 1.303 12.0184 1.57722 12.3592 1.57722H12.3684C13.6192 1.55972 14.4175 1.59802 14.9209 1.64802L7.76422 8.84553C7.52089 9.09053 7.52175 9.48639 7.76675 9.72972Z" fill="#1B8354"/>
</svg>
