<svg width="19" height="12" viewBox="0 0 19 12" fill="none" xmlns="http://www.w3.org/2000/svg">
<path d="M0.583984 5.99969C0.583987 6.37325 0.749639 6.71981 0.906504 6.98004C1.07578 7.26086 1.30343 7.55078 1.55317 7.83346C2.05416 8.40053 2.70785 9.00951 3.34222 9.56038C3.98031 10.1145 4.61621 10.6247 5.09123 10.9955C5.32914 11.1812 5.52762 11.3326 5.66703 11.4379C5.73675 11.4906 5.79174 11.5318 5.82957 11.56L5.87313 11.5923L5.88469 11.6009L5.8887 11.6039C6.22221 11.8495 6.69214 11.7786 6.9378 11.4451C7.18345 11.1116 7.11226 10.6422 6.7788 10.3965L6.76607 10.3871L6.72602 10.3573C6.6906 10.3309 6.63818 10.2917 6.57118 10.241C6.43715 10.1398 6.24501 9.9932 6.01417 9.81302C5.55171 9.45205 4.93762 8.95916 4.32572 8.42781C3.7101 7.89322 3.1138 7.33439 2.6773 6.84032C2.64969 6.80907 2.62297 6.77836 2.59715 6.7482L17.334 6.7482C17.7482 6.7482 18.084 6.41241 18.084 5.9982C18.084 5.58398 17.7482 5.2482 17.334 5.2482L2.59968 5.2482C2.62472 5.219 2.65059 5.18927 2.6773 5.15904C3.1138 4.66497 3.7101 4.10614 4.32572 3.57156C4.93761 3.0402 5.55171 2.54731 6.01417 2.18634C6.24501 2.00616 6.43715 1.85957 6.57118 1.75831C6.63818 1.7077 6.6906 1.66846 6.72602 1.64206L6.76607 1.61229L6.7788 1.60288C7.11226 1.35721 7.18345 0.887728 6.9378 0.554241C6.69214 0.220739 6.22221 0.149849 5.8887 0.395511L5.88469 0.398471L5.87313 0.407024L5.82957 0.439409C5.79174 0.467604 5.73674 0.508776 5.66702 0.561445C5.52762 0.666757 5.32914 0.818192 5.09123 1.00389C4.61621 1.37466 3.98031 1.88488 3.34222 2.43898C2.70785 2.98985 2.05416 3.59883 1.55317 4.1659C1.30343 4.44858 1.07578 4.73851 0.906504 5.01932C0.750581 5.27799 0.585977 5.62197 0.584002 5.99296" fill="#161616"/>
</svg>
