<svg width="18" height="12" viewBox="0 0 18 12" fill="none" xmlns="http://www.w3.org/2000/svg">
<path d="M0.157046 6.02667C0.156173 6.40023 0.321013 6.74718 0.477269 7.00778C0.645889 7.28899 0.872857 7.57945 1.12193 7.86271C1.6216 8.43095 2.27386 9.04146 2.90694 9.59381C3.54373 10.1494 4.17843 10.6611 4.65259 11.033C4.89006 11.2192 5.08819 11.3711 5.22734 11.4768C5.29694 11.5296 5.35184 11.5709 5.3896 11.5992L5.43309 11.6317L5.44463 11.6403L5.44863 11.6432C5.78156 11.8897 6.25166 11.8199 6.4981 11.487C6.74453 11.1541 6.67444 10.6844 6.34155 10.438L6.32885 10.4285L6.28887 10.3986C6.25351 10.3722 6.20118 10.3328 6.1343 10.282C6.00051 10.1805 5.80871 10.0334 5.57829 9.85271C5.11667 9.49066 4.50374 8.99633 3.89309 8.46354C3.27872 7.92751 2.68373 7.36729 2.24839 6.8722C2.22085 6.84089 2.1942 6.81011 2.16845 6.7799L16.9053 6.81439C17.3195 6.81536 17.656 6.48036 17.657 6.06615C17.658 5.65193 17.323 5.31536 16.9088 5.31439L2.1745 5.27991C2.1996 5.25076 2.22554 5.22109 2.25232 5.19093C2.68998 4.69788 3.28758 4.14045 3.90445 3.6073C4.51759 3.07738 5.13283 2.58593 5.59614 2.22604C5.8274 2.04641 6.01989 1.90026 6.15415 1.79932C6.22127 1.74887 6.27378 1.70975 6.30926 1.68343L6.34938 1.65375L6.36213 1.64437C6.69617 1.39948 6.76846 0.930173 6.52359 0.596112C6.27871 0.262036 5.80894 0.190046 5.47487 0.434926L5.47085 0.437877L5.45927 0.446404L5.41563 0.478687C5.37774 0.506792 5.32264 0.547836 5.2528 0.600342C5.11315 0.705326 4.91432 0.856297 4.67597 1.04144C4.20008 1.4111 3.56299 1.91982 2.92361 2.47243C2.28795 3.02181 1.63284 3.62926 1.13052 4.19516C0.880119 4.47725 0.651793 4.76664 0.481859 5.04706C0.325332 5.30536 0.159923 5.64896 0.157079 6.01994" fill="white"/>
</svg>
