<svg xmlns="http://www.w3.org/2000/svg" width="13" height="8" viewBox="0 0 13 8" fill="none">
<path d="M1.99235 1.1294C2.09393 1.26388 2.39718 1.66534 2.57779 1.89676C2.93952 2.36027 3.43378 2.97618 3.96695 3.59026C4.50282 4.20744 5.06574 4.80852 5.56583 5.25039C5.8166 5.47195 6.03688 5.64031 6.21865 5.74989C6.38961 5.85296 6.4906 5.87439 6.4906 5.87439C6.4906 5.87439 6.58862 5.85295 6.75957 5.7499C6.94134 5.64032 7.16162 5.47196 7.41238 5.25039C7.91248 4.80852 8.4754 4.20744 9.01127 3.59025C9.54444 2.97616 10.0387 2.36025 10.4004 1.89673C10.581 1.66531 10.8839 1.26442 10.9854 1.12994C11.1901 0.852004 11.5818 0.792058 11.8597 0.996751C12.1377 1.20145 12.1971 1.59269 11.9924 1.87063L11.9908 1.87273C11.8843 2.01376 11.5702 2.42963 11.3859 2.66577C11.016 3.13975 10.5073 3.77384 9.95515 4.40976C9.40571 5.04257 8.80099 5.69149 8.24006 6.18712C7.96031 6.4343 7.67673 6.65656 7.40493 6.82042C7.15028 6.97393 6.82787 7.125 6.48911 7.125C6.15035 7.125 5.82794 6.97393 5.57329 6.82041C5.30149 6.65656 5.01792 6.4343 4.73816 6.18712C4.17723 5.69149 3.57251 5.04258 3.02308 4.40977C2.47095 3.77386 1.96225 3.13978 1.59236 2.6658C1.40797 2.42953 1.0939 2.01371 0.987558 1.87292L0.986157 1.87107C0.781462 1.59313 0.840541 1.20149 1.11848 0.996793C1.3964 0.792105 1.78765 0.851493 1.99235 1.1294Z" fill="#ffffff"/>
</svg>