<svg width="8" height="12" viewBox="0 0 8 12" fill="none" xmlns="http://www.w3.org/2000/svg">
<path d="M1.13135 10.4963C1.26583 10.3947 1.66728 10.0915 1.89871 9.91087C2.36222 9.54914 2.97813 9.05489 3.5922 8.52171C4.20939 7.98585 4.81046 7.42292 5.25233 6.92283C5.4739 6.67207 5.64226 6.45179 5.75184 6.27001C5.8549 6.09905 5.87633 5.99806 5.87633 5.99806C5.87633 5.99806 5.8549 5.90004 5.75184 5.72909C5.64226 5.54732 5.4739 5.32704 5.25234 5.07628C4.81046 4.57619 4.20938 4.01326 3.59219 3.47739C2.97811 2.94422 2.3622 2.44996 1.89868 2.08823C1.66725 1.90763 1.26637 1.60479 1.13189 1.50322C0.85395 1.29853 0.794003 0.906857 0.998697 0.628922C1.20339 0.350986 1.59464 0.291612 1.87258 0.496306L1.87469 0.497904C2.01574 0.604438 2.43158 0.918521 2.66771 1.1028C3.1417 1.4727 3.77579 1.98139 4.4117 2.53352C5.04452 3.08295 5.69344 3.68767 6.18906 4.24861C6.43625 4.52836 6.65851 4.81193 6.82236 5.08374C6.97588 5.33838 7.12695 5.6608 7.12695 5.99956C7.12694 6.33831 6.97587 6.66072 6.82236 6.91537C6.6585 7.18717 6.43624 7.47075 6.18906 7.7505C5.69344 8.31143 5.04452 8.91615 4.41172 9.46559C3.77581 10.0177 3.14173 10.5264 2.66775 10.8963C2.43145 11.0807 2.01559 11.3948 1.87484 11.5011L1.87302 11.5025C1.59508 11.7072 1.20344 11.6481 0.99874 11.3702C0.794051 11.0923 0.853439 10.701 1.13135 10.4963Z" fill="#161616"/>
</svg>
