<svg xmlns="http://www.w3.org/2000/svg" width="23.928" height="24" viewBox="0 0 23.928 24">
  <path id="Path_22434" data-name="Path 22434" d="M11.886,2.5a2.5,2.5,0,1,1,2.5,2.5A2.5,2.5,0,0,1,11.886,2.5ZM22,20a2,2,0,1,0,1.955,2A2,2,0,0,0,22,20Zm-4.071,2.629a1,1,0,1,1-1.857.742l-1.591-3.979a3,3,0,0,0-.961-1.267L9.3,14.9a2.968,2.968,0,0,1-1.1-3.623l2.1-4.224L7.449,5.671A5.02,5.02,0,0,1,5.616,4.16L3.7,1.6A1,1,0,1,1,5.3.4L7.217,2.964a3.022,3.022,0,0,0,1.1.907l14.119,6.812a1,1,0,1,1-.869,1.8L15.6,9.6,12.934,15.16l1.8,1.377a5,5,0,0,1,1.6,2.113l1.591,3.979Zm-7.485-9.371.857.655L13.8,8.735,12.1,7.918,10.022,12.1a.991.991,0,0,0,.422,1.159ZM6.819,15.175l-1.99,1.538L1.6,14.224A1,1,0,0,0,.4,15.832l3.215,2.485A2,2,0,0,0,6.031,18.3L8.24,16.6a5.3,5.3,0,0,1-1.421-1.427Z" transform="translate(-0.027)" fill="#1b8354"/>
</svg>
