<svg xmlns="http://www.w3.org/2000/svg" width="24.045" height="24.05" viewBox="0 0 24.045 24.05">
  <g id="Group_806" data-name="Group 806" transform="translate(-1159.915 -1711.91)">
    <g id="svgviewer-output_4_" data-name="svgviewer-output (4)" transform="translate(1159.965 1711.96)">
      <path id="Path_602" data-name="Path 602" d="M20.412,9.3a1.09,1.09,0,1,0-1.09-1.09,1.09,1.09,0,0,0,1.09,1.09Zm0-1.664a.574.574,0,1,1-.574.574A.574.574,0,0,1,20.412,7.636Zm.282,2.755-.12.139.129.23.067.158a5.688,5.688,0,0,1,.56,2.028l.182,2.425.335-2.41a2.269,2.269,0,0,1,2.214-1.946h.258l-.014-2.2h-.258a4.448,4.448,0,0,0-3.362,1.569Zm3.1-1.043.01,1.162a2.811,2.811,0,0,0-2.123,1.377,7.6,7.6,0,0,0-.435-1.181L21.2,10.6a3.952,3.952,0,0,1,2.6-1.248Zm-7.312,5.772h.258v-2.2h-.258a2.262,2.262,0,0,1-2.257-2.257.574.574,0,0,1,.574-.574,3.939,3.939,0,0,1,3.936,3.936,2.255,2.255,0,0,1-2.257,2.257h-.258v2.19h.258a4.457,4.457,0,0,0,4.452-4.452,6.036,6.036,0,0,0-.641-2.716l-.057-.129a6.118,6.118,0,0,0-5.428-3.285,2.778,2.778,0,0,0-2.769,2.774,4.457,4.457,0,0,0,4.452,4.452ZM14.8,8.411A5.6,5.6,0,0,1,19.767,11.4l.048.11a5.626,5.626,0,0,1,.6,2.506,3.917,3.917,0,0,1-3.673,3.926V16.785a2.774,2.774,0,0,0,2.515-2.759A4.457,4.457,0,0,0,14.8,9.573a1.09,1.09,0,0,0-1.09,1.09,2.767,2.767,0,0,0,2.516,2.759V14.59a3.917,3.917,0,0,1-3.673-3.926,2.257,2.257,0,0,1,2.252-2.257ZM12.512,28.889a1.09,1.09,0,1,0,1.09,1.09A1.09,1.09,0,0,0,12.512,28.889Zm0,1.664a.574.574,0,1,1,.574-.574A.574.574,0,0,1,12.512,30.553ZM12.23,27.8l.115-.134-.081-.153s-.024-.043-.033-.062l-.081-.182a5.759,5.759,0,0,1-.56-2.023l-.182-2.406-.335,2.391a2.269,2.269,0,0,1-2.214,1.942H8.6v2.2h.258A4.435,4.435,0,0,0,12.225,27.8ZM9.121,28.846V27.679A2.8,2.8,0,0,0,11.24,26.3a7.878,7.878,0,0,0,.43,1.176l.053.12A3.953,3.953,0,0,1,9.121,28.846Zm7.322-5.772h-.258v1.942l.014.249h.253A2.262,2.262,0,0,1,18.7,27.531a.574.574,0,0,1-.574.574,3.943,3.943,0,0,1-3.936-3.941,2.262,2.262,0,0,1,2.257-2.257h.258v-2.2h-.258A4.457,4.457,0,0,0,12,24.164a6.03,6.03,0,0,0,.641,2.712l.062.134a6.114,6.114,0,0,0,5.428,3.281A2.774,2.774,0,0,0,20.9,27.517a4.457,4.457,0,0,0-4.452-4.452Zm3.276,6.045a2.248,2.248,0,0,1-1.6.66,5.6,5.6,0,0,1-4.964-2.994L13.1,26.67a5.628,5.628,0,0,1-.593-2.5,3.917,3.917,0,0,1,3.678-3.926V21.4a2.774,2.774,0,0,0-2.516,2.769,4.457,4.457,0,0,0,4.452,4.452,1.09,1.09,0,0,0,1.09-1.09,2.771,2.771,0,0,0-.8-1.966,2.743,2.743,0,0,0-1.707-.808V23.6a3.918,3.918,0,0,1,3.678,3.926,2.255,2.255,0,0,1-.66,1.6Zm7.623-7.164a1.09,1.09,0,1,0,1.09,1.09A1.09,1.09,0,0,0,27.342,21.955Zm0,1.664a.574.574,0,1,1,.574-.574A.574.574,0,0,1,27.342,23.619Zm-2.176-.282-.139-.115-.23.129-.167.072a5.669,5.669,0,0,1-2.013.555l-2.444.177,2.425.335A2.269,2.269,0,0,1,24.544,26.7v.258l2.2-.014v-.258A4.426,4.426,0,0,0,25.166,23.337Zm-.12,3.109a2.8,2.8,0,0,0-1.377-2.119,7.721,7.721,0,0,0,1.167-.43l.12-.053A3.941,3.941,0,0,1,26.2,26.436l-1.162.01Z" transform="translate(-4.487 -7.12)" fill="#1b8354" stroke="#1b8354" stroke-width="0.1"/>
      <path id="Path_603" data-name="Path 603" d="M15.954,23.6v.258h2.2V23.6a2.262,2.262,0,0,1,2.257-2.257.574.574,0,0,1,.574.574,3.944,3.944,0,0,1-3.931,3.936A2.253,2.253,0,0,1,14.8,23.591v-.258H12.6v.258a4.457,4.457,0,0,0,4.452,4.452,6,6,0,0,0,2.712-.641l.134-.057a6.114,6.114,0,0,0,3.281-5.428A2.78,2.78,0,0,0,20.4,19.143,4.458,4.458,0,0,0,15.959,23.6Zm4.452-3.941a2.262,2.262,0,0,1,2.257,2.257,5.6,5.6,0,0,1-2.994,4.964l-.115.053a5.61,5.61,0,0,1-2.5.593,3.922,3.922,0,0,1-3.926-3.678H14.29a2.774,2.774,0,0,0,2.759,2.516,4.454,4.454,0,0,0,4.443-4.452,1.09,1.09,0,0,0-1.09-1.09,2.767,2.767,0,0,0-2.759,2.515H16.475A3.921,3.921,0,0,1,20.4,19.65ZM2.181,19.626a1.09,1.09,0,1,0-1.09,1.09A1.09,1.09,0,0,0,2.181,19.626Zm-1.664,0a.574.574,0,1,1,.574.574A.574.574,0,0,1,.516,19.626Zm2.755-.287.139.12.23-.134.163-.072a5.79,5.79,0,0,1,2.023-.56l2.41-.182-2.4-.335A2.262,2.262,0,0,1,3.9,15.958V15.7l-2.2.014v.258a4.448,4.448,0,0,0,1.569,3.362ZM3.4,16.226a2.811,2.811,0,0,0,1.377,2.123,7.877,7.877,0,0,0-1.176.43l-.12.053a3.952,3.952,0,0,1-1.248-2.6ZM8,23.553v-.258H5.8v.258A2.262,2.262,0,0,1,3.539,25.81a.574.574,0,0,1-.574-.574A3.939,3.939,0,0,1,6.9,21.3a2.262,2.262,0,0,1,2.257,2.257v.258H11.1l.253-.014v-.253A4.448,4.448,0,0,0,6.9,19.105a6,6,0,0,0-2.712.641L4.06,19.8A6.1,6.1,0,0,0,.78,25.231,2.778,2.778,0,0,0,3.553,28a4.457,4.457,0,0,0,4.452-4.452ZM3.544,27.484a2.261,2.261,0,0,1-2.257-2.252A5.6,5.6,0,0,1,4.28,20.267l.115-.053a5.551,5.551,0,0,1,2.511-.6,3.933,3.933,0,0,1,3.926,3.678H9.66A2.774,2.774,0,0,0,6.9,20.779a4.457,4.457,0,0,0-4.452,4.452,1.09,1.09,0,0,0,1.09,1.09,2.767,2.767,0,0,0,2.759-2.515H7.465a3.917,3.917,0,0,1-3.926,3.673Z" transform="translate(0 -11.597)" fill="#1b8354" stroke="#1b8354" stroke-width="0.1"/>
    </g>
  </g>
</svg>
