<svg id="Group_1880" data-name="Group 1880" xmlns="http://www.w3.org/2000/svg" width="24" height="24" viewBox="0 0 24 24">
  <path id="Path_22422" data-name="Path 22422" d="M21,11H16a3,3,0,0,0-3,3v7a3,3,0,0,0,3,3h5a3,3,0,0,0,3-3V14A3,3,0,0,0,21,11Zm1,10a1,1,0,0,1-1,1H16a1,1,0,0,1-1-1V14a1,1,0,0,1,1-1h5a1,1,0,0,1,1,1Zm-1-5a1,1,0,0,1-1,1H17a1,1,0,0,1,0-2h3A1,1,0,0,1,21,16Zm0,3a1,1,0,0,1-1,1H17a1,1,0,0,1,0-2h3A1,1,0,0,1,21,19ZM9,12A6,6,0,1,0,3,6,6.006,6.006,0,0,0,9,12ZM9,2A4,4,0,1,1,5,6,4,4,0,0,1,9,2Zm2,13a1,1,0,0,1-1,1H9a7.008,7.008,0,0,0-7,7,1,1,0,0,1-2,0,9.01,9.01,0,0,1,9-9h1A1,1,0,0,1,11,15Z" fill="#1b8354"/>
</svg>
