<svg id="Group_1890" data-name="Group 1890" xmlns="http://www.w3.org/2000/svg" width="24" height="24.02" viewBox="0 0 24 24.02">
  <path id="Path_22436" data-name="Path 22436" d="M4,5A1,1,0,0,1,5,4H6A1,1,0,0,1,6,6H5A1,1,0,0,1,4,5ZM19.107,18.309,15,16.769V12.108a3.083,3.083,0,0,0-2.5-3.067A3.02,3.02,0,0,0,9,12v6.688l-.462-.37A3,3,0,1,0,4.507,22.75l1.1,1a.988.988,0,0,0,1.338-1.454L5.885,21.3a1,1,0,0,1,1.364-1.464l2.12,1.733A1,1,0,0,0,11,20.795V12a1,1,0,0,1,2,0v5.462c0,.417.253.788,1.1,1.106l4.306,1.615a3.927,3.927,0,0,1,2.523,2.99,1,1,0,1,0,1.967-.358,6.037,6.037,0,0,0-3.789-4.506ZM5,10H7A1,1,0,0,0,7,8H5a1,1,0,0,0,0,2Zm6-4a1,1,0,0,0,0-2H10a1,1,0,0,0,0,2Zm8-6H5A5.006,5.006,0,0,0,0,5V9a5.006,5.006,0,0,0,5,5H6a1,1,0,0,0,0-2H5A3,3,0,0,1,2,9V5A3,3,0,0,1,5,2H19a3,3,0,0,1,3,3V9a3,3,0,0,1-3,3H18a1,1,0,0,0,0,2h1a5.006,5.006,0,0,0,5-5V5A5.006,5.006,0,0,0,19,0Zm0,8H17a1,1,0,0,0,0,2h2a1,1,0,0,0,0-2Zm0-4H15a1,1,0,0,0,0,2h4a1,1,0,0,0,0-2Z" fill="#1b8354"/>
</svg>
