<svg xmlns="http://www.w3.org/2000/svg" width="19.997" height="24.05" viewBox="0 0 19.997 24.05">
  <g id="Group_1879" data-name="Group 1879" transform="translate(-2.007 0.05)">
    <path id="Path_22421" data-name="Path 22421" d="M22,4.5a1.988,1.988,0,0,0-1.34-1.9L14.2.319A6.5,6.5,0,0,0,9.9.313L3.353,2.6a2.008,2.008,0,0,0,0,3.792L6,7.318V9A6,6,0,0,0,18,9V7.318l2-.7V11a1,1,0,0,0,2,0V4.522c0-.009,0-.016,0-.025ZM16,9A4,4,0,0,1,8,9V8.016l1.861.649a6.508,6.508,0,0,0,4.275,0L16,8.015V9ZM13.478,6.777a4.5,4.5,0,0,1-2.957,0L4.014,4.49,10.558,2.2a4.492,4.492,0,0,1,2.976,0L20,4.5,13.478,6.776ZM19.956,22.7a1,1,0,1,1-1.91.593A6.308,6.308,0,0,0,12,19a6.308,6.308,0,0,0-6.045,4.3,1,1,0,1,1-1.91-.594,8.4,8.4,0,0,1,15.91,0Z" fill="#1b8354"/>
  </g>
</svg>
