<svg xmlns="http://www.w3.org/2000/svg" width="51.647" height="53.026" viewBox="0 0 51.647 53.026">
  <g id="Group_18987" data-name="Group 18987" transform="translate(-7.639 -1.011)">
    <path id="Path_46534" data-name="Path 46534" d="M37.716,6.5A5.492,5.492,0,1,0,32.224,12,5.492,5.492,0,0,0,37.716,6.5Zm-9.327,0a3.835,3.835,0,1,1,3.835,3.835A3.835,3.835,0,0,1,28.389,6.5Zm7.152,6.772H28.907a4.824,4.824,0,0,0-4.819,4.819v3.829H21.51a2.94,2.94,0,0,0,0,5.879h1.8v6.516a.828.828,0,0,0,1.657,0V27.8H39.476v6.516a.828.828,0,0,0,1.657,0V27.8h1.8a2.94,2.94,0,0,0,0-5.879H40.359V18.094a4.824,4.824,0,0,0-4.819-4.819Zm-9.8,4.819a3.165,3.165,0,0,1,3.162-3.162H35.54A3.165,3.165,0,0,1,38.7,18.094v3.829H25.745ZM44.22,24.863a1.284,1.284,0,0,1-1.282,1.282H21.509a1.282,1.282,0,1,1,0-2.565c30.62,0-8.9,0,21.428,0a1.284,1.284,0,0,1,1.282,1.283ZM15.4,33.451a4.778,4.778,0,1,0,4.779,4.778A4.778,4.778,0,0,0,15.4,33.451Zm0,7.9a3.121,3.121,0,1,1,3.122-3.121A3.121,3.121,0,0,1,15.4,41.351Zm4.355,12.686A3.386,3.386,0,0,0,22.7,48.965a8.448,8.448,0,0,0-14.605,0,3.387,3.387,0,0,0,2.944,5.072ZM9.53,49.8a6.79,6.79,0,0,1,11.741,0,1.73,1.73,0,0,1-1.512,2.581H11.041A1.729,1.729,0,0,1,9.53,49.8Z" fill="#1b8354"/>
    <path id="Path_46535" data-name="Path 46535" d="M181.985,38.231a4.781,4.781,0,1,0-4.778,4.778,4.781,4.781,0,0,0,4.778-4.778Zm-7.906,0a3.124,3.124,0,1,1,3.128,3.121,3.124,3.124,0,0,1-3.128-3.121ZM169.9,48.965a3.387,3.387,0,0,0,2.944,5.073h8.717a3.387,3.387,0,0,0,2.944-5.071,8.448,8.448,0,0,0-14.606,0Zm7.31-2.543a6.809,6.809,0,0,1,5.863,3.378,1.73,1.73,0,0,1-1.512,2.581h-8.717a1.73,1.73,0,0,1-1.511-2.582A6.826,6.826,0,0,1,177.212,46.421Zm16.819-3.413a4.778,4.778,0,1,0-4.786-4.778,4.778,4.778,0,0,0,4.786,4.778Zm0-7.9a3.121,3.121,0,1,1-3.129,3.122,3.121,3.121,0,0,1,3.129-3.122Zm0,9.655a8.489,8.489,0,0,0-7.31,4.2,3.386,3.386,0,0,0,2.943,5.073h8.718a3.386,3.386,0,0,0,2.944-5.071,8.471,8.471,0,0,0-7.294-4.2Zm4.351,7.616h-8.718a1.73,1.73,0,0,1-1.511-2.582,6.79,6.79,0,0,1,11.74,0A1.73,1.73,0,0,1,198.387,52.381Zm2.363-51.369H192.04a3.521,3.521,0,0,0-3.517,3.517V6.122l-3.941,3.425A.829.829,0,0,0,185.126,11h15.623a3.521,3.521,0,0,0,3.517-3.517V4.529a3.521,3.521,0,0,0-3.517-3.517Zm1.86,6.472a1.862,1.862,0,0,1-1.86,1.86H187.342L189.9,7.126a.832.832,0,0,0,.285-.625V4.529a1.862,1.862,0,0,1,1.86-1.86h8.709a1.862,1.862,0,0,1,1.86,1.86Z" transform="translate(-144.981 -0.001)" fill="#1b8354"/>
    <path id="Path_46536" data-name="Path 46536" d="M405.7,41.079h-4.152a.828.828,0,0,0,0,1.657H405.7a.828.828,0,0,0,0-1.657Z" transform="translate(-352.208 -35.902)" fill="#1b8354"/>
  </g>
</svg>
