<svg xmlns="http://www.w3.org/2000/svg" xmlns:xlink="http://www.w3.org/1999/xlink" width="50" height="50" viewBox="0 0 50 50">
  <defs>
    <clipPath id="clip-path">
      <rect id="Rectangle_2399" data-name="Rectangle 2399" width="50" height="50" transform="translate(0.409 0.409)" fill="none"/>
    </clipPath>
  </defs>
  <g id="icon06" transform="translate(-0.409 -0.409)" clip-path="url(#clip-path)">
    <g id="Group_17632" data-name="Group 17632" transform="translate(0.001 0.009)">
      <path id="Path_46381" data-name="Path 46381" d="M51.291,7.918h-5c.086-5.287-7.918-4.9-7.846.193h-5c-.054-5.274-7.79-5.292-7.846,0H20.587a3.92,3.92,0,0,0-7.836-.193H7.742a3.63,3.63,0,0,0-3.634,3.619V51.309a3.63,3.63,0,0,0,3.634,3.619H51.291a3.63,3.63,0,0,0,3.634-3.619V11.537a3.63,3.63,0,0,0-3.634-3.619ZM5.929,18.728H53.106V41.17h-3.63a3.63,3.63,0,0,0-3.63,3.62V48.4H5.929ZM47.667,44.79a1.809,1.809,0,0,1,1.808-1.806h2.338l-4.148,4.134ZM7.739,9.734h5a3.942,3.942,0,0,0,3.92,4.193.907.907,0,1,0,0-1.815,2.1,2.1,0,0,1-2.1-2.093v-2a2.1,2.1,0,1,1,4.2.094h-2.1a.907.907,0,0,0,0,1.815h8.93a3.92,3.92,0,0,0,3.92,4,.907.907,0,1,0,0-1.815,2.1,2.1,0,0,1-2.1-2.094v-2a2.105,2.105,0,0,1,4.207.093H29.511a.907.907,0,1,0,0,1.815h8.93a3.92,3.92,0,0,0,3.92,4,.907.907,0,0,0,0-1.815,2.1,2.1,0,0,1-2.1-2.094v-2c-.058-2.635,4.394-2.913,4.2-.1h-2.1a.907.907,0,0,0,0,1.815h8.926a1.809,1.809,0,0,1,1.815,1.8v5.376H5.929V11.536a1.809,1.809,0,0,1,1.815-1.8ZM51.291,53.113H7.74a1.809,1.809,0,0,1-1.815-1.8V50.216h40.83a.925.925,0,0,0,.645-.267l5.705-5.68v7.042a1.809,1.809,0,0,1-1.815,1.8Z" transform="translate(-4.108 -4.118)" fill="#1b8354"/>
      <path id="Path_46382" data-name="Path 46382" d="M49.466,29.815l-15.42-5.932a1.419,1.419,0,0,0-.985,0L17.64,29.814a.765.765,0,0,0-.536.638v7.182H16.029c-.568,0-1.029.325-1.029.726s.461.726,1.029.726h4.206c.568,0,1.029-.325,1.029-.726s-.461-.726-1.029-.726H19.162V31.675l4.4,1.694v6.593c0,.624.566,1.178,1.4,1.379a37.412,37.412,0,0,0,17.167,0c.837-.2,1.4-.754,1.4-1.379V33.37l5.93-2.28a.648.648,0,0,0,0-1.275ZM41.475,39.964a34.543,34.543,0,0,1-15.85,0v-5.8l7.436,2.86a1.415,1.415,0,0,0,.985,0l7.433-2.859Zm-7.923-4.4L22.169,31.18H33.552c.568,0,1.029-.325,1.029-.726s-.461-.726-1.029-.726H22.17l11.383-4.379,13.272,5.105Z" transform="translate(-7.093 -2.94)" fill="#1b8354"/>
    </g>
  </g>
</svg>
