<svg xmlns="http://www.w3.org/2000/svg" width="51.802" height="54.217" viewBox="0 0 51.802 54.217">
  <g id="icon02" transform="translate(-11.447 -0.001)">
    <path id="Path_47365" data-name="Path 47365" d="M141.336,223.31h4.549a.794.794,0,1,0,0-1.588h-4.549a.794.794,0,1,0,0,1.588Zm0,3.849h18.475a.794.794,0,1,0,0-1.588H141.336a.794.794,0,0,0,0,1.588Zm18.475,2.261h-4.925a.794.794,0,1,0,0,1.588h4.925a.794.794,0,1,0,0-1.588Z" transform="translate(-115.424 -198.243)" fill="#1b8354"/>
    <path id="Path_47366" data-name="Path 47366" d="M62.217,5.332,51.937.195a1.862,1.862,0,0,0-1.657,0L40,5.332h0A1.843,1.843,0,0,0,38.975,6.99V8.468H27.814a.794.794,0,1,0,0,1.588H38.975v2.415a20.234,20.234,0,0,0,.261,3.309H25.913a.794.794,0,0,0,0,1.588H39.575a15.537,15.537,0,0,0,.789,2.261H25.913a.794.794,0,0,0,0,1.588H41.177a15.623,15.623,0,0,0,.917,1.384q.334.449.7.876H33.638a.794.794,0,0,0,0,1.588H44.305a35.426,35.426,0,0,0,5.834,4.292,1.849,1.849,0,0,0,1.938,0l.241-.148V48.5H31.538V47.017a.794.794,0,0,0-1.588,0v5.348a.265.265,0,0,1-.265.265H13.3a.265.265,0,0,1-.265-.265V40.926a.265.265,0,0,1,.265-.265H29.685a.265.265,0,0,1,.265.265v2.385a.794.794,0,0,0,1.588,0V40.926a1.844,1.844,0,0,0-.061-.462h12.91a.794.794,0,1,0,0-1.588h-15.4V36.615h15.4a.794.794,0,1,0,0-1.588H28.953a7.434,7.434,0,0,0-.575-2.261H36.6a.794.794,0,0,0,0-1.588H27.447A7.479,7.479,0,0,0,17.982,29.1V10.056h6.126a.794.794,0,1,0,0-1.588h-6.39a1.325,1.325,0,0,0-1.324,1.324V30.236A7.472,7.472,0,0,0,14,35.72v3.353h-.7a1.855,1.855,0,0,0-1.853,1.853v11.44A1.855,1.855,0,0,0,13.3,54.218H29.685a1.855,1.855,0,0,0,1.853-1.853V50.087H52.583a1.325,1.325,0,0,0,1.324-1.324V28.191A24.2,24.2,0,0,0,60.122,22.6a16.387,16.387,0,0,0,3.119-10.131V6.99a1.843,1.843,0,0,0-1.025-1.658Zm-38,33.74H18.765V35.72a2.728,2.728,0,1,1,5.456,0v3.353ZM15.588,35.72a5.9,5.9,0,0,1,11.809,0v3.353H25.81V35.72a4.317,4.317,0,1,0-8.633,0v3.353H15.588ZM61.653,12.472c0,7.632-3.981,11.6-10.4,15.533a.27.27,0,0,1-.28,0c-6.424-3.931-10.4-7.9-10.4-15.533V6.99a.263.263,0,0,1,.146-.237L50.99,1.615a.266.266,0,0,1,.237,0l10.28,5.138a.263.263,0,0,1,.146.237Z" fill="#1b8354"/>
    <path id="Path_47367" data-name="Path 47367" d="M317.663,52.13a8.037,8.037,0,1,0,7.571,10.735.8.8,0,0,0-1.5-.533,6.452,6.452,0,1,1,.272-3.3.794.794,0,0,0,1.564-.278,8.022,8.022,0,0,0-7.907-6.624Z" transform="translate(-266.603 -46.609)" fill="#1b8354"/>
    <path id="Path_47368" data-name="Path 47368" d="M358.3,105.538l-3.129,3.129-1.82-1.82a.794.794,0,0,0-1.123,1.123l2.381,2.381a.794.794,0,0,0,1.123,0l3.691-3.691a.794.794,0,1,0-1.123-1.123Z" transform="translate(-304.489 -94.154)" fill="#1b8354"/>
  </g>
</svg>
