<svg xmlns="http://www.w3.org/2000/svg" width="48" height="55.409" viewBox="0 0 48 55.409">
  <g id="icon05" transform="translate(-8 -4.001)">
    <path id="Path_47361" data-name="Path 47361" d="M13,23h4a1,1,0,0,0,1-1V19.67a3,3,0,0,0-2-2.84V15.05l4.64,1.55-1.58,4.75a1,1,0,0,0,.78,1.3l12,2h.33l12-2a1,1,0,0,0,.78-1.3L43.36,16.6l8-2.65a1,1,0,0,0,.07-1.87l-19-8a1,1,0,0,0-.78,0l-19,8a1,1,0,0,0,.07,1.87l1.32.44v2.44a3,3,0,0,0-2,2.84V22A1,1,0,0,0,13,23Zm19-.35L21.32,20.87l1.54-4.63c.68-.55,3.55-2.57,9.14-2.57s8.46,2,9.14,2.57l1.54,4.63ZM32,6.09,48.16,12.9l-5.48,1.83a.94.94,0,0,0-.15.09c-.75-.66-4-3.14-10.53-3.14s-9.78,2.48-10.53,3.14a.94.94,0,0,0-.15-.08l-5.48-1.83ZM14,19.68a.92.92,0,0,1,1-1,.92.92,0,0,1,1,1V21H14ZM52.93,29.95V28.61A2.62,2.62,0,0,0,50.24,26,49.56,49.56,0,0,0,32,29.71,49.56,49.56,0,0,0,13.76,26a2.55,2.55,0,0,0-1.9.74,2.59,2.59,0,0,0-.79,1.87v1.34A4.06,4.06,0,0,0,8,33.88V55.34a4.07,4.07,0,0,0,4.07,4.07H51.93A4.07,4.07,0,0,0,56,55.34V33.88a4.06,4.06,0,0,0-3.07-3.93ZM50.29,28a.63.63,0,0,1,.45.18.6.6,0,0,1,.19.44V53a.61.61,0,0,1-.59.61A51.54,51.54,0,0,0,33,56.89V31.46A48.81,48.81,0,0,1,50.29,28Zm-37.23.61a.6.6,0,0,1,.19-.44.62.62,0,0,1,.44-.18A48.81,48.81,0,0,1,31,31.46V56.89A51.54,51.54,0,0,0,13.65,53.6a.61.61,0,0,1-.59-.61ZM10,55.34V33.88a2.06,2.06,0,0,1,1.07-1.8V53a2.59,2.59,0,0,0,2.53,2.6,53.16,53.16,0,0,1,12.55,1.81H12.07A2.07,2.07,0,0,1,10,55.34Zm44,0a2.07,2.07,0,0,1-2.07,2.07H37.83A53.15,53.15,0,0,1,50.4,55.6,2.59,2.59,0,0,0,52.93,53V32.08A2.06,2.06,0,0,1,54,33.88Z" fill="#1b8354"/>
    <path id="Path_47362" data-name="Path 47362" d="M15.83,32.6c1,.07,2,.16,3,.28H19a1,1,0,0,0,.12-2c-1-.13-2.09-.22-3.12-.29a1,1,0,0,0-.13,2Zm-.93,2.1a1,1,0,0,0,.93,1.06,54.888,54.888,0,0,1,5.56.65h.17a1,1,0,1,0,.17-2A56.791,56.791,0,0,0,16,33.77a1,1,0,0,0-1.1.93Zm0,5.37a1,1,0,0,0,.93,1.06,51.549,51.549,0,0,1,12,2.2,1,1,0,0,0,.3,0,1.011,1.011,0,1,0,.3-2A53.55,53.55,0,0,0,16,39.14a1,1,0,0,0-1.1.93Zm13.56,5.09A53.569,53.569,0,0,0,16,42.87a1,1,0,1,0-.13,2,51.581,51.581,0,0,1,12,2.2,1,1,0,0,0,.3,0,1.011,1.011,0,1,0,.3-2Zm0,3.84A53.55,53.55,0,0,0,16,46.76a1,1,0,1,0-.13,2,51.55,51.55,0,0,1,12,2.2,1,1,0,0,0,.3,0,1.011,1.011,0,1,0,.3-2Zm7.37-5.62a1,1,0,0,0,.3,0,51.54,51.54,0,0,1,12-2.2,1,1,0,1,0-.13-2,53.531,53.531,0,0,0-12.5,2.29,1.011,1.011,0,1,0,.3,2Zm0,3.73a1,1,0,0,0,.3,0,51.569,51.569,0,0,1,12-2.2A1.022,1.022,0,1,0,48,42.87a53.56,53.56,0,0,0-12.5,2.29,1.011,1.011,0,1,0,.3,2Zm0,3.89a1,1,0,0,0,.3,0,51.541,51.541,0,0,1,12-2.2,1,1,0,1,0-.13-2A53.531,53.531,0,0,0,35.53,49a1.011,1.011,0,0,0,.3,2Z" fill="#1b8354"/>
  </g>
</svg>
