<svg xmlns="http://www.w3.org/2000/svg" width="54.572" height="60.219" viewBox="0 0 54.572 60.219">
  <g id="icon01" transform="translate(-3.001 0)">
    <g id="Go_Green" data-name="Go Green" transform="translate(3)">
      <path id="Path_47369" data-name="Path 47369" d="M56.323,34.251a4.267,4.267,0,0,0-6.035,0l-7.3,7.3A3.751,3.751,0,0,0,39.7,39.586H29.011a10.367,10.367,0,0,0-15.323-.727l-4.1,4.1L8.37,41.744a.941.941,0,0,0-1.33,0L3.276,45.508a.941.941,0,0,0,0,1.33L18.33,61.893a.941.941,0,0,0,1.33,0l3.764-3.764a.941.941,0,0,0,0-1.33l-1.217-1.217,1.056-1.056a2.843,2.843,0,0,1,2-.826H39.011a9.346,9.346,0,0,0,6.653-2.757L56.323,40.286A4.267,4.267,0,0,0,56.323,34.251ZM19,59.9,5.271,46.173,7.7,43.74,21.429,57.464ZM55,38.958,44.335,49.614a7.478,7.478,0,0,1-5.324,2.2H25.259A4.674,4.674,0,0,0,21.933,53.2l-1.056,1.056-9.961-9.961,4.1-4.1a8.485,8.485,0,0,1,12.655.738l.145.183a.941.941,0,0,0,.739.358H39.7a1.882,1.882,0,1,1,0,3.764H26.523a.941.941,0,0,0,0,1.882H39.7a3.756,3.756,0,0,0,3.719-3.331l8.2-8.2a2.443,2.443,0,0,1,3.374,0,2.386,2.386,0,0,1,0,3.374Z" transform="translate(-3 -1.949)" fill="#1b8354"/>
      <path id="Path_47370" data-name="Path 47370" d="M19.464,19.174c-.013.019-.033.028-.045.048s0,.011-.006.016A20.591,20.591,0,0,0,15,31.991c0,.154,0,.307.011.461a.941.941,0,0,0,.938.875h.066a.941.941,0,0,0,.873-1c-.007-.111-.007-.22-.007-.33a18.687,18.687,0,0,1,3.58-11c2.666,1.732,4.223,3.409,4.287,4.661a7.639,7.639,0,0,1-1.1,3.357q-.444.9-.836,1.819a.941.941,0,1,0,1.737.723c.254-.61.531-1.18.793-1.722a8.969,8.969,0,0,0,1.282-4.277c-.1-1.9-1.782-3.927-4.977-6.039A18.925,18.925,0,0,1,26.7,15.471c1.832,3.572,4.038,5.456,6.445,5.456a4.686,4.686,0,0,0,.524-.029,7.943,7.943,0,0,0,4.55-1.8c.828-.64,1.171-.9,3.07-.242,1.775.618,3.644-.156,5.338-2.166a18.835,18.835,0,0,1,3.884,3.729,13.018,13.018,0,0,0-2.626,4.168c-.8,1.752-1.346,2.832-2.343,2.925A14.676,14.676,0,0,1,43.6,27.5c-2.482-.122-5.57-.267-7.776,4.069a10.009,10.009,0,0,0-1,3.115.941.941,0,0,0,.8,1.063.913.913,0,0,0,.132.008.941.941,0,0,0,.932-.81,8.026,8.026,0,0,1,.809-2.526c1.652-3.249,3.576-3.153,6.008-3.04a16.106,16.106,0,0,0,2.209,0c2.134-.2,3.022-2.141,3.88-4.016a12.334,12.334,0,0,1,2.017-3.389A18.657,18.657,0,0,1,54.18,28.5a.941.941,0,1,0,1.85-.345,20.682,20.682,0,0,0-19.4-16.818v-1.04a2.811,2.811,0,0,1,1.581-2.526,5.579,5.579,0,0,0,4.231,1.946,6.741,6.741,0,0,0,2.235-.4,14.193,14.193,0,0,0,3.384-1.723,3.275,3.275,0,0,1,3.39-.609.941.941,0,0,0,.974-1.494c-.2-.257-4.993-6.257-9.6-5.4-4.452.83-4.973,3.529-5.19,5.871A4.686,4.686,0,0,0,35.7,7.486a4.686,4.686,0,0,0-1.94-1.53c-.217-2.341-.738-5.04-5.19-5.871-4.612-.863-9.4,5.144-9.6,5.4a.941.941,0,0,0,.974,1.493,3.274,3.274,0,0,1,3.39.609A14.193,14.193,0,0,0,26.713,9.31a6.728,6.728,0,0,0,2.235.4,5.58,5.58,0,0,0,4.231-1.946,2.811,2.811,0,0,1,1.581,2.527v1.022a20.634,20.634,0,0,0-15.3,7.86ZM43.175,1.935c2.062-.388,4.526,1.4,6.2,3.005A5.764,5.764,0,0,0,47.04,6.013a12.381,12.381,0,0,1-2.975,1.521,3.842,3.842,0,0,1-3.986-.561l2.487-1.044A.941.941,0,1,0,41.838,4.2l-2.2.925c.262-1.609.922-2.7,3.541-3.184Zm-15.84,5.6a12.381,12.381,0,0,1-2.975-1.52A5.755,5.755,0,0,0,22.019,4.94c1.675-1.6,4.133-3.391,6.207-3,2.619.488,3.279,1.575,3.541,3.184l-2.2-.925a.941.941,0,1,0-.728,1.735l2.487,1.044a3.846,3.846,0,0,1-3.986.56Zm14.584,9.54c-2.663-.93-3.647-.394-4.843.53a6.139,6.139,0,0,1-3.607,1.418c-2.23.255-4.023-2.33-5.079-4.371a18.819,18.819,0,0,1,16.654,1.006c-.816.917-1.967,1.822-3.127,1.417Z" transform="translate(-3.709)" fill="#1b8354"/>
    </g>
  </g>
</svg>
