<svg xmlns="http://www.w3.org/2000/svg" width="36.489" height="51.519" viewBox="0 0 36.489 51.519">
  <g id="icon03" transform="translate(-11 -1.7)">
    <path id="Path_47363" data-name="Path 47363" d="M42.276,9.78V1.7L11,9.979v43.24H47.489V9.78Zm-1.738,0h-22l22-5.821Zm5.213,41.7H12.738V11.517H45.751Z" fill="#1b8354"/>
    <path id="Path_47364" data-name="Path 47364" d="M19,43.195H41.588v1.738H19Zm0,5.213H41.588v1.738H19Zm18.939-29a3.928,3.928,0,0,0-6.716,1.19l-.93,2.615-.93-2.624a3.938,3.938,0,1,0-6.238,4.361H19V31.9h1.738v7.819H39.851V31.9h1.738V24.95H37.453a3.946,3.946,0,0,0,.487-5.543Zm-5.082,1.781a2.134,2.134,0,0,1,.652-.93,2.2,2.2,0,1,1,2.832,3.371,2.274,2.274,0,0,1-1.025.478l-3.7.617Zm-8.87-.669a2.2,2.2,0,0,1,3.753.66l1.251,3.545-3.7-.617a2.263,2.263,0,0,1-1.034-.478,2.214,2.214,0,0,1-.27-3.111Zm-3.249,6.168h6.95v3.475h-6.95Zm6.95,11.294H22.475V31.9h5.213Zm3.475,0H29.425V26.688h1.738Zm6.95,0H32.9V31.9h5.213Zm1.738-7.819H32.9V26.688h6.95Z" transform="translate(-1.05 -2.139)" fill="#1b8354"/>
  </g>
</svg>
