<svg xmlns="http://www.w3.org/2000/svg" width="24" height="22" viewBox="0 0 24 22">
  <g id="Group_1886" data-name="Group 1886" transform="translate(0 -1)">
    <path id="Path_22432" data-name="Path 22432" d="M14,10a4.964,4.964,0,0,1-.832,2.754L10.293,9.879A1,1,0,0,1,10,9.172V5.1A5,5,0,0,1,14,10ZM8,9.586V5.1a5,5,0,1,0,3.754,9.068L8.585,11A2,2,0,0,1,8,9.586ZM19,5H17a1,1,0,0,0,0,2h2a1,1,0,0,0,0-2Zm0,4H17a1,1,0,0,0,0,2h2a1,1,0,0,0,0-2Zm0,4H17a1,1,0,0,0,0,2h2a1,1,0,0,0,0-2Zm5-7v8a5.006,5.006,0,0,1-5,5H13v2h4a1,1,0,0,1,0,2H7a1,1,0,0,1,0-2h4V19H5a5.006,5.006,0,0,1-5-5V6A5.006,5.006,0,0,1,5,1H19A5.006,5.006,0,0,1,24,6ZM22,6a3,3,0,0,0-3-3H5A3,3,0,0,0,2,6v8a3,3,0,0,0,3,3H19a3,3,0,0,0,3-3Z" fill="#1b8354"/>
  </g>
</svg>
