<svg id="Group_1878" data-name="Group 1878" xmlns="http://www.w3.org/2000/svg" width="24" height="24" viewBox="0 0 24 24">
  <path id="Path_22418" data-name="Path 22418" d="M23.33,17.5A5.017,5.017,0,0,1,19,20H13v2h4a1,1,0,0,1,0,2H7a1,1,0,0,1,0-2h4V20H5a5.006,5.006,0,0,1-5-5V7A5.006,5.006,0,0,1,5,2h7a1,1,0,0,1,0,2H5A3,3,0,0,0,2,7v8a3,3,0,0,0,3,3H19a3.015,3.015,0,0,0,2.6-1.5,1,1,0,1,1,1.73,1ZM4.069,14.8a1,1,0,0,0,1.961.4,1.5,1.5,0,0,1,2.94,0,1,1,0,0,0,1.961-.4,3.5,3.5,0,0,0-6.862,0ZM9.5,9a2,2,0,1,0-2,1.955A2,2,0,0,0,9.5,9ZM24,7.5v3A3.5,3.5,0,0,1,20.5,14h-4A3.5,3.5,0,0,1,13,10.5v-3a3.5,3.5,0,0,1,2-3.149V3.5a3.5,3.5,0,0,1,7,0v.851A3.5,3.5,0,0,1,24,7.5Zm-7-4V4h3V3.5a1.5,1.5,0,0,0-3,0Zm5,4A1.5,1.5,0,0,0,20.5,6h-4A1.5,1.5,0,0,0,15,7.5v3A1.5,1.5,0,0,0,16.5,12h4A1.5,1.5,0,0,0,22,10.5Zm-3.5,0A1.5,1.5,0,1,0,20,9,1.5,1.5,0,0,0,18.5,7.5Z" fill="#1b8354"/>
</svg>
