<svg id="Group_1887" data-name="Group 1887" xmlns="http://www.w3.org/2000/svg" width="24" height="24" viewBox="0 0 24 24">
  <path id="Path_22433" data-name="Path 22433" d="M19,2H7.463A4,4,0,0,0,0,4V19a5.006,5.006,0,0,0,5,5H19a5.006,5.006,0,0,0,5-5V7A5.006,5.006,0,0,0,19,2Zm2.828,4H17a1,1,0,0,1-1-1V4h3A3,3,0,0,1,21.828,6ZM2,4A2,2,0,0,1,6,4V16a2,2,0,0,1-4,0ZM19,22H5a3,3,0,0,1-2.96-2.514A4,4,0,0,0,8,16V4h6V5a3,3,0,0,0,3,3h5V19A3,3,0,0,1,19,22ZM16,11a1,1,0,1,1-1-1A1,1,0,0,1,16,11Zm-4,0a1,1,0,1,1-1-1A1,1,0,0,1,12,11Zm8,0a1,1,0,1,1-1-1A1,1,0,0,1,20,11Zm-4,4a1,1,0,1,1-1-1A1,1,0,0,1,16,15Zm-4,0a1,1,0,1,1-1-1A1,1,0,0,1,12,15Zm8,0a1,1,0,1,1-1-1A1,1,0,0,1,20,15Zm-4,4a1,1,0,1,1-1-1A1,1,0,0,1,16,19Zm-4,0a1,1,0,1,1-1-1A1,1,0,0,1,12,19Zm8,0a1,1,0,1,1-1-1A1,1,0,0,1,20,19Z" fill="#1b8354"/>
</svg>
