<?xml version="1.0" encoding="UTF-8"?>
<svg width="184px" height="123px" viewBox="0 0 184 123" version="1.1" xmlns="http://www.w3.org/2000/svg" xmlns:xlink="http://www.w3.org/1999/xlink">
    <title>2030-vision</title>
    <g id="رمضان-١٤٤٥" stroke="none" stroke-width="1" fill="none" fill-rule="evenodd">
        <g id="2030-vision" fill="#FFFFFF" fill-rule="nonzero">
            <path d="M158.996236,36.5461546 C144.44038,36.5461546 133.857856,47.4536166 133.857856,60.7719972 L133.857856,60.9059371 C133.857856,74.2243176 144.303593,85 158.86162,85 C173.419647,85 184,74.0903777 184,60.7719972 L184,60.6380572 C184,47.321837 173.552092,36.5461546 158.996236,36.5461546 L158.996236,36.5461546 Z M173.150416,60.9059371 C173.150416,68.9380115 167.35326,75.4967468 158.996236,75.4967468 C150.639212,75.4967468 144.709611,68.8040716 144.709611,60.7719972 L144.709611,60.6380572 C144.709611,52.6081431 150.504596,46.0494078 158.86162,46.0494078 C167.218644,46.0494078 173.150416,52.7420831 173.150416,60.7719972 L173.150416,60.9059371 Z M17.3502154,75.2958369 L35.336598,75.2958369 L35.336598,84.1963605 L0.42773025,84.1963605 L0.42773025,76.0325065 L16.12999,63.2498856 C21.994454,58.4302089 24.2850906,55.8875108 24.2850906,52.0054135 C24.2850906,48.0585066 21.6557437,45.9154679 17.9494719,45.9154679 C14.310508,45.9154679 11.8157767,47.9224063 8.31359962,52.2063234 L1.03567172,46.3842576 C5.68425276,40.0934021 10.2003894,36.6800945 18.6247212,36.6800945 C28.3952092,36.6800945 34.8654434,42.3682204 34.8654434,51.134804 L34.8654434,51.268744 C34.8654434,59.0999085 30.8226326,62.9798455 22.4656086,69.4046409 L12.1566582,77.3092563 L10.1526226,78.8452448 L17.3502154,75.2958369 Z M147.282506,29.8210746 L149.351679,29.8210746 L149.351679,27.7666091 L147.282506,27.7666091 L147.282506,29.8210746 Z M151.420851,29.8210746 L153.490023,29.8210746 L153.490023,27.7666091 L151.420851,27.7666091 L151.420851,29.8210746 Z M21.6275178,25.5976465 L23.8204496,25.5976465 L23.8204496,6.30381741 L21.6275178,6.30381741 L21.6275178,25.5976465 Z M41.7568942,20.3610278 L41.7568942,20.4150358 C41.7568942,23.7203274 38.9820756,25.8720073 35.1238185,25.8720073 C32.042858,25.8720073 29.5199009,24.8523357 27.1880111,22.7849082 L28.5471945,21.1884308 C30.5729424,23.005261 32.5161838,23.9147563 35.2084961,23.9147563 C37.8161307,23.9147563 39.5379078,22.5386316 39.5379078,20.6353886 L39.5379078,20.5813806 C39.5379078,18.7883139 38.5673727,17.7708026 34.48548,16.9153154 C30.0171102,15.9496518 27.9653077,14.5173588 27.9653077,11.3460072 L27.9653077,11.2941595 C27.9653077,8.26106847 30.6576199,6.02945662 34.3486931,6.02945662 C37.1777922,6.02945662 39.2057113,6.82877548 41.1750074,8.39932903 L39.8983303,10.080059 C38.0940468,8.6196818 36.2897634,7.98670767 34.2922414,7.98670767 C31.7671131,7.98670767 30.1560682,9.36283231 30.1560682,11.0997306 L30.1560682,11.1558989 C30.1560682,12.9727291 31.1548292,13.9945611 35.4299605,14.901896 C39.7593722,15.8416357 41.7568942,17.4121893 41.7568942,20.3610278 L41.7568942,20.3610278 Z M61.2848428,5.97328826 C55.372612,5.97328826 51.3493421,10.6309409 51.3493421,15.9518121 L51.3493421,16.0058202 C51.3493421,21.3245311 55.3183315,25.9281757 61.2305623,25.9281757 C67.1406219,25.9281757 71.1660629,21.2705231 71.1660629,15.9518121 L71.1660629,15.8934835 C71.1660629,10.5769329 67.1970736,5.97328826 61.2848428,5.97328826 L61.2848428,5.97328826 Z M68.8906248,16.0058202 C68.8906248,20.389112 65.7249867,23.9147563 61.2848428,23.9147563 C56.8446988,23.9147563 53.6247802,20.3329436 53.6247802,15.9518121 L53.6247802,15.8934835 C53.6247802,11.5145123 56.7904183,7.98670767 61.2305623,7.98670767 C65.6707062,7.98670767 68.8906248,11.5685203 68.8906248,15.9518121 L68.8906248,16.0058202 Z M45.374146,25.5976465 L47.5649065,25.5976465 L47.5649065,6.30381741 L45.374146,6.30381741 L45.374146,25.5976465 Z M8.35485279,25.7359071 L0,6.30381741 L2.44262198,6.30381741 L3.63679273,9.17704468 L9.35361378,22.9231688 L9.90076111,24.2388045 L9.68798159,22.1195293 L16.2906602,6.30381741 L18.6507759,6.30381741 L10.2980943,25.7359071 L8.35485279,25.7359071 Z M89.0460558,6.30381741 L91.1825358,6.30381741 L91.1825358,25.5976465 L89.4347041,25.5976465 L75.6735147,8.2437859 L76.8915688,11.0565242 L76.8915688,25.5976465 L74.7529176,25.5976465 L74.7529176,6.30381741 L76.8068913,6.30381741 L89.9471119,22.9037259 L89.0460558,20.5338535 L89.0460558,6.30381741 Z M108.391622,4.27095512 L110.462965,4.27095512 L110.462965,2.21648961 L108.391622,2.21648961 L108.391622,4.27095512 Z M160.136126,18.6414121 C160.922107,19.198775 161.829677,19.609236 162.865349,19.8749555 C163.898849,20.140675 164.993144,20.2724546 166.148233,20.2724546 L166.69538,20.2724546 L167.390171,18.8228791 L167.390171,20.8622223 C167.390171,21.9402226 167.079686,22.7114573 166.460889,23.1759264 C165.837749,23.6360748 164.96709,23.8672292 163.84674,23.8672292 C163.208402,23.8672292 162.6352,23.8089005 162.127134,23.6879225 C161.619069,23.5691049 161.037182,23.361714 160.381474,23.072231 L159.73445,25.0489249 C160.529117,25.3405683 161.230421,25.5587607 161.842705,25.7035023 C162.454988,25.8482438 163.071615,25.9216947 163.692584,25.9216947 C165.709647,25.9216947 167.17522,25.446424 168.089303,24.498043 C169.001215,23.5453413 169.459343,22.2664311 169.459343,20.6591521 L169.459343,6.32542063 L166.148233,6.32542063 C164.873727,6.32542063 163.709953,6.50688761 162.659083,6.86550094 C161.606042,7.22627459 160.704986,7.71666751 159.953744,8.34100036 C159.206844,8.96749352 158.622786,9.71280435 158.208083,10.5769329 C157.795551,11.4410614 157.589286,12.3786408 157.589286,13.3896711 C157.589286,14.605932 157.817264,15.6450465 158.27322,16.509175 C158.731347,17.3733035 159.352316,18.0862095 160.136126,18.6414121 L160.136126,18.6414121 Z M160.136126,11.3589691 C160.455295,10.7432776 160.878683,10.2183195 161.404118,9.77977431 C161.929553,9.34338942 162.52881,9.0063793 163.201888,8.76658364 C163.853254,8.53326895 164.528503,8.4166116 165.229807,8.41013064 L165.229807,8.40580999 L168.573485,8.40580999 L167.390171,8.99125705 L167.390171,18.2179891 L165.294944,18.2179891 C164.519818,18.2179891 163.790289,18.1099731 163.110697,17.8961013 C162.428934,17.6843898 161.829677,17.3711432 161.312927,16.9585218 C160.796177,16.5480608 160.390159,16.0425456 160.097044,15.4441366 C159.803929,14.8435673 159.658458,14.1609058 159.658458,13.3896711 C159.658458,12.6530016 159.816957,11.976821 160.136126,11.3589691 L160.136126,11.3589691 Z M112.532138,4.27095512 L114.60131,4.27095512 L114.60131,2.21648961 L112.532138,2.21648961 L112.532138,4.27095512 Z M174.698495,25.9216947 C174.147006,25.9216947 173.586831,25.8460835 173.017972,25.6905403 L173.560776,23.7138464 C173.801782,23.7808163 173.992849,23.8240228 174.129636,23.8413053 C174.268594,23.8585879 174.431435,23.8672292 174.620332,23.8672292 C175.017665,23.8672292 175.341176,23.8110608 175.590867,23.7008845 C175.840557,23.5885478 176.040309,23.4092411 176.185781,23.1608041 C176.331253,22.9123672 176.435471,22.5861587 176.496265,22.1864993 C176.554888,21.7846795 176.587456,21.2899659 176.587456,20.7088395 L176.587456,6.32542063 L178.656629,6.32542063 L178.656629,20.7088395 C178.656629,21.5146394 178.591492,22.2361867 178.461219,22.8799624 C178.330946,23.5215778 178.111653,24.0681391 177.803339,24.5239669 C177.492855,24.9776343 177.082495,25.3232857 176.574429,25.5630814 C176.064193,25.802877 175.438881,25.9216947 174.698495,25.9216947 L174.698495,25.9216947 Z M169.459343,4.27095512 L164.925836,4.27095512 L164.925836,2.5923855 C164.925836,1.69153154 165.140787,1.02399227 165.559832,0.615691557 C165.978878,0.20739084 166.593333,0 167.385828,0 L168.844888,0 L168.844888,1.43013267 L167.422739,1.43013267 C167.101398,1.43013267 166.877763,1.49278199 166.7844,1.60943933 C166.675839,1.74769989 166.619388,1.94860977 166.619388,2.21000864 L166.619388,2.68743964 L169.459343,2.68743964 L169.459343,4.27095512 Z M108.956139,25.6365323 L113.257325,25.6365323 L113.257325,24.0983836 C113.298578,24.1696742 113.339831,24.2452854 113.385427,24.3122554 C113.695911,24.7659228 114.104101,25.1137346 114.614337,25.3535302 C115.122403,25.5933259 115.747714,25.7121435 116.4881,25.7121435 L154.213039,25.7121435 L154.213039,6.32542063 L152.143867,6.32542063 L152.143867,23.657678 L149.99436,23.657678 L116.566263,23.657678 C116.16893,23.657678 115.845419,23.6015097 115.595728,23.4913333 C115.346038,23.3789966 115.148457,23.1996899 115.000814,22.9534133 C114.855342,22.702816 114.753295,22.3766075 114.69033,21.9747878 C114.629536,21.572968 114.60131,21.0804148 114.60131,20.4992884 L114.60131,6.32542063 L109.010419,6.32542063 C103.289256,6.32542063 99.3940881,10.8340111 99.3940881,15.9820566 L99.3940881,16.0339043 C99.3940881,21.1819499 103.234976,25.6365323 108.956139,25.6365323 L108.956139,25.6365323 Z M101.597876,15.9280486 C101.597876,11.687338 104.659296,8.2740304 108.956139,8.2740304 L113.80013,8.2740304 L112.532138,8.90052356 L112.532138,20.4992884 C112.532138,21.3029279 112.595103,22.0266355 112.725376,22.6682509 C112.801369,23.0441468 112.90993,23.3811569 113.046717,23.6900829 L109.010419,23.6900829 C104.713576,23.6900829 101.597876,20.2227672 101.597876,15.9820566 L101.597876,15.9280486 Z M131.182913,69.5385808 L131.182913,69.6725207 C131.182913,78.5082346 124.712679,85 114.199634,85 C105.707995,85 99.8457018,81.6536624 95.802891,76.9009556 L102.946203,70.1413104 C106.179149,73.7576882 109.551053,75.7624663 114.33425,75.7624663 C118.242445,75.7624663 121.006407,73.554618 121.006407,70.0765008 L121.006407,69.9425609 C121.006407,66.1274335 117.569367,63.9865552 111.772211,63.9865552 L107.460169,63.9865552 L105.84261,57.4256595 L120.97601,42.3077314 L114.911794,46.1833477 L98.5646823,46.1833477 L98.5646823,37.3497941 L130.440356,37.3497941 L130.440356,45.1118284 L118.511676,56.4232705 C124.914603,57.4947898 131.182913,60.8389671 131.182913,69.5385808 L131.182913,69.5385808 Z" id="Fill-2973"></path>
            <polygon id="Fill-2974" points="63.4478442 33 66 35.4488848 63.5498377 38 61 35.5511152"></polygon>
            <polygon id="Fill-2975" points="69 35.5511152 71.5510204 38 74 35.4488848 71.4489796 33"></polygon>
            <polygon id="Fill-2976" points="65 39.0405728 67.0416915 41 69 38.9594272 66.9583085 37"></polygon>
            <polygon id="Fill-2977" points="72 40.0405728 74.0405244 42 76 39.9594272 73.9594756 38"></polygon>
            <polygon id="Fill-2978" points="62 42.0405728 64.0405244 44 66 41.9594272 63.9594756 40"></polygon>
            <polygon id="Fill-2979" points="69 42.0405728 71.0405244 44 73 41.9594272 70.9594756 40"></polygon>
            <polygon id="Fill-2980" points="66 44.5318066 67.5317528 46 69 44.4707379 67.4682472 43"></polygon>
            <polygon id="Fill-2981" points="71 44.5318066 72.5317528 46 74 44.4707379 72.4707875 43"></polygon>
            <polygon id="Fill-2982" points="82 34.7725419 82.7730561 39 87 38.2251926 86.2269439 34"></polygon>
            <polygon id="Fill-2983" points="77 36.6185102 77.6178129 40 81 39.3792325 80.3821871 36"></polygon>
            <polygon id="Fill-2984" points="83 41.6188594 83.6200676 45 87 44.3811406 86.3821871 41"></polygon>
            <polygon id="Fill-2985" points="79 41.4633793 79.4623734 44 82 43.5344453 81.5332851 41"></polygon>
            <polygon id="Fill-2986" points="83 46.4633793 83.4645441 49 86 48.5344453 85.5354559 46"></polygon>
            <polygon id="Fill-2987" points="75 42.4633793 75.4623734 45 78 44.5366207 77.5354559 42"></polygon>
            <polygon id="Fill-2988" points="79 46.4633793 79.4645441 49 82 48.5344453 81.5354559 46"></polygon>
            <polygon id="Fill-2989" points="76.028 46.33 76.328 47.97 77.972 47.67 77.672 46.03"></polygon>
            <polygon id="Fill-2990" points="80.028 50.33 80.328 51.97 81.972 51.668 81.67 50.03"></polygon>
            <polygon id="Fill-2991" points="94.6127122 49 93 52.3880538 96.3892617 54 98 50.6119462"></polygon>
            <polygon id="Fill-2992" points="89.2893701 47 88 49.7120316 90.7106299 51 92 48.2899408"></polygon>
            <polygon id="Fill-2993" points="91.2893701 54 90 56.7120316 92.7106299 58 94 55.2899408"></polygon>
            <polygon id="Fill-2994" points="86.9665193 52 86 54.0316456 88.0315856 55 89 52.9664557"></polygon>
            <polygon id="Fill-2995" points="88.9665193 59 88 61.0316456 90.0315856 62 91 59.9664557"></polygon>
            <polygon id="Fill-2996" points="83.9665193 51 83 53.0316456 85.0315856 54 86 51.9664557"></polygon>
            <polygon id="Fill-2997" points="85.9665193 56 85 58.0316456 87.0315856 59 88 56.9664557"></polygon>
            <polygon id="Fill-2998" points="82.6451033 54 82 55.3555356 83.3548967 56 84 54.6444644"></polygon>
            <polygon id="Fill-2999" points="83.6433064 59 83 60.3555356 84.3548967 61 85 59.6444644"></polygon>
            <polygon id="Fill-3000" points="95.8737413 66 92 68.1265528 94.1262587 72 98 69.8757764"></polygon>
            <polygon id="Fill-3001" points="92.5828903 62 90 63.4172314 91.4171097 66 94 64.5827686"></polygon>
            <polygon id="Fill-3002" points="90.5835749 69 88 70.4165457 89.4164251 73 92 71.5834543"></polygon>
            <polygon id="Fill-3003" points="88.9373449 65 87 66.0627719 88.0626551 68 90 66.9372281"></polygon>
            <polygon id="Fill-3004" points="85.9380037 71 84 72.0627719 85.0638562 74 87 72.9372281"></polygon>
            <polygon id="Fill-3005" points="85.9373449 62 84 63.0627719 85.0626551 65 87 63.9372281"></polygon>
            <polygon id="Fill-3006" points="84.9373449 67 83 68.0627719 84.0626551 70 86 68.9372281"></polygon>
            <polygon id="Fill-3007" points="83.2921447 64 82 64.7084806 82.7078553 66 84 65.2915194"></polygon>
            <polygon id="Fill-3008" points="81.2921447 69 80 69.7084806 80.7078553 71 82 70.2915194"></polygon>
            <polygon id="Fill-3009" points="87 81.5505671 82.5495283 81 82 85.4494329 86.4504717 86"></polygon>
            <polygon id="Fill-3010" points="87 76.4407778 83.4420929 76 83 79.5592222 86.5602587 80"></polygon>
            <polygon id="Fill-3011" points="81 80.4405183 77.4420929 80 77 83.557126 80.5602587 84"></polygon>
            <polygon id="Fill-3012" points="82 76.3313162 79.3308157 76 79 78.6709531 81.6691843 79"></polygon>
            <polygon id="Fill-3013" points="76 79.3313162 73.3328302 79 73 81.6709531 75.669434 82"></polygon>
            <polygon id="Fill-3014" points="82 72.3313162 79.330566 72 79 74.6686838 81.669434 75"></polygon>
            <polygon id="Fill-3015" points="78 75.3313162 75.3285498 75 75 77.6686838 77.6691843 78"></polygon>
            <polygon id="Fill-3016" points="77.931 72.276 76.273 72.07 76.069 73.726 77.725 73.93"></polygon>
            <polygon id="Fill-3017" points="73.931 75.276 72.273 75.07 72.069 76.726 73.725 76.93"></polygon>
            <polygon id="Fill-3018" points="71 88.8892204 67.8872348 86 65 89.1130175 68.1127652 92"></polygon>
            <polygon id="Fill-3019" points="71 31.8903803 67.8894678 29 65 32.1118568 68.1127652 35"></polygon>
            <polygon id="Fill-3020" points="74 84.4081822 71.4060325 82 69 84.5941423 71.5939675 87"></polygon>
            <polygon id="Fill-3021" points="67 84.4081822 64.4060325 82 62 84.5941423 64.5916473 87"></polygon>
            <polygon id="Fill-3022" points="70 81.9271642 67.9261025 80 66 82.0752239 68.0738975 84"></polygon>
            <polygon id="Fill-3023" points="63 80.9247761 60.9248658 79 59 81.0728358 61.0751342 83"></polygon>
            <polygon id="Fill-3024" points="72 78.9259259 69.9261025 77 68 79.0740741 70.0738975 81"></polygon>
            <polygon id="Fill-3025" points="67 78.9259259 64.9261025 77 63 79.0740741 65.0738975 81"></polygon>
            <polygon id="Fill-3026" points="69 76.4439728 67.4440678 75 66 76.5534805 67.5559322 78"></polygon>
            <polygon id="Fill-3027" points="64 75.4439728 62.4453853 74 61 75.5560272 62.5546147 77"></polygon>
            <polygon id="Fill-3028" points="53 86.1666667 52.1662941 82 48 82.8333333 48.8337059 87"></polygon>
            <polygon id="Fill-3029" points="59 84.33445 58.3333333 81 55 81.6677834 55.6666667 85"></polygon>
            <polygon id="Fill-3030" points="52 79.33445 51.3337047 76 48 76.6677834 48.6685237 80"></polygon>
            <polygon id="Fill-3031" points="57 78.5007174 56.5017895 76 54 76.4992826 54.5003579 79"></polygon>
            <polygon id="Fill-3032" points="61 77.5007174 60.4996421 75 58 75.4992826 58.5003579 78"></polygon>
            <polygon id="Fill-3033" points="56 74.4989247 55.4996421 72 53 72.5010753 53.4982105 75"></polygon>
            <polygon id="Fill-3034" points="58.983 74.653 58.655 73.019 57.017 73.345 57.345 74.981"></polygon>
            <polygon id="Fill-3035" points="55.983 70.653 55.655 69.019 54.017 69.345 54.345 70.981"></polygon>
            <polygon id="Fill-3036" points="41.4352661 72 43 68.5658575 39.5647339 67 38 70.4341425"></polygon>
            <polygon id="Fill-3037" points="46.7485149 74 48 71.2519841 45.2514851 70 44 72.7480159"></polygon>
            <polygon id="Fill-3038" points="43.7485149 67 45 64.2533466 42.2534653 63 41 65.7486366"></polygon>
            <polygon id="Fill-3039" points="48.0616656 69 49 66.9382166 46.9402416 66 46 68.0598726"></polygon>
            <polygon id="Fill-3040" points="51.0616656 75 52 72.9382166 49.9402416 72 49 74.0617834"></polygon>
            <polygon id="Fill-3041" points="46.0616656 62 47 59.9382166 44.9402416 59 44 61.0617834"></polygon>
            <polygon id="Fill-3042" points="51.0616656 70 52 67.9401274 49.9402416 67 49 69.0617834"></polygon>
            <polygon id="Fill-3043" points="49.0597584 65 50 62.9382166 47.9383344 62 47 64.0617834"></polygon>
            <polygon id="Fill-3044" points="52.3743219 67 53 65.625 51.6256781 65 51 66.3731884"></polygon>
            <polygon id="Fill-3045" points="51.3743219 62 52 60.625 50.6256781 60 50 61.375"></polygon>
            <polygon id="Fill-3046" points="39.1797146 55 43 52.8230294 40.8202854 49 37 51.179289"></polygon>
            <polygon id="Fill-3047" points="41.8149038 59 45 57.5491329 43.1826923 55 40 56.4527938"></polygon>
            <polygon id="Fill-3048" points="43.8149038 52 47 50.5491329 45.1826923 48 42 49.4527938"></polygon>
            <polygon id="Fill-3049" points="46.4527486 56 49 54.9109462 47.5472514 53 45 54.0890538"></polygon>
            <polygon id="Fill-3050" points="49.4527486 50 52 48.9102723 50.5472514 47 48 48.0878713"></polygon>
            <polygon id="Fill-3051" points="48.4518519 59 51 57.9109462 49.545679 56 47 57.0909091"></polygon>
            <polygon id="Fill-3052" points="50.4527486 54 53 52.9109462 51.5472514 51 49 52.0909091"></polygon>
            <polygon id="Fill-3053" points="51.7263158 57 53 56.2735268 52.2736842 55 51 55.7264732"></polygon>
            <polygon id="Fill-3054" points="53.7263158 52 55 51.2735268 54.2736842 50 53 50.7264732"></polygon>
            <polygon id="Fill-3055" points="47 39.5162835 51.5172084 40 52 35.4837165 47.4827916 35"></polygon>
            <polygon id="Fill-3056" points="47 44.6131343 50.6162098 45 51 41.3868657 47.386174 41"></polygon>
            <polygon id="Fill-3057" points="53 40.6109785 56.6162098 41 57 37.3866348 53.386174 37"></polygon>
            <polygon id="Fill-3058" points="53 44.7101227 55.7107881 45 56 42.2898773 53.2892119 42"></polygon>
            <polygon id="Fill-3059" points="59 41.7103448 61.7105666 42 62 39.291954 59.2894334 39"></polygon>
            <polygon id="Fill-3060" points="53 48.7101227 55.7084927 49 56 46.2898773 53.2892119 46"></polygon>
            <polygon id="Fill-3061" points="57 44.7101227 59.7084927 45 60 42.2898773 57.2892119 42"></polygon>
            <polygon id="Fill-3062" points="57.081 47.74 58.741 47.918 58.919 46.26 57.259 46.082"></polygon>
            <polygon id="Fill-3063" points="61.081 45.741 62.743 45.917 62.919 44.261 61.259 44.083"></polygon>
            <path d="M79.9816255,63.3061927 C79.6809518,63.1341653 79.1247056,62.8538243 78.3622831,62.6138354 C77.2605289,62.265533 75.7292409,62.00643 73.9101652,62.2910185 C73.2980796,62.3887131 72.6537789,62.5479978 71.9815585,62.783739 C71.9192761,62.8071008 71.854846,62.826215 71.7904159,62.8517005 C71.4489366,62.9770044 71.1096048,63.1299177 70.7681255,63.2998213 C70.4781902,63.4463632 70.1882548,63.6056478 69.8983195,63.7776752 C69.2411328,64.1663298 68.5903891,64.6144506 67.9568268,65.0944283 C67.241653,60.7979904 67.5895754,56.8116267 67.7570935,54.8556112 C67.7592412,54.8428684 67.7699795,54.8386208 67.7807179,54.8449922 C69.3205966,55.8007001 68.8889151,58.4745584 68.5667647,59.2391247 C68.5603217,59.2561151 68.5817984,59.2646102 68.5925368,59.2518675 C70.5104052,57.0133872 69.5740215,54.5434133 69.1809981,53.9168937 C69.1702597,53.9020271 69.1917364,53.8871606 69.2046224,53.8977795 C69.4816717,54.120778 69.707177,54.3565193 69.8983195,54.5965082 C70.4932238,55.3462079 70.7101384,56.1553739 70.7681255,56.8689692 C70.8003405,57.2448809 70.7896022,57.5953071 70.7681255,57.8947623 C70.7638301,57.9754665 70.7573871,58.0519231 70.7509441,58.1241322 C70.7487965,58.1347511 70.7595348,58.1368749 70.7681255,58.1347511 C70.7724208,58.1326274 70.7767162,58.1347511 70.7788638,58.1305036 C71.2964521,57.1280722 71.5455817,55.6074347 70.7681255,54.131397 C70.5576539,53.7342473 70.2720139,53.3370976 69.8983195,52.9548144 C69.7909361,52.8443771 69.674962,52.7339397 69.5525448,52.6277499 C69.5396588,52.6192548 69.5503972,52.5980168 69.5632832,52.6022644 C69.681405,52.6298737 69.7909361,52.6617307 69.8983195,52.699959 C70.2269129,52.8125201 70.5147005,52.9675572 70.7681255,53.1523274 C71.3501438,53.5749626 71.7453149,54.1590064 71.9815585,54.7685356 C72.1769963,55.2697513 72.2671984,55.7879573 72.2650508,56.2445733 C72.2650508,56.2636875 72.2886751,56.2658113 72.2929705,56.2488209 C72.6537789,54.9384392 72.4368643,53.9508744 71.9815585,53.2266602 C71.6594081,52.7127018 71.212693,52.3325424 70.7681255,52.067068 C70.4653041,51.8886692 70.1646305,51.7612415 69.8983195,51.6847848 C69.7436874,51.6380613 69.6019412,51.6062044 69.4816717,51.5913378 C69.4644904,51.5913378 69.4687857,51.5658523 69.4859671,51.5616047 C69.6298609,51.5488619 69.7673117,51.5424906 69.8983195,51.5403668 C70.2226175,51.5339954 70.5082575,51.5616047 70.7681255,51.610452 C71.283566,51.7060228 71.6808848,51.8844216 71.9815585,52.0861821 C72.4690793,52.4111228 72.7139136,52.7912822 72.7976727,52.9463192 C72.8041157,52.9611858 72.82774,52.9526906 72.8255924,52.9357003 C72.756867,52.243343 72.432569,51.7060228 71.9815585,51.3152445 C71.6336361,51.0157893 71.2105453,50.8055336 70.7681255,50.6844773 C70.4803378,50.6058968 70.1839595,50.5655447 69.8983195,50.5612971 C69.5074438,50.5570495 69.1316017,50.6207634 68.811599,50.7524387 C68.798713,50.7588101 68.785827,50.7439435 68.7944177,50.7312007 C69.0757623,50.3319272 69.4752287,50.085567 69.8983195,49.9581393 C70.1904025,49.8710637 70.4910762,49.8413305 70.7681255,49.8561971 C71.0365841,49.8710637 71.283566,49.9284061 71.4811516,50.0218531 C71.4961853,50.0282245 71.5090713,50.0112341 71.4983329,49.9984914 C71.2814184,49.7521311 71.0322888,49.556742 70.7681255,49.4123239 C70.4910762,49.2615344 70.1968455,49.1659636 69.8983195,49.1319829 C69.1208634,49.0449073 68.3305212,49.3719718 67.8043423,50.1598998 C67.7978992,50.168395 67.7828656,50.168395 67.7764226,50.1598998 C67.6776298,49.981501 67.5809847,49.783988 67.4886349,49.5758561 C67.2781633,49.0958784 67.1042022,48.550063 67.0140001,48.0127428 C67.0097047,47.9957524 66.988228,47.9957524 66.988228,48.0127428 C66.8958783,48.5521868 66.7197694,49.100126 66.5092978,49.5843513 C66.4190957,49.7903594 66.3224506,49.9857486 66.2215102,50.1598998 C66.2172149,50.168395 66.2043288,50.168395 66.1978858,50.1598998 C65.2765358,48.7836805 63.5519576,48.8112898 62.5017475,49.9984914 C62.4910091,50.0112341 62.5038952,50.0282245 62.5189288,50.0218531 C63.2190689,49.6926649 64.5441807,49.7903594 65.2056628,50.7312007 C65.2142534,50.7439435 65.2013674,50.7588101 65.1863337,50.7524387 C64.1640433,50.3276796 62.5812112,50.6058968 61.739325,51.5977092 C61.4365037,51.952383 61.2281798,52.3983801 61.174488,52.9357003 C61.174488,52.9526906 61.1959647,52.9611858 61.2045554,52.9463192 C61.2689855,52.8231391 61.4322083,52.5619123 61.739325,52.2985617 C62.2311412,51.869555 63.0945041,51.4320532 64.5141133,51.5616047 C64.5312947,51.5658523 64.53559,51.5913378 64.5184087,51.5913378 C63.7882012,51.6805372 62.2912759,52.3240472 61.739325,53.7915898 C61.4923431,54.4414711 61.4322083,55.2506371 61.70711,56.2488209 C61.7114053,56.2658113 61.7350297,56.2636875 61.7350297,56.2445733 C61.7350297,56.2233354 61.7371773,56.1999736 61.739325,56.1787357 C61.7543587,54.8449922 62.5253718,53.0567566 64.4346496,52.6022644 C64.4496833,52.5980168 64.4604216,52.6192548 64.4496833,52.6277499 C62.3106049,54.4860708 62.5232242,56.777646 63.2212166,58.1305036 C63.2276596,58.1453701 63.251284,58.1389987 63.2491363,58.1241322 C63.1589342,57.1004628 63.0816181,55.2761227 64.795458,53.8977795 C64.808344,53.8871606 64.827673,53.9020271 64.8190823,53.9168937 C64.4260589,54.5434133 63.4896752,57.0133872 65.405396,59.2518675 C65.418282,59.2646102 65.4397587,59.2561151 65.4354633,59.2391247 C65.113313,58.4745584 64.6816315,55.8007001 66.2193625,54.8449922 C66.2279532,54.8386208 66.2408392,54.8428684 66.2429869,54.8556112 C66.4105051,56.8116267 66.7605751,60.7979904 66.0432537,65.0944283 C64.8061963,64.1578346 63.5025612,63.333802 62.2096645,62.8517005 C62.050737,62.7922342 61.8939572,62.7370156 61.739325,62.6881683 C60.4056225,62.254914 59.1835989,62.1338577 58.118355,62.1805812 C56.4066629,62.2527902 55.1008801,62.7582535 54.381411,63.1129273 C54.2375172,63.1851364 54.1151,63.250974 54.0184549,63.3061927 C53.9797969,63.3274306 54.0077166,63.3826493 54.0485223,63.3699066 C54.1623487,63.3359258 54.2718799,63.3061927 54.381411,63.2743358 C55.6957844,62.909043 56.9414324,62.8092246 58.118355,62.9111668 C59.4048088,63.0216041 60.6096511,63.3720303 61.739325,63.8753698 C63.3200094,64.5804699 64.7546523,65.585025 66.047549,66.6490465 C64.2220304,68.2227788 62.6757087,69.7540352 61.739325,70.2913554 C61.6899286,70.316841 61.6448276,70.3423265 61.5997265,70.3656883 C61.3763689,70.0619855 60.9854932,69.8878343 60.5602547,69.9791575 C60.1908556,70.0598617 59.8880343,70.3529455 59.8042752,70.7182383 C59.7291068,71.043179 59.8150136,71.3936052 59.9997131,71.5783754 C60.50012,72.0689721 61.0756953,72.1029528 61.739325,71.8268594 C63.0021544,71.302282 64.5763957,69.6478454 66.5092978,67.8999619 C66.670373,67.75342 66.8335959,67.6068782 67.001114,67.4624601 C67.1664846,67.6068782 67.3275597,67.7512962 67.4886349,67.8978381 C68.3627362,68.6900138 69.1659644,69.4609515 69.8983195,70.119328 C70.2011409,70.38905 70.4910762,70.6417816 70.7681255,70.8669039 C71.1998069,71.2152064 71.6057164,71.4997949 71.9815585,71.6973079 C72.7225043,72.0838386 73.360362,72.1305621 73.9101652,71.6569558 C73.9402326,71.6314702 73.9703,71.6059847 73.9982197,71.5783754 C74.1249321,71.4530714 74.2709736,71.043179 74.1958052,70.7182383 C74.1528518,70.5292205 74.0497637,70.3593169 73.9101652,70.2297654 C73.7791574,70.1065852 73.6180822,70.0173858 73.4398257,69.9791575 C73.0124396,69.8878343 72.6237115,70.0619855 72.3982062,70.3656883 C72.2736414,70.3040982 72.1318953,70.2170226 71.9815585,70.1150804 C71.6357838,69.8793391 71.2277266,69.5459033 70.7681255,69.1466298 C70.4953715,68.9108885 70.2054362,68.6517854 69.8983195,68.3756921 C69.3012675,67.8404956 68.6483762,67.2479568 67.9525314,66.6490465 C68.5689124,66.1393356 69.2175085,65.6487389 69.8983195,65.1942467 C70.1839595,65.0031051 70.4717472,64.8204587 70.7681255,64.6463075 C71.1632966,64.4148138 71.569206,64.1981867 71.9815585,64.0027975 C72.6000871,63.7097138 73.2443878,63.4633535 73.9101652,63.2743358 C75.2889687,62.8856812 76.7708603,62.7497583 78.3622831,63.0003662 C78.8798713,63.0831942 79.4081979,63.2021267 79.9494105,63.3699066 C79.9923638,63.3826493 80.0202835,63.3274306 79.9816255,63.3061927" id="Fill-3064"></path>
            <path d="M126.915099,97.2262614 L128.126513,97.2262614 L128.126513,96 L126.915099,96 L126.915099,97.2262614 Z M114.398595,106.713883 L115.577561,106.713883 L115.577561,96 L114.398595,96 L114.398595,106.713883 Z M12.5987069,98.6082733 L11.4175781,98.6082733 L11.4175781,105.520526 L6.72767488,105.520526 L6.72767488,98.6082733 L4.8672889,98.6082733 C4.12962423,98.6082733 3.46334646,98.7113757 2.86196587,98.915387 C2.26274853,99.1193983 1.752224,99.4023817 1.32822906,99.7643372 C0.906397356,100.128486 0.57758495,100.558446 0.346118322,101.056409 C0.116814934,101.554372 0,102.091821 0,102.668756 C0,103.375118 0.13412085,103.982764 0.40019931,104.489502 C0.66411453,104.998433 1.01888581,105.41523 1.46234991,105.744281 C1.90365077,106.071138 2.41850177,106.316829 3.00906616,106.474773 C3.59963055,106.634911 4.21831705,106.713883 4.8672889,106.713883 L12.5987069,106.713883 L12.5987069,98.6082733 Z M5.54654611,105.520526 L4.38272325,105.520526 C3.93925915,105.520526 3.52391716,105.45691 3.13453405,105.327484 C2.74731418,105.198057 2.40768558,105.009401 2.11781148,104.765904 C1.82793739,104.522407 1.60079724,104.224068 1.43206456,103.870887 C1.26549511,103.517706 1.18112877,103.116264 1.18112877,102.668756 C1.18112877,102.24099 1.27198483,101.850517 1.45369695,101.497336 C1.63757231,101.144155 1.8776919,100.841429 2.17621895,100.58477 C2.47690924,100.332498 2.81870108,100.139455 3.20159448,100.003447 C3.58448787,99.8696333 3.97819746,99.8038233 4.38272325,99.8038233 L5.54654611,99.8038233 L5.54654611,105.520526 Z M9.54853921,109.357255 L10.7621166,109.357255 L10.7621166,108.130993 L9.54853921,108.130993 L9.54853921,109.357255 Z M5.5076078,97.2262614 L6.72118516,97.2262614 L6.72118516,96 L5.5076078,96 L5.5076078,97.2262614 Z M76.2909679,97.2262614 L77.5045452,97.2262614 L77.5045452,96 L76.2909679,96 L76.2909679,97.2262614 Z M11.6144329,109.357255 L12.8258471,109.357255 L12.8258471,108.130993 L11.6144329,108.130993 L11.6144329,109.357255 Z M78.3590248,97.2262614 L79.570439,97.2262614 L79.570439,96 L78.3590248,96 L78.3590248,97.2262614 Z M124.849205,97.2262614 L126.060619,97.2262614 L126.060619,96 L124.849205,96 L124.849205,97.2262614 Z M3.4438773,97.2262614 L4.65529143,97.2262614 L4.65529143,96 L3.4438773,96 L3.4438773,97.2262614 Z M83.5032084,109.357255 L84.7146225,109.357255 L84.7146225,108.130993 L83.5032084,108.130993 L83.5032084,109.357255 Z M91.0810364,98.6082733 L89.8999076,98.6082733 L89.8999076,105.520526 L85.4457975,105.520526 L85.4457975,98.6082733 L84.2668319,98.6082733 L84.2668319,105.520526 L79.5769287,105.520526 L79.5769287,98.6082733 L77.7187059,98.6082733 C76.9810413,98.6082733 76.310437,98.7113757 75.7112197,98.915387 C75.1120023,99.1193983 74.6014778,99.4023817 74.1774829,99.7643372 C73.7556512,100.128486 73.429002,100.558446 73.1975354,101.056409 C72.9660687,101.554372 72.851417,102.091821 72.851417,102.668756 C72.851417,103.375118 72.9833747,103.982764 73.2494531,104.489502 C73.5155316,104.998433 73.8681396,105.41523 74.3116037,105.744281 C74.7529046,106.071138 75.2699188,106.316829 75.8604832,106.474773 C76.4488844,106.634911 77.0697341,106.713883 77.7187059,106.713883 L91.0810364,106.713883 L91.0810364,98.6082733 Z M78.3979632,105.520526 L77.2298138,105.520526 C76.788513,105.520526 76.373171,105.45691 75.9837879,105.327484 C75.596568,105.198057 75.2569394,105.009401 74.9670653,104.765904 C74.6771912,104.522407 74.4478878,104.224068 74.2813184,103.870887 C74.1147489,103.517706 74.0303826,103.116264 74.0303826,102.668756 C74.0303826,102.24099 74.1212386,101.850517 74.3029508,101.497336 C74.4846629,101.144155 74.7247825,100.841429 75.0254728,100.58477 C75.326163,100.332498 75.6679549,100.139455 76.0508483,100.003447 C76.4337417,99.8696333 76.8274513,99.8038233 77.2298138,99.8038233 L78.3979632,99.8038233 L78.3979632,105.520526 Z M85.5691021,109.357255 L86.7826795,109.357255 L86.7826795,108.130993 L85.5691021,108.130993 L85.5691021,109.357255 Z M20.2089835,99.6546537 C19.8931506,99.3058602 19.5405425,99.0448135 19.1533226,98.86932 C18.7661028,98.6960201 18.2901901,98.6082733 17.729911,98.6082733 L16.8602888,98.6082733 L16.8602888,99.8038233 L17.892154,99.8038233 C18.1777016,99.8038233 18.4481066,99.865246 18.7033688,99.9902852 C18.9586311,100.113131 19.1706286,100.275462 19.337198,100.475086 C19.5059307,100.683485 19.6205824,100.911626 19.6833163,101.161705 C19.7482135,101.409589 19.7806621,101.707929 19.7806621,102.056722 L19.7806621,105.520526 L14.2492587,105.520526 L14.2492587,106.713883 L20.9596276,106.713883 L20.9596276,102.012849 C20.9596276,101.543403 20.8990569,101.106863 20.7757523,100.69884 C20.6524476,100.290818 20.4642458,99.9420244 20.2089835,99.6546537 L20.2089835,99.6546537 Z M109.782242,105.520526 L104.767853,105.520526 L106.831583,100.51896 C106.517914,100.240364 106.182611,99.9793168 105.830003,99.7358195 C105.475232,99.4901285 105.111808,99.2773425 104.737567,99.0930743 C104.363327,98.908806 103.98476,98.7662175 103.601867,98.6609213 C103.218973,98.5556252 102.840406,98.5029771 102.466166,98.5029771 C102.083273,98.5029771 101.698216,98.5556252 101.315323,98.6609213 C100.930266,98.7662175 100.551699,98.9066123 100.173132,99.0864933 C99.7945652,99.2663742 99.4311409,99.4791601 99.0828594,99.7292385 C98.7324146,99.9771232 98.4057654,100.240364 98.1007486,100.51896 L100.179622,105.520526 L95.7860823,105.520526 L95.7860823,98.6082733 L94.6049536,98.6082733 L94.6049536,106.968348 C94.6049536,107.306174 94.5876477,107.593544 94.5551991,107.826073 C94.518424,108.060796 94.4600165,108.249452 94.3778134,108.394234 C94.2934471,108.536822 94.1787954,108.642118 94.0360216,108.707929 C93.895411,108.771545 93.7115357,108.80445 93.4843955,108.80445 C93.3762335,108.80445 93.2832142,108.797869 93.2031744,108.789094 C93.1252977,108.778126 93.0171358,108.753996 92.8808517,108.71451 L92.5715084,109.863992 C92.8959944,109.953933 93.2139906,110 93.5298235,110 C93.9516552,110 94.3064265,109.929803 94.5984639,109.789408 C94.888338,109.649013 95.1219678,109.449389 95.2993535,109.183955 C95.4767391,108.920715 95.602207,108.602632 95.6757571,108.229709 C95.7493073,107.854591 95.7860823,107.437794 95.7860823,106.968348 L95.7860823,106.713883 L110.963371,106.713883 L110.963371,96 L109.782242,96 L109.782242,105.520526 Z M101.419158,105.520526 L99.576078,100.93795 C100.028195,100.549671 100.491128,100.264494 100.969204,100.086807 C101.445117,99.9069257 101.944825,99.8169853 102.466166,99.8169853 C102.998323,99.8169853 103.52399,99.9244751 104.043168,100.139455 C104.566672,100.352241 105.007972,100.619868 105.371397,100.93795 L103.528317,105.520526 L101.419158,105.520526 Z M89.884765,109.344093 L91.0983423,109.344093 L91.0983423,108.117831 L89.884765,108.117831 L89.884765,109.344093 Z M176.821034,106.713883 L178,106.713883 L178,96 L176.821034,96 L176.821034,106.713883 Z M172.202518,105.520526 L168.148607,105.520526 C168.395217,104.972109 168.516358,104.386399 168.516358,103.75901 C168.516358,103.142589 168.406033,102.567847 168.185382,102.034785 C167.962569,101.501724 167.661878,101.041053 167.276822,100.654967 C166.893928,100.264494 166.439648,99.9595738 165.913981,99.7358195 C165.388314,99.5120652 164.819382,99.400188 164.209348,99.400188 C163.618784,99.400188 163.069321,99.5142589 162.558796,99.7424005 C162.046109,99.9727358 161.600481,100.282043 161.224078,100.676904 C160.845511,101.069571 160.546984,101.530241 160.33066,102.056722 C160.114336,102.585396 160.006174,103.151363 160.006174,103.75901 C160.006174,104.077092 160.038622,104.382012 160.10352,104.675964 C160.166253,104.969915 160.25062,105.250705 160.360945,105.520526 L156.702907,105.520526 C156.949516,104.972109 157.070658,104.386399 157.070658,103.75901 C157.070658,103.142589 156.960333,102.567847 156.739682,102.034785 C156.519032,101.501724 156.216178,101.041053 155.831121,100.654967 C155.448228,100.264494 154.993948,99.9595738 154.468281,99.7358195 C153.942613,99.5120652 153.373681,99.400188 152.763648,99.400188 C152.173083,99.400188 151.625784,99.5142589 151.113096,99.7424005 C150.600408,99.9727358 150.156944,100.282043 149.778377,100.676904 C149.39981,101.069571 149.101283,101.530241 148.884959,102.056722 C148.668635,102.585396 148.560473,103.151363 148.560473,103.75901 C148.560473,104.077092 148.592922,104.382012 148.657819,104.675964 C148.720553,104.969915 148.807083,105.250705 148.915245,105.520526 L145.168514,105.520526 L145.168514,96 L143.989548,96 L143.989548,105.520526 L140.229838,105.520526 L140.229838,103.6932 C140.229838,103.234723 140.169267,102.798182 140.050289,102.383579 C139.933474,101.971169 139.745272,101.622375 139.49001,101.332811 C139.187157,100.986211 138.841038,100.725165 138.458145,100.556252 C138.075252,100.387339 137.588523,100.30398 136.997958,100.30398 L131.775898,100.30398 L133.997545,96 L132.714744,96 L130.449832,100.288624 C130.488771,100.545284 130.549341,100.769038 130.633708,100.959887 C130.718074,101.148543 130.832726,101.328424 130.979826,101.497336 L136.997958,101.497336 C137.372199,101.497336 137.694521,101.554372 137.964926,101.668442 C138.235331,101.782513 138.453818,101.940458 138.620388,102.137888 C138.786957,102.337512 138.901609,102.565653 138.960017,102.824506 C139.018424,103.083359 139.048709,103.372924 139.048709,103.6932 L139.048709,105.520526 L128.133003,105.520526 L128.133003,98.6082733 L126.27478,98.6082733 C125.537115,98.6082733 124.868674,98.7113757 124.269457,98.915387 C123.67024,99.1193983 123.157552,99.4023817 122.73572,99.7643372 C122.311725,100.128486 121.985076,100.558446 121.753609,101.056409 C121.524306,101.554372 121.407491,102.091821 121.407491,102.668756 C121.407491,103.375118 121.539449,103.982764 121.805527,104.489502 C122.071606,104.998433 122.426377,105.41523 122.869841,105.744281 C123.311142,106.071138 123.828156,106.316829 124.416557,106.474773 C125.007122,106.634911 125.627971,106.713883 126.27478,106.713883 L149.681032,106.713883 C150.063925,107.132874 150.520368,107.464118 151.046036,107.707615 C151.571703,107.951113 152.144961,108.073958 152.763648,108.073958 C153.393151,108.073958 153.981552,107.953306 154.526688,107.714196 C155.071824,107.475086 155.541247,107.141648 155.934957,106.713883 L161.126732,106.713883 C161.509625,107.132874 161.966069,107.464118 162.491736,107.707615 C163.017403,107.951113 163.590662,108.073958 164.209348,108.073958 C164.838851,108.073958 165.425089,107.953306 165.972388,107.714196 C166.517525,107.475086 166.986948,107.141648 167.380657,106.713883 L173.383647,106.713883 L173.383647,96 L172.202518,96 L172.202518,105.520526 Z M126.954037,105.520526 L125.788051,105.520526 C125.34675,105.520526 124.931408,105.45691 124.542025,105.327484 C124.152642,105.198057 123.815177,105.009401 123.525303,104.765904 C123.235429,104.522407 123.006125,104.224068 122.839556,103.870887 C122.670823,103.517706 122.58862,103.116264 122.58862,102.668756 C122.58862,102.24099 122.677313,101.850517 122.861188,101.497336 C123.0429,101.144155 123.28302,100.841429 123.58371,100.58477 C123.8844,100.332498 124.226192,100.139455 124.609086,100.003447 C124.991979,99.8696333 125.385689,99.8038233 125.788051,99.8038233 L126.954037,99.8038233 L126.954037,105.520526 Z M155.647246,104.989658 C155.485003,105.373551 155.264353,105.704795 154.983132,105.983391 C154.704074,106.261987 154.375261,106.47916 153.996694,106.632717 C153.615964,106.786274 153.207112,106.863052 152.763648,106.863052 C152.333163,106.863052 151.930801,106.781887 151.56305,106.617361 C151.193136,106.452836 150.872977,106.229082 150.602572,105.946098 C150.332167,105.660921 150.122332,105.331871 149.968742,104.952366 C149.817316,104.575055 149.739439,104.17142 149.739439,103.743654 C149.739439,103.315888 149.817316,102.91006 149.968742,102.526167 C150.122332,102.144469 150.330003,101.811031 150.596082,101.528048 C150.86216,101.242871 151.177993,101.016923 151.545744,100.84801 C151.915658,100.679097 152.322347,100.593544 152.763648,100.593544 C153.215765,100.593544 153.631107,100.67471 154.011837,100.832654 C154.390404,100.992792 154.719216,101.212159 154.998274,101.488562 C155.279495,101.769351 155.497983,102.098402 155.655899,102.482294 C155.813816,102.866186 155.891692,103.285177 155.891692,103.743654 C155.891692,104.191163 155.811652,104.605766 155.647246,104.989658 L155.647246,104.989658 Z M167.092946,104.989658 C166.930703,105.373551 166.710053,105.704795 166.428832,105.983391 C166.149774,106.261987 165.820962,106.47916 165.440231,106.632717 C165.063828,106.786274 164.652812,106.863052 164.209348,106.863052 C163.7767,106.863052 163.376501,106.781887 163.00875,106.617361 C162.638836,106.452836 162.318677,106.229082 162.048272,105.946098 C161.777867,105.660921 161.568033,105.331871 161.414443,104.952366 C161.263016,104.575055 161.185139,104.17142 161.185139,103.743654 C161.185139,103.315888 161.263016,102.91006 161.414443,102.526167 C161.568033,102.144469 161.775704,101.811031 162.041782,101.528048 C162.307861,101.242871 162.625857,101.016923 162.993608,100.84801 C163.361358,100.679097 163.768047,100.593544 164.209348,100.593544 C164.661465,100.593544 165.076807,100.67471 165.455374,100.832654 C165.833941,100.992792 166.164917,101.212159 166.443975,101.488562 C166.725196,101.769351 166.943683,102.098402 167.099436,102.482294 C167.259516,102.866186 167.337392,103.285177 167.337392,103.743654 C167.337392,104.191163 167.255189,104.605766 167.092946,104.989658 L167.092946,104.989658 Z M61.2261679,105.520526 L59.294395,105.520526 C58.6043216,105.520526 58.0635117,105.421811 57.6698021,105.222187 C57.2782558,105.022563 56.9667493,104.724224 56.7417724,104.32717 C56.8109961,104.017863 56.8456079,103.644939 56.8456079,103.206205 L56.8456079,99.354121 L55.6644791,99.354121 L55.6644791,103.399248 C55.6644791,104.08806 55.482767,104.636478 55.1193428,105.051081 C54.7559185,105.463491 54.2042925,105.669696 53.4666278,105.669696 C53.1226727,105.669696 52.809003,105.614854 52.5234553,105.505171 C52.2379077,105.395487 51.9912984,105.246318 51.7857907,105.057662 C51.5802829,104.869007 51.4158767,104.647446 51.2990618,104.39298 C51.1800836,104.140708 51.1173497,103.868693 51.1065335,103.579129 L51.1065335,99.354121 L49.9275679,99.354121 L49.9275679,103.489188 C49.9275679,103.857725 49.8734869,104.169226 49.765325,104.423692 C49.657163,104.675964 49.5078995,104.886556 49.3240241,105.051081 C49.1358223,105.213413 48.9238248,105.334065 48.6880317,105.408649 C48.4522386,105.483234 48.2013028,105.520526 47.9352243,105.520526 L45.6508434,105.520526 L45.6508434,99.354121 L44.4697146,99.354121 L44.4697146,105.520526 L38.2763599,105.520526 L40.3400904,100.51896 C40.0264207,100.240364 39.6911186,99.9793168 39.3363473,99.7358195 C38.9837392,99.4901285 38.620315,99.2773425 38.2460746,99.0930743 C37.8739974,98.908806 37.4932672,98.7662175 37.1103738,98.6609213 C36.7274804,98.5556252 36.3489135,98.5029771 35.9746731,98.5029771 C35.5917797,98.5029771 35.2088863,98.5556252 34.8238297,98.6609213 C34.4409363,98.7662175 34.0602061,98.9066123 33.6816392,99.0864933 C33.3030723,99.2663742 32.939648,99.4791601 32.5892032,99.7292385 C32.2409217,99.9771232 31.9142725,100.240364 31.6092557,100.51896 L33.6881289,105.520526 L29.6039327,105.520526 L29.6039327,98.6082733 L27.7154246,98.6082733 C26.9864129,98.6082733 26.3244616,98.7135694 25.723081,98.921968 C25.1238637,99.1303667 24.6111759,99.4177374 24.1828545,99.7796929 C23.7545331,100.143842 23.4235574,100.575995 23.1877643,101.078345 C22.9519712,101.582889 22.832993,102.126919 22.832993,102.712629 C22.832993,103.421185 22.9627874,104.024444 23.2245394,104.526794 C23.4841281,105.029144 23.8388994,105.443748 24.28669,105.766217 C24.7323173,106.090881 25.2536581,106.329991 25.8420592,106.481354 C26.4326236,106.637104 27.0577998,106.713883 27.7154246,106.713883 L28.4228039,106.713883 L28.4228039,107.058289 C28.4228039,107.683485 28.2454183,108.130993 27.8928103,108.400815 C27.538039,108.670636 27.0404939,108.80445 26.4023382,108.80445 C26.038914,108.80445 25.7122648,108.769351 25.4223907,108.701348 C25.1303534,108.628956 24.7993778,108.510498 24.4273006,108.341586 L24.0573866,109.491069 C24.5095037,109.659981 24.909703,109.787214 25.2601478,109.870573 C25.6084293,109.956127 25.9610374,110 26.3136454,110 C27.4644888,110 28.2994993,109.723598 28.8230033,109.170793 C29.3421807,108.617988 29.6039327,107.874334 29.6039327,106.937637 L29.6039327,106.713883 L47.9352243,106.713883 C48.5063196,106.713883 49.0146809,106.591037 49.4646347,106.340959 C49.910262,106.093074 50.271523,105.759636 50.5462544,105.340646 C50.8318021,105.818866 51.2211852,106.191789 51.7122405,106.461611 C52.2054591,106.729238 52.7895338,106.863052 53.4666278,106.863052 C54.1740071,106.863052 54.7775509,106.740207 55.275096,106.490128 C55.7704779,106.242244 56.151208,105.858352 56.4172865,105.340646 C56.5146322,105.509558 56.6357737,105.676277 56.7785475,105.840802 C56.9213213,106.005327 57.1051966,106.152303 57.3301735,106.28173 C57.5573137,106.411156 57.8298819,106.516453 58.1500413,106.595425 C58.3923241,106.656847 58.6843615,106.685365 58.9980312,106.700721 L58.9980312,106.713883 L62.4051334,106.713883 L62.4051334,96 L61.2261679,96 L61.2261679,105.520526 Z M28.4228039,105.520526 L27.2286957,105.520526 C26.7852316,105.520526 26.3698897,105.45691 25.9826698,105.334065 C25.5932867,105.209025 25.2536581,105.026951 24.9572942,104.790034 C24.6630937,104.550924 24.4294638,104.256973 24.2650576,103.908179 C24.0963249,103.559386 24.0141218,103.160138 24.0141218,102.712629 C24.0141218,102.287057 24.1049779,101.892197 24.28669,101.534629 C24.4662389,101.17706 24.7085217,100.869947 25.009212,100.615481 C25.3077391,100.363209 25.6495309,100.165779 26.0324243,100.027578 C26.4174809,99.8871827 26.815517,99.8169853 27.2286957,99.8169853 L28.4228039,99.8169853 L28.4228039,105.520526 Z M34.9276652,105.520526 L33.0845851,100.93795 C33.5367022,100.549671 34.0017986,100.264494 34.4777113,100.086807 C34.9557873,99.9069257 35.4533324,99.8169853 35.9746731,99.8169853 C36.5046668,99.8169853 37.030334,99.9244751 37.5538379,100.139455 C38.0730154,100.352241 38.5164795,100.619868 38.8799037,100.93795 L37.0368237,105.520526 L34.9276652,105.520526 Z M65.842521,106.713883 L67.0214866,106.713883 L67.0214866,96 L65.842521,96 L65.842521,106.713883 Z" id="Fill-3065"></path>
            <polygon id="Fill-3066" points="1 114 2.38985507 114 2.38985507 118.024691 6.14956522 114 7.85391304 114 4.56695652 117.440329 8 122 6.31797101 122 3.62144928 118.401235 2.38985507 119.68107 2.38985507 122 1 122"></polygon>
            <polygon id="Fill-3067" points="10.315 122 11.685 122 11.685 114 10.315 114"></polygon>
            <polygon id="Fill-3068" points="14 114 15.3072165 114 19.6103093 119.530864 19.6103093 114 21 114 21 122 19.8185567 122 15.3876289 116.308642 15.3876289 122 14 122"></polygon>
            <path d="M23,118.524615 L23,118.5 C23,116.063153 24.8321448,114 27.4081185,114 C28.8979704,114 29.8129457,114.422924 30.692814,115.179264 L29.7405376,116.336151 C29.0800878,115.76554 28.4349973,115.405271 27.3466813,115.405271 C25.7712562,115.405271 24.5754251,116.808304 24.5754251,118.475385 L24.5754251,118.5 C24.5754251,120.290154 25.7361492,121.605917 27.4805266,121.605917 C28.2879868,121.605917 29.0208448,121.346345 29.5452551,120.948036 L29.5452551,119.318996 L27.3576522,119.318996 L27.3576522,117.989806 L31,117.989806 L31,121.643958 C30.1552386,122.377921 28.9462425,123 27.4322545,123 C24.7575425,123 23,121.05992 23,118.524615" id="Fill-3069"></path>
            <path d="M33,114 L36.2994607,114 C39.07891,114 41,115.726337 41,117.977366 L41,118 C41,120.253086 39.07891,122 36.2994607,122 L33,122 L33,114 Z M36.2994607,120.720165 C38.1569685,120.720165 39.3695714,119.588477 39.3695714,118.024691 L39.3695714,118 C39.3695714,116.434156 38.1569685,115.279835 36.2994607,115.279835 L34.5554925,115.279835 L34.5554925,120.720165 L36.2994607,120.720165 Z" id="Fill-3070"></path>
            <path d="M42,118.524615 L42,118.5 C42,116.051964 43.8689249,114 46.5110457,114 C49.1553756,114 51,116.025112 51,118.475385 L51,118.5 C51,120.948036 49.1310751,123 46.4867452,123 C43.8446244,123 42,120.97265 42,118.524615 M49.4138439,118.524615 L49.4138439,118.5 C49.4138439,116.808304 48.1966127,115.405271 46.4867452,115.405271 C44.7790869,115.405271 43.5861561,116.78369 43.5861561,118.475385 L43.5861561,118.5 C43.5861561,120.189458 44.8033873,121.594729 46.5110457,121.594729 C48.2209131,121.594729 49.4138439,120.214073 49.4138439,118.524615" id="Fill-3071"></path>
            <polygon id="Fill-3072" points="53 114 54.5231131 114 57.0010447 117.783951 59.4768869 114 61 114 61 122 59.5688169 122 59.5688169 116.263374 57.0010447 120.034979 56.9550797 120.034979 54.4082006 116.286008 54.4082006 122 53 122"></polygon>
            <path d="M66,118.524615 L66,118.5 C66,116.051964 67.8689249,114 70.5110457,114 C73.1553756,114 75,116.025112 75,118.475385 L75,118.5 C75,120.948036 73.1310751,123 70.4867452,123 C67.8446244,123 66,120.97265 66,118.524615 M73.4138439,118.524615 L73.4138439,118.5 C73.4138439,116.808304 72.1966127,115.405271 70.4867452,115.405271 C68.7790869,115.405271 67.5861561,116.78369 67.5861561,118.475385 L67.5861561,118.5 C67.5861561,120.189458 68.8033873,121.594729 70.5110457,121.594729 C72.2209131,121.594729 73.4138439,120.214073 73.4138439,118.524615" id="Fill-3073"></path>
            <polygon id="Fill-3074" points="77 114 83 114 83 115.281893 78.4172414 115.281893 78.4172414 117.465021 82.4806897 117.465021 82.4806897 118.742798 78.4172414 118.742798 78.4172414 122 77 122"></polygon>
            <path d="M88,121.60015 L88.9562334,120.499625 C89.8196286,121.224306 90.6853448,121.63841 91.811008,121.63841 C92.7904509,121.63841 93.4124668,121.19955 93.4124668,120.535634 L93.4124668,120.513128 C93.4124668,119.887472 93.0503979,119.549887 91.3700265,119.174044 C89.4459549,118.723931 88.359748,118.174794 88.359748,116.56114 L88.359748,116.536384 C88.359748,115.035259 89.6525199,114 91.448939,114 C92.7672414,114 93.8116711,114.387097 94.7284483,115.098275 L93.8766578,116.261815 C93.0620027,115.674419 92.2496684,115.36159 91.4234085,115.36159 C90.4927056,115.36159 89.9496021,115.825206 89.9496021,116.3991 L89.9496021,116.423856 C89.9496021,117.099025 90.3650531,117.39835 92.0941645,117.79895 C94.0043103,118.249062 95,118.912978 95,120.362341 L95,120.387097 C95,122.023256 93.6700928,123 91.7715517,123 C90.3882626,123 89.0838859,122.536384 88,121.60015" id="Fill-3075"></path>
            <path d="M98.7967019,114 L100.201083,114 L104,122 L102.396259,122 L101.52129,120.081716 L97.4388383,120.081716 L96.5527935,122 L95,122 L98.7967019,114 Z M100.965297,118.845761 L99.4745262,115.667007 L97.9948314,118.845761 L100.965297,118.845761 Z" id="Fill-3076"></path>
            <path d="M105,119.101519 L105,114 L106.438212,114 L106.438212,119.04 C106.438212,120.685063 107.221356,121.569114 108.504199,121.569114 C109.778644,121.569114 110.561788,120.73519 110.561788,119.101519 L110.561788,114 L112,114 L112,119.026329 C112,121.671646 110.620576,123 108.483203,123 C106.356329,123 105,121.671646 105,119.101519" id="Fill-3077"></path>
            <path d="M114,114 L117.299461,114 C120.07891,114 122,115.726337 122,117.977366 L122,118 C122,120.253086 120.07891,122 117.299461,122 L114,122 L114,114 Z M117.299461,120.720165 C119.156968,120.720165 120.369571,119.588477 120.369571,118.024691 L120.369571,118 C120.369571,116.434156 119.156968,115.279835 117.299461,115.279835 L115.555492,115.279835 L115.555492,120.720165 L117.299461,120.720165 Z" id="Fill-3078"></path>
            <polygon id="Fill-3079" points="124.315 122 125.685 122 125.685 114 124.315 114"></polygon>
            <path d="M133.796702,114 L135.201083,114 L139,122 L137.396259,122 L136.52129,120.081716 L132.441053,120.081716 L131.552794,122 L130,122 L133.796702,114 Z M135.967512,118.845761 L134.474526,115.667007 L132.994831,118.845761 L135.967512,118.845761 Z" id="Fill-3080"></path>
            <path d="M141,114 L144.675741,114 C145.713249,114 146.526316,114.298354 147.057774,114.800412 C147.491833,115.234568 147.741682,115.829218 147.741682,116.526749 L147.741682,116.549383 C147.741682,117.86214 146.926497,118.652263 145.772535,118.973251 L148,122 L146.291289,122 L144.264973,119.211934 L144.239564,119.211934 L142.450393,119.211934 L142.450393,122 L141,122 L141,114 Z M144.569873,117.967078 C145.607381,117.967078 146.267998,117.440329 146.267998,116.62963 L146.267998,116.606996 C146.267998,115.748971 145.630672,115.279835 144.559286,115.279835 L142.450393,115.279835 L142.450393,117.967078 L144.569873,117.967078 Z" id="Fill-3081"></path>
            <path d="M152.796702,114 L154.203298,114 L158,122 L156.396259,122 L155.52129,120.081716 L151.441053,120.081716 L150.552794,122 L149,122 L152.796702,114 Z M154.967512,118.845761 L153.474526,115.667007 L151.994831,118.845761 L154.967512,118.845761 Z" id="Fill-3082"></path>
            <path d="M159,114 L162.770724,114 C163.730663,114 164.48567,114.253086 164.966718,114.709877 C165.33775,115.063786 165.531895,115.497942 165.531895,116.034979 L165.531895,116.057613 C165.531895,117.018519 164.953775,117.532922 164.330354,117.841564 C165.316179,118.160494 166,118.697531 166,119.783951 L166,119.806584 C166,121.236626 164.761787,122 162.889368,122 L159,122 L159,114 Z M162.468721,117.372428 C163.417874,117.372428 164.054237,117.018519 164.054237,116.286008 L164.054237,116.263374 C164.054237,115.633745 163.525732,115.246914 162.578737,115.246914 L160.453929,115.246914 L160.453929,117.372428 L162.468721,117.372428 Z M162.902311,120.755144 C163.909707,120.755144 164.522342,120.378601 164.522342,119.658436 L164.522342,119.635802 C164.522342,118.960905 163.959322,118.559671 162.794453,118.559671 L160.453929,118.559671 L160.453929,120.755144 L162.902311,120.755144 Z" id="Fill-3083"></path>
            <polygon id="Fill-3084" points="168.315 122 169.685 122 169.685 114 168.315 114"></polygon>
            <path d="M174.797637,114 L176.202363,114 L180,122 L178.39808,122 L177.522895,120.081716 L173.439439,120.081716 L172.553176,122 L171,122 L174.797637,114 Z M176.966765,118.845761 L175.475628,115.667007 L173.995569,118.845761 L176.966765,118.845761 Z" id="Fill-3085"></path>
        </g>
    </g>
</svg>