<svg width="16" height="19" viewBox="0 0 16 19" fill="none" xmlns="http://www.w3.org/2000/svg">
<path fill-rule="evenodd" clip-rule="evenodd" d="M5.20053 5.18506C3.94532 5.18506 2.80091 5.71811 1.98232 6.71904C1.1702 7.71206 0.708496 9.12563 0.708496 10.8595C0.708496 12.3553 1.20512 13.9299 1.93708 15.2152C2.65841 16.4819 3.67562 17.5827 4.80504 17.9875C5.76503 18.3316 6.66792 17.8324 7.2375 17.4242C7.42916 17.2868 7.62722 17.1628 7.81196 17.0752C8.00525 16.9836 8.13675 16.9547 8.20822 16.9547C8.27968 16.9547 8.41118 16.9836 8.60447 17.0752C8.78921 17.1628 8.98727 17.2868 9.17893 17.4242C9.74851 17.8324 10.6514 18.3316 11.6114 17.9875C12.4224 17.6968 13.1668 17.0501 13.7779 16.2674C14.3959 15.4758 14.9162 14.4963 15.2599 13.4635C15.3136 13.3019 15.2991 13.1253 15.2197 12.9746C15.1402 12.8239 15.0027 12.7122 14.8389 12.6653C13.843 12.3801 13.1299 11.484 13.1299 10.4387C13.1299 9.48084 13.7279 8.649 14.5954 8.2962C14.7617 8.22858 14.8909 8.09272 14.9501 7.92324C15.0092 7.75376 14.9927 7.56702 14.9046 7.4106C14.0971 5.97641 12.7471 5.18506 11.2159 5.18506C10.3797 5.18506 9.64456 5.5201 9.09116 5.88028C8.50422 6.26229 7.91221 6.26229 7.32527 5.88028C6.77187 5.5201 6.0367 5.18506 5.20053 5.18506ZM1.9585 10.8595C1.9585 9.33986 2.36246 8.22871 2.94993 7.51038C3.53092 6.79998 4.32003 6.43506 5.20053 6.43506C5.70483 6.43506 6.20161 6.64038 6.64341 6.92793C7.64488 7.57974 8.77155 7.57974 9.77302 6.92793C10.2148 6.64038 10.7116 6.43506 11.2159 6.43506C12.082 6.43506 12.8704 6.7892 13.4549 7.49609C12.5071 8.13765 11.8799 9.21285 11.8799 10.4387C11.8799 11.835 12.6928 13.0351 13.8678 13.6228C13.5811 14.3193 13.2088 14.965 12.7926 15.4982C12.2608 16.1794 11.6947 16.6298 11.1897 16.8108C10.8655 16.927 10.4411 16.7909 9.90711 16.4082C9.6802 16.2456 9.41554 16.0764 9.13986 15.9457C8.87273 15.8191 8.54612 15.7047 8.20822 15.7047C7.87032 15.7047 7.5437 15.8191 7.27657 15.9457C7.00089 16.0764 6.73623 16.2456 6.50932 16.4082C5.97538 16.7909 5.55095 16.927 5.22678 16.8108C4.50416 16.5518 3.68017 15.7501 3.0233 14.5967C2.37706 13.4618 1.9585 12.0985 1.9585 10.8595Z" fill="white"/>
<path fill-rule="evenodd" clip-rule="evenodd" d="M11.9216 0.761304C11.9284 0.827359 11.946 0.996127 11.951 1.09034C11.9614 1.28731 11.9648 1.56116 11.9359 1.86924C11.8804 2.46248 11.6953 3.29439 11.0899 3.89979C10.4845 4.50519 9.65259 4.69033 9.05935 4.74583C8.75126 4.77466 8.47742 4.77127 8.28044 4.76086C8.18557 4.75584 8.01634 4.73826 7.95139 4.73151L7.94348 4.73068L7.94252 4.73055C7.66875 4.69075 7.45286 4.47522 7.41307 4.20145L7.4121 4.19217C7.40524 4.12613 7.38768 3.95734 7.3827 3.86311C7.37229 3.66614 7.3689 3.39229 7.39772 3.08421C7.45322 2.49097 7.63836 1.65907 8.24377 1.05366C8.84917 0.448257 9.68107 0.26312 10.2743 0.207618C10.5824 0.178793 10.8562 0.182184 11.0532 0.192595C11.1476 0.197584 11.3166 0.215151 11.3823 0.221985L11.3911 0.222906C11.6649 0.262698 11.8808 0.478228 11.9206 0.751999L11.9216 0.761304ZM10.3908 1.45179C9.90162 1.49755 9.42535 1.63945 9.12766 1.93715C8.82996 2.23484 8.68806 2.7111 8.6423 3.20025C8.63179 3.31254 8.62691 3.41967 8.62557 3.5176C8.7235 3.51626 8.83063 3.51138 8.94292 3.50087C9.43207 3.45511 9.90833 3.31321 10.206 3.01551C10.5037 2.71782 10.6456 2.24156 10.6914 1.75241C10.7019 1.64012 10.7068 1.53299 10.7081 1.43506C10.6102 1.4364 10.503 1.44128 10.3908 1.45179Z" fill="white"/>
</svg>
