<svg xmlns="http://www.w3.org/2000/svg" width="50" height="50" viewBox="0 0 50 50">
  <g id="Group_7" data-name="Group 7" transform="translate(-1318 -877)">
    <rect id="Rectangle_1" data-name="Rectangle 1" width="50" height="50" transform="translate(1318 877)" fill="#fff"/>
    <g id="Group_6" data-name="Group 6" transform="translate(78.974 -1.383)">
      <g id="Group_4" data-name="Group 4" transform="translate(1244 883.856)">
        <g id="Group_2" data-name="Group 2" transform="translate(0 0)">
          <path id="Path_7" data-name="Path 7" d="M38.238,17.9a.814.814,0,0,0-.814.814v7.322H25.558l-9.286-9.286V1.628h4.068a.814.814,0,1,0,0-1.627H7.322A7.33,7.33,0,0,0,0,7.323V31.731a7.331,7.331,0,0,0,7.322,7.322H31.729a7.331,7.331,0,0,0,7.322-7.322V18.713A.814.814,0,0,0,38.238,17.9ZM7.322,1.628h7.322V16.584L1.627,23.092V7.323A5.7,5.7,0,0,1,7.322,1.628Zm-5.7,30.1V24.911L15.3,18.076l8.868,8.868-7.255,10.48H7.322a5.7,5.7,0,0,1-5.7-5.7Zm30.1,5.7H18.888l6.759-9.763H37.424v4.068A5.7,5.7,0,0,1,31.729,37.426ZM30.1,12.2a3.254,3.254,0,1,0-3.254-3.254A3.258,3.258,0,0,0,30.1,12.2Zm0-4.881a1.627,1.627,0,1,1-1.627,1.627A1.627,1.627,0,0,1,30.1,7.323Zm-6.3,7.919,3.209,2.948a4.441,4.441,0,0,0,6.175.015l3.246-2.987a8.949,8.949,0,1,0-12.63.023Zm1.123-11.48a7.352,7.352,0,0,1,10.36,0,7.261,7.261,0,0,1,.021,10.28l-3.24,2.981a2.871,2.871,0,0,1-3.939-.016l-3.2-2.944a7.267,7.267,0,0,1,0-10.3Z" transform="translate(0 0.002)" fill="#1b8354" stroke="#1b8354" stroke-width="1"/>
        </g>
        <g id="Group_3" data-name="Group 3" transform="translate(21.153 0)">
          <path id="Path_7-2" data-name="Path 7" d="M21.949,12.2A3.254,3.254,0,1,0,18.7,8.951,3.258,3.258,0,0,0,21.949,12.2Zm0-4.881a1.627,1.627,0,1,1-1.627,1.627A1.627,1.627,0,0,1,21.949,7.323Zm-6.3,7.919,3.209,2.948a4.441,4.441,0,0,0,6.175.015l3.246-2.987A8.932,8.932,0,0,0,15.621,2.608a8.892,8.892,0,0,0,.024,12.633Zm1.123-11.48a7.352,7.352,0,0,1,10.36,0,7.261,7.261,0,0,1,.021,10.28l-3.24,2.981a2.871,2.871,0,0,1-3.939-.016l-3.2-2.944a7.267,7.267,0,0,1,0-10.3Z" transform="translate(-13 0.002)" fill="#a3cdba" stroke="#a3cdba" stroke-width="1"/>
        </g>
      </g>
    </g>
  </g>
</svg>
