<svg width="13" height="8" viewBox="0 0 13 8" fill="none" xmlns="http://www.w3.org/2000/svg">
<g id="elements">
<path id="Icon" d="M2.11638 1.1294C2.21795 1.26388 2.52121 1.66534 2.70181 1.89676C3.06354 2.36027 3.5578 2.97618 4.09097 3.59026C4.62684 4.20744 5.18976 4.80852 5.68986 5.25039C5.94062 5.47195 6.1609 5.64031 6.34267 5.74989C6.51363 5.85296 6.61462 5.87439 6.61462 5.87439C6.61462 5.87439 6.71264 5.85295 6.88359 5.7499C7.06537 5.64032 7.28565 5.47196 7.53641 5.25039C8.0365 4.80852 8.59943 4.20744 9.13529 3.59025C9.66847 2.97616 10.1627 2.36025 10.5245 1.89673C10.7051 1.66531 11.0079 1.26442 11.1095 1.12994C11.3142 0.852004 11.7058 0.792058 11.9838 0.996751C12.2617 1.20145 12.3211 1.59269 12.1164 1.87063L12.1148 1.87273C12.0083 2.01376 11.6942 2.42963 11.5099 2.66577C11.14 3.13975 10.6313 3.77384 10.0792 4.40976C9.52974 5.04257 8.92501 5.69149 8.36408 6.18712C8.08433 6.4343 7.80075 6.65656 7.52895 6.82042C7.2743 6.97393 6.95189 7.125 6.61313 7.125C6.27437 7.125 5.95196 6.97393 5.69732 6.82041C5.42551 6.65656 5.14194 6.4343 4.86219 6.18712C4.30126 5.69149 3.69653 5.04258 3.1471 4.40977C2.59497 3.77386 2.08628 3.13978 1.71638 2.6658C1.53199 2.42953 1.21792 2.01371 1.11158 1.87292L1.11018 1.87107C0.905485 1.59313 0.964565 1.20149 1.2425 0.996793C1.52042 0.792105 1.91168 0.851493 2.11638 1.1294Z" fill="#1B8354"/>
</g>
</svg>
