<svg width="45" height="45" viewBox="0 0 45 45" fill="none" xmlns="http://www.w3.org/2000/svg">
<path d="M24.75 2.25C24.75 1.00736 23.7426 0 22.5 0C21.2574 0 20.25 1.00736 20.25 2.25V4.5C20.25 5.74264 21.2574 6.75 22.5 6.75C23.7426 6.75 24.75 5.74264 24.75 4.5V2.25Z" fill="#0E382D"/>
<path d="M24.75 31.5C24.75 30.2574 23.7426 29.25 22.5 29.25C21.2574 29.25 20.25 30.2574 20.25 31.5V37.318L19.591 36.659C18.7123 35.7803 17.2877 35.7803 16.409 36.659C15.5303 37.5377 15.5303 38.9623 16.409 39.841L20.909 44.341C21.7877 45.2197 23.2123 45.2197 24.091 44.341L28.591 39.841C29.4697 38.9623 29.4697 37.5377 28.591 36.659C27.7123 35.7803 26.2877 35.7803 25.409 36.659L24.75 37.318V31.5Z" fill="#0E382D"/>
<path d="M42.75 24.75C43.9926 24.75 45 23.7426 45 22.5C45 21.2574 43.9926 20.25 42.75 20.25H40.5C39.2574 20.25 38.25 21.2574 38.25 22.5C38.25 23.7426 39.2574 24.75 40.5 24.75H42.75Z" fill="#0E382D"/>
<path d="M6.75 22.5C6.75 23.7426 5.74264 24.75 4.5 24.75H2.25C1.00736 24.75 0 23.7426 0 22.5C0 21.2574 1.00736 20.25 2.25 20.25H4.5C5.74264 20.25 6.75 21.2574 6.75 22.5Z" fill="#0E382D"/>
<path d="M38.4099 35.2279L36.8189 33.6369C35.9402 32.7582 34.5156 32.7582 33.6369 33.6369C32.7583 34.5156 32.7583 35.9402 33.6369 36.8189L35.2279 38.4099C36.1066 39.2886 37.5312 39.2886 38.4099 38.4099C39.2886 37.5312 39.2886 36.1066 38.4099 35.2279Z" fill="#0E382D"/>
<path d="M11.3631 11.3631C10.4844 12.2417 9.05977 12.2417 8.18109 11.3631L6.5901 9.77208C5.71142 8.8934 5.71142 7.46878 6.5901 6.5901C7.46878 5.71142 8.8934 5.71142 9.77208 6.5901L11.3631 8.18109C12.2417 9.05977 12.2417 10.4844 11.3631 11.3631Z" fill="#0E382D"/>
<path d="M6.5901 35.2279C5.71142 36.1066 5.71142 37.5312 6.5901 38.4099C7.46878 39.2886 8.8934 39.2886 9.77208 38.4099L11.3631 36.8189C12.2417 35.9402 12.2417 34.5156 11.3631 33.6369C10.4844 32.7583 9.05977 32.7583 8.18109 33.6369L6.5901 35.2279Z" fill="#0E382D"/>
<path d="M33.6369 11.3631C32.7582 10.4844 32.7582 9.05977 33.6369 8.18109L35.2279 6.5901C36.1066 5.71142 37.5312 5.71142 38.4099 6.5901C39.2886 7.46878 39.2886 8.8934 38.4099 9.77208L36.8189 11.3631C35.9402 12.2417 34.5156 12.2418 33.6369 11.3631Z" fill="#0E382D"/>
<path d="M15.4992 26.1121C13.9677 23.1462 14.4492 19.4139 16.9315 16.9315C20.0069 13.8562 24.9931 13.8562 28.0685 16.9315C30.5508 19.4139 31.0322 23.1462 29.5008 26.1121C28.9307 27.2162 29.3636 28.5735 30.4677 29.1436C31.5718 29.7137 32.9291 29.2808 33.4992 28.1767C35.9031 23.5212 35.1575 17.6566 31.2504 13.7496C26.4177 8.91681 18.5823 8.91681 13.7495 13.7496C9.84248 17.6566 9.09687 23.5212 11.5008 28.1767C12.0709 29.2808 13.4281 29.7137 14.5323 29.1436C15.6364 28.5735 16.0693 27.2162 15.4992 26.1121Z" fill="#0E382D"/>
</svg>
