<svg id="Group_24" data-name="Group 24" xmlns="http://www.w3.org/2000/svg" width="24" height="24.001" viewBox="0 0 24 24.001">
  <path id="Path_26" data-name="Path 26" d="M19,2H18V1a1,1,0,0,0-2,0V2H8V1A1,1,0,0,0,6,1V2H5A5.006,5.006,0,0,0,0,7V19a5.006,5.006,0,0,0,5,5h7a1,1,0,0,0,0-2H5a3,3,0,0,1-3-3V10H22v2a1,1,0,0,0,2,0V7A5.006,5.006,0,0,0,19,2ZM2,8V7A3,3,0,0,1,5,4H19a3,3,0,0,1,3,3V8ZM19.75,18.336l1.586-1.586.207.207a1,1,0,1,0,1.414-1.414l-4.5-4.5a1,1,0,0,0-1.414,1.414l.056.056L12.513,17.1l-.056-.056a1,1,0,0,0-1.414,1.414l4.5,4.5a1,1,0,1,0,1.414-1.414l-.207-.207,1.586-1.586,3.957,3.957a1,1,0,1,0,1.414-1.414Zm-5.823.177,4.586-4.586,1.409,1.409-4.586,4.586Z" fill="#1b8354"/>
</svg>
