<svg width="24" height="24" viewBox="0 0 24 24" fill="none" xmlns="http://www.w3.org/2000/svg">
<path fill-rule="evenodd" clip-rule="evenodd" d="M16.3588 4.76833C16.6912 5.91319 17.7479 6.75 19 6.75C20.5188 6.75 21.75 5.51878 21.75 4C21.75 2.48122 20.5188 1.25 19 1.25C17.7353 1.25 16.67 2.10371 16.349 3.26629C9.3703 3.61752 4.51808 9.60874 4.26076 17.3505C3.10101 17.6734 2.25 18.7373 2.25 20C2.25 21.5188 3.48122 22.75 5 22.75C6.51878 22.75 7.75 21.5188 7.75 20C7.75 18.7453 6.90972 17.6869 5.76121 17.3567C6.01036 10.241 10.3896 5.11148 16.3588 4.76833ZM19 2.75C18.3096 2.75 17.75 3.30964 17.75 4C17.75 4.69036 18.3096 5.25 19 5.25C19.6904 5.25 20.25 4.69036 20.25 4C20.25 3.30964 19.6904 2.75 19 2.75ZM5 18.75C4.30964 18.75 3.75 19.3096 3.75 20C3.75 20.6904 4.30964 21.25 5 21.25C5.69036 21.25 6.25 20.6904 6.25 20C6.25 19.3096 5.69036 18.75 5 18.75Z" fill="#1B8354"/>
</svg>
