<svg width="32" height="32" viewBox="0 0 32 32" fill="none" xmlns="http://www.w3.org/2000/svg">
<g opacity="0.4">
<path d="M14.3332 8C14.3332 7.44772 14.7809 7 15.3332 7H16.6665C17.2188 7 17.6665 7.44772 17.6665 8C17.6665 8.55228 17.2188 9 16.6665 9H15.3332C14.7809 9 14.3332 8.55228 14.3332 8Z" fill="#1B8354"/>
<path d="M2.66651 15C3.21879 15 3.66651 15.4477 3.66651 16V20.6667C3.66651 21.6238 3.66772 22.2664 3.71755 22.7562C3.76568 23.2294 3.85077 23.448 3.94739 23.5926C4.06899 23.7746 4.22524 23.9309 4.40722 24.0525C4.55182 24.1491 4.77045 24.2342 5.24361 24.2823C5.73348 24.3321 6.37605 24.3333 7.33317 24.3333C7.88546 24.3333 8.33317 24.781 8.33317 25.3333C8.33317 25.8856 7.88546 26.3333 7.33317 26.3333L7.28206 26.3333C6.38928 26.3334 5.64431 26.3334 5.0412 26.272C4.4099 26.2078 3.82408 26.0682 3.29608 25.7154C2.89572 25.4479 2.55197 25.1041 2.28445 24.7038C1.93166 24.1758 1.79204 23.5899 1.72782 22.9586C1.66647 22.3555 1.66648 21.6106 1.6665 20.7179V16C1.6665 15.4477 2.11422 15 2.66651 15Z" fill="#1B8354"/>
<path d="M30.3332 16C30.3332 15.4477 29.8855 15 29.3332 15C28.7809 15 28.3332 15.4477 28.3332 16V20.6667C28.3332 21.6238 28.332 22.2664 28.2821 22.7562C28.234 23.2294 28.1489 23.448 28.0523 23.5926C27.9307 23.7746 27.7744 23.9309 27.5925 24.0525C27.4479 24.1491 27.2292 24.2342 26.7561 24.2823C26.2662 24.3321 25.6236 24.3333 24.6665 24.3333C24.1142 24.3333 23.6665 24.781 23.6665 25.3333C23.6665 25.8856 24.1142 26.3333 24.6665 26.3333L24.7176 26.3333C25.6104 26.3334 26.3554 26.3334 26.9585 26.272C27.5898 26.2078 28.1756 26.0682 28.7036 25.7154C29.104 25.4479 29.4477 25.1041 29.7152 24.7038C30.068 24.1758 30.2076 23.5899 30.2719 22.9586C30.3332 22.3555 30.3332 21.6106 30.3332 20.7178V16Z" fill="#1B8354"/>
</g>
<path fill-rule="evenodd" clip-rule="evenodd" d="M12.9998 5.33341V10.6667C12.9998 11.3923 12.5035 11.8264 12.1666 12.0605C11.8364 12.29 11.3764 12.5189 10.8905 12.7607L8.39592 14.0025L8.33299 14.0343C8.10966 14.1479 7.74502 14.3334 7.33317 14.3334C6.92132 14.3334 6.55668 14.1479 6.33335 14.0343L6.27042 14.0025L3.77586 12.7606C3.28996 12.5189 2.82995 12.29 2.49974 12.0605C2.16282 11.8264 1.6665 11.3924 1.6665 10.6667V5.33341C1.6665 4.60781 2.16282 4.17381 2.49974 3.93968C2.82996 3.7102 3.28996 3.48131 3.77587 3.23952L6.27042 1.99767L6.33335 1.96586C6.55668 1.85225 6.92132 1.66675 7.33317 1.66675C7.74502 1.66675 8.10966 1.85225 8.33298 1.96586L8.39592 1.99767L10.8905 3.23951C11.3764 3.4813 11.8364 3.71021 12.1666 3.93968C12.5035 4.17381 12.9998 4.60781 12.9998 5.33341ZM7.33317 3.70356C7.28647 3.726 7.23233 3.75293 7.16173 3.78808L4.72774 4.99979C4.45637 5.13489 4.24092 5.24281 4.06867 5.33341C4.24092 5.42402 4.45637 5.53194 4.72774 5.66704L7.16173 6.87875C7.23233 6.9139 7.28647 6.94083 7.33317 6.96327C7.37987 6.94082 7.43401 6.9139 7.50461 6.87875L9.9386 5.66704C10.21 5.53195 10.4254 5.42402 10.5977 5.33341C10.4254 5.2428 10.21 5.13488 9.9386 4.99979L7.50461 3.78808C7.43401 3.75293 7.37987 3.726 7.33317 3.70356ZM10.9998 7.37287L8.39592 8.66916L8.33317 8.70087V11.7996L9.9386 11.0004C10.4834 10.7291 10.8028 10.5675 10.9998 10.4355V7.37287ZM6.33317 11.7996L4.72774 11.0004C4.18291 10.7291 3.86351 10.5675 3.6665 10.4355V7.37286L6.27042 8.66916L6.33317 8.70087V11.7996Z" fill="#1B8354"/>
<path fill-rule="evenodd" clip-rule="evenodd" d="M30.3332 5.33341V10.6667C30.3332 11.3923 29.8369 11.8264 29.4999 12.0605C29.1697 12.29 28.7097 12.5189 28.2238 12.7607L25.7293 14.0025L25.6663 14.0343C25.443 14.1479 25.0784 14.3334 24.6665 14.3334C24.2547 14.3334 23.89 14.1479 23.6667 14.0343L23.6037 14.0025L21.1092 12.7606C20.6233 12.5189 20.1633 12.29 19.8331 12.0605C19.4961 11.8264 18.9998 11.3924 18.9998 10.6667V5.33341C18.9998 4.60781 19.4961 4.17381 19.8331 3.93968C20.1633 3.7102 20.6233 3.48131 21.1092 3.23952L23.6037 1.99767L23.6667 1.96586C23.89 1.85225 24.2547 1.66675 24.6665 1.66675C25.0784 1.66675 25.443 1.85225 25.6663 1.96586L25.7293 1.99767L28.2238 3.23951C28.7097 3.4813 29.1697 3.71021 29.4999 3.93968C29.8369 4.17381 30.3332 4.60781 30.3332 5.33341ZM24.6665 3.70356C24.6198 3.726 24.5657 3.75293 24.4951 3.78808L22.0611 4.99979C21.7897 5.13489 21.5743 5.24281 21.402 5.33341C21.5743 5.42402 21.7897 5.53194 22.0611 5.66704L24.4951 6.87875C24.5657 6.9139 24.6198 6.94083 24.6665 6.96327C24.7132 6.94082 24.7673 6.9139 24.8379 6.87875L27.2719 5.66704C27.5433 5.53195 27.7588 5.42402 27.931 5.33341C27.7588 5.2428 27.5433 5.13488 27.2719 4.99979L24.8379 3.78808C24.7673 3.75293 24.7132 3.726 24.6665 3.70356ZM28.3332 7.37287L25.7293 8.66916L25.6665 8.70087V11.7996L27.2719 11.0004C27.8168 10.7291 28.1362 10.5675 28.3332 10.4355V7.37287ZM23.6665 11.7996L22.0611 11.0004C21.5162 10.7291 21.1968 10.5675 20.9998 10.4355V7.37286L23.6037 8.66916L23.6665 8.70087V11.7996Z" fill="#1B8354"/>
<path fill-rule="evenodd" clip-rule="evenodd" d="M21.6665 26.6667V21.3334C21.6665 20.6078 21.1702 20.1738 20.8333 19.9397C20.5031 19.7102 20.043 19.4813 19.5571 19.2395L17.0626 17.9977L16.9997 17.9659C16.7763 17.8523 16.4117 17.6667 15.9998 17.6667C15.588 17.6667 15.2233 17.8523 15 17.9659L14.9371 17.9977L12.4425 19.2395C11.9566 19.4813 11.4966 19.7102 11.1664 19.9397C10.8295 20.1738 10.3332 20.6078 10.3332 21.3334V26.6667C10.3332 27.3924 10.8295 27.8264 11.1664 28.0605C11.4966 28.29 11.9566 28.5189 12.4425 28.7606L14.9371 30.0025L15 30.0343C15.2233 30.1479 15.588 30.3334 15.9998 30.3334C16.4117 30.3334 16.7763 30.1479 16.9997 30.0343L17.0626 30.0025L19.5571 28.7607C20.043 28.5189 20.5031 28.29 20.8333 28.0605C21.1702 27.8264 21.6665 27.3924 21.6665 26.6667ZM15.8284 19.7881C15.899 19.7529 15.9531 19.726 15.9998 19.7036C16.0465 19.726 16.1007 19.7529 16.1713 19.7881L18.6053 20.9998C18.8766 21.1349 19.0921 21.2428 19.2643 21.3334C19.0921 21.424 18.8766 21.5319 18.6053 21.667L16.1713 22.8788C16.1007 22.9139 16.0465 22.9408 15.9998 22.9633C15.9531 22.9408 15.899 22.9139 15.8284 22.8788L13.3944 21.667C13.123 21.5319 12.9076 21.424 12.7353 21.3334C12.9076 21.2428 13.123 21.1349 13.3944 20.9998L15.8284 19.7881ZM19.6665 23.3729V26.4355C19.4695 26.5675 19.1501 26.7291 18.6053 27.0004L16.9998 27.7996V24.7009L17.0626 24.6692L19.6665 23.3729ZM13.3944 27.0004L14.9998 27.7996V24.7009L14.9371 24.6692L12.3332 23.3729V26.4355C12.5302 26.5675 12.8496 26.7291 13.3944 27.0004Z" fill="#1B8354"/>
</svg>
