<svg width="32" height="32" viewBox="0 0 32 32" fill="none" xmlns="http://www.w3.org/2000/svg">
<g opacity="0.4">
<path fill-rule="evenodd" clip-rule="evenodd" d="M21.3315 5.06919C21.3315 6.94386 22.8262 8.46919 24.6649 8.46919C26.5035 8.46919 27.9982 6.94386 27.9982 5.06919C27.9982 3.19452 26.5035 1.66919 24.6649 1.66919C22.8262 1.66919 21.3315 3.19452 21.3315 5.06919ZM23.3315 5.06919C23.3315 4.29719 23.9302 3.66919 24.6649 3.66919C25.3995 3.66919 25.9982 4.29719 25.9982 5.06919C25.9982 5.84119 25.3995 6.46919 24.6649 6.46919C23.9302 6.46919 23.3315 5.84119 23.3315 5.06919Z" fill="#1B8354"/>
<path fill-rule="evenodd" clip-rule="evenodd" d="M22.3783 15.6692H26.9516V15.6719C27.9383 15.6719 28.8369 15.2119 29.7036 14.2626C30.3089 13.5932 30.3703 12.9438 30.3156 12.5158C30.1636 11.3318 29.0303 10.5892 28.2809 10.0985C28.2599 10.0846 28.2392 10.071 28.219 10.0576C28.156 10.0162 28.0974 9.97755 28.0449 9.94121C25.9916 8.52521 23.3383 8.52521 21.2849 9.94121C21.2408 9.97096 21.1922 10.0029 21.1404 10.0369C21.1109 10.0563 21.0804 10.0764 21.0489 10.0972C20.2996 10.5879 19.1663 11.3305 19.0143 12.5145C18.9596 12.9412 19.0209 13.5919 19.6289 14.2639C20.4929 15.2092 21.3916 15.6692 22.3783 15.6692ZM21.1089 12.9186C21.0303 12.8319 21.0063 12.7773 20.9996 12.7613V12.7598C21.0383 12.5732 21.4236 12.2399 22.1449 11.7679C22.2476 11.7012 22.3409 11.6399 22.4209 11.5839C23.8049 10.6293 25.5249 10.6293 26.9089 11.5839C26.9889 11.6399 27.0823 11.7012 27.1849 11.7679C27.9063 12.2412 28.2916 12.5745 28.3303 12.7598C28.3236 12.7772 28.3009 12.8292 28.2236 12.9145C27.6129 13.5839 27.2236 13.6692 26.9516 13.6692H22.3783C22.1063 13.6692 21.7156 13.5839 21.1089 12.9186Z" fill="#1B8354"/>
</g>
<path d="M5.34868 30.1719C5.92602 30.2799 6.51135 30.3333 7.09535 30.3333C8.66201 30.3333 10.2273 29.9492 11.6327 29.2066C11.6353 29.2052 11.6377 29.2039 11.64 29.2025C11.6423 29.2012 11.6447 29.1998 11.6473 29.1985L11.6638 29.1894C11.9206 29.0484 12.2877 28.8468 12.426 28.7959C12.5527 28.7999 12.89 28.8585 13.234 28.9185C14.1434 29.0892 15.0727 29.1758 15.9993 29.1758C19.326 29.1758 22.6007 28.0692 25.222 26.0625C27.85 24.0506 29.6567 21.2626 30.3113 18.2119C30.4273 17.6719 30.0833 17.1399 29.5433 17.0239C29.0033 16.9065 28.4714 17.2518 28.3554 17.7918C27.8007 20.3785 26.2567 22.7519 24.006 24.4745C21.0994 26.6999 17.27 27.6412 13.5913 26.9506C12.8833 26.8279 12.5273 26.7665 12.166 26.8105C11.7647 26.8598 11.4033 27.0505 10.6913 27.4425C9.62734 28.0038 8.45002 28.3052 7.26602 28.3318C7.59135 27.6758 7.82735 26.9719 7.96602 26.2412C8.14602 25.2852 7.79669 24.2731 7.00335 23.4598C4.85135 21.2771 3.66602 18.4252 3.66602 15.4292C3.66602 8.94522 9.19935 3.66919 15.9993 3.66919C16.3754 3.66919 16.782 3.69049 17.242 3.73182C17.7913 3.78515 18.2793 3.37581 18.3287 2.82648C18.378 2.27715 17.9727 1.79056 17.4233 1.73989C16.902 1.69189 16.4367 1.66919 15.9993 1.66919C8.09535 1.66919 1.66602 7.84255 1.66602 15.4292C1.66602 18.9545 3.05534 22.3052 5.57534 24.8612C5.73001 25.0199 6.08202 25.4359 6.00068 25.8692C5.81135 26.8652 5.38201 27.7946 4.75934 28.5559C4.53534 28.8292 4.47268 29.1998 4.59401 29.5318C4.71401 29.8638 5.00202 30.1066 5.34868 30.1719Z" fill="#1B8354"/>
<path d="M14.6649 16.0025C14.6649 16.7385 15.2675 17.3359 16.0035 17.3359C16.7395 17.3359 17.3369 16.7385 17.3369 16.0025C17.3369 15.2665 16.7395 14.6692 16.0035 14.6692H15.9929C15.2569 14.6692 14.6649 15.2665 14.6649 16.0025Z" fill="#1B8354"/>
<path d="M9.33822 16.0025C9.33822 16.7385 9.94087 17.3359 10.6769 17.3359C11.4129 17.3359 12.0102 16.7385 12.0102 16.0025C12.0102 15.2665 11.4129 14.6692 10.6769 14.6692H10.6649C9.92888 14.6692 9.33822 15.2665 9.33822 16.0025Z" fill="#1B8354"/>
</svg>
