<svg width="16" height="16" viewBox="0 0 16 16" fill="none" xmlns="http://www.w3.org/2000/svg">
<path d="M5.00016 5.49967C4.72402 5.49967 4.50016 5.72353 4.50016 5.99967C4.50016 6.27582 4.72402 6.49967 5.00016 6.49967L6.3335 6.49967C6.60964 6.49967 6.8335 6.27582 6.8335 5.99967C6.8335 5.72353 6.60964 5.49967 6.3335 5.49967L5.00016 5.49967Z" fill="#384250"/>
<path d="M5.00016 8.16634C4.72402 8.16634 4.50016 8.3902 4.50016 8.66634C4.50016 8.94248 4.72402 9.16634 5.00016 9.16634H6.3335C6.60964 9.16634 6.8335 8.94248 6.8335 8.66634C6.8335 8.3902 6.60964 8.16634 6.3335 8.16634L5.00016 8.16634Z" fill="#384250"/>
<path d="M5.00016 10.833C4.72402 10.833 4.50016 11.0569 4.50016 11.333C4.50016 11.6092 4.72402 11.833 5.00016 11.833H6.3335C6.60964 11.833 6.8335 11.6092 6.8335 11.333C6.8335 11.0569 6.60964 10.833 6.3335 10.833H5.00016Z" fill="#384250"/>
<path fill-rule="evenodd" clip-rule="evenodd" d="M1.3335 14.1663C1.05735 14.1663 0.833496 14.3902 0.833496 14.6663C0.833496 14.9425 1.05735 15.1663 1.3335 15.1663L14.6668 15.1663C14.943 15.1663 15.1668 14.9425 15.1668 14.6663C15.1668 14.3902 14.943 14.1663 14.6668 14.1663H13.8336L13.8336 7.46743C13.8337 7.28683 13.8337 7.11004 13.8155 6.95928C13.7947 6.78641 13.7463 6.60633 13.623 6.43541C13.5035 6.26965 13.35 6.16338 13.1983 6.08068C13.0582 6.00425 12.8826 5.92899 12.6896 5.84632L9.16683 4.33656L9.16684 3.07581C9.16688 2.60894 9.16692 2.19884 9.11602 1.88259C9.06111 1.54145 8.92786 1.18429 8.55881 0.973848C8.20232 0.770565 7.82497 0.819401 7.49053 0.920371C7.16915 1.0174 6.77785 1.19794 6.31991 1.40923L3.26753 2.81737C3.08219 2.90286 2.91145 2.98161 2.77501 3.06171C2.62553 3.14946 2.47726 3.26081 2.36343 3.43074C2.24786 3.60328 2.2033 3.78298 2.18395 3.95571C2.16678 4.10888 2.16681 4.28938 2.16683 4.47832L2.16683 14.1663H1.3335ZM9.16683 14.1663L12.8336 14.1663L12.8336 7.49035C12.8336 7.27794 12.8328 7.16265 12.8227 7.07904C12.8183 7.04266 12.8135 7.02611 12.8116 7.02052L12.8112 7.01945L12.8102 7.0184C12.8088 7.01693 12.8056 7.01376 12.7994 7.00889C12.7865 6.99855 12.7627 6.98217 12.7195 6.9586C12.626 6.9076 12.4948 6.85079 12.2768 6.75735L9.16683 5.42452L9.16683 14.1663ZM8.16683 14.1663L8.16683 3.1165C8.16683 2.59659 8.16528 2.26862 8.12872 2.04149C8.11149 1.93441 8.0908 1.88264 8.07832 1.85989C8.07113 1.84677 8.0685 1.84532 8.06461 1.84318L8.06345 1.84254C8.05783 1.83933 8.047 1.83315 8.01216 1.83301C7.96948 1.83282 7.89757 1.84206 7.77955 1.87769C7.53331 1.95203 7.20609 2.10169 6.70546 2.33265L3.70546 3.71663C3.49472 3.81385 3.36989 3.87206 3.28128 3.92408C3.24068 3.94792 3.21879 3.96424 3.207 3.97436C3.19717 3.98279 3.19469 3.98661 3.1943 3.98721C3.19408 3.9875 3.19283 3.98913 3.19057 3.99624C3.18749 4.00591 3.18225 4.02668 3.17772 4.06707C3.16756 4.15781 3.16683 4.28129 3.16683 4.50048L3.16683 14.1663L8.16683 14.1663Z" fill="#384250"/>
</svg>
