<svg xmlns="http://www.w3.org/2000/svg" width="24.001" height="24" viewBox="0 0 24.001 24">
  <g id="Group_21" data-name="Group 21" transform="translate(0 0)">
    <path id="Path_23" data-name="Path 23" d="M8,11a2.5,2.5,0,1,1,2.5-2.5A2.5,2.5,0,0,1,8,11Zm15,0a1,1,0,0,0-1,1v3a3,3,0,0,1-3,3H5a3,3,0,0,1-3-3V7A3,3,0,0,1,5,4h6a1,1,0,0,0,0-2H5A5.006,5.006,0,0,0,0,7v8a5.006,5.006,0,0,0,5,5h6v2H7a1,1,0,0,0,0,2H17a1,1,0,0,0,0-2H13V20h6a5.006,5.006,0,0,0,5-5V12A1,1,0,0,0,23,11ZM4.063,14.649a1,1,0,1,0,1.873.7A2.177,2.177,0,0,1,8,14a2.177,2.177,0,0,1,2.063,1.351,1,1,0,1,0,1.873-.7A4.185,4.185,0,0,0,8,12a4.185,4.185,0,0,0-3.937,2.649ZM24,3V6a3,3,0,0,1-3,3H18.353l-2.127,1.711a1.4,1.4,0,0,1-1.48.133A1.38,1.38,0,0,1,14,9.623V3a3,3,0,0,1,3-3h4A3.011,3.011,0,0,1,24,3ZM22,3a1,1,0,0,0-1-1H17a1,1,0,0,0-1,1V8.326L17.373,7.22A1,1,0,0,1,18,7h3a1,1,0,0,0,1-1Z" fill="#1b8354"/>
  </g>
</svg>
