<svg width="24" height="24" viewBox="0 0 24 24" fill="none" xmlns="http://www.w3.org/2000/svg">
<path fill-rule="evenodd" clip-rule="evenodd" d="M15.9141 17.251C15.7251 17.251 15.5361 17.233 15.3481 17.196C14.5481 17.027 13.874 16.767 13.153 16.351C11.538 15.429 10.0791 13.9681 9.15007 12.3441C8.72507 11.6081 8.46608 10.934 8.30808 10.16C8.08108 9.03599 8.53805 7.84899 9.50105 7.05999C9.81705 6.80299 10.1921 6.70103 10.5601 6.77103C10.9231 6.84003 11.2421 7.07808 11.4361 7.42308L11.8311 8.13704L11.8327 8.13988C12.1828 8.77029 12.413 9.18478 12.3571 9.70999C12.3021 10.2447 11.9894 10.6017 11.5157 11.1422L11.5151 11.143L10.7271 12.047C11.4271 13.115 12.3861 14.075 13.4481 14.772L14.3541 13.983L14.3586 13.9791C14.903 13.5063 15.2606 13.1959 15.7911 13.142C16.3411 13.086 16.7721 13.333 17.3681 13.675L18.0681 14.062C18.4151 14.25 18.657 14.57 18.728 14.938C18.8 15.309 18.6971 15.685 18.4381 15.997C17.7891 16.796 16.8581 17.25 15.9131 17.25L15.9141 17.251ZM14.8841 15.513C15.1721 15.617 15.4241 15.679 15.6491 15.726C16.1451 15.824 16.685 15.641 17.101 15.242L16.6391 14.987C16.6391 14.987 16.636 14.9853 16.6331 14.9835C16.6316 14.9826 16.6301 14.9817 16.6291 14.981C16.4081 14.854 16.0391 14.643 15.9421 14.637C15.8631 14.663 15.5871 14.902 15.3441 15.113L14.8841 15.513ZM9.77805 9.86107C9.66012 9.27842 9.92473 8.75165 10.2604 8.39765L10.5211 8.868L10.5434 8.90851C10.6953 9.1834 10.8469 9.45777 10.8631 9.55404C10.8311 9.64604 10.5951 9.91606 10.3841 10.1571L9.98606 10.614C9.89906 10.372 9.83205 10.1251 9.77805 9.86107Z" fill="#1B8354"/>
<path fill-rule="evenodd" clip-rule="evenodd" d="M13.5 22.75H12C8.02721 22.75 6.03296 22.75 4.64199 21.361C3.96593 20.6859 3.61822 19.8681 3.43938 18.75H2.5C2.086 18.75 1.75 18.414 1.75 18C1.75 17.586 2.086 17.25 2.5 17.25H3.29544C3.25 16.3391 3.25 15.2707 3.25 14.0001V12.75H2.5C2.086 12.75 1.75 12.414 1.75 12C1.75 11.586 2.086 11.25 2.5 11.25H3.25V10C3.25 8.72934 3.25 7.66093 3.29544 6.75H2.5C2.086 6.75 1.75 6.414 1.75 6C1.75 5.586 2.086 5.25 2.5 5.25H3.43938C3.61822 4.13185 3.96593 3.31405 4.64199 2.63896C6.03196 1.25 8.0269 1.25 11.9997 1.25H13.5C17.4728 1.25 19.467 1.25 20.858 2.63896C22.25 4.02896 22.25 6.02398 22.25 9.99993V14C22.25 17.976 22.25 19.971 20.858 21.361C19.468 22.75 17.4728 22.75 13.5 22.75ZM4.96615 5.25C5.10431 4.56928 5.33078 4.07142 5.702 3.70098C6.65298 2.75 8.43991 2.75 11.9997 2.75H13.5C17.0598 2.75 18.846 2.75 19.798 3.70098C20.75 4.65098 20.75 6.439 20.75 10V14C20.75 17.561 20.75 19.349 19.798 20.299C18.847 21.25 17.0601 21.25 13.5003 21.25H12C8.44017 21.25 6.65398 21.25 5.702 20.299C5.33078 19.9286 5.10431 19.4307 4.96615 18.75H5C5.414 18.75 5.75 18.414 5.75 18C5.75 17.586 5.414 17.25 5 17.25H4.79703C4.75 16.3746 4.75 15.3067 4.75 14V12.75H5C5.414 12.75 5.75 12.414 5.75 12C5.75 11.586 5.414 11.25 5 11.25H4.75V10C4.75 8.69335 4.75 7.62541 4.79703 6.75H5C5.414 6.75 5.75 6.414 5.75 6C5.75 5.586 5.414 5.25 5 5.25H4.96615Z" fill="#1B8354"/>
</svg>
