<svg width="20" height="20" viewBox="0 0 20 20" fill="none" xmlns="http://www.w3.org/2000/svg">
<path d="M7.9418 7.05841C7.69774 6.81432 7.30201 6.8143 7.05792 7.05836C6.81383 7.30243 6.81381 7.69815 7.05787 7.94224L9.116 10.0006L7.05841 12.0584C6.81434 12.3025 6.81436 12.6982 7.05845 12.9423C7.30254 13.1864 7.69827 13.1863 7.94234 12.9422L9.99984 10.8845L12.0573 12.9422C12.3014 13.1863 12.6971 13.1864 12.9412 12.9423C13.1853 12.6982 13.1853 12.3025 12.9413 12.0584L10.8837 10.0006L12.9418 7.94224C13.1859 7.69815 13.1858 7.30243 12.9418 7.05836C12.6977 6.8143 12.3019 6.81432 12.0579 7.05841L9.99984 9.11666L7.9418 7.05841Z" fill="#384250"/>
<path fill-rule="evenodd" clip-rule="evenodd" d="M9.99984 18.9587C5.05229 18.9587 1.0415 14.9479 1.0415 10.0003C1.0415 5.05277 5.05229 1.04199 9.99984 1.04199C14.9474 1.04199 18.9582 5.05277 18.9582 10.0003C18.9582 14.9479 14.9474 18.9587 9.99984 18.9587ZM2.2915 10.0003C2.2915 14.2575 5.74264 17.7087 9.99984 17.7087C14.257 17.7087 17.7082 14.2575 17.7082 10.0003C17.7082 5.74313 14.257 2.29199 9.99984 2.29199C5.74264 2.29199 2.2915 5.74313 2.2915 10.0003Z" fill="#384250"/>
</svg>
