<svg xmlns="http://www.w3.org/2000/svg" width="24" height="24" viewBox="0 0 24 24">
  <g id="Group_27" data-name="Group 27" transform="translate(-0.003 0)">
    <path id="Path_29" data-name="Path 29" d="M24,6V18.231a3,3,0,0,1-.772,2.01L19.837,24H17.144l4.6-5.1A1,1,0,0,0,22,18.231V6a1,1,0,0,0-2,0v8h0a2.986,2.986,0,0,1-.7,1.922l-2.578,2.684L15.281,17.22l2.533-2.634A.892.892,0,0,0,18,14a1.239,1.239,0,0,0-.254-.669,1,1,0,0,0-1.406-.077L13.434,15.93A3,3,0,0,1,14,17.686V24H12V17.686a1,1,0,0,0-.323-.735l-4.026-3.7a1,1,0,0,0-1.418,1.391L8.8,17.308,7.364,18.694,4.748,15.973A3.09,3.09,0,0,1,4.013,14H4V6A1,1,0,0,0,2,6V18.231a1,1,0,0,0,.258.671l4.6,5.1H4.166L.775,20.241A3,3,0,0,1,0,18.231V6A3,3,0,0,1,6,6v5.171a3,3,0,0,1,3,.594l3,2.764L15,11.773a3.008,3.008,0,0,1,3.005-.6V6a3,3,0,0,1,6,0ZM6.981,3.16a3.086,3.086,0,0,1,3-3.16,3.009,3.009,0,0,1,2,.727,3.009,3.009,0,0,1,2-.727,3.086,3.086,0,0,1,3,3.16c0,2.651-3.69,5.348-4.43,5.861l-.57.4-.57-.4c-.74-.514-4.43-3.21-4.43-5.861Zm2,0c0,1.052,1.6,2.71,3,3.8,1.395-1.089,3-2.75,3-3.8a1.09,1.09,0,0,0-1-1.16.948.948,0,0,0-1,1h-2a.948.948,0,0,0-1-1,1.091,1.091,0,0,0-1,1.16Z" fill="#1b8354"/>
  </g>
</svg>
