<svg width="16" height="16" viewBox="0 0 16 16" fill="none" xmlns="http://www.w3.org/2000/svg">
<path d="M11.0354 6.34047C11.222 6.13691 11.2083 5.82063 11.0047 5.63403C10.8011 5.44743 10.4848 5.46119 10.2983 5.66474L6.98446 9.27979L5.68705 7.98239C5.49179 7.78712 5.17521 7.78712 4.97994 7.98239C4.78468 8.17765 4.78468 8.49423 4.97994 8.68949L6.64661 10.3562C6.74304 10.4526 6.87468 10.5055 7.01102 10.5025C7.14737 10.4995 7.27659 10.441 7.36874 10.3405L11.0354 6.34047Z" fill="#1B8354"/>
<path fill-rule="evenodd" clip-rule="evenodd" d="M8.00016 15.1693C4.04212 15.1693 0.833496 11.9606 0.833496 8.0026C0.833496 4.04456 4.04212 0.835938 8.00016 0.835938C11.9582 0.835938 15.1668 4.04456 15.1668 8.0026C15.1668 11.9606 11.9582 15.1693 8.00016 15.1693ZM1.8335 8.0026C1.8335 11.4084 4.59441 14.1693 8.00016 14.1693C11.4059 14.1693 14.1668 11.4084 14.1668 8.0026C14.1668 4.59685 11.4059 1.83594 8.00016 1.83594C4.59441 1.83594 1.8335 4.59685 1.8335 8.0026Z" fill="#1B8354"/>
</svg>
