<svg xmlns="http://www.w3.org/2000/svg" width="165.632" height="173.521" viewBox="0 0 165.632 173.521">
  <g id="Companies_with_the_private_sector" data-name="Companies with the private sector" transform="translate(-3 -2)">
    <path id="Path_65511" data-name="Path 65511" d="M152.858,167.633V61.156a3.944,3.944,0,0,0-2.768-3.766L89.76,38.539V5.945a3.944,3.944,0,0,0-5.119-3.766L21.543,21.9a3.944,3.944,0,0,0-2.768,3.766v141.97H3v7.887H168.632v-7.887ZM26.662,28.562,81.872,11.308V167.633H26.662Zm63.1,139.072V46.8L144.97,64.054V167.633Zm47.323-15.774a3.944,3.944,0,0,1-3.944,3.944h-7.887a3.944,3.944,0,0,1,0-7.887h7.887A3.944,3.944,0,0,1,137.083,151.859Zm-23.662,0a3.944,3.944,0,0,1-3.944,3.944h-7.887a3.944,3.944,0,0,1,0-7.887h7.887A3.944,3.944,0,0,1,113.421,151.859Zm23.662-15.774a3.944,3.944,0,0,1-3.944,3.944h-7.887a3.944,3.944,0,1,1,0-7.887h7.887A3.944,3.944,0,0,1,137.083,136.084Zm-23.662,0a3.944,3.944,0,0,1-3.944,3.944h-7.887a3.944,3.944,0,1,1,0-7.887h7.887A3.944,3.944,0,0,1,113.421,136.084Zm23.662-15.774a3.944,3.944,0,0,1-3.944,3.944h-7.887a3.944,3.944,0,0,1,0-7.887h7.887A3.944,3.944,0,0,1,137.083,120.31Zm-23.662,0a3.944,3.944,0,0,1-3.944,3.944h-7.887a3.944,3.944,0,0,1,0-7.887h7.887A3.944,3.944,0,0,1,113.421,120.31Zm23.662-15.774a3.944,3.944,0,0,1-3.944,3.944h-7.887a3.944,3.944,0,1,1,0-7.887h7.887A3.944,3.944,0,0,1,137.083,104.535Zm-23.662,0a3.944,3.944,0,0,1-3.944,3.944h-7.887a3.944,3.944,0,1,1,0-7.887h7.887A3.944,3.944,0,0,1,113.421,104.535Zm23.662-15.774a3.944,3.944,0,0,1-3.944,3.944h-7.887a3.944,3.944,0,0,1,0-7.887h7.887A3.944,3.944,0,0,1,137.083,88.761Zm-23.662,0a3.944,3.944,0,0,1-3.944,3.944h-7.887a3.944,3.944,0,0,1,0-7.887h7.887A3.944,3.944,0,0,1,113.421,88.761Zm23.662-15.774a3.944,3.944,0,0,1-3.944,3.944h-7.887a3.944,3.944,0,0,1,0-7.887h7.887A3.944,3.944,0,0,1,137.083,72.986Zm-23.662,0a3.944,3.944,0,0,1-3.944,3.944h-7.887a3.944,3.944,0,0,1,0-7.887h7.887A3.944,3.944,0,0,1,113.421,72.986Zm-39.436,63.1v15.774a3.944,3.944,0,1,1-7.887,0V136.084a3.944,3.944,0,0,1,7.887,0Zm-15.774,0v15.774a3.944,3.944,0,1,1-7.887,0V136.084a3.944,3.944,0,1,1,7.887,0Zm-15.774,0v15.774a3.944,3.944,0,1,1-7.887,0V136.084a3.944,3.944,0,0,1,7.887,0Zm31.549-31.549V120.31a3.944,3.944,0,1,1-7.887,0V104.535a3.944,3.944,0,0,1,7.887,0Zm-15.774,0V120.31a3.944,3.944,0,1,1-7.887,0V104.535a3.944,3.944,0,1,1,7.887,0Zm-15.774,0V120.31a3.944,3.944,0,1,1-7.887,0V104.535a3.944,3.944,0,0,1,7.887,0ZM73.985,72.986V88.761a3.944,3.944,0,0,1-7.887,0V72.986a3.944,3.944,0,0,1,7.887,0Zm-15.774,0V88.761a3.944,3.944,0,1,1-7.887,0V72.986a3.944,3.944,0,1,1,7.887,0Zm-15.774,0V88.761a3.944,3.944,0,0,1-7.887,0V72.986a3.944,3.944,0,0,1,7.887,0ZM73.985,41.438V57.212a3.944,3.944,0,0,1-7.887,0V41.438a3.944,3.944,0,1,1,7.887,0Zm-15.774,0V57.212a3.944,3.944,0,0,1-7.887,0V41.438a3.944,3.944,0,1,1,7.887,0Zm-15.774,0V57.212a3.944,3.944,0,0,1-7.887,0V41.438a3.944,3.944,0,1,1,7.887,0Z" transform="translate(0 0)" fill="#00ac65"/>
  </g>
</svg>
