<svg width="24" height="24" viewBox="0 0 24 24" fill="none" xmlns="http://www.w3.org/2000/svg">
<path fill-rule="evenodd" clip-rule="evenodd" d="M16.0457 1.25H15.4543C14.6683 1.24998 14.0127 1.24996 13.4922 1.3112C12.9491 1.37509 12.4394 1.51594 12.0187 1.88406C11.5836 2.2648 11.4027 2.74838 11.3228 3.2684C11.2499 3.74266 11.25 4.33284 11.25 5.00765V5.99233C11.25 6.66714 11.2499 7.25735 11.3228 7.7316C11.4027 8.25163 11.5836 8.73521 12.0187 9.11594C12.4394 9.48407 12.9491 9.62492 13.4922 9.6888C14.0127 9.75004 14.6683 9.75003 15.4543 9.75H16.0457C16.8317 9.75003 17.4873 9.75004 18.0079 9.6888C18.5509 9.62492 19.0606 9.48407 19.4813 9.11594C19.7899 8.84598 19.9706 8.52431 20.0781 8.1746C20.211 8.26012 20.3369 8.3356 20.4557 8.39839C20.8266 8.59441 21.3357 8.78168 21.8733 8.54846C22.4417 8.30195 22.6202 7.77503 22.6873 7.36027C22.7502 6.97114 22.7501 6.46152 22.75 5.90181V5.0982C22.7501 4.53849 22.7502 4.02886 22.6873 3.63974C22.6202 3.22497 22.4417 2.69806 21.8733 2.45155C21.3357 2.21833 20.8266 2.40559 20.4557 2.60162C20.3369 2.6644 20.211 2.73989 20.0781 2.8254C19.9706 2.4757 19.7899 2.15403 19.4813 1.88406C19.0606 1.51594 18.5509 1.37509 18.0079 1.3112C17.4873 1.24996 16.8317 1.24998 16.0457 1.25ZM21.1567 7.07226C20.9381 6.95668 20.6585 6.7631 20.249 6.46905C20.25 6.3155 20.25 6.15651 20.25 5.99252V5.00768C20.25 4.84369 20.25 4.6845 20.249 4.53096C20.6585 4.23691 20.9381 4.04332 21.1567 3.92774C21.176 3.91757 21.1936 3.90861 21.2098 3.90071C21.2477 4.15526 21.25 4.53627 21.25 5.15791V5.84209C21.25 6.46373 21.2478 6.84475 21.2098 7.09929C21.1936 7.0914 21.176 7.08244 21.1567 7.07226ZM13.0064 3.01293C13.0983 2.93256 13.2574 2.84916 13.6674 2.80093C14.0899 2.75123 14.6564 2.75 15.5 2.75H16C16.8436 2.75 17.4101 2.75123 17.8326 2.80093C18.2426 2.84916 18.4017 2.93256 18.4936 3.01293C18.571 3.08068 18.6464 3.18227 18.6946 3.49621C18.7479 3.84311 18.75 4.31653 18.75 5.0625V5.9375C18.75 6.68347 18.7479 7.1569 18.6946 7.5038C18.6464 7.81774 18.571 7.91932 18.4936 7.98708C18.4017 8.06744 18.2426 8.15084 17.8326 8.19908C17.4101 8.24878 16.8436 8.25 16 8.25H15.5C14.6564 8.25 14.0899 8.24878 13.6674 8.19908C13.2574 8.15084 13.0983 8.06744 13.0064 7.98708C12.929 7.91932 12.8536 7.81774 12.8054 7.5038C12.7521 7.1569 12.75 6.68347 12.75 5.9375V5.0625C12.75 4.31653 12.7521 3.84311 12.8054 3.49621C12.8536 3.18227 12.929 3.08068 13.0064 3.01293Z" fill="#1B8354"/>
<path d="M9.75 1.99859C9.75131 2.4128 9.4166 2.74966 9.00239 2.75097C7.68397 2.75517 6.72142 2.77757 5.96584 2.88112C5.22335 2.98289 4.73692 3.15659 4.34909 3.42815C3.99076 3.67906 3.67909 3.99073 3.42818 4.34906C3.1241 4.78333 2.94281 5.34088 2.8476 6.24418C2.75097 7.16083 2.75 8.34414 2.75 9.99997C2.75 11.6558 2.75097 12.8391 2.8476 13.7558C2.94281 14.6591 3.1241 15.2166 3.42818 15.6509C3.67909 16.0092 3.99076 16.3209 4.34909 16.5718C4.78335 16.8759 5.34091 17.0572 6.24421 17.1524C7.16085 17.249 8.34417 17.25 10 17.25H14C15.6558 17.25 16.8391 17.249 17.7558 17.1524C18.6591 17.0572 19.2166 16.8759 19.6509 16.5718C20.0092 16.3209 20.3209 16.0092 20.5718 15.6509C20.8434 15.2631 21.0171 14.7766 21.1189 14.0341C21.2224 13.2786 21.2448 12.316 21.249 10.9976C21.2503 10.5834 21.5872 10.2487 22.0014 10.25C22.4156 10.2513 22.7503 10.5881 22.749 11.0024C22.7448 12.3094 22.7241 13.3686 22.605 14.2378C22.484 15.1201 22.2555 15.8615 21.8005 16.5112C21.4493 17.0129 21.0129 17.4492 20.5113 17.8005C19.7833 18.3103 18.9399 18.5359 17.913 18.6441C16.9086 18.75 15.6462 18.75 14.0436 18.75H12.75V21.25H16C16.4142 21.25 16.75 21.5858 16.75 22C16.75 22.4142 16.4142 22.75 16 22.75H8C7.58579 22.75 7.25 22.4142 7.25 22C7.25 21.5858 7.58579 21.25 8 21.25H11.25V18.75H9.95645C8.35376 18.75 7.09141 18.75 6.08697 18.6441C5.06008 18.5359 4.21671 18.3103 3.48872 17.8005C2.98706 17.4493 2.55072 17.0129 2.19945 16.5112C1.68971 15.7833 1.4641 14.9399 1.35586 13.913C1.24998 12.9086 1.24999 11.6462 1.25 10.0436V9.95637C1.24999 8.3537 1.24998 7.09138 1.35586 6.08694C1.4641 5.06006 1.68971 4.21668 2.19945 3.4887C2.55072 2.98703 2.98706 2.5507 3.48872 2.19943C4.13849 1.74446 4.87988 1.51594 5.76217 1.39502C6.63137 1.27589 7.69058 1.25514 8.99761 1.25098C9.41182 1.24966 9.74868 1.58438 9.75 1.99859Z" fill="#1B8354"/>
<path d="M10.25 15C10.25 14.5858 10.5858 14.25 11 14.25H13C13.4142 14.25 13.75 14.5858 13.75 15C13.75 15.4142 13.4142 15.75 13 15.75H11C10.5858 15.75 10.25 15.4142 10.25 15Z" fill="#1B8354"/>
</svg>
