<svg xmlns="http://www.w3.org/2000/svg" xmlns:xlink="http://www.w3.org/1999/xlink" width="137.332" height="137.33" viewBox="0 0 137.332 137.33">
  <defs>
    <linearGradient id="linear-gradient" x1="1.185" y1="-0.21" x2="0.027" y2="1.272" gradientUnits="objectBoundingBox">
      <stop offset="0" stop-color="#22907d"/>
      <stop offset="1" stop-color="#11483f"/>
    </linearGradient>
  </defs>
  <g id="consultant" transform="translate(-0.998 -1)">
    <path id="Union_6" data-name="Union 6" d="M77.531,137.33a6.66,6.66,0,0,1-6.652-6.652V112.966a6.66,6.66,0,0,1,6.652-6.652h2.215V95.54l16.172,10.774h17.051a6.65,6.65,0,0,1,6.641,6.652v17.712a6.65,6.65,0,0,1-6.641,6.652Zm-2.223-24.364v17.712a2.228,2.228,0,0,0,2.223,2.224h35.438a2.221,2.221,0,0,0,2.215-2.224V112.966a2.213,2.213,0,0,0-2.215-2.214H94.574l-10.4-6.938v6.938H77.531A2.22,2.22,0,0,0,75.309,112.966ZM0,137.33v-2.214a33.286,33.286,0,0,1,23.457-31.758,17.681,17.681,0,0,1-1.3-28.575v-17.2H6.652A6.652,6.652,0,0,1,0,50.943V33.22a6.658,6.658,0,0,1,6.652-6.642h15.5V0h115.18V93.029H50.359A17.721,17.721,0,0,1,43,103.358a33.289,33.289,0,0,1,23.449,31.758v2.214Zm55.383-13.294V132.9h6.563a28.819,28.819,0,0,0-12.562-21.587L37.047,132.9h13.9v-8.866Zm-39.875,0V132.9h13.91l-12.34-21.587A28.757,28.757,0,0,0,4.52,132.9h6.563v-8.866ZM28.742,122.8l4.492,7.848,4.484-7.848-4.484-4.487Zm7.625-7.621L40,118.807l5.539-9.7c-.707-.336-1.43-.653-2.184-.929Zm-15.449-6.069,5.543,9.7L30.1,115.18l-7-7C22.363,108.458,21.641,108.775,20.918,109.111Zm7.078-2.3,5.238,5.239,5.238-5.239a28.012,28.012,0,0,0-10.477,0ZM19.938,88.6a13.289,13.289,0,1,0,13.3-13.294A13.3,13.3,0,0,0,19.938,88.6Zm93.031-44.3a17.691,17.691,0,0,1-7.949,14.757A33.266,33.266,0,0,1,128.355,88.6H132.9V22.15H26.578v4.428H42.09A6.648,6.648,0,0,1,48.73,33.22V50.943a6.642,6.642,0,0,1-6.641,6.642H39.875V68.368l-13.3-8.856V72.184a17.544,17.544,0,0,1,6.656-1.3A17.737,17.737,0,0,1,50.945,88.6H62.133a33.3,33.3,0,0,1,23.34-29.544,17.713,17.713,0,1,1,27.5-14.757Zm4.43,35.435V88.6h6.531a28.821,28.821,0,0,0-12.254-21.409l-6.785,16.457-9.648-9.637-9.633,9.637L78.824,67.192A28.805,28.805,0,0,0,66.563,88.6h6.531V79.735h4.438V88.6h35.438V79.735Zm-19.02-8.856,4.941,4.942L107.8,64.939c-.8-.386-1.609-.731-2.437-1.048ZM82.7,64.939l4.477,10.882,4.938-4.942-6.977-6.988C84.293,64.207,83.484,64.553,82.7,64.939Zm7.32-2.422,5.227,5.229,5.23-5.229a27.922,27.922,0,0,0-10.457,0ZM4.43,33.22V50.943a2.22,2.22,0,0,0,2.223,2.214H25.039L35.449,60.1V53.157H42.09A2.213,2.213,0,0,0,44.3,50.943V33.22a2.219,2.219,0,0,0-2.215-2.214H6.652A2.226,2.226,0,0,0,4.43,33.22ZM81.961,44.3A13.289,13.289,0,1,0,95.242,31.006,13.3,13.3,0,0,0,81.961,44.3ZM26.578,17.722H132.9V4.428H26.578Zm79.75,110.742v-4.428h4.426v4.428Zm-26.582,0v-4.428H101.9v4.428Zm0-8.856V115.18h31.008v4.428Zm44.293-70.879V44.3h4.438v4.428Zm-88.59,0V44.3h4.426v4.428Zm-26.582,0V44.3H31.02v4.428Zm115.172-8.856V35.434h4.438v4.438Zm-115.172,0V35.434H39.875v4.438Zm115.172-8.866V26.578h4.438v4.428Zm-53.16,0V26.578h4.43v4.428Zm-8.855,0V26.578h4.43v4.428Zm-8.863,0V26.578H57.6v4.428ZM48.73,13.294V8.856h4.43v4.438Zm-8.855,0V8.856H44.3v4.438Zm-8.855,0V8.856h4.43v4.438Z" transform="translate(0.998 1)" fill="url(#linear-gradient)"/>
  </g>
</svg>
