<svg width="24" height="24" viewBox="0 0 24 24" fill="none" xmlns="http://www.w3.org/2000/svg">
<path opacity="0.4" d="M17.9006 6.597C16.8721 6.00642 15.3595 5.40477 13.4496 4.64505L10.1164 3.31912C9.05763 2.89794 8.18982 2.5527 7.48849 2.38006C7.08704 2.28124 6.6881 2.22502 6.30174 2.26135C5.9924 2.29043 5.69113 2.37884 5.40309 2.55219C4.73664 2.9533 4.47329 3.6072 4.35832 4.31914C4.27577 4.83035 4.25611 5.4614 4.25144 6.19609C4.25048 6.21402 4.25 6.23207 4.25 6.25024V20.7502C4.25 21.3025 4.69772 21.7502 5.25 21.7502C5.80228 21.7502 6.25 21.3025 6.25 20.7502V16.7172C6.25 16.52 6.25 16.4215 6.30174 16.3452C6.35348 16.2689 6.44506 16.2325 6.62823 16.1596L13.4496 13.4462C15.3595 12.6865 16.8721 12.0848 17.9006 11.4942C18.9165 10.9109 19.75 10.1764 19.75 9.04561C19.75 7.91481 18.9165 7.18031 17.9006 6.597Z" fill="#1B8354"/>
<path d="M5.40309 2.55195C4.73664 2.95306 4.47329 3.60696 4.35832 4.3189C4.27577 4.83011 4.25611 5.46115 4.25144 6.19584C4.25048 6.21377 4.25 6.23183 4.25 6.25V20.75C4.25 21.3023 4.69772 21.75 5.25 21.75C5.80228 21.75 6.25 21.3023 6.25 20.75V16.7169C6.25 16.5198 6.25 16.4212 6.30174 16.345V2.26111C5.9924 2.29019 5.69113 2.37859 5.40309 2.55195Z" fill="#1B8354"/>
</svg>
