<svg width="40" height="40" viewBox="0 0 40 40" fill="none" xmlns="http://www.w3.org/2000/svg">
<path d="M20 0C21.1046 0 22 0.89543 22 2V4C22 5.10457 21.1046 6 20 6C18.8954 6 18 5.10457 18 4V2C18 0.89543 18.8954 0 20 0Z" fill="#0E382D"/>
<path d="M20 34C21.1046 34 22 34.8954 22 36V38C22 39.1046 21.1046 40 20 40C18.8954 40 18 39.1046 18 38V36C18 34.8954 18.8954 34 20 34Z" fill="#0E382D"/>
<path d="M38 22C39.1046 22 40 21.1046 40 20C40 18.8954 39.1046 18 38 18H36C34.8954 18 34 18.8954 34 20C34 21.1046 34.8954 22 36 22H38Z" fill="#0E382D"/>
<path d="M6 20C6 21.1046 5.10457 22 4 22H2C0.89543 22 0 21.1046 0 20C0 18.8954 0.895431 18 2 18H4C5.10457 18 6 18.8954 6 20Z" fill="#0E382D"/>
<path d="M29.8995 32.7279L31.3137 34.1421C32.0948 34.9232 33.3611 34.9232 34.1421 34.1421C34.9232 33.3611 34.9232 32.0948 34.1421 31.3137L32.7279 29.8995C31.9469 29.1184 30.6805 29.1184 29.8995 29.8995C29.1184 30.6805 29.1184 31.9469 29.8995 32.7279Z" fill="#0E382D"/>
<path d="M10.1005 10.1005C9.31946 10.8816 8.05313 10.8816 7.27208 10.1005L5.85786 8.68629C5.07682 7.90524 5.07682 6.63891 5.85786 5.85786C6.63891 5.07682 7.90524 5.07682 8.68629 5.85786L10.1005 7.27208C10.8816 8.05313 10.8816 9.31946 10.1005 10.1005Z" fill="#0E382D"/>
<path d="M5.85787 31.3137C5.07682 32.0948 5.07682 33.3611 5.85787 34.1421C6.63891 34.9232 7.90524 34.9232 8.68629 34.1421L10.1005 32.7279C10.8816 31.9469 10.8816 30.6805 10.1005 29.8995C9.31946 29.1184 8.05313 29.1184 7.27208 29.8995L5.85787 31.3137Z" fill="#0E382D"/>
<path d="M29.8995 10.1005C29.1184 9.31946 29.1184 8.05313 29.8995 7.27208L31.3137 5.85787C32.0948 5.07682 33.3611 5.07682 34.1421 5.85787C34.9232 6.63891 34.9232 7.90524 34.1421 8.68629L32.7279 10.1005C31.9469 10.8816 30.6805 10.8816 29.8995 10.1005Z" fill="#0E382D"/>
<path fill-rule="evenodd" clip-rule="evenodd" d="M20 9C13.9249 9 9 13.9249 9 20C9 26.0751 13.9249 31 20 31C26.0751 31 31 26.0751 31 20C31 13.9249 26.0751 9 20 9ZM13 20C13 16.134 16.134 13 20 13C23.866 13 27 16.134 27 20C27 23.866 23.866 27 20 27C16.134 27 13 23.866 13 20Z" fill="#0E382D"/>
</svg>
