<svg width="20" height="6" viewBox="0 0 20 6" fill="none" xmlns="http://www.w3.org/2000/svg">
<path fill-rule="evenodd" clip-rule="evenodd" d="M2.5 5.25C1.25736 5.25 0.25 4.24264 0.25 3C0.25 1.75736 1.25736 0.75 2.5 0.75C3.74264 0.75 4.75 1.75736 4.75 3C4.75 4.24264 3.74264 5.25 2.5 5.25ZM1.75 3C1.75 3.41421 2.08579 3.75 2.5 3.75C2.91421 3.75 3.25 3.41421 3.25 3C3.25 2.58579 2.91421 2.25 2.5 2.25C2.08579 2.25 1.75 2.58579 1.75 3Z" fill="#161616"/>
<path fill-rule="evenodd" clip-rule="evenodd" d="M7.75 3C7.75 4.24264 8.75736 5.25 10 5.25C11.2426 5.25 12.25 4.24264 12.25 3C12.25 1.75736 11.2426 0.75 10 0.75C8.75736 0.75 7.75 1.75736 7.75 3ZM10 3.75C9.58579 3.75 9.25 3.41421 9.25 3C9.25 2.58579 9.58579 2.25 10 2.25C10.4142 2.25 10.75 2.58579 10.75 3C10.75 3.41421 10.4142 3.75 10 3.75Z" fill="#161616"/>
<path fill-rule="evenodd" clip-rule="evenodd" d="M15.25 3C15.25 4.24264 16.2574 5.25 17.5 5.25C18.7426 5.25 19.75 4.24264 19.75 3C19.75 1.75736 18.7426 0.75 17.5 0.75C16.2574 0.75 15.25 1.75736 15.25 3ZM17.5 3.75C17.0858 3.75 16.75 3.41421 16.75 3C16.75 2.58579 17.0858 2.25 17.5 2.25C17.9142 2.25 18.25 2.58579 18.25 3C18.25 3.41421 17.9142 3.75 17.5 3.75Z" fill="#161616"/>
</svg>
