<svg width="16" height="16" viewBox="0 0 16 16" fill="none" xmlns="http://www.w3.org/2000/svg">
<path d="M8.75 1C8.75 0.585786 8.41421 0.25 8 0.25C7.58579 0.25 7.25 0.585786 7.25 1L7.25 9.46193L7.24394 9.45478C7.03326 9.20615 6.82697 8.94338 6.63406 8.69766L6.58933 8.64069C6.39711 8.39596 6.19487 8.13885 6.03781 7.97726C5.74911 7.68023 5.27428 7.67349 4.97726 7.96219C4.68023 8.25089 4.67349 8.72572 4.96219 9.02274C5.05089 9.114 5.19651 9.29581 5.40971 9.56724L5.45677 9.62718C5.64683 9.86931 5.86982 10.1534 6.09954 10.4245C6.34574 10.715 6.62131 11.0168 6.89679 11.2515C7.03484 11.369 7.19043 11.485 7.35782 11.5746C7.51926 11.661 7.74171 11.75 8 11.75C8.25829 11.75 8.48074 11.661 8.64218 11.5746C8.80957 11.485 8.96517 11.369 9.10321 11.2515C9.37869 11.0168 9.65426 10.715 9.90047 10.4245C10.1302 10.1534 10.3531 9.86936 10.5432 9.62723L10.5903 9.56724C10.8035 9.29581 10.9491 9.114 11.0378 9.02274C11.3265 8.72572 11.3198 8.25089 11.0227 7.96219C10.7257 7.67349 10.2509 7.68023 9.96219 7.97726C9.80513 8.13885 9.6029 8.39596 9.41067 8.64069L9.36596 8.69763C9.17306 8.94335 8.96674 9.20615 8.75606 9.45478L8.75 9.46193V1Z" fill="white"/>
<path d="M1 14.25C0.585786 14.25 0.25 14.5858 0.25 15C0.25 15.4142 0.585786 15.75 1 15.75H15.0001C15.4143 15.75 15.7501 15.4142 15.7501 15C15.7501 14.5858 15.4143 14.25 15.0001 14.25H1Z" fill="white"/>
</svg>
