<svg width="24" height="24" viewBox="0 0 24 24" fill="none" xmlns="http://www.w3.org/2000/svg">
<path d="M12.75 4.5C12.75 4.08579 12.4142 3.75 12 3.75C11.5858 3.75 11.25 4.08579 11.25 4.5V12.9619L11.2439 12.9548C11.0333 12.7061 10.827 12.4434 10.6341 12.1977L10.5893 12.1407C10.3971 11.896 10.1949 11.6388 10.0378 11.4773C9.74911 11.1802 9.27428 11.1735 8.97726 11.4622C8.68023 11.7509 8.67349 12.2257 8.96219 12.5227C9.05089 12.614 9.19651 12.7958 9.40971 13.0672L9.45677 13.1272C9.64683 13.3693 9.86982 13.6534 10.0995 13.9245C10.3457 14.215 10.6213 14.5168 10.8968 14.7515C11.0348 14.869 11.1904 14.985 11.3578 15.0746C11.5193 15.161 11.7417 15.25 12 15.25C12.2583 15.25 12.4807 15.161 12.6422 15.0746C12.8096 14.985 12.9652 14.869 13.1032 14.7515C13.3787 14.5168 13.6543 14.215 13.9005 13.9245C14.1302 13.6534 14.3531 13.3694 14.5432 13.1272L14.5903 13.0672C14.8035 12.7958 14.9491 12.614 15.0378 12.5227C15.3265 12.2257 15.3198 11.7509 15.0227 11.4622C14.7257 11.1735 14.2509 11.1802 13.9622 11.4773C13.8051 11.6388 13.6029 11.896 13.4107 12.1407L13.366 12.1976C13.1731 12.4433 12.9667 12.7062 12.7561 12.9548L12.75 12.9619V4.5Z" fill="#161616"/>
<path d="M4.75 16.5C4.75 16.0858 4.41421 15.75 4 15.75C3.58579 15.75 3.25 16.0858 3.25 16.5C3.25 17.1367 3.28223 17.699 3.38719 18.1768C3.49401 18.663 3.68612 19.1083 4.03892 19.4611C4.39172 19.8139 4.83699 20.006 5.32323 20.1128C5.80098 20.2178 6.36327 20.25 7 20.25H17C17.6367 20.25 18.199 20.2178 18.6768 20.1128C19.163 20.006 19.6083 19.8139 19.9611 19.4611C20.3139 19.1083 20.506 18.663 20.6128 18.1768C20.7178 17.699 20.75 17.1367 20.75 16.5C20.75 16.0858 20.4142 15.75 20 15.75C19.5858 15.75 19.25 16.0858 19.25 16.5C19.25 17.1043 19.2175 17.5375 19.1477 17.8549C19.0799 18.1639 18.9874 18.3135 18.9004 18.4004C18.8135 18.4874 18.6639 18.5799 18.3549 18.6477C18.0375 18.7175 17.6043 18.75 17 18.75H7C6.39573 18.75 5.96252 18.7175 5.64508 18.6477C5.33614 18.5799 5.18653 18.4874 5.09958 18.4004C5.01263 18.3135 4.92012 18.1639 4.85225 17.8549C4.78252 17.5375 4.75 17.1043 4.75 16.5Z" fill="#161616"/>
</svg>
