<svg width="22" height="22" viewBox="0 0 22 22" fill="none" xmlns="http://www.w3.org/2000/svg">
<path d="M2.5827 7.25C4.01642 4.00655 7.23022 1.75 11 1.75C16.1086 1.75 20.25 5.89137 20.25 11C20.25 16.1086 16.1086 20.25 11 20.25C10.5858 20.25 10.25 20.5858 10.25 21C10.25 21.4142 10.5858 21.75 11 21.75C16.9371 21.75 21.75 16.9371 21.75 11C21.75 5.06294 16.937 0.25 11 0.25C6.18163 0.25 2.15293 3.4182 0.784461 7.77526C0.712911 8.00307 0.754112 8.25133 0.89541 8.44382C1.03671 8.6363 1.26122 8.75 1.5 8.75H4C4.41421 8.75 4.75 8.41421 4.75 8C4.75 7.58579 4.41421 7.25 4 7.25H2.5827Z" fill="#1B8354"/>
<path d="M11 6.25C11.4142 6.25 11.75 6.58579 11.75 7V10.6893L13.5303 12.4697C13.8232 12.7626 13.8232 13.2374 13.5303 13.5303C13.2374 13.8232 12.7626 13.8232 12.4697 13.5303L10.4697 11.5303C10.329 11.3897 10.25 11.1989 10.25 11V7C10.25 6.58579 10.5858 6.25 11 6.25Z" fill="#1B8354"/>
<path d="M1.75 11C1.75 10.5858 1.41421 10.25 1 10.25C0.585786 10.25 0.25 10.5858 0.25 11C0.25 11.3598 0.266222 11.7159 0.297977 12.0675C0.335241 12.48 0.699874 12.7842 1.11241 12.747C1.52494 12.7097 1.82916 12.3451 1.79189 11.9325C1.76419 11.6258 1.75 11.3147 1.75 11Z" fill="#1B8354"/>
<path d="M2.39683 14.5819C2.25082 14.1942 1.81823 13.9984 1.4306 14.1444C1.04297 14.2904 0.847104 14.723 0.993113 15.1106C1.15314 15.5354 1.33725 15.9477 1.54371 16.3455C1.73452 16.7131 2.18724 16.8565 2.55488 16.6657C2.92253 16.4749 3.06589 16.0222 2.87508 15.6545C2.69585 15.3092 2.53591 14.9511 2.39683 14.5819Z" fill="#1B8354"/>
<path d="M4.38092 17.7963C4.09913 17.4927 3.62459 17.475 3.321 17.7568C3.01741 18.0386 2.99973 18.5131 3.28152 18.8167C3.60937 19.1699 3.9594 19.5009 4.32938 19.807C4.64849 20.0711 5.12126 20.0265 5.38535 19.7074C5.64943 19.3883 5.60483 18.9155 5.28572 18.6514C4.96671 18.3874 4.66443 18.1017 4.38092 17.7963Z" fill="#1B8354"/>
<path d="M7.31224 19.9258C6.93562 19.7534 6.49053 19.9189 6.31808 20.2955C6.14564 20.6721 6.31115 21.1172 6.68776 21.2897C7.03755 21.4498 7.3972 21.5912 7.76551 21.7124C8.15896 21.8419 8.5829 21.6279 8.7124 21.2345C8.84191 20.841 8.62794 20.4171 8.23449 20.2876C7.91961 20.184 7.61186 20.063 7.31224 19.9258Z" fill="#1B8354"/>
</svg>
