<svg width="18" height="18" viewBox="0 0 18 18" fill="none" xmlns="http://www.w3.org/2000/svg">
<path fill-rule="evenodd" clip-rule="evenodd" d="M11.19 2.0901C9.72523 2.0533 8.27477 2.0533 6.80999 2.0901L6.76637 2.09119C5.62275 2.11991 4.70251 2.14301 3.96502 2.27145C3.1929 2.40592 2.56536 2.66383 2.03521 3.19599C1.50729 3.72593 1.25073 4.34445 1.11882 5.10405C0.993217 5.82733 0.974087 6.7251 0.95039 7.83724L0.949451 7.88129C0.933516 8.62855 0.933516 9.37145 0.949452 10.1187L0.950391 10.1628C0.974089 11.2749 0.99322 12.1727 1.11882 12.8959C1.25073 13.6556 1.50729 14.2741 2.03522 14.804C2.56536 15.3362 3.1929 15.5941 3.96503 15.7285C4.70251 15.857 5.62273 15.8801 6.76633 15.9088L6.80999 15.9099C8.27477 15.9467 9.72523 15.9467 11.19 15.9099L11.2337 15.9088C12.3773 15.8801 13.2975 15.857 14.035 15.7285C14.8071 15.5941 15.4346 15.3362 15.9648 14.804C16.4927 14.2741 16.7493 13.6556 16.8812 12.8959C17.0068 12.1727 17.0259 11.2749 17.0496 10.1628L17.0506 10.1187C17.0665 9.37145 17.0665 8.62856 17.0506 7.8813L17.0496 7.83726C17.0259 6.72512 17.0068 5.82734 16.8812 5.10406C16.7493 4.34446 16.4927 3.72594 15.9648 3.19601C15.4346 2.66384 14.8071 2.40593 14.035 2.27146C13.2975 2.14302 12.3773 2.11992 11.2336 2.0912L11.19 2.0901ZM6.83824 3.21474C8.28419 3.17842 9.71581 3.17842 11.1618 3.21475C12.3593 3.24484 13.196 3.26729 13.842 3.37978C14.4626 3.48787 14.8496 3.67058 15.1678 3.98999C15.2982 4.12094 15.4054 4.26191 15.4937 4.42372L11.038 6.94833C10.0965 7.48178 9.52523 7.6875 9.00008 7.6875C8.47493 7.6875 7.90361 7.48178 6.96214 6.94833L2.50636 4.42365C2.59462 4.26187 2.70177 4.12092 2.83222 3.98998C3.15042 3.67057 3.53739 3.48786 4.15804 3.37977C4.80397 3.26728 5.64075 3.24483 6.83824 3.21474ZM2.19076 5.53787C2.11316 6.13173 2.09601 6.88235 2.0742 7.90528C2.0586 8.63655 2.0586 9.36345 2.0742 10.0947C2.09908 11.2614 2.11789 12.0738 2.22723 12.7035C2.33192 13.3063 2.5118 13.6884 2.83222 14.01C3.15042 14.3294 3.5374 14.5121 4.15804 14.6202C4.80397 14.7327 5.64075 14.7552 6.83825 14.7853C8.28419 14.8216 9.71581 14.8216 11.1618 14.7853C12.3593 14.7552 13.196 14.7327 13.842 14.6202C14.4626 14.5121 14.8496 14.3294 15.1678 14.01C15.4882 13.6884 15.6681 13.3063 15.7728 12.7035C15.8821 12.0738 15.9009 11.2614 15.9258 10.0947C15.9414 9.36346 15.9414 8.63656 15.9258 7.90529C15.904 6.8824 15.8868 6.1318 15.8092 5.53795L11.5926 7.92713C10.6226 8.47672 9.83444 8.8125 9.00008 8.8125C8.16571 8.8125 7.37751 8.47672 6.40755 7.92713L2.19076 5.53787Z" fill="#067647"/>
</svg>
