<svg xmlns="http://www.w3.org/2000/svg" width="62.72" height="62.72" viewBox="0 0 62.72 62.72">
  <g id="employee" transform="translate(-11758 -6428.719)">
    <g id="employee-2" data-name="employee" transform="translate(21 62.719)">
      <circle id="Ellipse_423" data-name="Ellipse 423" cx="31.36" cy="31.36" r="31.36" transform="translate(11737 6366)" fill="#1b8354"/>
    </g>
    <g id="Group_1878" data-name="Group 1878" transform="translate(11775.685 6445.859)">
      <path id="Path_22420" data-name="Path 22420" d="M13.681,14.591c4.34-.025,6.676-2.369,6.756-6.815C20.363,3.5,17.9,1.029,13.667,1c-4.28.026-6.756,2.608-6.756,6.774,0,4.292,2.478,6.791,6.771,6.817ZM13.667,3.4c2.929.019,4.316,1.422,4.367,4.37-.056,3.075-1.362,4.395-4.353,4.413-3-.018-4.3-1.332-4.367-4.391.06-3.018,1.407-4.373,4.353-4.391Zm0,12.812c-6.4.041-9.849,3.5-9.964,10a1.2,1.2,0,0,0,1.18,1.223,1.257,1.257,0,0,0,1.223-1.18c.091-5.181,2.5-7.609,7.56-7.64,5.009.032,7.487,2.531,7.576,7.639a1.2,1.2,0,0,0,1.2,1.181h.022a1.2,1.2,0,0,0,1.181-1.222c-.111-6.409-3.649-9.96-9.98-10Z" transform="translate(0)" fill="#fff"/>
    </g>
  </g>
</svg>
