<svg width="22" height="22" viewBox="0 0 22 22" fill="none" xmlns="http://www.w3.org/2000/svg">
<path d="M7 11C6.44772 11 6 11.4477 6 12C6 12.5523 6.44772 13 7 13H7.00897C7.56126 13 8.00897 12.5523 8.00897 12C8.00897 11.4477 7.56126 11 7.00897 11H7Z" fill="white"/>
<path d="M10.9955 11C10.4432 11 9.99551 11.4477 9.99551 12C9.99551 12.5523 10.4432 13 10.9955 13H11.0045C11.5568 13 12.0045 12.5523 12.0045 12C12.0045 11.4477 11.5568 11 11.0045 11H10.9955Z" fill="white"/>
<path d="M14.991 11C14.4387 11 13.991 11.4477 13.991 12C13.991 12.5523 14.4387 13 14.991 13H15C15.5523 13 16 12.5523 16 12C16 11.4477 15.5523 11 15 11H14.991Z" fill="white"/>
<path d="M7 15C6.44772 15 6 15.4477 6 16C6 16.5523 6.44772 17 7 17H7.00897C7.56126 17 8.00897 16.5523 8.00897 16C8.00897 15.4477 7.56126 15 7.00897 15H7Z" fill="white"/>
<path d="M10.9955 15C10.4432 15 9.99551 15.4477 9.99551 16C9.99551 16.5523 10.4432 17 10.9955 17H11.0045C11.5568 17 12.0045 16.5523 12.0045 16C12.0045 15.4477 11.5568 15 11.0045 15H10.9955Z" fill="white"/>
<path fill-rule="evenodd" clip-rule="evenodd" d="M5.75 1C5.75 0.585786 5.41421 0.25 5 0.25C4.58579 0.25 4.25 0.585786 4.25 1V1.63479C3.44524 1.86288 2.7665 2.2336 2.20154 2.84436C1.42363 3.68535 1.07785 4.74792 0.912249 6.07951C0.749981 7.3843 0.749989 9.05647 0.75 11.19V11.81C0.749989 13.9435 0.749981 15.6157 0.912249 16.9205C1.07785 18.2521 1.42363 19.3147 2.20154 20.1556C2.98714 21.0049 3.99276 21.3901 5.25129 21.573C6.46932 21.75 8.02555 21.75 9.98924 21.75H12.0108C13.9745 21.75 15.5307 21.75 16.7487 21.573C18.0072 21.3901 19.0129 21.0049 19.7985 20.1556C20.5764 19.3147 20.9222 18.2521 21.0878 16.9205C21.25 15.6157 21.25 13.9435 21.25 11.8099V11.1901C21.25 9.05648 21.25 7.38431 21.0878 6.07951C20.9222 4.74792 20.5764 3.68535 19.7985 2.84436C19.2335 2.2336 18.5548 1.86288 17.75 1.63479V1C17.75 0.585786 17.4142 0.25 17 0.25C16.5858 0.25 16.25 0.585786 16.25 1V1.36589C15.1139 1.24997 13.716 1.24998 12.0108 1.25H9.98924C8.28402 1.24998 6.88606 1.24997 5.75 1.36589V1ZM4.2786 3.20584C4.36806 3.51998 4.65717 3.75 5 3.75C5.41421 3.75 5.75 3.41421 5.75 3V2.87459C6.81101 2.75156 8.18237 2.75 10.05 2.75H11.95C13.8176 2.75 15.189 2.75156 16.25 2.87459V3C16.25 3.41421 16.5858 3.75 17 3.75C17.3428 3.75 17.6319 3.51998 17.7214 3.20585C18.1287 3.36791 18.438 3.58256 18.6973 3.86292C19.1704 4.37439 19.4505 5.07588 19.5982 6.25637C19.5661 6.25217 19.5333 6.25 19.5 6.25H2.5C2.46672 6.25 2.43395 6.25217 2.40181 6.25637C2.54952 5.07588 2.82959 4.37439 3.30269 3.86292C3.56203 3.58256 3.87129 3.36791 4.2786 3.20584ZM2.29013 7.72024C2.25056 8.68315 2.25 9.83634 2.25 11.2432V11.7568C2.25 13.9551 2.25137 15.5339 2.40078 16.7354C2.54821 17.9208 2.82849 18.6244 3.30269 19.1371C3.76921 19.6414 4.39728 19.9331 5.46704 20.0886C6.56476 20.2481 8.01188 20.25 10.05 20.25H11.95C13.9881 20.25 15.4352 20.2481 16.533 20.0886C17.6027 19.9331 18.2308 19.6414 18.6973 19.1371C19.1715 18.6244 19.4518 17.9208 19.5992 16.7354C19.7486 15.5339 19.75 13.9551 19.75 11.7568V11.2432C19.75 9.83634 19.7494 8.68315 19.7099 7.72024C19.6433 7.73961 19.5728 7.75 19.5 7.75H2.5C2.42715 7.75 2.35673 7.73961 2.29013 7.72024Z" fill="white"/>
</svg>
