<svg width="20" height="21" viewBox="0 0 20 21" fill="none" xmlns="http://www.w3.org/2000/svg">
<path fill-rule="evenodd" clip-rule="evenodd" d="M9.99984 13.2686C8.27395 13.2686 6.87484 11.8695 6.87484 10.1436C6.87484 8.41775 8.27395 7.01864 9.99984 7.01864C11.7257 7.01864 13.1248 8.41775 13.1248 10.1436C13.1248 11.8695 11.7257 13.2686 9.99984 13.2686ZM8.12484 10.1436C8.12484 11.1792 8.9643 12.0186 9.99984 12.0186C11.0354 12.0186 11.8748 11.1792 11.8748 10.1436C11.8748 9.1081 11.0354 8.26864 9.99984 8.26864C8.9643 8.26864 8.12484 9.1081 8.12484 10.1436Z" fill="white"/>
<path fill-rule="evenodd" clip-rule="evenodd" d="M9.99984 3.6853C7.8577 3.6853 6.02146 4.62814 4.60009 5.73779C3.17745 6.84843 2.12589 8.16009 1.53768 8.9849L1.49333 9.04675C1.28237 9.34015 1.0415 9.67513 1.0415 10.1436C1.0415 10.6121 1.28237 10.9471 1.49333 11.2405L1.53768 11.3024C2.12589 12.1272 3.17745 13.4388 4.60009 14.5495C6.02146 15.6591 7.8577 16.602 9.99984 16.602C12.142 16.602 13.9782 15.6591 15.3996 14.5495C16.8222 13.4388 17.8738 12.1272 18.462 11.3024L18.5063 11.2405C18.7173 10.9471 18.9582 10.6121 18.9582 10.1436C18.9582 9.67513 18.7173 9.34015 18.5063 9.04675L18.462 8.9849C17.8738 8.16009 16.8222 6.84843 15.3996 5.73779C13.9782 4.62814 12.142 3.6853 9.99984 3.6853ZM2.5554 9.71068C3.10556 8.93921 4.07682 7.73212 5.3693 6.72309C6.66307 5.71306 8.23429 4.9353 9.99984 4.9353C11.7654 4.9353 13.3366 5.71306 14.6304 6.72309C15.9229 7.73212 16.8941 8.93921 17.4443 9.71068C17.5804 9.90153 17.6452 9.99472 17.6838 10.0689C17.7083 10.1161 17.7082 10.129 17.7082 10.1416L17.7082 10.1436L17.7082 10.1456C17.7082 10.1583 17.7083 10.1712 17.6838 10.2184C17.6452 10.2926 17.5804 10.3857 17.4443 10.5766C16.8941 11.3481 15.9229 12.5552 14.6304 13.5642C13.3366 14.5742 11.7654 15.352 9.99984 15.352C8.23429 15.352 6.66307 14.5742 5.3693 13.5642C4.07682 12.5552 3.10557 11.3481 2.5554 10.5766C2.41929 10.3857 2.35452 10.2926 2.31591 10.2184C2.29136 10.1712 2.29143 10.1583 2.2915 10.1456L2.2915 10.1436L2.2915 10.1416C2.29143 10.129 2.29136 10.1161 2.31591 10.0689C2.35452 9.99472 2.41929 9.90153 2.5554 9.71068Z" fill="white"/>
</svg>
