<svg width="18" height="18" viewBox="0 0 18 18" fill="none" xmlns="http://www.w3.org/2000/svg">
<path d="M16.8678 6.08382L16.8669 6.08282L16.8608 6.07618C16.855 6.06984 16.8457 6.05972 16.833 6.04606C16.8075 6.01874 16.7684 5.97731 16.7162 5.92379C16.6119 5.8167 16.4558 5.66147 16.2536 5.47413C15.8485 5.09888 15.2615 4.5979 14.5372 4.09758C13.0767 3.08872 11.1191 2.125 8.99984 2.125C6.88055 2.125 4.92303 3.08872 3.4625 4.09758C2.73818 4.5979 2.15121 5.09888 1.74611 5.47413C1.54387 5.66147 1.3878 5.8167 1.28346 5.92379C1.23132 5.97731 1.19216 6.01874 1.16669 6.04606C1.15396 6.05972 1.14465 6.06984 1.13886 6.07618L1.13282 6.08282L1.13213 6.08359C0.901813 6.34037 0.506605 6.36243 0.249584 6.13228C-0.00756816 5.90202 -0.0293676 5.50689 0.200894 5.24974C0.20083 5.24983 0.201554 5.25048 0.258885 5.30178C0.317002 5.35378 0.433285 5.45783 0.665873 5.6661L0.200894 5.24974L0.202582 5.24786L0.205642 5.24447L0.215846 5.23324C0.224454 5.22382 0.23666 5.21055 0.252376 5.19369C0.283806 5.15997 0.329301 5.11188 0.388162 5.05147C0.505842 4.93069 0.677205 4.7604 0.896653 4.55712C1.33494 4.15112 1.96835 3.61044 2.75207 3.06909C4.30761 1.99461 6.51676 0.875 8.99984 0.875C11.4829 0.875 13.6921 1.99461 15.2476 3.06909C16.0313 3.61044 16.6647 4.15112 17.103 4.55712C17.3225 4.7604 17.4938 4.93069 17.6115 5.05147C17.6704 5.11188 17.7159 5.15997 17.7473 5.19369C17.763 5.21055 17.7752 5.22382 17.7838 5.23324L17.794 5.24447L17.7971 5.24786L17.7981 5.24899C17.7983 5.24916 17.7988 5.24974 17.3332 5.66667L17.7988 5.24974C18.0291 5.50689 18.0073 5.90202 17.7501 6.13228C17.493 6.36247 17.0981 6.34076 16.8678 6.08382Z" fill="white"/>
<path fill-rule="evenodd" clip-rule="evenodd" d="M8.99985 13.7917C7.27396 13.7917 5.87485 12.3926 5.87485 10.6667C5.87485 8.94078 7.27396 7.54167 8.99985 7.54167C10.7257 7.54167 12.1248 8.94078 12.1248 10.6667C12.1248 12.3926 10.7257 13.7917 8.99985 13.7917ZM7.12485 10.6667C7.12485 11.7022 7.96432 12.5417 8.99985 12.5417C10.0354 12.5417 10.8748 11.7022 10.8748 10.6667C10.8748 9.63113 10.0354 8.79167 8.99985 8.79167C7.96432 8.79167 7.12485 9.63113 7.12485 10.6667Z" fill="white"/>
<path fill-rule="evenodd" clip-rule="evenodd" d="M3.6001 6.26082C5.02148 5.15117 6.85772 4.20833 8.99985 4.20833C11.142 4.20833 12.9782 5.15117 14.3996 6.26082C15.8222 7.37146 16.8738 8.68312 17.462 9.50793L17.5064 9.56978C17.7173 9.86318 17.9582 10.1982 17.9582 10.6667C17.9582 11.1352 17.7173 11.4702 17.5064 11.7636L17.462 11.8254C16.8738 12.6502 15.8222 13.9619 14.3996 15.0725C12.9782 16.1822 11.142 17.125 8.99985 17.125C6.85772 17.125 5.02148 16.1822 3.60011 15.0725C2.17746 13.9619 1.1259 12.6502 0.537692 11.8254L0.493343 11.7636C0.282379 11.4702 0.0415159 11.1352 0.0415159 10.6667C0.0415159 10.1982 0.282379 9.86318 0.493342 9.56978L0.537691 9.50793C1.1259 8.68312 2.17746 7.37146 3.6001 6.26082ZM4.36932 7.24612C3.07683 8.25515 2.10558 9.46224 1.55541 10.2337C1.41931 10.4246 1.35453 10.5177 1.31592 10.5919C1.29137 10.6391 1.29144 10.652 1.29151 10.6647L1.29152 10.6667L1.29151 10.6687C1.29144 10.6813 1.29137 10.6942 1.31592 10.7414C1.35453 10.8156 1.41931 10.9088 1.55541 11.0996C2.10558 11.8711 3.07683 13.0782 4.36932 14.0872C5.66308 15.0972 7.2343 15.875 8.99985 15.875C10.7654 15.875 12.3366 15.0972 13.6304 14.0872C14.9229 13.0782 15.8941 11.8711 16.4443 11.0996C16.5804 10.9088 16.6452 10.8156 16.6838 10.7414C16.7083 10.6942 16.7083 10.6813 16.7082 10.6687L16.7082 10.6667L16.7082 10.6647C16.7083 10.652 16.7083 10.6391 16.6838 10.5919C16.6452 10.5177 16.5804 10.4246 16.4443 10.2337C15.8941 9.46224 14.9229 8.25515 13.6304 7.24612C12.3366 6.23609 10.7654 5.45833 8.99985 5.45833C7.2343 5.45833 5.66308 6.23609 4.36932 7.24612Z" fill="white"/>
</svg>
