<svg width="18" height="18" viewBox="0 0 18 18" fill="none" xmlns="http://www.w3.org/2000/svg">
<path fill-rule="evenodd" clip-rule="evenodd" d="M1.80075 16.3437C3.14242 17.6853 5.09992 17.6854 8.99992 17.6854C12.8999 17.6854 14.8566 17.6853 16.1991 16.3445C17.5416 15.0028 17.5416 13.0446 17.5416 9.14373C17.5416 5.24291 17.5416 3.28535 16.1991 1.94368C14.8575 0.602051 12.9 0.602051 9.0002 0.602051C5.10028 0.602051 3.1424 0.602051 1.80075 1.94287C0.458252 3.28454 0.458252 5.24288 0.458252 9.14372C0.458252 13.0445 0.458252 15.002 1.80075 16.3437ZM8.99988 1.85205C12.5549 1.85205 14.3399 1.85205 15.3158 2.82788C16.2916 3.80288 16.2916 5.58787 16.2916 9.14368C16.2916 12.6995 16.2916 14.4845 15.3158 15.4595C14.3982 16.3763 12.7678 16.4318 9.62568 16.4352L9.66307 11.4356L11.4039 11.4356C11.7489 11.4356 12.0289 11.1556 12.0289 10.8106C12.0289 10.4656 11.7489 10.1856 11.4039 10.1856L9.67224 10.1856L9.69308 7.40641C9.69641 6.88475 10.1264 6.46061 10.6514 6.46061H13.1047C13.4497 6.46061 13.7297 6.18061 13.7297 5.83561C13.7297 5.49061 13.4497 5.21061 13.1047 5.21061H10.6514C9.44224 5.21061 8.45141 6.19138 8.44307 7.39722L8.42224 10.1856H7.40141C7.05641 10.1856 6.77641 10.4656 6.77641 10.8106C6.77641 11.1556 7.05641 11.4356 7.40141 11.4356H8.41307L8.37561 16.4352C5.23248 16.4318 3.60104 16.3764 2.68408 15.4595C1.70825 14.4845 1.70825 12.6996 1.70825 9.14375C1.70825 5.58794 1.70825 3.80288 2.68408 2.82788C3.66075 1.85205 5.44491 1.85205 8.99988 1.85205Z" fill="white"/>
</svg>
