<svg width="40" height="34" viewBox="0 0 40 34" fill="none" xmlns="http://www.w3.org/2000/svg">
<path d="M20 0C21.1046 0 22 0.89543 22 2V4C22 5.10457 21.1046 6 20 6C18.8954 6 18 5.10457 18 4V2C18 0.89543 18.8954 0 20 0Z" fill="#0E382D"/>
<path d="M40 20C40 21.1046 39.1046 22 38 22H36C34.8954 22 34 21.1046 34 20C34 18.8954 34.8954 18 36 18H38C39.1046 18 40 18.8954 40 20Z" fill="#0E382D"/>
<path d="M4 22C5.10457 22 6 21.1046 6 20C6 18.8954 5.10457 18 4 18H2C0.895431 18 0 18.8954 0 20C0 21.1046 0.89543 22 2 22H4Z" fill="#0E382D"/>
<path d="M10.1005 10.1005C9.31946 10.8816 8.05313 10.8816 7.27208 10.1005L5.85787 8.68629C5.07682 7.90524 5.07682 6.63891 5.85787 5.85787C6.63892 5.07682 7.90525 5.07682 8.68629 5.85787L10.1005 7.27208C10.8816 8.05313 10.8816 9.31946 10.1005 10.1005Z" fill="#0E382D"/>
<path d="M31.3137 5.85787L29.8995 7.27208C29.1184 8.05313 29.1184 9.31946 29.8995 10.1005C30.6805 10.8816 31.9469 10.8816 32.7279 10.1005L34.1421 8.68629C34.9232 7.90524 34.9232 6.63891 34.1421 5.85787C33.3611 5.07682 32.0948 5.07682 31.3137 5.85787Z" fill="#0E382D"/>
<path d="M36 32C36 33.1046 35.1046 34 34 34H6C4.89543 34 4 33.1046 4 32C4 30.8954 4.89543 30 6 30H34C35.1046 30 36 30.8954 36 32Z" fill="#0E382D"/>
<path d="M13.7771 23.2108C12.4158 20.5744 12.8437 17.2568 15.0503 15.0503C17.7839 12.3166 22.2161 12.3166 24.9497 15.0503C27.1563 17.2568 27.5842 20.5744 26.2229 23.2108C25.7162 24.1922 26.101 25.3987 27.0824 25.9054C28.0639 26.4122 29.2703 26.0274 29.7771 25.046C31.9139 20.9078 31.2511 15.6948 27.7782 12.2218C23.4824 7.92606 16.5176 7.92606 12.2218 12.2218C8.74888 15.6948 8.08612 20.9078 10.2229 25.046C10.7297 26.0274 11.9361 26.4122 12.9176 25.9054C13.899 25.3987 14.2838 24.1922 13.7771 23.2108Z" fill="#0E382D"/>
</svg>
