<svg width="22" height="22" viewBox="0 0 22 22" fill="none" xmlns="http://www.w3.org/2000/svg">
<path fill-rule="evenodd" clip-rule="evenodd" d="M10.9995 13.75C10.5858 13.7497 10.25 13.4138 10.25 13V12.538C10.25 11.5354 10.9185 10.7716 11.5073 10.0988L11.5124 10.093C11.7208 9.85488 11.9171 9.63051 12.067 9.41501C12.188 9.24201 12.249 9.051 12.249 8.846C12.249 8.242 11.688 7.75 10.999 7.75C10.31 7.75 9.74902 8.242 9.74902 8.846C9.74902 9.26 9.41302 9.596 8.99902 9.596C8.58502 9.596 8.24902 9.26 8.24902 8.846C8.24902 7.415 9.48302 6.25 10.999 6.25C12.515 6.25 13.749 7.415 13.749 8.846C13.749 9.356 13.593 9.85 13.297 10.273C13.1033 10.5508 12.8732 10.8144 12.6508 11.0691L12.636 11.086C12.2001 11.5839 11.749 12.0991 11.749 12.538V13C11.749 13.4138 11.4133 13.7497 10.9995 13.75Z" fill="#1B8354"/>
<path d="M10.2549 15.5C10.2549 15.914 10.5949 16.25 11.0089 16.25C11.4229 16.25 11.7589 15.914 11.7589 15.5C11.7589 15.086 11.4229 14.75 11.0089 14.75H10.9999C10.5859 14.75 10.2549 15.086 10.2549 15.5Z" fill="#1B8354"/>
<path fill-rule="evenodd" clip-rule="evenodd" d="M4.315 21.75C3.88 21.75 3.444 21.71 3.014 21.631C2.754 21.583 2.538 21.401 2.447 21.152C2.356 20.904 2.402 20.626 2.569 20.42C3.037 19.844 3.36 19.147 3.501 18.404C3.544 18.177 3.426 17.894 3.184 17.649C1.292 15.728 0.25 13.213 0.25 10.567C0.25 4.87799 5.072 0.25 11 0.25C16.928 0.25 21.75 4.87799 21.75 10.567C21.75 16.256 16.928 20.883 11 20.883C10.307 20.884 9.609 20.819 8.926 20.691C8.667 20.642 8.42299 20.597 8.332 20.593C8.23699 20.627 7.994 20.756 7.737 20.893L7.726 20.899C6.671 21.46 5.494 21.75 4.314 21.75H4.315ZM11 1.75C5.9 1.75 1.75 5.70499 1.75 10.567C1.75 12.817 2.639 14.958 4.253 16.597C4.848 17.201 5.111 17.962 4.975 18.684C4.871 19.229 4.693 19.756 4.45 20.248C5.34 20.227 6.225 19.998 7.023 19.573L7.034 19.567C7.557 19.289 7.81901 19.15 8.10601 19.107C8.3868 19.0632 8.65668 19.1136 9.19307 19.2137L9.2 19.215C9.794 19.327 10.399 19.381 10.999 19.382C16.101 19.382 20.25 15.427 20.25 10.566C20.25 5.70502 16.1 1.749 11 1.749V1.75Z" fill="#1B8354"/>
</svg>
