<svg width="28" height="28" viewBox="0 0 28 28" fill="none" xmlns="http://www.w3.org/2000/svg">
<path d="M13.3404 1.45703H13.4929C15.7655 1.457 17.5755 1.45698 18.994 1.68135C20.47 1.9148 21.6413 2.4074 22.5478 3.47388C23.2631 4.31551 23.6581 5.33214 23.8841 6.56301C24.1074 7.779 24.1752 9.26079 24.1975 11.0713C24.2034 11.5545 23.8165 11.951 23.3333 11.957C22.8501 11.9629 22.4536 11.576 22.4476 11.0928C22.4254 9.28725 22.357 7.93597 22.1629 6.87908C21.9716 5.83706 21.668 5.14098 21.2144 4.60727C20.6686 3.96521 19.9451 3.60354 18.7206 3.40986C17.4545 3.20959 15.783 3.20703 13.4167 3.20703C11.0503 3.20703 9.37888 3.20959 8.11273 3.40986C6.88824 3.60354 6.16471 3.96521 5.61896 4.60727C5.05576 5.26986 4.72397 6.18266 4.55087 7.6973C4.37635 9.22447 4.375 11.2277 4.375 13.9987C4.375 16.7697 4.37635 18.7729 4.55088 20.3001C4.72397 21.8147 5.05576 22.7275 5.61896 23.3901C6.16471 24.0322 6.88824 24.3939 8.11273 24.5875C9.37888 24.7878 11.0503 24.7904 13.4167 24.7904C13.8999 24.7904 14.2917 25.1821 14.2917 25.6654C14.2917 26.1486 13.8999 26.5404 13.4167 26.5404H13.3404C11.0678 26.5404 9.25779 26.5404 7.83933 26.3161C6.36337 26.0826 5.19208 25.59 4.28557 24.5235C3.3965 23.4776 3.00217 22.1612 2.81219 20.4988C2.62498 18.8606 2.62499 16.7574 2.625 14.0565V13.9409C2.62499 11.24 2.62498 9.13676 2.81219 7.4986C3.00216 5.83624 3.3965 4.51984 4.28557 3.47389C5.19207 2.4074 6.36337 1.9148 7.83933 1.68135C9.2578 1.45698 11.0678 1.457 13.3404 1.45703Z" fill="#067647"/>
<path d="M8.45833 9.33203C8.45833 8.84878 8.85008 8.45703 9.33333 8.45703H17.5C17.9832 8.45703 18.375 8.84878 18.375 9.33203C18.375 9.81528 17.9832 10.207 17.5 10.207H9.33333C8.85008 10.207 8.45833 9.81528 8.45833 9.33203Z" fill="#067647"/>
<path d="M8.45833 15.1654C8.45833 14.6821 8.85008 14.2904 9.33333 14.2904H12.8333C13.3166 14.2904 13.7083 14.6821 13.7083 15.1654C13.7083 15.6486 13.3166 16.0404 12.8333 16.0404H9.33333C8.85008 16.0404 8.45833 15.6486 8.45833 15.1654Z" fill="#067647"/>
<path fill-rule="evenodd" clip-rule="evenodd" d="M20.2708 13.1237C17.613 13.1237 15.4583 15.2783 15.4583 17.9362C15.4583 19.3043 16.0299 20.539 16.9448 21.4144L16.434 23.0227C16.3111 23.4096 16.2076 23.7356 16.141 23.9959C16.0776 24.2433 16.0126 24.5529 16.0558 24.8625C16.1853 25.791 16.9579 26.5368 17.934 26.5404C18.2592 26.5415 18.5612 26.4205 18.7851 26.32C19.0237 26.2128 19.3185 26.058 19.6642 25.8766L19.6889 25.8637C20.0341 25.6825 20.1056 25.6492 20.1677 25.6305C20.3307 25.5813 20.5026 25.5813 20.6656 25.6305C20.7277 25.6492 20.7992 25.6825 21.1444 25.8637L21.169 25.8766C21.5147 26.058 21.8096 26.2128 22.0483 26.32C22.2722 26.4205 22.5741 26.5415 22.8993 26.5404C23.8754 26.5368 24.648 25.791 24.7775 24.8625C24.8207 24.5529 24.7557 24.2433 24.6924 23.9959C24.6257 23.7357 24.5222 23.4097 24.3994 23.0229L23.8885 21.4144C24.8035 20.539 25.375 19.3043 25.375 17.9362C25.375 15.2783 23.2204 13.1237 20.5625 13.1237H20.2708ZM18.1099 23.5274L18.4681 22.3994C19.0253 22.6246 19.634 22.7487 20.2708 22.7487H20.5625C21.1993 22.7487 21.8081 22.6246 22.3652 22.3994L22.7234 23.5274C22.8564 23.946 22.9443 24.224 22.997 24.4299C23.0306 24.561 23.0384 24.6229 23.0407 24.6407C23.0211 24.7327 22.963 24.7738 22.92 24.7861C22.8946 24.7775 22.8453 24.7596 22.7653 24.7236C22.5816 24.6411 22.3348 24.512 21.9576 24.3141L21.9036 24.2857C21.6426 24.1485 21.4141 24.0283 21.1709 23.955C20.6784 23.8065 20.1549 23.8065 19.6624 23.955C19.4193 24.0283 19.1908 24.1485 18.9297 24.2857L18.8757 24.3141C18.4986 24.512 18.2517 24.6411 18.068 24.7236C17.988 24.7596 17.9388 24.7775 17.9133 24.7861C17.8704 24.7738 17.8122 24.733 17.7926 24.641C17.7949 24.6232 17.8028 24.5609 17.8363 24.4299C17.889 24.224 17.9769 23.946 18.1099 23.5274ZM17.2083 17.9362C17.2083 16.2448 18.5795 14.8737 20.2708 14.8737H20.5625C22.2539 14.8737 23.625 16.2448 23.625 17.9362C23.625 18.954 23.1294 19.856 22.3625 20.4142C21.8573 20.782 21.2365 20.9987 20.5625 20.9987H20.2708C19.5968 20.9987 18.976 20.782 18.4709 20.4142C17.704 19.856 17.2083 18.954 17.2083 17.9362Z" fill="#067647"/>
</svg>
