<svg width="28" height="28" viewBox="0 0 28 28" fill="none" xmlns="http://www.w3.org/2000/svg">
<path fill-rule="evenodd" clip-rule="evenodd" d="M13.6196 1.45703H13.2106C12.3409 1.45701 11.6124 1.45699 11.0182 1.52733C10.3881 1.60194 9.82128 1.7635 9.31085 2.14502C8.80309 2.52455 8.48144 3.02446 8.21827 3.61112C7.98206 4.13768 7.76478 4.80199 7.50909 5.59688C7.04334 5.62252 6.61374 5.6598 6.21824 5.71398C4.91004 5.8932 3.84563 6.272 3.00694 7.12662C2.17051 7.97895 1.80182 9.05685 1.62698 10.382C1.457 11.6703 1.45701 13.3161 1.45703 15.3925V15.5216C1.45701 17.598 1.457 19.2438 1.62698 20.5321C1.80182 21.8572 2.17051 22.9351 3.00694 23.7874C3.84563 24.6421 4.91004 25.0209 6.21824 25.2001C7.48572 25.3737 9.10354 25.3737 11.1383 25.3737H12.8396C13.3228 25.3737 13.7146 24.9819 13.7146 24.4987C13.7146 24.0154 13.3228 23.6237 12.8396 23.6237H11.2051C9.08848 23.6237 7.59072 23.6218 6.45577 23.4663C5.34771 23.3145 4.71671 23.0312 4.25597 22.5617C3.79299 22.0899 3.51196 21.4402 3.36194 20.3032C3.20882 19.1426 3.20703 17.6125 3.20703 15.457C3.20703 13.3016 3.20882 11.7714 3.36194 10.6109C3.51196 9.47388 3.79299 8.82414 4.25597 8.35236C4.71671 7.88286 5.34771 7.59959 6.45577 7.44778C7.59072 7.29229 9.08848 7.29037 11.2051 7.29037H15.6416C17.7582 7.29037 19.256 7.29229 20.3909 7.44778C21.499 7.59959 22.13 7.88286 22.5907 8.35236C23.3163 9.09176 23.5699 10.2335 23.6239 12.8501C23.6339 13.3332 24.0336 13.7168 24.5167 13.7068C24.9999 13.6969 25.3835 13.2971 25.3735 12.814C25.3212 10.276 25.1136 8.42475 23.8397 7.12662C23.001 6.27199 21.9366 5.8932 20.6284 5.71398C20.2282 5.65914 19.793 5.62163 19.3208 5.59596C19.0652 4.80148 18.848 4.13747 18.6119 3.61112C18.3487 3.02446 18.0271 2.52455 17.5193 2.14502C17.0089 1.7635 16.4421 1.60194 15.812 1.52733C15.2178 1.45699 14.4893 1.45701 13.6196 1.45703ZM17.4643 5.54535C17.2955 5.03384 17.1566 4.64272 17.0152 4.32739C16.8177 3.88723 16.6513 3.68104 16.4716 3.54673C16.2946 3.41441 16.0611 3.31905 15.6062 3.2652C15.127 3.20845 14.5026 3.20703 13.5686 3.20703H13.2616C12.3275 3.20703 11.7032 3.20845 11.224 3.2652C10.7691 3.31905 10.5356 3.41441 10.3586 3.54673C10.1789 3.68104 10.0124 3.88723 9.81497 4.32739C9.6735 4.64275 9.53461 5.03391 9.36586 5.54551C9.91805 5.54035 10.5083 5.54036 11.1385 5.54037H15.7082C16.3321 5.54036 16.9168 5.54035 17.4643 5.54535Z" fill="#067647"/>
<path fill-rule="evenodd" clip-rule="evenodd" d="M15.4567 20.4463C15.4567 17.6908 17.6905 15.457 20.446 15.457C23.2015 15.457 25.4353 17.6908 25.4353 20.4463C25.4353 21.5095 25.1028 22.495 24.536 23.3045L26.2828 25.0457C26.6251 25.3868 26.6259 25.9408 26.2848 26.2831C25.9436 26.6253 25.3896 26.6262 25.0474 26.2851L23.2976 24.5409C22.4894 25.1049 21.5063 25.4356 20.446 25.4356C17.6905 25.4356 15.4567 23.2018 15.4567 20.4463ZM20.446 17.207C18.657 17.207 17.2067 18.6573 17.2067 20.4463C17.2067 22.2353 18.657 23.6856 20.446 23.6856C22.235 23.6856 23.6853 22.2353 23.6853 20.4463C23.6853 18.6573 22.235 17.207 20.446 17.207Z" fill="#067647"/>
</svg>
