<svg width="28" height="28" viewBox="0 0 28 28" fill="none" xmlns="http://www.w3.org/2000/svg">
<path fill-rule="evenodd" clip-rule="evenodd" d="M16.9728 14.7168C17.1408 14.7985 17.3252 14.8405 17.5107 14.8405V14.8417C17.66 14.8417 17.8105 14.8148 17.954 14.7611C17.9668 14.7565 17.9796 14.7518 17.9925 14.746C19.718 14.0005 20.9103 13.5478 22.2625 13.2853C22.3851 13.2626 22.5187 13.2421 22.6591 13.2206L22.6708 13.2188L22.6723 13.2186C23.4631 13.0996 24.5436 12.9371 25.087 11.9717C25.3075 11.5878 25.3961 11.1282 25.374 10.4842V3.49932C25.374 3.40832 25.3611 3.31968 25.3331 3.23335C25.0018 2.19385 24.5153 1.71898 23.5388 1.48215C23.4548 1.46232 23.3685 1.45296 23.2821 1.45879C21.3116 1.57079 19.963 1.84149 17.5095 3.09099C15.2193 1.86832 13.677 1.56729 11.7135 1.45879C11.6435 1.45413 11.5746 1.45883 11.5058 1.47167C10.4208 1.67233 9.89933 2.18683 9.645 3.3045C9.62983 3.3675 9.62284 3.43285 9.62284 3.49818V10.4935C9.61584 11.7267 9.91796 12.639 11.4136 13.087C11.4498 13.0987 11.4883 13.1068 11.5256 13.1126C13.9838 13.5081 15.1062 13.8383 16.9728 14.7168ZM18.374 12.6845V4.6158C20.425 3.57513 21.5181 3.32199 23.2495 3.21466C23.4548 3.27183 23.5178 3.32898 23.624 3.64048V10.5332C23.6391 10.9438 23.5855 11.0698 23.5691 11.099C23.5669 11.1023 23.5648 11.1066 23.5626 11.111C23.4389 11.3327 22.8925 11.4163 22.4107 11.4887C22.2567 11.5108 22.0968 11.5353 21.9346 11.5657C20.733 11.7978 19.6771 12.1525 18.374 12.6845ZM16.624 12.6448C15.1738 12.0417 13.9442 11.7313 11.8617 11.3941C11.4183 11.2611 11.3705 11.2192 11.374 10.4993V3.5985C11.444 3.29867 11.4732 3.26249 11.7228 3.21233C13.4028 3.31266 14.6838 3.57518 16.624 4.60184V12.6448Z" fill="#067647"/>
<path d="M10.5 26.5409C7.08517 26.5409 5.20449 26.5409 3.92816 25.3486C2.625 24.1178 2.625 22.3386 2.625 19.1093V13.4743C2.625 10.2449 2.62502 8.46576 3.92468 7.23842C4.87902 6.35292 6.11098 6.19311 6.95448 6.14877C7.43748 6.12427 7.84819 6.49412 7.87386 6.97712C7.89836 7.46012 7.52735 7.87077 7.04552 7.89644C6.12502 7.94427 5.53118 8.13445 5.12052 8.51594C4.40418 9.19261 4.375 10.4479 4.375 13.4743V19.1093C4.375 22.1356 4.40416 23.391 5.12633 24.0735C5.89515 24.7909 7.43395 24.7909 10.4999 24.7909C13.5659 24.7909 15.1048 24.7909 15.8771 24.0699C16.5958 23.3909 16.625 22.1356 16.625 19.1093V17.4643C16.625 16.9813 17.017 16.5893 17.5 16.5893C17.983 16.5893 18.375 16.9813 18.375 17.4643V19.1093C18.375 22.3386 18.375 24.1178 17.0753 25.3451C15.7955 26.5409 13.9148 26.5409 10.5 26.5409Z" fill="#067647"/>
<path d="M10.5115 23.3332C9.86751 23.3332 9.34017 22.8105 9.34017 22.1665C9.34017 21.5225 9.85705 20.9998 10.5022 20.9998H10.5127C11.1567 20.9998 11.6794 21.5225 11.6794 22.1665C11.6794 22.8105 11.1567 23.3332 10.5127 23.3332H10.5115Z" fill="#067647"/>
</svg>
