<svg width="28" height="28" viewBox="0 0 28 28" fill="none" xmlns="http://www.w3.org/2000/svg">
<path fill-rule="evenodd" clip-rule="evenodd" d="M1.45703 9.33333C1.45703 9.76492 1.45702 10.877 6.18392 13.2487L7.5938 19.7843C7.74896 20.5076 8.11534 21.0956 8.65667 21.4899C10.0998 22.5213 12.0388 23.0381 13.9802 23.0381L13.9778 23.0393C15.9203 23.0393 17.864 22.5212 19.3107 21.4864C19.8462 21.0979 20.2113 20.5087 20.3665 19.7854L21.7753 13.2537C22.231 13.0251 22.6428 12.8083 23.0151 12.6026V19.0283C22.1739 20.58 21.7387 21.5297 21.3012 23.1C21.2931 23.1292 21.2861 23.1594 21.2814 23.1898C21.1822 23.7871 21.1741 24.5431 22.0059 25.0996C22.0085 25.1017 22.0113 25.1035 22.0143 25.1054C22.0179 25.1077 22.0218 25.1099 22.0257 25.1125C22.2987 25.284 22.6347 25.375 22.9952 25.375H24.7674C25.1617 25.375 25.5059 25.2781 25.7906 25.0856C25.7987 25.0809 25.8057 25.0751 25.8127 25.0705C26.6212 24.4871 26.5909 23.7137 26.4976 23.1828C26.4941 23.1595 26.4883 23.1362 26.4824 23.1129C26.1161 21.7129 25.6482 20.7235 24.7651 19.0354V11.5276C26.5112 10.3031 26.5112 9.64303 26.5112 9.33333C26.5112 8.8795 26.5112 7.67316 21.0162 5.04116C18.5044 3.83833 15.3567 2.625 13.9847 2.625C12.6127 2.625 9.46502 3.83833 6.95318 5.04116C1.45702 7.67316 1.45703 8.8795 1.45703 9.33333ZM13.9847 16.0417C12.8286 16.0417 10.4111 15.1802 8.17671 14.1895L9.30415 19.4167C9.34848 19.6232 9.45001 19.9044 9.67984 20.0724C11.9688 21.7104 15.9938 21.7104 18.2875 20.0689C18.5115 19.9067 18.6118 19.6256 18.6562 19.418L19.7828 14.1937C17.5506 15.1827 15.1391 16.0417 13.9847 16.0417ZM3.27818 9.33333C3.67718 9.80117 5.16822 10.8617 8.07439 12.2208C10.9526 13.566 13.2672 14.2917 13.9847 14.2917C14.7022 14.2917 17.0157 13.566 19.8938 12.2208C22.8 10.8617 24.291 9.80117 24.69 9.33333C24.291 8.8655 22.8 7.805 19.8938 6.44583C17.0157 5.10067 14.701 4.375 13.9847 4.375C13.2684 4.375 10.9537 5.10067 8.07439 6.44583C5.16706 7.80383 3.67718 8.8655 3.27818 9.33333ZM22.9882 23.625C22.9906 23.5982 22.994 23.5644 23.001 23.5212C23.2565 22.6112 23.5062 21.9438 23.8831 21.1598C24.2949 22.0115 24.5586 22.6823 24.7791 23.5177C24.7861 23.5632 24.7896 23.5982 24.7919 23.625H22.9882Z" fill="#067647"/>
</svg>
