<svg width="28" height="28" viewBox="0 0 28 28" fill="none" xmlns="http://www.w3.org/2000/svg">
<path fill-rule="evenodd" clip-rule="evenodd" d="M8.88063 2.62515C8.04807 2.62394 7.34889 2.62294 6.72457 2.94087C6.37944 3.11663 6.10998 3.3571 5.85782 3.63501C5.62091 3.89611 5.36477 4.23033 5.06588 4.62033L4.76777 5.00928C4.51716 5.33618 4.28413 5.64016 4.12015 5.91738C3.93755 6.22607 3.79297 6.57682 3.79297 7.00029C3.79297 7.42377 3.93755 7.77452 4.12015 8.08321C4.28413 8.36043 4.51716 8.66441 4.76778 8.99131L5.06589 9.38027C5.36477 9.77026 5.62091 10.1045 5.85782 10.3656C6.10998 10.6435 6.37944 10.884 6.72457 11.0597C7.34889 11.3777 8.04807 11.3766 8.88063 11.3754L13.1263 11.3753L13.1263 23.6253H10.5013C10.0181 23.6253 9.6263 24.017 9.6263 24.5003C9.6263 24.9835 10.0181 25.3753 10.5013 25.3753H17.5013C17.9846 25.3753 18.3763 24.9835 18.3763 24.5003C18.3763 24.017 17.9846 23.6253 17.5013 23.6253H14.8763V17.2086L19.122 17.2088C19.9545 17.21 20.6537 17.211 21.278 16.8931C21.6232 16.7173 21.8926 16.4768 22.1448 16.1989C22.3816 15.9379 22.6377 15.6038 22.9365 15.2139L23.2348 14.8247C23.4854 14.4978 23.7185 14.1937 23.8825 13.9165C24.0651 13.6079 24.2096 13.2571 24.2096 12.8336C24.2096 12.4101 24.0651 12.0594 23.8825 11.7507C23.7185 11.4735 23.4854 11.1695 23.2348 10.8426L22.9367 10.4537C22.6378 10.0637 22.3817 9.72945 22.1448 9.46835C21.8926 9.19044 21.6232 8.94997 21.278 8.7742C20.6537 8.45627 19.9545 8.45728 19.122 8.45848L14.8763 8.45863L14.8763 4.66695C14.8763 4.55536 14.8554 4.44866 14.8173 4.35052C14.761 3.97635 14.6381 3.58356 14.3311 3.24968C13.9881 2.8768 13.5625 2.73617 13.1592 2.67721C12.803 2.62514 12.3683 2.62521 11.9091 2.62529L8.88063 2.62515ZM13.1263 9.62529H9.03703C7.96193 9.62529 7.72085 9.60322 7.51872 9.50029C7.43128 9.45576 7.32625 9.37966 7.15384 9.18964C6.9716 8.98878 6.7594 8.71307 6.43429 8.28888L6.18359 7.96178C5.89693 7.58777 5.73025 7.36788 5.62636 7.19225C5.57921 7.11254 5.55925 7.06472 5.5505 7.0381C5.54324 7.01604 5.54297 7.00669 5.54297 7.00029C5.54297 6.9939 5.54324 6.98455 5.5505 6.96249C5.55925 6.93586 5.57921 6.88805 5.62636 6.80834C5.73025 6.63271 5.89693 6.41282 6.18359 6.03881L6.43429 5.71171C6.7594 5.28752 6.9716 5.0118 7.15384 4.81095C7.32625 4.62093 7.43128 4.54483 7.51872 4.5003C7.72085 4.39737 7.96193 4.3753 9.03703 4.3753H11.8553C12.3879 4.3753 12.6918 4.37748 12.9061 4.40881C12.9839 4.42018 13.0254 4.43224 13.0452 4.43983C13.0559 4.46329 13.0768 4.52475 13.0936 4.66086C13.1247 4.91232 13.1263 5.26086 13.1263 5.83363V9.62529ZM18.9656 15.4586H14.8763V10.2086H18.9656C20.0407 10.2086 20.2818 10.2307 20.4839 10.3336C20.5713 10.3782 20.6764 10.4543 20.8488 10.6443C21.031 10.8451 21.2432 11.1209 21.5683 11.545L21.819 11.8721C22.1057 12.2462 22.2724 12.466 22.3762 12.6417C22.4234 12.7214 22.4434 12.7692 22.4521 12.7958C22.4594 12.8179 22.4596 12.8272 22.4596 12.8336C22.4596 12.84 22.4594 12.8494 22.4521 12.8714C22.4434 12.8981 22.4234 12.9459 22.3762 13.0256C22.2724 13.2012 22.1057 13.4211 21.819 13.7951L21.5683 14.1222C21.2432 14.5464 21.031 14.8221 20.8488 15.023C20.6764 15.213 20.5713 15.2891 20.4839 15.3336C20.2818 15.4366 20.0407 15.4586 18.9656 15.4586ZM13.0604 4.44755C13.0599 4.44773 13.0566 4.44625 13.0519 4.44259C13.0586 4.44554 13.0609 4.44738 13.0604 4.44755Z" fill="#067647"/>
</svg>
