<svg width="79" height="42" viewBox="0 0 79 42" fill="none" xmlns="http://www.w3.org/2000/svg">
<g clip-path="url(#clip0_418_11844)">
<path d="M48.6511 6.19669C47.1649 5.74685 47.2483 5.26604 46.3668 4.84489C45.9776 4.65899 43.859 4.53505 44.3906 3.6939C44.4949 3.52866 44.8795 3.64571 44.5829 2.99735C43.3481 3.09718 42.3867 2.67604 41.3754 2.04604C40.8831 1.19341 43.0678 1.54341 43.4848 1.61685C43.9806 1.70522 44.5134 1.94505 45.0092 2.06325L45.6799 1.49981C46.1282 1.81767 46.8533 2.45571 47.3746 2.58653C47.9398 2.72882 48.2306 2.37538 48.9279 2.64964C49.7052 2.95604 50.8774 4.25046 51.423 4.42259C51.9211 4.57981 52.6254 4.34341 53.0494 4.53276C53.1351 4.57177 54.3085 5.64587 54.4382 5.7962C54.8043 6.2162 55.1541 7.13653 55.4761 7.40735C55.7981 7.67817 56.163 7.62079 56.4932 7.77685C56.9797 8.00636 58.4821 10.1488 58.7473 10.7077C58.9246 11.0818 59.191 12.3234 59.2443 12.3957C59.3045 12.4783 60.7119 12.9637 60.9864 13.4239C61.1069 13.627 61.0026 13.9208 61.071 14.1434C61.3108 14.918 61.7648 15.7385 61.7486 16.5796C61.7301 17.4839 61.1694 18.6108 60.8219 19.4382C61.4208 19.88 61.9409 20.4216 62.322 21.0619C62.3788 21.7229 61.4776 23.9836 61.7556 24.4254C61.9479 24.5252 62.1575 24.5459 62.3707 24.5619C64.107 24.687 66.7736 24.671 68.5204 24.5619C68.9745 24.5332 70.8846 24.3141 71.0618 23.9813C71.1858 23.7506 71.2263 23.1195 71.3491 22.7741C71.648 21.9318 72.621 19.7664 73.7898 20.8221C74.2392 21.2283 74.2172 22.431 74.1257 23.0001C74.0492 23.4718 73.5801 23.9262 73.7851 24.5562H75.9281C75.9698 24.5562 76.6775 24.3623 76.7204 24.337C77.5845 23.8218 75.0941 21.3775 76.5084 20.7762C78.4186 23.1608 77.7965 26.1295 74.3018 25.9378C73.5674 25.8977 72.7889 25.5614 72.0928 25.4869C70.7039 25.3377 69.3139 25.846 67.9343 25.9332C65.6488 26.0767 63.1132 25.7324 60.8648 25.9298C60.1767 25.9906 59.4748 26.3177 59.3311 27.0521C59.2269 27.588 59.5744 27.8049 59.5223 28.0287C59.462 28.2857 57.8647 30.2205 57.5704 30.4683C56.7561 31.1546 55.9568 31.2509 54.9224 31.345C54.9363 31.7364 54.5066 32.1403 54.4602 32.4467C54.422 32.6946 54.5784 32.9011 54.5402 33.0836C54.4672 33.4255 53.6378 33.6516 53.3227 33.8329C51.423 34.9277 51.2609 35.4762 48.819 35.2547C48.7136 35.2455 48.548 35.3534 48.5364 35.3454C48.5086 35.3259 48.4623 34.8106 48.3094 34.7073C47.9387 34.456 47.4093 34.9495 47.6618 35.3477C47.7846 35.5416 48.153 35.5037 48.2746 35.6036C48.3858 35.6942 48.4935 36.2095 48.7646 36.3208C47.319 37.52 45.7505 38.6342 43.7617 38.0673C42.7898 37.7908 42.4944 36.9852 41.3754 37.2606C41.0569 37.3387 39.7479 37.8091 39.9877 38.197L41.9338 39.7083C42.0496 39.8701 41.7032 40.1111 41.5307 40.1191C40.8982 40.1455 39.9367 38.4839 39.2128 38.3347C37.9791 38.7157 37.4231 40.4669 36.0273 40.2798C35.6508 39.9401 38.2652 38.1798 38.5745 38.041C38.6371 37.7828 37.4185 37.1814 37.188 37.1218C36.0227 36.82 35.7261 37.6864 34.7821 37.8436C34.3639 37.9136 33.6364 37.909 33.216 37.8436C32.865 37.7885 30.2865 36.8016 30.0583 36.6111C29.6621 36.2818 29.8521 36.0442 29.6841 35.7195C29.5162 35.3947 29.091 35.109 29.0748 34.6569C28.2269 35.101 27.3998 35.1664 26.5357 34.7062C25.7828 34.3057 23.6143 32.4937 23.2216 31.7926C23.0942 31.5642 22.9182 30.8872 22.7907 30.785C22.639 30.6634 21.7899 30.6037 21.4331 30.466C20.0234 29.921 19.1222 27.8232 18.0067 26.8501C17.9361 26.7101 18.4411 25.5741 18.1202 25.2332C17.2932 24.9452 16.3815 25.2332 15.5858 25.2505C15.0286 25.2631 12.4906 25.1036 12.2717 25.4387C12.0933 25.7095 11.9497 26.3291 11.7238 26.7021C11.0531 27.8072 9.54028 28.7746 8.19543 28.5462C7.94523 28.5037 7.0197 28.0952 6.83784 27.9403C6.67798 27.8049 6.75791 27.7096 6.90965 27.6706C7.22473 27.5891 7.67417 27.6878 8.03789 27.6408C8.92172 27.5249 9.78238 27.2621 10.533 26.7847C10.9118 26.5437 11.535 26.0985 11.5917 25.6532C11.5373 24.9934 9.47426 25.3067 9.27155 24.267C9.13254 23.5544 10.3477 21.226 11.0044 21.0459C11.8257 20.821 12.442 23.17 12.5682 23.7575L12.7014 23.8551C13.4694 23.8711 14.3602 23.8505 15.1189 23.7541C17.1658 23.4936 16.2147 23.4511 16.019 22.1762C15.9669 21.8342 16.0329 21.4923 15.9796 21.1824C15.8418 20.3803 15.4352 19.8869 15.7688 19.0044C15.9031 18.6498 16.392 18.2459 16.4487 17.9578C16.553 17.4288 16.2842 16.4603 16.3317 15.7752C16.3758 15.1418 17.1715 12.4898 17.5133 12.0113C17.9187 11.4455 18.6461 11.4065 18.8905 11.0806C19.0944 10.8087 19.2983 9.77817 19.6018 9.26062C19.9748 8.62374 20.5146 8.1739 20.9652 7.62767C21.2015 7.34194 21.6625 6.44571 21.944 6.43423C22.098 6.42849 22.288 6.55128 22.5185 6.53751C23.363 6.48702 23.7024 5.65964 24.2723 5.1662C24.5688 4.90915 25.6982 4.12194 26.033 4.04161C26.443 3.94522 27.0373 4.03587 27.4485 3.83735C27.723 3.70538 28.1319 3.13276 28.5756 2.88833C29.7432 2.24341 30.2645 2.50735 31.3116 2.27095C31.6904 2.18489 32.0472 1.67767 32.6055 1.60079C32.8731 1.56407 33.4905 1.57325 33.7627 1.61112C33.9538 1.63751 34.0894 1.828 34.3465 1.84522C34.9917 1.88997 35.6914 1.37472 36.6308 1.63636C36.8046 1.68456 37.4011 1.86128 37.1891 2.12292C36.6099 2.83784 35.0624 3.23603 34.1751 3.32669L34.394 3.93374C33.8681 4.78407 32.7711 4.57866 32.0066 4.90915C31.4193 5.16276 30.6328 6.18177 29.8915 6.37226C29.3853 6.50194 28.8698 6.32177 28.3902 6.60636C28.0508 6.80833 27.9964 7.1939 27.7439 7.45784C27.0326 8.20374 25.6565 8.53653 25.0159 9.11604C24.1205 9.9262 23.6375 11.4788 22.4108 12.5024C22.215 12.6654 21.5142 13.0303 21.483 13.0751C21.2293 13.4354 21.681 13.7475 21.6648 14.0447C21.6474 14.3614 21.0949 16.3134 20.942 16.6703C20.6848 17.2739 20.1346 17.8396 19.5786 18.1839C20.7312 19.7824 20.9964 21.8251 21.0231 23.7529C22.0876 24.2934 23.6653 25.5362 24.1159 26.6562C24.2897 27.0865 24.307 28.0493 24.8538 28.1147C25.2279 28.1606 25.2951 27.9552 25.8303 28.1687C26.8774 28.5864 29.2312 29.8464 29.749 30.8287C29.8961 31.1075 30.0988 32.0496 30.305 32.1185C30.81 32.2872 30.8552 31.7203 31.044 31.6044C31.1564 31.5355 32.9449 31.8764 33.2426 31.9567C34.701 32.3491 36.318 33.6505 36.5752 35.1962C36.6354 35.5554 36.5347 35.996 36.625 36.2944C36.7246 36.6226 38.8039 37.5223 39.2093 37.5303C39.5614 37.5372 41.021 36.9542 41.3221 36.7465C41.8944 36.3506 41.7855 35.0091 42.1388 34.3424C42.8732 32.9585 45.2386 32.4926 46.5348 31.7995C46.8985 31.7478 47.0664 32.2872 47.729 32.0783C48.0047 31.9911 48.9673 30.8964 49.3565 30.5888C49.8071 30.2308 51.6292 28.91 52.0659 28.9031C52.4343 28.8973 53.0691 29.159 53.4108 28.7528C53.5312 28.6105 53.7722 27.6741 53.9587 27.3447C54.1591 26.9913 56.1503 24.8339 56.4167 24.7203C56.6831 24.6067 56.9924 24.9234 57.1685 24.5516C57.2947 24.2854 57.0909 23.9067 57.0967 23.5796C57.1106 22.8223 57.6944 21.4211 58.0118 20.689C58.1623 20.3401 58.6547 19.6677 58.7079 19.421C58.8203 18.8977 58.1519 18.3365 57.9295 17.8282C57.7975 17.5264 57.728 17.1821 57.6272 16.8654C57.3144 15.8842 57.055 14.8182 57.0828 13.79C56.6924 13.5352 56.1097 13.269 55.775 12.9637C55.5445 12.7526 54.0398 10.757 53.9529 10.5229C53.8162 10.15 53.9181 9.77472 53.7224 9.43046C52.7146 9.33981 51.4856 8.35522 50.9168 7.56341C50.7639 7.35112 50.5543 6.72112 50.428 6.64308C50.0399 6.40669 49.2326 6.51456 48.841 6.40325C48.6835 6.35849 48.665 6.19784 48.6511 6.19325C48.7217 6.2403 50.3168 6.3321 50.1569 5.85013C49.7504 6.22194 47.7881 4.68194 47.7244 5.22931C47.7591 5.9362 48.226 5.76407 48.6314 5.98899C48.687 6.01997 48.6395 6.18636 48.6511 6.1944V6.19669ZM44.7127 2.2962C43.8196 2.37079 43.018 1.44128 42.1666 2.00817C42.85 2.53145 43.6968 2.78735 44.5435 2.528C44.708 2.47751 44.7474 2.59571 44.7127 2.2962ZM33.4766 2.2962C33.1569 2.19292 31.6904 2.05177 31.6186 2.37194L31.6232 2.86882C32.1213 2.75063 32.7804 2.70931 33.2496 2.58194C33.4546 2.52571 33.5183 2.54636 33.4754 2.2962H33.4766ZM36.1397 2.18145C35.3578 2.15964 34.5527 2.10685 34.0569 2.81144C34.1681 2.97095 34.277 2.98472 34.46 2.9939C34.694 3.00653 36.4431 2.44538 36.1385 2.1803L36.1397 2.18145ZM46.6819 3.32899C46.8487 3.34735 47.1973 3.27046 47.1452 3.0421C47.1232 2.94685 45.5073 1.63751 45.695 2.52571C45.7517 2.75407 46.763 3.1144 46.5649 3.32669C44.3188 2.84472 46.4062 4.29636 46.917 3.96243C47.3526 3.67669 46.6112 3.66751 46.6819 3.32784V3.32899ZM30.2332 2.86997C29.9969 2.63013 27.8551 3.49882 28.0335 4.13112C28.1632 4.25964 30.5923 3.57571 30.2332 2.86997ZM32.8731 3.64685C32.9773 3.58604 33.4187 3.00194 33.0526 2.88718C32.3669 2.6703 32.3252 3.41964 31.6232 3.32899C31.5016 3.79489 32.7202 3.73522 32.8731 3.64685ZM50.9261 4.40079C50.6875 4.12767 49.0623 3.03636 48.7669 3.32784C48.731 3.49538 48.7692 3.53899 48.848 3.66292C49.016 3.92456 51.0118 5.22817 51.1983 5.048C51.2261 4.80128 51.0802 4.57751 50.9261 4.40079ZM33.8241 3.67325L31.9719 4.01866V4.36063C32.6877 4.52243 33.5889 4.51325 33.8241 3.67325ZM46.3344 4.01751C45.8235 4.15522 45.3428 3.38751 44.9455 3.84653C44.8447 4.32161 46.3274 4.70489 46.3344 4.01751ZM29.8463 3.94407C29.2729 3.9521 28.564 4.38587 28.1586 4.77259C27.467 5.43472 28.6532 5.24079 29.1026 5.13407C29.7339 4.98489 30.166 4.67046 30.5772 4.18735C30.5819 4.04046 29.9888 3.94177 29.8463 3.94292V3.94407ZM50.6029 5.06522C50.2485 4.94472 49.8291 4.47882 49.492 4.38931C49.1306 4.29292 47.5773 4.1162 48.1889 4.76341C48.4507 5.04112 50.2832 5.77554 50.5693 5.40144L50.6029 5.06636V5.06522ZM25.9102 4.6062C25.3507 4.93325 23.2518 5.99243 23.6873 6.77276C23.8333 6.97243 23.8553 6.80145 23.9885 6.72456C24.3441 6.5203 25.8465 5.62292 26.0121 5.40144C26.216 5.12833 26.3434 4.68997 25.9102 4.6062ZM30.2042 5.07325C29.9262 5.11226 28.3879 5.81112 28.3821 6.02456C29.2613 6.5662 30.1776 5.94194 30.8124 5.33489L30.6212 5.06292C30.4799 5.01931 30.3444 5.05489 30.2042 5.0744V5.07325ZM52.3578 5.04915L51.6582 5.10308L51.6813 5.60685L52.3578 5.62407V5.04915ZM54.9062 7.918C55.1367 6.67292 54.0004 5.60341 52.9382 5.16505C52.9266 5.4003 52.9196 5.62866 52.9903 5.85817C53.0482 6.04866 54.3108 7.63226 54.5054 7.79981C54.6514 7.92604 54.7012 7.95013 54.905 7.91915L54.9062 7.918ZM26.6423 5.85358C26.3029 5.52538 24.3232 6.83702 24.0313 7.22489C23.7892 7.5462 23.7869 7.83653 24.2572 7.8044C24.7808 7.76882 27.1751 6.36997 26.6411 5.85358H26.6423ZM51.1971 6.88522C51.1995 6.60177 51.4902 6.53292 51.6605 6.36882L50.852 6.19669C50.7628 6.36882 51.0859 6.96554 51.196 6.88407L51.1971 6.88522ZM54.21 8.14636C54.2239 7.98571 54.2228 7.84112 54.1498 7.69079C54.0085 7.39702 52.2652 5.958 52.0103 6.19669C52.2385 7.13308 53.1768 8.15325 54.21 8.14636ZM24.9337 8.57554C25.2928 8.98751 26.0365 8.25997 26.3492 8.02931C26.7454 7.73669 27.123 7.32587 27.5609 7.05964L27.1473 6.55587L24.8318 8.20145C24.8619 8.30817 24.8677 8.5021 24.9325 8.57669L24.9337 8.57554ZM23.283 6.88522C22.7015 6.79685 22.5753 6.98505 22.4722 7.51407C22.924 7.8503 23.4545 7.44292 23.283 6.88522ZM52.0509 8.2221C52.3937 8.55948 53.0772 9.10685 53.5741 9.07587C54.7521 9.00243 53.1756 8.14177 52.9474 7.96505C52.7401 7.8044 51.781 6.92308 51.701 6.90243C51.3697 6.81177 51.2516 7.09751 51.3338 7.37866C51.3489 7.43145 51.9536 8.12571 52.0509 8.2221ZM22.2405 7.11472C22.0772 7.10095 21.9336 7.10325 21.7807 7.17554C21.6138 7.25358 19.7605 9.65653 19.6678 9.9021C19.5323 10.2567 19.4512 11.0714 19.8682 11.2459C20.1288 10.4139 20.4902 9.65653 21.081 9.00587C21.6034 8.42981 22.4259 8.12571 22.2417 7.11587L22.2405 7.11472ZM56.053 8.04538L55.7727 7.92718L55.3696 8.54571C55.5329 8.7821 55.8178 8.72472 56.0646 8.72128L56.053 8.04538ZM24.3244 8.37702C24.1611 8.26341 23.6004 8.90833 23.6305 8.94849L24.4402 9.0644L24.3232 8.37702H24.3244ZM22.8197 8.60653C21.571 8.39194 20.0802 10.6411 20.1902 11.6337C20.3061 12.6826 21.6741 11.2367 21.9417 10.8924C22.4062 10.2923 22.873 9.37767 22.8209 8.60653H22.8197ZM56.9889 8.72243C56.8302 8.6903 56.7109 8.76374 56.6623 8.91407C56.404 9.70817 57.5924 10.508 57.9226 11.1839C58.0847 11.5144 58.0986 11.8873 58.2817 12.2098C58.3025 12.2465 58.7056 12.6619 58.7844 12.6229C59.3103 12.0939 58.7485 11.9631 58.6419 11.7944C58.5631 11.6693 58.6199 11.3572 58.5342 11.1529C58.116 10.15 57.589 9.57276 56.9889 8.72358V8.72243ZM54.9062 8.95079L54.2124 9.06669C54.1834 9.4362 54.3687 9.81603 54.795 9.70702C54.9827 9.47062 54.9954 9.2239 54.9062 8.95079ZM58.0338 12.7365C57.9735 11.8724 57.5762 11.216 57.0376 10.5688C56.8754 10.3737 55.8584 9.25718 55.6024 9.52456C55.5908 10.8075 56.6194 12.6126 58.0338 12.7365ZM23.9781 9.75522C22.8348 9.33177 22.6239 10.5906 22.105 11.2837C21.9799 11.4513 21.0636 12.2741 21.1992 12.3934C21.7123 12.4095 22.0714 12.4669 22.478 12.1123C22.7351 11.8885 23.685 10.5 23.8657 10.1592C23.9375 10.0226 24.0279 9.94226 23.9781 9.75636V9.75522ZM54.4429 10.0983C54.0872 10.4552 56.4318 13.4698 57.0457 13.3103L57.2276 13.0234C56.5036 12.1628 55.6823 11.3365 55.3128 10.2119L54.4429 10.0983ZM18.7214 11.597C18.3137 11.8265 18.133 12.8375 18.7017 12.8524C19.4303 12.8708 19.545 11.6005 18.7214 11.597ZM17.4913 17.6147V15.6639C17.4913 15.0855 18.543 13.9988 18.5407 13.4836C18.5396 13.0521 18.1191 12.0813 17.6581 12.7308C17.2492 13.8806 16.268 16.139 16.7569 17.3003C16.8356 17.4885 17.1472 17.5459 17.2607 17.7306L17.4913 17.6147ZM21.0822 12.9672L20.3211 13.0751L20.2702 13.8864L21.0648 13.7555L21.081 12.9683L21.0822 12.9672ZM59.9729 13.1106C59.3358 12.8065 58.9744 13.0555 59.2975 13.7246C59.9149 14.1801 60.3181 13.7337 59.9729 13.1106ZM58.2654 14.1136C58.3176 13.5926 57.8982 13.4859 57.4558 13.5398V14.1147L58.2654 14.1136ZM19.5763 13.6557C18.9658 13.6649 18.7203 14.1973 18.4399 14.6529C17.7484 15.7775 17.5642 16.7036 17.8388 18.0164C18.009 18.0255 18.1897 17.9969 18.3357 17.9062C18.3971 17.8683 19.0747 16.8447 19.1361 16.7196C19.2114 16.5647 19.5751 15.5251 19.5751 15.4332V13.6546L19.5763 13.6557ZM60.6968 14.2295C60.4524 14 60.1316 15.0305 60.1142 15.2026C60.0713 15.6364 60.2346 15.9657 60.2393 16.3478C60.2439 16.7518 60.1223 18.9734 60.2358 19.0492C60.5648 19.2706 60.9204 18.3721 60.9899 18.1334C61.3617 16.8585 61.1926 15.439 60.6968 14.2295ZM21.081 14.3442C19.8219 14.5439 19.7628 15.906 19.4002 16.8665C19.2913 17.1534 19.0747 17.4334 18.9751 17.7111C18.9137 17.8832 18.8361 17.8477 19.0562 18.0152C20.5736 17.7341 21.0034 15.6559 21.081 14.3442ZM58.8446 14.6311C58.7612 15.2359 58.8446 16.1596 58.8446 16.8114C58.8446 16.886 59.3485 18.1093 59.4203 18.1919C59.5512 18.34 60.1443 18.7049 60.1223 18.3021C59.8304 17.197 59.7609 15.3782 59.1319 14.4613C58.9778 14.2375 58.8666 14.4682 58.8435 14.6323L58.8446 14.6311ZM59.1238 18.3182C59.0172 18.0462 58.65 17.3175 58.6187 17.1511C58.4496 16.256 59.045 14.669 57.4558 14.8044L58.5597 18.5867L59.308 18.8196C59.4562 18.4605 59.1388 18.356 59.1238 18.3193V18.3182ZM16.4788 18.6188C16.0167 19.0606 17.1206 19.9121 17.3592 19.0801C17.5121 18.5454 16.8345 18.278 16.4788 18.6188ZM18.6635 19.4944C19.018 19.9006 19.8126 19.2144 19.2937 18.8082C18.7747 18.4019 18.4203 19.2155 18.6635 19.4944ZM20.269 24.2131C20.3431 23.839 20.613 23.5142 20.6235 23.1195C20.6443 22.3805 20.3582 20.5788 20.0477 19.9018C19.9898 19.7744 19.9319 19.5793 19.7501 19.6241C18.8245 20.518 19.4535 21.1606 19.6597 22.1223C19.7825 22.6972 19.83 23.4523 19.9806 23.9893C20.0373 24.1924 20.0153 24.2567 20.2678 24.2131H20.269ZM59.6532 20.5398C59.9277 19.8834 59.6833 19.5392 58.9605 19.6229C58.8771 20.1014 59.1273 20.5719 59.6532 20.5398ZM16.8831 19.8823C16.6862 19.6987 16.2425 19.74 15.9854 19.7377C15.851 20.1473 16.1464 20.4239 16.2055 20.7257C16.4661 22.0626 16.4893 24.7111 18.3021 24.7869C18.3067 24.0823 17.7519 23.6451 17.5445 22.9565C17.3685 22.369 17.1403 20.1232 16.8831 19.8834V19.8823ZM18.0125 19.74C17.3268 21.4234 17.6384 23.8734 19.4037 24.7846C19.7871 24.7639 19.3829 23.5773 19.3585 23.3387C19.3018 22.7706 19.3817 22.3472 19.2218 21.7528C19.033 21.0482 18.5732 20.2208 18.0125 19.74ZM61.3803 20.2105L60.698 20.1967L60.8069 20.9518L61.5054 20.8783L61.3803 20.2093V20.2105ZM58.9616 22.2623C59.0346 21.5806 59.5246 20.9667 58.672 20.541C58.167 21.1859 57.2067 23.9491 57.9156 24.5011C58.3315 24.8247 58.1774 23.8826 58.379 23.8688L58.613 25.3595C58.8041 25.4949 59.4655 24.4644 59.5593 24.29C59.8756 23.6967 60.4212 22.0328 60.3586 21.3982C60.2532 20.3332 59.2813 22.0178 58.9616 22.2611V22.2623ZM61.8552 21.3454C60.6053 21.6059 60.5474 23.0024 60.1408 23.9492C59.8258 24.6836 59.2373 25.2114 59.0763 25.9344C60.7177 25.8598 61.0849 24.6285 61.4544 23.2996C61.517 23.0736 61.9259 21.4165 61.8552 21.3454ZM73.2963 22.0614C72.9164 21.6805 72.4542 22.1923 72.2306 22.4987C70.9611 24.2418 73.6079 24.1695 73.5627 22.8992C73.5569 22.7396 73.3924 22.159 73.2951 22.0614H73.2963ZM11.4643 23.7483C11.5141 23.2285 11.0879 22.9887 10.7137 22.7431C10.3963 22.9772 10.0523 23.3364 10.3361 23.73C10.7311 23.8241 11.0763 23.9262 11.4643 23.7483ZM21.0787 24.3313L20.2864 24.4575C19.8531 25.1449 21.5617 25.9287 21.0787 24.3313ZM22.4073 25.1988C22.215 25.0164 22.1594 24.6423 21.776 24.8385C20.9895 25.6567 22.2116 26.1662 22.6633 26.6619C23.0653 27.1037 23.3166 27.6121 23.6502 28.0367C23.7499 28.1641 23.7661 28.2742 23.9769 28.2272C24.5399 26.8364 23.2807 26.0273 22.4073 25.1977V25.1988ZM57.7847 25.8036C57.9677 25.4834 57.9376 25.1173 57.611 24.9154C56.9669 24.7788 57.1036 25.3641 57.1071 25.8196L57.7847 25.8036ZM56.7584 25.2459C56.6739 25.1495 56.1677 25.5603 56.0623 25.6452C55.1448 26.3854 53.6181 27.9013 53.8637 29.1464C54.0212 29.3242 54.7834 28.0769 54.9027 27.9391C55.6742 27.0521 56.96 26.6355 56.7584 25.2459ZM19.2299 25.589H18.5929L18.5349 25.8759L19.2288 26.2775V25.589H19.2299ZM23.7464 29.4918C23.5738 27.759 21.7621 26.0664 20.0408 25.8208C19.5404 26.9683 23.1475 30.0931 23.7464 29.4918ZM58.8377 26.398C58.3894 26.118 57.8565 27.4951 58.9605 27.3114L58.8377 26.398ZM21.1227 28.6483C20.4161 27.9277 19.8381 26.0847 18.5338 26.7973C19.691 28.0975 20.8377 30.5613 22.8695 30.2973C23.1742 29.7178 22.2637 29.5503 21.8536 29.2439C21.659 29.0982 21.2756 28.8067 21.1215 28.6495L21.1227 28.6483ZM57.5368 26.6436C56.5406 26.701 54.8703 28.2937 54.5934 29.2393C54.5506 29.3862 54.3699 30.1677 54.6155 30.1769C56.1271 29.5205 57.1638 28.2754 57.7986 26.7928C57.7083 26.6929 57.6886 26.6332 57.5368 26.6424V26.6436ZM58.8435 28.0011C57.3364 27.8623 56.7295 29.4195 55.5468 30.1849C55.1634 30.4328 54.7267 30.2996 54.7904 30.9836C56.6484 31.1213 58.2608 29.6249 58.8435 28.0011ZM24.9847 28.5921C24.6661 28.6828 24.5966 29.1487 24.6881 29.4183C24.7796 29.688 25.5685 29.7247 25.5511 29.3724L25.4318 28.6828L24.9858 28.591L24.9847 28.5921ZM29.537 32.1311C29.9204 30.7587 27.7798 29.5457 26.6712 29.1762C25.9114 28.9237 25.9565 29.3139 26.311 29.8773C26.6654 30.4408 27.3176 30.4534 27.8389 30.7736C28.1157 30.9434 29.332 32.2803 29.5359 32.1323L29.537 32.1311ZM52.7053 30.2962C54.0259 30.5831 53.873 28.7734 52.725 29.5113L52.7053 30.2962ZM48.4206 32.4754C49.1758 32.2849 49.6056 31.6595 50.3458 31.3428C50.7836 31.1557 51.7439 31.0628 51.9478 30.6347C52.0161 30.1447 52.5837 29.2232 51.6674 29.5526C51.3883 29.6524 49.2905 31.0341 49.0079 31.2796C48.6511 31.5895 48.3314 31.9716 48.4206 32.4754ZM23.7163 30.5406C22.61 30.6932 23.817 32.3331 24.2711 31.3232C24.4136 31.0054 24.0916 30.489 23.7163 30.5406ZM29.7698 33.507C30.0108 33.2752 28.447 31.7501 28.2037 31.5596C27.2979 30.8505 26.304 30.5223 25.1364 30.6393C25.6785 32.5385 27.8238 33.7308 29.7687 33.507H29.7698ZM52.7053 31.3278C51.1832 31.2314 48.9071 31.9464 48.6499 33.6218C49.4805 33.647 50.1697 33.678 50.9307 33.2993C51.313 33.1088 53.0772 31.7088 52.7053 31.3278ZM53.5926 31.3462C53.2335 31.461 53.4559 31.9888 53.7096 32.1162C54.3004 32.3113 54.8633 31.5034 54.3664 31.3473H53.5915L53.5926 31.3462ZM24.1275 32.441C25.5221 33.0744 27.3419 35.7619 28.842 34.1382C28.9115 33.8191 27.8921 33.7285 27.6222 33.6275C27.3524 33.5265 27.079 33.4026 26.8369 33.258C26.2936 32.9344 25.4028 31.8396 25.0264 31.7214C24.4634 31.5447 23.7429 31.9969 24.1286 32.441H24.1275ZM36.1397 35.5737C35.996 33.2798 33.5611 32.2608 31.5074 32.1323C31.5861 33.5162 32.9588 33.5587 33.9249 34.0395C34.7867 34.4687 35.2987 35.179 36.1397 35.5737ZM30.4649 33.1639C31.3255 33.2442 31.3881 32.2665 30.4649 32.3595V33.1639ZM43.479 34.6959C43.8196 34.386 44.2829 34.0796 44.7138 33.911C45.3451 33.6654 46.4965 33.7136 46.6599 32.9654C46.7548 32.5282 46.6865 32.3205 46.215 32.4077C45.6938 32.5041 43.8844 33.2637 43.4454 33.5724C42.8442 33.9947 41.6013 35.3431 42.338 36.0305C42.4261 36.0305 43.2937 34.8646 43.479 34.6959ZM47.4394 32.4754L47.0502 33.087C47.1753 33.6746 47.7777 33.6011 47.9642 33.1031C48.0198 32.8896 47.6225 32.4318 47.4394 32.4754ZM52.7876 32.5006C52.4598 32.597 51.9559 33.2408 51.6547 33.4439C51.1832 33.7629 50.399 34.0682 49.8372 34.168C49.5546 34.2173 48.5619 34.0796 48.6511 34.4824C49.2523 35.4223 50.6319 34.907 51.4717 34.526C51.7532 34.3987 53.7478 33.1731 53.8127 33.0526C54.0363 32.6395 53.1965 32.3824 52.7864 32.5018L52.7876 32.5006ZM33.6503 36.1475C34.1925 36.237 34.9338 36.0821 35.5037 36.1475L35.6775 35.8618C34.9199 35.031 33.8519 34.355 32.7538 34.0521C32.4514 33.9683 31.1772 33.6091 31.0498 34.036C30.8517 34.6982 33.0816 36.0534 33.6503 36.1464V36.1475ZM45.8409 33.9947C44.5794 34.1944 43.3504 35.3213 42.6276 36.3173C42.6867 36.5962 43.8983 36.4987 44.1613 36.4619C45.0451 36.338 46.4212 35.4739 47.034 34.8336C47.875 33.9557 46.5475 33.8834 45.8409 33.9947ZM29.9471 34.1967C29.5602 34.5065 29.6088 35.0114 29.9505 35.3408C30.7776 35.1491 30.634 34.479 29.9471 34.1967ZM31.0116 35.3672C30.6734 35.4441 30.0328 35.8572 30.2876 36.2657C30.3815 36.4149 33.0816 37.4764 33.4314 37.5119C34.1843 37.5888 35.2188 37.3983 35.7921 36.8934C35.7956 36.6432 34.2504 36.727 33.9353 36.6696C33.6202 36.6123 32.9739 36.346 32.6796 36.1923C32.09 35.8859 31.6811 35.2157 31.0128 35.3672H31.0116ZM43.2068 37.1814C42.9786 37.4844 43.947 37.6083 44.0906 37.6244C45.5849 37.785 47.063 37.4557 47.9514 36.2037C46.9437 35.2846 45.9602 36.3414 44.9756 36.696C44.3987 36.9037 43.7744 36.9405 43.2068 37.1826V37.1814Z" fill="white"/>
<path d="M37.0674 12.336C37.0269 12.7342 36.6956 13.697 36.5983 12.8008C36.5103 11.9826 36.7072 11.1563 36.7245 10.3898C36.7524 9.147 36.6933 7.89733 36.7199 6.65454H37.0651L39.5787 15.2404C39.8289 16.6221 39.9239 18.1322 38.9799 19.2798C38.0358 20.4273 37.3813 19.997 36.2276 20.4549C33.4418 21.5622 32.8035 26.0021 30.8517 26.834C29.0203 27.6144 28.652 25.6796 28.8442 24.3278L29.1674 25.325C29.8844 26.6906 30.964 25.9436 31.6729 25.0083C32.6263 23.7506 33.0526 22.0385 34.2874 20.8278C34.7692 20.3562 35.3704 20.3699 35.331 19.5701C35.2893 18.7129 34.9511 18.4214 35.2256 17.3967C36.1025 14.1273 38.1725 16.7334 37.7613 18.8196C38.7957 18.9332 39.4119 18.1552 39.3737 17.174C39.3355 16.1929 38.1366 11.6532 37.7045 10.6721C37.5852 10.4013 37.4126 9.99274 37.0674 10.0983C37.0141 10.819 37.1392 11.6268 37.0674 12.336ZM35.8268 19.0136C36.3805 19.4634 37.664 18.4444 37.3559 17.7891C37.3107 17.6927 36.7431 17.1534 36.6388 17.1213C35.6681 16.8286 35.2696 18.5603 35.828 19.0136H35.8268Z" fill="white"/>
<path d="M40.6583 14.918C40.5158 15.105 40.4487 14.9157 40.4266 14.7481C40.371 14.3213 40.4695 13.8278 40.4151 13.3814C40.2193 11.7875 39.8486 10.0363 39.7339 8.43323C39.6865 7.77225 39.7641 7.08946 39.7328 6.42733C39.888 6.23569 40.1649 6.84044 40.2135 6.92421C41.3753 8.89454 43.0434 13.3034 43.2113 15.5457C43.509 19.538 42.5777 22.6536 40.3722 25.939C38.3764 26.9086 36.6562 28.6701 34.2874 28.6885C36.0677 27.0142 38.3821 25.9722 40.0224 24.1006C40.9908 22.9967 41.9846 21.3213 42.4005 19.9155C43.4662 16.3157 42.0692 13.2896 40.8413 9.97438C39.9865 9.61061 40.6583 10.3359 40.6583 10.3852V14.918Z" fill="white"/>
<path d="M27.6835 11.1311L26.2912 12.9063C25.1919 14.5668 24.4598 16.5154 24.5525 18.5385C24.6371 20.3963 26.063 22.8372 28.2291 21.9409C29.1628 21.5542 30.518 19.3532 29.9875 18.4318C29.567 17.7008 28.3542 18.1219 28.0542 17.5941C27.4299 16.497 28.1168 12.7285 29.5056 12.4175C30.5852 12.1754 31.1436 14.0057 30.5088 14.1101C30.3026 14.1445 30.0605 13.4801 29.3574 13.8806C28.879 14.1526 28.0704 16.0609 28.4921 16.4718C29.2659 16.7713 29.7906 16.6841 30.2574 17.477C31.1053 18.9206 30.7092 20.5444 29.9458 21.9203C27.7264 25.9229 24.7691 22.4826 24.1482 19.5127C23.5135 16.4752 25.1421 12.8627 27.6847 11.1311H27.6835Z" fill="white"/>
<path d="M48.6511 26.9661C50.0852 25.1702 51.7486 23.4512 52.7621 21.3432C54.1336 18.4904 53.4293 16.2251 51.5957 13.7809C51.4045 13.5261 50.0747 11.8989 49.8106 12.1651L49.6936 16.5258L49.2871 16.4122C48.9419 15.1086 49.1701 13.7648 49.2361 12.4555C49.2546 12.0905 49.1029 10.3887 49.4075 10.3279C50.0805 10.1937 52.2965 13.1474 52.6509 13.7694C54.8055 17.5586 54.1556 21.2468 51.7602 24.7101C51.0941 25.6728 49.7446 26.5301 48.6534 26.9661H48.6511Z" fill="white"/>
<path d="M4.28716 20.3114C4.42501 20.456 5.4768 19.3796 6.12663 20.2678C6.56913 20.8737 6.38842 22.7855 5.91234 23.3559C5.12929 24.2923 4.17596 23.0632 3.58751 23.2273C3.24232 23.3237 2.9203 24.0834 2.66314 24.3829C2.09555 25.0439 1.14801 25.6177 0.23291 25.4742C0.632544 24.8178 1.3681 24.4621 1.91369 23.8711C3.63153 22.0121 3.13112 20.2552 4.52115 18.5362C5.78376 16.9732 7.54678 16.9434 7.24561 19.2844C6.77184 19.6596 6.46256 18.8931 6.07798 18.8208C5.24744 18.6647 4.3138 19.4955 4.28716 20.3114ZM4.40184 21.3442C4.11457 22.0832 5.70152 22.7018 5.56251 21.7516C5.48259 21.2054 4.81769 21.35 4.40184 21.3442Z" fill="white"/>
<path d="M40.3109 28.5164C40.4094 29.066 41.4125 28.9891 41.811 28.7413C42.7156 28.1778 44.0674 25.5637 44.7798 24.5677C45.6556 23.3455 46.493 22.3449 47.8993 21.6908L48.1808 20.1301L50.2739 20.2564C50.1187 20.7923 50.2079 21.545 49.8129 21.98C49.3982 22.4355 47.5657 23.0024 46.8776 23.4327C44.8702 24.6905 44.1682 27.3011 42.7226 29.0706C40.6167 31.6503 39.4653 29.2646 40.0792 26.9109C40.1209 26.7514 40.0757 26.5529 40.3097 26.5082C40.385 27.1164 40.2066 27.9414 40.3097 28.5164H40.3109Z" fill="white"/>
<path d="M33.4349 11.146C33.6805 11.1001 34.5122 11.7726 34.5875 12.0457C34.6744 12.359 34.2805 12.7503 34.4253 13.23C34.5701 13.7096 35.8756 14.1228 34.9095 15.1406C34.5852 15.2439 33.794 14.6265 33.7257 14.3764C33.6249 14.0092 34.0083 13.7096 33.8936 13.3092C33.779 12.9087 33.0747 12.6 33.011 12.2155C32.9669 11.9459 33.1314 11.2034 33.4338 11.146H33.4349Z" fill="white"/>
<path d="M44.5979 16.5234C44.5666 16.3375 44.6859 16.2124 44.7809 16.0736C45.1736 15.4952 46.7431 13.9552 46.8937 13.4572C47.0605 12.9029 46.6377 12.8869 46.5115 12.6206C46.303 12.1834 46.603 11.7657 46.7443 11.3618C46.9957 11.0474 47.3548 11.4169 47.4428 11.6969C47.788 12.8042 46.8207 14.4934 46.1084 15.3208C45.9543 15.4998 44.7855 16.7082 44.6002 16.5223L44.5979 16.5234Z" fill="white"/>
<path d="M67.4987 19.0137C67.0295 19.4038 66.6855 18.8691 66.2801 18.6832C66.111 18.3974 66.5141 17.8225 66.7967 17.6906L67.9122 18.1128L68.8447 17.344L69.7181 18.0968C69.7806 18.3366 69.5328 18.6981 69.3046 18.8002C68.7926 18.9517 68.459 18.4319 68.0593 18.4709C67.6979 18.5065 67.6666 18.8737 67.4998 19.0125L67.4987 19.0137Z" fill="white"/>
<path d="M7.6394 25.9298C6.87372 25.6957 6.20535 25.1598 5.72579 26.1708C4.78057 25.8621 4.18054 25.488 5.17789 24.6847C5.54393 24.5792 5.86363 25.0634 6.28875 24.9957C6.8575 24.9051 7.08223 23.9159 7.98111 24.9774L7.6394 25.9287V25.9298Z" fill="white"/>
<path d="M74.6145 17.461C75.2191 17.2579 75.3442 17.8328 75.7972 18.0084C76.0462 17.9269 76.1424 17.5356 76.3022 17.4369C76.8223 17.1144 77.9123 18.208 77.2115 18.7141C76.6462 19.1215 76.1864 18.3124 75.8296 18.3802L75.0245 19.0343L74.2739 18.2838L74.6133 17.4621L74.6145 17.461Z" fill="white"/>
<path d="M34.269 6.90584C34.8979 7.86748 33.9933 9.17683 33.2357 9.80223C32.7921 10.1683 31.9557 10.7363 31.3916 10.7857C31.6418 10.2555 33.7616 8.91289 33.6909 8.45502C33.6678 8.30584 33.3851 8.13945 33.3539 7.74469C33.3017 7.07568 33.5832 6.73715 34.269 6.90584Z" fill="white"/>
<path d="M44.8308 9.18032C45.0277 9.36277 45.0242 9.12409 45.0717 9.01966C45.1818 8.77638 45.2895 8.1154 45.5223 7.97195C46.0123 7.669 46.5625 8.51359 46.4502 8.95081C46.1397 9.04261 46.2764 8.79015 46.1339 8.72818C46.0413 8.68687 45.5965 8.60195 45.5212 8.65589L45.3312 9.62097C45.2003 9.71392 45.1007 10.438 44.8887 10.3279C44.7346 10.2475 44.4323 9.21245 44.2308 8.91409C43.8821 8.3954 43.2079 8.1372 43.3238 7.34654C44.284 7.16409 44.5632 8.93359 44.8308 9.18146V9.18032Z" fill="white"/>
<path d="M47.8078 16.7874C48.087 17.1363 47.9885 17.9074 47.6572 18.2368C47.5298 18.3642 46.7572 18.7738 46.595 18.8014C45.7494 18.9448 45.8456 17.7319 45.8722 17.2132C46.2799 17.3865 45.9058 18.1025 46.507 18.0153C46.7769 17.9533 46.4757 17.3004 46.5672 17.0984L47.5472 17.671C47.9746 17.3256 47.5819 17.0066 47.4939 16.6394C47.5055 16.6268 47.7835 16.7576 47.8078 16.7874Z" fill="white"/>
<path d="M9.38277 18.13C9.21944 17.9556 9.43374 17.9327 9.52988 17.873C9.816 17.6974 11.2454 17.3371 11.3323 17.1948C11.4076 17.0709 11.33 16.8 11.352 16.6394H10.5411C10.3523 16.1104 11.4389 15.8786 11.6485 16.1735C11.9126 17.1087 11.4736 17.8179 10.5655 18.0979C10.3152 18.1748 9.55768 18.3171 9.38277 18.13Z" fill="white"/>
<path d="M46.1038 28.4579C45.9879 28.3455 46.8243 27.5032 46.8891 27.2301C47.1069 26.3166 46.4594 26.4268 46.449 26.1124C46.5381 25.6855 46.7513 25.4158 47.1393 25.7692C47.7649 26.3384 47.0478 28.3822 46.1038 28.4591V28.4579Z" fill="white"/>
<path d="M32.6251 15.8762C33.2448 16.4982 33.4243 17.7547 33.3595 18.5901L32.1131 16.0965L32.0864 15.6077C32.1548 15.5308 32.5509 15.8028 32.6239 15.8762H32.6251Z" fill="white"/>
<path d="M40.4442 20.7532C40.3944 20.6764 40.4048 19.5334 40.4337 19.3441C40.4755 19.0709 40.677 18.8036 40.7465 18.5063C40.8206 18.1942 40.6643 17.6101 41.0037 17.4437C40.9643 17.897 41.0685 18.4306 40.9979 18.8701C40.9376 19.2488 40.4546 19.6883 40.7141 20.0819C40.8241 20.2495 41.2631 20.2357 41.1114 20.7016C41.021 20.977 40.5114 20.86 40.443 20.7532H40.4442Z" fill="white"/>
<path d="M27.9153 20.1944C26.5855 20.9231 26.384 18.5867 26.8161 17.7869C26.9643 18.4777 26.6713 19.0824 27.2771 19.6241C27.4937 19.818 27.9466 19.8318 27.9153 20.1944Z" fill="white"/>
<path d="M50.9676 16.5819C50.9839 16.4867 51.19 16.0655 51.2561 15.945C51.3441 15.7855 51.2468 15.6627 51.5457 15.7213C51.6071 16.5911 50.5506 17.3657 51.7646 17.8522C51.7044 18.4868 51.5538 18.3847 50.9665 18.3606C51.0302 17.8144 50.8784 17.1018 50.9665 16.5819H50.9676Z" fill="white"/>
<path d="M33.0133 28.459L32.4214 28.3925C32.2546 27.9553 32.2882 27.5169 32.4364 27.0831L32.9913 28.0815L33.0145 28.459H33.0133Z" fill="white"/>
</g>
<defs>
<clipPath id="clip0_418_11844">
<rect width="79" height="42" fill="white"/>
</clipPath>
</defs>
</svg>
