<svg xmlns="http://www.w3.org/2000/svg" width="24" height="24.002" viewBox="0 0 24 24.002">
  <g id="Group_2" data-name="Group 2" transform="translate(0 0.002)">
    <path id="Path_2" data-name="Path 2" d="M21,6H17.77A3.393,3.393,0,0,0,13.56.68,5.734,5.734,0,0,0,12.013,2.5,5.744,5.744,0,0,0,10.466.68,3.392,3.392,0,0,0,6.26,6H3A3,3,0,0,0,0,9V24H24V9A3,3,0,0,0,21,6ZM14.76,2.28A1.413,1.413,0,0,1,15.8,2.013a1.392,1.392,0,0,1,.922.546,1.464,1.464,0,0,1-.343,2.013A5.459,5.459,0,0,1,13.013,6l.008-.3A5.474,5.474,0,0,1,14.76,2.28Zm-7.454.279a1.394,1.394,0,0,1,.922-.546,1.411,1.411,0,0,1,1.038.267A5.443,5.443,0,0,1,11,5.672V6A5.406,5.406,0,0,1,7.676,4.6a1.477,1.477,0,0,1-.37-2.037ZM3,8h7.772C9.8,9.961,6.042,10,6,10v2c1.72,0,4.518-.533,6-2.252C13.483,11.467,16.281,12,18,12V10c-.042,0-3.8-.039-4.772-2H21a1,1,0,0,1,1,1v8H2V9A1,1,0,0,1,3,8ZM2,22V19H22v3Z" fill="#1b8354"/>
  </g>
</svg>
