<svg xmlns="http://www.w3.org/2000/svg" width="50" height="50" viewBox="0 0 50 50">
  <g id="Group_11" data-name="Group 11" transform="translate(-1258 -877)">
    <g id="Group_9" data-name="Group 9" transform="translate(-60)">
      <rect id="Rectangle_1" data-name="Rectangle 1" width="50" height="50" transform="translate(1318 877)" fill="#fff"/>
    </g>
    <g id="Group_10" data-name="Group 10" transform="translate(1262.113 879.114)">
      <path id="Path_9" data-name="Path 9" d="M17.843,22.073a4.351,4.351,0,0,0,6.085,0l4.341-4.245a10.444,10.444,0,1,0-14.746.019l4.32,4.226ZM20.885,6.962a3.481,3.481,0,1,1-3.4,3.481A3.481,3.481,0,0,1,20.885,6.962ZM41.772,28.719a2.608,2.608,0,0,1-1.26,2.233L24.128,40.866a6.248,6.248,0,0,1-6.487,0L1.259,30.952a2.611,2.611,0,0,1,0-4.466l8.628-5.222a2.611,2.611,0,1,1,2.7,4.467L7.654,28.719,20.346,36.4a1.044,1.044,0,0,0,1.079,0l12.694-7.681L29.183,25.73a2.611,2.611,0,1,1,2.7-4.467l8.627,5.222a2.611,2.611,0,0,1,1.26,2.233Z" fill="#1b8354"/>
      <path id="Path_10" data-name="Path 10" d="M13.4,22.073a4.351,4.351,0,0,0,6.085,0l4.341-4.245a10.444,10.444,0,1,0-14.746.019l4.32,4.226ZM16.443,6.962a3.481,3.481,0,1,1-3.4,3.481A3.481,3.481,0,0,1,16.443,6.962Z" transform="translate(4.444)" fill="#a3cdba"/>
    </g>
  </g>
</svg>
