<svg width="20" height="21" viewBox="0 0 20 21" fill="none" xmlns="http://www.w3.org/2000/svg">
<path fill-rule="evenodd" clip-rule="evenodd" d="M13.1252 18.4767V16.5865C13.273 16.5789 13.411 16.5675 13.5384 16.5504C13.9481 16.4953 14.3408 16.3711 14.6593 16.0526C14.9779 15.734 15.1021 15.3413 15.1572 14.9316C15.2086 14.5493 15.2085 14.0719 15.2085 13.5179L15.2085 8.06006C15.2085 6.0717 14.0943 4.34358 12.4562 3.466L13.4169 2.1851C13.624 1.90895 13.568 1.5172 13.2919 1.31009C13.0157 1.10299 12.624 1.15895 12.4169 1.4351L11.2426 3.00083C10.8444 2.90339 10.4283 2.85173 10.0002 2.85173C9.57202 2.85173 9.15594 2.90339 8.75782 3.00081L7.58353 1.4351C7.37643 1.15895 6.98467 1.10299 6.70853 1.31009C6.43239 1.5172 6.37643 1.90895 6.58353 2.1851L7.54419 3.46598C5.90606 4.34355 4.79183 6.07168 4.79183 8.06006L4.79183 8.47481L4.79183 8.47673L4.79183 8.47864L4.79183 13.5179C4.7918 14.0719 4.79177 14.5493 4.84317 14.9316C4.89825 15.3413 5.02247 15.734 5.34101 16.0526C5.65955 16.3711 6.05227 16.4953 6.46196 16.5504C6.58936 16.5675 6.72732 16.5789 6.87516 16.5865L6.87516 18.4767C6.87516 18.8219 7.15498 19.1017 7.50016 19.1017C7.84534 19.1017 8.12516 18.8219 8.12516 18.4767V16.6017H11.8752V18.4767C11.8752 18.8219 12.155 19.1017 12.5002 19.1017C12.8453 19.1017 13.1252 18.8219 13.1252 18.4767ZM10.0002 4.10173C7.88392 4.10173 6.15556 5.76244 6.04722 7.85173L13.9531 7.85173C13.8448 5.76244 12.1164 4.10173 10.0002 4.10173ZM13.9585 13.4767L13.9585 9.10173L6.04183 9.10173L6.04183 13.4767C6.04183 14.0837 6.04316 14.476 6.08202 14.765C6.11847 15.0361 6.17731 15.1211 6.22489 15.1687C6.27247 15.2162 6.35744 15.2751 6.62852 15.3115C6.91759 15.3504 7.30991 15.3517 7.91683 15.3517H12.0835C12.6904 15.3517 13.0827 15.3504 13.3718 15.3115C13.6429 15.2751 13.7279 15.2162 13.7754 15.1687C13.823 15.1211 13.8819 15.0361 13.9183 14.765C13.9572 14.476 13.9585 14.0836 13.9585 13.4767Z" fill="white"/>
<path d="M3.3335 8.68506C3.67867 8.68506 3.9585 8.96488 3.9585 9.31006L3.9585 14.3101C3.9585 14.6552 3.67867 14.9351 3.3335 14.9351C2.98832 14.9351 2.7085 14.6552 2.7085 14.3101L2.7085 9.31006C2.7085 8.96488 2.98832 8.68506 3.3335 8.68506Z" fill="white"/>
<path d="M17.2918 9.31006C17.2918 8.96488 17.012 8.68506 16.6668 8.68506C16.3217 8.68506 16.0418 8.96488 16.0418 9.31006L16.0418 14.3101C16.0418 14.6552 16.3217 14.9351 16.6668 14.9351C17.012 14.9351 17.2918 14.6552 17.2918 14.3101L17.2918 9.31006Z" fill="white"/>
</svg>
