<svg width="19" height="18" viewBox="0 0 19 18" fill="none" xmlns="http://www.w3.org/2000/svg">
<path fill-rule="evenodd" clip-rule="evenodd" d="M14.2798 0.0390628H14.2189C13.6029 0.0390526 13.0967 0.0390441 12.6871 0.0779872C12.2615 0.118455 11.8762 0.205342 11.5257 0.420104C11.1778 0.633317 10.8853 0.925848 10.6721 1.27378C10.4573 1.62424 10.3704 2.00953 10.3299 2.43514C10.291 2.84472 10.291 3.35098 10.291 3.96693V4.02785C10.291 4.6438 10.291 5.15008 10.3299 5.55965C10.3704 5.98527 10.4573 6.37055 10.6721 6.72101C10.8853 7.06895 11.1778 7.36148 11.5257 7.57469C11.8762 7.78945 12.2615 7.87634 12.6871 7.91681C13.0967 7.95575 13.6029 7.95574 14.2189 7.95573H14.2798C14.8958 7.95574 15.402 7.95575 15.8116 7.91681C16.2372 7.87634 16.6225 7.78945 16.973 7.57469C17.3209 7.36148 17.6134 7.06895 17.8266 6.72101C18.0414 6.37055 18.1283 5.98527 18.1688 5.55965C18.2077 5.15008 18.2077 4.64382 18.2077 4.02786V3.96693C18.2077 3.35098 18.2077 2.84472 18.1688 2.43514C18.1283 2.00953 18.0414 1.62424 17.8266 1.27378C17.6134 0.925847 17.3209 0.633317 16.973 0.420104C16.6225 0.205342 16.2372 0.118455 15.8116 0.0779872C15.402 0.0390441 14.8958 0.0390526 14.2798 0.0390628ZM12.1789 1.4859C12.2999 1.41173 12.4713 1.35414 12.8054 1.32237C13.1488 1.28972 13.5954 1.28906 14.2493 1.28906C14.9033 1.28906 15.3499 1.28972 15.6933 1.32237C16.0274 1.35414 16.1988 1.41173 16.3198 1.4859C16.4996 1.59605 16.6507 1.74717 16.7608 1.9269C16.835 2.04795 16.8926 2.21934 16.9244 2.55346C16.957 2.89687 16.9577 3.34345 16.9577 3.9974C16.9577 4.65135 16.957 5.09792 16.9244 5.44134C16.8926 5.77545 16.835 5.94684 16.7608 6.06789C16.6507 6.24763 16.4996 6.39875 16.3198 6.50889C16.1988 6.58307 16.0274 6.64065 15.6933 6.67242C15.3499 6.70507 14.9033 6.70573 14.2493 6.70573C13.5954 6.70573 13.1488 6.70507 12.8054 6.67242C12.4713 6.64065 12.2999 6.58307 12.1789 6.50889C11.9991 6.39875 11.848 6.24763 11.7379 6.06789C11.6637 5.94684 11.6061 5.77545 11.5743 5.44134C11.5417 5.09792 11.541 4.65135 11.541 3.9974C11.541 3.34345 11.5417 2.89687 11.5743 2.55346C11.6061 2.21934 11.6637 2.04795 11.7379 1.9269C11.848 1.74717 11.9991 1.59605 12.1789 1.4859Z" fill="#067647"/>
<path fill-rule="evenodd" clip-rule="evenodd" d="M4.21889 0.0390628H4.27981C4.89576 0.0390526 5.40203 0.0390443 5.81161 0.0779872C6.23722 0.118455 6.62251 0.205342 6.97297 0.420104C7.3209 0.633317 7.61343 0.925847 7.82664 1.27378C8.04141 1.62424 8.12829 2.00953 8.16876 2.43514C8.2077 2.84471 8.20769 3.35097 8.20768 3.96691V4.02786C8.20769 4.6438 8.2077 5.15008 8.16876 5.55965C8.12829 5.98527 8.04141 6.37055 7.82664 6.72101C7.61343 7.06895 7.3209 7.36148 6.97297 7.57469C6.62251 7.78945 6.23722 7.87634 5.81161 7.91681C5.40204 7.95575 4.89578 7.95574 4.27984 7.95573H4.21888C3.60294 7.95574 3.09666 7.95575 2.68709 7.91681C2.26148 7.87634 1.87619 7.78945 1.52573 7.57469C1.1778 7.36148 0.88527 7.06895 0.672057 6.72101C0.457295 6.37055 0.370408 5.98527 0.32994 5.55965C0.290997 5.15008 0.291006 4.64382 0.291016 4.02786V3.96694C0.291006 3.35099 0.290997 2.84472 0.32994 2.43514C0.370408 2.00953 0.457295 1.62424 0.672057 1.27378C0.88527 0.925848 1.1778 0.633317 1.52573 0.420104C1.87619 0.205342 2.26148 0.118455 2.68709 0.0779872C3.09667 0.0390443 3.60294 0.0390526 4.21889 0.0390628ZM2.80541 1.32237C2.4713 1.35414 2.2999 1.41173 2.17886 1.4859C1.99912 1.59605 1.848 1.74717 1.73786 1.9269C1.66368 2.04795 1.6061 2.21934 1.57433 2.55346C1.54168 2.89687 1.54102 3.34345 1.54102 3.9974C1.54102 4.65135 1.54168 5.09792 1.57433 5.44134C1.6061 5.77545 1.66368 5.94684 1.73786 6.06789C1.848 6.24763 1.99912 6.39875 2.17886 6.50889C2.2999 6.58307 2.4713 6.64065 2.80541 6.67242C3.14882 6.70507 3.5954 6.70573 4.24935 6.70573C4.9033 6.70573 5.34988 6.70507 5.69329 6.67242C6.0274 6.64065 6.1988 6.58307 6.31984 6.50889C6.49958 6.39875 6.6507 6.24763 6.76084 6.06789C6.83502 5.94684 6.8926 5.77545 6.92437 5.44134C6.95702 5.09792 6.95768 4.65135 6.95768 3.9974C6.95768 3.34345 6.95702 2.89687 6.92437 2.55346C6.8926 2.21934 6.83502 2.04795 6.76084 1.9269C6.6507 1.74717 6.49958 1.59605 6.31984 1.4859C6.1988 1.41173 6.0274 1.35414 5.69329 1.32237C5.34988 1.28972 4.9033 1.28906 4.24935 1.28906C3.5954 1.28906 3.14882 1.28972 2.80541 1.32237Z" fill="#067647"/>
<path fill-rule="evenodd" clip-rule="evenodd" d="M4.21889 10.0391C3.60295 10.0391 3.09666 10.039 2.68709 10.078C2.26148 10.1185 1.87619 10.2053 1.52573 10.4201C1.1778 10.6333 0.88527 10.9258 0.672057 11.2738C0.457295 11.6242 0.370408 12.0095 0.32994 12.4351C0.290997 12.8447 0.291006 13.351 0.291016 13.9669V14.0279C0.291006 14.6438 0.290997 15.1501 0.32994 15.5597C0.370408 15.9853 0.457295 16.3706 0.672057 16.721C0.88527 17.0689 1.1778 17.3615 1.52573 17.5747C1.87619 17.7895 2.26148 17.8763 2.68709 17.9168C3.09667 17.9557 3.60293 17.9557 4.21888 17.9557H4.27982C4.89577 17.9557 5.40203 17.9557 5.81161 17.9168C6.23722 17.8763 6.62251 17.7895 6.97297 17.5747C7.3209 17.3615 7.61343 17.0689 7.82664 16.721C8.04141 16.3706 8.12829 15.9853 8.16876 15.5597C8.2077 15.1501 8.20769 14.6438 8.20768 14.0279V13.9669C8.20769 13.351 8.2077 12.8447 8.16876 12.4351C8.12829 12.0095 8.04141 11.6242 7.82664 11.2738C7.61343 10.9258 7.3209 10.6333 6.97297 10.4201C6.62251 10.2053 6.23722 10.1185 5.81161 10.078C5.40204 10.039 4.89578 10.0391 4.27984 10.0391H4.21889ZM2.17886 11.4859C2.2999 11.4117 2.4713 11.3541 2.80541 11.3224C3.14882 11.2897 3.5954 11.2891 4.24935 11.2891C4.9033 11.2891 5.34988 11.2897 5.69329 11.3224C6.0274 11.3541 6.1988 11.4117 6.31984 11.4859C6.49958 11.596 6.6507 11.7472 6.76084 11.9269C6.83502 12.0479 6.8926 12.2193 6.92437 12.5535C6.95702 12.8969 6.95768 13.3434 6.95768 13.9974C6.95768 14.6513 6.95702 15.0979 6.92437 15.4413C6.8926 15.7755 6.83502 15.9468 6.76084 16.0679C6.6507 16.2476 6.49958 16.3987 6.31984 16.5089C6.1988 16.5831 6.0274 16.6407 5.69329 16.6724C5.34988 16.7051 4.9033 16.7057 4.24935 16.7057C3.5954 16.7057 3.14882 16.7051 2.80541 16.6724C2.4713 16.6407 2.2999 16.5831 2.17886 16.5089C1.99912 16.3987 1.848 16.2476 1.73786 16.0679C1.66368 15.9468 1.6061 15.7755 1.57433 15.4413C1.54168 15.0979 1.54102 14.6513 1.54102 13.9974C1.54102 13.3434 1.54168 12.8969 1.57433 12.5535C1.6061 12.2193 1.66368 12.0479 1.73786 11.9269C1.848 11.7472 1.99912 11.596 2.17886 11.4859Z" fill="#067647"/>
<path fill-rule="evenodd" clip-rule="evenodd" d="M15.8116 10.078C15.402 10.039 14.8958 10.0391 14.2798 10.0391H14.2189C13.6029 10.0391 13.0967 10.039 12.6871 10.078C12.2615 10.1185 11.8762 10.2053 11.5257 10.4201C11.1778 10.6333 10.8853 10.9258 10.6721 11.2738C10.4573 11.6242 10.3704 12.0095 10.3299 12.4351C10.291 12.8447 10.291 13.351 10.291 13.9669V14.0279C10.291 14.6438 10.291 15.1501 10.3299 15.5597C10.3704 15.9853 10.4573 16.3706 10.6721 16.721C10.8853 17.0689 11.1778 17.3615 11.5257 17.5747C11.8762 17.7895 12.2615 17.8763 12.6871 17.9168C13.0967 17.9557 13.6029 17.9557 14.2189 17.9557H14.2798C14.8958 17.9557 15.402 17.9557 15.8116 17.9168C16.2372 17.8763 16.6225 17.7895 16.973 17.5747C17.3209 17.3615 17.6134 17.0689 17.8266 16.721C18.0414 16.3706 18.1283 15.9853 18.1688 15.5597C18.2077 15.1501 18.2077 14.6438 18.2077 14.0279V13.9669C18.2077 13.351 18.2077 12.8447 18.1688 12.4351C18.1283 12.0095 18.0414 11.6242 17.8266 11.2738C17.6134 10.9258 17.3209 10.6333 16.973 10.4201C16.6225 10.2053 16.2372 10.1185 15.8116 10.078ZM12.1789 11.4859C12.2999 11.4117 12.4713 11.3541 12.8054 11.3224C13.1488 11.2897 13.5954 11.2891 14.2493 11.2891C14.9033 11.2891 15.3499 11.2897 15.6933 11.3224C16.0274 11.3541 16.1988 11.4117 16.3198 11.4859C16.4996 11.596 16.6507 11.7472 16.7608 11.9269C16.835 12.0479 16.8926 12.2193 16.9244 12.5535C16.957 12.8969 16.9577 13.3434 16.9577 13.9974C16.9577 14.6513 16.957 15.0979 16.9244 15.4413C16.8926 15.7755 16.835 15.9468 16.7608 16.0679C16.6507 16.2476 16.4996 16.3987 16.3198 16.5089C16.1988 16.5831 16.0274 16.6407 15.6933 16.6724C15.3499 16.7051 14.9033 16.7057 14.2493 16.7057C13.5954 16.7057 13.1488 16.7051 12.8054 16.6724C12.4713 16.6407 12.2999 16.5831 12.1789 16.5089C11.9991 16.3987 11.848 16.2476 11.7379 16.0679C11.6637 15.9468 11.6061 15.7755 11.5743 15.4413C11.5417 15.0979 11.541 14.6513 11.541 13.9974C11.541 13.3434 11.5417 12.8969 11.5743 12.5535C11.6061 12.2193 11.6637 12.0479 11.7379 11.9269C11.848 11.7472 11.9991 11.596 12.1789 11.4859Z" fill="#067647"/>
</svg>
