<svg xmlns="http://www.w3.org/2000/svg" width="62.72" height="62.72" viewBox="0 0 62.72 62.72">
  <g id="Group_1878" data-name="Group 1878" transform="translate(-11737 -6366)">
    <circle id="Ellipse_423" data-name="Ellipse 423" cx="31.36" cy="31.36" r="31.36" transform="translate(11737 6366)" fill="#1b8354"/>
    <g id="icon4" transform="translate(11753.487 6376.135)">
      <g id="Group_16" data-name="Group 16" transform="translate(-0.008 0.273)">
        <g id="Group_15" data-name="Group 15" transform="translate(0 0)">
          <path id="Path_79" data-name="Path 79" d="M21.606,20l-2.857-1.115-1.643-1.661a.564.564,0,0,0-.086-.071.557.557,0,0,0-.2-.083.564.564,0,0,0-.105-.012V15.705a6.111,6.111,0,0,0,1.324-2.215,6.187,6.187,0,0,0,.225-.868h0q.054,0,.107,0t.108,0q.054,0,.107-.011t.107-.018a1.572,1.572,0,0,0,.533-.217,1.677,1.677,0,0,0,.421-.386,1.782,1.782,0,0,0,.277-.514,1.842,1.842,0,0,0,.1-.6v-.435a1.777,1.777,0,0,0-.305-1,1.744,1.744,0,0,0-.218-.263,12.77,12.77,0,0,0,.217-2.043,9.117,9.117,0,0,0-.135-1.825A6.751,6.751,0,0,0,19.1,3.73a5.56,5.56,0,0,0-.831-1.317,5.41,5.41,0,0,0-1.111-.988,6.192,6.192,0,0,0-1.388-.69A7.981,7.981,0,0,0,14.128.354,10.867,10.867,0,0,0,12.246.287a8.333,8.333,0,0,0-1.687.25,8.032,8.032,0,0,0-1.339.471,7.577,7.577,0,0,0-.965.525,6.079,6.079,0,0,0-.568.415,3.326,3.326,0,0,0-.705.168,2.925,2.925,0,0,0-.88.494,2.712,2.712,0,0,0-.752,1,4.056,4.056,0,0,0-.318,1.675c0,.383.015.749.041,1.1s.062.671.1.97.089.572.137.815.1.455.139.632a1.633,1.633,0,0,0-.4.264,1.7,1.7,0,0,0-.31.368,1.77,1.77,0,0,0-.2.449,1.837,1.837,0,0,0-.071.507v.43a1.851,1.851,0,0,0,.1.6,1.807,1.807,0,0,0,.28.519,1.712,1.712,0,0,0,.427.391,1.607,1.607,0,0,0,.54.221q.054.011.108.019t.109.012q.054,0,.109,0t.109,0h0a6.176,6.176,0,0,0,1.563,3.106v1.362a.568.568,0,0,0-.208.043.56.56,0,0,0-.1.052.568.568,0,0,0-.086.071L5.767,18.876,2.51,20.14A3.944,3.944,0,0,0,0,23.976L.463,35.591a.568.568,0,0,0,.568.545h.023a.574.574,0,0,0,.547-.6l-.462-11.61q0-.116,0-.23t.019-.227q.014-.112.037-.222t.054-.217L3.1,24.886a2.814,2.814,0,0,1,.35.426,2.761,2.761,0,0,1,.413,1,2.831,2.831,0,0,1,.054.549v8.686a.565.565,0,0,0,.79.521.575.575,0,0,0,.347-.527V26.859a3.988,3.988,0,0,0-.075-.774A3.889,3.889,0,0,0,4.4,24.679a3.963,3.963,0,0,0-.492-.6L1.817,21.986a2.784,2.784,0,0,1,1.105-.78l3.039-1.176,2.315,3.488a1.692,1.692,0,0,0,.24.287,1.667,1.667,0,0,0,.991.453l.041,0,.041,0H9.67a1.645,1.645,0,0,0,.452-.064,1.669,1.669,0,0,0,.214-.077,1.7,1.7,0,0,0,.2-.106l-.491,11.466a.568.568,0,0,0,.148.408.558.558,0,0,0,.392.181h.025a.562.562,0,0,0,.213-.043.574.574,0,0,0,.351-.5l.46-10.623,1.283,0,.458,10.612a.565.565,0,0,0,.174.385.556.556,0,0,0,.389.155h.025a.561.561,0,0,0,.217-.056.573.573,0,0,0,.321-.542l-.494-11.439a1.685,1.685,0,0,0,.2.105,1.655,1.655,0,0,0,.213.077,1.633,1.633,0,0,0,.45.062h.081l.041,0,.041,0a1.659,1.659,0,0,0,.986-.456,1.694,1.694,0,0,0,.239-.287l2.294-3.476,2.642,1.03.05.017.05.012.051.007.05,0a.554.554,0,0,0,.165-.025.561.561,0,0,0,.272-.186.572.572,0,0,0-.047-.763A.558.558,0,0,0,21.606,20ZM7.371,12.372a1.128,1.128,0,0,0-.149-.388,1.162,1.162,0,0,0-.269-.3,1.139,1.139,0,0,0-.355-.19,1.069,1.069,0,0,0-.406-.05H6.12a.173.173,0,0,1-.037,0l-.037-.006a.475.475,0,0,1-.174-.076.578.578,0,0,1-.139-.139.67.67,0,0,1-.092-.185.7.7,0,0,1-.033-.214v-.431a.661.661,0,0,1,.034-.21.649.649,0,0,1,.095-.181.565.565,0,0,1,.14-.136.459.459,0,0,1,.174-.07.581.581,0,0,1,.155-.006.544.544,0,0,1,.145.034.539.539,0,0,1,.13.073A.564.564,0,0,1,6.589,10a.858.858,0,0,0,.086.1.82.82,0,0,0,.1.081.792.792,0,0,0,.406.144.808.808,0,0,0,.355-.056.781.781,0,0,0,.16-.087,4.172,4.172,0,0,0,.332-.26q.159-.138.3-.292A4.158,4.158,0,0,0,8.606,9.3q.131-.171.247-.352A.569.569,0,1,0,7.9,8.331q-.066.1-.139.2t-.151.189q-.079.091-.162.176t-.176.162A1.686,1.686,0,0,0,6.6,8.7c-.038-.144-.084-.332-.132-.557s-.1-.487-.142-.781-.085-.618-.114-.966-.047-.721-.047-1.111a3.624,3.624,0,0,1,.054-.644A2.39,2.39,0,0,1,6.384,4.1a1.756,1.756,0,0,1,.264-.425,1.6,1.6,0,0,1,.372-.321,1.808,1.808,0,0,1,.327-.162,2.028,2.028,0,0,1,.29-.084,1.919,1.919,0,0,1,.208-.033c.05,0,.081-.005.081-.006a.555.555,0,0,0,.107-.01.568.568,0,0,0,.284-.145,3.321,3.321,0,0,1,.277-.222,6.115,6.115,0,0,1,.782-.484,6.924,6.924,0,0,1,1.252-.5,7.131,7.131,0,0,1,1.681-.279,9.8,9.8,0,0,1,1.619.052,6.964,6.964,0,0,1,1.4.309,5.152,5.152,0,0,1,1.171.561,4.275,4.275,0,0,1,.921.807,4.428,4.428,0,0,1,.664,1.06,5.616,5.616,0,0,1,.395,1.29,7.845,7.845,0,0,1,.122,1.5,11.232,11.232,0,0,1-.155,1.7c-.041,0-.086,0-.13,0s-.089,0-.135,0-.092.007-.138.013-.093.012-.14.02l-.563-1.369a.568.568,0,0,0-.27-.292.562.562,0,0,0-.189-.057.556.556,0,0,0-.2.014c-.014,0-.365.092-.922.178a13.443,13.443,0,0,1-2.15.159,8.532,8.532,0,0,1-2.58-.39,4.6,4.6,0,0,1-2.2-1.472.568.568,0,1,0-.883.708,5.517,5.517,0,0,0,2.117,1.608,8.223,8.223,0,0,0,2.472.627,12.621,12.621,0,0,0,2.312.015,14.617,14.617,0,0,0,1.642-.227l.438,1.064a.971.971,0,0,0,.182.287.95.95,0,0,0,.26.2.933.933,0,0,0,.647.081c.044-.01.09-.019.134-.025s.088-.011.128-.013a.832.832,0,0,1,.11,0,.512.512,0,0,1,.081.008.5.5,0,0,1,.175.074.572.572,0,0,1,.14.133.632.632,0,0,1,.092.177.642.642,0,0,1,.034.2v.436a.7.7,0,0,1-.033.213.662.662,0,0,1-.091.183.568.568,0,0,1-.138.137.465.465,0,0,1-.172.075l-.037.006-.037,0H18.33a1.05,1.05,0,0,0-.4.047,1.116,1.116,0,0,0-.351.187,1.143,1.143,0,0,0-.267.3,1.117,1.117,0,0,0-.147.385,4.976,4.976,0,0,1-9.793-.035Zm2.687,10.6a.552.552,0,0,1-.095.076.544.544,0,0,1-.668-.066.551.551,0,0,1-.078-.094L6.887,19.37l.968-.974,3.6,3.164Zm1.626.8.037-.862.555-.56.555.559.037.862Zm.593-2.983-3.326-2.93V16.64a6.072,6.072,0,0,0,6.639.011v1.208Zm3.051,2.1a.552.552,0,0,1-.078.093.54.54,0,0,1-.321.148.55.55,0,0,1-.086,0,.542.542,0,0,1-.109-.017.519.519,0,0,1-.122-.049.552.552,0,0,1-.122-.093l-1.389-1.4L16.681,18.4l.96.969Z" transform="translate(0.008 -0.273)" fill="#fff"/>
        </g>
      </g>
      <g id="Group_18" data-name="Group 18" transform="translate(15.748 21.541)">
        <g id="Group_17" data-name="Group 17" transform="translate(0 0)">
          <path id="Path_80" data-name="Path 80" d="M19.022,5.385a2.377,2.377,0,0,0-.683-1.673A2.332,2.332,0,0,0,17.6,3.2a2.286,2.286,0,0,0-.907-.185l-3.6.006V1.78A1.778,1.778,0,0,0,12.575.528a1.752,1.752,0,0,0-.556-.38,1.718,1.718,0,0,0-.68-.139H7.758a1.728,1.728,0,0,0-.683.14,1.763,1.763,0,0,0-.558.382A1.785,1.785,0,0,0,6,1.79V3.039l-3.636.006a2.335,2.335,0,0,0-.92.189A2.4,2.4,0,0,0,0,5.441V7.127a2.77,2.77,0,0,0,.041.461,2.852,2.852,0,0,0,.112.449,3.114,3.114,0,0,0,.188.436,3.559,3.559,0,0,0,.26.421V15.21a2.312,2.312,0,0,0,.676,1.638,2.287,2.287,0,0,0,.733.493,2.26,2.26,0,0,0,.9.176l13.251-.107a2.242,2.242,0,0,0,.884-.189,2.3,2.3,0,0,0,.722-.5,2.339,2.339,0,0,0,.666-1.637V8.816a3.578,3.578,0,0,0,.256-.42,3.131,3.131,0,0,0,.185-.434,2.863,2.863,0,0,0,.113-.446,2.775,2.775,0,0,0,.038-.458V5.385Zm-11.9-3.6h0a.649.649,0,0,1,.187-.456.639.639,0,0,1,.2-.138.627.627,0,0,1,.247-.051h3.581a.623.623,0,0,1,.247.05.635.635,0,0,1,.2.138.645.645,0,0,1,.186.454V3.03l-4.851.009Zm10.79,5.273a1.727,1.727,0,0,1-.165.721,2.677,2.677,0,0,1-.479.7,4.56,4.56,0,0,1-.771.652,7.305,7.305,0,0,1-1.036.585v-.1a.565.565,0,0,0-.163-.4.553.553,0,0,0-.176-.122.545.545,0,0,0-.216-.043l-2.379.011a.55.55,0,0,0-.217.045.561.561,0,0,0-.177.122.568.568,0,0,0-.162.4v1.814a1.769,1.769,0,0,0,.513,1.25,1.719,1.719,0,0,0,1.913.368,1.764,1.764,0,0,0,.555-.383,1.789,1.789,0,0,0,.511-1.254v-.482q.271-.111.522-.231t.484-.248q.232-.128.446-.264t.406-.279v5.17a1.2,1.2,0,0,1-.341.838,1.18,1.18,0,0,1-.37.256,1.148,1.148,0,0,1-.453.1l-13.251.1a1.157,1.157,0,0,1-.458-.09,1.17,1.17,0,0,1-.375-.253,1.184,1.184,0,0,1-.346-.839V10q.2.142.411.277t.451.261q.235.127.49.243T3.6,11v.487a1.773,1.773,0,0,0,.517,1.252,1.744,1.744,0,0,0,2.344.114,1.8,1.8,0,0,0,.611-.986q.3.041.608.068t.616.048q.31.019.623.028t.628.007H9.7l.154,0,.154,0,.153-.005a.552.552,0,0,0,.216-.053.563.563,0,0,0,.174-.128.574.574,0,0,0,.1-.624.561.561,0,0,0-.125-.175.547.547,0,0,0-.4-.15l-.144,0-.145,0-.145,0H9.551q-.31,0-.618-.007t-.612-.029q-.3-.019-.6-.049t-.595-.07V9.655a.565.565,0,0,0-.162-.4.557.557,0,0,0-.178-.122.551.551,0,0,0-.218-.043l-2.4.011a.556.556,0,0,0-.218.045.565.565,0,0,0-.178.122.571.571,0,0,0-.162.4v.1a7.313,7.313,0,0,1-1.055-.576,4.553,4.553,0,0,1-.779-.649,2.665,2.665,0,0,1-.487-.7,1.72,1.72,0,0,1-.167-.725V5.436A1.257,1.257,0,0,1,1.881,4.28a1.225,1.225,0,0,1,.482-.1l14.324-.033a1.2,1.2,0,0,1,.476.1,1.223,1.223,0,0,1,.389.266,1.247,1.247,0,0,1,.359.878Zm-3.56,3.123V11.43a.649.649,0,0,1-.185.455.64.64,0,0,1-.2.139.628.628,0,0,1-.695-.134.642.642,0,0,1-.186-.453V10.192Zm-9.625,1.3V10.233L6,10.227v1.25a.649.649,0,0,1-.389.6.63.63,0,0,1-.7-.134.643.643,0,0,1-.187-.455Z" transform="translate(0 -0.009)" fill="#fff"/>
        </g>
      </g>
    </g>
  </g>
</svg>
