<svg width="20" height="24" viewBox="0 0 20 24" fill="none" xmlns="http://www.w3.org/2000/svg">
<path fill-rule="evenodd" clip-rule="evenodd" d="M9.64766 2.07081C9.51941 2.25421 9.4671 2.50299 9.4671 2.65844V10.2095C9.4671 10.6927 9.07535 11.0845 8.5921 11.0845C8.10885 11.0845 7.7171 10.6927 7.7171 10.2095V4.98183C7.7171 4.82638 7.6648 4.5776 7.53654 4.39421C7.44032 4.25661 7.2805 4.11429 6.89954 4.11429C6.51857 4.11429 6.35876 4.25661 6.26253 4.39421C6.13428 4.5776 6.08197 4.82638 6.08197 4.98183V8.9134C6.08198 8.91514 6.08198 8.91687 6.08197 8.91861V14.2754C6.08197 14.7586 5.69022 15.1504 5.20697 15.1504C4.72372 15.1504 4.33197 14.7586 4.33197 14.2754V11.1431L3.02706 12.5476L3.01369 12.5617C2.89112 12.6878 2.67477 12.9688 2.48116 13.3274C2.28597 13.6891 2.15542 14.0535 2.12932 14.3517C2.10816 14.5935 2.21575 15.0055 2.45671 15.5223C2.6817 16.0048 2.95817 16.4461 3.12649 16.7134C3.42028 17.1801 3.65009 17.5662 3.85877 17.9169C4.30646 18.6693 4.65693 19.2583 5.3333 20.1273C5.7941 20.7194 7.09413 21.9594 9.22034 22.1155C11.03 22.2483 12.7775 22.2304 13.5475 22.1217C14.0504 22.0507 15.2663 21.8312 16.4273 20.6359C16.9697 20.0775 17.3382 19.305 17.5693 18.5164C17.7993 17.7314 17.8725 17.0011 17.8725 16.5988V7.30522C17.8725 7.14978 17.8202 6.90099 17.6919 6.7176C17.5957 6.58001 17.4359 6.43768 17.0549 6.43768C16.674 6.43768 16.5141 6.58001 16.4179 6.7176C16.29 6.9005 16.2376 7.14845 16.2374 7.30398C16.2374 7.30439 16.2374 7.30481 16.2374 7.30522L16.2374 7.88607C16.2374 7.88654 16.2374 7.88701 16.2374 7.88748V11.3712C16.2374 11.8544 15.8456 12.2462 15.3624 12.2462C14.8791 12.2462 14.4874 11.8544 14.4874 11.3712V7.30522C14.4874 7.30447 14.4874 7.30371 14.4874 7.30295V4.98183C14.4874 4.82638 14.4351 4.5776 14.3068 4.39421C14.2106 4.25661 14.0508 4.11429 13.6698 4.11429C13.2888 4.11429 13.129 4.25661 13.0328 4.39421C12.9045 4.5776 12.8522 4.82638 12.8522 4.98183V10.2095C12.8522 10.6927 12.4605 11.0845 11.9772 11.0845C11.494 11.0845 11.1022 10.6927 11.1022 10.2095V2.65844C11.1022 2.50299 11.0499 2.25421 10.9217 2.07081C10.8254 1.93322 10.6656 1.79089 10.2847 1.79089C9.9037 1.79089 9.74389 1.93322 9.64766 2.07081ZM12.8459 2.48248C12.8172 2.07196 12.6858 1.53975 12.3558 1.06788C11.9442 0.479413 11.2578 0.0408936 10.2847 0.0408936C9.31158 0.0408936 8.62512 0.479413 8.21357 1.06788C7.88357 1.53974 7.75209 2.07196 7.7234 2.48247C7.47618 2.40656 7.20167 2.36429 6.89954 2.36429C5.92645 2.36429 5.23998 2.80281 4.82844 3.39127C4.44893 3.93394 4.33197 4.55643 4.33197 4.98183V8.57206L1.75098 11.35C1.49886 11.6115 1.195 12.026 0.941187 12.4962C0.686474 12.9681 0.440899 13.5717 0.385986 14.1991C0.321965 14.9306 0.610287 15.7035 0.870669 16.2619C1.14614 16.8526 1.47524 17.3753 1.64397 17.6433L1.64557 17.6458C1.89274 18.0384 2.10314 18.3916 2.30474 18.73C2.78047 19.5285 3.20715 20.2448 3.95227 21.2021C4.60612 22.0422 6.31705 23.6571 9.09225 23.8608C10.9417 23.9965 12.8362 23.9894 13.7921 23.8545C14.4743 23.7583 16.1354 23.4481 17.6826 21.8552C18.4942 21.0197 18.972 19.9527 19.2487 19.0085C19.5264 18.0607 19.6225 17.1645 19.6225 16.5988V7.30522C19.6225 6.87982 19.5055 6.25733 19.126 5.71467C18.7145 5.1262 18.028 4.68768 17.0549 4.68768C16.7528 4.68768 16.4783 4.72996 16.2311 4.80587C16.2024 4.39535 16.0709 3.86314 15.7409 3.39127C15.3294 2.80281 14.6429 2.36429 13.6698 2.36429C13.3677 2.36429 13.0932 2.40657 12.8459 2.48248Z" fill="#067647"/>
</svg>
