<svg width="20" height="20" viewBox="0 0 20 20" fill="none" xmlns="http://www.w3.org/2000/svg">
<path d="M8.54175 15.8337C8.54175 15.4885 8.82157 15.2087 9.16675 15.2087H10.8334C11.1786 15.2087 11.4584 15.4885 11.4584 15.8337C11.4584 16.1788 11.1786 16.4587 10.8334 16.4587H9.16675C8.82157 16.4587 8.54175 16.1788 8.54175 15.8337Z" fill="white"/>
<path fill-rule="evenodd" clip-rule="evenodd" d="M9.95363 1.04199H10.0465C11.382 1.04198 12.4478 1.04197 13.2837 1.15435C14.1473 1.27045 14.8585 1.51671 15.4211 2.07932C15.9837 2.64194 16.23 3.35312 16.3461 4.21667C16.4584 5.05258 16.4584 6.11838 16.4584 7.45388V12.5468C16.4584 13.8823 16.4584 14.9481 16.3461 15.784C16.23 16.6475 15.9837 17.3587 15.4211 17.9213C14.8585 18.4839 14.1473 18.7302 13.2837 18.8463C12.4478 18.9587 11.382 18.9587 10.0465 18.9587H9.95363C8.61813 18.9587 7.55233 18.9587 6.71643 18.8463C5.85287 18.7302 5.1417 18.4839 4.57908 17.9213C4.01646 17.3587 3.77021 16.6475 3.65411 15.784C3.54172 14.9481 3.54173 13.8823 3.54175 12.5468V7.45387C3.54173 6.11838 3.54172 5.05258 3.65411 4.21667C3.77021 3.35312 4.01646 2.64194 4.57908 2.07932C5.1417 1.51671 5.85287 1.27045 6.71643 1.15435C7.55233 1.04197 8.61814 1.04198 9.95363 1.04199ZM6.88299 2.3932C6.15804 2.49067 5.75462 2.67155 5.46296 2.96321C5.17131 3.25486 4.99043 3.65829 4.89296 4.38323C4.79308 5.12615 4.79175 6.10773 4.79175 7.50033V12.5003C4.79175 13.8929 4.79308 14.8745 4.89296 15.6174C4.99043 16.3424 5.17131 16.7458 5.46296 17.0374C5.75462 17.3291 6.15804 17.51 6.88299 17.6074C7.62591 17.7073 8.60748 17.7087 10.0001 17.7087C11.3927 17.7087 12.3743 17.7073 13.1172 17.6074C13.8421 17.51 14.2455 17.3291 14.5372 17.0374C14.8289 16.7458 15.0097 16.3424 15.1072 15.6174C15.2071 14.8745 15.2084 13.8929 15.2084 12.5003V7.50033C15.2084 6.10773 15.2071 5.12615 15.1072 4.38323C15.0097 3.65829 14.8289 3.25486 14.5372 2.96321C14.2455 2.67155 13.8421 2.49067 13.1172 2.3932C13.0836 2.38868 13.0495 2.38437 13.0148 2.38024C12.9483 2.77786 12.8868 3.12594 12.8035 3.40964C12.7042 3.74783 12.5554 4.06538 12.2689 4.31955C11.9726 4.58245 11.6313 4.69289 11.2658 4.74341C10.9211 4.79105 10.4958 4.792 10.0001 4.792C9.50446 4.792 9.07912 4.79105 8.73447 4.74341C8.36891 4.69289 8.02763 4.58245 7.73132 4.31955C7.44484 4.06538 7.296 3.74783 7.19675 3.40964C7.11349 3.12594 7.05199 2.77786 6.9854 2.38023C6.95076 2.38436 6.91663 2.38868 6.88299 2.3932ZM8.24034 2.30411C8.29742 2.6385 8.34234 2.87424 8.39616 3.05763C8.45996 3.275 8.51666 3.34526 8.56091 3.38452C8.60958 3.4277 8.68537 3.47475 8.9056 3.50518C9.14673 3.53851 9.47591 3.542 10.0001 3.542C10.5243 3.542 10.8535 3.53851 11.0946 3.50518C11.3149 3.47475 11.3907 3.4277 11.4393 3.38452C11.4836 3.34526 11.5403 3.275 11.6041 3.05763C11.6579 2.87424 11.7028 2.6385 11.7599 2.30412C11.2573 2.29231 10.6773 2.29199 10.0001 2.29199C9.32293 2.29199 8.74295 2.29231 8.24034 2.30411Z" fill="white"/>
</svg>
