<svg width="18" height="18" viewBox="0 0 18 18" fill="none" xmlns="http://www.w3.org/2000/svg">
<path d="M4.06091 1.28883C4.40445 1.25526 4.65573 0.949552 4.62216 0.606011C4.58859 0.262469 4.28289 0.0111865 3.93934 0.0447557C2.77198 0.158825 1.84852 0.428265 1.13839 1.13839C0.428266 1.84852 0.158826 2.77198 0.0447557 3.93934C0.0111864 4.28289 0.26247 4.58859 0.606011 4.62216C0.949553 4.65573 1.25526 4.40445 1.28883 4.06091C1.39226 3.00245 1.61566 2.4289 2.02228 2.02228C2.4289 1.61566 3.00245 1.39226 4.06091 1.28883Z" fill="white"/>
<path d="M14.0609 0.0447557C13.7174 0.0111865 13.4117 0.262469 13.3781 0.606011C13.3445 0.949552 13.5958 1.25526 13.9393 1.28883C14.9978 1.39226 15.5714 1.61566 15.978 2.02228C16.3846 2.4289 16.608 3.00245 16.7114 4.06091C16.745 4.40445 17.0507 4.65573 17.3942 4.62216C17.7378 4.58859 17.9891 4.28289 17.9555 3.93934C17.8414 2.77198 17.572 1.84852 16.8619 1.13839C16.1517 0.428265 15.2283 0.158825 14.0609 0.0447557Z" fill="white"/>
<path d="M7.33346 0.041793C6.98828 0.041793 6.70846 0.321615 6.70846 0.666793C6.70846 1.01197 6.98828 1.29179 7.33346 1.29179H10.6668C11.012 1.29179 11.2918 1.01197 11.2918 0.666793C11.2918 0.321615 11.012 0.0417931 10.6668 0.0417931L7.33346 0.041793Z" fill="white"/>
<path d="M1.29179 7.33346C1.29179 6.98828 1.01197 6.70846 0.666793 6.70846C0.321615 6.70846 0.041793 6.98828 0.041793 7.33346L0.0417946 10.6668C0.0417946 11.012 0.321615 11.2918 0.666793 11.2918C1.01197 11.2918 1.29179 11.012 1.29179 10.6668L1.29179 7.33346Z" fill="white"/>
<path d="M1.28883 13.9393C1.25526 13.5958 0.949553 13.3445 0.606011 13.3781C0.262468 13.4117 0.0111864 13.7174 0.0447557 14.0609C0.158826 15.2283 0.428266 16.1517 1.13839 16.8619C1.84852 17.572 2.77198 17.8414 3.93934 17.9555C4.28289 17.9891 4.58859 17.7378 4.62216 17.3942C4.65573 17.0507 4.40445 16.745 4.06091 16.7114C3.00245 16.608 2.4289 16.3846 2.02228 15.978C1.61566 15.5714 1.39226 14.9978 1.28883 13.9393Z" fill="white"/>
<path d="M9.75018 10.7501C9.40501 10.7501 9.12518 11.0299 9.12518 11.3751C9.12518 11.7203 9.40501 12.0001 9.75018 12.0001H13.0002C13.3454 12.0001 13.6252 11.7203 13.6252 11.3751C13.6252 11.0299 13.3454 10.7501 13.0002 10.7501H9.75018Z" fill="white"/>
<path fill-rule="evenodd" clip-rule="evenodd" d="M11.3752 5.87508C8.33762 5.87508 5.87518 8.33752 5.87518 11.3751C5.87518 14.4126 8.33762 16.8751 11.3752 16.8751C12.6688 16.8751 13.8581 16.4285 14.7973 15.6811L16.8916 17.7754C17.1357 18.0194 17.5314 18.0194 17.7755 17.7754C18.0195 17.5313 18.0195 17.1355 17.7755 16.8915L15.6812 14.7972C16.4286 13.858 16.8752 12.6687 16.8752 11.3751C16.8752 8.33752 14.4128 5.87508 11.3752 5.87508ZM7.12518 11.3751C7.12518 9.02787 9.02797 7.12508 11.3752 7.12508C13.7224 7.12508 15.6252 9.02787 15.6252 11.3751C15.6252 13.7223 13.7224 15.6251 11.3752 15.6251C9.02797 15.6251 7.12518 13.7223 7.12518 11.3751Z" fill="white"/>
</svg>
