<svg width="18" height="14" viewBox="0 0 18 14" fill="none" xmlns="http://www.w3.org/2000/svg">
<path fill-rule="evenodd" clip-rule="evenodd" d="M9.00008 10.1251C7.27419 10.1251 5.87508 8.72597 5.87508 7.00008C5.87508 5.27419 7.27419 3.87508 9.00008 3.87508C10.726 3.87508 12.1251 5.27419 12.1251 7.00008C12.1251 8.72597 10.726 10.1251 9.00008 10.1251ZM7.12508 7.00008C7.12508 8.03562 7.96455 8.87508 9.00008 8.87508C10.0356 8.87508 10.8751 8.03562 10.8751 7.00008C10.8751 5.96455 10.0356 5.12508 9.00008 5.12508C7.96455 5.12508 7.12508 5.96455 7.12508 7.00008Z" fill="white"/>
<path fill-rule="evenodd" clip-rule="evenodd" d="M9.00008 0.541748C6.85795 0.541748 5.02171 1.48459 3.60034 2.59424C2.17769 3.70488 1.12613 5.01653 0.537923 5.84135L0.493574 5.90319C0.282611 6.19659 0.041748 6.53158 0.041748 7.00008C0.041748 7.46859 0.282611 7.80357 0.493575 8.09697L0.537924 8.15882C1.12614 8.98363 2.17769 10.2953 3.60034 11.4059C5.02171 12.5156 6.85795 13.4584 9.00008 13.4584C11.1422 13.4584 12.9785 12.5156 14.3998 11.4059C15.8225 10.2953 16.874 8.98363 17.4622 8.15882L17.5066 8.09697C17.7176 7.80357 17.9584 7.46859 17.9584 7.00008C17.9584 6.53158 17.7176 6.19659 17.5066 5.90319L17.4622 5.84135C16.874 5.01653 15.8225 3.70488 14.3998 2.59423C12.9785 1.48459 11.1422 0.541748 9.00008 0.541748ZM1.55564 6.56712C2.10581 5.79565 3.07706 4.58856 4.36955 3.57953C5.66331 2.56951 7.23453 1.79175 9.00008 1.79175C10.7656 1.79175 12.3369 2.56951 13.6306 3.57953C14.9231 4.58856 15.8944 5.79565 16.4445 6.56712C16.5806 6.75797 16.6454 6.85117 16.684 6.92535C16.7086 6.97251 16.7085 6.98543 16.7084 6.99809L16.7084 7.00008L16.7084 7.00207C16.7085 7.01473 16.7086 7.02766 16.684 7.07481C16.6454 7.149 16.5806 7.24219 16.4445 7.43304C15.8944 8.20451 14.9231 9.4116 13.6306 10.4206C12.3369 11.4307 10.7656 12.2084 9.00008 12.2084C7.23453 12.2084 5.66331 11.4307 4.36955 10.4206C3.07706 9.4116 2.10581 8.20451 1.55564 7.43304C1.41954 7.24219 1.35476 7.149 1.31615 7.07481C1.2916 7.02766 1.29167 7.01473 1.29174 7.00207L1.29175 7.00008L1.29174 6.99809C1.29167 6.98543 1.2916 6.97251 1.31615 6.92535C1.35476 6.85117 1.41954 6.75797 1.55564 6.56712Z" fill="white"/>
</svg>
