<svg xmlns="http://www.w3.org/2000/svg" xmlns:xlink="http://www.w3.org/1999/xlink" width="514" height="873" viewBox="0 0 514 873">
  <defs>
    <clipPath id="clip-path">
      <rect id="Rectangle_11588" data-name="Rectangle 11588" width="514" height="873" transform="translate(0 203)" fill="#fff" stroke="#707070" stroke-width="1"/>
    </clipPath>
  </defs>
  <g id="option_2_slider" transform="translate(0 -203)" clip-path="url(#clip-path)">
    <g id="Group_41470" data-name="Group 41470">
      <path id="Path_69290" data-name="Path 69290" d="M4937.333-15688s295.733,295.933,348.8,514.4c26.746,110.107-32.343,201.29-73.6,264-40.482,61.532-62.933,95.468-62.933,95.468H4826.4L4824.267-15688Z" transform="translate(-4824.267 15890.133)" fill="#fff" stroke="#707070" stroke-width="1" opacity="0.19"/>
      <path id="Path_69285" data-name="Path 69285" d="M178.252,256.36c-19.975-30.243-41.017-60.141-61.534-87.781" transform="matrix(0.999, -0.035, 0.035, 0.999, 146.499, 155.433)" fill="none" stroke="#feb43f" stroke-linecap="round" stroke-miterlimit="10" stroke-width="15" opacity="0.61"/>
      <path id="Path_69286" data-name="Path 69286" d="M69.032,49.494C-59.874,254.809-133.715,504.93-144.511,772.816c-10.831,268.762,43.862,543.845,154,774.576l19.842,41.564,35.373-29.494c196.6-163.927,415.667-434.686,498.73-616.409l.187-.415a320.473,320.473,0,0,0-5.073-269.12C529.136,608.408,486.331,533,438.04,456.762" transform="translate(-89.339 -27.99)" fill="none" stroke="#224e85" stroke-linecap="round" stroke-miterlimit="10" stroke-width="15"/>
      <path id="Path_69287" data-name="Path 69287" d="M172.424,217.392C120.687,150.269,72.881,93.92,37.584,58.622L5.84,26.877-18.029,64.9" transform="translate(70.517 94.184) rotate(-3)" fill="none" stroke="#00ac65" stroke-linecap="round" stroke-miterlimit="10" stroke-width="15"/>
    </g>
  </g>
</svg>
