<svg width="24" height="24" viewBox="0 0 24 24" fill="none" xmlns="http://www.w3.org/2000/svg">
<path fill-rule="evenodd" clip-rule="evenodd" d="M4.74877 22.75C4.13275 22.7501 3.59196 22.7501 3.15689 22.6874C2.68262 22.6191 2.22675 22.4635 1.86176 22.0724C1.50362 21.6887 1.36766 21.2219 1.3071 20.7393C1.24995 20.2839 1.24997 19.7139 1.25 19.0469V18.9532C1.24997 18.2861 1.24995 17.7162 1.3071 17.2607C1.36766 16.7781 1.50362 16.3113 1.86176 15.9276C2.22675 15.5365 2.68262 15.3809 3.15689 15.3126C3.59196 15.2499 4.13274 15.25 4.74876 15.25H6.25124C6.86725 15.25 7.40805 15.2499 7.84312 15.3126C8.31739 15.3809 8.77326 15.5365 9.13824 15.9276C9.49639 16.3113 9.63235 16.7781 9.69291 17.2607C9.72406 17.509 9.73822 17.7912 9.74466 18.1047C10.2668 17.9672 10.5906 17.7769 10.7957 17.5665C11.078 17.2768 11.25 16.8295 11.25 16.0481L11.25 7.95384C11.25 7.13683 11.0525 6.68651 10.7592 6.40228C10.5473 6.19703 10.2278 6.02128 9.74468 5.89417C9.73826 6.2081 9.7241 6.49074 9.69291 6.73929C9.63235 7.22193 9.49639 7.68868 9.13824 8.0724C8.77326 8.46346 8.31739 8.61911 7.84312 8.68743C7.40805 8.7501 6.86726 8.75005 6.25124 8.75001H4.74877C4.13275 8.75005 3.59196 8.7501 3.15689 8.68743C2.68262 8.61911 2.22675 8.46346 1.86176 8.0724C1.50362 7.68868 1.36766 7.22193 1.3071 6.73929C1.24995 6.28386 1.24997 5.71394 1.25 5.04685V4.9532C1.24997 4.28611 1.24995 3.71615 1.3071 3.26072C1.36766 2.77808 1.50362 2.31133 1.86176 1.92761C2.22675 1.53655 2.68262 1.3809 3.15689 1.31258C3.59196 1.24991 4.13275 1.24995 4.74877 1.25H6.25124C6.86726 1.24995 7.40805 1.24991 7.84312 1.31258C8.31739 1.3809 8.77326 1.53655 9.13824 1.92761C9.49639 2.31133 9.63235 2.77808 9.69291 3.26072C9.7322 3.57384 9.74447 3.94109 9.74829 4.35682C10.5705 4.51984 11.2757 4.81415 11.8029 5.325C12.4889 5.98959 12.75 6.89696 12.75 7.95384V11.251H14.2536C14.2598 10.8737 14.2768 10.5331 14.3231 10.2379C14.4039 9.72302 14.5872 9.24475 15.0245 8.86991C15.4451 8.50936 15.9532 8.37218 16.4939 8.30986C17.0136 8.24997 17.6684 8.24999 18.4551 8.25001H18.5449C19.3316 8.24999 19.9864 8.24997 20.5061 8.30986C21.0469 8.37218 21.5549 8.50936 21.9755 8.86991C22.4129 9.24475 22.5961 9.72302 22.6769 10.2379C22.7501 10.7048 22.7501 11.285 22.75 11.9446V12.0554C22.7501 12.715 22.7501 13.2952 22.6769 13.7621C22.5961 14.277 22.4129 14.7553 21.9755 15.1301C21.5549 15.4907 21.0469 15.6278 20.5061 15.6902C19.9864 15.75 19.3316 15.75 18.5449 15.75H18.4551C17.6684 15.75 17.0136 15.75 16.4939 15.6902C15.9532 15.6278 15.4451 15.4907 15.0245 15.1301C14.5872 14.7553 14.4039 14.277 14.3231 13.7621C14.2769 13.4674 14.2599 13.1275 14.2536 12.751H12.75V16.0481C12.75 17.0341 12.5325 17.9335 11.87 18.6133C11.3481 19.1489 10.6275 19.4669 9.7483 19.6422C9.74449 20.0583 9.73223 20.4259 9.69291 20.7393C9.63235 21.2219 9.49639 21.6887 9.13824 22.0724C8.77326 22.4635 8.31739 22.6191 7.84312 22.6874C7.40805 22.7501 6.86726 22.7501 6.25124 22.75H4.74877ZM8.25 19.0094C8.24999 19.731 8.24842 20.2032 8.20458 20.5525C8.16263 20.8868 8.09357 20.9933 8.04166 21.0489C7.9966 21.0972 7.91746 21.1612 7.62925 21.2027C7.31386 21.2482 6.88264 21.25 6.2 21.25H4.8C4.11737 21.25 3.68615 21.2482 3.37076 21.2027C3.08255 21.1612 3.00341 21.0972 2.95835 21.0489C2.90644 20.9933 2.83737 20.8868 2.79542 20.5525C2.75139 20.2017 2.75 19.7269 2.75 19C2.75 18.2731 2.75139 17.7984 2.79542 17.4475C2.83737 17.1132 2.90644 17.0067 2.95835 16.9511C3.00341 16.9028 3.08255 16.8388 3.37076 16.7973C3.68615 16.7518 4.11737 16.75 4.8 16.75H6.2C6.88264 16.75 7.31386 16.7518 7.62925 16.7973C7.91746 16.8388 7.9966 16.9028 8.04166 16.9511C8.09357 17.0067 8.16263 17.1132 8.20458 17.4475C8.24839 17.7965 8.24999 18.2682 8.25 18.9887C8.24991 18.9956 8.24991 19.0025 8.25 19.0094ZM8.25 5.01127C8.24991 5.00441 8.24991 4.99752 8.25 4.99062C8.24999 4.26899 8.24842 3.79685 8.20458 3.44748C8.16263 3.11317 8.09357 3.0067 8.04166 2.95108C7.9966 2.9028 7.91746 2.83878 7.62925 2.79726C7.31386 2.75183 6.88264 2.75 6.2 2.75H4.8C4.11737 2.75 3.68615 2.75183 3.37076 2.79726C3.08255 2.83878 3.00341 2.9028 2.95835 2.95108C2.90644 3.0067 2.83737 3.11317 2.79542 3.44748C2.75139 3.79836 2.75 4.27308 2.75 5C2.75 5.72694 2.75139 6.20165 2.79542 6.55253C2.83737 6.88684 2.90644 6.99331 2.95835 7.04893C3.00341 7.09721 3.08255 7.16123 3.37076 7.20275C3.68615 7.24818 4.11737 7.25 4.8 7.25H6.2C6.88264 7.25 7.31386 7.24818 7.62925 7.20275C7.91746 7.16123 7.9966 7.09721 8.04166 7.04893C8.09357 6.99331 8.16263 6.88684 8.20458 6.55253C8.24839 6.20347 8.24999 5.73185 8.25 5.01127ZM16.0007 13.9912C16.0926 14.07 16.2533 14.1525 16.6656 14.2C17.0892 14.2488 17.6568 14.25 18.5 14.25C19.3432 14.25 19.9108 14.2488 20.3344 14.2C20.7467 14.1525 20.9074 14.07 20.9994 13.9912C21.0746 13.9267 21.1476 13.8318 21.195 13.5297C21.2479 13.1927 21.25 12.7317 21.25 12C21.25 11.2683 21.2479 10.8073 21.195 10.4703C21.1476 10.1682 21.0746 10.0733 20.9994 10.0088C20.9074 9.93 20.7467 9.84751 20.3344 9.8C19.9108 9.75119 19.3432 9.75001 18.5 9.75001C17.6568 9.75001 17.0892 9.75119 16.6656 9.8C16.2533 9.84751 16.0926 9.93 16.0007 10.0088C15.9254 10.0733 15.8524 10.1682 15.805 10.4703C15.7522 10.8073 15.75 11.2683 15.75 12C15.75 12.7317 15.7522 13.1927 15.805 13.5297C15.8524 13.8318 15.9254 13.9267 16.0007 13.9912Z" fill="#1B8354"/>
</svg>
