<svg width="120" height="41" viewBox="0 0 120 41" fill="none" xmlns="http://www.w3.org/2000/svg">
<g clip-path="url(#clip0_42_14407)">
<mask id="mask0_42_14407" style="mask-type:luminance" maskUnits="userSpaceOnUse" x="0" y="0" width="120" height="41">
<path d="M119.582 0.404846H0.427734V40.4077H119.582V0.404846Z" fill="white"/>
</mask>
<g mask="url(#mask0_42_14407)">
<path d="M111.178 0.404846H7.86839H7.05812C6.46561 0.414487 5.87452 0.47332 5.28979 0.580859C4.70883 0.690967 4.14632 0.899601 3.62156 1.19957C3.09377 1.50152 2.61134 1.89383 2.19167 2.36236C1.77208 2.83108 1.4214 3.37113 1.15258 3.96247C0.88128 4.558 0.693205 5.19656 0.594927 5.85591C0.496157 6.50896 0.443573 7.1697 0.437639 7.83205C0.42334 8.13873 0.42334 8.43742 0.42334 8.74144V32.0741C0.42334 32.3807 0.42334 32.6795 0.437639 32.9862C0.443772 33.6484 0.496359 34.3092 0.594927 34.9623C0.692356 35.6123 0.878 36.2418 1.14543 36.829C1.68604 38.0235 2.55021 38.9961 3.61441 39.6079C4.13935 39.9085 4.70175 40.1188 5.28264 40.232C5.86743 40.3387 6.45846 40.3966 7.05097 40.4053H7.86124H112.127H112.939C113.53 40.3972 114.12 40.3392 114.703 40.232C115.289 40.1184 115.856 39.9081 116.388 39.6079C116.917 39.3091 117.4 38.9165 117.818 38.4452C118.239 37.9772 118.592 37.4371 118.862 36.845C119.126 36.2571 119.31 35.6278 119.407 34.9783C119.506 34.3251 119.561 33.6645 119.571 33.0022V32.0901V31.0233V9.81882V8.75204V7.84264C119.561 7.18026 119.506 6.51974 119.407 5.8665C119.309 5.21729 119.125 4.5881 118.862 3.99966C118.321 2.80178 117.459 1.82411 116.395 1.20476C115.863 0.907872 115.296 0.702007 114.71 0.59405C114.127 0.485922 113.537 0.427088 112.946 0.418037H112.134L111.178 0.404846Z" fill="#B6B6B6"/>
</g>
<mask id="mask1_42_14407" style="mask-type:luminance" maskUnits="userSpaceOnUse" x="0" y="0" width="120" height="41">
<path d="M119.582 0.404846H0.427734V40.4077H119.582V0.404846Z" fill="white"/>
</mask>
<g mask="url(#mask1_42_14407)">
<path d="M7.87733 39.5436H7.07897C6.52649 39.5356 5.97527 39.4821 5.42986 39.3836C4.92213 39.2871 4.42992 39.1074 3.96896 38.8503C3.05329 38.3251 2.30742 37.4923 1.83601 36.4687C1.60403 35.9531 1.44332 35.4009 1.35937 34.8313C1.26825 34.2196 1.21964 33.6007 1.21401 32.9805C1.21401 32.7725 1.19971 32.0791 1.19971 32.0791V8.74144C1.19971 8.74144 1.19971 8.05873 1.21401 7.85872C1.21813 7.23765 1.26594 6.61793 1.35699 6.00528C1.43986 5.43363 1.6006 4.8796 1.83362 4.36247C2.06526 3.85364 2.36863 3.38989 2.73204 2.98907C3.09503 2.58246 3.51229 2.24147 3.96889 1.9783C4.42877 1.72067 4.92031 1.54092 5.42738 1.44493C5.97425 1.34429 6.52714 1.28991 7.08132 1.28226H112.938C113.487 1.28752 114.035 1.34102 114.577 1.44227C115.089 1.53629 115.586 1.7161 116.05 1.97565C116.967 2.50543 117.713 3.34524 118.18 4.37582C118.412 4.88897 118.572 5.43829 118.657 6.00523C118.749 6.6225 118.799 7.24642 118.809 7.87207V8.75213V9.81891V30.9934V32.0601V32.9802C118.801 33.5934 118.75 34.2049 118.659 34.8097C118.578 35.3833 118.417 35.9394 118.183 36.4578C117.709 37.4775 116.965 38.3076 116.052 38.834C115.589 39.0938 115.093 39.2736 114.582 39.3673C114.036 39.4664 113.485 39.5199 112.932 39.5273H112.142H7.8758L7.87733 39.5436Z" fill="black"/>
</g>
<mask id="mask2_42_14407" style="mask-type:luminance" maskUnits="userSpaceOnUse" x="0" y="0" width="120" height="41">
<path d="M119.582 0.404846H0.427734V40.4077H119.582V0.404846Z" fill="white"/>
</mask>
<g mask="url(#mask2_42_14407)">
<path d="M44.6568 27.4098H40.4648L39.4471 30.5406H37.605L41.704 18.8438H43.4437L47.6357 30.5406H45.7077L44.6568 27.4098ZM40.9986 25.8097H44.1205L43.0028 22.46C42.8503 21.9987 42.6978 21.4867 42.55 20.9266C42.4141 21.4226 42.2664 21.9267 42.1091 22.444L40.9986 25.8097Z" fill="white"/>
</g>
<mask id="mask3_42_14407" style="mask-type:luminance" maskUnits="userSpaceOnUse" x="0" y="0" width="120" height="41">
<path d="M119.582 0.404846H0.427734V40.4077H119.582V0.404846Z" fill="white"/>
</mask>
<g mask="url(#mask3_42_14407)">
<path d="M48.377 23.9615C48.377 23.3161 48.3579 22.6049 48.3198 21.828H49.988C50.0507 22.1937 50.0937 22.5633 50.1167 22.9348C50.4086 22.5433 50.7727 22.2272 51.1841 22.0081C51.5954 21.7889 52.0443 21.672 52.4998 21.6654C53.034 21.6559 53.5585 21.8249 54.0064 22.1508C54.4542 22.4767 54.8051 22.9447 55.0141 23.4948C55.3072 24.2511 55.4465 25.071 55.4215 25.895C55.4397 26.7934 55.2769 27.6848 54.9449 28.5032C54.6674 29.1823 54.2141 29.7527 53.6437 30.1406C53.057 30.5201 52.3887 30.7128 51.711 30.698C51.1778 30.6976 50.6485 30.5966 50.1453 30.3993V34.0075L48.3627 34.1783L48.377 23.9615ZM53.0622 28.4071C53.4245 27.8738 53.608 27.0738 53.608 26.007C53.608 25.0345 53.4571 24.3233 53.1552 23.8735C53.0188 23.6644 52.8392 23.4955 52.6317 23.3813C52.4241 23.267 52.1948 23.2108 51.9636 23.2175C51.6306 23.2125 51.3021 23.3044 51.0103 23.4841C50.7005 23.6806 50.4185 23.9278 50.1739 24.2175V28.8845C50.3714 28.9887 50.5794 29.0657 50.7935 29.1139C51.0237 29.1696 51.2586 29.1982 51.4942 29.1992C51.7933 29.2192 52.0924 29.1576 52.3655 29.0197C52.6387 28.8817 52.8778 28.6715 53.0622 28.4071Z" fill="white"/>
</g>
<mask id="mask4_42_14407" style="mask-type:luminance" maskUnits="userSpaceOnUse" x="0" y="0" width="120" height="41">
<path d="M119.582 0.404846H0.427734V40.4077H119.582V0.404846Z" fill="white"/>
</mask>
<g mask="url(#mask4_42_14407)">
<path d="M56.5059 23.9615C56.5059 23.3161 56.4869 22.6049 56.4487 21.828H58.117C58.1816 22.1934 58.2254 22.5631 58.2481 22.9348C58.9423 22.0885 59.7367 21.6654 60.6312 21.6654C61.1653 21.6559 61.6898 21.8249 62.1377 22.1508C62.5855 22.4767 62.9364 22.9447 63.1454 23.4948C63.4386 24.2511 63.5778 25.071 63.5529 25.895C63.5748 26.7923 63.416 27.6838 63.0882 28.5032C62.8099 29.1827 62.3558 29.7531 61.7846 30.1406C61.1979 30.5204 60.5295 30.7132 59.8519 30.698C59.3187 30.6976 58.7894 30.5966 58.2861 30.3993V34.0075L56.5036 34.1783L56.5059 23.9615ZM61.1984 28.4071C61.5606 27.8613 61.7417 27.0612 61.7417 26.007C61.7417 25.0345 61.5916 24.3233 61.2913 23.8735C61.1549 23.6644 60.9752 23.4955 60.7677 23.3813C60.5602 23.267 60.331 23.2108 60.0998 23.2175C59.7668 23.213 59.4384 23.3048 59.1465 23.4841C58.8366 23.6806 58.5546 23.9278 58.31 24.2175V28.8845C58.5078 28.9879 58.7157 29.0649 58.9296 29.1139C59.1599 29.1696 59.3947 29.1982 59.6302 29.1992C59.9293 29.2188 60.2283 29.157 60.5014 29.019C60.7745 28.8811 61.0136 28.6712 61.1984 28.4071Z" fill="white"/>
</g>
<mask id="mask5_42_14407" style="mask-type:luminance" maskUnits="userSpaceOnUse" x="0" y="0" width="120" height="41">
<path d="M119.582 0.404846H0.427734V40.4077H119.582V0.404846Z" fill="white"/>
</mask>
<g mask="url(#mask5_42_14407)">
<path d="M66.8298 29.988C66.0683 29.5206 65.4497 28.808 65.0544 27.9425C64.6223 26.9645 64.4096 25.8836 64.4347 24.793C64.4038 23.6261 64.6505 22.4711 65.1497 21.4461C65.6003 20.5565 66.2773 19.8371 67.0943 19.3792C67.9531 18.9098 68.8985 18.6732 69.854 18.6886C70.4336 18.6857 71.0112 18.761 71.5747 18.9126C72.1016 19.0514 72.6132 19.2553 73.0999 19.5206L72.6376 21.054C71.7945 20.5782 70.8671 20.3194 69.9232 20.2967C69.2568 20.2842 68.5993 20.4682 68.0166 20.83C67.4638 21.1851 67.0194 21.7187 66.7417 22.3608C66.4222 23.1224 66.2671 23.9573 66.2888 24.7983C66.277 25.5559 66.3951 26.3092 66.6368 27.0172C66.8562 27.6437 67.2421 28.1798 67.7426 28.5533C68.3127 28.9524 68.9772 29.1494 69.6491 29.1186C69.9973 29.1176 70.3448 29.0846 70.6882 29.0199C71.0203 28.9608 71.3468 28.8662 71.6628 28.7373V26.3584H69.2463V24.809H73.3954V29.7399C72.7934 30.0539 72.163 30.2944 71.5151 30.4574C70.8726 30.623 70.2155 30.7071 69.5561 30.708C68.6072 30.7335 67.6684 30.4856 66.8298 29.988Z" fill="white"/>
</g>
<mask id="mask6_42_14407" style="mask-type:luminance" maskUnits="userSpaceOnUse" x="0" y="0" width="120" height="41">
<path d="M119.582 0.404846H0.427734V40.4077H119.582V0.404846Z" fill="white"/>
</mask>
<g mask="url(#mask6_42_14407)">
<path d="M79.7273 30.54C79.6599 30.1592 79.6185 29.7731 79.6034 29.3853C79.3057 29.7729 78.942 30.0902 78.5334 30.3187C78.0721 30.5801 77.5609 30.7119 77.0439 30.7027C76.6209 30.7087 76.2021 30.6075 75.819 30.4067C75.4545 30.2154 75.1498 29.9061 74.9443 29.5186C74.7166 29.0796 74.6036 28.5779 74.6179 28.0705C74.6045 27.6857 74.6714 27.3027 74.8132 26.9517C74.9552 26.6009 75.1681 26.2918 75.4352 26.0491C75.9786 25.5441 76.885 25.2925 78.1545 25.2943C78.6273 25.2941 79.0995 25.3315 79.5676 25.4063V25.2356C79.5676 24.4676 79.4215 23.9253 79.1292 23.6089C78.7797 23.2724 78.3261 23.1029 77.8661 23.1369C77.4541 23.1425 77.0442 23.2052 76.6459 23.3235C76.2514 23.43 75.8667 23.5782 75.4973 23.7662L75.216 22.3154C75.6202 22.1224 76.0399 21.9733 76.4696 21.8701C77.0099 21.7334 77.5623 21.6654 78.1163 21.6674C78.7033 21.6495 79.2873 21.7666 79.8322 22.0114C80.3114 22.2485 80.7017 22.6654 80.9356 23.1902C81.2281 23.8927 81.3646 24.664 81.3335 25.4383V28.9053C81.3335 29.2608 81.3527 29.8066 81.3907 30.5427L79.7273 30.54ZM78.6597 28.9399C79.0032 28.7613 79.3118 28.5085 79.5676 28.1958V26.5957C79.1721 26.5434 78.7744 26.514 78.3761 26.5077C77.6405 26.5077 77.1313 26.6411 76.8485 26.9077C76.7105 27.0381 76.6009 27.202 76.5278 27.3868C76.4548 27.5716 76.4202 27.7726 76.4267 27.9745C76.4137 28.149 76.4346 28.3245 76.4876 28.4893C76.5406 28.6541 76.6246 28.8041 76.7341 28.9293C76.9664 29.1485 77.2648 29.2601 77.5682 29.2413C77.9477 29.2348 78.321 29.1318 78.6597 28.9399Z" fill="white"/>
</g>
<mask id="mask7_42_14407" style="mask-type:luminance" maskUnits="userSpaceOnUse" x="0" y="0" width="120" height="41">
<path d="M119.582 0.404846H0.427734V40.4077H119.582V0.404846Z" fill="white"/>
</mask>
<g mask="url(#mask7_42_14407)">
<path d="M82.7104 28.4498V18.1561L84.4835 17.9961V28.0958C84.4583 28.3761 84.5179 28.6579 84.6528 28.8959C84.7209 28.9778 84.8048 29.0413 84.8981 29.0815C84.9914 29.1217 85.0918 29.1376 85.1913 29.1279C85.353 29.1201 85.5131 29.0896 85.668 29.0372L85.8777 30.4667C85.6782 30.551 85.4713 30.6117 85.2605 30.648C85.033 30.6921 84.8027 30.7153 84.5717 30.7173C83.3309 30.7084 82.7104 29.9522 82.7104 28.4498Z" fill="white"/>
</g>
<mask id="mask8_42_14407" style="mask-type:luminance" maskUnits="userSpaceOnUse" x="0" y="0" width="120" height="41">
<path d="M119.582 0.404846H0.427734V40.4077H119.582V0.404846Z" fill="white"/>
</mask>
<g mask="url(#mask8_42_14407)">
<path d="M87.146 28.4498V18.1561L88.9215 17.9961V28.0958C88.8962 28.3761 88.9558 28.6579 89.0907 28.8959C89.1587 28.9778 89.2427 29.0413 89.3356 29.0815C89.4294 29.1217 89.5295 29.1376 89.6296 29.1279C89.7905 29.1201 89.9514 29.0896 90.106 29.0372L90.3133 30.4667C90.1149 30.551 89.9085 30.6118 89.6984 30.648C89.4697 30.6923 89.2391 30.7155 89.0076 30.7173C87.768 30.7084 87.1476 29.9522 87.146 28.4498Z" fill="white"/>
</g>
<mask id="mask9_42_14407" style="mask-type:luminance" maskUnits="userSpaceOnUse" x="0" y="0" width="120" height="41">
<path d="M119.582 0.404846H0.427734V40.4077H119.582V0.404846Z" fill="white"/>
</mask>
<g mask="url(#mask9_42_14407)">
<path d="M97.6027 26.4387H92.5096C92.5909 28.2646 93.3676 29.1776 94.8403 29.1776C95.2184 29.1754 95.5955 29.1253 95.9628 29.0282C96.339 28.9304 96.7063 28.7966 97.062 28.6282L97.4526 29.9937C96.5348 30.4775 95.5303 30.7202 94.5168 30.703C93.7903 30.7265 93.07 30.5429 92.4238 30.1697C91.8644 29.8313 91.4158 29.3027 91.1423 28.6602C90.8393 27.9158 90.6928 27.1041 90.7133 26.2867C90.6928 25.4301 90.8492 24.58 91.1682 23.8012C91.4399 23.1403 91.8805 22.5837 92.4337 22.2011C93.0003 21.8274 93.6491 21.6373 94.3068 21.6517C94.9592 21.6259 95.6035 21.8282 96.1487 22.2304C96.6411 22.6124 97.0218 23.1475 97.2452 23.7692C97.491 24.4465 97.6125 25.1719 97.6027 25.9027V26.4387ZM95.8654 25.1719C95.869 24.6058 95.701 24.0549 95.3891 23.6092C95.2488 23.4339 95.0763 23.2952 94.8832 23.203C94.6902 23.1109 94.4811 23.0674 94.2711 23.0758C94.0602 23.071 93.8501 23.1159 93.6553 23.2078C93.4605 23.2997 93.2853 23.4365 93.1415 23.6092C92.8054 24.0472 92.5999 24.5917 92.5525 25.1666L95.8654 25.1719Z" fill="white"/>
</g>
<mask id="mask10_42_14407" style="mask-type:luminance" maskUnits="userSpaceOnUse" x="0" y="0" width="120" height="41">
<path d="M119.582 0.404846H0.427734V40.4077H119.582V0.404846Z" fill="white"/>
</mask>
<g mask="url(#mask10_42_14407)">
<path d="M98.952 24.0175C98.952 23.5401 98.9306 22.8094 98.8931 21.8307H100.561C100.589 22.0734 100.616 22.364 100.645 22.6974C100.673 23.0308 100.688 23.3081 100.697 23.5188C100.876 23.1789 101.08 22.856 101.307 22.5534C101.504 22.2948 101.741 22.0787 102.008 21.916C102.287 21.7468 102.602 21.6614 102.92 21.668C103.161 21.6614 103.403 21.6947 103.635 21.7667L103.412 23.4948C103.132 23.4044 102.839 23.3814 102.552 23.4274C102.264 23.4734 101.988 23.5873 101.743 23.7615C101.349 24.0895 101.005 24.4878 100.725 24.9402V30.5406H98.952V24.0175Z" fill="white"/>
</g>
<mask id="mask11_42_14407" style="mask-type:luminance" maskUnits="userSpaceOnUse" x="0" y="0" width="120" height="41">
<path d="M119.582 0.404846H0.427734V40.4077H119.582V0.404846Z" fill="white"/>
</mask>
<g mask="url(#mask11_42_14407)">
<path d="M104.627 34.1063C104.409 34.0669 104.195 34.009 103.985 33.9328L104.31 32.4794C104.46 32.5246 104.612 32.561 104.765 32.5887C104.936 32.6228 105.11 32.6408 105.285 32.6422C106.078 32.6422 106.67 32.0741 107.058 30.938L107.174 30.6153L104.303 21.8307H106.209L107.667 26.7403C107.854 27.3719 108.005 28.0158 108.12 28.6685C108.256 28.0391 108.414 27.4098 108.597 26.7803L110.051 21.8307H111.845L108.985 30.6553C108.769 31.3662 108.476 32.0442 108.111 32.6742C107.833 33.1499 107.452 33.5404 107.005 33.8102C106.525 34.0722 105.996 34.2003 105.463 34.1836C105.183 34.1848 104.903 34.1589 104.627 34.1063Z" fill="white"/>
</g>
<mask id="mask12_42_14407" style="mask-type:luminance" maskUnits="userSpaceOnUse" x="0" y="0" width="120" height="41">
<path d="M119.582 0.404846H0.427734V40.4077H119.582V0.404846Z" fill="white"/>
</mask>
<g mask="url(#mask12_42_14407)">
<path d="M37.6045 7.70667H40.7741L40.6859 8.5654H38.5292V10.2268H40.5619V11.0268H38.5292V12.867H40.8003L40.7216 13.739H37.6045V7.70667Z" fill="white"/>
</g>
<mask id="mask13_42_14407" style="mask-type:luminance" maskUnits="userSpaceOnUse" x="0" y="0" width="120" height="41">
<path d="M119.582 0.404846H0.427734V40.4077H119.582V0.404846Z" fill="white"/>
</mask>
<g mask="url(#mask13_42_14407)">
<path d="M42.965 10.6616L41.2968 7.70667H42.3549L43.4892 9.87752L44.6808 7.70667H45.708L44.0397 10.6243L45.8438 13.7391H44.7714L43.4868 11.3656L42.1785 13.7391H41.1514L42.965 10.6616Z" fill="white"/>
</g>
<mask id="mask14_42_14407" style="mask-type:luminance" maskUnits="userSpaceOnUse" x="0" y="0" width="120" height="41">
<path d="M119.582 0.404846H0.427734V40.4077H119.582V0.404846Z" fill="white"/>
</mask>
<g mask="url(#mask14_42_14407)">
<path d="M46.5273 7.70667H47.9811C48.6626 7.70667 49.1853 7.86224 49.5491 8.17337C49.7301 8.33271 49.8741 8.5386 49.9686 8.77355C50.0633 9.0085 50.1057 9.26553 50.0925 9.52279C50.1026 9.89026 50.02 10.2535 49.8542 10.5709C49.6924 10.8693 49.4564 11.1084 49.1751 11.2589C48.8624 11.4243 48.5198 11.5064 48.1741 11.4989C47.9341 11.4951 47.6948 11.4675 47.4592 11.4163V13.7391H46.5273V7.70667ZM48.8628 10.4002C48.9645 10.2909 49.0438 10.1583 49.0952 10.0114C49.1466 9.86452 49.169 9.70691 49.1608 9.54944C49.1728 9.39852 49.1515 9.24658 49.0988 9.10705C49.046 8.96751 48.9633 8.84468 48.8581 8.74938C48.5899 8.56659 48.2777 8.4809 47.9644 8.50402H47.4592V10.6375C47.6362 10.6732 47.8155 10.6937 47.9954 10.6988C48.3078 10.7251 48.6176 10.6184 48.8628 10.4002Z" fill="white"/>
</g>
<mask id="mask15_42_14407" style="mask-type:luminance" maskUnits="userSpaceOnUse" x="0" y="0" width="120" height="41">
<path d="M119.582 0.404846H0.427734V40.4077H119.582V0.404846Z" fill="white"/>
</mask>
<g mask="url(#mask15_42_14407)">
<path d="M51.0127 7.70667H51.9421V12.8484H54.1727L54.0941 13.7391H51.0127V7.70667Z" fill="white"/>
</g>
<mask id="mask16_42_14407" style="mask-type:luminance" maskUnits="userSpaceOnUse" x="0" y="0" width="120" height="41">
<path d="M119.582 0.404846H0.427734V40.4077H119.582V0.404846Z" fill="white"/>
</mask>
<g mask="url(#mask16_42_14407)">
<path d="M55.5882 13.4428C55.1976 13.1969 54.8821 12.8252 54.6827 12.3761C54.4659 11.8783 54.3588 11.3296 54.3705 10.776C54.3591 10.1974 54.4735 9.6245 54.7041 9.10646C54.9155 8.63956 55.2476 8.25479 55.6574 8.00238C56.116 7.73355 56.6294 7.60304 57.1468 7.62369C57.6361 7.609 58.1202 7.73868 58.5505 7.99971C58.9387 8.24653 59.2518 8.61818 59.4489 9.06649C59.6614 9.55911 59.7668 10.1011 59.7564 10.648C59.7693 11.2329 59.6539 11.8126 59.4203 12.3361C59.207 12.8014 58.8753 13.1856 58.4671 13.4402C58.0164 13.7084 57.5118 13.8425 57.0015 13.8295C56.508 13.8435 56.0202 13.71 55.5882 13.4428ZM58 12.7041C58.2627 12.5093 58.4669 12.2305 58.5863 11.9041C58.7199 11.5303 58.7856 11.1304 58.7793 10.728C58.7853 10.3328 58.7271 9.93976 58.6077 9.5679C58.5007 9.24578 58.3097 8.96704 58.0596 8.76784C57.7693 8.56913 57.4358 8.46399 57.0956 8.46399C56.7554 8.46399 56.4218 8.56913 56.1316 8.76784C55.8681 8.97238 55.6629 9.25756 55.5406 9.58924C55.405 9.94755 55.3376 10.3336 55.3427 10.7226C55.337 11.1235 55.4001 11.5219 55.5287 11.8961C55.6428 12.2384 55.8516 12.5311 56.1246 12.7317C56.3976 12.9321 56.7206 13.0299 57.0467 13.0108C57.3851 13.0202 57.7178 12.913 58 12.7041Z" fill="white"/>
</g>
<mask id="mask17_42_14407" style="mask-type:luminance" maskUnits="userSpaceOnUse" x="0" y="0" width="120" height="41">
<path d="M119.582 0.404846H0.427734V40.4077H119.582V0.404846Z" fill="white"/>
</mask>
<g mask="url(#mask17_42_14407)">
<path d="M60.793 7.70667H62.4802C62.9745 7.66751 63.4665 7.81288 63.8791 8.12004C64.0374 8.25912 64.1634 8.4389 64.2464 8.6441C64.3294 8.84931 64.3669 9.07389 64.3557 9.29878C64.3614 9.59121 64.3024 9.88066 64.1841 10.1415C64.0807 10.3702 63.9363 10.5726 63.76 10.7363C63.6023 10.8787 63.4253 10.9922 63.2357 11.0723L64.9039 13.7391H63.8195L62.4159 11.3389H61.7319V13.7391H60.793V7.70667ZM62.2538 10.5603C62.4608 10.5653 62.6659 10.515 62.852 10.4136C63.0196 10.3235 63.161 10.182 63.2595 10.0055C63.3578 9.81719 63.4081 9.60226 63.4048 9.38416C63.4145 9.25827 63.396 9.13169 63.351 9.01579C63.3061 8.89988 63.2362 8.79827 63.1475 8.72011C62.924 8.56358 62.6622 8.48985 62.3992 8.50942H61.7247V10.5709L62.2538 10.5603Z" fill="white"/>
</g>
<mask id="mask18_42_14407" style="mask-type:luminance" maskUnits="userSpaceOnUse" x="0" y="0" width="120" height="41">
<path d="M119.582 0.404846H0.427734V40.4077H119.582V0.404846Z" fill="white"/>
</mask>
<g mask="url(#mask18_42_14407)">
<path d="M65.6304 7.70667H68.8071L68.7166 8.5654H66.5718V10.2268H68.5855V11.0268H66.5526V12.867H68.8238L68.7547 13.739H65.6304V7.70667Z" fill="white"/>
</g>
<mask id="mask19_42_14407" style="mask-type:luminance" maskUnits="userSpaceOnUse" x="0" y="0" width="120" height="41">
<path d="M119.582 0.404846H0.427734V40.4077H119.582V0.404846Z" fill="white"/>
</mask>
<g mask="url(#mask19_42_14407)">
<path d="M72.2632 7.70667H73.1926V13.7391H72.2632V7.70667Z" fill="white"/>
</g>
<mask id="mask20_42_14407" style="mask-type:luminance" maskUnits="userSpaceOnUse" x="0" y="0" width="120" height="41">
<path d="M119.582 0.404846H0.427734V40.4077H119.582V0.404846Z" fill="white"/>
</mask>
<g mask="url(#mask20_42_14407)">
<path d="M75.6541 8.57613H73.9858L74.0669 7.70674H78.2612L78.1754 8.57613H76.5859V13.7391H75.6541V8.57613Z" fill="white"/>
</g>
<mask id="mask21_42_14407" style="mask-type:luminance" maskUnits="userSpaceOnUse" x="0" y="0" width="120" height="41">
<path d="M119.582 0.404846H0.427734V40.4077H119.582V0.404846Z" fill="white"/>
</mask>
<g mask="url(#mask21_42_14407)">
<path d="M82.3012 13.4428C81.9114 13.1967 81.5966 12.825 81.398 12.3761C81.1793 11.879 81.0713 11.3299 81.0834 10.776C81.072 10.1974 81.1866 9.6245 81.4171 9.10646C81.629 8.64004 81.961 8.25545 82.3703 8.00239C82.8255 7.73223 83.3353 7.59812 83.8503 7.61302C84.3453 7.59811 84.8348 7.73162 85.2682 7.99972C85.657 8.24574 85.9702 8.6176 86.1667 9.06649C86.38 9.55889 86.4862 10.1008 86.4764 10.648C86.4898 11.2332 86.3735 11.8132 86.1381 12.3361C85.9254 12.802 85.5936 13.1863 85.1848 13.4402C84.7344 13.7091 84.2296 13.8432 83.7192 13.8295C83.2242 13.8444 82.7346 13.7109 82.3012 13.4428ZM84.7154 12.7041C84.9768 12.5084 85.1801 12.2298 85.2992 11.9041C85.4329 11.5303 85.4986 11.1304 85.4922 10.728C85.4982 10.3328 85.4401 9.93976 85.3207 9.5679C85.2147 9.24596 85.0245 8.96719 84.7749 8.76784C84.4843 8.56891 84.1504 8.46363 83.8097 8.46363C83.4691 8.46363 83.1352 8.56891 82.8445 8.76784C82.5811 8.97239 82.3759 9.25757 82.2535 9.58923C82.1191 9.94793 82.0518 10.3337 82.0558 10.7226C82.0501 11.1235 82.1131 11.5219 82.2417 11.8961C82.3553 12.225 82.5536 12.5089 82.8112 12.7122C83.0933 12.9205 83.4267 13.025 83.7645 13.0108C84.1019 13.0186 84.4334 12.9116 84.7154 12.7041Z" fill="white"/>
</g>
<mask id="mask22_42_14407" style="mask-type:luminance" maskUnits="userSpaceOnUse" x="0" y="0" width="120" height="41">
<path d="M119.582 0.404846H0.427734V40.4077H119.582V0.404846Z" fill="white"/>
</mask>
<g mask="url(#mask22_42_14407)">
<path d="M87.5078 7.70667H88.5755L91.2423 12.3817C91.2182 11.9364 91.2093 11.5283 91.2093 11.1523V7.70667H92.0717V13.7391H91.0377L88.33 8.98946C88.3563 9.52282 88.3706 10.0055 88.3706 10.4243V13.7391H87.5078V7.70667Z" fill="white"/>
</g>
<mask id="mask23_42_14407" style="mask-type:luminance" maskUnits="userSpaceOnUse" x="0" y="0" width="120" height="41">
<path d="M119.582 0.404846H0.427734V40.4077H119.582V0.404846Z" fill="white"/>
</mask>
<g mask="url(#mask23_42_14407)">
<path fill-rule="evenodd" clip-rule="evenodd" d="M24.4982 7.73868H14.606C9.94214 7.73868 8.23584 9.64811 8.23584 14.8672V25.945C8.23584 31.1639 9.94214 33.0735 14.606 33.0735H24.4982C29.162 33.0735 30.8707 31.1639 30.8707 25.945V14.8672C30.8755 9.64821 29.1692 7.73868 24.4982 7.73868Z" fill="#C8102E"/>
</g>
<mask id="mask24_42_14407" style="mask-type:luminance" maskUnits="userSpaceOnUse" x="0" y="0" width="120" height="41">
<path d="M119.582 0.404846H0.427734V40.4077H119.582V0.404846Z" fill="white"/>
</mask>
<g mask="url(#mask24_42_14407)">
<path d="M12.7173 20.4063H13.3178V23.7212H12.7173V22.3744H11.3613V23.7212H10.7607V20.4063H11.3613V21.7397H12.7173V20.4063ZM16.1014 22.3024C16.1014 22.8357 15.863 23.1292 15.4293 23.1292C14.9956 23.1292 14.7525 22.8357 14.7525 22.2731V20.4063H14.152V22.2997C14.152 23.2305 14.6143 23.7638 15.4198 23.7638C16.2253 23.7638 16.7019 23.2305 16.7019 22.2704V20.4063H16.1014V22.3024ZM23.0411 22.6837L22.369 20.4063H21.8757L21.2085 22.6864L20.5531 20.4063H19.9144L20.9463 23.7212H21.4444L22.1141 21.5451L22.7861 23.7212H23.289L24.3208 20.4063H23.6965L23.0411 22.6837ZM25.3957 22.2917H26.4895V21.6917H25.3957V21.0143H26.9828V20.4063H24.8047V23.7132H27.04V23.1158H25.3957V22.2917ZM27.755 23.7132H28.3484V20.4063H27.755V23.7132ZM17.8887 23.0278L17.6195 23.7158H17.0069L18.301 20.4063H18.8301L20.1289 23.7158H19.5093L19.2543 23.0305L17.8887 23.0278ZM18.1128 22.4304H19.0159L18.5632 21.2463L18.1128 22.4304Z" fill="white"/>
</g>
<mask id="mask25_42_14407" style="mask-type:luminance" maskUnits="userSpaceOnUse" x="0" y="0" width="120" height="41">
<path d="M119.582 0.404846H0.427734V40.4077H119.582V0.404846Z" fill="white"/>
</mask>
<g mask="url(#mask25_42_14407)">
<path d="M19.5549 16.19C18.5557 16.1893 17.5978 15.7448 16.8913 14.9543C16.1849 14.1637 15.7877 13.0917 15.7871 11.9737H16.3185C16.3185 12.9341 16.6595 13.8553 17.2664 14.5346C17.8733 15.2137 18.6965 15.5952 19.5549 15.5952C20.4132 15.5952 21.2363 15.2137 21.8432 14.5346C22.4502 13.8553 22.7912 12.9341 22.7912 11.9737H23.3226C23.322 13.0917 22.9248 14.1637 22.2184 14.9543C21.5119 15.7448 20.5539 16.1893 19.5549 16.19Z" fill="white"/>
</g>
</g>
<defs>
<clipPath id="clip0_42_14407">
<rect width="120" height="40" fill="white" transform="translate(0 0.404846)"/>
</clipPath>
</defs>
</svg>
