<svg xmlns="http://www.w3.org/2000/svg" xmlns:xlink="http://www.w3.org/1999/xlink" width="129.102" height="137.331" viewBox="0 0 129.102 137.331">
  <defs>
    <linearGradient id="linear-gradient" x1="1.189" y1="-0.168" x2="0.122" y2="1.213" gradientUnits="objectBoundingBox">
      <stop offset="0" stop-color="#22907d"/>
      <stop offset="1" stop-color="#11483f"/>
    </linearGradient>
  </defs>
  <g id="idea" transform="translate(-15.337 0.002)">
    <g id="Group_38779" data-name="Group 38779" transform="translate(15.337 0)">
      <path id="Union_4" data-name="Union 4" d="M-17013.2-922.667a8.144,8.144,0,0,1-8.123-7.719,6.3,6.3,0,0,1-5.4-6.227,6.262,6.262,0,0,1,1.689-4.28,6.262,6.262,0,0,1-1.689-4.28,6.262,6.262,0,0,1,1.689-4.28,6.262,6.262,0,0,1-1.689-4.28,6.274,6.274,0,0,1,2.471-4.992,51.755,51.755,0,0,0-9.447-14.636,43.426,43.426,0,0,1-11.3-26.6,2.011,2.011,0,0,1,1.887-2.131,2.01,2.01,0,0,1,2.127,1.887,39.388,39.388,0,0,0,10.258,24.126,55.923,55.923,0,0,1,10.3,16.056h1.768v-2.264a5.315,5.315,0,0,1,5.309-5.309h2.607v-2.89c0-3.945-1.779-5.06-9.846-21.12a2.181,2.181,0,0,1,1.783-3.221,5.616,5.616,0,0,1,4.289,2.063c.686.7.883.849,1.41.849s.725-.15,1.406-.849c2.771-2.835,5.906-2.732,8.576,0,.684.7.881.849,1.408.849s.725-.15,1.41-.849c2.766-2.835,5.9-2.732,8.572,0,.686.7.883.849,1.416.849s.725-.15,1.41-.849a5.613,5.613,0,0,1,4.283-2.063,2.175,2.175,0,0,1,1.785,3.221c-7.963,15.863-9.846,17.162-9.846,21.12v2.89h2.607a5.32,5.32,0,0,1,5.313,5.309v2.264h1.783a56.5,56.5,0,0,1,10.34-16.116,39.336,39.336,0,0,0-1.355-54.432,39.229,39.229,0,0,0-37.5-10.181,2.01,2.01,0,0,1-2.447-1.445,2.011,2.011,0,0,1,1.445-2.453,43.225,43.225,0,0,1,41.344,11.227,43.362,43.362,0,0,1,1.488,59.995,52.393,52.393,0,0,0-9.494,14.718,6.29,6.29,0,0,1,2.451,4.979,6.284,6.284,0,0,1-1.684,4.28,6.284,6.284,0,0,1,1.684,4.28,6.284,6.284,0,0,1-1.684,4.28,6.284,6.284,0,0,1,1.684,4.28,6.3,6.3,0,0,1-5.4,6.227,8.14,8.14,0,0,1-8.121,7.719Zm0-4.023h22.969a4.117,4.117,0,0,0,4.078-3.632h-31.125A4.117,4.117,0,0,0-17013.2-926.69Zm-9.494-9.923a2.268,2.268,0,0,0,2.264,2.269h37.424a2.273,2.273,0,0,0,2.27-2.269,2.276,2.276,0,0,0-2.27-2.269h-37.424A2.271,2.271,0,0,0-17022.7-936.613Zm0-8.56a2.268,2.268,0,0,0,2.264,2.269h37.424a2.273,2.273,0,0,0,2.27-2.269,2.273,2.273,0,0,0-2.27-2.269h-24.074a2.011,2.011,0,0,1-2.012-2.011,2.011,2.011,0,0,1,2.012-2.011h24.074a2.273,2.273,0,0,0,2.27-2.269,2.273,2.273,0,0,0-2.27-2.269h-37.424a2.268,2.268,0,0,0-2.264,2.269,2.268,2.268,0,0,0,2.264,2.269h3.945a2.011,2.011,0,0,1,2.012,2.011,2.011,2.011,0,0,1-2.012,2.011h-3.945A2.271,2.271,0,0,0-17022.7-945.173Zm8.053-17.115v2.264h25.846v-2.264a1.282,1.282,0,0,0-1.281-1.282h-23.277A1.287,1.287,0,0,0-17014.643-962.288Zm7.916-8.2v2.89h10.014v-2.89c0-5.288,2.693-7.715,7.432-17.5-2.385.45-3.92-.523-5.33-1.964-.686-.7-.883-.853-1.41-.853s-.725.15-1.412.853c-2.766,2.83-5.9,2.732-8.572,0-.686-.7-.883-.853-1.41-.853s-.725.15-1.412.853a5.532,5.532,0,0,1-5.33,1.964C-17009.414-978.2-17006.727-975.775-17006.727-970.487Zm-22.23-27.373-15.229-11.287a.418.418,0,0,0-.256-.086h-31.838a11.184,11.184,0,0,1-11.172-11.171v-28.423a11.187,11.187,0,0,1,11.172-11.171h46.533a11.187,11.187,0,0,1,11.172,11.171v28.423a11.188,11.188,0,0,1-9.5,11.047l2.969,8.688a2.488,2.488,0,0,1-.889,2.817,2.478,2.478,0,0,1-1.471.485A2.506,2.506,0,0,1-17028.957-997.86Zm-54.471-50.967v28.423a7.157,7.157,0,0,0,7.148,7.149h31.838a4.491,4.491,0,0,1,2.654.879l11.277,8.358-1.887-5.532a2.8,2.8,0,0,1,.373-2.534,2.805,2.805,0,0,1,2.277-1.171,7.157,7.157,0,0,0,7.148-7.149v-28.423a7.154,7.154,0,0,0-7.148-7.144h-46.533A7.154,7.154,0,0,0-17083.428-1048.827Zm9.727,25.018a2.011,2.011,0,0,1-2.012-2.011,2.011,2.011,0,0,1,2.012-2.011h41.377a2.014,2.014,0,0,1,2.012,2.011,2.014,2.014,0,0,1-2.012,2.011Zm0-10.013a2.011,2.011,0,0,1-2.012-2.011,2.011,2.011,0,0,1,2.012-2.011h41.377a2.014,2.014,0,0,1,2.012,2.011,2.014,2.014,0,0,1-2.012,2.011Zm17.359-10.009a2.012,2.012,0,0,1-2.012-2.016,2.011,2.011,0,0,1,2.012-2.011h24.018a2.014,2.014,0,0,1,2.012,2.011,2.015,2.015,0,0,1-2.012,2.016Z" transform="translate(17087.451 1059.997)" fill="url(#linear-gradient)"/>
    </g>
  </g>
</svg>
