<svg width="18" height="18" viewBox="0 0 18 18" fill="none" xmlns="http://www.w3.org/2000/svg">
<path fill-rule="evenodd" clip-rule="evenodd" d="M4.62492 9.14372C4.62492 6.72747 6.58367 4.76872 8.99992 4.76872C11.4162 4.76872 13.3749 6.72747 13.3749 9.14372C13.3749 11.56 11.4162 13.5187 8.99992 13.5187C6.58367 13.5187 4.62492 11.56 4.62492 9.14372ZM8.99992 6.01872C7.27403 6.01872 5.87492 7.41783 5.87492 9.14372C5.87492 10.8696 7.27403 12.2687 8.99992 12.2687C10.7258 12.2687 12.1249 10.8696 12.1249 9.14372C12.1249 7.41783 10.7258 6.01872 8.99992 6.01872Z" fill="white"/>
<path d="M13.5898 5.39372C14.05 5.39372 14.4231 5.02062 14.4231 4.56038C14.4231 4.10015 14.05 3.72705 13.5898 3.72705H13.5823C13.122 3.72705 12.7489 4.10015 12.7489 4.56038C12.7489 5.02062 13.122 5.39372 13.5823 5.39372H13.5898Z" fill="white"/>
<path fill-rule="evenodd" clip-rule="evenodd" d="M9.04756 0.602051C10.8731 0.60204 12.3071 0.602032 13.4266 0.752546C14.5738 0.906785 15.484 1.22931 16.1992 1.94448C16.9143 2.65964 17.2369 3.56985 17.3911 4.71707C17.5416 5.83658 17.5416 7.27047 17.5416 9.09605V9.19136C17.5416 11.0169 17.5416 12.4509 17.3911 13.5704C17.2369 14.7176 16.9143 15.6278 16.1992 16.343C15.484 17.0581 14.5738 17.3806 13.4266 17.5349C12.3071 17.6854 10.8732 17.6854 9.04759 17.6854H8.95228C7.1267 17.6854 5.69278 17.6854 4.57327 17.5349C3.42606 17.3806 2.51585 17.0581 1.80068 16.343C1.08551 15.6278 0.762986 14.7176 0.608747 13.5704C0.458232 12.4508 0.458241 11.0169 0.458252 9.19136L0.458252 9.09607C0.458241 7.27048 0.458232 5.83658 0.608747 4.71707C0.762986 3.56986 1.08551 2.65964 1.80068 1.94448C2.51585 1.22931 3.42606 0.906785 4.57327 0.752546C5.69278 0.602032 7.12667 0.60204 8.95224 0.602051H9.04756ZM4.73983 1.9914C3.73123 2.127 3.12877 2.38416 2.68456 2.82836C2.24036 3.27257 1.9832 3.87503 1.8476 4.88363C1.70958 5.91021 1.70825 7.26007 1.70825 9.14372C1.70825 11.0274 1.70958 12.3772 1.8476 13.4038C1.9832 14.4124 2.24036 15.0149 2.68456 15.4591C3.12877 15.9033 3.73123 16.1604 4.73983 16.296C5.76641 16.4341 7.11627 16.4354 8.99992 16.4354C10.8836 16.4354 12.2334 16.4341 13.26 16.296C14.2686 16.1604 14.8711 15.9033 15.3153 15.4591C15.7595 15.0149 16.0166 14.4124 16.1522 13.4038C16.2903 12.3772 16.2916 11.0274 16.2916 9.14372C16.2916 7.26007 16.2903 5.91021 16.1522 4.88363C16.0166 3.87503 15.7595 3.27257 15.3153 2.82836C14.8711 2.38416 14.2686 2.127 13.26 1.9914C12.2334 1.85338 10.8836 1.85205 8.99992 1.85205C7.11627 1.85205 5.76641 1.85338 4.73983 1.9914Z" fill="white"/>
</svg>
