<svg id="Group_23" data-name="Group 23" xmlns="http://www.w3.org/2000/svg" width="24" height="24" viewBox="0 0 24 24">
  <path id="Path_25" data-name="Path 25" d="M10.988,9.116a1.536,1.536,0,0,0,1.021.387,1.468,1.468,0,0,0,.977-.365L14.361,8h2.688V2.048A2.05,2.05,0,0,0,15,0H9.1A2.05,2.05,0,0,0,7.049,2.048V8H9.641l1.348,1.116ZM9.1,2l5.953.048V6H13.64L12,7.358,10.361,6h-1.3L9.1,2Zm9.4,4.5A2.5,2.5,0,1,1,21,9,2.5,2.5,0,0,1,18.5,6.5ZM8,13h8v2H8ZM6,13a3,3,0,0,0-6,0v4a3,3,0,0,0,3,3H7v4H9V18H6ZM4,18H3a1,1,0,0,1-1-1V13a1,1,0,0,1,2,0Zm15,4h5v2H19Zm2-12a3,3,0,0,0-3,3v5H15v6h2V20h4a3,3,0,0,0,3-3V13A3,3,0,0,0,21,10Zm1,7a1,1,0,0,1-1,1H20V13a1,1,0,0,1,2,0ZM0,22H5v2H0ZM.5,6.5A2.5,2.5,0,1,1,3,9,2.5,2.5,0,0,1,.5,6.5Z" fill="#1b8354"/>
</svg>
