<svg width="32" height="32" viewBox="0 0 32 32" fill="none" xmlns="http://www.w3.org/2000/svg">
<path fill-rule="evenodd" clip-rule="evenodd" d="M15.1006 0.831445C15.5515 1.45769 15.6019 2.28748 15.2301 2.96369C14.4465 4.38882 14 6.02598 14 7.77343C14 13.2963 18.4772 17.7734 24 17.7734C25.7474 17.7734 27.3846 17.3269 28.8097 16.5433C29.486 16.1715 30.3157 16.2219 30.942 16.6728C31.5682 17.1237 31.8792 17.8947 31.7411 18.6539C30.3834 26.1158 23.8545 31.7734 16 31.7734C7.16345 31.7734 0 24.61 0 15.7734C0 7.91896 5.65763 1.39008 13.1195 0.0323726C13.8787 -0.105769 14.6497 0.205199 15.1006 0.831445ZM10.2271 5.2501C6.51549 7.2909 4 11.2396 4 15.7734C4 22.4008 9.37258 27.7734 16 27.7734C20.5338 27.7734 24.4825 25.2579 26.5233 21.5463C25.7043 21.6955 24.8609 21.7734 24 21.7734C16.268 21.7734 10 15.5054 10 7.77343C10 6.91256 10.0779 6.06914 10.2271 5.2501Z" fill="#0E382D"/>
</svg>
