<svg xmlns="http://www.w3.org/2000/svg" width="23.998" height="23.983" viewBox="0 0 23.998 23.983">
  <g id="Group_20" data-name="Group 20" transform="translate(0 -0.017)">
    <path id="Path_22" data-name="Path 22" d="M23.7,10.806a1,1,0,0,0-1.414,0l-.549.549L12.659,2.273l.549-.549A1,1,0,1,0,11.794.31l-7,7A1,1,0,1,0,6.208,8.724l.581-.581,3.827,3.827L.293,22.293a1,1,0,0,0,1.414,1.414L12.03,13.384l3.841,3.841-.58.58A1,1,0,0,0,16.7,19.219l7-7a1,1,0,0,0,0-1.414Zm-9.088,2.337L10.944,9.471l3.042-3.042L17.658,10.1l-3.042,3.042ZM11.245,3.687l1.327,1.327L9.53,8.056,8.2,6.729l3.042-3.042Zm4.786,10.87,3.042-3.042,1.254,1.254-3.042,3.042Z" fill="#1b8354"/>
  </g>
</svg>
