<svg width="20" height="20" viewBox="0 0 20 20" fill="none" xmlns="http://www.w3.org/2000/svg">
<path fill-rule="evenodd" clip-rule="evenodd" d="M1.0415 9.99935C1.0415 14.9393 5.05984 18.9577 9.99984 18.9577C14.9398 18.9577 18.9582 14.9393 18.9582 9.99935C18.9582 5.05946 14.94 1.04119 10.0002 1.04102C5.06017 1.04102 1.0415 5.05935 1.0415 9.99935ZM17.4775 8.12435C17.6282 8.72478 17.7082 9.35291 17.7082 9.99935C17.7082 10.6458 17.6282 11.2739 17.4775 11.8743H13.812C13.9056 11.2793 13.959 10.6532 13.959 9.99912C13.959 9.34525 13.9056 8.71931 13.8121 8.12435H17.4775ZM17.046 6.87435L13.5486 6.87435C13.0327 4.92702 12.1302 3.39832 11.4297 2.42399C13.9441 2.89763 16.0316 4.59652 17.046 6.87435ZM12.5407 8.12435C12.6466 8.71707 12.7082 9.34355 12.7082 9.99912C12.7082 10.6548 12.6466 11.2815 12.5406 11.8743L7.45905 11.8743C7.35309 11.2815 7.2915 10.6549 7.2915 9.99912C7.2915 9.34358 7.35306 8.71709 7.45896 8.12435L12.5407 8.12435ZM7.75737 6.87435L12.2423 6.87435C11.6382 4.856 10.5921 3.35622 9.99984 2.61826C9.40752 3.35568 8.36143 4.85572 7.75737 6.87435ZM6.1884 8.12435C6.09485 8.71931 6.0415 9.34525 6.0415 9.99912C6.0415 10.6532 6.09489 11.2793 6.18851 11.8743L2.52215 11.8743C2.37152 11.2739 2.2915 10.6458 2.2915 9.99935C2.2915 9.35291 2.37152 8.72478 2.52215 8.12435H6.1884ZM2.95372 6.87435H6.45187C6.96759 4.92695 7.87 3.39822 8.57054 2.42389C6.05588 2.89739 3.96811 4.59636 2.95372 6.87435ZM11.4297 17.5747C13.9441 17.101 16.0316 15.4022 17.046 13.1243H13.5485C13.0327 15.0718 12.1302 16.6005 11.4297 17.5747ZM9.99984 17.38C10.5921 16.6426 11.6381 15.1427 12.2422 13.1243L7.75756 13.1243C8.36165 15.1425 9.40758 16.6421 9.99984 17.38ZM8.57135 17.575C7.87079 16.6007 6.96804 15.0719 6.45208 13.1243L2.95372 13.1243C3.96822 15.4026 6.05632 17.1017 8.57135 17.575Z" fill="white"/>
</svg>
