<svg width="22" height="22" viewBox="0 0 22 22" fill="none" xmlns="http://www.w3.org/2000/svg">
<path fill-rule="evenodd" clip-rule="evenodd" d="M0.25 11C0.25 16.928 5.072 21.75 11 21.75C16.928 21.75 21.75 16.928 21.75 11C21.75 5.07213 16.9282 0.250214 11.0004 0.25C5.0724 0.25 0.25 5.072 0.25 11ZM19.9732 8.75C20.154 9.47051 20.25 10.2243 20.25 11C20.25 11.7757 20.154 12.5295 19.9732 13.25L15.5746 13.25C15.687 12.5359 15.751 11.7846 15.751 10.9997C15.751 10.2151 15.687 9.46395 15.5747 8.75L19.9732 8.75ZM19.4553 7.25L15.2585 7.25C14.6395 4.91321 13.5564 3.07877 12.7158 1.90957C15.7331 2.47793 18.2382 4.51661 19.4553 7.25ZM14.049 8.75C14.1761 9.46126 14.25 10.213 14.25 10.9997C14.25 11.7866 14.1761 12.5386 14.049 13.25L7.95105 13.25C7.82391 12.5386 7.75 11.7866 7.75 10.9997C7.75 10.2131 7.82386 9.46129 7.95094 8.75L14.049 8.75ZM8.30904 7.25L13.6909 7.25C12.966 4.82798 11.7108 3.02825 11 2.1427C10.2892 3.02759 9.03391 4.82765 8.30904 7.25ZM6.42628 8.75C6.31401 9.46395 6.25 10.2151 6.25 10.9997C6.25 11.7846 6.31406 12.5359 6.4264 13.25L2.02678 13.25C1.84601 12.5295 1.75 11.7757 1.75 11C1.75 10.2243 1.84601 9.47051 2.02678 8.75L6.42628 8.75ZM2.54465 7.25L6.74243 7.25C7.3613 4.91313 8.44419 3.07864 9.28485 1.90945C6.26725 2.47764 3.76193 4.51642 2.54465 7.25ZM12.7159 20.0904C15.7331 19.522 18.2382 17.4834 19.4553 14.75L15.2584 14.75C14.6395 17.0869 13.5565 18.9213 12.7159 20.0904ZM11 19.8568C11.7107 18.9719 12.9659 17.1721 13.6908 14.75L8.30927 14.75C9.03417 17.1717 10.2893 18.9713 11 19.8568ZM9.28581 20.0907C8.44515 18.9217 7.36184 17.0871 6.74269 14.75L2.54465 14.75C3.76206 17.4839 6.26778 19.5228 9.28581 20.0907Z" fill="#1B8354"/>
</svg>
