<svg width="8" height="12" viewBox="0 0 8 12" fill="none" xmlns="http://www.w3.org/2000/svg">
<path d="M6.87059 1.5031C6.73612 1.60467 6.33466 1.90793 6.10324 2.08853C5.63973 2.45026 5.02382 2.94452 4.40974 3.47769C3.79256 4.01356 3.19148 4.57648 2.74961 5.07658C2.52805 5.32734 2.35969 5.54762 2.25011 5.72939C2.14704 5.90035 2.12561 6.00134 2.12561 6.00134C2.12561 6.00134 2.14704 6.09936 2.2501 6.27031C2.35968 6.45209 2.52804 6.67237 2.74961 6.92313C3.19148 7.42322 3.79256 7.98615 4.40975 8.52201C5.02383 9.05518 5.63975 9.54944 6.10327 9.91117C6.33469 10.0918 6.73558 10.3946 6.87006 10.4962C7.14799 10.7009 7.20794 11.0925 7.00325 11.3705C6.79855 11.6484 6.40731 11.7078 6.12937 11.5031L6.12737 11.5016C5.98644 11.3951 5.57043 11.0809 5.33423 10.8966C4.86025 10.5267 4.22616 10.018 3.59024 9.46589C2.95743 8.91646 2.30851 8.31173 1.81288 7.7508C1.5657 7.47105 1.34344 7.18747 1.17958 6.91567C1.02607 6.66102 0.874997 6.33861 0.875 5.99985C0.875003 5.66109 1.02607 5.33868 1.17959 5.08404C1.34344 4.81223 1.5657 4.52866 1.81288 4.24891C2.30851 3.68798 2.95742 3.08325 3.59023 2.53382C4.22614 1.98169 4.86022 1.473 5.3342 1.1031C5.57053 0.918666 5.98648 0.604494 6.12717 0.498226L6.12893 0.4969C6.40686 0.292204 6.79851 0.351284 7.00321 0.629218C7.20789 0.907144 7.14851 1.2984 6.87059 1.5031Z" fill="#161616"/>
</svg>
