<svg width="18" height="18" viewBox="0 0 18 18" fill="none" xmlns="http://www.w3.org/2000/svg">
<path d="M5.45825 7.47705C5.45825 7.13187 5.17843 6.85205 4.83325 6.85205C4.48807 6.85205 4.20825 7.13187 4.20825 7.47705L4.20825 13.3104C4.20825 13.6556 4.48807 13.9354 4.83325 13.9354C5.17843 13.9354 5.45825 13.6556 5.45825 13.3104L5.45825 7.47705Z" fill="white"/>
<path d="M8.16659 6.85205C8.51169 6.85205 8.79146 7.13175 8.79159 7.47682C9.31387 7.08452 9.96308 6.85205 10.6666 6.85205C12.3925 6.85205 13.7916 8.25116 13.7916 9.97705L13.7916 13.3104C13.7916 13.6556 13.5118 13.9354 13.1666 13.9354C12.8214 13.9354 12.5416 13.6556 12.5416 13.3104L12.5416 9.97705C12.5416 8.94152 11.7021 8.10205 10.6666 8.10205C9.63105 8.10205 8.79159 8.94152 8.79159 9.97705L8.79159 13.3104C8.79159 13.6556 8.51176 13.9354 8.16659 13.9354C7.82141 13.9354 7.54159 13.6556 7.54159 13.3104L7.54159 7.47705C7.54159 7.13187 7.82141 6.85205 8.16659 6.85205Z" fill="white"/>
<path d="M5.6733 4.97705C5.6733 5.43729 5.3002 5.81038 4.83997 5.81038H4.83248C4.37224 5.81038 3.99915 5.43729 3.99915 4.97705C3.99915 4.51681 4.37224 4.14372 4.83248 4.14372H4.83997C5.3002 4.14372 5.6733 4.51681 5.6733 4.97705Z" fill="white"/>
<path fill-rule="evenodd" clip-rule="evenodd" d="M9.04759 0.602051H8.95227C7.1267 0.60204 5.69278 0.602032 4.57327 0.752546C3.42606 0.906785 2.51585 1.22931 1.80068 1.94448C1.08551 2.65964 0.762986 3.56986 0.608747 4.71707C0.458232 5.83658 0.458241 7.27048 0.458252 9.09607L0.458252 9.19136C0.458241 11.0169 0.458232 12.4508 0.608747 13.5704C0.762986 14.7176 1.08551 15.6278 1.80068 16.343C2.51585 17.0581 3.42606 17.3806 4.57327 17.5349C5.69278 17.6854 7.12667 17.6854 8.95225 17.6854H9.04756C10.8731 17.6854 12.3071 17.6854 13.4266 17.5349C14.5738 17.3806 15.484 17.0581 16.1992 16.343C16.9143 15.6278 17.2369 14.7176 17.3911 13.5704C17.5416 12.4509 17.5416 11.017 17.5416 9.19138V9.09608C17.5416 7.2705 17.5416 5.83658 17.3911 4.71707C17.2369 3.56985 16.9143 2.65964 16.1992 1.94448C15.484 1.22931 14.5738 0.906785 13.4266 0.752546C12.3071 0.602032 10.8732 0.60204 9.04759 0.602051ZM2.68456 2.82836C3.12877 2.38416 3.73123 2.127 4.73983 1.9914C5.76641 1.85338 7.11627 1.85205 8.99992 1.85205C10.8836 1.85205 12.2334 1.85338 13.26 1.9914C14.2686 2.127 14.8711 2.38416 15.3153 2.82836C15.7595 3.27257 16.0166 3.87503 16.1522 4.88363C16.2903 5.91021 16.2916 7.26007 16.2916 9.14372C16.2916 11.0274 16.2903 12.3772 16.1522 13.4038C16.0166 14.4124 15.7595 15.0149 15.3153 15.4591C14.8711 15.9033 14.2686 16.1604 13.26 16.296C12.2334 16.4341 10.8836 16.4354 8.99992 16.4354C7.11627 16.4354 5.76641 16.4341 4.73983 16.296C3.73123 16.1604 3.12877 15.9033 2.68456 15.4591C2.24036 15.0149 1.9832 14.4124 1.8476 13.4038C1.70958 12.3772 1.70825 11.0274 1.70825 9.14372C1.70825 7.26007 1.70958 5.91021 1.8476 4.88363C1.9832 3.87503 2.24036 3.27257 2.68456 2.82836Z" fill="white"/>
</svg>
