<svg width="16" height="14" viewBox="0 0 16 14" fill="none" xmlns="http://www.w3.org/2000/svg">
<path d="M1.58301 0.125C1.23783 0.125 0.958008 0.404822 0.958008 0.75C0.958008 1.09518 1.23783 1.375 1.58301 1.375L14.9163 1.375C15.2615 1.375 15.5413 1.09518 15.5413 0.750001C15.5413 0.404823 15.2615 0.125 14.9163 0.125H1.58301Z" fill="#067647"/>
<path d="M1.58301 8.45833C1.23783 8.45833 0.958008 8.73816 0.958008 9.08333C0.958008 9.42851 1.23783 9.70833 1.58301 9.70833L14.9163 9.70834C15.2615 9.70834 15.5413 9.42851 15.5413 9.08334C15.5413 8.73816 15.2615 8.45834 14.9163 8.45834L1.58301 8.45833Z" fill="#067647"/>
<path d="M0.958008 4.91667C0.958008 4.57149 1.23783 4.29167 1.58301 4.29167L14.9163 4.29167C15.2615 4.29167 15.5413 4.57149 15.5413 4.91667C15.5413 5.26185 15.2615 5.54167 14.9163 5.54167L1.58301 5.54167C1.23783 5.54167 0.958008 5.26184 0.958008 4.91667Z" fill="#067647"/>
<path d="M1.58301 12.625C1.23783 12.625 0.958008 12.9048 0.958008 13.25C0.958008 13.5952 1.23783 13.875 1.58301 13.875L14.9163 13.875C15.2615 13.875 15.5413 13.5952 15.5413 13.25C15.5413 12.9048 15.2615 12.625 14.9163 12.625L1.58301 12.625Z" fill="#067647"/>
</svg>
