<svg xmlns="http://www.w3.org/2000/svg" width="40.125" height="84.717" viewBox="0 0 40.125 84.717">
  <g id="loader-img" transform="translate(0 0)">
    <g id="Group_3" data-name="Group 3" transform="translate(0 18.652)" opacity="0.85">
      <path id="Path_1" data-name="Path 1" d="M1247.458,405.1q1.743-3.231,3.248-6.531-1.125-3.175-2.463-6.317A16.953,16.953,0,0,1,1247.458,405.1Z" transform="translate(-1210.581 -373.301)" fill="none"/>
      <path id="Path_2" data-name="Path 2" d="M1156.237,545.674l-.028-.054.023.059Z" transform="translate(-1147.328 -479.613)" fill="none"/>
      <path id="Path_3" data-name="Path 3" d="M1216.231,330.478l-.149.108c1.88,2.74,3.737,5.644,5.424,8.6Q1219.086,334.78,1216.231,330.478Z" transform="translate(-1188.832 -330.478)" fill="none"/>
      <path id="Path_4" data-name="Path 4" d="M1216.912,436.108a149.828,149.828,0,0,1-13.045,18.968A115.534,115.534,0,0,0,1216.912,436.108Z" transform="translate(-1180.364 -403.7)" fill="none"/>
      <path id="Path_5" data-name="Path 5" d="M1131.439,443.9a100.43,100.43,0,0,1-4.169-27.262A84.864,84.864,0,0,0,1131.439,443.9Z" transform="translate(-1127.263 -390.204)" fill="none"/>
      <path id="Path_6" data-name="Path 6" d="M1150.782,382.1a149.827,149.827,0,0,0,13.045-18.968q.165-.3.328-.606a16.954,16.954,0,0,0,.785-12.848q-2.2-5.178-4.987-10.245c-1.687-2.957-3.544-5.861-5.424-8.6a84.7,84.7,0,0,1-13.681,7.957c-.589.274-1.132.516-1.641.735a38.58,38.58,0,0,1,19.414,10.8l-.023.044a72.586,72.586,0,0,0-17.9-2.652,26.33,26.33,0,0,1,5.363,14.466l-.048.03a48.754,48.754,0,0,0-9.2-7.813,27.189,27.189,0,0,1-.7,11.365l-.055.019a40.967,40.967,0,0,0-8.614-12.889q-.137,2.127-.165,4.259a100.435,100.435,0,0,0,4.169,27.262c.159.491.32.981.487,1.47,11.125-6.374,30.182-28.292,30.182-28.292-4.813,12.2-23.175,31.21-27.408,35.494.495,1.21.979,2.423,1.443,3.638l.028.054A128.824,128.824,0,0,0,1150.782,382.1Z" transform="translate(-1127.279 -330.722)" fill="#204e84"/>
    </g>
    <g id="Group_4" data-name="Group 4" transform="translate(0.007 18.76)">
      <path id="Path_7" data-name="Path 7" d="M1136.337,414.852c-.068.26-.14.518-.217.772l-.055.019a40.967,40.967,0,0,0-8.614-12.889q-.137,2.127-.165,4.259a100.435,100.435,0,0,0,4.169,27.262c.159.491.32.981.487,1.47,4.928-2.823,11.411-8.7,17.106-14.363A16.334,16.334,0,0,1,1136.337,414.852Z" transform="translate(-1127.286 -380.688)" fill="#204e84"/>
      <path id="Path_8" data-name="Path 8" d="M1181.729,349.676q-2.2-5.178-4.987-10.245c-1.687-2.957-3.544-5.861-5.424-8.6a84.685,84.685,0,0,1-13.681,7.957c-.589.274-1.132.516-1.64.735q1.609.387,3.164.881a16.363,16.363,0,1,1,11.771,30.434,233.839,233.839,0,0,1-19.426,22.254c.495,1.21.979,2.423,1.443,3.638l.028.054a128.815,128.815,0,0,0,14.594-14.685,149.8,149.8,0,0,0,13.045-18.968q.166-.3.329-.606A16.954,16.954,0,0,0,1181.729,349.676Z" transform="translate(-1144.075 -330.83)" fill="#204e84"/>
    </g>
    <path id="Path_9" data-name="Path 9" d="M1161.017,301.644a152.589,152.589,0,0,1,15.293-3.4,129.226,129.226,0,0,0-8.61-11.183A40.67,40.67,0,0,1,1161.017,301.644Z" transform="translate(-1150.661 -281.728)" fill="#e07b2c"/>
    <path id="Path_10" data-name="Path 10" d="M1151.411,269.685q-1.084,2.136-2.238,4.252a91.058,91.058,0,0,0-4.688,9.991,74.961,74.961,0,0,0,10.312-10.555C1153.695,272.135,1152.574,270.9,1151.411,269.685Z" transform="translate(-1139.201 -269.685)" fill="#19a66e"/>
  </g>
</svg>
