<svg width="20" height="22" viewBox="0 0 20 22" fill="none" xmlns="http://www.w3.org/2000/svg">
<path fill-rule="evenodd" clip-rule="evenodd" d="M6.98584 14.5111C7.13784 14.6211 7.38784 14.7481 7.73584 14.7481L7.73486 14.747C8.02086 14.747 8.37187 14.662 8.78887 14.414L9.96787 13.714C9.98487 13.712 10.0108 13.711 10.0278 13.714L11.2079 14.4151C12.1369 14.9661 12.7378 14.7121 13.0128 14.5111C13.2888 14.3091 13.7158 13.813 13.4728 12.751L13.1938 11.542C13.1948 11.523 13.2029 11.492 13.2119 11.475L14.1889 10.4901C14.6739 10.0031 14.8559 9.42307 14.6889 8.89807C14.5219 8.37407 14.0389 8.00706 13.3599 7.89006L12.1128 7.68499C12.0938 7.67599 12.0678 7.65702 12.0528 7.64202L11.3619 6.24807C11.0499 5.61707 10.5539 5.25405 9.99985 5.25305H9.99687C9.44387 5.25305 8.94583 5.614 8.62983 6.247L7.93784 7.64202C7.92384 7.65602 7.89685 7.67599 7.87885 7.68499L6.63086 7.89006C5.95986 8.00606 5.47784 8.37107 5.31084 8.89407C5.14284 9.41807 5.32383 9.99904 5.80683 10.487L6.78486 11.474C6.79386 11.491 6.80183 11.522 6.80283 11.541L6.52285 12.752C6.28085 13.813 6.70884 14.3101 6.98584 14.5111ZM6.82661 9.38188C6.84039 9.39762 6.85518 9.41439 6.87285 9.43206L7.86386 10.4321C8.20986 10.7821 8.37687 11.364 8.27187 11.849C8.27187 11.852 8.27087 11.856 8.26987 11.859L7.98584 13.089C7.98371 13.0992 7.9816 13.109 7.97956 13.1185C7.97679 13.1313 7.97417 13.1435 7.97187 13.155C7.97871 13.1512 7.98573 13.1471 7.99293 13.143C8.00257 13.1375 8.01254 13.1317 8.02285 13.126L9.21987 12.4151C9.67587 12.1461 10.3318 12.147 10.7818 12.417L11.9739 13.125C11.99 13.1349 12.006 13.1439 12.0207 13.1521L12.0258 13.155C12.0228 13.1392 12.0193 13.1223 12.0156 13.1047C12.0143 13.0989 12.0131 13.093 12.0119 13.087L11.7278 11.859C11.7278 11.859 11.7258 11.852 11.7258 11.849C11.6208 11.364 11.7889 10.782 12.1329 10.433L13.1258 9.43206C13.1387 9.41915 13.1501 9.40676 13.1607 9.39525C13.1648 9.39071 13.1689 9.3863 13.1728 9.38206C13.1705 9.38153 13.168 9.38098 13.1656 9.38042C13.1493 9.37677 13.131 9.37265 13.1119 9.37004L11.8409 9.16106L11.8258 9.15803C11.3798 9.07503 10.9269 8.73799 10.7249 8.33899L10.0179 6.91399C10.0109 6.89799 10.0039 6.884 9.99687 6.872C9.98987 6.885 9.98187 6.90004 9.97388 6.91604L9.27085 8.33401C9.06685 8.73801 8.61687 9.07403 8.17387 9.15803C8.16787 9.15903 8.16183 9.16006 8.15683 9.16106L6.88086 9.37102C6.8741 9.37237 6.86758 9.37361 6.86124 9.37482C6.84909 9.37713 6.83763 9.37931 6.82661 9.38188Z" fill="#1B8354"/>
<path fill-rule="evenodd" clip-rule="evenodd" d="M8.70298 21.412C9.09198 21.633 9.541 21.75 10 21.75C10.459 21.75 10.908 21.633 11.297 21.412L11.319 21.399C16.992 17.916 19.75 14.164 19.75 9.92998C19.75 7.36598 18.722 4.93804 16.854 3.09404C14.996 1.26004 12.562 0.25 10 0.25C7.438 0.25 5.004 1.26004 3.146 3.09404C1.279 4.93804 0.25 7.36498 0.25 9.92998C0.25 15.522 5.05998 19.153 8.67798 21.397L8.70298 21.412ZM10.547 20.114C10.223 20.292 9.778 20.293 9.454 20.114V20.115C6.143 18.059 1.75 14.769 1.75 9.93096C1.75 5.49696 5.528 1.75098 10 1.75098C14.472 1.75098 18.25 5.49696 18.25 9.93096C18.25 13.597 15.73 16.928 10.547 20.114Z" fill="#1B8354"/>
</svg>
