<svg width="70" height="32" viewBox="0 0 70 32" fill="none" xmlns="http://www.w3.org/2000/svg">
<path d="M1.56373 14.3453C1.37368 14.3453 1.23286 14.2044 1.23286 14.0144C1.23286 13.8243 1.37368 13.6834 1.56373 13.6834C1.75378 13.6834 1.88819 13.8243 1.88819 14.0144C1.88819 14.2044 1.75378 14.3453 1.56373 14.3453ZM2.76639 14.0144C2.76639 13.8243 2.63198 13.6834 2.44193 13.6834C2.25188 13.6834 2.11106 13.8243 2.11106 14.0144C2.11106 14.2044 2.25188 14.3453 2.44193 14.3453C2.63198 14.3453 2.76639 14.2044 2.76639 14.0144ZM5.2074 18.6115C5.01736 18.6115 4.87654 18.7524 4.87654 18.9424C4.87654 19.1325 5.01736 19.2734 5.2074 19.2734C5.39745 19.2734 5.53187 19.1325 5.53187 18.9424C5.53187 18.7524 5.39745 18.6115 5.2074 18.6115ZM4.32936 18.6115C4.13932 18.6115 3.99834 18.7524 3.99834 18.9424C3.99834 19.1325 4.13932 19.2734 4.32936 19.2734C4.51941 19.2734 4.65367 19.1325 4.65367 18.9424C4.65367 18.7524 4.51941 18.6115 4.32936 18.6115ZM4.17529 18.0414H4.0049C3.44131 18.0414 2.99234 17.966 2.78591 17.6056C2.59587 17.6908 2.27808 17.8022 1.84884 17.8022C1.16729 17.8022 0.439941 17.4712 0.439941 16.4587C0.439941 15.5577 1.02318 15.0367 1.98979 15.0367H3.26445V17.0289C3.26445 17.4581 3.48393 17.5695 4.02458 17.5695H4.08025C4.67005 17.5695 4.95845 17.3238 4.95845 16.7242V15.0334H5.52851V16.829C5.52851 17.6383 5.07636 18.0381 4.16873 18.0381M2.68448 15.4954H2.05203C1.51793 15.4954 1.00344 15.6429 1.00344 16.4522C1.00344 17.1927 1.56046 17.3041 1.89795 17.3041C2.23545 17.3041 2.51082 17.2353 2.68448 17.1272V15.4954ZM13.3696 12.9396C13.1795 12.9396 13.0386 13.0805 13.0386 13.2706C13.0386 13.4606 13.1795 13.6015 13.3696 13.6015C13.5596 13.6015 13.6939 13.4606 13.6939 13.2706C13.6939 13.0805 13.5596 12.9396 13.3696 12.9396ZM12.6029 14.0111C12.6029 14.2011 12.7437 14.342 12.9338 14.342C13.1238 14.342 13.2582 14.2011 13.2582 14.0111C13.2582 13.821 13.1238 13.6801 12.9338 13.6801C12.7437 13.6801 12.6029 13.821 12.6029 14.0111ZM13.4843 14.0111C13.4843 14.2011 13.6251 14.342 13.8152 14.342C14.0052 14.342 14.1396 14.2011 14.1396 14.0111C14.1396 13.821 14.0052 13.6801 13.8152 13.6801C13.6251 13.6801 13.4843 13.821 13.4843 14.0111ZM17.3769 18.5853C17.1869 18.5853 17.0459 18.7262 17.0459 18.9162C17.0459 19.1063 17.1869 19.2472 17.3769 19.2472C17.567 19.2472 17.7012 19.1063 17.7012 18.9162C17.7012 18.7262 17.567 18.5853 17.3769 18.5853ZM19.3396 16.7209C19.3396 17.3205 19.0513 17.5663 18.4615 17.5663C17.9766 17.5663 17.6883 17.3467 17.6883 16.8913V15.0334H17.1115V16.7242C17.1115 17.3238 16.8362 17.5695 16.2399 17.5695H16.2333C15.6697 17.5695 15.4797 17.3107 15.4797 16.829V15.0334H14.9031V16.7242C14.9031 17.042 14.8408 17.5695 14.3263 17.5695C13.9397 17.5695 13.6776 17.3369 13.6776 16.8945V15.692H13.101V16.7962C13.101 17.2124 12.9666 17.5695 12.4816 17.5695C12.095 17.5695 11.8329 17.3369 11.8329 16.8945V15.692H11.2561V16.7962C11.2561 17.2124 11.1219 17.5695 10.6369 17.5695H7.57641V15.0367H6.9998V17.9005C6.9998 18.5198 6.80977 18.7819 6.35759 18.7819C6.25274 18.7819 6.14781 18.7753 6.03968 18.7524L5.96113 19.2308C6.09547 19.2603 6.25589 19.2734 6.39023 19.2734C7.15041 19.2734 7.51095 18.8638 7.56665 18.0414H10.6991C11.3053 18.0414 11.5575 17.7661 11.6788 17.5892C11.8262 17.8644 12.1212 18.0414 12.5439 18.0414C13.15 18.0414 13.4023 17.7661 13.5235 17.5892C13.6709 17.8644 14.0085 18.0414 14.4311 18.0414C14.8899 18.0414 15.1553 17.8448 15.3028 17.5826C15.5059 17.9136 15.8925 18.0414 16.3218 18.0414H16.3283C16.905 18.0414 17.3016 17.8874 17.5113 17.5695C17.6981 17.8874 18.0617 18.0217 18.4713 18.0381C18.4975 18.0381 18.5238 18.0381 18.55 18.0381C19.4576 18.0381 19.9163 17.6383 19.9163 16.829V12.8643H19.3396V16.7209ZM21.1123 18.0381H21.689V12.8643H21.1123V18.0381Z" fill="#808285"/>
<path d="M27.0397 16.4293V16.829C27.0397 17.6449 26.686 18.0381 25.7849 18.0381H24.2842V17.5663H25.6505C26.2764 17.5663 26.4598 17.3205 26.4598 16.7209V16.5603C26.4598 15.9115 26.2206 15.5052 25.2344 15.5052H24.7266V15.0334H25.4244C26.5582 15.0334 27.0365 15.5839 27.0365 16.426M28.3931 17.8972C28.3931 18.5165 28.203 18.7786 27.7541 18.7786C27.6492 18.7786 27.5445 18.7721 27.4364 18.7491L27.3576 19.2275C27.492 19.257 27.6526 19.2701 27.7869 19.2701C28.6093 19.2701 28.9697 18.7852 28.9697 17.8186V15.0301H28.3931V17.8939V17.8972ZM30.133 18.0381H30.7096V12.8643H30.133V18.0381ZM48.728 12.8643H49.3046V16.829C49.3046 17.6383 48.8459 18.0381 47.9383 18.0381C47.4861 18.0381 47.0503 17.9267 46.8471 17.4974C46.6014 17.8579 46.2213 18.0676 45.7429 18.0676C45.3693 18.0676 44.9827 17.9398 44.5666 17.5826C44.4618 17.8284 44.2718 18.0414 43.7999 18.0414H34.4056C34.327 18.7524 33.9469 19.2734 32.9771 19.2734C32.6953 19.2734 32.3512 19.2242 32.076 19.162L32.1613 18.7098C32.3808 18.759 32.6756 18.8212 32.9508 18.8212C33.5144 18.8212 33.7963 18.582 33.829 18.0381H33.3506C31.8794 18.0381 31.555 17.3139 31.555 16.6029C31.555 15.6658 32.1744 14.9908 33.0623 14.9908C33.9503 14.9908 34.4221 15.5183 34.4221 16.3703V17.5663H43.6327C43.9211 17.5663 44.1734 17.3565 44.1964 16.983C44.2586 15.6953 44.7599 14.9908 45.7232 14.9908C46.8078 14.9908 47.1388 15.7805 47.1388 16.4915C47.1388 16.675 47.1159 16.8421 47.0766 17.0059C47.1126 17.4221 47.4206 17.5695 47.8498 17.5695C48.4396 17.5695 48.7312 17.3238 48.7312 16.7242V12.8675L48.728 12.8643ZM33.8356 16.5734C33.8356 15.9312 33.616 15.4757 33.0131 15.4757C32.7116 15.4757 32.1547 15.6298 32.1547 16.5734C32.1547 17.3959 32.6691 17.5663 33.3998 17.5663H33.8356V16.5734ZM46.5523 16.5177C46.5523 15.8067 46.241 15.4823 45.7134 15.4823C45.1859 15.4823 44.7829 16.0033 44.7207 17.0748C45.0811 17.4057 45.3694 17.5761 45.7626 17.5761C46.4113 17.5761 46.5523 16.9437 46.5523 16.521M50.5006 18.0414H51.0774V12.8675H50.5006V18.0414Z" fill="#808285"/>
<path d="M0.446289 21.2683H0.914748V22.9328H2.76282V21.2683H3.23144V25.1053H2.76282V23.326H0.914748V25.1053H0.446289V21.2683ZM6.94055 23.9715C6.94055 24.6695 6.40971 25.1708 5.5283 25.1708C4.64688 25.1708 4.1194 24.6727 4.1194 23.9715V21.2683H4.58786V23.9224C4.58786 24.4827 4.909 24.7776 5.52174 24.7776C6.13447 24.7776 6.47193 24.427 6.47193 23.9224V21.2683H6.94055V23.9715ZM9.67979 24.6826H9.68971L10.7709 21.2716H11.5704V25.1085H11.1183V21.6287H11.1085L9.96825 25.1085H9.38172L8.28065 21.6287H8.27089V25.1085H7.83187V21.2716H8.62143L9.67979 24.6826ZM12.963 25.1053H12.4649L13.9263 21.2683H14.5556L16.0235 25.1053H15.5123L15.0602 23.9552H13.3988L12.963 25.1053ZM13.5167 23.562H14.9455L14.2311 21.6222L13.5167 23.562ZM19.2805 24.6105H19.2902V21.2683H19.7294V25.1053H19.0413L17.3604 21.7369H17.3505V25.1053H16.9115V21.2683H17.6159L19.2805 24.6105Z" fill="#808285"/>
<path d="M22.2329 21.2689H23.5535C24.2318 21.2689 24.7461 21.5704 24.7461 22.2847C24.7461 22.7205 24.5004 23.058 24.0384 23.1759V23.1857C24.33 23.2546 24.4611 23.4446 24.5987 23.9066C24.7232 24.3326 24.8281 24.6864 24.9592 25.1059H24.4611C24.3759 24.8011 24.2351 24.2507 24.1597 23.9885C24.0188 23.5265 23.9172 23.3823 23.3209 23.3823H22.7015V25.1059H22.2329V21.2689ZM22.7015 22.9891H23.442C23.9564 22.9891 24.2808 22.786 24.2808 22.3109C24.2808 21.7702 23.8778 21.6621 23.4748 21.6621H22.7015V22.9891ZM25.6636 21.2689H27.7704V21.6621H26.1321V22.9367H27.6427V23.3299H26.1321V24.7159H27.8131V25.1091H25.6636V21.2722V21.2689ZM30.5524 21.7571C30.2837 21.649 29.9921 21.5966 29.7103 21.5966C29.3466 21.5966 28.9369 21.7375 28.9369 22.1831C28.9369 22.5271 29.1401 22.7139 29.7364 22.9465C30.4605 23.2251 30.8375 23.5167 30.8375 24.113C30.8375 24.8699 30.1821 25.1714 29.5497 25.1714C29.2122 25.1714 28.7764 25.096 28.416 24.9355L28.5339 24.5324C28.8845 24.7028 29.2582 24.7815 29.5596 24.7815C30.0216 24.7815 30.3722 24.5783 30.3722 24.1491C30.3722 23.7559 30.0347 23.5593 29.4515 23.3201C28.7961 23.058 28.4685 22.7303 28.4685 22.2191C28.4685 21.5114 29.1336 21.2099 29.7135 21.2099C30.051 21.2099 30.3918 21.2623 30.6637 21.3705L30.5524 21.7637V21.7571ZM33.19 25.1681C32.1054 25.1681 31.4862 24.3424 31.4862 23.1923C31.4862 22.0422 32.0923 21.2034 33.19 21.2034C34.2877 21.2034 34.8939 22.0356 34.8939 23.1923C34.8939 24.349 34.2746 25.1681 33.19 25.1681ZM33.19 21.5966C32.3512 21.5966 31.9547 22.3174 31.9547 23.1923C31.9547 24.0672 32.3512 24.7782 33.19 24.7782C34.0288 24.7782 34.4253 24.0639 34.4253 23.1923C34.4253 22.3207 34.0288 21.5966 33.19 21.5966ZM38.5211 23.9721C38.5211 24.6701 37.9903 25.1714 37.1089 25.1714C36.2275 25.1714 35.7033 24.6733 35.7033 23.9721V21.2689H36.1718V23.923C36.1718 24.48 36.4929 24.7782 37.1057 24.7782C37.7184 24.7782 38.0559 24.4276 38.0559 23.923V21.2689H38.5245V23.9721H38.5211ZM39.3961 21.2689H40.7165C41.3948 21.2689 41.9093 21.5704 41.9093 22.2847C41.9093 22.7205 41.6635 23.058 41.2015 23.1759V23.1857C41.4931 23.2546 41.6274 23.4446 41.7618 23.9066C41.8863 24.3326 41.9945 24.6864 42.1222 25.1059H41.6242C41.539 24.8011 41.3981 24.2507 41.3228 23.9885C41.1819 23.5265 41.0803 23.3823 40.4839 23.3823H39.8646V25.1059H39.3961V21.2689ZM39.8646 22.9891H40.6052C41.1196 22.9891 41.444 22.786 41.444 22.3109C41.444 21.7702 41.0409 21.6621 40.6378 21.6621H39.8646V22.9891ZM45.1203 21.7637C44.927 21.6523 44.6682 21.5966 44.3962 21.5966C43.4231 21.5966 42.9676 22.3043 42.9676 23.2021C42.9676 24.0508 43.4461 24.7782 44.3865 24.7782C44.7141 24.7782 44.9499 24.7127 45.176 24.5947L45.3104 24.9584C45.0352 25.1091 44.7043 25.1681 44.3602 25.1681C43.1937 25.1681 42.5024 24.3522 42.5024 23.1956C42.5024 22.0389 43.1675 21.2034 44.393 21.2034C44.7141 21.2034 45.0483 21.2623 45.2679 21.3901L45.1237 21.7604L45.1203 21.7637ZM46.0117 21.2689H48.1184V21.6621H46.4801V22.9367H47.9908V23.3299H46.4801V24.7159H48.1612V25.1091H46.0117V21.2722V21.2689ZM50.8054 21.7571C50.5367 21.649 50.245 21.5966 49.96 21.5966C49.5963 21.5966 49.1867 21.7375 49.1867 22.1831C49.1867 22.5271 49.3898 22.7139 49.9862 22.9465C50.7103 23.2251 51.0871 23.5167 51.0871 24.113C51.0871 24.8699 50.4318 25.1714 49.7961 25.1714C49.4586 25.1714 49.0229 25.096 48.6624 24.9355L48.7803 24.5324C49.1309 24.7028 49.5044 24.7815 49.8059 24.7815C50.2679 24.7815 50.6187 24.5783 50.6187 24.1491C50.6187 23.7559 50.2811 23.5593 49.7011 23.3201C49.0458 23.058 48.7181 22.7303 48.7181 22.2191C48.7181 21.5114 49.3834 21.2099 49.9633 21.2099C50.3008 21.2099 50.6416 21.2623 50.9135 21.3705L50.802 21.7637L50.8054 21.7571Z" fill="#808285"/>
<path d="M0.446289 27.4649H1.53744C2.72359 27.4649 3.41815 28.2022 3.41815 29.3818C3.41815 30.5614 2.72031 31.2986 1.53744 31.2986H0.446289V27.4617V27.4649ZM0.914748 30.9087H1.46864C2.44508 30.9087 2.95289 30.3386 2.95289 29.3818C2.95289 28.425 2.44836 27.8549 1.46864 27.8549H0.914748V30.9054V30.9087ZM4.20452 27.4649H6.31146V27.8581H4.67314V29.1328H6.18363V29.526H4.67314V30.912H6.35402V31.3052H4.20452V27.4682V27.4649ZM6.64888 27.4649H7.1503L8.31681 30.8759H8.32657L9.48651 27.4649H9.98793L8.61167 31.3019H8.01538L6.65224 27.4649H6.64888ZM10.4761 27.4649H12.583V27.8581H10.9447V29.1328H12.4552V29.526H10.9447V30.912H12.6256V31.3052H10.4761V27.4682V27.4649ZM13.3791 27.4649H13.8478V30.9087H15.5451V31.3019H13.3791V27.4649ZM17.3702 31.3642C16.2856 31.3642 15.6662 30.5352 15.6662 29.3883C15.6662 28.2415 16.2725 27.3994 17.3702 27.3994C18.4678 27.3994 19.0741 28.2317 19.0741 29.3883C19.0741 30.545 18.4547 31.3642 17.3702 31.3642ZM17.3702 27.7926C16.5313 27.7926 16.1348 28.5135 16.1348 29.3883C16.1348 30.2632 16.5313 30.9742 17.3702 30.9742C18.209 30.9742 18.6055 30.2599 18.6055 29.3883C18.6055 28.5167 18.209 27.7926 17.3702 27.7926ZM19.7032 27.4649H20.9548C21.6363 27.4649 22.2229 27.7172 22.2229 28.5495C22.2229 29.3818 21.6363 29.6931 20.9613 29.6931H20.1716V31.2986H19.7032V27.4617V27.4649ZM20.1716 29.3031H20.9188C21.3644 29.3031 21.7576 29.159 21.7576 28.5659C21.7576 27.9728 21.3644 27.8581 20.8729 27.8581H20.175V29.3031H20.1716ZM24.6673 30.8759H24.677L25.7584 27.4649H26.5579V31.3019H26.1058V27.8221H26.0958L24.9556 31.3019H24.369L23.2681 27.8221H23.2584V31.3019H22.8192V27.4649H23.6089L24.6673 30.8759ZM27.2983 27.4649H29.4053V27.8581H27.767V29.1328H29.2774V29.526H27.767V30.912H29.4478V31.3052H27.2983V27.4682V27.4649ZM32.469 30.8071H32.4787V27.4649H32.9211V31.3019H32.233L30.5521 27.9335H30.5423V31.3019H30.1032V27.4649H30.8076L32.4722 30.8071H32.469ZM34.4022 27.8581H33.2456V27.4649H35.9946V27.8581H34.8674V31.3019H34.399V27.8581H34.4022Z" fill="#808285"/>
<path d="M38.0722 27.4649H40.0905V27.8581H38.5375V29.1328H39.9988V29.526H38.5375V31.3052H38.0688V27.4682L38.0722 27.4649ZM43.5179 30.1682C43.5179 30.8661 42.987 31.3674 42.1056 31.3674C41.2242 31.3674 40.6967 30.8694 40.6967 30.1682V27.4649H41.1653V30.119C41.1653 30.6793 41.4865 30.9742 42.0992 30.9742C42.712 30.9742 43.0494 30.6236 43.0494 30.119V27.4649H43.5179V30.1682ZM46.6897 30.8071H46.6995V27.4649H47.1387V31.3019H46.4505L44.7697 27.9335H44.7597V31.3019H44.3207V27.4649H45.0252L46.6897 30.8071ZM48.1117 27.4649H49.2029C50.389 27.4649 51.0838 28.2022 51.0838 29.3818C51.0838 30.5614 50.3858 31.2986 49.2029 31.2986H48.1117V27.4617V27.4649ZM48.5804 30.9087H49.1341C50.1105 30.9087 50.6185 30.3386 50.6185 29.3818C50.6185 28.425 50.1138 27.8549 49.1341 27.8549H48.5804V30.9054V30.9087Z" fill="#808285"/>
<path d="M4.65676 11.593C4.65676 11.403 4.52234 11.2621 4.33229 11.2621C4.14225 11.2621 4.00143 11.403 4.00143 11.593C4.00143 11.7831 4.14225 11.9239 4.33229 11.9239C4.52234 11.9239 4.65676 11.7831 4.65676 11.593ZM5.21369 11.9239C5.40374 11.9239 5.53816 11.7831 5.53816 11.593C5.53816 11.403 5.40374 11.2621 5.21369 11.2621C5.02365 11.2621 4.88283 11.403 4.88283 11.593C4.88283 11.7831 5.02365 11.9239 5.21369 11.9239ZM21.1285 7.68724H21.6985V9.48284C21.6985 10.2922 21.2464 10.6952 20.3388 10.6952C20.3093 10.6952 20.283 10.6952 20.26 10.6919C19.8472 10.6755 19.4835 10.5412 19.2967 10.2234C19.087 10.5412 18.6906 10.6952 18.1139 10.6952C17.6617 10.6952 17.2259 10.5838 17.0227 10.1546C16.777 10.515 16.3969 10.7247 15.9185 10.7247C15.5449 10.7247 15.1583 10.5969 14.7422 10.2398C14.6374 10.4855 14.4474 10.6985 13.9755 10.6985H6.40308C6.37359 10.6985 6.3441 10.6985 6.32116 10.6952C5.91158 10.6788 5.54797 10.5445 5.36121 10.2266C5.14822 10.5445 4.75491 10.6985 4.17822 10.6985H4.00799C3.4444 10.6985 2.99543 10.6198 2.789 10.2627C2.59896 10.3479 2.28117 10.4593 1.85193 10.4593C1.17038 10.4593 0.442871 10.1283 0.442871 9.11586C0.442871 8.21478 1.02611 7.69379 1.99272 7.69379H3.26738V9.686C3.26738 10.1152 3.48686 10.2266 4.02751 10.2266H4.08334C4.68297 10.2266 4.95482 9.9809 4.95482 9.38127V7.69052H5.5316V9.54838C5.5316 10.0071 5.8199 10.2234 6.30484 10.2234H13.8018C14.0901 10.2234 14.3458 10.0104 14.3654 9.64012C14.4277 8.3524 14.9289 7.64792 15.8922 7.64792C16.9768 7.64792 17.3079 8.43759 17.3079 9.14863C17.3079 9.33212 17.2849 9.49923 17.2456 9.66306C17.2817 10.0792 17.5896 10.2266 18.0189 10.2266C18.6185 10.2266 18.8905 9.9809 18.8905 9.38127V7.69052H19.4671V9.54838C19.4671 10.0071 19.7554 10.2234 20.2404 10.2234C20.8302 10.2234 21.1219 9.97762 21.1219 9.37799V7.68724H21.1285ZM2.69397 8.15253H2.06152C1.52742 8.15253 1.01308 8.29997 1.01308 9.10931C1.01308 9.84983 1.57011 9.96124 1.9076 9.96124C2.2451 9.96124 2.52039 9.89243 2.69733 9.7843V8.15253H2.69397ZM16.7279 9.17156C16.7279 8.46053 16.4166 8.13614 15.889 8.13614C15.3615 8.13614 14.9618 8.65713 14.8963 9.72532C15.2567 10.0563 15.545 10.2266 15.9382 10.2266C16.5869 10.2266 16.7279 9.59425 16.7279 9.17156ZM1.23579 6.66493C1.23579 6.47488 1.37677 6.33398 1.56682 6.33398C1.75687 6.33398 1.89112 6.47488 1.89112 6.66493C1.89112 6.85497 1.75687 6.99587 1.56682 6.99587C1.37677 6.99587 1.23579 6.85497 1.23579 6.66493ZM2.44822 6.99587C2.63826 6.99587 2.77268 6.85497 2.77268 6.66493C2.77268 6.47488 2.63826 6.33398 2.44822 6.33398C2.25817 6.33398 2.11735 6.47488 2.11735 6.66493C2.11735 6.85497 2.25817 6.99587 2.44822 6.99587ZM19.1854 6.99587C19.3754 6.99587 19.5097 6.85497 19.5097 6.66493C19.5097 6.47488 19.3754 6.33398 19.1854 6.33398C18.9953 6.33398 18.8543 6.47488 18.8543 6.66493C18.8543 6.85497 18.9953 6.99587 19.1854 6.99587ZM21.7968 6.33398C21.6067 6.33398 21.4659 6.47488 21.4659 6.66493C21.4659 6.85497 21.6067 6.99587 21.7968 6.99587C21.9868 6.99587 22.1212 6.85497 22.1212 6.66493C22.1212 6.47488 21.9868 6.33398 21.7968 6.33398ZM20.9187 6.99587C21.1088 6.99587 21.243 6.85497 21.243 6.66493C21.243 6.47488 21.1088 6.33398 20.9187 6.33398C20.7287 6.33398 20.5877 6.47488 20.5877 6.66493C20.5877 6.85497 20.7287 6.99587 20.9187 6.99587Z" fill="#808285"/>
<path d="M29.0744 10.4165C29.0744 11.3897 28.3699 11.9173 26.6169 11.9173C25.1162 11.9173 24.2871 11.3963 24.2871 10.1774C24.2871 9.81037 24.4149 9.28283 24.6673 8.80444L25.1882 8.99448C24.985 9.46632 24.8868 9.84641 24.8868 10.2199C24.8868 11.0653 25.4929 11.452 26.6758 11.452C27.8587 11.452 28.478 11.0915 28.478 10.564C28.3305 10.6197 28.1339 10.6918 27.767 10.6918C26.7315 10.6918 26.204 10.0791 26.204 9.25661C26.204 8.31949 26.8233 7.6445 27.7113 7.6445C28.5992 7.6445 29.0776 8.17204 29.0776 9.02397V10.4165H29.0744ZM28.4845 9.22712C28.4845 8.5849 28.3011 8.12945 27.6622 8.12945C27.4099 8.12945 26.8036 8.25724 26.8036 9.22712C26.8036 10.0233 27.3934 10.2199 27.8226 10.2199C28.1536 10.2199 28.3698 10.1282 28.4845 10.0725V9.22712ZM32.8555 9.02397V10.4034C32.8555 11.2685 32.5181 11.9238 31.4106 11.9238C31.1288 11.9238 30.7848 11.8747 30.5095 11.8124L30.5947 11.3602C30.8142 11.4094 31.1091 11.4716 31.3844 11.4716C31.9414 11.4716 32.2626 11.2324 32.2626 10.564C32.1151 10.6197 31.9184 10.6918 31.5514 10.6918C30.5225 10.6918 29.9819 10.0791 29.9819 9.25661C29.9819 8.31949 30.6143 7.6445 31.4957 7.6445C32.3772 7.6445 32.8555 8.17204 32.8555 9.02397ZM32.2723 9.22712C32.2723 8.5849 32.0889 8.12945 31.45 8.12945C31.1977 8.12945 30.5915 8.25724 30.5915 9.22712C30.5915 10.0233 31.1812 10.2199 31.6105 10.2199C31.9414 10.2199 32.1609 10.1282 32.2723 10.0725V9.22712ZM51.0868 9.23368V9.47943C51.0868 10.2953 50.7363 10.6918 49.8418 10.6918H46.1818C46.1556 10.6918 46.1327 10.6918 46.113 10.6885C45.71 10.6688 45.3527 10.5345 45.1692 10.2199C44.9595 10.5378 44.5631 10.6918 43.9864 10.6918H37.1742C37.1382 10.6918 37.1055 10.6918 37.076 10.6852C36.7942 10.659 36.4337 10.5312 36.2502 10.2462C36.0602 10.5345 35.7292 10.6885 35.1722 10.6885H33.6715V10.2167H35.0378C35.6571 10.2167 35.8407 9.96437 35.8407 9.3713V9.21074C35.8407 8.56197 35.6014 8.15566 34.6151 8.15566H34.1073V7.68382H34.8117C35.9389 7.68382 36.4173 8.2343 36.4173 9.0764V9.54168C36.4173 9.89884 36.6794 10.2167 37.0792 10.2167H43.8913C44.491 10.2167 44.7662 9.97092 44.7662 9.3713V7.68054H45.3429V9.53841C45.3429 9.99714 45.6312 10.2134 46.1162 10.2134H46.8829V7.68054H47.4596V8.15894C48.1641 7.79851 48.7703 7.63795 49.3666 7.63795C50.7166 7.63795 51.0836 8.46039 51.0836 9.2304M50.5069 9.37785C50.5069 8.66682 50.1825 8.12617 49.3044 8.12617C48.6556 8.12617 48.0232 8.34571 47.4596 8.67337V10.2167H49.7042C50.3235 10.2167 50.5069 9.97092 50.5069 9.37785ZM27.7997 6.66151C27.7997 6.47146 27.9406 6.33057 28.1306 6.33057C28.3207 6.33057 28.4551 6.47146 28.4551 6.66151C28.4551 6.85155 28.3207 6.99245 28.1306 6.99245C27.9406 6.99245 27.7997 6.85155 27.7997 6.66151ZM27.2492 6.99245C27.4393 6.99245 27.5737 6.85155 27.5737 6.66151C27.5737 6.47146 27.4393 6.33057 27.2492 6.33057C27.0592 6.33057 26.9183 6.47146 26.9183 6.66151C26.9183 6.85155 27.0592 6.99245 27.2492 6.99245ZM45.0481 6.99245C45.2381 6.99245 45.3724 6.85155 45.3724 6.66151C45.3724 6.47146 45.2381 6.33057 45.0481 6.33057C44.858 6.33057 44.7171 6.47146 44.7171 6.66151C44.7171 6.85155 44.858 6.99245 45.0481 6.99245Z" fill="#808285"/>
<path d="M58.181 30.6697C59.78 29.0511 66.7724 21.8162 68.5909 17.206C68.5909 17.206 61.3659 25.5057 57.162 27.9141C55.9169 24.0345 55.3368 19.8371 55.4777 15.6627C57.103 16.6948 58.0925 19.1425 58.9576 20.1877C59.2066 18.4937 59.223 16.875 59.0264 16.0002C60.337 16.8685 61.5134 17.8515 62.5128 18.9492C62.4046 16.9471 61.6968 15.0762 60.4943 13.4772C62.8371 13.5361 65.121 13.8671 67.2639 14.47C65.4192 12.481 62.8438 11.0786 59.9308 10.3774C60.1241 10.2955 60.3272 10.2038 60.55 10.0989C62.86 9.02419 64.6032 7.89046 65.6288 7.15649C67.136 9.38789 68.532 11.7045 69.3675 13.5623C69.7705 14.3848 69.9966 15.3121 69.9966 16.2918C69.9966 17.183 69.8099 18.0317 69.4691 18.7984C67.6243 22.8353 62.8437 28.6087 58.7741 32C58.5644 31.5643 58.3678 31.1219 58.1778 30.673L58.181 30.6697Z" fill="#005187"/>
<path d="M63.7906 10.0787C62.8207 10.0787 61.9065 10.3015 61.0873 10.6947C63.5219 11.4615 65.6649 12.7426 67.2639 14.4629C65.1209 13.8567 62.8371 13.5258 60.4942 13.4668C61.6968 15.0691 62.4046 16.9367 62.5127 18.9421C61.5166 17.8444 60.337 16.8614 59.0263 15.9963C59.2229 16.8679 59.2065 18.4866 58.9575 20.1806C60.0618 21.5503 61.7395 22.4382 63.6235 22.4874C66.3432 19.7842 68.5908 17.2022 68.5908 17.2022C68.001 18.6996 66.864 20.4722 65.5468 22.2384C68.119 21.4815 69.9999 19.1026 69.9999 16.2847C69.9999 12.8573 67.2212 10.0754 63.7906 10.0754" fill="#326A9D"/>
<path d="M57.4175 5.38354C58.1023 3.50602 58.9705 1.6973 60.0354 0C60.409 0.373538 60.8383 0.848653 61.3101 1.40241C60.1731 2.82447 58.869 4.16462 57.4175 5.38681" fill="#00AC65"/>
<path d="M65.0129 6.25507C62.8995 6.57946 60.2847 7.26756 59.3345 7.52641C60.5534 5.81272 61.3562 3.93193 61.851 2.04785C62.8307 3.24711 63.9349 4.71177 65.0129 6.25507Z" fill="#DF7C2E"/>
</svg>
