<svg xmlns="http://www.w3.org/2000/svg" width="415.331" height="130.36" viewBox="0 0 415.331 130.36"><defs><style>.a{fill:#fff;}</style></defs><g transform="translate(284.971 0)"><path class="a" d="M85.12,0A65.18,65.18,0,1,0,150.3,65.18,65.177,65.177,0,0,0,85.12,0Zm0,127.09a61.92,61.92,0,1,1,61.92-61.92A61.917,61.917,0,0,1,85.12,127.09Z" transform="translate(-19.94)"/><path class="a" d="M43.12,34.93a12.869,12.869,0,0,1,5.97-.64,5.714,5.714,0,0,1-1.1.71c-1.71.59-3.45,1.09-5.15,1.69a1.812,1.812,0,0,0-.93.75,16.162,16.162,0,0,0-.87,1.9q2.985-.78,5.95-1.56c.04.08.09.16.13.24a8.973,8.973,0,0,1-1.32,1.02,33.917,33.917,0,0,1-4.74,2.3c-1.41.47-1.63,1.48-1.91,2.51q3.03-1.14,6.09-2.28l.19.22a9.921,9.921,0,0,1-.87,1.22,18.654,18.654,0,0,1-5.42,3.56,1.829,1.829,0,0,0-1.21,1.56c-.05.42-.15.84-.26,1.45a16.427,16.427,0,0,1,6.52-3.37l.18.15a9.142,9.142,0,0,1-1.26,1.67c-1.52,1.28-3.08,2.53-4.69,3.69-1.53,1.1-1.57,1.04-1.39,3.1,1.71-2.07,3.98-3.1,6.29-4.05.07.05.13.1.2.15a6.984,6.984,0,0,1-1.01,1.51c-1.59,1.39-3.24,2.72-4.9,4.04a1.4,1.4,0,0,0-.69,1.09c-.05.78-.18,1.55-.2,2.37a14.351,14.351,0,0,1,6.13-4.47,10.663,10.663,0,0,1-2.24,3.76c-.96,1.06-2.03,2.01-3.01,3.05a1.869,1.869,0,0,0-.48,1.01,11.336,11.336,0,0,0,.05,2.17c1.32-2.45,3.42-4.06,5.87-5.62a10.927,10.927,0,0,1-.29,1.21,20.761,20.761,0,0,1-3.52,5.71.357.357,0,0,1-.1.11c-1.93,1.43-1.2,3.24-.69,5.23a22.7,22.7,0,0,1,4.87-6.94,1.8,1.8,0,0,0,.21.08,15.155,15.155,0,0,1-.81,2.63c-1.02,2.02-2.18,3.98-3.25,5.97a1.41,1.41,0,0,0-.13.94,14.042,14.042,0,0,0,.9,2.15,19.537,19.537,0,0,1,4.29-8.04,12.533,12.533,0,0,1-1.02,4.68c-.66,1.69-1.43,3.33-2.18,4.97a2.527,2.527,0,0,0,1.19,2.98,21.356,21.356,0,0,1,3.33-8.44,2.512,2.512,0,0,1,.27.04,16.856,16.856,0,0,1-.3,3.2c-.62,2.17-1.41,4.3-2.19,6.43a1.2,1.2,0,0,0,.05,1.2c.37.57.68,1.17,1.1,1.76.43-3.54,1.12-6.95,3.4-9.9.04.74.13,1.48.1,2.21a50.156,50.156,0,0,1-1.43,9.68,1.53,1.53,0,0,0,.38,1.65c.32.3.55.69.9,1.01.07-3.9,0-7.78,2.23-11.18.11,0,.21,0,.32-.01.14,1.07.37,2.14.42,3.21a51.661,51.661,0,0,1-.78,9.77c-.02.13-.11.29-.06.37a6.77,6.77,0,0,0,2.72,2.92c-1.06-4.24-1.43-8.43.25-12.69a5.183,5.183,0,0,1,1.27,2.58,36.356,36.356,0,0,1,.69,9.98c-.01.26-.04.51-.04.76a3.412,3.412,0,0,0,2.1,3.27,3.449,3.449,0,0,0,.83.16c-.55-2.04-1.18-3.97-1.59-5.94a14.44,14.44,0,0,1,.17-6.09,5.023,5.023,0,0,1,1.67,2.81c.48,2.34.87,4.71,1.23,7.07a25.253,25.253,0,0,1,.14,2.76c.01.15-.01.35.08.44a5.65,5.65,0,0,0,2.77,2.09,3.516,3.516,0,0,0,.75.01A18.687,18.687,0,0,1,60.14,89.6,2.1,2.1,0,0,1,61.72,91c.71,1.77,1.43,3.55,1.96,5.38.54,1.86.84,3.78,1.27,5.67a3.485,3.485,0,0,0,3.28,2.81,13.659,13.659,0,0,1-2.36-5.53,16.735,16.735,0,0,1,0-6.07,7.26,7.26,0,0,1,2.59,2.87,18.378,18.378,0,0,1,2.04,8.41,1.649,1.649,0,0,0,1.18,1.79,36.8,36.8,0,0,0,5.68,1.48,67.318,67.318,0,0,0,9.08.59,35.4,35.4,0,0,0,10.95-1.58c2.19-.73,2.24-.83,2.4-3.14A19.758,19.758,0,0,1,101.36,97a8.576,8.576,0,0,1,2.99-3.74,14.719,14.719,0,0,1,.05,6.02,12.836,12.836,0,0,1-2.36,5.53c1.64.15,2.98-1.42,3.33-2.95.69-3.03,1.47-6.04,2.32-9.03a10.414,10.414,0,0,1,1.35-2.55c.19-.31.6-.49,1.05-.84a18.872,18.872,0,0,1-3.17,13.26c.47-.06.84-.01,1.06-.17a28.175,28.175,0,0,0,2.43-1.93c.17-.16.15-.57.16-.86a34.635,34.635,0,0,1,1.24-9.16,6.278,6.278,0,0,1,1.78-3.11,14.574,14.574,0,0,1,.17,6.05c-.38,1.96-1.01,3.88-1.57,5.94.21-.04.65.01.9-.18a11.273,11.273,0,0,0,1.89-1.76c.22-.27.13-.82.12-1.24a40.813,40.813,0,0,1,.55-10.53,6.02,6.02,0,0,1,1.28-2.91c1.39,2.05,1.48,6.46.23,12.7a3.314,3.314,0,0,0,.88-.49,23.357,23.357,0,0,0,1.76-2.21,1.488,1.488,0,0,0,.08-1.01,47.648,47.648,0,0,1-.72-9.54,14.079,14.079,0,0,1,.53-3.1c2.44,3.36,2.32,7.24,2.36,11.09a2.437,2.437,0,0,0,1.31-2.55,55.152,55.152,0,0,1-1.43-10.15,7.772,7.772,0,0,1,.21-1.77c2.19,2.92,2.88,6.33,3.4,9.88.41-.73.85-1.44,1.21-2.19.08-.17-.05-.48-.15-.7a26.152,26.152,0,0,1-2.29-7.04,13.377,13.377,0,0,1-.06-2.69,19.513,19.513,0,0,1,3.46,8.42,2.449,2.449,0,0,0,1.14-3.05,33.193,33.193,0,0,1-3.02-8,6.748,6.748,0,0,1-.09-1.43,19.287,19.287,0,0,1,4.3,7.91c.33-.84.68-1.67.97-2.53.05-.15-.13-.41-.25-.59a28.156,28.156,0,0,1-3.57-6.75c-.2-.61-.32-1.26-.47-1.89.07-.03.14-.07.2-.1.89,1.07,1.85,2.1,2.66,3.23.8,1.11,1.46,2.31,2.25,3.59.22-1.13.44-2.2.61-3.28.03-.16-.22-.37-.35-.56-1.29-1.77-2.64-3.51-3.85-5.34a18.35,18.35,0,0,1-1.23-2.84c1.82.62,4.26,2.91,6.09,5.45a12.027,12.027,0,0,1,.02-1.9c.14-.85-.46-1.15-.94-1.59a17.524,17.524,0,0,1-4.66-5.91c-.06-.13-.1-.28-.19-.52a15.09,15.09,0,0,1,6.22,4.48c-.12-.97-.21-1.94-.39-2.9-.04-.21-.39-.37-.6-.55-1.56-1.27-3.16-2.5-4.68-3.83a4.924,4.924,0,0,1-1.1-1.76,13.514,13.514,0,0,1,6.41,3.97,12.644,12.644,0,0,0-.03-1.88c-.04-.26-.35-.53-.59-.71-1.61-1.21-3.28-2.35-4.85-3.62a9.176,9.176,0,0,1-1.85-2.31,14.068,14.068,0,0,1,6.69,3.28c-.22-.96-.35-1.7-.57-2.41-.06-.19-.36-.32-.57-.45-1.59-.96-3.23-1.85-4.77-2.89a13.888,13.888,0,0,1-1.96-1.95c.08-.12.16-.24.23-.36q3.075,1.14,6.12,2.27c-.3-.94-.43-1.97-1.83-2.47a39.729,39.729,0,0,1-5.07-2.5,6.45,6.45,0,0,1-1.05-.84c.03-.06.05-.12.08-.19,1,.21,2.01.4,3,.65s1.94.59,3.04.93c-.39-.85-.74-1.65-1.15-2.42-.09-.18-.41-.26-.65-.33-1.56-.48-3.14-.91-4.68-1.43a5.594,5.594,0,0,1-1.66-1.03,14.248,14.248,0,0,1,6,.71c-.57-1.1-1.03-2.07-1.56-3-.08-.14-.46-.12-.7-.15-1.49-.17-3-.25-4.47-.52a4.08,4.08,0,0,1-2.8-1.79,16.606,16.606,0,0,1,6.52.49c-.48-.68-.95-1.38-1.47-2.03a1.181,1.181,0,0,0-.68-.24c-1.9-.34-3.82-.62-5.71-1.02a6.734,6.734,0,0,1-1.66-.9c.04-.11.08-.23.11-.34,2.06.15,4.11.3,6.25.46a11.234,11.234,0,0,0-1.96-1.74,6.866,6.866,0,0,0-2.08-.34c-1.43-.26-2.86-.51-4.28-.82a6.1,6.1,0,0,1-1.23-.55,1.572,1.572,0,0,1,.04-.23c1.81-.09,3.62-.18,5.49-.28-1.21-.93-2.16-2.11-4.08-1.78a12.215,12.215,0,0,1-5.95-.41,14.135,14.135,0,0,1,5.87-.89c-.98-.67-1.94-1.36-2.94-1.99-.16-.1-.48.03-.72.1a7.091,7.091,0,0,1-5.48-.44l4.54-.6.09-.15a21.5,21.5,0,0,0-3.79-1.3c-1.67-.25-3.37-.27-4.88-1.12A17.755,17.755,0,0,1,97.83,12a6.3,6.3,0,0,1,4.2-.32,9.594,9.594,0,0,1,2.22.99c1.53.85,3.02,1.77,4.61,2.57-.9-1.23-1.94-2.37-1.9-4.11a3.8,3.8,0,0,1,2.38,1.84,21.758,21.758,0,0,1,.97,2.32,2.456,2.456,0,0,0,.64.95c.81.61,1.68,1.14,2.71,1.83a11.414,11.414,0,0,1-.8-4.68,4.453,4.453,0,0,1,2.03,3.08,2.988,2.988,0,0,1,.13,1.21c-.2.92.31,1.39.96,1.86.82.6,1.59,1.27,2.46,1.88-.41-1.6-1.08-3.14-.84-4.93a5.614,5.614,0,0,1,2.06,3.04c.23.8.26,1.66.45,2.48a3.409,3.409,0,0,0,.56,1.26,11.932,11.932,0,0,0,1.59,1.68c-.16-1.81-.76-3.59-.39-5.56a11.486,11.486,0,0,1,1.95,4.99,3.6,3.6,0,0,1,.14,1.29c-.25,1.36.72,2,1.56,2.9.17-1.88.01-3.69.82-5.42a7.64,7.64,0,0,1,1.28,3.83,14.229,14.229,0,0,1-.19,3.12,1.631,1.631,0,0,0,.3,1.41c.41.53.78,1.1,1.21,1.72.22-1.69.43-3.25.63-4.81.08,0,.16.01.24.01a5.711,5.711,0,0,1,.89,3.01,36.45,36.45,0,0,1-.11,4.05c-.08,1.07.73,1.65,1.12,2.48.46-1.69.56-3.44,1.66-4.96a10.256,10.256,0,0,1,.26,1.81c-.06,1.94-.13,3.88-.32,5.8a3.581,3.581,0,0,0,.23,1.92c.27.59.49,1.21.82,1.81.35-2.06.4-4.22,2.29-5.78a10.686,10.686,0,0,1-.8,6.76,4.81,4.81,0,0,0-.33,3.3c.06.27.12.55.21.98,1.17-1.66,2.03-3.48,4.12-4.26-.08.48-.13.86-.22,1.22a18.88,18.88,0,0,1-2.77,6.51,1.179,1.179,0,0,0-.28.6c.05.9.15,1.8.26,2.88,1.42-2.21,2.57-4.43,5.02-5.83-.14.56-.23.94-.33,1.3a15.611,15.611,0,0,1-3.9,7.02c-.12.12-.29.28-.3.42-.03.87-.01,1.75-.01,2.65,1.6-2.01,3.28-3.95,5.88-4.71.08.05.16.09.24.14a28.829,28.829,0,0,1-2.02,3.86,31.931,31.931,0,0,1-3.7,4.26,3.151,3.151,0,0,0-1.25,2.3c0,.3-.06.6-.11,1.11,2.02-2.07,3.86-4.1,6.48-5.06.1.07.19.14.29.21a14.86,14.86,0,0,1-1.06,2.11,20.293,20.293,0,0,1-5.49,4.96,2.987,2.987,0,0,0-1.41,2.67,24.318,24.318,0,0,1,7.45-4.29,13.463,13.463,0,0,1-5.2,5.52,11.635,11.635,0,0,1-2.1,1.09,2.191,2.191,0,0,0-1.45,1.52c-.12.38-.3.75-.41,1.18,2.5-2,5.05-3.86,8.51-4.02a9.092,9.092,0,0,1-2.5,2.97,18.22,18.22,0,0,1-6.15,3.37,3.141,3.141,0,0,0-2.2,2.22c3-1.1,5.84-2.5,9.02-2.69.05.06.11.12.16.18a10.114,10.114,0,0,1-.9,1.22,14.5,14.5,0,0,1-5.75,3.1,9.2,9.2,0,0,1-2.13.61c-1.86.15-2.36,1.69-3.42,3.03,3.48-.97,6.67-2.12,10.21-2.5a3.9,3.9,0,0,1-1.6,1.9,17.726,17.726,0,0,1-6.74,2.38c-1.03.19-2.07.3-3.1.48a1.193,1.193,0,0,0-.65.33c-.73.81-1.44,1.65-2.12,2.56,3.72-1.15,7.39-2.55,11.37-1.83.04.08.08.17.13.25a18.284,18.284,0,0,1-1.95,1.39,22.7,22.7,0,0,1-7.69,2.19c-1.19.17-2.39.26-3.57.43a1.818,1.818,0,0,0-.87.36c-.86.7-1.69,1.44-2.5,2.23,4.13-.38,8.2-1.31,12.42-.68a2.734,2.734,0,0,1-1.86,1.96,20.717,20.717,0,0,1-4.72,1.15c-2.48.17-4.99.01-7.49-.05a2.845,2.845,0,0,0-1.88.43c-.63.45-1.33.8-1.98,1.28,4.41.08,8.84-.17,13.07,1.35.02.08.03.16.05.23-.9.28-1.79.63-2.7.83a32.466,32.466,0,0,1-11.21.07c-.73-.1-1.46-.25-2.19-.36a1.3,1.3,0,0,0-.68.01c-1.21.52-2.4,1.07-3.59,1.68,5.04.87,10.2,1.09,14.94,3.17,0,.14-.01.28-.01.42-1.45.19-2.89.47-4.35.56a37.5,37.5,0,0,1-13.91-2.25,2.676,2.676,0,0,0-1.32-.02c-.86.17-1.71.42-2.74.68a49.669,49.669,0,0,1,14.72,6c-2.58,1.2-5.05,2.35-7.35,3.41-1.35-1.02-2.55-2.09-3.9-2.92a30.952,30.952,0,0,0-8.92-3.36c-2.63-.64-5.28-1.21-7.94-1.63a9.291,9.291,0,0,0-3.01.38,56.5,56.5,0,0,0-12.49,3.53,13.492,13.492,0,0,0-5.7,4.12c-2.52-1.17-5.03-2.34-7.61-3.54a49.724,49.724,0,0,1,14.66-5.99c-1.21-.32-2.26-.63-3.31-.86-.24-.05-.54.13-.8.21a36.648,36.648,0,0,1-14.52,2.19c-1.21-.09-2.4-.37-3.6-.56-.02-.09-.03-.18-.05-.27a7.5,7.5,0,0,1,1.37-.66c2.43-.59,4.85-1.19,7.31-1.66,2.07-.39,4.17-.6,6.31-1.02-.39-.19-.81-.34-1.18-.56a7.2,7.2,0,0,0-5.33-.76,29.347,29.347,0,0,1-11.13-.03,13.168,13.168,0,0,1-2.69-.92c4.22-1.68,8.64-1.42,13.05-1.5-1.37-.71-2.42-1.89-4.29-1.67a26.669,26.669,0,0,1-9.67-.37,10.543,10.543,0,0,1-2.61-1.04,4.359,4.359,0,0,1-1.36-1.51c4.23-.81,8.3.15,12.47.59a7.6,7.6,0,0,0-5.77-2.99,21.026,21.026,0,0,1-8.5-2.08,11.147,11.147,0,0,1-2.3-1.64,10.1,10.1,0,0,1,5.79.03c1.9.45,3.76,1.06,5.77,1.63a29.168,29.168,0,0,0-2.46-2.76c-.37-.33-1.11-.25-1.69-.33a25.072,25.072,0,0,1-7.02-1.83,11.2,11.2,0,0,1-2.14-1.32,4.1,4.1,0,0,1-.99-1.33c3.45.26,6.64,1.39,9.9,2.31a4.414,4.414,0,0,0-2.76-2.84,24.589,24.589,0,0,1-6.69-2.57,5.463,5.463,0,0,1-2.52-2.68,11.48,11.48,0,0,1,1.93.25c2.11.67,4.21,1.4,6.31,2.11.28.09.55.21,1.02.39-.52-.97-.78-1.74-1.82-2.09a17.934,17.934,0,0,1-8-4.92c-.39-.43-.7-.93-1.16-1.54a8.74,8.74,0,0,1,4.63,1.26c1.35.8,2.62,1.73,3.98,2.65-.46-1.11-.68-2.18-2.03-2.73a13.677,13.677,0,0,1-6.72-5.71c-.12-.21-.22-.44-.4-.79A24.35,24.35,0,0,1,35.11,74a3.41,3.41,0,0,0-1.28-2.61,62.609,62.609,0,0,1-5.31-4.61,4.013,4.013,0,0,1-1.28-2.79c2.79.92,4.57,3.01,6.55,4.86-.14-1.09,0-2.14-1.08-3.02a17.4,17.4,0,0,1-5.81-8.42,6.869,6.869,0,0,1,3.41,1.86c.94.88,1.79,1.86,2.63,2.75,0-.77.02-1.62-.02-2.46a1.039,1.039,0,0,0-.35-.55,16.143,16.143,0,0,1-4.05-7.7,4.75,4.75,0,0,1-.03-.54c2.33,1.36,3.48,3.57,4.88,5.75.12-1.06.23-1.96.29-2.86.01-.19-.17-.41-.29-.6a18.853,18.853,0,0,1-3-7.69,4.452,4.452,0,0,1,2.4,1.77c.59.75,1.12,1.55,1.78,2.48.12-1.47.66-2.69-.07-4.1a10.824,10.824,0,0,1-.92-6.92,3.971,3.971,0,0,1,1.72,2.6c.26,1,.37,2.04.61,3.08.4-1.17,1.31-2.16,1.04-3.56a20.462,20.462,0,0,1-.17-7.32c.02-.14.07-.28.15-.6,1.04,1.66,1.15,3.42,1.57,5.13.48-.9,1.3-1.58,1.1-2.83a11.988,11.988,0,0,1,.25-5.39c.13-.45.34-.88.51-1.31.11,0,.21.01.32.01.2,1.54.41,3.09.63,4.8a14.167,14.167,0,0,1,1.19-1.71c.6-.63.33-1.26.2-1.92a9.1,9.1,0,0,1,1.22-6.44c.76,1.72.67,3.52.8,5.41.81-.88,1.63-1.54,1.61-2.9a10.7,10.7,0,0,1,1.51-5.48c.11-.2.24-.39.37-.58.02-.03.09-.03.19-.07a17.712,17.712,0,0,1-.46,5.47c.75-1.13,2.25-1.64,2.26-3.37a6.579,6.579,0,0,1,2.07-4.88c.1-.1.23-.17.41-.31a12.058,12.058,0,0,1-1.07,5.19c.57-.45.98-.77,1.38-1.08.3-.24.58-.5.9-.72a2.71,2.71,0,0,0,1.4-2.53,4.465,4.465,0,0,1,2.09-3.95,12.471,12.471,0,0,1-.62,4.6c.98-.67,1.97-1.32,2.93-2.02.17-.12.22-.44.27-.68a5.744,5.744,0,0,1,2.29-3.68,11.11,11.11,0,0,1,1.06-.55c.02,1.8-.98,2.95-1.99,4.09a1.526,1.526,0,0,1,.11.16,39.1,39.1,0,0,0,4.05-2.29,7.2,7.2,0,0,1,6.37-1.25c.12.03.23.09.6.23a8.536,8.536,0,0,1-1.93,1.38,17.854,17.854,0,0,1-4,.92,7.409,7.409,0,0,0-2.63.68c-.61.29-1.23.56-1.89.86,1.62.21,3.17.41,4.71.6a6.789,6.789,0,0,1-5.39.45,1.382,1.382,0,0,0-1.39.23c-.77.57-1.57,1.11-2.34,1.73a13.021,13.021,0,0,1,5.62.7,1.635,1.635,0,0,1,.02.22,17.49,17.49,0,0,1-2.36.36c-1.43.03-2.86-.02-4.29-.1a1.965,1.965,0,0,0-1.54.48c-.51.47-1.09.88-1.65,1.33,1.88.1,3.68.19,5.49.28.02.12.04.23.05.35-.98.3-1.95.68-2.95.88-1.25.25-2.53.32-3.79.53a3.042,3.042,0,0,0-1.27.54,19.7,19.7,0,0,0-1.54,1.4c2.14-.16,4.2-.31,6.26-.46.04.1.07.21.11.31a12.189,12.189,0,0,1-1.37.83,17.376,17.376,0,0,1-5.84,1.1,1.245,1.245,0,0,0-1.12.63c-.35.55-.76,1.08-1.29,1.82a15.09,15.09,0,0,1,6.63-.63,3.43,3.43,0,0,1-2.26,1.61,46.179,46.179,0,0,1-4.98.67,1.033,1.033,0,0,0-1.04.66C44.01,33.22,43.59,33.99,43.12,34.93Z" transform="translate(-19.94 0)"/><g transform="translate(28.31 60.48)"><path class="a" d="M97.95,60.48c-2.58,4.92-7.35,8.33-12.81,8.33S74.91,65.4,72.33,60.48H61.92c3.11,11.07,12.32,18.97,23.22,18.97,10.79,0,19.94-8.06,23.13-18.97H97.95Zm-1.93,5.5a3.143,3.143,0,0,1,.47-.08,2.19,2.19,0,0,1,.48-.07c.04.02.08.13.1.34a.683.683,0,0,1-.02.37,1.259,1.259,0,0,1-.44.12,1.427,1.427,0,0,1-.44.04.933.933,0,0,1-.12-.36Q95.99,66.01,96.02,65.98ZM78.59,69.65a1.487,1.487,0,0,1,.44-.14,2.507,2.507,0,0,1,.11.4,1.785,1.785,0,0,1,.09.42.983.983,0,0,1-.42.19,1.2,1.2,0,0,1-.45.08c-.03-.01-.08-.14-.15-.37s-.08-.36-.06-.39A1.85,1.85,0,0,1,78.59,69.65Zm-6.76-6.03a1.194,1.194,0,0,1,.07-.29c.3.1.51.17.63.22.15.05.25.08.27.09a.771.771,0,0,0-.09.32.493.493,0,0,0,.01.29,1.1,1.1,0,0,0,.32.12c.19.05.3.09.34.1l-.02.69c-.2-.02-.4-.06-.6-.1a.832.832,0,0,1-.32-.1,1.466,1.466,0,0,1-.01-.37c.01-.22.02-.34.02-.34l-.3-.12c-.18-.06-.28-.1-.3-.1A.864.864,0,0,1,71.83,63.62Zm-1.02,7.71a1.061,1.061,0,0,1-.39-.06,3.473,3.473,0,0,1-.16-.5c-.06-.26-.1-.42-.11-.49a3.831,3.831,0,0,1-.45-.1.573.573,0,0,0-.24-.04,2.442,2.442,0,0,1-.16-.56,1.291,1.291,0,0,1-.05-.46c.44.09.73.14.84.17.04.01.1.02.16.03a1.556,1.556,0,0,0,.05.47,1.1,1.1,0,0,0,.14.41c.02.03.14.05.36.09a3.477,3.477,0,0,1,.4.05l.27.97A3.617,3.617,0,0,1,70.81,71.33ZM79.4,74.2c-.27-.11-.53-.23-.79-.35s-.52-.23-.78-.35a2.892,2.892,0,0,0-1.03-.12,2.41,2.41,0,0,1-1.01-.17l-1.31-.83-.01.01-.86-.63a.2.2,0,0,1-.08-.14.183.183,0,0,1,.06-.15l.35-.39a4.388,4.388,0,0,1-.45.15c-.24.07-.37.1-.39.11l-.61-.53h0l-.35-.32a.674.674,0,0,1-.23-.65.988.988,0,0,1,.2-.35l-.86.09-.95-1.12h-.01l-.06-.08-.13-.15.01-.01-.48-.64a.5.5,0,0,1-.02-.66c.16-.15.33-.29.51-.44a1.07,1.07,0,0,0-.46-.1c-.44-.03-.68-.13-.74-.31-.09-.24-.19-.54-.31-.87-.16-.48-.28-.79-.34-.92a3.823,3.823,0,0,1,.88.07,2.959,2.959,0,0,1,.98.22,4.946,4.946,0,0,1,.59.35c.28.17.6.36.96.56a.464.464,0,0,0,.14-.09.278.278,0,0,1,.14-.09,3.819,3.819,0,0,0,.4.04c.34.03.63.04.86.04a4.813,4.813,0,0,1-.65.44q-.585.375-1.17.78c-.37.27-.57.42-.59.44a.336.336,0,0,0-.01.26,1.682,1.682,0,0,0,.23.35l.11.13,1.2,1.37a1.184,1.184,0,0,0,.35-.17c.15-.1.3-.19.44-.29a5.323,5.323,0,0,1,.57-.03c.36-.03.55-.04.59-.04l-.04.04c-.04.03-.08.07-.12.1a3.952,3.952,0,0,1-.37.27c-.14.1-.31.2-.5.31a.317.317,0,0,0-.18.32.531.531,0,0,0,.17.35l.14.12.8.66,1.68-2.19c.24-.07.42-.13.54-.17.38-.13.63-.22.74-.25a8.074,8.074,0,0,1-.97,1.32c-.67.87-1.07,1.39-1.2,1.54s-.13.25-.02.33l.06.04h0l1.57.97a2.287,2.287,0,0,0,.48.19,1.127,1.127,0,0,0,.4.06,3.906,3.906,0,0,0-.32-.48,1.824,1.824,0,0,0-.45-.52,1.2,1.2,0,0,0-.42-.18,1.426,1.426,0,0,0-.43-.03c.32-.15.57-.26.77-.33a1.4,1.4,0,0,1,1.08-.11,1.84,1.84,0,0,1,.71.66c.42.58.65.88.65.89a6.679,6.679,0,0,0,.73.64,2.031,2.031,0,0,0,.55.31Zm2.84-2.48a18.7,18.7,0,0,1-.33,1.95,3.067,3.067,0,0,1-.5,1.13,2.981,2.981,0,0,1-.51.48l.52-3.32a3.373,3.373,0,0,1,.47-.62c.24-.3.39-.48.46-.56C82.31,71.15,82.27,71.47,82.24,71.72Zm5.84,1.54c.04.14.1.34.17.6a2.153,2.153,0,0,1,.02.49c0,.24-.02.5-.04.77,0,.07-.04.12-.12.17a.533.533,0,0,1-.24.06l-.94.12v.01l-.1.01-.17.02V75.5l-.86.07c-.09,0-.16-.06-.21-.19a3.113,3.113,0,0,0-.17-.43c-.05.02-.12.13-.22.34s-.2.31-.3.31l-2.18-.12a.245.245,0,0,1-.18-.11.281.281,0,0,1-.04-.2c.05-.19.09-.33.12-.44a4.505,4.505,0,0,1,.29-.79,1.258,1.258,0,0,1,.18-.34.473.473,0,0,1,.19-.17c0,.02-.02.11-.05.26s-.05.26-.06.32a.624.624,0,0,0,.01.28.18.18,0,0,0,.18.11l1.92.07a4.6,4.6,0,0,0-.19-1c-.12-.53-.18-.81-.18-.82s.08-.21.23-.56.23-.55.25-.59c.07.26.15.6.25,1.02.04.15.09.37.16.64a8.8,8.8,0,0,0,.32,1.04c.07.16.15.22.24.21l.32-.03.92-.12a.172.172,0,0,0,0-.13,10.646,10.646,0,0,0-.33-1.18c-.09-.31-.19-.64-.29-.99-.07-.05-.11-.08-.14-.1a.9.9,0,0,1-.16-.14c.08-.27.15-.51.2-.69.1-.37.17-.57.21-.57a1.8,1.8,0,0,1,.07.22.492.492,0,0,0,.16.29c.17.1.32.2.45.27a1.739,1.739,0,0,0,.53.21l-.45,1.09A3.633,3.633,0,0,1,88.08,73.26Zm2.2,1.65-1.36-3.05a3.489,3.489,0,0,1,.07-.74c.05-.36.08-.58.1-.68.17.35.31.63.42.86a18.483,18.483,0,0,1,.78,1.79,2.137,2.137,0,0,1-.01,1.82Zm1.34-4.65c-.02.08-.04.17-.07.27a2.073,2.073,0,0,1-.48-.02.918.918,0,0,1-.39-.12c.05-.24.08-.42.11-.55.02-.09.04-.16.05-.22a1.99,1.99,0,0,0,.42.11.945.945,0,0,0,.36.02.619.619,0,0,0,.08-.27q.045-.255.06-.3l.88.05a4.334,4.334,0,0,1,0,.51.788.788,0,0,1-.06.3,1.3,1.3,0,0,1-.31,0c-.34-.02-.54-.04-.59-.05A2.487,2.487,0,0,1,91.62,70.26Zm2.77,2.45a1.761,1.761,0,0,1-.31.45,1.838,1.838,0,0,1-.44.39,2.844,2.844,0,0,1-.68.27c-.3.05-.5-.02-.6-.23a1.7,1.7,0,0,1-.13-.8c0-.13.02-.45.05-.94.01-.16.02-.33.04-.51.01-.1.05-.31.1-.64.17.03.3.05.39.07.31.05.54.09.71.13a1.159,1.159,0,0,1,.42.18,1.33,1.33,0,0,1,.29.29,1.462,1.462,0,0,0,.09.13.879.879,0,0,0,.06.1,7.209,7.209,0,0,1,.1.74C94.45,72.47,94.43,72.59,94.39,72.71Zm2.68.52a4.333,4.333,0,0,1-1.36.5c-.66.12-1.01.13-1.07.04-.03-.04-.02-.07.02-.1.19-.06.38-.12.57-.19a3.36,3.36,0,0,0,.54-.26,1.761,1.761,0,0,0,.37-.45,3.883,3.883,0,0,0,.38-.8c.04-.11.09-.28.16-.52.08-.34.06-.56-.05-.67a1.767,1.767,0,0,0-.82-.19c-.15-.02-.36-.03-.64-.06-.08-.19-.15-.34-.19-.43a2.337,2.337,0,0,1-.2-.54c.56.07.87.11.92.11a2.5,2.5,0,0,1,1.2.58,2.7,2.7,0,0,1,.43.51,2.184,2.184,0,0,1,.27,1.19A1.615,1.615,0,0,1,97.07,73.23ZM95.6,68.36a2.442,2.442,0,0,1-.31-.61c-.14-.3-.23-.5-.26-.59.34.19.62.34.83.47a17.549,17.549,0,0,1,1.65,1.02,2.423,2.423,0,0,1,.77.84,2,2,0,0,1,.17.61Zm6.73-.69c-.48.53-.77.78-.88.74a1.067,1.067,0,0,1-.19.84,4.651,4.651,0,0,1-1.25.93c-.65.33-1,.46-1.07.4s-.08-.1-.03-.14c.2-.12.41-.23.61-.35a1.863,1.863,0,0,0,.5-.41,2.024,2.024,0,0,0,.33-1.29c-.02-.62-.15-.97-.38-1.08a1.776,1.776,0,0,0-.87.07c-.15.02-.37.07-.66.14-.13-.15-.24-.27-.3-.34a2.256,2.256,0,0,1-.34-.44c.59-.1.91-.16.95-.17a2.61,2.61,0,0,1,1.34.17,2.03,2.03,0,0,1,.56.35,2.365,2.365,0,0,1,.67.9,2.434,2.434,0,0,1,.12.39c.03-.07.16-.29.4-.68a4.03,4.03,0,0,0,.46-1.02,3.144,3.144,0,0,0-.07-1.44c-.15-.45-.36-.7-.63-.76a.972.972,0,0,0-.18-.01,1.857,1.857,0,0,1,.41.45.771.771,0,0,1-.15.62.823.823,0,0,1-.69.43,1.9,1.9,0,0,1-.68-.14,2.115,2.115,0,0,1-.69-.67c-.29-.36-.37-.62-.27-.79a1.324,1.324,0,0,1,.82-.36,3.359,3.359,0,0,1,1.25-.06,2.778,2.778,0,0,1,1.56.81,1.288,1.288,0,0,1,.29,1.56A9.037,9.037,0,0,1,102.33,67.67Z" transform="translate(-48.25 -60.48)"/><path class="a" d="M111.99,60.48C108.82,73.79,98,83.33,85.14,83.33c-12.82,0-23.61-9.61-26.82-22.85H48.25c3.42,19.35,18.63,33.86,36.89,33.86,18.17,0,33.34-14.64,36.84-33.86h-9.99Zm2.27,2.45a16.424,16.424,0,0,1,1.89.02,2.542,2.542,0,0,1,1.06.28,2.013,2.013,0,0,1,.47.38l-3.26.06a2.449,2.449,0,0,1-.57-.34c-.27-.18-.44-.3-.52-.36C113.71,62.95,114.02,62.94,114.26,62.93ZM77.35,84.1a2.456,2.456,0,0,0,.19-.17,1.512,1.512,0,0,0,.2.35c.11.16.18.24.22.25.02.01.1-.04.24-.17.14-.11.22-.18.24-.19l.49.63c-.12.13-.25.27-.38.39s-.21.18-.23.17a2.267,2.267,0,0,1-.26-.3c-.16-.19-.23-.3-.24-.3l-.22.16a.991.991,0,0,0-.21.17,1.175,1.175,0,0,1-.31-.32,3.5,3.5,0,0,1-.18-.31Q77.215,84.205,77.35,84.1ZM56.63,62.97a1.108,1.108,0,0,1,.14-.29q.375.21.54.3a1.75,1.75,0,0,0,.23.13,1.114,1.114,0,0,0-.17.32.657.657,0,0,0-.08.31c.01.03.11.08.28.17a2.436,2.436,0,0,1,.28.17l-.22.72c-.18-.07-.36-.14-.53-.22s-.26-.14-.26-.16a1.771,1.771,0,0,1,.1-.37c.05-.22.09-.33.09-.34-.08-.05-.17-.11-.24-.16a1.172,1.172,0,0,0-.25-.14A1.182,1.182,0,0,1,56.63,62.97Zm-1.98,9.01a4.028,4.028,0,0,1-.58-.13c-.19-.06-.29-.1-.3-.13a3.281,3.281,0,0,1,.04-.45,3.2,3.2,0,0,0,.04-.42c-.02-.01-.11-.05-.29-.12a1.773,1.773,0,0,0-.28-.12,2.5,2.5,0,0,1,.04-.48,1.262,1.262,0,0,1,.07-.39c.3.09.49.17.6.21s.19.08.25.11a1.738,1.738,0,0,0-.12.41c-.03.2-.04.33,0,.36a.551.551,0,0,0,.18.1c.27.11.42.17.43.18Zm.05-2.61h0l-.03-.07-.03-.07h0l-.41-1.01h-.01l-.39-1.08h-.01l-.31-.87a.476.476,0,0,1,.2-.57c.2-.1.4-.2.6-.29a.914.914,0,0,0-.42-.16c-.38-.1-.58-.23-.58-.39a6.2,6.2,0,0,0-.07-.79,8.2,8.2,0,0,0-.07-.84,3.8,3.8,0,0,1,.81.14,2.991,2.991,0,0,1,.86.3,4.6,4.6,0,0,1,.45.4c.22.2.46.43.73.68a.482.482,0,0,0,.15-.07.292.292,0,0,1,.15-.06c.15.05.26.09.35.12.32.09.58.16.8.22a4.206,4.206,0,0,1-.73.29c-.44.16-.87.31-1.3.48a5.457,5.457,0,0,0-.68.28.264.264,0,0,0-.09.23c.02.08.05.2.1.36l.02.06.42,1.13h0l.51,1.23.9,1.92a3.506,3.506,0,0,0,.39-.39,3.2,3.2,0,0,0,.42-.55c.1.02.28.04.54.07.17.01.36.03.58.04-.11.17-.21.31-.28.4a2.726,2.726,0,0,1-.66.66,1.957,1.957,0,0,1-.3.16,3.815,3.815,0,0,1-.45.15.5.5,0,0,1-.12.03c-.05.01-.2.05-.43.11a4.447,4.447,0,0,1-.5.11Zm1.99,3.06c.14-.05.34-.12.6-.22l.92,1.56a.923.923,0,0,0,.34-.43,1.5,1.5,0,0,0,.16-.52q.015-.09.03-.3a.9.9,0,0,0-.01-.24l1.15-.23a1.207,1.207,0,0,1-.02.41,1.732,1.732,0,0,1-.19.62,2.473,2.473,0,0,1-.4.61,1.885,1.885,0,0,1-.45.39.289.289,0,0,1-.1.06c-.04.02-.1.06-.18.1a3.564,3.564,0,0,1-.68.31c-.27.09-.44.06-.52-.06l-1.11-1.93A1.926,1.926,0,0,0,56.69,72.43Zm16.78,13.4c-.05.14-.12.35-.21.62a4.133,4.133,0,0,1-.25.45c-.13.21-.28.43-.44.66a.169.169,0,0,1-.17.08.357.357,0,0,1-.19-.06l-.92-.41.01-.01-.9-.45h0l-.05-.03-.08-.04h0l-.85-.47v.01l-.63-.36.05-.35-.31.18-1-.65v-.08c-.02-.1-.03-.16-.06-.18s-.06,0-.14.03a.249.249,0,0,1-.16.02l-1.05-.75v-.17c-.01-.06-.01-.09-.02-.1a.428.428,0,0,1-.13.05.312.312,0,0,1-.24-.06l-.59-.46.01-.01-.8-.64v.01l-.83-.75h0l-.83-.79.19-.59c-.11.04-.21.07-.3.1a2.105,2.105,0,0,1-.32.08l-1.13-1.19.01-.01-.7-.78h0l-.03-.04-.07-.08h0l-.61-.75-.01.01-.45-.58a2.938,2.938,0,0,1-1.33.08,1.377,1.377,0,0,1-1.03-.5,2.5,2.5,0,0,1-.37-1.06c-.1-.48-.08-.76.05-.82a.059.059,0,0,1,.09.03,4.089,4.089,0,0,0,.16.42,2.7,2.7,0,0,0,.17.38,2.472,2.472,0,0,0,.21.27,1,1,0,0,0,.31.21,4.781,4.781,0,0,0,.68.34,2.562,2.562,0,0,0,.73.17,2.637,2.637,0,0,1-.29-.49c-.19-.48-.14-.8.16-.99A3.69,3.69,0,0,1,59.94,75c.68-.13,1.1-.1,1.27.12.11.16.07.4-.13.73a3.641,3.641,0,0,1-.78.92l.19.25h0l.83,1.01h0l.77.86-.01.01.95,1a.973.973,0,0,0,.05-.39.624.624,0,0,0-.19-.45.789.789,0,0,0-.15-.12c-.05-.04-.08-.06-.11-.08a3.65,3.65,0,0,1,.4-.14c.25-.09.46-.16.62-.2a.572.572,0,0,1,.22.01,1.576,1.576,0,0,1,.66.36,1,1,0,0,1,.3.85.761.761,0,0,1-.62.82,2.164,2.164,0,0,0-.36.14l.28.25h0l.85.76h0l.99.8-.01.01.62.48a.188.188,0,0,0,.21-.04,1.265,1.265,0,0,0,.17-.21c.21-.12.36-.2.47-.25a1.679,1.679,0,0,1,.59-.23,4.28,4.28,0,0,1-.62.63c-.1.09-.25.21-.44.37l.88.62a.12.12,0,0,0,.15,0,.571.571,0,0,0,.14-.16.635.635,0,0,0,.07-.12,7.928,7.928,0,0,1,.75-.41.811.811,0,0,1,.29-.09c-.04.05-.08.1-.13.16s-.13.19-.25.39a4.492,4.492,0,0,1-.39.46c-.03.03-.06.07-.1.12l.59.37c.02.01.03,0,.06-.04a1.438,1.438,0,0,0,.09-.2,1.439,1.439,0,0,1,.09-.2,5.387,5.387,0,0,1,.52-.3c.21-.11.34-.16.38-.14l-.41.81a.592.592,0,0,0-.06.32.3.3,0,0,0,.08.22l.1.06,1.08.59,1.01.5v.01l.7.31c.02-.01.04-.05.07-.12.08-.18.2-.58.39-1.22.09-.32.2-.66.3-1.02-.03-.08-.05-.13-.06-.17a.735.735,0,0,1-.05-.2c.21-.2.38-.37.53-.51.29-.28.45-.42.49-.4,0,0-.02.08-.06.23a.528.528,0,0,0-.03.34,4.221,4.221,0,0,0,.22.47,1.452,1.452,0,0,0,.29.47l-.96.71A2.851,2.851,0,0,0,73.47,85.83Zm2.18-.92c-.18.76-.37,1.42-.56,1.98a3.576,3.576,0,0,1-.58,1.1,2.563,2.563,0,0,1-.48.44l.85-3.37a3.638,3.638,0,0,1,.5-.6c.25-.27.42-.45.49-.51C75.78,84.34,75.7,84.66,75.65,84.91Zm7.89,7.13c-.12.15-.2.23-.22.23a2.558,2.558,0,0,1-.36-.26c-.17-.15-.28-.25-.33-.29l-.27.27a1.028,1.028,0,0,0-.14.16,1.724,1.724,0,0,1-.39-.26,1.669,1.669,0,0,1-.29-.31q.375-.435.48-.54a.9.9,0,0,0,.09-.1,3.641,3.641,0,0,0,.3.31.916.916,0,0,0,.31.22c.02,0,.1-.07.22-.21a1.39,1.39,0,0,1,.23-.26l.68.59A3.331,3.331,0,0,1,83.54,92.04Zm2.94-1.61-.11.01v-.01h-.99l-1.11-.03v.01l-.53-.02a.568.568,0,0,1-.49-.37,1.553,1.553,0,0,1-.11-.43l-.38.72-1.21-.13v.01l-1.12-.15h0l-.03-.01-.11-.01v-.01l-.89-.16v.01l-.82-.18a.521.521,0,0,1-.39-.49c-.01-.25-.01-.5-.01-.76a.839.839,0,0,0-.28.32c-.22.34-.4.46-.53.39-.19-.11-.41-.22-.66-.36a6.092,6.092,0,0,0-.7-.34,3.762,3.762,0,0,1,.41-.75,3.013,3.013,0,0,1,.57-.72,2.4,2.4,0,0,1,.49-.22c.24-.1.52-.22.82-.35a.6.6,0,0,0,0-.19.6.6,0,0,1,0-.19c.1-.12.17-.21.23-.28q.285-.39.48-.66a7.474,7.474,0,0,1-.04.88c-.04.52-.07,1.04-.1,1.56a8.13,8.13,0,0,0-.03.82.293.293,0,0,0,.15.2,1.138,1.138,0,0,0,.33.11l.06.01,1.21.22h0l.94.13h0l1.52.16a1.491,1.491,0,0,0,.08-.39c.02-.19.04-.37.05-.55a5.032,5.032,0,0,1,.29-.44,4.219,4.219,0,0,1,.31-.43v.06a.97.97,0,0,1-.01.17c-.01.14-.02.31-.04.48s-.05.38-.08.61a.486.486,0,0,0,.1.39.368.368,0,0,0,.3.15h.07l1.09.03h0l1.22-.01h0l1.62-.1a4.394,4.394,0,0,0-.14-.43,2.465,2.465,0,0,0-.49-.81l.37-1.15a2.3,2.3,0,0,1,.33.46,4.709,4.709,0,0,1,.39.82.794.794,0,0,1,.06.22c.02.08.03.18.05.3s.02.21.03.29.01.15.01.23c-.02.21-.04.44-.06.7s-.05.42-.06.51l-2.04.14h0l-.02.01Zm1.48,1.65c-.2.21-.33.31-.38.31-.03.02-.17-.08-.4-.27s-.34-.31-.34-.35a1.292,1.292,0,0,1,.29-.43,2.118,2.118,0,0,1,.34-.38,4.384,4.384,0,0,1,.39.34,2.034,2.034,0,0,1,.38.39C88.25,91.75,88.15,91.88,87.96,92.08Zm12.21-5.31a.382.382,0,0,1-.17.12l-.9.47-.01-.02-.91.42v.01l-1.01.42v.01l-1.03.38-.45-.45c-.01.11-.02.22-.03.32a1.8,1.8,0,0,1-.06.33l-1.49.47-.01-.02-.96.26v.01l-1.06.23v.01l-.46.11a1.357,1.357,0,0,1-.18.01.479.479,0,0,1-.27-.09,4.889,4.889,0,0,1-.29,1.21c-.24.61-.53.93-.84.99a2.991,2.991,0,0,1-1.19-.33q-.825-.39-.84-.6c0-.05,0-.08.03-.08a4.912,4.912,0,0,0,.44.25.961.961,0,0,0,.49.1,1.455,1.455,0,0,0,.47-.18,1.89,1.89,0,0,0,.57-.53c.1-.15.21-.29.31-.43a1.121,1.121,0,0,0,.29-.72,1.565,1.565,0,0,0-.35-.54c-.1-.12-.21-.24-.32-.37.06-.23.12-.46.18-.67a3.089,3.089,0,0,1,.12-.4c.18.25.37.49.56.74.28.33.55.47.82.4l.04-.01,1.07-.23h0l1.19-.32v.01l1.25-.39a1,1,0,0,0-.33-.24.608.608,0,0,0-.47-.04.669.669,0,0,0-.17.07c-.05.03-.09.05-.11.06a2.862,2.862,0,0,1,.02-.44c.02-.28.04-.5.06-.67a.436.436,0,0,1,.1-.2,1.284,1.284,0,0,1,.58-.43.947.947,0,0,1,.89.14,1.16,1.16,0,0,1,.47.5,1.1,1.1,0,0,1,.03.47,2.192,2.192,0,0,0-.02.4l.34-.13v-.01l1.02-.42h0l1.13-.52.01.01.69-.35c.01-.02-.01-.06-.05-.13a12.747,12.747,0,0,0-.71-1.09c-.19-.28-.4-.58-.62-.9a1.833,1.833,0,0,1-.17-.07.816.816,0,0,1-.19-.09c-.03-.29-.05-.54-.06-.74-.03-.4-.04-.63,0-.65a2.241,2.241,0,0,1,.14.2.61.61,0,0,0,.25.24q.285.09.51.15a1.641,1.641,0,0,0,.55.07l-.05,1.21c.02.03.16.27.43.7.08.13.2.31.36.56a3.349,3.349,0,0,1,.19.49c.08.24.16.5.24.77A.22.22,0,0,1,100.17,86.77Zm-.44-3.6a3.4,3.4,0,0,1-.15-.79c-.05-.37-.08-.61-.09-.71.25.32.46.58.62.79a20.285,20.285,0,0,1,1.19,1.7,3.617,3.617,0,0,1,.49,1.15,2.347,2.347,0,0,1,.04.66Zm2.47-2.54a2.4,2.4,0,0,1-.4.03c-.26,0-.39-.01-.4-.01a2.453,2.453,0,0,1-.02.27,1.076,1.076,0,0,0,.01.3,1.539,1.539,0,0,1-.46.02,1.79,1.79,0,0,1-.36-.05v-.57a1.652,1.652,0,0,0,0-.24.992.992,0,0,0,.39.05.915.915,0,0,0,.33-.01c.02-.01.03-.11.04-.29a1.379,1.379,0,0,1,.02-.3h.82a4.554,4.554,0,0,1,.04.53C102.22,80.53,102.22,80.62,102.2,80.63Zm15.01-15.38a1.245,1.245,0,0,0-.15.19,1.631,1.631,0,0,0-.11.28c.02.02,0,.07-.02.15a.461.461,0,0,1-.05.14l-.3.87h.01l-.44,1.17h.01l-.48,1.17h0l-.28.64c-.02.05.03.12.17.22.12.09.18.17.16.26l-1.81,1.29c0,.04.08.12.24.26a.352.352,0,0,1,.05.48l-.24.45h0l-.58,1.08-.01-.01-.53.91.01.01-.5.76c-.01.06-.05.08-.11.09a.2.2,0,0,1-.16-.04l-.46-.26c.04.05.11.17.23.36s.18.3.19.32l-.29.44.01.01-.72.97h0l-.71.92.01.01-.47.58a1.723,1.723,0,0,0-.3.01c-.42.02-.65.03-.71.04a2.994,2.994,0,0,1,.12.32,3.774,3.774,0,0,0,.17.45l-1.08,1.17.01.01-.86.82h0l-.82.73.01.01-.66.56a.522.522,0,0,1-.63.01c-.2-.15-.38-.27-.58-.43a.747.747,0,0,0,.05.41c.12.38.1.6-.05.66-.19.09-.44.19-.71.3-.38.19-.62.29-.72.35a4.273,4.273,0,0,1-.31-.79,3.191,3.191,0,0,1-.2-.91,3.247,3.247,0,0,1,.14-.53c.09-.25.17-.55.27-.87a1.015,1.015,0,0,0-.14-.12.434.434,0,0,1-.14-.12c-.03-.15-.05-.27-.07-.36-.07-.3-.13-.56-.19-.78a4.837,4.837,0,0,1,.65.56c.38.35.76.7,1.14,1.04s.59.52.61.53a.363.363,0,0,0,.27.01,1.262,1.262,0,0,0,.29-.21l.05-.04.85-.76h0l.83-.79h0l1.13-1.23-2.1-.09c-.12-.15-.26-.34-.41-.55s-.31-.47-.48-.76l1.14-2.15.71.86a4.005,4.005,0,0,1-.26.49c-.38.69-.61,1.1-.67,1.23l2.96-.05.15-.17h0l.72-.91h0l.7-.93h0l.56-.82-2.56-1.18q-.15-.3-.24-.45c-.17-.32-.28-.53-.32-.63a7.416,7.416,0,0,1,1.5.68c.99.49,1.57.78,1.74.88s.27.09.34-.01l.04-.06.68-1.13h0l.57-1.04h.01l.37-.67c.02-.07-.01-.14-.09-.22a1.879,1.879,0,0,1-.36-.42,1.471,1.471,0,0,1-.22-.74,1.18,1.18,0,0,1,.07-.69.36.36,0,0,1,.17-.19.391.391,0,0,1,.17.02c.02.01.07.02.13.04a.582.582,0,0,0,.19.03,2.365,2.365,0,0,0,.63-.09c.27-.06.43-.13.46-.22l.03-.07.46-1.1h0l.43-1.12h0l.32-.91c0-.02-.04-.04-.14-.06a11.86,11.86,0,0,0-1.2-.08c-.31-.01-.64-.03-.99-.04-.07.05-.13.08-.16.1-.11.06-.18.1-.2.09-.17-.14-.34-.27-.5-.4-.27-.22-.39-.35-.37-.41a1.358,1.358,0,0,0,.29.03.406.406,0,0,0,.25-.06c.21-.17.41-.32.58-.45a1.412,1.412,0,0,0,.33-.31c.14.15.24.27.31.35.21.24.34.39.38.43.04.01.28.03.74.07.14.01.34.03.6.05.11.01.29-.12.52-.38s.4-.39.56-.37a1.288,1.288,0,0,1,.56.21,1.877,1.877,0,0,1,.34.3,1.669,1.669,0,0,1-.25.13A.973.973,0,0,0,117.21,65.25Z" transform="translate(-48.25 -60.48)"/></g><g transform="translate(41.18 5.44)"><path class="a" d="M78.67,53.23c1.44-1.21,2.76-2.32,4.18-3.51-.94-.76-1.8-1.52-2.72-2.18-2.37-1.73-4.67-3.58-7.17-5.09a22.916,22.916,0,0,0-11.8-3.35c-.01-.08-.03-.15-.04-.23,1.38-.26,2.74-.65,4.13-.77,5.37-.43,9.95,1.53,14.01,4.9,1.92,1.6,3.81,3.24,5.77,4.9,1.76-1.48,3.52-2.91,5.22-4.41a20.537,20.537,0,0,1,11.08-5.32,15.546,15.546,0,0,1,7.79.92c-7.07.15-12.8,3.16-17.97,7.48-1.27,1.06-2.58,2.07-3.93,3.15,1.4,1.17,2.73,2.29,4.07,3.41.07-.03.14-.06.2-.09a11.9,11.9,0,0,0-.19-1.46c-.14-.56-.28-1.09.48-1.27a1.161,1.161,0,0,1,1.46.98,2.876,2.876,0,0,1-.43,1.42,1.053,1.053,0,0,0,.21,1.6c.1.08.18.18.28.26,1,.93,1.32.9,2.19-.21a2.949,2.949,0,0,1,3.5-.54,2.025,2.025,0,0,1,.43,2.38,3.312,3.312,0,0,1-4.46,1.94,10.877,10.877,0,0,1-2.18-1.1,22.858,22.858,0,0,1-1.94-1.5,23.843,23.843,0,0,1-1.68,1.81.941.941,0,0,1-1.63-.32c-.36-.74-.06-1.28.76-1.31.53-.02.97-.08,1.12-.75-1.36-1.09-2.72-2.2-4.1-3.29a.6.6,0,0,0-.58.04q-1.875,1.455-3.71,2.96c-.46.37-.35.82.21.99.14.04.32-.01.45.05.34.17.88.33.92.57a1.351,1.351,0,0,1-.41,1.12,1.122,1.122,0,0,1-1.08.05,12.716,12.716,0,0,1-1.53-1.58c-.1-.11-.19-.24-.28-.35-.87.63-1.67,1.29-2.55,1.84a4.948,4.948,0,0,1-3.76.93,3.656,3.656,0,0,1-2.54-2.71c-.22-1.38.67-2.24,2.25-2.13a2.441,2.441,0,0,1,1.96,1.01c.69.95,1.1.95,1.98.17,1.05-.94,1.05-.94.41-2.21-.49-.97-.24-1.85.58-2.11.89-.27,1.37.17,1.18,1.06-.09.42-.17.85-.24,1.27A2.737,2.737,0,0,0,78.67,53.23Z" transform="translate(-61.12 -5.44)"/><path class="a" d="M96.18,16.65a4.136,4.136,0,0,0-2.59-4.27,27.893,27.893,0,0,0-3.98-.99,5.038,5.038,0,0,0-.61-.06c.84-.81,1.27-.78,5.16.3A6.564,6.564,0,0,0,88.3,9.09c.42-.58.68-.65,2.51-.68-.82-1.23-2.53-1.18-4.93.16-.29-1.05-.59-2.09-.88-3.13h0c-.29,1.04-.58,2.08-.88,3.13-2.4-1.34-4.11-1.39-4.93-.16,1.83.04,2.09.1,2.51.68a6.564,6.564,0,0,0-5.86,2.54c3.89-1.08,4.32-1.11,5.16-.3a4.839,4.839,0,0,0-.61.06,27.893,27.893,0,0,0-3.98.99,4.136,4.136,0,0,0-2.59,4.27c1.33-2.48,3.5-3.87,5.23-3.2a8.028,8.028,0,0,0-3.69,3.18,4.778,4.778,0,0,0,0,4.65c.38-1.18.68-2.4,1.17-3.53a4.237,4.237,0,0,1,2.78-2.52c-2.61,3.97-2.74,6.17-.53,7.68-.46-2.98.47-4.93,1.69-5.53,0,1.36-.1,2.81.03,4.23a4.925,4.925,0,0,0,1.96,3.75c.52-5.04.54-5.14,1.33-5.66-.13,3.38-.23,6.7-.41,10.01-.04.78.09,7.55-1.86,8.89a12.6,12.6,0,0,0-2.08,1.25c-.45.64-.2,1.19.57,1.36a3.876,3.876,0,0,0,.76.04h8.44a3.836,3.836,0,0,0,.76-.04c.76-.17,1.01-.72.57-1.36a12.2,12.2,0,0,0-2.08-1.25c-1.95-1.33-1.81-8.11-1.86-8.89-.19-3.31-.28-6.63-.41-10.01.79.52.82.62,1.33,5.66a4.894,4.894,0,0,0,1.96-3.75c.13-1.43.03-2.87.03-4.23,1.22.6,2.15,2.55,1.69,5.53,2.21-1.51,2.08-3.71-.53-7.68a4.213,4.213,0,0,1,2.78,2.52c.49,1.14.79,2.35,1.17,3.53a4.8,4.8,0,0,0,0-4.65,8.028,8.028,0,0,0-3.69-3.18C92.68,12.78,94.85,14.17,96.18,16.65Z" transform="translate(-61.12 -5.44)"/></g></g><g transform="translate(0 14.726)"><g transform="translate(0 3.313)"><path class="a" d="M27.85,170.42q4.776-2.161,5.389-6.492a7.457,7.457,0,0,0,.053-.889,1.49,1.49,0,0,0-1.352-1.779,10.362,10.362,0,0,0-1.619-.036,8.208,8.208,0,0,1-1.725-.053,2.345,2.345,0,0,1-1.921-1.334c1.512-1.583,2.472-2.348,2.864-2.294.267.036.5.267.694.658a.614.614,0,0,0,.16.142c.3.036.658-.5,1.067-1.619a13.038,13.038,0,0,0,.729-2.65,1.768,1.768,0,0,0,.018-.6,1.29,1.29,0,0,0-.872-.694c-1.1-.16-2.686,1.316-4.714,4.429-1.779,2.7-2.7,4.34-2.793,4.909-.213,1.476.2,2.49,1.245,3.042a17.637,17.637,0,0,0,4.731,1.1c-1.334,1.192-4.447,2.544-9.374,4.091-.6.213-.925.374-.943.462.018.071.125.125.356.16C21.429,171.256,24.1,171.06,27.85,170.42Z" transform="translate(1.004 -125.772)"/><path class="a" d="M52.759,187.554c2.1-1.868,3.308-5.034,3.593-9.48q.027-4.7-1.761-18.16c-1.121-8.7-1.672-13.287-1.672-13.731.836.978,1.459,1.69,1.85,2.152a1.3,1.3,0,0,0,.587.3c.142.018.231-.089.231-.3.089-1.014-1.21-4.073-3.9-9.142-.374-1.032-.747-1.565-1.085-1.6-.107-.018-.213.071-.32.231-1.263,2.6-1.725,4.233-1.387,4.874a16.234,16.234,0,0,1,.978,2.294q.374,6.643.694,9.818c.534,4.429,1.1,8.84,1.672,13.233.978,8.075,1.387,12.931,1.263,14.567-.036.374-.089.587-.178.64a67.282,67.282,0,0,1-16.506,8.822q-9.178,3.5-13.287,3.184-7.844-.614-11.295-5.051a9.427,9.427,0,0,1-2.117-6.6,30.15,30.15,0,0,1,3.326-10.192,3.915,3.915,0,0,0,.64-1.6c.036-.374-.071-.587-.3-.6-.427-.036-1.014.516-1.779,1.654a31.41,31.41,0,0,0-3.984,11.864,14.276,14.276,0,0,0,2.7,9.943c2.383,3.237,5.852,5.016,10.405,5.389q6.643.534,16.737-3.7C44.2,193.744,49.148,190.809,52.759,187.554Z" transform="translate(-7.968 -137.589)"/><path class="a" d="M50.33,173.841a19.115,19.115,0,0,1-3.646-2.081c-.889,3.237-1.334,4.767-1.334,4.625,0,.445.356.889,1.085,1.3,1.459.729,2.917,1.459,4.358,2.206a6.58,6.58,0,0,0,1.494-4.358C52.269,175.015,51.629,174.464,50.33,173.841Z" transform="translate(21.141 -110.98)"/><path class="a" d="M57.608,156.639c.978.551,1.957,1.085,2.953,1.6a6.793,6.793,0,0,0,1.3-2.49,7.006,7.006,0,0,0,.516-2.045c0-.5-1.636-1.459-4.927-2.864q-.293,0-1.121,1.974a13.032,13.032,0,0,0-.747,2.045C55.6,155.269,56.256,155.856,57.608,156.639Z" transform="translate(29.106 -127.27)"/><path class="a" d="M87.872,163.258c-1.53-2.864-.516-.3-.6-.978.48.2.089.053.783.2.409.089.623,0,.676-.231.053-.285-.16-.729-.64-1.352-1.459-1.636-2.686-2.988-3.7-4.055-.285-.409-.569-.249-.872.445-.5,1.476-.889,2.65-1.138,3.54-.142.249.053.409.587.534a40.617,40.617,0,0,0,2.081,4.678c1.6,3.148,1.405,2.615,1.565,3.5.089.48-1.174,1.3-3.575,1.6-2.988.391-3.291.3-5.425-.267a6.234,6.234,0,0,1-2.206-1.547,5.919,5.919,0,0,1-1.69-2.117,8.251,8.251,0,0,1-.338-1.352,4.373,4.373,0,0,0,.551-1.245c.2-.925-.462-.729-1.957.551-.125.107-.48.623-1.227,1.441-.729.8-2.295,2.348-2.579,2.561-1,.729-1.37,1.779-3.593,1.316-.623-.107,2.1.409,1.316.249a13.166,13.166,0,0,0-2.152-5.87q-1.788-2.8-3.2-3.095c-1.316-.267-2.775.338-4.376,1.85a10.009,10.009,0,0,0-3.042,5.229,3.571,3.571,0,0,0,.462,2.383A4.568,4.568,0,0,0,55,172.97c1.014.711,3.771,1.512,8.253,2.455a6.118,6.118,0,0,1,.2,1.583q-.347,1.307-9.783,5.283a141.663,141.663,0,0,1-18.374,6.421c-4.731,1.281-9.249,2.383-13.589,3.273-1.423.3-2.152.6-2.223.907-.036.142.125.249.445.32a6.785,6.785,0,0,0,2.152-.036,70.437,70.437,0,0,1,14.6-.516,61.05,61.05,0,0,0,10.583-3.273A90.354,90.354,0,0,0,60.2,183.162a13.166,13.166,0,0,0,4.411-5.781c.338-.8.551-1.316.658-1.565-.356-.213-.142.3,0,0,1.9-.409,2.739-1.725,3.611-3.006.551-.8,1.192-2.1,2.7-4.322a4.56,4.56,0,0,0,.053,2.935,7.4,7.4,0,0,0,2.419,2.935,6.784,6.784,0,0,0,2.579,1.423,6.931,6.931,0,0,0,4.429-.036c1.85-.587,2.668-.729,3.629-1.494a9.133,9.133,0,0,0,3.966-6.67A8.8,8.8,0,0,0,87.872,163.258Zm-31.3,3.878a1.386,1.386,0,0,1,.747-1.121,2.106,2.106,0,0,1,1.459-.089,2.4,2.4,0,0,1,1.672,1.53c.213.516.391.925.551,1.263C58.346,168.061,56.87,167.545,56.568,167.136Z" transform="translate(0.994 -122.773)"/><path class="a" d="M53.819,157.975A12.7,12.7,0,0,0,56.54,159.4c.445,0,.854-.516,1.227-1.565a6.87,6.87,0,0,0,.48-2.241c0-.569-.551-1.174-1.672-1.832a19.248,19.248,0,0,1-3.54-2.579,31.269,31.269,0,0,0-1.8,4.589C51.258,156.2,52.112,156.925,53.819,157.975Z" transform="translate(25.727 -127.005)"/><path class="a" d="M65.053,161.666c.978.551,1.957,1.085,2.953,1.6a7.715,7.715,0,0,0,1.3-2.49,7.885,7.885,0,0,0,.48-2.01c0-.551-1.636-1.512-4.891-2.917q-.347,0-1.121,1.921a14.412,14.412,0,0,0-.783,2.152C63.008,160.3,63.684,160.884,65.053,161.666Z" transform="translate(34.876 -123.369)"/><path class="a" d="M65.029,157.379a11.972,11.972,0,0,0,2.721,1.459c.48,0,.889-.516,1.263-1.565a6.991,6.991,0,0,0,.445-2.241c0-.623-.551-1.245-1.636-1.868a18.383,18.383,0,0,1-3.54-2.543,24.813,24.813,0,0,0-1.832,4.589C62.45,155.636,63.3,156.365,65.029,157.379Z" transform="translate(34.456 -127.442)"/><path class="a" d="M74.335,157.356a12.7,12.7,0,0,0,2.721,1.423c.445,0,.872-.516,1.263-1.565a6.892,6.892,0,0,0,.445-2.206c0-.623-.551-1.245-1.636-1.868a17.245,17.245,0,0,1-3.575-2.49,41.2,41.2,0,0,0-1.832,4.589C71.72,155.648,72.592,156.36,74.335,157.356Z" transform="translate(41.674 -127.418)"/><path class="a" d="M78.128,156.682c.978.551,1.957,1.1,2.953,1.636a7.319,7.319,0,0,0,1.263-2.543,8.211,8.211,0,0,0,.48-2.081c0-.5-1.619-1.459-4.856-2.864-.231,0-.6.676-1.121,2.01a14.136,14.136,0,0,0-.747,2.081C76.118,155.33,76.776,155.9,78.128,156.682Z" transform="translate(45.085 -127.278)"/><path class="a" d="M100.2,160.857c1.459.765,2.935,1.547,4.393,2.312a7.021,7.021,0,0,0,1.494-4.482c0-.5-.64-1.049-1.939-1.636a22.429,22.429,0,0,1-3.7-2.081c-.889,3.237-1.334,4.767-1.334,4.625C99.12,160.039,99.476,160.448,100.2,160.857Z" transform="translate(63.01 -124.054)"/><path class="a" d="M169.1,180.5c-1.992,0-3.824,1.6-5.514,4.8-.107-.178-.213-.267-.338-.267-.267,0-1.067.96-2.383,2.864-1.387,2.045-2.561,3.255-3.5,3.646a12.482,12.482,0,0,1-4.8.925,5.743,5.743,0,0,1-2.65-1.032,6.179,6.179,0,0,1-2.152-1.8,10.071,10.071,0,0,1-.623-1.281,4.56,4.56,0,0,0,.3-1.387c0-.978-.623-.64-1.868.978a16.9,16.9,0,0,0-.925,1.708,4.474,4.474,0,0,1-1.121,1.6,8.971,8.971,0,0,1-5.176,1.192c-3.735.053-6.652,0-8.769-.142-1.547-.107-2.668-.178-3.4-.231a38.113,38.113,0,0,0,5.674-2.455q4.509-4.669,4.518-7.826a4.878,4.878,0,0,0-.107-1.049,7.845,7.845,0,0,0-2.348-2.864,11.059,11.059,0,0,0-7.168-2.383q-5.6,0-14.763,9.48a31.58,31.58,0,0,0,.445-9.925q-.907-7.844-3.2-18.267-1.894-8.511-1.761-9.552a7.407,7.407,0,0,0,1.868,2.01,1.239,1.239,0,0,0,.516.267q1.147,0-4.073-9.214c-.6-1.067-.96-1.6-1.085-1.6-.071,0-.142.071-.178.231-1,3.059-1.423,4.678-1.263,4.856.249.516.427.854.516,1.014a4.335,4.335,0,0,1,.338.6q1.334,7.9,2.241,12.2.187,1.121,2.312,11.419c.854,4.127,1.423,7.791,1.761,11.01a46.958,46.958,0,0,1-.071,6.83c-1.316,1.387-2.828,3.166-4.518,5.3-1.1.107-1.37.16-1.832.16-1.708.018-2.17.071-3.059.018a8.836,8.836,0,0,1-4.162-.907A16.106,16.106,0,0,0,99.6,188.61c.694-.943,1.049-2.615,1.085-5a11.589,11.589,0,0,0-1.636-5.443c-1.1-1.992-2.117-2.988-3.059-2.988q-4.562,0-4.553,8.057a20.625,20.625,0,0,0,1.192,6.706,18.7,18.7,0,0,1-4.127,2.028c-2.472.836-2.277.8-2.561.854-3.166.64-3.522,0-5.656-2.472-.2-.231-1.1-1.636-2.686-4.251-1.014-1.636-1.992-2.455-2.917-2.455-1.814,0-3.717,1.049-5.71,3.166a24.039,24.039,0,0,0-4.589,7.31c-.854,2.063-1.708,4.144-2.579,6.225-.943,1.743-2.17,2.615-3.646,2.615-1.708,0-3.077-1.423-4.109-4.251a19.436,19.436,0,0,1-1.227-6.795c0-.569.018-1.3.071-2.206.107-1.174.16-2.223.178-3.166.053-1.174-.089-1.761-.409-1.761-.3,0-.534.516-.711,1.53a39.725,39.725,0,0,0-.711,6.528,20.154,20.154,0,0,0,2.455,10.3q2.348,3.949,5.336,3.949c1.619,0,3.006-1.245,4.18-3.735,1.1-2.668,2.17-5.318,3.237-7.986a13.213,13.213,0,0,1,3.415-4.233c1.654-1.459,2.97-2.152,3.966-2.063.747.053,1.459.765,2.17,2.17a20.189,20.189,0,0,0,2.65,4.215c2.455,2.686,3.806,2.739,3.806,2.739,1.37.125,1.814-.036,4.785-1.227a32.6,32.6,0,0,0,6.972-3.717c1,1.921,1.565,2.846,3.308,3.664,1.832.836,3.86.623,6.457.623,5.763,0,7.239-.943,15.741-3.219.3,1.21.729,1.9,1.263,2.045a12.023,12.023,0,0,0,3.593.729l4.411.32c2.935.231,6.048.338,9.32.338a6.849,6.849,0,0,0,4.927-1.974,17.219,17.219,0,0,0,2.65-4.322,4.658,4.658,0,0,0,.676,2.953,7.824,7.824,0,0,0,3.059,2.455,6.844,6.844,0,0,0,2.917.889,8.3,8.3,0,0,0,6.421-3.13,39.013,39.013,0,0,0,2.917-4.482,13.379,13.379,0,0,0,4.731,3.611,11.031,11.031,0,0,0,4.251,1.387c.854,0,1.583-.6,2.241-1.832a7.986,7.986,0,0,0,.854-3.611,15.166,15.166,0,0,0-1.121-6.225C171.959,181.477,170.714,180.5,169.1,180.5ZM92.95,183.843c.356-1.619.551-2.49.6-2.65a1.3,1.3,0,0,1,1.227-.978,4.3,4.3,0,0,1,2.348,1.423,5.884,5.884,0,0,1,1.974,3.237,17,17,0,0,1-4.251,3.771C93.911,186.475,93.27,184.875,92.95,183.843Zm23.923,6.688a62.042,62.042,0,0,1-7.862,1.263q10.219-11.526,15.955-11.526,4.376,0,8.982,4.251Q128.026,188.014,116.873,190.531Zm50.39-2.383c-.142-.107-.783-.658-1.9-1.672a3.5,3.5,0,0,1,2.455-.818,1.979,1.979,0,0,1,1.547,1.1,4.537,4.537,0,0,1,.765,2.437A6.179,6.179,0,0,1,167.263,188.147Z" transform="translate(25.727 -136.723)"/><path class="a" d="M128.676,157.5c.445,0,.872-.516,1.263-1.565a6.893,6.893,0,0,0,.445-2.206c0-.623-.551-1.245-1.636-1.868a17.244,17.244,0,0,1-3.575-2.49,29.99,29.99,0,0,0-1.832,4.589c0,.427.872,1.138,2.615,2.117A11.792,11.792,0,0,0,128.676,157.5Z" transform="translate(81.87 -128.415)"/><path class="a" d="M129.718,154.832c1,.551,1.992,1.085,2.988,1.636a8.391,8.391,0,0,0,1.263-2.543,8.212,8.212,0,0,0,.48-2.081c0-.5-1.619-1.459-4.856-2.864-.231,0-.6.676-1.156,2.01a14.135,14.135,0,0,0-.747,2.081Q127.717,153.658,129.718,154.832Z" transform="translate(85.257 -128.719)"/><path class="a" d="M136.351,169.717c-.2-.872-1.156-2.312-2.864-4.34a94.4,94.4,0,0,0,6.528-7.239,6.763,6.763,0,0,0,1.121-3.184c.053-.569-.018-.872-.231-.889-.32-.036-.872.516-1.654,1.672-2.828,3.13-5.3,5.781-7.453,7.933a50.022,50.022,0,0,1-4.5-4.767c1.032-.018,1.761-.018,2.134,0,.391.018.587-.053.6-.2.018-.231-.569-.729-1.761-1.53-.96-.676-1.939-1.334-2.917-1.992a9.46,9.46,0,0,1-1.654-1.334c-.16-.018-.249.089-.267.3-.107,1.032-.3,2.472-.569,4.287-.089.267.142.427.676.48a25.394,25.394,0,0,0,5.55,7.737,19.373,19.373,0,0,0-3.131,4.482,23.38,23.38,0,0,0-2.366,7.026c-.249,2.4.534,3.806,2.366,4.215.96.231,2.561-.231,4.767-1.387a11.843,11.843,0,0,0,3.878-2.7,10.9,10.9,0,0,0,1.921-5.158A10,10,0,0,0,136.351,169.717Zm-1.156,5.229a15.231,15.231,0,0,1-3.024,2.419,8.136,8.136,0,0,1-3.878,1.53q-1.334,0-1.334-1.121a10.361,10.361,0,0,1,1.281-3.949,21.858,21.858,0,0,1,2.6-4.251c2.988,2.579,4.482,4.269,4.482,5.034A.78.78,0,0,1,135.194,174.946Z" transform="translate(81.488 -124.927)"/><path class="a" d="M162.212,163.151a5.824,5.824,0,0,0-3.913-1.281q-5.523,0-11.882,5.923-5.149,5.523-10.316,11.028-5.763,5.923-9.729,5.959c-1.832,0-2.81-1.352-2.953-4.055q-.267-5.469,3.486-13.607a4.02,4.02,0,0,0,.48-1.423c0-.178-.053-.267-.178-.267-.391,0-.747.338-1.1,1.014q-4.135,8.084-4.144,14.763a7.939,7.939,0,0,0,1.992,5.443,6.058,6.058,0,0,0,4.8,2.241q2.908-.027,7.737-5.265,8.911-9.685,11.4-11.9,5.1-4.509,9.018-4.518c2.543,0,4.251.889,5.176,2.686.16.427.338.64.516.64.267,0,.534-.587.783-1.761a11.827,11.827,0,0,0,.3-2.419A3.946,3.946,0,0,0,162.212,163.151Z" transform="translate(80.795 -118.681)"/><path class="a" d="M165.889,181.222c-1.992,0-3.824,1.6-5.514,4.8-.107-.178-.213-.267-.338-.267-.267,0-1.067.96-2.383,2.864-1.387,2.045-2.561,3.255-3.5,3.646a12.482,12.482,0,0,1-4.8.925c-1.441,0-2.9-.836-4.358-2.49-1.868-2.117-3.024-5.051-3.5-8.84-.267-3.255-.534-6.51-.783-9.765q-.774-8.991-2.117-17.556a78.083,78.083,0,0,0-2.348-10.1c-1.121-3.753-1.992-5.638-2.615-5.638a.33.33,0,0,0-.3.178c-.445,1.832-.854,3.344-1.192,4.518,0,.142.445,1.69,1.334,4.625a50.846,50.846,0,0,1,1.9,7.613q1.467,9.658,2.579,20.775,1.014,9.952,2.081,13.5a13.63,13.63,0,0,0,3.024,5.176c1.939,2.17,4.038,3.237,6.3,3.237a8.3,8.3,0,0,0,6.421-3.13,39.007,39.007,0,0,0,2.917-4.482,13.379,13.379,0,0,0,4.731,3.611,11.031,11.031,0,0,0,4.251,1.387c.854,0,1.583-.6,2.241-1.832a7.986,7.986,0,0,0,.854-3.611,15.223,15.223,0,0,0-1.121-6.225C168.753,182.218,167.508,181.222,165.889,181.222Zm-1.832,7.648c-.142-.107-.783-.658-1.9-1.672a3.5,3.5,0,0,1,2.455-.818,1.979,1.979,0,0,1,1.547,1.1,4.536,4.536,0,0,1,.765,2.437A6.179,6.179,0,0,1,164.057,188.87Z" transform="translate(88.715 -136.646)"/><path class="a" d="M164.977,175.447c-2.455,1.476-3.949,2.206-4.482,2.206a4.866,4.866,0,0,1-3.113-1.761c1.138-1.1,1.868-1.672,2.206-1.708a.818.818,0,0,1,.783.445,3.641,3.641,0,0,0,.694.925c.267.018.516-.3.783-.978a4.514,4.514,0,0,0,.3-1.1c0-1.049-.427-1.583-1.263-1.583-.889,0-1.974.694-3.237,2.063s-1.885,2.508-1.885,3.415a2.034,2.034,0,0,0,.818,1.441,2.6,2.6,0,0,0,1.6.783,5.191,5.191,0,0,0-1.725,1.227l-.747,1.138a1.509,1.509,0,0,0-.32.783c0,.551.374.534,1.1-.089a25.817,25.817,0,0,1,4.607-2.988,15.25,15.25,0,0,0,3.2-1.974,2.72,2.72,0,0,0,.872-2.01C165.155,175.5,165.084,175.43,164.977,175.447Z" transform="translate(106.827 -110.879)"/><path class="a" d="M156.036,145.066c.48,4.927.8,8.68,1.014,11.295q2.375,21.4,3.735,32.07a27.541,27.541,0,0,1-.036,6.3c-.2,1.583-.16,2.383.107,2.383.178,0,.445-.356.818-1.049.978-1.814,1.459-4.785,1.459-8.911,0-1.174-.053-2.366-.142-3.611q-.64-7.31-2.579-22.411-1.6-12.673-1.53-13.714a17.383,17.383,0,0,0,1.974,1.8,1.337,1.337,0,0,0,.48.231c.142,0,.231-.107.231-.3,0-.623-.6-2.206-1.8-4.731-.747-1.636-1.512-3.273-2.277-4.927-.445-1.067-.8-1.6-1.049-1.6-.107,0-.178.089-.231.267-.943,2.881-1.334,4.464-1.192,4.731A18.153,18.153,0,0,1,156.036,145.066Z" transform="translate(106.518 -137.362)"/></g><path class="a" d="M25.167,159.292a5.791,5.791,0,0,0-5.834.125,2.516,2.516,0,0,0-1.459,3.362c.765,3.006,1.636,5.976,2.33,8.982a37.159,37.159,0,0,1,.978,12.451,17.979,17.979,0,0,1-1.476,5.994c-.178.374-.409.729-.6,1.085-.071-.018-.125-.036-.2-.053a5.707,5.707,0,0,1,.125-.765,31.068,31.068,0,0,0-.213-16.488c-.818-2.793-1.547-5.6-2.277-8.431a10.985,10.985,0,0,1,.071-5.265c.6-2.544,2.4-3.664,4.767-4.162.374-.071.783-.089,1.174-.125-.587-1.654-1.885-1.832-3.646-.516a.9.9,0,0,1-.16-1.263c.462-.818,1.032-1.583,1.547-2.383.125-.178.3-.427.249-.587A20.264,20.264,0,0,0,18,144.867a1.233,1.233,0,0,0-.213-.2c-.2.338-.374.64-.658,1.156-.872-1.192-1.743-2.241-2.437-3.4-.48-.818.2-3.059,1-3.557a1.319,1.319,0,0,1,1.21.036,5.841,5.841,0,0,1,1.423,1.459,17.693,17.693,0,0,1,2.721,6.314c.125.516.338,1.014.516,1.53.089,0,.16-.018.249-.018a4.927,4.927,0,0,0,.2-.854c.178-2.49.3-4.98.516-7.453a8.879,8.879,0,0,1,.5-2.241,1.79,1.79,0,0,1,2.864-.889c1.352.907,1.9,1.69,1.512,3.326-.125.569-.249,1.138-.391,1.708a19.574,19.574,0,0,0-1.69-1.565,1.389,1.389,0,0,0-1.138-.249c-.267.125-.409.694-.445,1.067-.285,2.9-.516,5.8-.8,8.7a10.076,10.076,0,0,1-.3,1.352c.96,1.281,1.832,2.383,2.65,3.54C26.394,156.126,25.754,157.656,25.167,159.292Z" transform="translate(-2.859 -135.237)"/><path class="a" d="M119.218,152.951a4.33,4.33,0,0,0-4.358.089,1.9,1.9,0,0,0-1.1,2.508c.569,2.241,1.227,4.464,1.743,6.706a27.791,27.791,0,0,1,.729,9.3,13.166,13.166,0,0,1-1.1,4.482c-.142.285-.3.534-.445.8a.419.419,0,0,0-.142-.036,5.451,5.451,0,0,1,.089-.569,23.2,23.2,0,0,0-.16-12.326c-.6-2.081-1.156-4.2-1.708-6.3a8.239,8.239,0,0,1,.053-3.949c.445-1.9,1.8-2.739,3.557-3.113a7.244,7.244,0,0,1,.872-.089c-.445-1.227-1.405-1.37-2.721-.391-.391-.267-.267-.658-.107-.943.338-.623.783-1.192,1.156-1.779.089-.142.231-.32.2-.445a15.388,15.388,0,0,0-1.9-4.767c-.036-.053-.089-.071-.16-.142-.142.249-.267.48-.5.854a30.831,30.831,0,0,1-1.814-2.544,2.777,2.777,0,0,1,.747-2.668,1.018,1.018,0,0,1,.907.018,4.756,4.756,0,0,1,1.067,1.085,13.4,13.4,0,0,1,2.028,4.713c.107.391.249.765.391,1.138.053,0,.125-.018.178-.018a4.138,4.138,0,0,0,.142-.64c.125-1.85.231-3.717.374-5.567a6.7,6.7,0,0,1,.374-1.672,1.343,1.343,0,0,1,2.134-.676,2.054,2.054,0,0,1,1.138,2.49c-.107.427-.2.854-.285,1.281a15.439,15.439,0,0,0-1.263-1.174,1.029,1.029,0,0,0-.854-.178c-.2.107-.3.516-.338.8-.213,2.17-.391,4.34-.6,6.51a5.829,5.829,0,0,1-.231,1.014c.711.943,1.37,1.779,1.974,2.65C120.143,150.585,119.663,151.723,119.218,152.951Z" transform="translate(72.474 -135.726)"/><path class="a" d="M122.788,173.178a9.73,9.73,0,0,1-5.6,4.963,46.281,46.281,0,0,1-4.927,1.725,18.791,18.791,0,0,1-3.753.391c-1.779.089-3.557.125-5.336.178-.071,0-.142-.018-.249-.142.48-.125.96-.285,1.441-.391,2.9-.694,5.834-1.316,8.716-2.1a30.665,30.665,0,0,0,6.741-2.579,6.321,6.321,0,0,0,2.4-2.188c.267-.409.569-.818.854-1.209.2-.267.374-.551.8-.356.071.036.213-.107.338-.178a10.515,10.515,0,0,1,1.654-.872,1.347,1.347,0,0,1,1.708.854,4.087,4.087,0,0,1-1,4.518.855.855,0,0,1-1.174.018c-.658-.516-1.263-1.085-1.868-1.654C123.3,173.889,123.09,173.569,122.788,173.178Zm3.629.854a1.588,1.588,0,0,0-.374-1.743,1.228,1.228,0,0,0-1.405.2C125.225,172.982,125.776,173.48,126.416,174.031Z" transform="translate(65.969 -108.765)"/><path class="a" d="M82.207,136.13c-.089.818-.125,1.6-.285,2.366a1.191,1.191,0,0,1-.658.658c-4.607,2.063-9.267,4.02-13.856,6.154-5.852,2.739-11.65,5.621-17.467,8.449-.089.036-.178.089-.391.178.125-.943.2-1.814.374-2.65.036-.213.409-.391.658-.5,5.069-2.472,10.1-5.016,15.208-7.4,5.354-2.49,10.779-4.838,16.168-7.239A.809.809,0,0,1,82.207,136.13Z" transform="translate(24.411 -135.412)"/><path class="a" d="M95.579,136.63c-.107.907-.142,1.761-.32,2.6a1.27,1.27,0,0,1-.711.711C89.5,142.2,84.374,144.349,79.376,146.7c-6.421,3.006-12.771,6.172-19.139,9.249-.089.053-.2.089-.427.2.142-1.032.213-1.974.409-2.9.053-.231.445-.427.729-.551,5.549-2.721,11.063-5.5,16.666-8.111,5.87-2.739,11.81-5.3,17.716-7.951A.953.953,0,0,0,95.579,136.63Z" transform="translate(32.4 -135.022)"/><path class="a" d="M122.419,137.333c-.107.907-.142,1.761-.32,2.6a1.27,1.27,0,0,1-.711.711c-5.051,2.259-10.174,4.411-15.172,6.759-6.421,3.006-12.771,6.172-19.139,9.249-.089.053-.2.089-.427.2.142-1.032.213-1.974.409-2.9.053-.231.445-.427.729-.551,5.55-2.721,11.063-5.5,16.666-8.111,5.87-2.739,11.81-5.3,17.716-7.951C122.206,137.316,122.259,137.333,122.419,137.333Z" transform="translate(53.3 -134.481)"/><path class="a" d="M164.1,137.883a20.921,20.921,0,0,1-.2,2.17.983.983,0,0,1-.516.587c-3.735,1.814-7.488,3.54-11.188,5.443-4.731,2.419-9.409,4.98-14.1,7.488l-.32.16c.089-.872.142-1.654.267-2.419.036-.2.32-.338.534-.462,4.091-2.206,8.146-4.447,12.273-6.563,4.322-2.206,8.7-4.287,13.055-6.4C163.944,137.866,164,137.883,164.1,137.883Z" transform="translate(93.114 -134.052)"/><path class="a" d="M106.461,150.86c-1.494-.551-3.059-.231-4.589-.178-1.547.053-3.095.231-4.642.356a4.918,4.918,0,0,1,4.589-4.98c2.259-.125,4.518-.125,6.777-.178a1.864,1.864,0,0,1,.534.089c1.512.338,1.779.818,1.032,2.188-.623,1.174-1.316,2.294-2.028,3.433a8.773,8.773,0,0,1-4.891,3.913c-1.743.569-3.451,1.263-5.176,1.9-.071-.125-.142-.249-.2-.356,2.9-1.957,5.816-3.913,8.716-5.87C106.533,151.056,106.5,150.949,106.461,150.86Z" transform="translate(61.539 -127.819)"/><path class="a" d="M95.294,146.061c.5-2.081.889-4.038,1.459-5.941a9.134,9.134,0,0,1,1.37-2.686c.854-1.174,1.85-1.1,2.793-.018a2.589,2.589,0,0,1,.427,3.113c-.267.516-.534.694-1,.178-1.334-1.459-2.01-1.37-2.6.516-.623,2.028-1.014,4.144-1.53,6.208a12.1,12.1,0,0,1-.676,1.957,6.532,6.532,0,0,1-.765,1.032,4.2,4.2,0,0,1-.267-.836,20.161,20.161,0,0,0-2.33-6.6c-.249-.516-.587-.96-1.209-.32a.6.6,0,0,1-.587.089c-.711-.569-1.423-1.156-2.081-1.8-.107-.089-.036-.462.053-.658.32-.623.711-1.192,1.032-1.8a.843.843,0,0,1,1.209-.427,8.319,8.319,0,0,1,2.152,1.583,11.905,11.905,0,0,1,2.312,5.567C95.134,145.457,95.2,145.706,95.294,146.061Z" transform="translate(54.546 -135.062)"/><path class="a" d="M153.38,154.028c.107-2.134.16-4.109.356-6.083a9.8,9.8,0,0,1,.783-2.846c.569-1.281,1.441-1.352,2.455-.409a2.818,2.818,0,0,1,.854,3.006c-.142.551-.356.747-.854.3-1.405-1.263-1.974-1.085-2.188.872-.231,2.1-.231,4.233-.374,6.35a12.942,12.942,0,0,1-.285,2.028,6.859,6.859,0,0,1-.5,1.121c-.178-.391-.3-.569-.374-.783a22.247,22.247,0,0,0-3.077-6.208c-.3-.48-.658-.872-1.1-.142-.089.125-.391.231-.5.16a23.778,23.778,0,0,1-2.1-1.494c-.107-.089-.107-.462-.053-.658.178-.658.445-1.281.623-1.921.16-.569.569-.783,1-.587A7.6,7.6,0,0,1,150.178,148a12.584,12.584,0,0,1,2.9,5.176A7.258,7.258,0,0,0,153.38,154.028Z" transform="translate(99.819 -129.244)"/><path class="a" d="M145.6,166.525a5.769,5.769,0,0,1,0-.961,14.946,14.946,0,0,0-2.881-11.828c-.569-.783-1.174-1.512-1.8-2.223a1.076,1.076,0,0,1-.178-1.37c.338-.676.64-1.37.96-2.063,3.113,2.294,5.585,7.221,5.336,13.482C146.951,163.981,146.346,166.223,145.6,166.525Z" transform="translate(95.291 -126.106)"/><path class="a" d="M15.444,141.03c-.48,1.352-1,2.668-1.441,4.038-.96,3.006-1.939,6.012-2.81,9.071a14.576,14.576,0,0,0-.462,3.468,4.385,4.385,0,0,0,1.3,3.575,2.008,2.008,0,0,0,2.757-.071c.694-.551,1.3-1.281,1.974-1.939,1.334,3.984.231,8.751-2.277,10.05-2.206,1.156-4.429-.142-5.283-3.344a22.049,22.049,0,0,1-.818-5.336C8.205,153.748,11.549,144.321,15.444,141.03Z" transform="translate(-7.65 -131.596)"/><path class="a" d="M26.609,155.542c.374-.925.783-1.85,1.121-2.81.729-2.081,1.476-4.144,2.134-6.243a8.311,8.311,0,0,0,.32-2.294,2.207,2.207,0,0,0-1.138-2.134,2.082,2.082,0,0,0-2.277.427,18.229,18.229,0,0,0-1.583,1.53c-1.174-2.383-.356-5.6,1.69-6.795a2.894,2.894,0,0,1,4.447,1.423,10.83,10.83,0,0,1,.8,3.326C32.337,146.346,29.758,152.892,26.609,155.542Z" transform="translate(5.019 -134.973)"/><path class="a" d="M141.128,149.873c.16-.676.338-1.352.48-2.045.3-1.512.623-3.024.889-4.571a6.823,6.823,0,0,0,.036-1.708,2.152,2.152,0,0,0-.818-1.672.969.969,0,0,0-1.334.178,12.858,12.858,0,0,0-.854,1.049c-.854-1.868-.569-4.251.569-5.016,1.014-.676,2.152-.16,2.739,1.352a10.9,10.9,0,0,1,.676,2.561C143.974,143.309,142.853,148.076,141.128,149.873Z" transform="translate(94.088 -135.672)"/><path class="a" d="M118.09,164.334c.32-.623.658-1.227.943-1.868.658-1.405,1.316-2.793,1.921-4.233a7.075,7.075,0,0,0,.445-1.654,2.106,2.106,0,0,0-.409-1.814.978.978,0,0,0-1.334-.142,11.347,11.347,0,0,0-1.067.818c-.391-2.01.427-4.269,1.725-4.749,1.138-.427,2.134.338,2.348,1.957a11.044,11.044,0,0,1,.071,2.65C122.377,158.606,120.171,162.982,118.09,164.334Z" transform="translate(77.782 -124.164)"/><path class="a" d="M69.09,168.734c.32-.623.658-1.227.943-1.868.658-1.405,1.316-2.793,1.921-4.233a7.075,7.075,0,0,0,.445-1.654,2.106,2.106,0,0,0-.409-1.814.978.978,0,0,0-1.334-.142,11.351,11.351,0,0,0-1.067.818c-.391-2.01.427-4.269,1.725-4.749,1.138-.427,2.134.338,2.348,1.957a11.045,11.045,0,0,1,.071,2.65C73.377,163.006,71.171,167.382,69.09,168.734Z" transform="translate(39.626 -120.738)"/><path class="a" d="M54.016,153.819c-.623-.409-1.1-.711-1.547-1.032-1.814-1.352-2.277-2.953-1.014-4.82a10.89,10.89,0,0,1,3.095-2.953c1.53-1,2.935-.142,2.917,1.708-.018,1.547-.32,3.095-.5,4.731,2.277,1.779,2.295,1.939.374,4.464-.623-.48-1.245-.96-1.974-1.53a26.307,26.307,0,0,1-8.04,6.848,44.909,44.909,0,0,1-9.818,3.86C42.864,161.182,49.107,158.6,54.016,153.819Zm1.21-3.166c.142-.071.267-.142.409-.213a15.73,15.73,0,0,0-.356-2.259,1.016,1.016,0,0,0-.943-.462,3.483,3.483,0,0,0-1.37.854c-.089.089.213.729.48.96A17.75,17.75,0,0,0,55.226,150.653Z" transform="translate(15.036 -128.821)"/><path class="a" d="M136.435,147.04c-.694-.462-1.245-.8-1.743-1.174-2.046-1.53-2.561-3.326-1.138-5.443a11.958,11.958,0,0,1,3.486-3.326c1.725-1.121,3.308-.16,3.291,1.939a52.4,52.4,0,0,1-.569,5.336c2.579,2.01,2.6,2.188.427,5.034-.694-.534-1.405-1.085-2.223-1.708a29.906,29.906,0,0,1-9.053,7.719,50.044,50.044,0,0,1-11.081,4.358C123.86,155.346,130.9,152.429,136.435,147.04Zm1.37-3.575c.16-.071.3-.16.462-.231a16.859,16.859,0,0,0-.409-2.544,1.215,1.215,0,0,0-1.049-.534,3.849,3.849,0,0,0-1.53.961c-.089.089.231.836.534,1.067A16.526,16.526,0,0,0,137.8,143.465Z" transform="translate(77.579 -135.027)"/><path class="a" d="M40.292,144.271c-.142,1.121-.285,2.206-.445,3.291a3.276,3.276,0,0,1-.338.872c-.053.107-.231.231-.32.213a.619.619,0,0,1-.32-.285.746.746,0,0,1-.089-.391,8.16,8.16,0,0,0-2.828-6.03,2.49,2.49,0,0,1-.6-2.561c.2-.907.889-1.138,1.672-.569,4.2,3.042,8.982,3.771,14.123,3.237a36.3,36.3,0,0,0,12.682-4.055c1-.516,2.045-.943,3.059-1.441a1.077,1.077,0,0,1,1.316.2,2.389,2.389,0,0,1,.694,3.291,11.067,11.067,0,0,1-1.85,2.366c-1.067,1.1-2.206,2.117-3.344,3.148a13.031,13.031,0,0,1-1.138.8c-.071-.053-.142-.089-.213-.142a4.936,4.936,0,0,1,.267-.872,11.949,11.949,0,0,1,2.739-3.095c.5-.462,1-.925,1.476-1.387a1.858,1.858,0,0,0,.409-.569,2.125,2.125,0,0,0,.053-.587c-.2,0-.445-.071-.6.018-1.494.658-2.988,1.316-4.464,2.01a36.443,36.443,0,0,1-8.235,2.97c-4.464.854-8.929,1.21-13.34-.285A.85.85,0,0,0,40.292,144.271Z" transform="translate(13.267 -135.193)"/><path class="a" d="M44.145,144.64c-.374.6-.765,1.192-1.121,1.814-.765,1.352-1.53,2.7-2.259,4.073a5.361,5.361,0,0,0-.5,1.565,1.561,1.561,0,0,0,.534,1.619,1.48,1.48,0,0,0,1.636-.018c.445-.249.854-.569,1.3-.872a3.8,3.8,0,0,1-2.01,4.518,2.036,2.036,0,0,1-2.917-1.53,7.805,7.805,0,0,1-.142-2.4C39.04,150.332,41.637,146.1,44.145,144.64Z" transform="translate(15.906 -128.785)"/><path class="a" d="M76.921,140.75c-.231.676-.48,1.334-.694,2.01-.445,1.476-.907,2.97-1.3,4.464a5.562,5.562,0,0,0-.142,1.636,1.56,1.56,0,0,0,.872,1.459,1.468,1.468,0,0,0,1.583-.374c.391-.338.711-.747,1.067-1.121a3.837,3.837,0,0,1-.96,4.856,2.046,2.046,0,0,1-3.184-.854,7.663,7.663,0,0,1-.676-2.312C73.168,147.438,74.786,142.742,76.921,140.75Z" transform="translate(43.019 -131.814)"/><path class="a" d="M124.839,136.74c-.445.711-.889,1.387-1.3,2.117-.889,1.583-1.8,3.148-2.632,4.749a6.989,6.989,0,0,0-.587,1.814,1.816,1.816,0,0,0,.623,1.885,1.722,1.722,0,0,0,1.9-.018c.516-.285,1-.658,1.512-1.014a4.461,4.461,0,0,1-2.33,5.265,2.38,2.38,0,0,1-3.4-1.779,8.777,8.777,0,0,1-.16-2.81C118.881,143.374,121.9,138.448,124.839,136.74Z" transform="translate(78.04 -134.937)"/><path class="a" d="M94.745,148.4c-.32.783-.676,1.547-.978,2.33-.64,1.725-1.3,3.451-1.885,5.212a6.362,6.362,0,0,0-.285,1.921,1.815,1.815,0,0,0,.925,1.8,1.748,1.748,0,0,0,1.9-.32c.48-.374.889-.836,1.352-1.263a4.552,4.552,0,0,1-1.512,5.692,2.414,2.414,0,0,1-3.7-1.245,8.952,8.952,0,0,1-.623-2.793C89.818,156.031,92.077,150.588,94.745,148.4Z" transform="translate(55.86 -125.857)"/><path class="a" d="M151.974,152.5c-.249.587-.516,1.174-.729,1.761-.5,1.316-.978,2.615-1.423,3.949a4.53,4.53,0,0,0-.213,1.459,1.4,1.4,0,0,0,.694,1.37,1.312,1.312,0,0,0,1.441-.249c.356-.285.676-.623,1.032-.96a3.433,3.433,0,0,1-1.138,4.3,1.838,1.838,0,0,1-2.81-.943,6.745,6.745,0,0,1-.462-2.117C148.238,158.281,149.946,154.154,151.974,152.5Z" transform="translate(101.35 -122.665)"/><path class="a" d="M150.644,170.35c-.249.587-.516,1.174-.729,1.761-.5,1.316-.978,2.615-1.423,3.949a4.529,4.529,0,0,0-.213,1.459,1.4,1.4,0,0,0,.694,1.37,1.312,1.312,0,0,0,1.441-.249c.356-.285.676-.623,1.032-.96a3.433,3.433,0,0,1-1.138,4.3,1.838,1.838,0,0,1-2.81-.943,6.745,6.745,0,0,1-.462-2.117C146.908,176.131,148.616,172,150.644,170.35Z" transform="translate(100.314 -108.765)"/><path class="a" d="M81.692,169.77c-1.636,3.219-2.348,8.2-1.423,11.4.16-.889.3-1.779.48-2.65.427-1.9.854-3.806,1.334-5.692A5.286,5.286,0,0,1,82.6,171.6,8.787,8.787,0,0,1,81.692,169.77Z" transform="translate(48.013 -109.217)"/><path class="a" d="M111.295,150.09c-.32.783-.676,1.547-.978,2.33-.64,1.725-1.3,3.451-1.885,5.212a6.362,6.362,0,0,0-.285,1.921,1.815,1.815,0,0,0,.925,1.8,1.748,1.748,0,0,0,1.9-.32c.48-.374.889-.836,1.352-1.263a4.552,4.552,0,0,1-1.512,5.692,2.414,2.414,0,0,1-3.7-1.245,8.953,8.953,0,0,1-.623-2.793C106.368,157.738,108.609,152.3,111.295,150.09Z" transform="translate(68.747 -124.541)"/><path class="a" d="M65.207,169.47c-.267.64-.569,1.281-.8,1.939-.534,1.441-1.085,2.864-1.565,4.322a6.017,6.017,0,0,0-.249,1.6,1.516,1.516,0,0,0,.765,1.494,1.445,1.445,0,0,0,1.583-.267c.391-.3.747-.694,1.121-1.049a3.759,3.759,0,0,1-1.245,4.713,2.012,2.012,0,0,1-3.077-1.032,7.5,7.5,0,0,1-.516-2.33C61.1,175.82,62.983,171.284,65.207,169.47Z" transform="translate(33.496 -109.45)"/><path class="a" d="M76.1,171.53c-.2.445-.391.889-.569,1.352-.374,1-.747,1.992-1.085,3.006a3.986,3.986,0,0,0-.178,1.121,1.045,1.045,0,0,0,.534,1.032,1.013,1.013,0,0,0,1.1-.2,10,10,0,0,0,.783-.729,2.653,2.653,0,0,1-.872,3.291,1.383,1.383,0,0,1-2.134-.729,5.082,5.082,0,0,1-.356-1.619A9.457,9.457,0,0,1,76.1,171.53Z" transform="translate(42.918 -107.846)"/><path class="a" d="M100.879,172.05c-.178.409-.356.8-.516,1.227-.338.907-.676,1.8-.978,2.721a3.891,3.891,0,0,0-.16,1.014,1.013,1.013,0,0,0,.48.943.9.9,0,0,0,1-.178c.249-.2.462-.427.711-.658a2.382,2.382,0,0,1-.783,2.97,1.272,1.272,0,0,1-1.939-.658,4.564,4.564,0,0,1-.32-1.459A8.561,8.561,0,0,1,100.879,172.05Z" transform="translate(62.425 -107.441)"/></g><path class="a" d="M13.2-2.4q.1,0,.1.078V-.1a.086.086,0,0,1-.1.1H7.139A6.485,6.485,0,0,1,2.832-1.294,4.465,4.465,0,0,1,1.3-4.9,4.891,4.891,0,0,1,2-7.52,4.609,4.609,0,0,1,4.019-9.282a7.249,7.249,0,0,1,3.12-.62H7.7v-.977H10.7V-2.4Zm-5.479,0V-7.5H7.2a3.011,3.011,0,0,0-2.1.674,2.5,2.5,0,0,0-.737,1.943,2.332,2.332,0,0,0,.723,1.836,3.026,3.026,0,0,0,2.08.645ZM5.859-12.139a1.274,1.274,0,0,1-.977-.386,1.474,1.474,0,0,1-.361-1.05,1.5,1.5,0,0,1,.356-1.06,1.27,1.27,0,0,1,.981-.386,1.251,1.251,0,0,1,.967.381,1.511,1.511,0,0,1,.352,1.064,1.467,1.467,0,0,1-.361,1.06A1.266,1.266,0,0,1,5.859-12.139Zm3.4,0a1.274,1.274,0,0,1-.977-.386,1.474,1.474,0,0,1-.361-1.05,1.5,1.5,0,0,1,.356-1.06,1.27,1.27,0,0,1,.981-.386,1.255,1.255,0,0,1,.977.386,1.514,1.514,0,0,1,.352,1.06,1.462,1.462,0,0,1-.366,1.05A1.265,1.265,0,0,1,9.258-12.139ZM16.611-2.4q.107,0,.107.078V-.1q0,.1-.107.1H13a.086.086,0,0,1-.1-.1V-2.324q0-.078.1-.078Zm3.418,0q.107,0,.107.078V-.1q0,.1-.107.1H16.416a.086.086,0,0,1-.1-.1V-2.324q0-.078.1-.078Zm3.418,0q.107,0,.107.078V-.1q0,.1-.107.1H19.834a.086.086,0,0,1-.1-.1V-2.324q0-.078.1-.078Zm3.418,0q.107,0,.107.078V-.1q0,.1-.107.1H23.252a.086.086,0,0,1-.1-.1V-2.324q0-.078.1-.078Zm3.418,0q.107,0,.107.078V-.1q0,.1-.107.1H26.67a.086.086,0,0,1-.1-.1V-2.324q0-.078.1-.078Zm3.418,0q.107,0,.107.078V-.1q0,.1-.107.1H30.088a.086.086,0,0,1-.1-.1V-2.324q0-.078.1-.078Zm3.418,0q.107,0,.107.078V-.1q0,.1-.107.1H33.506a.086.086,0,0,1-.1-.1V-2.324q0-.078.1-.078Zm3.418,0q.107,0,.107.078V-.1q0,.1-.107.1H36.924a.086.086,0,0,1-.1-.1V-2.324q0-.078.1-.078Zm3.418,0q.107,0,.107.078V-.1q0,.1-.107.1H40.342a.086.086,0,0,1-.1-.1V-2.324q0-.078.1-.078ZM43.76,0a.086.086,0,0,1-.1-.1V-2.324q0-.078.1-.078h3.1V-9.9h2.979v7.5h3.008q.1,0,.1.078V-.1a.086.086,0,0,1-.1.1Zm2.676,5a1.274,1.274,0,0,1-.977-.386,1.474,1.474,0,0,1-.361-1.05,1.5,1.5,0,0,1,.356-1.06,1.27,1.27,0,0,1,.981-.386A1.251,1.251,0,0,1,47.4,2.5a1.511,1.511,0,0,1,.352,1.064,1.467,1.467,0,0,1-.361,1.06A1.266,1.266,0,0,1,46.436,5Zm3.4,0a1.274,1.274,0,0,1-.977-.386,1.474,1.474,0,0,1-.361-1.05,1.5,1.5,0,0,1,.356-1.06,1.27,1.27,0,0,1,.981-.386,1.255,1.255,0,0,1,.977.386,1.514,1.514,0,0,1,.352,1.06,1.462,1.462,0,0,1-.366,1.05A1.265,1.265,0,0,1,49.834,5ZM56.25-2.4q.107,0,.107.078V-.1q0,.1-.107.1H52.637a.086.086,0,0,1-.1-.1V-2.324q0-.078.1-.078Zm3.418,0q.107,0,.107.078V-.1q0,.1-.107.1H56.055a.086.086,0,0,1-.1-.1V-2.324q0-.078.1-.078Zm3.418,0q.107,0,.107.078V-.1q0,.1-.107.1H59.473a.086.086,0,0,1-.1-.1V-2.324q0-.078.1-.078Zm3.418,0q.107,0,.107.078V-.1q0,.1-.107.1H62.891a.086.086,0,0,1-.1-.1V-2.324q0-.078.1-.078Zm3.418,0q.107,0,.107.078V-.1q0,.1-.107.1H66.309a.086.086,0,0,1-.1-.1V-2.324q0-.078.1-.078Zm3.418,0q.107,0,.107.078V-.1q0,.1-.107.1H69.727a.086.086,0,0,1-.1-.1V-2.324q0-.078.1-.078Zm3.418,0q.107,0,.107.078V-.1q0,.1-.107.1H73.145a.086.086,0,0,1-.1-.1V-2.324q0-.078.1-.078Zm3.418,0q.107,0,.107.078V-.1q0,.1-.107.1H76.563a.086.086,0,0,1-.1-.1V-2.324q0-.078.1-.078Zm3.418,0q.107,0,.107.078V-.1q0,.1-.107.1H79.98a.086.086,0,0,1-.1-.1V-2.324q0-.078.1-.078ZM83.4,0a.086.086,0,0,1-.1-.1V-2.324q0-.078.1-.078h2.5V-15.2h2.979V-2.4h2.6q.1,0,.1.078V-.1a.086.086,0,0,1-.1.1ZM94.893-2.4Q95-2.4,95-2.324V-.1q0,.1-.107.1H91.279a.086.086,0,0,1-.1-.1V-2.324q0-.078.1-.078Zm3.418,0q.107,0,.107.078V-.1q0,.1-.107.1H94.7a.086.086,0,0,1-.1-.1V-2.324q0-.078.1-.078Zm3.418,0q.107,0,.107.078V-.1q0,.1-.107.1H98.115a.086.086,0,0,1-.1-.1V-2.324q0-.078.1-.078Zm3.418,0q.107,0,.107.078V-.1q0,.1-.107.1h-3.613a.086.086,0,0,1-.1-.1V-2.324q0-.078.1-.078Zm3.418,0q.107,0,.107.078V-.1q0,.1-.107.1h-3.613a.086.086,0,0,1-.1-.1V-2.324q0-.078.1-.078Zm3.418,0q.107,0,.107.078V-.1q0,.1-.107.1h-3.613a.086.086,0,0,1-.1-.1V-2.324q0-.078.1-.078Zm3.418,0q.107,0,.107.078V-.1q0,.1-.107.1h-3.613a.086.086,0,0,1-.1-.1V-2.324q0-.078.1-.078Zm3.418,0q.107,0,.107.078V-.1q0,.1-.107.1h-3.613a.086.086,0,0,1-.1-.1V-2.324q0-.078.1-.078Zm3.418,0q.107,0,.107.078V-.1q0,.1-.107.1h-3.613a.086.086,0,0,1-.1-.1V-2.324q0-.078.1-.078Zm-.2,2.4a.086.086,0,0,1-.1-.1V-2.324q0-.078.1-.078H130.1v-.02a5.261,5.261,0,0,1-1.2-2.842,3.789,3.789,0,0,0-.806-1.89,2.145,2.145,0,0,0-1.6-.542,4.78,4.78,0,0,0-1.318.176,6.471,6.471,0,0,0-1.338.576l-.9-2.2a8.725,8.725,0,0,1,4.18-.957,4.837,4.837,0,0,1,3.115.9A4.65,4.65,0,0,1,131.7-6.24q.518,2.979,1.4,3.838V0Zm5.283-11.621a1.286,1.286,0,0,1-.986-.386,1.474,1.474,0,0,1-.361-1.05,1.5,1.5,0,0,1,.356-1.06,1.283,1.283,0,0,1,.991-.386,1.254,1.254,0,0,1,.962.381,1.5,1.5,0,0,1,.356,1.064,1.462,1.462,0,0,1-.366,1.05A1.253,1.253,0,0,1,127.324-11.621ZM136.4-15.2h2.979V0H136.4ZM142.275-2.4h6.68a12.42,12.42,0,0,0-1-2.983,6.912,6.912,0,0,0-1.5-1.963,7.68,7.68,0,0,0-2.231-1.372l1.123-2.8a9.514,9.514,0,0,1,4.248,3.262A14.993,14.993,0,0,1,151.953-2.4h2.627q.1,0,.1.078V-.1a.086.086,0,0,1-.1.1h-12.3Zm15.713,0q.107,0,.107.078V-.1q0,.1-.107.1h-3.613a.086.086,0,0,1-.1-.1V-2.324q0-.078.1-.078Zm3.418,0q.107,0,.107.078V-.1q0,.1-.107.1h-3.613a.086.086,0,0,1-.1-.1V-2.324q0-.078.1-.078Zm3.418,0q.107,0,.107.078V-.1q0,.1-.107.1h-3.613a.086.086,0,0,1-.1-.1V-2.324q0-.078.1-.078Zm3.418,0q.107,0,.107.078V-.1q0,.1-.107.1h-3.613a.086.086,0,0,1-.1-.1V-2.324q0-.078.1-.078Zm3.418,0q.107,0,.107.078V-.1q0,.1-.107.1h-3.613a.086.086,0,0,1-.1-.1V-2.324q0-.078.1-.078Zm3.418,0q.107,0,.107.078V-.1q0,.1-.107.1h-3.613a.086.086,0,0,1-.1-.1V-2.324q0-.078.1-.078Zm3.418,0q.107,0,.107.078V-.1q0,.1-.107.1h-3.613a.086.086,0,0,1-.1-.1V-2.324q0-.078.1-.078Zm3.418,0q.107,0,.107.078V-.1q0,.1-.107.1H178.3a.086.086,0,0,1-.1-.1V-2.324q0-.078.1-.078Zm3.418,0q.107,0,.107.078V-.1q0,.1-.107.1h-3.613a.086.086,0,0,1-.1-.1V-2.324q0-.078.1-.078Zm-.2,2.4a.086.086,0,0,1-.1-.1V-2.324q0-.078.1-.078h2.5V-15.2h2.979V0Zm9.482-15.2H197.6V0h-2.979ZM212.676.2a5.316,5.316,0,0,1-3.711-1.162A4.429,4.429,0,0,1,207.7-4.4a6.52,6.52,0,0,1,.64-2.876,5.021,5.021,0,0,1,1.782-2.07,4.675,4.675,0,0,1,2.617-.747,4.443,4.443,0,0,1,2.471.723A5.3,5.3,0,0,1,217.017-7.3a6.222,6.222,0,0,1,.7,2.9,4.4,4.4,0,0,1-1.27,3.486A5.569,5.569,0,0,1,212.676.2Zm-.02-2.432a1.988,1.988,0,0,0,1.558-.562,2.49,2.49,0,0,0,.5-1.7,4.062,4.062,0,0,0-.61-2.241,1.747,1.747,0,0,0-1.47-.952,1.729,1.729,0,0,0-1.46.928,4.082,4.082,0,0,0-.6,2.266,2.455,2.455,0,0,0,.513,1.709A2.031,2.031,0,0,0,212.656-2.236Zm-1.924-9.385a1.274,1.274,0,0,1-.977-.386,1.474,1.474,0,0,1-.361-1.05,1.5,1.5,0,0,1,.356-1.06,1.27,1.27,0,0,1,.981-.386,1.251,1.251,0,0,1,.967.381,1.511,1.511,0,0,1,.352,1.064,1.467,1.467,0,0,1-.361,1.06A1.266,1.266,0,0,1,210.732-11.621Zm3.4,0a1.274,1.274,0,0,1-.977-.386,1.474,1.474,0,0,1-.361-1.05,1.5,1.5,0,0,1,.356-1.06,1.27,1.27,0,0,1,.981-.386,1.255,1.255,0,0,1,.977.386,1.514,1.514,0,0,1,.352,1.06,1.462,1.462,0,0,1-.366,1.05A1.265,1.265,0,0,1,214.131-11.621ZM225.895,4.8a6.827,6.827,0,0,1-1.88-.244,6.487,6.487,0,0,1-1.8-.879l1.2-1.943a4.13,4.13,0,0,0,.933.459,3.273,3.273,0,0,0,.972.127,1.57,1.57,0,0,0,1.289-.61A2.384,2.384,0,0,0,227.1.176V-9.9h2.979V.322a4.585,4.585,0,0,1-1.138,3.271A3.976,3.976,0,0,1,225.895,4.8Zm11.881-20h2.979V0h-2.979Zm11.861,20a6.827,6.827,0,0,1-1.88-.244,6.487,6.487,0,0,1-1.8-.879l1.2-1.943a4.13,4.13,0,0,0,.933.459,3.273,3.273,0,0,0,.972.127,1.57,1.57,0,0,0,1.289-.61,2.384,2.384,0,0,0,.488-1.538V-9.9h2.979V.322a4.585,4.585,0,0,1-1.138,3.271A3.976,3.976,0,0,1,249.637,4.8Zm2.539-16.426a1.286,1.286,0,0,1-.986-.386,1.474,1.474,0,0,1-.361-1.05,1.5,1.5,0,0,1,.356-1.06,1.283,1.283,0,0,1,.991-.386,1.254,1.254,0,0,1,.962.381,1.5,1.5,0,0,1,.356,1.064,1.462,1.462,0,0,1-.366,1.05A1.253,1.253,0,0,1,252.176-11.621ZM265.072,4.8a11.469,11.469,0,0,1-2.349-.21,6.24,6.24,0,0,1-1.909-.757l1.162-2.178a6.731,6.731,0,0,0,1.533.591,6.514,6.514,0,0,0,1.5.171,2.354,2.354,0,0,0,1.748-.62,2.313,2.313,0,0,0,.615-1.7V0h-1.982A4.327,4.327,0,0,1,262.1-1.211a4.806,4.806,0,0,1-1.152-3.447,4.921,4.921,0,0,1,.791-2.778,5.023,5.023,0,0,1,2.236-1.831,8.238,8.238,0,0,1,3.34-.635h3.037V.059a4.464,4.464,0,0,1-1.382,3.511A5.656,5.656,0,0,1,265.072,4.8Zm2.3-7.207V-7.5h-.645a2.689,2.689,0,0,0-2,.723,2.771,2.771,0,0,0-.718,2.041,2.666,2.666,0,0,0,.488,1.768A1.867,1.867,0,0,0,266-2.4Z" transform="translate(-0.001 111)"/></svg>