<svg width="100" height="54" viewBox="0 0 100 54" fill="none" xmlns="http://www.w3.org/2000/svg">
<g clip-path="url(#clip0_468_14165)">
<path d="M61.5835 7.96726C59.7022 7.3889 59.8078 6.7707 58.692 6.22923C58.1993 5.99021 55.5175 5.83087 56.1905 4.74939C56.3225 4.53693 56.8093 4.68743 56.4339 3.85382C54.8708 3.98218 53.6538 3.4407 52.3738 2.6307C51.7506 1.53447 54.516 1.98447 55.0439 2.0789C55.6714 2.19251 56.3459 2.50087 56.9735 2.65283L57.8225 1.92841C58.3899 2.3371 59.3078 3.15743 59.9676 3.32562C60.6832 3.50857 61.0512 3.05415 61.9339 3.40677C62.9178 3.8007 64.4016 5.46497 65.0923 5.68628C65.7228 5.88841 66.6143 5.58447 67.1509 5.82792C67.2594 5.87808 68.7447 7.25906 68.909 7.45234C69.3723 7.99234 69.8151 9.17562 70.2228 9.52382C70.6304 9.87202 71.0923 9.79824 71.5101 9.9989C72.126 10.294 74.0277 13.0486 74.3635 13.7671C74.5879 14.2481 74.9251 15.8445 74.9926 15.9374C75.0688 16.0437 76.8503 16.6678 77.1978 17.2594C77.3503 17.5205 77.2184 17.8982 77.3049 18.1845C77.6084 19.1804 78.1832 20.2353 78.1626 21.3168C78.1392 22.4794 77.4295 23.9282 76.9896 24.992C77.7477 25.56 78.406 26.2564 78.8884 27.0797C78.9603 27.9296 77.8195 30.8361 78.1714 31.4041C78.4148 31.5325 78.6802 31.5591 78.95 31.5797C81.148 31.7405 84.5233 31.7199 86.7345 31.5797C87.3093 31.5428 89.7271 31.261 89.9515 30.8332C90.1084 30.5366 90.1597 29.7251 90.3151 29.281C90.6934 28.1981 91.9251 25.414 93.4046 26.7714C93.9735 27.2937 93.9456 28.8399 93.8298 29.5717C93.733 30.1781 93.1392 30.7623 93.3987 31.5723H96.1113C96.1641 31.5723 97.06 31.323 97.1143 31.2905C98.2081 30.6281 95.0556 27.4855 96.8459 26.7123C99.2638 29.7782 98.4764 33.5951 94.0527 33.3487C93.1231 33.2971 92.1377 32.8648 91.2565 32.7689C89.4984 32.5771 87.7389 33.2307 85.9925 33.3428C83.0996 33.5273 79.8899 33.0846 77.0439 33.3384C76.1729 33.4166 75.2843 33.8371 75.1025 34.7814C74.9706 35.4704 75.4104 35.7492 75.3445 36.0369C75.2682 36.3674 73.2462 38.855 72.8738 39.1737C71.843 40.056 70.8313 40.1799 69.5219 40.3009C69.5395 40.804 68.9955 41.3233 68.9368 41.7173C68.8884 42.0359 69.0864 42.3015 69.038 42.5361C68.9456 42.9758 67.8958 43.2664 67.4969 43.4996C65.0923 44.9071 64.887 45.6123 61.7961 45.3276C61.6626 45.3158 61.453 45.4545 61.4383 45.4441C61.4031 45.4191 61.3445 44.7566 61.1509 44.6238C60.6817 44.3007 60.0116 44.9351 60.3313 45.4471C60.4867 45.6964 60.953 45.6478 61.1069 45.7761C61.2477 45.8927 61.384 46.5551 61.7272 46.6982C59.8972 48.24 57.9119 49.6727 55.3943 48.9438C54.1641 48.5882 53.7902 47.5525 52.3738 47.9066C51.9706 48.0069 50.3137 48.6118 50.6172 49.1105L53.0805 51.0537C53.2272 51.2617 52.7887 51.5715 52.5703 51.5818C51.7697 51.6158 50.5527 49.4794 49.6362 49.2876C48.0747 49.7774 47.3708 52.0289 45.604 51.7884C45.1274 51.3517 48.4368 49.0884 48.8283 48.9099C48.9075 48.5779 47.365 47.8048 47.0732 47.7281C45.5981 47.34 45.2228 48.454 44.0277 48.6561C43.4984 48.7461 42.5776 48.7402 42.0453 48.6561C41.6011 48.5853 38.3371 47.3164 38.0483 47.0715C37.5468 46.6481 37.7873 46.3427 37.5747 45.9251C37.3621 45.5076 36.8239 45.1402 36.8034 44.5589C35.7301 45.1299 34.6832 45.214 33.5893 44.6223C32.6362 44.1074 29.8914 41.7777 29.3943 40.8763C29.233 40.5827 29.0101 39.7122 28.8489 39.5809C28.6568 39.4245 27.582 39.3478 27.1304 39.1707C25.3459 38.4699 24.2052 35.7728 22.7931 34.5217C22.7037 34.3417 23.343 32.881 22.9368 32.4428C21.8899 32.0725 20.736 32.4428 19.7286 32.465C19.0233 32.4812 15.8107 32.2761 15.5336 32.7069C15.3078 33.0551 15.126 33.8519 14.8401 34.3314C13.9911 35.7522 12.0761 36.9959 10.3738 36.7023C10.0571 36.6478 8.88551 36.1225 8.65531 35.9233C8.45296 35.7492 8.55414 35.6268 8.74622 35.5766C9.14505 35.4719 9.71396 35.5987 10.1744 35.5382C11.2931 35.3892 12.3826 35.0514 13.3327 34.4376C13.8122 34.1278 14.6011 33.5553 14.6729 32.9828C14.604 32.1345 11.9926 32.5373 11.736 31.2005C11.56 30.2843 13.0981 27.2907 13.9295 27.0591C14.9691 26.7699 15.7492 29.79 15.909 30.5455L16.0776 30.6709C17.0497 30.6915 18.1773 30.665 19.1377 30.541C21.7286 30.2061 20.5248 30.1515 20.277 28.5123C20.211 28.0727 20.2946 27.633 20.2272 27.2346C20.0527 26.2033 19.538 25.5689 19.9603 24.4343C20.1304 23.9784 20.7492 23.4591 20.821 23.0887C20.953 22.4086 20.6128 21.1633 20.6729 20.2825C20.7286 19.4681 21.736 16.0584 22.1685 15.4432C22.6817 14.7158 23.6025 14.6656 23.9119 14.2466C24.17 13.8969 24.428 12.572 24.8122 11.9066C25.2843 11.0878 25.9676 10.5094 26.538 9.8071C26.8371 9.43972 27.4207 8.28743 27.777 8.27267C27.972 8.26529 28.2125 8.42316 28.5043 8.40546C29.5732 8.34054 30.0028 7.27677 30.7242 6.64234C31.0996 6.31185 32.5292 5.29972 32.953 5.19644C33.472 5.07251 34.2242 5.18906 34.7448 4.93382C35.0923 4.76415 35.6099 4.02792 36.1714 3.71365C37.6494 2.88447 38.3093 3.22382 39.6348 2.91988C40.1143 2.80923 40.5659 2.1571 41.2726 2.05824C41.6113 2.01103 42.3928 2.02284 42.7374 2.07152C42.9794 2.10546 43.1509 2.35038 43.4764 2.37251C44.2931 2.43005 45.1788 1.76759 46.3679 2.10398C46.5879 2.16595 47.343 2.39316 47.0747 2.72956C46.3415 3.64874 44.3826 4.1607 43.2594 4.27726L43.5365 5.05775C42.8708 6.15103 41.4823 5.88693 40.5145 6.31185C39.7711 6.63792 38.7755 7.94808 37.8371 8.193C37.1964 8.35972 36.5439 8.12808 35.9368 8.49398C35.5072 8.75365 35.4383 9.24939 35.1187 9.58874C34.2184 10.5478 32.4764 10.9756 31.6656 11.7207C30.5321 12.7623 29.9207 14.7586 28.3679 16.0746C28.1201 16.2841 27.233 16.7533 27.1934 16.8109C26.8723 17.2741 27.4442 17.6755 27.4236 18.0576C27.4016 18.4648 26.7022 20.9745 26.5087 21.4333C26.1832 22.2094 25.4867 22.9368 24.7829 23.3794C26.2418 25.4346 26.5776 28.0609 26.6113 30.5396C27.9588 31.2345 29.9559 32.8323 30.5263 34.2723C30.7462 34.8256 30.7682 36.0635 31.4603 36.1476C31.9339 36.2066 32.0189 35.9425 32.6964 36.2169C34.0219 36.754 37.0013 38.374 37.6568 39.6369C37.843 39.9955 38.0996 41.2068 38.3606 41.2953C38.9999 41.5122 39.0571 40.7833 39.2961 40.6343C39.4383 40.5458 41.7022 40.984 42.0791 41.0873C43.9251 41.5919 45.972 43.265 46.2975 45.2523C46.3738 45.7141 46.2462 46.2807 46.3606 46.6643C46.4867 47.0863 49.1186 48.243 49.6318 48.2533C50.0776 48.2622 51.9251 47.5127 52.3063 47.2456C53.0307 46.7366 52.8928 45.0118 53.3401 44.1546C54.2697 42.3753 57.2638 41.7763 58.9046 40.8851C59.365 40.8187 59.5776 41.5122 60.4163 41.2437C60.7653 41.1315 61.9838 39.724 62.4764 39.3286C63.0468 38.8682 65.3533 37.17 65.906 37.1612C66.3723 37.1538 67.1758 37.4902 67.6084 36.9679C67.7609 36.785 68.0659 35.581 68.3019 35.1576C68.5556 34.7032 71.0761 31.9294 71.4134 31.7833C71.7506 31.6373 72.1421 32.0445 72.365 31.5664C72.5248 31.2241 72.2667 30.7373 72.2741 30.3168C72.2917 29.343 73.0307 27.5415 73.4324 26.6002C73.623 26.1517 74.2462 25.2871 74.3137 24.9699C74.4559 24.2971 73.6099 23.5756 73.3283 22.922C73.1612 22.534 73.0732 22.0914 72.9456 21.6841C72.5497 20.4227 72.2213 19.052 72.2565 17.73C71.7623 17.4025 71.0248 17.0602 70.6011 16.6678C70.3093 16.3963 68.4046 13.8305 68.2946 13.5296C68.1216 13.05 68.2506 12.5676 68.0028 12.125C66.7272 12.0084 65.1714 10.7425 64.4515 9.72448C64.2579 9.45152 63.9925 8.64152 63.8327 8.5412C63.3415 8.23726 62.3195 8.37595 61.8239 8.23284C61.6245 8.17529 61.6011 7.96874 61.5835 7.96284C61.6729 8.02333 63.692 8.14136 63.4896 7.52169C62.975 7.99972 60.4911 6.01972 60.4104 6.72349C60.4544 7.63234 61.0453 7.41103 61.5585 7.70021C61.6289 7.74005 61.5688 7.95398 61.5835 7.96431V7.96726ZM56.5981 2.95234C55.4676 3.04824 54.453 1.85316 53.3752 2.58202C54.2403 3.2548 55.3122 3.58382 56.384 3.25038C56.5923 3.18546 56.6421 3.33743 56.5981 2.95234ZM42.3752 2.95234C41.9706 2.81956 40.1143 2.63808 40.0233 3.04972L40.0292 3.68857C40.6597 3.53661 41.494 3.48349 42.0879 3.31972C42.3474 3.24743 42.428 3.27398 42.3738 2.95234H42.3752ZM45.7462 2.8048C44.7565 2.77677 43.7374 2.7089 43.1099 3.6148C43.2506 3.81988 43.3884 3.83759 43.6201 3.84939C43.9163 3.86562 46.1304 3.14415 45.7448 2.80333L45.7462 2.8048ZM59.0908 4.28021C59.3019 4.30382 59.7433 4.20497 59.6773 3.91136C59.6494 3.7889 57.604 2.10546 57.8415 3.24743C57.9134 3.54103 59.1934 4.00431 58.9427 4.27726C56.0996 3.65759 58.7418 5.52398 59.3884 5.09464C59.9398 4.72726 59.0013 4.71546 59.0908 4.27874V4.28021ZM38.2697 3.69005C37.9706 3.38169 35.2594 4.49857 35.4852 5.31152C35.6494 5.47677 38.7242 4.59743 38.2697 3.69005ZM41.6113 4.6889C41.7433 4.6107 42.3019 3.85972 41.8386 3.71218C40.9706 3.43333 40.9178 4.39677 40.0292 4.28021C39.8752 4.87923 41.4178 4.80251 41.6113 4.6889ZM64.4632 5.65824C64.1612 5.3071 62.104 3.90398 61.7301 4.27874C61.6846 4.49415 61.733 4.55021 61.8327 4.70956C62.0453 5.04595 64.5717 6.72202 64.8078 6.49038C64.843 6.17316 64.6582 5.88546 64.4632 5.65824ZM42.8151 4.72283L40.4706 5.16693V5.60661C41.3767 5.81464 42.5175 5.80283 42.8151 4.72283ZM58.6509 5.16546C58.0043 5.34251 57.3958 4.35546 56.8928 4.94562C56.7653 5.55644 58.6421 6.04923 58.6509 5.16546ZM37.7799 5.07103C37.0541 5.08136 36.1568 5.63906 35.6436 6.13628C34.7682 6.98759 36.2697 6.73825 36.8386 6.60103C37.6377 6.40923 38.1846 6.00497 38.7052 5.38382C38.711 5.19497 37.9603 5.06808 37.7799 5.06956V5.07103ZM64.0541 6.51251C63.6055 6.35759 63.0747 5.75857 62.648 5.64349C62.1905 5.51956 60.2242 5.29234 60.9984 6.12447C61.3298 6.48152 63.6494 7.42579 64.0116 6.9448L64.0541 6.51398V6.51251ZM32.7975 5.92234C32.0893 6.34283 29.4324 7.70464 29.9838 8.70792C30.1685 8.96464 30.1964 8.7448 30.365 8.64595C30.8151 8.38333 32.7169 7.22956 32.9266 6.9448C33.1846 6.59365 33.3459 6.03005 32.7975 5.92234ZM38.233 6.52283C37.8811 6.573 35.9339 7.47152 35.9266 7.74595C37.0395 8.44234 38.1993 7.63972 39.0028 6.85923L38.7609 6.50956C38.582 6.45349 38.4104 6.49923 38.233 6.52431V6.52283ZM66.2755 6.49185L65.3899 6.5612L65.4192 7.2089L66.2755 7.23103V6.49185ZM69.5013 10.1804C69.7931 8.57956 68.3547 7.20447 67.0101 6.64087C66.9955 6.94333 66.9867 7.23693 67.0761 7.53202C67.1494 7.77693 68.7477 9.813 68.994 10.0284C69.1788 10.1907 69.2418 10.2217 69.4999 10.1819L69.5013 10.1804ZM33.7242 7.52611C33.2946 7.10415 30.7887 8.79054 30.4192 9.28923C30.1128 9.70234 30.1099 10.0756 30.7052 10.0343C31.3679 9.98857 34.3987 8.19005 33.7228 7.52611H33.7242ZM64.8063 8.85251C64.8093 8.48808 65.1773 8.39956 65.3928 8.18857L64.3694 7.96726C64.2565 8.18857 64.6656 8.95579 64.8049 8.85103L64.8063 8.85251ZM68.6201 10.474C68.6377 10.2674 68.6362 10.0815 68.5439 9.88824C68.365 9.51054 66.1582 7.66038 65.8357 7.96726C66.1245 9.1712 67.3122 10.4828 68.6201 10.474ZM31.5615 11.0258C32.016 11.5555 32.9574 10.62 33.3533 10.3235C33.8547 9.94726 34.3327 9.41906 34.887 9.07677L34.3635 8.42906L31.4324 10.5448C31.4706 10.682 31.4779 10.9314 31.56 11.0273L31.5615 11.0258ZM29.472 8.85251C28.736 8.7389 28.5761 8.98087 28.4456 9.66103C29.0175 10.0933 29.689 9.56956 29.472 8.85251ZM65.887 10.5714C66.321 11.0051 67.1861 11.7089 67.8151 11.6691C69.3063 11.5746 67.3107 10.4681 67.0219 10.2409C66.7594 10.0343 65.5453 8.9012 65.4442 8.87464C65.0248 8.75808 64.8752 9.12546 64.9794 9.48693C64.9984 9.5548 65.7638 10.4474 65.887 10.5714ZM28.1524 9.14759C27.9456 9.12988 27.7638 9.13283 27.5703 9.22579C27.3591 9.32611 25.0131 12.4156 24.8958 12.7314C24.7242 13.1873 24.6216 14.2348 25.1494 14.4591C25.4794 13.3894 25.9368 12.4156 26.6846 11.5791C27.3459 10.8384 28.387 10.4474 28.1538 9.14906L28.1524 9.14759ZM70.953 10.3441L70.5981 10.1922L70.0879 10.9874C70.2946 11.2914 70.6553 11.2176 70.9676 11.2132L70.953 10.3441ZM30.7902 10.7705C30.5835 10.6245 29.8738 11.4537 29.9119 11.5053L30.9368 11.6543L30.7887 10.7705H30.7902ZM28.8855 11.0656C27.3049 10.7897 25.4178 13.6815 25.5571 14.9578C25.7037 16.3063 27.4354 14.4473 27.7741 14.0046C28.3621 13.233 28.953 12.0571 28.887 11.0656H28.8855ZM72.1377 11.2146C71.9368 11.1733 71.7858 11.2678 71.7242 11.461C71.3972 12.482 72.9016 13.5104 73.3195 14.3794C73.5248 14.8043 73.5424 15.2838 73.7741 15.6984C73.8005 15.7456 74.3107 16.2797 74.4104 16.2296C75.0761 15.5494 74.365 15.3812 74.2301 15.1643C74.1304 15.0035 74.2022 14.6022 74.0937 14.3396C73.5644 13.05 72.8972 12.3079 72.1377 11.2161V11.2146ZM69.5013 11.5082L68.6231 11.6573C68.5864 12.1323 68.821 12.6207 69.3606 12.4805C69.5981 12.1766 69.6143 11.8594 69.5013 11.5082ZM73.4603 16.3756C73.384 15.2646 72.8811 14.4207 72.1993 13.5886C71.994 13.3378 70.7066 11.9022 70.3826 12.2459C70.3679 13.8955 71.67 16.2163 73.4603 16.3756ZM30.3518 12.5425C28.9046 11.9981 28.6377 13.6166 27.9808 14.5078C27.8225 14.7232 26.6626 15.781 26.8342 15.9345C27.4838 15.9551 27.9383 16.0289 28.453 15.573C28.7785 15.2853 29.9808 13.5 30.2096 13.0619C30.3005 12.8863 30.4148 12.783 30.3518 12.544V12.5425ZM68.9148 12.9837C68.4647 13.4425 71.4324 17.3184 72.2096 17.1133L72.4398 16.7445C71.5233 15.6379 70.4838 14.5756 70.016 13.1297L68.9148 12.9837ZM23.6978 14.9105C23.1817 15.2056 22.953 16.5055 23.6729 16.5246C24.5952 16.5482 24.7404 14.915 23.6978 14.9105ZM22.1406 22.6476V20.1394C22.1406 19.3958 23.472 17.9986 23.4691 17.3361C23.4676 16.7814 22.9354 15.5332 22.3518 16.3682C21.8342 17.8466 20.5923 20.7502 21.211 22.2433C21.3107 22.4853 21.7052 22.5591 21.8489 22.7966L22.1406 22.6476ZM26.6861 16.6722L25.7228 16.8109L25.6582 17.854L26.6641 17.6858L26.6846 16.6737L26.6861 16.6722ZM75.9148 16.8566C75.1084 16.4656 74.6509 16.7858 75.06 17.646C75.8415 18.2317 76.3518 17.6578 75.9148 16.8566ZM73.7535 18.1461C73.8195 17.4763 73.2887 17.3391 72.7286 17.4084V18.1476L73.7535 18.1461ZM24.7799 17.5574C24.0072 17.5692 23.6964 18.2538 23.3415 18.8396C22.4662 20.2855 22.233 21.4761 22.5805 23.164C22.7961 23.1758 23.0248 23.1389 23.2096 23.0223C23.2873 22.9737 24.145 21.6576 24.2228 21.4968C24.3181 21.2976 24.7785 19.9609 24.7785 19.8428V17.556L24.7799 17.5574ZM76.8313 18.2951C76.5219 18 76.1157 19.325 76.0937 19.5463C76.0395 20.104 76.2462 20.5274 76.2521 21.0187C76.2579 21.5381 76.104 24.3945 76.2477 24.4919C76.6641 24.7766 77.1143 23.6214 77.2022 23.3145C77.6729 21.6753 77.4588 19.8502 76.8313 18.2951ZM26.6846 18.4427C25.0908 18.6994 25.016 20.4507 24.5571 21.6856C24.4192 22.0545 24.145 22.4145 24.0189 22.7715C23.9412 22.9928 23.843 22.9471 24.1216 23.1625C26.0424 22.801 26.5864 20.1291 26.6846 18.4427ZM74.4867 18.8115C74.3811 19.5891 74.4867 20.7768 74.4867 21.6148C74.4867 21.7107 75.1245 23.2835 75.2154 23.3897C75.3811 23.58 76.1319 24.0492 76.104 23.5314C75.7345 22.1105 75.6465 19.772 74.8503 18.5932C74.6553 18.3055 74.5145 18.602 74.4852 18.813L74.4867 18.8115ZM74.8401 23.552C74.7052 23.2023 74.2403 22.2655 74.2008 22.0515C73.9867 20.9007 74.7403 18.8602 72.7286 19.0343L74.126 23.8973L75.0732 24.1968C75.2609 23.735 74.8591 23.6007 74.8401 23.5535V23.552ZM20.8591 23.9386C20.2741 24.5066 21.6714 25.6014 21.9735 24.5317C22.167 23.8441 21.3093 23.5004 20.8591 23.9386ZM23.6245 25.0643C24.0732 25.5866 25.0791 24.7043 24.4222 24.182C23.7653 23.6597 23.3166 24.7058 23.6245 25.0643ZM25.6568 31.1312C25.7506 30.6502 26.0923 30.2327 26.1055 29.7251C26.1318 28.775 25.7697 26.4586 25.3767 25.5881C25.3034 25.4243 25.2301 25.1735 24.9999 25.231C23.8283 26.3804 24.6245 27.2066 24.8855 28.443C25.0409 29.1822 25.1011 30.153 25.2917 30.8435C25.3635 31.1046 25.3357 31.1873 25.6553 31.1312H25.6568ZM75.5101 26.4084C75.8577 25.5645 75.5483 25.1219 74.6333 25.2296C74.5277 25.8448 74.8445 26.4497 75.5101 26.4084ZM21.3709 25.563C21.1216 25.3269 20.56 25.38 20.2345 25.3771C20.0644 25.9038 20.4383 26.2594 20.5131 26.6474C20.843 28.3663 20.8723 31.7715 23.167 31.8689C23.1729 30.963 22.4706 30.4009 22.2081 29.5156C21.9852 28.7602 21.6964 25.8728 21.3709 25.5645V25.563ZM22.8005 25.38C21.9324 27.5445 22.3269 30.6945 24.5615 31.8659C25.0468 31.8394 24.5351 30.3138 24.5043 30.0069C24.4324 29.2766 24.5336 28.7322 24.3313 27.9679C24.0923 27.062 23.5101 25.9982 22.8005 25.38ZM77.6964 25.985L76.8327 25.9673L76.9706 26.9381L77.8547 26.8437L77.6964 25.9835V25.985ZM74.6348 28.623C74.7272 27.7466 75.3474 26.9573 74.2682 26.4099C73.6289 27.2391 72.4134 30.7919 73.3107 31.5015C73.8371 31.9176 73.6421 30.7063 73.8972 30.6886L74.1934 32.6051C74.4354 32.7792 75.2726 31.4543 75.3914 31.23C75.7917 30.4673 76.4823 28.3279 76.4031 27.512C76.2697 26.1428 75.0395 28.3087 74.6348 28.6215V28.623ZM78.2975 27.4441C76.7154 27.7791 76.6421 29.5746 76.1274 30.7919C75.7286 31.7361 74.9837 32.4148 74.7799 33.3443C76.8577 33.2484 77.3225 31.6653 77.7902 29.9568C77.8694 29.6661 78.387 27.5356 78.2975 27.4441ZM92.7799 28.3648C92.299 27.875 91.714 28.533 91.431 28.9269C89.8239 31.1681 93.1744 31.0751 93.1172 29.4419C93.1099 29.2368 92.9016 28.4902 92.7785 28.3648H92.7799ZM14.5116 30.5337C14.5747 29.8653 14.0351 29.5569 13.5615 29.2412C13.1597 29.5422 12.7242 30.004 13.0835 30.51C13.5835 30.631 14.0204 30.7623 14.5116 30.5337ZM26.6817 31.2832L25.6788 31.4455C25.1304 32.3292 27.2931 33.3369 26.6817 31.2832ZM28.3635 32.3986C28.1201 32.164 28.0497 31.683 27.5644 31.9353C26.5688 32.9873 28.1157 33.6423 28.6876 34.2797C29.1964 34.8478 29.5145 35.5014 29.9368 36.0473C30.0629 36.211 30.0835 36.3527 30.3503 36.2922C31.0629 34.504 29.4691 33.4638 28.3635 32.3971V32.3986ZM73.145 33.1761C73.3767 32.7645 73.3386 32.2938 72.9251 32.0341C72.1099 31.8586 72.2829 32.611 72.2873 33.1968L73.145 33.1761ZM71.8459 32.4591C71.7389 32.3351 71.0981 32.8633 70.9647 32.9725C69.8034 33.9241 67.8708 35.8732 68.1817 37.474C68.3811 37.7027 69.3459 36.0989 69.4969 35.9219C70.4735 34.7814 72.1011 34.2458 71.8459 32.4591ZM24.3415 32.9002H23.5351L23.4618 33.2691L24.3401 33.7855V32.9002H24.3415ZM30.0585 37.9181C29.8401 35.6902 27.5468 33.514 25.3679 33.1982C24.7345 34.6737 29.3005 38.6912 30.0585 37.9181ZM74.4779 33.9404C73.9104 33.5804 73.236 35.3509 74.6333 35.1148L74.4779 33.9404ZM26.7374 36.8337C25.843 35.9071 25.1113 33.5376 23.4603 34.4538C24.9251 36.1255 26.3767 39.2932 28.9486 38.9538C29.3342 38.2087 28.1817 37.9933 27.6626 37.5994C27.4163 37.412 26.931 37.0373 26.736 36.8351L26.7374 36.8337ZM72.8313 34.2561C71.5703 34.3299 69.4559 36.3778 69.1054 37.5935C69.0512 37.7823 68.8225 38.7871 69.1333 38.7989C71.0468 37.955 72.3591 36.3541 73.1626 34.4479C73.0483 34.3196 73.0233 34.2428 72.8313 34.2546V34.2561ZM74.4852 36.0015C72.5776 35.823 71.8093 37.8251 70.3122 38.8092C69.8269 39.1279 69.2741 38.9568 69.3547 39.8361C71.7066 40.0132 73.7477 38.0892 74.4852 36.0015ZM31.626 36.7614C31.2228 36.8779 31.1348 37.4769 31.2506 37.8237C31.3665 38.1704 32.365 38.2176 32.343 37.7646L32.192 36.8779L31.6274 36.7599L31.626 36.7614ZM37.3884 41.3115C37.8738 39.5469 35.1641 37.9874 33.7609 37.5123C32.799 37.1878 32.8562 37.6894 33.3049 38.4138C33.7535 39.1382 34.5791 39.1545 35.2389 39.5661C35.5893 39.7845 37.1289 41.5033 37.387 41.313L37.3884 41.3115ZM66.7154 38.9523C68.387 39.3212 68.1934 36.9945 66.7404 37.9432L66.7154 38.9523ZM61.2917 41.7541C62.2477 41.5092 62.7917 40.7051 63.7286 40.2979C64.2829 40.0574 65.4984 39.9379 65.7565 39.3876C65.843 38.7576 66.5615 37.5728 65.4016 37.9963C65.0483 38.1246 62.3928 39.901 62.0351 40.2168C61.5835 40.6151 61.1788 41.1064 61.2917 41.7541ZM30.0204 39.2666C28.6201 39.4628 30.148 41.5712 30.7228 40.2728C30.9031 39.8641 30.4955 39.2002 30.0204 39.2666ZM37.6832 43.0805C37.9882 42.7825 36.0087 40.8217 35.7008 40.5768C34.5541 39.665 33.2961 39.243 31.8181 39.3935C32.5043 41.8353 35.2198 43.3682 37.6817 43.0805H37.6832ZM66.7154 40.2787C64.7887 40.1548 61.9075 41.074 61.582 43.2281C62.6333 43.2605 63.5057 43.3004 64.4691 42.8135C64.953 42.5686 67.1861 40.7686 66.7154 40.2787ZM67.8386 40.3023C67.384 40.4499 67.6656 41.1286 67.9867 41.2923C68.7345 41.5432 69.4471 40.5045 68.8181 40.3038H67.8371L67.8386 40.3023ZM30.5409 41.7099C32.3063 42.5243 34.6099 45.9797 36.5087 43.892C36.5967 43.4818 35.3063 43.3653 34.9647 43.2355C34.6231 43.1056 34.277 42.9463 33.9706 42.7604C33.2829 42.3443 32.1553 40.9368 31.6788 40.7848C30.9662 40.5576 30.0541 41.1389 30.5424 41.7099H30.5409ZM45.7462 45.7378C45.5644 42.7884 42.4823 41.4782 39.8826 41.313C39.9823 43.0923 41.7198 43.1469 42.9427 43.7651C44.0336 44.3169 44.6817 45.2302 45.7462 45.7378ZM38.5629 42.6394C39.6524 42.7427 39.7316 41.4856 38.5629 41.6051V42.6394ZM55.0365 44.6091C55.4676 44.2107 56.0541 43.8168 56.5996 43.5999C57.3987 43.2841 58.8562 43.3461 59.0629 42.3841C59.1832 41.822 59.0967 41.555 58.4999 41.6671C57.8401 41.791 55.5497 42.7677 54.994 43.1646C54.233 43.7076 52.6597 45.4412 53.5923 46.325C53.7037 46.325 54.8019 44.826 55.0365 44.6091ZM60.0497 41.7541L59.5571 42.5405C59.7154 43.2959 60.4779 43.2015 60.714 42.5612C60.7843 42.2868 60.2814 41.6981 60.0497 41.7541ZM66.8195 41.7866C66.4046 41.9105 65.7667 42.7382 65.3855 42.9994C64.7887 43.4096 63.7961 43.802 63.0849 43.9304C62.7272 43.9938 61.4706 43.8168 61.5835 44.3346C62.3445 45.543 64.0908 44.8805 65.1538 44.3907C65.5101 44.2269 68.0351 42.6512 68.1172 42.4963C68.4002 41.9651 67.3371 41.6346 66.8181 41.7881L66.8195 41.7866ZM42.5952 46.4755C43.2814 46.5905 44.2198 46.3914 44.9412 46.4755L45.1612 46.1081C44.2022 45.0399 42.8503 44.1709 41.4603 43.7814C41.0776 43.6737 39.4647 43.2118 39.3034 43.7607C39.0527 44.612 41.8752 46.3545 42.5952 46.474V46.4755ZM58.0263 43.7076C56.4295 43.9643 54.8738 45.4132 53.9588 46.6938C54.0336 47.0523 55.5673 46.9269 55.9002 46.8797C57.0189 46.7204 58.7609 45.6094 59.5365 44.7861C60.6011 43.6574 58.9207 43.5645 58.0263 43.7076ZM37.9075 43.9673C37.4178 44.3656 37.4794 45.0148 37.9119 45.4382C38.9588 45.1918 38.777 44.3302 37.9075 43.9673ZM39.255 45.4722C38.8269 45.571 38.016 46.1022 38.3386 46.6274C38.4574 46.8192 41.8752 48.184 42.3181 48.2297C43.2711 48.3286 44.5805 48.0837 45.3063 47.4345C45.3107 47.1128 43.3547 47.2205 42.9559 47.1468C42.5571 47.073 41.7389 46.7307 41.3665 46.533C40.6201 46.1391 40.1025 45.2774 39.2565 45.4722H39.255ZM54.692 47.8048C54.4031 48.1943 55.6289 48.3537 55.8107 48.3743C57.7022 48.5809 59.5732 48.1574 60.6978 46.5477C59.4222 45.3659 58.1773 46.7248 56.931 47.1807C56.2008 47.4478 55.4104 47.495 54.692 47.8063V47.8048Z" fill="#074D31"/>
<path d="M46.9207 15.8607C46.8694 16.3726 46.4501 17.6105 46.3269 16.4582C46.2155 15.4062 46.4647 14.3439 46.4867 13.3584C46.5219 11.7605 46.4471 10.1538 46.4809 8.55591H46.9178L50.0996 19.5949C50.4163 21.3713 50.5366 23.313 49.3416 24.7884C48.1465 26.2638 47.3181 25.7105 45.8577 26.2992C42.3313 27.723 41.5234 33.4313 39.0527 34.501C36.7345 35.5043 36.2682 33.0167 36.5116 31.2787L36.9207 32.5608C37.8284 34.3166 39.1949 33.3561 40.0923 32.1536C41.299 30.5366 41.8386 28.3353 43.4017 26.7787C44.0116 26.1723 44.7726 26.19 44.7228 25.1616C44.67 24.0595 44.2419 23.6848 44.5894 22.3672C45.6993 18.1638 48.3196 21.5144 47.799 24.1967C49.1084 24.3428 49.8885 23.3425 49.8401 22.081C49.7917 20.8195 48.2741 14.9828 47.7272 13.7213C47.5762 13.3731 47.3577 12.8479 46.9207 12.9836C46.8533 13.9102 47.0116 14.9489 46.9207 15.8607ZM45.3504 24.4461C46.0512 25.0244 47.6759 23.7143 47.2858 22.8718C47.2287 22.7479 46.5102 22.0544 46.3782 22.0131C45.1495 21.6369 44.6451 23.8633 45.3518 24.4461H45.3504Z" fill="#074D31"/>
<path d="M51.4664 19.1804C51.286 19.4208 51.201 19.1774 51.1731 18.962C51.1027 18.4131 51.2274 17.7787 51.1585 17.2048C50.9107 15.1554 50.4414 12.904 50.2963 10.8428C50.2362 9.99297 50.3344 9.11511 50.2948 8.26379C50.4913 8.0174 50.8417 8.79494 50.9033 8.90265C52.374 11.4359 54.4854 17.1045 54.698 19.9874C55.0749 25.1204 53.896 29.1261 51.1042 33.3502C48.5778 34.5969 46.4004 36.8617 43.4019 36.8853C45.6555 34.7326 48.5851 33.393 50.6614 30.9866C51.8872 29.5672 53.1453 27.4131 53.6716 25.6058C55.0206 20.9774 53.2523 17.0867 51.698 12.8243C50.6159 12.3566 51.4664 13.289 51.4664 13.3525V19.1804Z" fill="#074D31"/>
<path d="M35.0424 14.3115L33.28 16.594C31.8885 18.7289 30.9618 21.2341 31.0791 23.8353C31.1861 26.224 32.9911 29.3622 35.733 28.2099C36.9149 27.7127 38.6304 24.8828 37.9589 23.6981C37.4266 22.7582 35.8914 23.2997 35.5116 22.621C34.7213 21.2105 35.5908 16.3653 37.3489 15.9655C38.7154 15.6541 39.4222 18.0074 38.6187 18.1417C38.3577 18.1859 38.0512 17.3317 37.1612 17.8466C36.5556 18.1963 35.5322 20.6499 36.0659 21.1781C37.0454 21.5632 37.7096 21.451 38.3005 22.4705C39.3738 24.3266 38.8723 26.4143 37.9061 28.1833C35.0967 33.3296 31.3533 28.9063 30.5674 25.0879C29.7638 21.1825 31.8254 16.5379 35.0439 14.3115H35.0424Z" fill="#074D31"/>
<path d="M61.5835 34.6706C63.3987 32.3616 65.5043 30.1514 66.7873 27.4411C68.5234 23.7732 67.6319 20.8608 65.3108 17.7182C65.0688 17.3906 63.3855 15.2985 63.0512 15.6408L62.9031 21.2473L62.3885 21.1013C61.9515 19.4252 62.2404 17.6975 62.324 16.0141C62.3474 15.5449 62.1553 13.3568 62.541 13.2787C63.3929 13.106 66.1979 16.9037 66.6465 17.7034C69.3738 22.5752 68.5512 27.3172 65.519 31.77C64.6759 33.0078 62.9677 34.11 61.5864 34.6706H61.5835Z" fill="#074D31"/>
<path d="M5.42664 26.1148C5.60113 26.3007 6.93251 24.9168 7.75509 26.0587C8.31521 26.8378 8.08647 29.2958 7.48383 30.0291C6.49263 31.233 5.28588 29.6528 4.54101 29.8638C4.10406 29.9878 3.69644 30.9645 3.37092 31.3496C2.65245 32.1994 1.45304 32.9371 0.294678 32.7527C0.800543 31.9087 1.73163 31.4514 2.42224 30.6915C4.59673 28.3014 3.9633 26.0425 5.72283 23.8323C7.32107 21.8228 9.55274 21.7845 9.17151 24.7943C8.5718 25.2768 8.18031 24.2912 7.6935 24.1982C6.64219 23.9976 5.46037 25.0658 5.42664 26.1148ZM5.5718 27.4427C5.20817 28.3928 7.21697 29.1881 7.04101 27.9664C6.93984 27.2642 6.0982 27.4501 5.5718 27.4427Z" fill="#074D31"/>
<path d="M51.0264 36.6639C51.151 37.3706 52.4208 37.2718 52.9252 36.9531C54.0703 36.2286 55.7815 32.8677 56.6832 31.587C57.7917 30.0157 58.8519 28.7291 60.6319 27.8882L60.9882 25.8816L63.6378 26.0439C63.4413 26.7329 63.5542 27.7008 63.0542 28.26C62.5293 28.8457 60.2096 29.5745 59.3387 30.1278C56.7976 31.7449 55.9091 35.1014 54.0791 37.3765C51.4135 40.6932 49.956 37.6259 50.7331 34.5998C50.7859 34.3947 50.7287 34.1395 51.0249 34.0819C51.1202 34.8639 50.8944 35.9247 51.0249 36.6639H51.0264Z" fill="#074D31"/>
<path d="M42.3227 14.3308C42.6335 14.2717 43.6863 15.1363 43.7816 15.4875C43.8916 15.8903 43.3931 16.3934 43.5764 17.0101C43.7596 17.6268 45.4121 18.158 44.1893 19.4667C43.7787 19.5994 42.7772 18.8057 42.6907 18.484C42.5632 18.0119 43.0485 17.6268 42.9033 17.1119C42.7582 16.597 41.8667 16.2001 41.786 15.7058C41.7303 15.3591 41.9385 14.4045 42.3212 14.3308H42.3227Z" fill="#074D31"/>
<path d="M56.453 21.2445C56.4134 21.0055 56.5644 20.8446 56.6846 20.6661C57.1817 19.9225 59.1685 17.9425 59.3591 17.3022C59.5703 16.5896 59.0351 16.5689 58.8753 16.2266C58.6113 15.6645 58.9911 15.1274 59.17 14.6081C59.4882 14.2038 59.9427 14.6789 60.0541 15.0389C60.4911 16.4627 59.2668 18.6345 58.365 19.6983C58.17 19.9284 56.6905 21.482 56.4559 21.243L56.453 21.2445Z" fill="#074D31"/>
<path d="M85.4414 24.446C84.8476 24.9477 84.4121 24.2601 83.8989 24.0211C83.6848 23.6537 84.1951 22.9146 84.5529 22.7449L85.9649 23.2878L87.1452 22.2993L88.2508 23.2672C88.33 23.5755 88.0162 24.0403 87.7273 24.1716C87.0792 24.3664 86.657 23.698 86.1511 23.7482C85.6936 23.7939 85.654 24.266 85.4429 24.4446L85.4414 24.446Z" fill="#074D31"/>
<path d="M9.67 33.3384C8.70079 33.0374 7.85475 32.3484 7.24772 33.6483C6.05124 33.2514 5.2917 32.7704 6.55417 31.7376C7.01751 31.6019 7.4222 32.2245 7.96033 32.1374C8.68027 32.0209 8.96473 30.7491 10.1026 32.1138L9.67 33.337V33.3384Z" fill="#074D31"/>
<path d="M94.4487 22.4499C95.2141 22.1887 95.3724 22.9279 95.9457 23.1537C96.261 23.0489 96.3827 22.5458 96.585 22.4189C97.2434 22.0043 98.6232 23.4104 97.7361 24.061C97.0205 24.5848 96.4384 23.5446 95.9868 23.6317L94.9677 24.4727L94.0176 23.5078L94.4472 22.4514L94.4487 22.4499Z" fill="#074D31"/>
<path d="M43.3783 8.87892C44.1745 10.1153 43.0293 11.7988 42.0704 12.6029C41.5088 13.0735 40.4502 13.8038 39.7361 13.8673C40.0528 13.1856 42.7361 11.4594 42.6466 10.8707C42.6173 10.6789 42.2595 10.465 42.22 9.95745C42.154 9.09728 42.5103 8.66204 43.3783 8.87892Z" fill="#074D31"/>
<path d="M56.7478 11.8033C56.9971 12.0379 56.9927 11.7311 57.0528 11.5968C57.1921 11.284 57.3285 10.4342 57.6232 10.2497C58.2434 9.86023 58.9399 10.9461 58.7977 11.5083C58.4047 11.6263 58.5777 11.3017 58.3974 11.222C58.2801 11.1689 57.717 11.0597 57.6217 11.1291L57.3813 12.3699C57.2156 12.4894 57.0895 13.4204 56.8211 13.2788C56.6261 13.1755 56.2434 11.8447 55.9883 11.4611C55.547 10.7942 54.6936 10.4622 54.8402 9.44564C56.0558 9.21105 56.4091 11.4861 56.7478 11.8048V11.8033Z" fill="#074D31"/>
<path d="M60.5161 21.5838C60.8695 22.0323 60.7449 23.0238 60.3255 23.4472C60.1642 23.611 59.1862 24.1377 58.9809 24.1731C57.9106 24.3575 58.0323 22.798 58.066 22.1311C58.5821 22.3539 58.1085 23.2746 58.8695 23.1625C59.2112 23.0828 58.8299 22.2433 58.9458 21.9836L60.1862 22.7198C60.7273 22.2757 60.2302 21.8656 60.1188 21.3934C60.1334 21.3772 60.4853 21.5454 60.5161 21.5838Z" fill="#074D31"/>
<path d="M11.8769 23.3099C11.6701 23.0856 11.9414 23.0561 12.0631 22.9794C12.4253 22.7537 14.2346 22.2904 14.3446 22.1074C14.4399 21.9481 14.3417 21.5999 14.3695 21.3933H13.3431C13.1041 20.7132 14.4795 20.4151 14.7449 20.7943C15.0792 21.9968 14.5235 22.9086 13.3739 23.2686C13.0572 23.3674 12.0983 23.5504 11.8769 23.3099Z" fill="#074D31"/>
<path d="M58.3591 36.5888C58.2125 36.4442 59.2712 35.3612 59.3533 35.0101C59.6289 33.8357 58.8093 33.9773 58.7961 33.573C58.909 33.0242 59.1788 32.6775 59.67 33.1319C60.4618 33.8637 59.5541 36.4914 58.3591 36.5903V36.5888Z" fill="#074D31"/>
<path d="M41.2975 20.4122C42.082 21.2119 42.3093 22.8275 42.2272 23.9016L40.6494 20.6955L40.6157 20.067C40.7022 19.9681 41.2037 20.3178 41.2961 20.4122H41.2975Z" fill="#074D31"/>
<path d="M51.1951 26.6828C51.1321 26.584 51.1453 25.1145 51.1819 24.871C51.2347 24.5199 51.4898 24.1761 51.5778 23.794C51.6717 23.3927 51.4737 22.6417 51.9033 22.4277C51.8535 23.0105 51.9854 23.6966 51.896 24.2617C51.8197 24.7486 51.2083 25.3136 51.5368 25.8197C51.6761 26.0351 52.2318 26.0174 52.0397 26.6164C51.9253 26.9705 51.2802 26.82 51.1936 26.6828H51.1951Z" fill="#074D31"/>
<path d="M35.3359 25.9643C33.6526 26.9012 33.3975 23.8973 33.9444 22.8689C34.1321 23.7571 33.7611 24.5346 34.528 25.231C34.8022 25.4804 35.3755 25.4981 35.3359 25.9643Z" fill="#074D31"/>
<path d="M64.5162 21.3197C64.5368 21.1973 64.7978 20.6558 64.8813 20.5009C64.9928 20.2958 64.8696 20.1379 65.2479 20.2132C65.3256 21.3315 63.9884 22.3274 65.525 22.953C65.4488 23.7689 65.2582 23.6376 64.5148 23.6066C64.5954 22.9043 64.4033 21.9881 64.5148 21.3197H64.5162Z" fill="#074D31"/>
<path d="M41.7889 36.5901L41.0396 36.5045C40.8285 35.9424 40.871 35.3787 41.0587 34.821L41.761 36.1047L41.7903 36.5901H41.7889Z" fill="#074D31"/>
</g>
<defs>
<clipPath id="clip0_468_14165">
<rect width="100" height="54" fill="white"/>
</clipPath>
</defs>
</svg>
