<svg width="32" height="32" viewBox="0 0 32 32" fill="none" xmlns="http://www.w3.org/2000/svg">
<path d="M15.5378 2.96369C15.9096 2.28748 15.8592 1.45769 15.4083 0.831445C14.9574 0.205199 14.1864 -0.105769 13.4272 0.0323726C6.79895 1.23839 1.77338 7.03749 1.77338 14.0145C1.77338 17.5661 3.07873 20.8179 5.23317 23.3085C5.9558 24.1439 7.21883 24.2353 8.05422 23.5127C8.88961 22.79 8.98102 21.527 8.25839 20.6916C6.70877 18.9002 5.77338 16.5691 5.77338 14.0145C5.77338 10.3468 7.70801 7.12866 10.6127 5.32783C10.536 5.88666 10.4964 6.457 10.4964 7.03616C10.4964 13.9218 16.0783 19.5037 22.9639 19.5037C23.543 19.5037 24.1133 19.4641 24.672 19.3875C24.3867 19.8476 24.0657 20.2836 23.7127 20.6916C22.9901 21.527 23.0815 22.79 23.9169 23.5127C24.7523 24.2353 26.0153 24.1439 26.7379 23.3085C28.3615 21.4316 29.504 19.1216 29.9677 16.5729C30.1059 15.8137 29.7949 15.0427 29.1686 14.5918C28.5424 14.1409 27.7126 14.0905 27.0364 14.4623C25.83 15.1256 24.4441 15.5037 22.9639 15.5037C18.2874 15.5037 14.4964 11.7127 14.4964 7.03616C14.4964 5.55597 14.8744 4.17008 15.5378 2.96369Z" fill="#0E382D"/>
<path d="M30 32.0001C31.1046 32.0001 32 31.1046 32 30.0001C32 28.8955 31.1046 28.0001 30 28.0001H2C0.89543 28.0001 0 28.8955 0 30.0001C0 31.1046 0.89543 32.0001 2 32.0001L30 32.0001Z" fill="#0E382D"/>
</svg>
