<svg id="Group_18" data-name="Group 18" xmlns="http://www.w3.org/2000/svg" width="24" height="24" viewBox="0 0 24 24">
  <path id="Path_20" data-name="Path 20" d="M19,2H18V1a1,1,0,0,0-2,0V2H8V1A1,1,0,0,0,6,1V2H5A5.006,5.006,0,0,0,0,7V19a5.006,5.006,0,0,0,5,5H19a5.006,5.006,0,0,0,5-5V7A5.006,5.006,0,0,0,19,2ZM5,4H19a3,3,0,0,1,3,3V8H2V7A3,3,0,0,1,5,4ZM19,22H5a3,3,0,0,1-3-3V10H22v9A3,3,0,0,1,19,22ZM13.892,11.885a2.84,2.84,0,0,0-1.969.807,2.842,2.842,0,0,0-1.969-.807,3.1,3.1,0,0,0-2.969,3.2c0,1.578,1.208,3.33,3.695,5.358a1.976,1.976,0,0,0,2.485,0c2.486-2.028,3.694-3.781,3.694-5.357a3.1,3.1,0,0,0-2.969-3.2Zm-1.947,7.007c-2.67-2.178-2.959-3.388-2.959-3.808a1.1,1.1,0,0,1,.969-1.2,1.1,1.1,0,0,1,.969,1.2,1,1,0,1,0,2,0,1.1,1.1,0,0,1,.969-1.2,1.1,1.1,0,0,1,.969,1.2c0,.419-.288,1.629-2.916,3.808Z" fill="#1b8354"/>
</svg>
