<svg width="20" height="20" viewBox="0 0 20 20" fill="none" xmlns="http://www.w3.org/2000/svg">
<path fill-rule="evenodd" clip-rule="evenodd" d="M10.0002 13.9587C12.6465 13.9587 14.7918 11.8134 14.7918 9.16699V5.83366C14.7918 3.18729 12.6465 1.04199 10.0002 1.04199C7.3538 1.04199 5.2085 3.18729 5.2085 5.83366V9.16699C5.2085 11.8134 7.3538 13.9587 10.0002 13.9587ZM10.0002 2.29199C8.04415 2.29199 6.4585 3.87765 6.4585 5.83366V9.16699C6.4585 11.123 8.04415 12.7087 10.0002 12.7087C11.7429 12.7087 13.1917 11.4499 13.4869 9.79199H11.6668C11.3217 9.79199 11.0418 9.51217 11.0418 9.16699C11.0418 8.82182 11.3217 8.54199 11.6668 8.54199H13.5418V6.45866H11.6668C11.3217 6.45866 11.0418 6.17884 11.0418 5.83366C11.0418 5.48848 11.3217 5.20866 11.6668 5.20866H13.4869C13.1917 3.55074 11.7429 2.29199 10.0002 2.29199Z" fill="white"/>
<path d="M3.9585 9.16699C3.9585 8.82182 3.67867 8.54199 3.3335 8.54199C2.98832 8.54199 2.7085 8.82182 2.7085 9.16699C2.7085 12.9835 5.64066 16.1152 9.37516 16.4322V17.7087H7.50016C7.15498 17.7087 6.87516 17.9885 6.87516 18.3337C6.87516 18.6788 7.15498 18.9587 7.50016 18.9587H12.5002C12.8453 18.9587 13.1252 18.6788 13.1252 18.3337C13.1252 17.9885 12.8453 17.7087 12.5002 17.7087H10.6252V16.4322C14.3597 16.1152 17.2918 12.9835 17.2918 9.16699C17.2918 8.82182 17.012 8.54199 16.6668 8.54199C16.3217 8.54199 16.0418 8.82182 16.0418 9.16699C16.0418 12.5037 13.3369 15.2087 10.0002 15.2087C6.66344 15.2087 3.9585 12.5037 3.9585 9.16699Z" fill="white"/>
</svg>
