<svg width="14" height="18" viewBox="0 0 14 18" fill="none" xmlns="http://www.w3.org/2000/svg">
<path fill-rule="evenodd" clip-rule="evenodd" d="M7 12.5625C9.38173 12.5625 11.3125 10.6317 11.3125 8.25V5.25C11.3125 2.86827 9.38173 0.9375 7 0.9375C4.61827 0.9375 2.6875 2.86827 2.6875 5.25V8.25C2.6875 10.6317 4.61827 12.5625 7 12.5625ZM7 2.0625C5.23959 2.0625 3.8125 3.48959 3.8125 5.25V8.25C3.8125 10.0104 5.23959 11.4375 7 11.4375C8.56847 11.4375 9.87235 10.3046 10.138 8.8125H8.5C8.18934 8.8125 7.9375 8.56066 7.9375 8.25C7.9375 7.93934 8.18934 7.6875 8.5 7.6875H10.1875V5.8125H8.5C8.18934 5.8125 7.9375 5.56066 7.9375 5.25C7.9375 4.93934 8.18934 4.6875 8.5 4.6875H10.138C9.87235 3.19537 8.56847 2.0625 7 2.0625Z" fill="#067647"/>
<path d="M1.5625 8.25C1.5625 7.93934 1.31066 7.6875 1 7.6875C0.68934 7.6875 0.4375 7.93934 0.4375 8.25C0.4375 11.6849 3.07645 14.5034 6.4375 14.7887V15.9375H4.75C4.43934 15.9375 4.1875 16.1893 4.1875 16.5C4.1875 16.8107 4.43934 17.0625 4.75 17.0625H9.25C9.56066 17.0625 9.8125 16.8107 9.8125 16.5C9.8125 16.1893 9.56066 15.9375 9.25 15.9375H7.5625V14.7887C10.9236 14.5034 13.5625 11.6849 13.5625 8.25C13.5625 7.93934 13.3107 7.6875 13 7.6875C12.6893 7.6875 12.4375 7.93934 12.4375 8.25C12.4375 11.253 10.003 13.6875 7 13.6875C3.99695 13.6875 1.5625 11.253 1.5625 8.25Z" fill="#067647"/>
</svg>
