<svg xmlns="http://www.w3.org/2000/svg" width="15.864" height="19.334" viewBox="0 0 15.864 19.334">
  <g id="svgexport-11" transform="translate(-85.332 -53.333)">
    <path id="microphone-Filled" d="M88.8,61.761V57.795a4.462,4.462,0,1,1,8.923,0v3.966a4.462,4.462,0,1,1-8.923,0Zm12.394,0a.992.992,0,1,0-1.983,0,5.949,5.949,0,1,1-11.9,0,.992.992,0,1,0-1.983,0,7.939,7.939,0,0,0,6.94,7.863v1.06H89.3a.991.991,0,0,0,0,1.983H97.23a.991.991,0,0,0,0-1.983H94.256v-1.06A7.939,7.939,0,0,0,101.2,61.761Z" transform="translate(0 0)" fill="#ffffff"/>
  </g>
</svg>