<svg width="14" height="18" viewBox="0 0 14 18" fill="none" xmlns="http://www.w3.org/2000/svg">
<path d="M5.5415 14.8337C5.5415 14.4885 5.82133 14.2087 6.1665 14.2087H7.83317C8.17835 14.2087 8.45817 14.4885 8.45817 14.8337C8.45817 15.1788 8.17835 15.4587 7.83317 15.4587H6.1665C5.82133 15.4587 5.5415 15.1788 5.5415 14.8337Z" fill="white"/>
<path fill-rule="evenodd" clip-rule="evenodd" d="M6.95338 0.0419925H7.04629C8.38178 0.0419778 9.44759 0.0419661 10.2835 0.15435C11.147 0.270452 11.8582 0.516707 12.4208 1.07932C12.9835 1.64194 13.2297 2.35312 13.3458 3.21667C13.4582 4.05258 13.4582 5.11838 13.4582 6.45388V11.5468C13.4582 12.8823 13.4582 13.9481 13.3458 14.784C13.2297 15.6475 12.9835 16.3587 12.4208 16.9213C11.8582 17.4839 11.147 17.7302 10.2835 17.8463C9.44759 17.9587 8.38179 17.9587 7.04629 17.9587H6.95339C5.61789 17.9587 4.55209 17.9587 3.71618 17.8463C2.85263 17.7302 2.14145 17.4839 1.57883 16.9213C1.01622 16.3587 0.769964 15.6475 0.653862 14.784C0.541478 13.9481 0.54149 12.8823 0.541504 11.5468V6.45387C0.54149 5.11838 0.541478 4.05258 0.653862 3.21667C0.769964 2.35312 1.01622 1.64194 1.57883 1.07932C2.14145 0.516707 2.85263 0.270452 3.71618 0.15435C4.55209 0.0419661 5.61789 0.0419778 6.95338 0.0419925ZM3.88274 1.3932C3.1578 1.49067 2.75437 1.67155 2.46272 1.96321C2.17106 2.25486 1.99018 2.65829 1.89272 3.38323C1.79283 4.12615 1.7915 5.10773 1.7915 6.50033V11.5003C1.7915 12.8929 1.79283 13.8745 1.89272 14.6174C1.99018 15.3424 2.17106 15.7458 2.46272 16.0374C2.75437 16.3291 3.1578 16.51 3.88274 16.6075C4.62566 16.7073 5.60724 16.7087 6.99984 16.7087C8.39244 16.7087 9.37401 16.7073 10.1169 16.6075C10.8419 16.51 11.2453 16.3291 11.537 16.0374C11.8286 15.7458 12.0095 15.3424 12.107 14.6174C12.2068 13.8745 12.2082 12.8929 12.2082 11.5003V6.50033C12.2082 5.10773 12.2068 4.12615 12.107 3.38323C12.0095 2.65829 11.8286 2.25486 11.537 1.96321C11.2453 1.67155 10.8419 1.49067 10.1169 1.3932C10.0833 1.38868 10.0492 1.38437 10.0146 1.38024C9.94801 1.77786 9.88651 2.12594 9.80325 2.40964C9.704 2.74783 9.55516 3.06538 9.26868 3.31955C8.97237 3.58245 8.63109 3.69289 8.26553 3.74341C7.92088 3.79105 7.49554 3.792 6.99988 3.792C6.50421 3.792 6.07888 3.79105 5.73422 3.74341C5.36866 3.69289 5.02739 3.58245 4.73108 3.31955C4.4446 3.06538 4.29576 2.74783 4.19651 2.40964C4.11324 2.12594 4.05175 1.77786 3.98516 1.38023C3.95052 1.38436 3.91639 1.38868 3.88274 1.3932ZM5.2401 1.30411C5.29718 1.6385 5.3421 1.87424 5.39592 2.05763C5.45971 2.275 5.51642 2.34526 5.56066 2.38452C5.60934 2.4277 5.68513 2.47475 5.90536 2.50518C6.14649 2.53851 6.47566 2.542 6.99988 2.542C7.52409 2.542 7.85327 2.53851 8.0944 2.50518C8.31463 2.47475 8.39042 2.4277 8.4391 2.38452C8.48334 2.34526 8.54004 2.275 8.60384 2.05763C8.65766 1.87424 8.70258 1.6385 8.75966 1.30412C8.25703 1.29231 7.67703 1.29199 6.99984 1.29199C6.32268 1.29199 5.74271 1.29231 5.2401 1.30411Z" fill="white"/>
</svg>
