<svg width="24" height="24" viewBox="0 0 24 24" fill="none" xmlns="http://www.w3.org/2000/svg">
<path fill-rule="evenodd" clip-rule="evenodd" d="M5.29967 11.356C1.24803 9.32319 1.24805 8.36993 1.24805 8C1.24805 7.611 1.24803 6.577 5.95903 4.321C8.11203 3.29 10.81 2.25 11.986 2.25C13.162 2.25 15.86 3.29 18.013 4.321C22.723 6.577 22.723 7.611 22.723 8C22.723 8.37019 22.723 9.32452 18.6637 11.3603L17.4561 16.9589C17.3231 17.5789 17.0101 18.0839 16.5512 18.4169C15.3111 19.3039 13.6452 19.748 11.9802 19.748L11.9822 19.7469C10.3182 19.7469 8.65617 19.3039 7.41917 18.4199C6.95517 18.0819 6.64113 17.5779 6.50813 16.9579L5.29967 11.356ZM7.00777 12.1624C8.92293 13.0116 10.9951 13.75 11.986 13.75C12.9755 13.75 15.0426 13.0137 16.9558 12.166L15.9902 16.644C15.9522 16.822 15.8661 17.0629 15.6741 17.2019C13.7081 18.6089 10.2582 18.6089 8.29617 17.2049C8.09917 17.0609 8.01215 16.8199 7.97415 16.6429L7.00777 12.1624ZM6.92007 10.475C4.42907 9.31 3.15103 8.401 2.80903 8C3.15103 7.599 4.42807 6.689 6.92007 5.525C9.38807 4.372 11.372 3.75 11.986 3.75C12.6 3.75 14.584 4.372 17.051 5.525C19.542 6.69 20.8201 7.599 21.1621 8C20.8201 8.401 19.542 9.31 17.051 10.475C14.584 11.628 12.601 12.25 11.986 12.25C11.371 12.25 9.38707 11.628 6.92007 10.475Z" fill="#1B8354"/>
<path opacity="0.4" d="M21.2284 21.749H19.7094C19.4004 21.749 19.1124 21.671 18.8784 21.524C18.8724 21.52 18.8664 21.517 18.8614 21.513C18.1484 21.036 18.1554 20.388 18.2404 19.876C18.2444 19.85 18.2504 19.824 18.2574 19.799C18.6324 18.453 19.0054 17.639 19.7264 16.309V9.5C19.7264 9.086 20.0624 8.75 20.4764 8.75C20.8904 8.75 21.2264 9.086 21.2264 9.5V16.315C21.9834 17.762 22.3844 18.6101 22.6984 19.8101C22.7034 19.8301 22.7084 19.85 22.7114 19.87C22.7914 20.325 22.8174 20.988 22.1244 21.488C22.1184 21.492 22.1124 21.497 22.1054 21.501C21.8614 21.666 21.5664 21.75 21.2284 21.75V21.749ZM19.7034 20.249C19.7034 20.249 19.7074 20.249 19.7094 20.249H21.2284C21.2364 20.249 21.2434 20.249 21.2494 20.249C21.2474 20.226 21.2444 20.196 21.2384 20.157C21.0494 19.441 20.8234 18.866 20.4704 18.136C20.1474 18.808 19.9333 19.3801 19.7143 20.1601C19.7083 20.1971 19.7054 20.226 19.7034 20.249Z" fill="#161616"/>
</svg>
