<svg xmlns="http://www.w3.org/2000/svg" width="194.962" height="182.026" viewBox="0 0 194.962 182.026">
  <g id="Non-profit_sector_companies" data-name="Non-profit sector companies" transform="translate(0 -16.984)">
    <path id="Path_65512" data-name="Path 65512" d="M178.046,35.226l-1.587-1.587a56.528,56.528,0,0,0-40.875-16.651A58.113,58.113,0,0,0,97.479,31.634a58.426,58.426,0,0,0-79.506,2.535l-1.057,1.057a57.756,57.756,0,0,0,0,81.678L28.67,128.658l-2.17,2.394A15.166,15.166,0,0,0,38.266,156.4a15,15,0,0,0,14.927,16.246,15.259,15.259,0,0,0,2.61-.224A14.815,14.815,0,0,0,70.588,186.5a15.013,15.013,0,0,0,3.982-.535A15.132,15.132,0,0,0,89.34,199.009a15.153,15.153,0,0,0,10.879-4.4l45.749-45.623a3.815,3.815,0,0,0-5.4-5.395L94.836,189.2a7.568,7.568,0,0,1-8.661,1.383,7.474,7.474,0,0,1-4.063-7.232,7.619,7.619,0,0,1,1.942-4.424l27.916-30.534a3.816,3.816,0,0,0-5.632-5.149L75.9,176.535a7.182,7.182,0,0,1-10.6-9.691l31.7-34.228a3.815,3.815,0,1,0-5.584-5.2L58.574,162.676A7.337,7.337,0,0,1,47.8,152.718l33.4-36.432a3.815,3.815,0,1,0-5.625-5.156L43.295,146.336a7.611,7.611,0,0,1-10.887.235,7.533,7.533,0,0,1-.254-10.4L91.568,70.64,104.826,81.7a16.584,16.584,0,0,0,21.381-25.356L103.228,36.751a51.17,51.17,0,0,1,32.677-12.136c.165,0-.165,0,0,0a49.563,49.563,0,0,1,35.159,14.417l1.587,1.587a50.124,50.124,0,0,1,0,70.886l-8.089,8.089a3.815,3.815,0,0,0,5.4,5.4l8.089-8.089a57.753,57.753,0,0,0,0-81.675ZM124.391,68.547a8.866,8.866,0,0,1-2.526,6.66,8.994,8.994,0,0,1-12.152.632l-16.069-13.4a3.815,3.815,0,0,0-5.27.367L33.8,123l-11.491-11.49a50.125,50.125,0,0,1,0-70.886l1.057-1.057a50.763,50.763,0,0,1,71.415,0c.043.043,26.473,22.585,26.473,22.585a8.866,8.866,0,0,1,3.135,6.4Z" transform="translate(0 0)" fill="#00ac65"/>
    <path id="Path_65513" data-name="Path 65513" d="M398.662,316.172a3.808,3.808,0,1,0,5.382-.173A3.808,3.808,0,0,0,398.662,316.172Z" transform="translate(-246.22 -184.517)" fill="#00ac65"/>
  </g>
</svg>
