<svg xmlns="http://www.w3.org/2000/svg" xmlns:xlink="http://www.w3.org/1999/xlink" width="137.342" height="137.33" viewBox="0 0 137.342 137.33">
  <defs>
    <linearGradient id="linear-gradient" x1="1" y1="-0.11" x2="0.083" y2="1.316" gradientUnits="objectBoundingBox">
      <stop offset="0" stop-color="#22907d"/>
      <stop offset="1" stop-color="#11483f"/>
    </linearGradient>
  </defs>
  <g id="Outline" transform="translate(-16.062 -16.002)">
    <path id="Union_8" data-name="Union 8" d="M7.9,123.423a36.619,36.619,0,0,1,1.854-47.6l3.356,3.115A32.054,32.054,0,1,0,66.24,88.486a2.288,2.288,0,0,1,.146-2.046l4.545-7.64-8,1.6a2.291,2.291,0,0,1-2.172-.74A32.053,32.053,0,0,0,17.38,75.087l-2.75-3.66a36.63,36.63,0,0,1,48.679,4.225L75.083,73.3A2.29,2.29,0,0,1,77.5,76.718l-6.6,11.1a36.62,36.62,0,0,1-63,35.609Zm63.054,2.489v-4.579h57.234a4.584,4.584,0,0,0,4.579-4.578v-1.232a9.106,9.106,0,0,1-4.579,1.232H75.53v-4.579h52.655a4.585,4.585,0,0,0,4.579-4.578v-1.233a9.094,9.094,0,0,1-4.579,1.233H77.819V103.02H109.87V89.283a9.167,9.167,0,0,1,9.157-9.157h13.737V38.918H32.034v20.6H27.455V18.314a9.166,9.166,0,0,1,9.157-9.157H41.19V6.868a6.868,6.868,0,0,1,13.737,0V9.157h9.157V6.868a6.868,6.868,0,1,1,13.735,0V9.157h9.158V6.868a6.868,6.868,0,0,1,13.736,0V9.157h9.157V6.868a6.868,6.868,0,0,1,13.737,0V9.157h4.579a9.167,9.167,0,0,1,9.157,9.157v98.441a9.167,9.167,0,0,1-9.157,9.157Zm46.735-22.893h10.5a4.586,4.586,0,0,0,4.579-4.58v-10.5Zm-3.238-13.737v10.5L129.526,84.7h-10.5A4.585,4.585,0,0,0,114.449,89.283ZM32.034,18.314V34.34h100.73V18.314a4.584,4.584,0,0,0-4.579-4.579h-4.579v2.289a6.868,6.868,0,0,1-13.737,0V13.736h-9.157v2.289a6.868,6.868,0,0,1-13.736,0V13.736H77.819v2.289a6.868,6.868,0,1,1-13.735,0V13.736H54.927v2.289a6.868,6.868,0,0,1-13.737,0V13.736H36.612A4.582,4.582,0,0,0,32.034,18.314ZM114.449,6.868v9.157a2.289,2.289,0,0,0,4.579,0V6.868a2.289,2.289,0,0,0-4.579,0Zm-22.893,0v9.157a2.289,2.289,0,0,0,4.579,0V6.868a2.289,2.289,0,0,0-4.579,0Zm-22.894,0v9.157a2.289,2.289,0,0,0,4.579,0V6.868a2.289,2.289,0,0,0-4.579,0Zm-22.894,0v9.157a2.289,2.289,0,1,0,4.578,0V6.868a2.289,2.289,0,1,0-4.578,0ZM29.744,123.623a2.289,2.289,0,0,1-2.289-2.289V109.888H16.007a2.289,2.289,0,0,1-2.289-2.289V93.862a2.289,2.289,0,0,1,2.289-2.289H27.455V80.126a2.289,2.289,0,0,1,2.289-2.289H43.479a2.29,2.29,0,0,1,2.29,2.289V91.572H57.216a2.289,2.289,0,0,1,2.289,2.289V107.6a2.289,2.289,0,0,1-2.289,2.289H45.769v11.446a2.29,2.29,0,0,1-2.29,2.289ZM18.3,105.309H29.744a2.29,2.29,0,0,1,2.29,2.289v11.446H41.19V107.6a2.289,2.289,0,0,1,2.289-2.289H54.927V96.151H43.479a2.289,2.289,0,0,1-2.289-2.289V82.415H32.034V93.862a2.29,2.29,0,0,1-2.29,2.289H18.3ZM98.424,89.283V84.7H103v4.578Zm-18.315,0V84.7h4.579v4.578Zm36.629-18.314v-4.58h4.58v4.58Zm-18.313,0v-4.58H103v4.58Zm-18.315,0v-4.58h4.579v4.58Zm-18.314,0v-4.58h4.578v4.58Zm54.943-18.315V48.075h4.58v4.578Zm-18.313,0V48.075H103v4.578Zm-18.315,0V48.075h4.579v4.578Zm-18.314,0V48.075h4.578v4.578Zm-18.315,0V48.075h4.579v4.578Z" transform="translate(16.062 16.002)" fill="url(#linear-gradient)"/>
  </g>
</svg>
