<svg width="22" height="18" viewBox="0 0 22 18" fill="none" xmlns="http://www.w3.org/2000/svg">
<path d="M9 12.25C8.58579 12.25 8.25 12.5858 8.25 13C8.25 13.4142 8.58579 13.75 9 13.75H10.5C10.9142 13.75 11.25 13.4142 11.25 13C11.25 12.5858 10.9142 12.25 10.5 12.25H9Z" fill="#1B8354"/>
<path d="M12.75 13C12.75 12.5858 13.0858 12.25 13.5 12.25H17C17.4142 12.25 17.75 12.5858 17.75 13C17.75 13.4142 17.4142 13.75 17 13.75H13.5C13.0858 13.75 12.75 13.4142 12.75 13Z" fill="#1B8354"/>
<path fill-rule="evenodd" clip-rule="evenodd" d="M12.5475 0.25H9.45247C7.61345 0.249991 6.16917 0.249983 5.03058 0.378599C3.86842 0.509878 2.926 0.78362 2.14263 1.40229C1.90811 1.58749 1.69068 1.79205 1.49298 2.0138C0.826807 2.76101 0.529322 3.66669 0.387626 4.77785C0.249975 5.85727 0.249986 7.22325 0.25 8.94726V9.05273C0.249986 10.7767 0.249975 12.1427 0.387626 13.2222C0.529322 14.3333 0.826807 15.239 1.49298 15.9862C1.69068 16.2079 1.90811 16.4125 2.14263 16.5977C2.926 17.2164 3.86842 17.4901 5.03058 17.6214C6.16917 17.75 7.61345 17.75 9.45246 17.75H12.5475C14.3866 17.75 15.8308 17.75 16.9694 17.6214C18.1316 17.4901 19.074 17.2164 19.8574 16.5977C20.0919 16.4125 20.3093 16.208 20.507 15.9862C21.1732 15.239 21.4707 14.3333 21.6124 13.2222C21.75 12.1427 21.75 10.7768 21.75 9.05275V8.94725C21.75 7.22325 21.75 5.85727 21.6124 4.77785C21.4707 3.66669 21.1732 2.76101 20.507 2.0138C20.3093 1.79205 20.0919 1.58749 19.8574 1.40229C19.074 0.78362 18.1316 0.509878 16.9694 0.378599C15.8308 0.249983 14.3865 0.249991 12.5475 0.25ZM3.07229 2.57946C3.54359 2.20725 4.16816 1.98556 5.19895 1.86912C6.24353 1.75112 7.60311 1.75 9.5 1.75H12.5C14.3969 1.75 15.7565 1.75112 16.8011 1.86912C17.8318 1.98556 18.4564 2.20725 18.9277 2.57946C19.0946 2.71122 19.2483 2.856 19.3874 3.012C19.774 3.44566 20.0029 4.01479 20.1244 4.96759C20.1361 5.05905 20.1467 5.15312 20.1563 5.25H1.84374C1.85333 5.15312 1.86391 5.05905 1.87558 4.96759C1.99708 4.01479 2.22599 3.44566 2.61262 3.012C2.7517 2.856 2.90545 2.71122 3.07229 2.57946ZM1.76458 6.75C1.75033 7.39612 1.75 8.13785 1.75 9C1.75 10.7886 1.75143 12.0589 1.87558 13.0324C1.99708 13.9852 2.22599 14.5543 2.61262 14.988C2.7517 15.144 2.90545 15.2888 3.07229 15.4205C3.54359 15.7927 4.16816 16.0144 5.19895 16.1309C6.24353 16.2489 7.60311 16.25 9.5 16.25H12.5C14.3969 16.25 15.7565 16.2489 16.8011 16.1309C17.8318 16.0144 18.4564 15.7927 18.9277 15.4205C19.0946 15.2888 19.2483 15.144 19.3874 14.988C19.774 14.5543 20.0029 13.9852 20.1244 13.0324C20.2486 12.0589 20.25 10.7886 20.25 9C20.25 8.13785 20.2497 7.39612 20.2354 6.75H1.76458Z" fill="#1B8354"/>
</svg>
