<svg width="64" height="44" viewBox="0 0 64 44" fill="none" xmlns="http://www.w3.org/2000/svg">
<path d="M6.63672 0.542969H56.5527C59.8487 0.543208 62.5205 3.21476 62.5205 6.51074V36.8945C62.5203 40.1903 59.8485 42.8621 56.5527 42.8623H6.63672C3.34072 42.8623 0.66916 40.1905 0.668945 36.8945V6.51074C0.668945 3.21461 3.34059 0.542969 6.63672 0.542969Z" fill="white"/>
<path d="M6.63672 0.542969H56.5527C59.8487 0.543208 62.5205 3.21476 62.5205 6.51074V36.8945C62.5203 40.1903 59.8485 42.8621 56.5527 42.8623H6.63672C3.34072 42.8623 0.66916 40.1905 0.668945 36.8945V6.51074C0.668945 3.21461 3.34059 0.542969 6.63672 0.542969Z" stroke="#D2D6DB" stroke-width="1.08512"/>
<path d="M38.748 25.3398V17.9445H40.0022V18.5375C40.3839 18.0603 40.9496 17.8013 41.6517 17.8013C43.0966 17.8013 44.1327 18.9532 44.1327 20.6027C44.1327 22.2522 43.0898 23.4245 41.6517 23.4245C40.9428 23.4245 40.3839 23.1519 40.0022 22.6747V25.3398H38.748ZM40.0022 19.9211V21.2843C40.268 21.8364 40.7451 22.2385 41.4335 22.2385C42.2651 22.2385 42.824 21.6183 42.824 20.5959C42.824 19.5871 42.2651 18.9737 41.4335 18.9737C40.7451 18.9805 40.268 19.3554 40.0022 19.9211Z" fill="#02AA7C"/>
<path d="M44.9438 21.7478C44.9438 20.8481 45.5028 20.221 46.4297 20.1052L48.5631 19.8325V19.5667C48.5631 19.2463 48.3995 19.076 48.0996 19.076H45.421V17.9377H48.1474C49.2311 17.9377 49.8241 18.4693 49.8241 19.4099V23.261H48.5563V22.6134C48.1882 23.1315 47.5816 23.4245 46.7978 23.4245C45.6936 23.4245 44.9438 22.7498 44.9438 21.7478ZM47.1045 22.4021C47.7452 22.4021 48.3382 22.0409 48.5563 21.5093V20.8413L46.9273 21.0662C46.4774 21.1276 46.2252 21.3661 46.2252 21.7546C46.2252 22.1704 46.5456 22.4021 47.1045 22.4021Z" fill="#02AA7C"/>
<path d="M50.7371 24.2016H51.6504C51.998 24.2016 52.1548 24.0584 52.2707 23.7313L52.4343 23.261L50.4985 17.9377H51.8072L53.0136 21.6456H53.0409L54.1928 17.9377H55.481L53.3612 24.0516C53.075 24.89 52.6933 25.3398 51.7595 25.3398H50.7371V24.2016Z" fill="#02AA7C"/>
<path d="M12.4655 29C13.9241 29 15.1238 28.5433 15.9144 27.7799C16.5074 27.1938 16.855 26.4031 16.855 25.4898C16.855 24.665 16.5483 23.9221 15.9826 23.3564C15.4168 22.7907 14.6057 22.3749 13.5833 22.1772L11.9066 21.85C11.2114 21.7205 10.8161 21.3729 10.8161 20.889C10.8161 20.2551 11.4295 19.8189 12.411 19.8189C13.0244 19.8189 13.5493 20.0166 13.8969 20.3642C14.115 20.6027 14.2649 20.9094 14.3127 21.2571L16.7323 20.7118C16.6642 20.0166 16.337 19.4031 15.8394 18.8987C15.042 18.1149 13.8219 17.6173 12.3837 17.6173C11.0546 17.6173 9.94362 18.0536 9.17341 18.7488C8.51908 19.3622 8.15102 20.187 8.15102 21.1071C8.15102 21.9114 8.41002 22.593 8.93485 23.111C9.45968 23.6358 10.2231 24.0243 11.225 24.2697L12.8813 24.665C13.7128 24.8627 14.0809 25.1694 14.0809 25.7147C14.0809 26.3895 13.4675 26.7848 12.4655 26.7848C11.743 26.7848 11.1569 26.5463 10.7888 26.1509C10.5298 25.8919 10.373 25.5375 10.3526 25.149L7.86475 25.6943C7.93291 26.4372 8.28052 27.0915 8.80535 27.6164C9.63008 28.482 10.966 29 12.4655 29ZM30.8823 29C32.4977 29 33.7382 28.4138 34.5902 27.5823C35.2649 26.9279 35.6807 26.1646 35.8988 25.3807L33.3496 24.5287C33.2406 24.924 33.0225 25.3398 32.6749 25.6602C32.2591 26.0555 31.6934 26.335 30.8823 26.335C30.1393 26.335 29.4441 26.0487 28.9397 25.5511C28.4353 25.0263 28.1286 24.2629 28.1286 23.3018C28.1286 22.3203 28.4353 21.5774 28.9397 21.0526C29.4373 20.5482 30.1189 20.2892 30.8618 20.2892C31.6457 20.2892 32.1909 20.5482 32.5863 20.9435C32.9134 21.2707 33.1111 21.6865 33.2406 22.1022L35.8375 21.2298C35.6398 20.4664 35.224 19.703 34.6174 19.0691C33.745 18.2171 32.4772 17.6105 30.8005 17.6105C29.2533 17.6105 27.856 18.1967 26.854 19.2055C25.8521 20.2278 25.2386 21.6524 25.2386 23.3087C25.2386 24.9649 25.8725 26.3827 26.8949 27.4119C27.8901 28.4138 29.3078 29 30.8823 29ZM22.0692 29C23.2007 29 24.0118 28.6524 24.3594 28.3457V25.9873C24.0936 26.185 23.5756 26.4236 22.894 26.4236C22.41 26.4236 22.0624 26.3145 21.8034 26.0759C21.5853 25.8578 21.4762 25.483 21.4762 24.9854V15H18.5931V17.9445H24.3526V20.739H18.5931V25.6943C18.5931 26.6962 18.8998 27.5073 19.4451 28.073C20.0585 28.6728 20.9582 29 22.0692 29Z" fill="#502C84"/>
</svg>
