<svg width="63" height="44" viewBox="0 0 63 44" fill="none" xmlns="http://www.w3.org/2000/svg">
<path d="M6.57373 0.542969H56.4897C59.7857 0.543208 62.4575 3.21476 62.4575 6.51074V36.8945C62.4573 40.1903 59.7855 42.8621 56.4897 42.8623H6.57373C3.27773 42.8623 0.606171 40.1905 0.605957 36.8945V6.51074C0.605957 3.21461 3.2776 0.542969 6.57373 0.542969Z" fill="white"/>
<path d="M6.57373 0.542969H56.4897C59.7857 0.543208 62.4575 3.21476 62.4575 6.51074V36.8945C62.4573 40.1903 59.7855 42.8621 56.4897 42.8623H6.57373C3.27773 42.8623 0.606171 40.1905 0.605957 36.8945V6.51074C0.605957 3.21461 3.2776 0.542969 6.57373 0.542969Z" stroke="#D2D6DB" stroke-width="1.08512"/>
<path d="M27.9403 23.2615H6.57422V30.3793H27.9403V23.2615Z" fill="#84B740"/>
<path d="M27.9403 13.5491H6.57422V20.6732H27.9403V13.5491Z" fill="#259BD6"/>
<path d="M49.3064 28.9329L49.2112 28.9519C48.8814 29.0154 48.7608 29.0407 48.5198 29.0407C47.9615 29.0407 47.3017 28.7553 47.3017 27.4104C47.3017 26.7189 47.4159 25.799 48.4563 25.799H48.4627C48.6403 25.8117 48.8433 25.8307 49.2239 25.9449L49.3064 25.9703V28.9329ZM49.4777 22.2274L49.3064 22.2592V24.7459L49.1541 24.7015L49.1097 24.6889C48.9384 24.6381 48.5451 24.5239 48.1645 24.5239C46.0837 24.5239 45.646 26.0972 45.646 27.4167C45.646 29.2247 46.661 30.2651 48.4309 30.2651C49.1795 30.2651 49.7314 30.189 50.2897 30.005C50.8035 29.8401 50.9875 29.6053 50.9875 29.1042V21.9673C50.4927 22.0562 49.9788 22.145 49.4777 22.2274Z" fill="#27292D"/>
<path d="M55.4915 28.9773L55.4027 29.0027L55.0855 29.0851C54.7873 29.1613 54.5209 29.2057 54.3179 29.2057C53.8294 29.2057 53.5376 28.9646 53.5376 28.5522C53.5376 28.2858 53.6581 27.8354 54.4575 27.8354H55.4915V28.9773ZM54.762 24.4922C54.1212 24.4922 53.4615 24.6064 52.6431 24.8601L52.1102 25.0187L52.2879 26.2241L52.8081 26.0528C53.3536 25.8751 54.0324 25.761 54.5399 25.761C54.7683 25.761 55.4661 25.761 55.4661 26.5159V26.8458H54.4955C52.7256 26.8458 51.9072 27.4104 51.9072 28.622C51.9072 29.6561 52.6621 30.2778 53.9309 30.2778C54.3242 30.2778 54.8698 30.2016 55.3392 30.0875L55.3646 30.0811L55.39 30.0875L55.5486 30.1128C56.0434 30.2016 56.5573 30.2905 57.0584 30.3856V26.4271C57.0584 25.1456 56.2845 24.4922 54.762 24.4922Z" fill="#27292D"/>
<path d="M43.1648 28.9773L43.076 29.0027L42.7588 29.0851C42.4607 29.1613 42.2006 29.2057 41.9912 29.2057C41.5028 29.2057 41.2109 28.9646 41.2109 28.5522C41.2109 28.2858 41.3315 27.8354 42.1244 27.8354H43.1585V28.9773H43.1648ZM42.4416 24.4922C41.7946 24.4922 41.1411 24.6064 40.3228 24.8601L39.7899 25.0187L39.9675 26.2241L40.4877 26.0528C41.0333 25.8751 41.7121 25.761 42.2196 25.761C42.448 25.761 43.1458 25.761 43.1458 26.5159V26.8458H42.1752C40.4053 26.8458 39.5806 27.4104 39.5806 28.622C39.5806 29.6561 40.3355 30.2778 41.6106 30.2778C42.0039 30.2778 42.5495 30.2016 43.0189 30.0875L43.0443 30.0811L43.0697 30.0875L43.2219 30.1128C43.7231 30.2016 44.2306 30.2905 44.7318 30.392V26.4334C44.7381 25.1393 43.9642 24.4922 42.4416 24.4922Z" fill="#27292D"/>
<path d="M36.4852 24.5049C35.6795 24.5049 35.0134 24.7713 34.766 24.8855L34.7026 24.9172L34.6455 24.8728C34.3029 24.6254 33.8017 24.4985 33.1039 24.4985C32.4886 24.4985 31.9113 24.5873 31.2832 24.7713C30.744 24.9363 30.5347 25.1964 30.5347 25.6848V30.208H32.2221V26.0274L32.3046 26.002C32.6472 25.8878 32.8502 25.8688 33.0468 25.8688C33.5353 25.8688 33.7827 26.1289 33.7827 26.6364V30.2143H35.4448V26.5666C35.4448 26.3509 35.4004 26.2241 35.3941 26.1987L35.337 26.0908L35.4511 26.0401C35.7049 25.9259 35.984 25.8688 36.2758 25.8688C36.6121 25.8688 37.0117 26.002 37.0117 26.6364V30.2143H38.6675V26.4715C38.6675 25.1456 37.957 24.5049 36.4852 24.5049Z" fill="#27292D"/>
<path d="M54.2479 18.1928C54.0005 18.1928 53.5881 18.1674 53.2646 18.104L53.1694 18.0849V15.6425C53.1694 15.4395 53.1314 15.3127 53.125 15.2936L53.0743 15.1921L53.1821 15.1477C53.2075 15.135 53.2329 15.1287 53.2646 15.116L53.2836 15.1033C53.3217 15.0906 53.3598 15.0779 53.3978 15.0653C53.4168 15.0589 53.4295 15.0526 53.4422 15.0526C53.8165 14.9511 54.1591 14.9637 54.3113 14.9511H54.3177C55.3517 14.9511 55.4723 15.8709 55.4723 16.5624C55.4659 17.9073 54.7998 18.1928 54.2479 18.1928ZM54.2415 13.5491C54.2289 13.5491 54.2098 13.5491 54.1971 13.5491C53.2265 13.5491 52.2305 13.8155 51.8753 14.3357C51.685 14.5895 51.5771 14.9067 51.5708 15.2809V17.7994C51.5708 18.0151 51.5264 18.0976 51.52 18.1166L51.4629 18.2245H48.3989V16.4736H48.3925C48.3545 14.6275 47.2633 13.6125 45.6837 13.6125H45.4997H44.1421C44.0787 14.0629 44.028 14.3801 43.9645 14.8305H45.4997C46.3054 14.8305 46.7304 15.5157 46.7304 16.5687V18.3323L46.6226 18.2752C46.6036 18.2689 46.4703 18.2245 46.261 18.2245H43.6093C43.5585 18.5607 43.4951 18.9984 43.4253 19.4362H51.5771C51.8563 19.3791 52.1798 19.3283 52.4589 19.2839C52.8713 19.4869 53.6389 19.5948 54.1654 19.5948C55.9353 19.5948 57.0836 18.4085 57.0836 16.5814C57.0772 14.7734 55.9671 13.5871 54.2415 13.5491Z" fill="#27292D"/>
<path d="M39.9489 20.1784H40.0251C41.795 20.1784 42.6197 19.5947 42.6197 18.1547C42.6197 17.1206 41.8648 16.2959 40.596 16.2959H38.9656C38.4772 16.2959 38.1853 16.0168 38.1853 15.5474C38.1853 15.2302 38.3059 14.8369 39.1052 14.8369H42.6704C42.7466 14.3738 42.7846 14.0819 42.8544 13.6188H39.1496C37.4241 13.6188 36.555 14.342 36.555 15.5474C36.555 16.74 37.3099 17.3617 38.5787 17.3617H40.209C40.6975 17.3617 40.9893 17.7487 40.9893 18.1547C40.9893 18.4211 40.8688 18.973 40.0758 18.973H39.803L34.582 18.9604H33.6305C32.8248 18.9604 32.2602 18.5036 32.2602 17.4442V16.7146C32.2602 15.6108 32.6979 14.9257 33.6305 14.9257H35.1784C35.2481 14.4562 35.2925 14.1581 35.356 13.714H33.4275H33.2435C31.6639 13.714 30.5727 14.7734 30.5347 16.6195V16.6893V17.4442C30.5727 19.2902 31.6639 20.172 33.2435 20.172H33.4275H34.785L37.6144 20.1784H39.3019H39.9489Z" fill="#27292D"/>
</svg>
