<svg width="70" height="70" viewBox="0 0 70 70" fill="none" xmlns="http://www.w3.org/2000/svg">
<path opacity="0.4" fill-rule="evenodd" clip-rule="evenodd" d="M23.3793 35.7293C23.4128 35.7293 23.4462 35.7293 23.4796 35.7293H25.5212C28.7418 35.7293 31.5368 38.2416 31.5368 41.5626C31.5368 44.8836 28.7418 47.396 25.5212 47.396H22.6046V52.5001C22.6046 53.7082 21.6252 54.6876 20.4171 54.6876C19.2089 54.6876 18.2296 53.7082 18.2296 52.5001V40.8335C18.2296 40.7994 18.2295 40.7651 18.2295 40.7306C18.2293 40.1348 18.229 39.4809 18.3071 38.9275C18.4002 38.2677 18.6401 37.4426 19.3569 36.7599C20.0587 36.0915 20.8808 35.8824 21.5215 35.8004C22.0803 35.7289 22.7459 35.7291 23.3793 35.7293ZM22.6046 43.021H25.5212C26.5291 43.021 27.1618 42.2687 27.1618 41.5626C27.1618 40.8566 26.5291 40.1043 25.5212 40.1043H23.4796C23.126 40.1043 22.8473 40.1044 22.6081 40.1096C22.6047 40.3109 22.6046 40.5442 22.6046 40.8335V43.021ZM57.3009 35.7293L61.2504 35.7293C62.4585 35.7293 63.4379 36.7087 63.4379 37.9168C63.4379 39.1249 62.4585 40.1043 61.2504 40.1043H57.4223C56.1602 40.1043 55.4234 40.1085 54.8998 40.1756C54.7654 40.1928 54.6727 40.2112 54.6113 40.2265C54.601 40.2719 54.5892 40.334 54.5776 40.4167C54.5107 40.8902 54.5056 41.5673 54.5056 42.7779V43.021H58.6983C59.9064 43.021 60.8858 44.0003 60.8858 45.2085C60.8858 46.4166 59.9064 47.396 58.6983 47.396H54.5056V52.5001C54.5056 53.7082 53.5262 54.6876 52.3181 54.6876C51.11 54.6876 50.1306 53.7082 50.1306 52.5001V42.7779C50.1306 42.7354 50.1306 42.693 50.1306 42.6506C50.1304 41.6154 50.1302 40.6219 50.2455 39.8051C50.376 38.8806 50.6906 37.8697 51.557 37.0446C52.4083 36.2339 53.4254 35.9536 54.3441 35.836C55.1797 35.729 56.2027 35.7291 57.3009 35.7293ZM38.2161 35.7293C38.238 35.7293 38.2599 35.7293 38.2816 35.7293C43.6164 35.7293 48.1254 39.8739 48.1254 45.2085C48.1254 50.543 43.6164 54.6876 38.2816 54.6876C38.2599 54.6876 38.238 54.6876 38.2161 54.6876C37.7967 54.6877 37.3548 54.6878 36.9758 54.6551C36.5506 54.6184 35.9987 54.5281 35.4412 54.2216C34.324 53.6073 33.8359 52.6265 33.6542 51.7769C33.5259 51.1768 33.5359 50.5117 33.5407 50.1903C33.5414 50.1417 33.5421 50.101 33.5421 50.0696V40.3473C33.5421 40.3159 33.5414 40.2752 33.5407 40.2266C33.5359 39.9052 33.5259 39.2401 33.6542 38.64C33.8359 37.7904 34.324 36.8096 35.4412 36.1953C35.9987 35.8888 36.5506 35.7985 36.9758 35.7618C37.3548 35.7291 37.7967 35.7292 38.2161 35.7293ZM37.9157 40.1048C37.9157 40.1064 37.9157 40.1079 37.9157 40.1095C37.9163 40.1838 37.9171 40.2704 37.9171 40.3473V50.0696C37.9171 50.1465 37.9163 50.2331 37.9157 50.3074C37.9157 50.309 37.9157 50.3105 37.9157 50.3121C38.0236 50.3126 38.1439 50.3126 38.2816 50.3126C41.4037 50.3126 43.7504 47.9281 43.7504 45.2085C43.7504 42.4889 41.4037 40.1043 38.2816 40.1043C38.1439 40.1043 38.0236 40.1043 37.9157 40.1048Z" fill="#1B8354"/>
<path fill-rule="evenodd" clip-rule="evenodd" d="M6.55764 35.0093C6.55785 30.9674 6.56373 27.8033 6.73333 25.232C6.91143 22.5317 7.2767 20.3342 8.07922 18.3092C10.5237 12.1407 15.6712 7.32477 22.1324 5.05658C25.8388 3.75552 30.3205 3.65379 37.7703 3.64633C37.8173 3.64578 37.8645 3.64551 37.9118 3.64551C37.9299 3.64551 37.9477 3.64573 37.9657 3.64616C38.5386 3.64571 39.1292 3.64575 39.7379 3.6458L40.2982 3.64582L40.7958 3.64575C45.5651 3.64476 48.5372 3.64414 50.989 4.50488C54.9238 5.88615 58.0785 8.82647 59.5806 12.617C60.0898 13.9025 60.3086 15.2672 60.4136 16.8566C60.5159 18.4099 60.516 20.3219 60.516 22.7263V29.1667C60.516 30.3748 59.5365 31.3542 58.3285 31.3542C57.1204 31.3542 56.141 30.3748 56.141 29.1667V22.803C56.141 20.3049 56.1398 18.537 56.0479 17.1445C55.9575 15.7716 55.7854 14.9155 55.5133 14.2288C54.5024 11.6782 52.3426 9.61677 49.54 8.63292C47.8853 8.05204 45.7305 8.02083 40.2982 8.02083C39.3946 8.02083 38.54 8.02112 37.7304 8.02264C33.6528 8.119 30.3771 11.4546 30.3771 15.5552C30.3771 15.9844 30.3959 16.4457 30.42 16.9637L30.429 17.1557C30.4502 17.6075 30.4733 18.0992 30.4835 18.5896C30.5065 19.6982 30.4715 20.9919 30.1369 22.2407C29.4851 24.6731 27.5852 26.573 25.1528 27.2248C23.904 27.5594 22.6103 27.5944 21.5017 27.5714C21.0115 27.5612 20.52 27.5381 20.0683 27.5169L19.8758 27.5079C19.3578 27.4838 18.8965 27.465 18.4673 27.465C14.3118 27.465 10.9419 30.8291 10.9326 34.9825C10.9326 35.163 10.9326 35.3456 10.9326 35.5302V42.9546C10.9326 47.4836 10.9361 50.6896 11.2267 53.1588C11.5112 55.5768 12.0464 57.0193 12.9296 58.13C13.5061 58.8548 14.1933 59.5026 14.9723 60.0515C16.1891 60.9087 17.7799 61.4273 20.3961 61.7C23.0471 61.9765 26.4801 61.9791 31.283 61.9791H43.7451C44.9532 61.9791 45.9326 62.9585 45.9326 64.1666C45.9326 65.3747 44.9532 66.3541 43.7451 66.3541H31.1566C26.5078 66.3541 22.8469 66.3541 19.9426 66.0514C16.9771 65.7425 14.5386 65.0976 12.4525 63.6279C11.3389 62.8433 10.3458 61.9097 9.50558 60.8533C7.91632 58.8551 7.21529 56.5057 6.88166 53.6701C6.55755 50.9156 6.55758 47.4521 6.55762 43.0949V35.4506C6.55762 35.3024 6.55763 35.1551 6.55764 35.0093ZM28.5 8.25644C26.4784 8.42222 24.9494 8.70444 23.5816 9.18461C18.2524 11.0554 14.0996 14.9925 12.1465 19.921C11.5813 21.3473 11.2627 23.0361 11.0988 25.5199C11.096 25.5628 11.0932 25.6058 11.0905 25.649C13.119 24.0465 15.6815 23.09 18.4673 23.09C19.0091 23.09 19.5622 23.1136 20.0786 23.1376L20.2765 23.1468C20.7335 23.1682 21.1637 23.1884 21.5926 23.1973C22.5861 23.2179 23.3812 23.1701 24.0204 22.9988C24.9431 22.7516 25.6637 22.0309 25.911 21.1083C26.0823 20.469 26.1301 19.674 26.1094 18.6805C26.1005 18.2516 26.0804 17.8215 26.0589 17.3646L26.0497 17.1665C26.0257 16.65 26.0021 16.097 26.0021 15.5552C26.0021 12.805 26.9343 10.2725 28.5 8.25644Z" fill="#1B8354"/>
</svg>
