<svg width="14" height="16" viewBox="0 0 14 16" fill="none" xmlns="http://www.w3.org/2000/svg">
<path fill-rule="evenodd" clip-rule="evenodd" d="M7 0.833496C5.067 0.833496 3.5 2.4005 3.5 4.3335C3.5 6.26649 5.067 7.8335 7 7.8335C8.933 7.8335 10.5 6.26649 10.5 4.3335C10.5 2.4005 8.933 0.833496 7 0.833496ZM4.5 4.3335C4.5 2.95278 5.61929 1.8335 7 1.8335C8.38071 1.8335 9.5 2.95278 9.5 4.3335C9.5 5.71421 8.38071 6.8335 7 6.8335C5.61929 6.8335 4.5 5.71421 4.5 4.3335Z" fill="#161616"/>
<path fill-rule="evenodd" clip-rule="evenodd" d="M11.1526 10.053C11.0442 9.99179 10.9484 9.93777 10.8709 9.89161C8.50151 8.48079 5.49873 8.48079 3.12936 9.89161C3.05182 9.93778 2.95604 9.99182 2.84759 10.053C2.37238 10.3211 1.65404 10.7264 1.16193 11.2081C0.854152 11.5093 0.561716 11.9063 0.508552 12.3927C0.452015 12.9099 0.677657 13.3953 1.13034 13.8265C1.9113 14.5706 2.84849 15.1668 4.0607 15.1668H9.93954C11.1517 15.1668 12.0889 14.5706 12.8699 13.8265C13.3226 13.3953 13.5482 12.9099 13.4917 12.3927C13.4385 11.9063 13.1461 11.5093 12.8383 11.2081C12.3462 10.7264 11.6278 10.3211 11.1526 10.053ZM3.64097 10.7508C5.69509 9.52772 8.30514 9.52772 10.3593 10.7508C10.4712 10.8175 10.5938 10.887 10.7223 10.9599C11.1974 11.2294 11.7521 11.5442 12.1388 11.9227C12.3789 12.1577 12.4812 12.3515 12.4976 12.5013C12.5106 12.6202 12.4805 12.8163 12.1801 13.1025C11.4896 13.7604 10.7878 14.1668 9.93954 14.1668H4.0607C3.2124 14.1668 2.51068 13.7604 1.82011 13.1025C1.51969 12.8163 1.48963 12.6202 1.50263 12.5013C1.519 12.3515 1.62134 12.1577 1.86143 11.9227C2.24816 11.5442 2.80284 11.2295 3.27791 10.96C3.40635 10.8871 3.52906 10.8175 3.64097 10.7508Z" fill="#161616"/>
</svg>
