<svg width="22" height="22" viewBox="0 0 22 22" fill="none" xmlns="http://www.w3.org/2000/svg">
<path fill-rule="evenodd" clip-rule="evenodd" d="M4.31726 0.286568C4.88395 0.403692 5.33524 0.784431 5.61564 1.28746L6.50885 2.8899C6.83785 3.48011 7.11473 3.97679 7.29554 4.40857C7.48735 4.86658 7.60126 5.31824 7.54919 5.8176C7.49711 6.31696 7.29246 6.7354 7.01029 7.14399C6.74428 7.52917 6.37088 7.95804 5.92718 8.46767L3.69932 11.0267C5.46617 13.9227 8.0751 16.5328 10.9741 18.3014L13.5331 16.0736C14.0427 15.6299 14.4716 15.2565 14.8568 14.9905C15.2653 14.7083 15.6838 14.5036 16.1831 14.4516C16.6825 14.3995 17.1342 14.5134 17.5922 14.7052C18.024 14.886 18.5206 15.1629 19.1109 15.4919L20.7133 16.3851C21.2163 16.6655 21.5971 17.1168 21.7142 17.6835C21.8325 18.2561 21.658 18.8316 21.2724 19.3047C19.8735 21.021 17.6322 22.1139 15.281 21.6396C13.8358 21.348 12.4098 20.8623 10.6851 19.8732C7.2197 17.8858 4.11263 14.777 2.12755 11.3157C1.13843 9.59099 0.652719 8.165 0.361176 6.71974C-0.11312 4.36852 0.979715 2.12724 2.69608 0.728334C3.16911 0.342792 3.74466 0.16822 4.31726 0.286568ZM12.3712 19.0739C13.5376 19.6486 14.552 19.9623 15.5776 20.1692C17.2737 20.5113 18.9859 19.7358 20.1097 18.357C20.2572 18.176 20.2582 18.0496 20.2452 17.9871C20.2311 17.9187 20.1738 17.8017 19.983 17.6953L18.4165 16.8221C17.7808 16.4678 17.3577 16.2332 17.0128 16.0888C16.6854 15.9517 16.4976 15.9269 16.3387 15.9435C16.1799 15.96 16.0012 16.0231 15.7092 16.2247C15.4015 16.4372 15.0358 16.7541 14.487 17.2319L12.3712 19.0739ZM2.92685 9.62956L4.76884 7.51376C5.24667 6.9649 5.56355 6.59925 5.77602 6.29159C5.9777 5.99956 6.04072 5.82086 6.05728 5.66202C6.07384 5.50319 6.04905 5.31533 5.91196 4.98797C5.76754 4.6431 5.53292 4.21993 5.17861 3.58429L4.30543 2.01778C4.19905 1.82693 4.08207 1.76966 4.01365 1.75552C3.95115 1.7426 3.82478 1.74351 3.64374 1.89106C2.26497 3.01482 1.48943 4.72708 1.83156 6.42313C2.03844 7.44871 2.35213 8.46319 2.92685 9.62956Z" fill="#1B8354"/>
</svg>
