<svg width="20" height="20" viewBox="0 0 20 20" fill="none" xmlns="http://www.w3.org/2000/svg">
<path d="M9.7915 6.25033C9.7915 5.90515 9.51168 5.62533 9.1665 5.62533C8.82133 5.62533 8.5415 5.90515 8.5415 6.25033V8.54199H6.24984C5.90466 8.54199 5.62484 8.82182 5.62484 9.16699C5.62484 9.51217 5.90466 9.79199 6.24984 9.79199H8.5415V12.0837C8.5415 12.4288 8.82133 12.7087 9.1665 12.7087C9.51168 12.7087 9.7915 12.4288 9.7915 12.0837V9.79199H12.0832C12.4283 9.79199 12.7082 9.51217 12.7082 9.16699C12.7082 8.82181 12.4283 8.54199 12.0832 8.54199H9.7915V6.25033Z" fill="white"/>
<path fill-rule="evenodd" clip-rule="evenodd" d="M1.0415 9.16699C1.0415 4.67968 4.67919 1.04199 9.1665 1.04199C13.6538 1.04199 17.2915 4.67968 17.2915 9.16699C17.2915 11.1857 16.5553 13.0324 15.3368 14.4534L18.7751 17.8917C19.0192 18.1358 19.0192 18.5315 18.7751 18.7756C18.531 19.0197 18.1353 19.0197 17.8912 18.7756L14.4529 15.3373C13.0319 16.5558 11.1852 17.292 9.1665 17.292C4.67919 17.292 1.0415 13.6543 1.0415 9.16699ZM9.1665 2.29199C5.36955 2.29199 2.2915 5.37003 2.2915 9.16699C2.2915 12.964 5.36955 16.042 9.1665 16.042C12.9635 16.042 16.0415 12.964 16.0415 9.16699C16.0415 5.37003 12.9635 2.29199 9.1665 2.29199Z" fill="white"/>
</svg>
