<svg width="18" height="18" viewBox="0 0 18 18" fill="none" xmlns="http://www.w3.org/2000/svg">
<path d="M13.5 8.25C13.0858 8.25 12.75 8.58579 12.75 9C12.75 9.41422 13.0858 9.75 13.5 9.75H13.5067C13.9209 9.75 14.2567 9.41422 14.2567 9C14.2567 8.58579 13.9209 8.25 13.5067 8.25H13.5Z" fill="#067647"/>
<path fill-rule="evenodd" clip-rule="evenodd" d="M9.789 0.937501H8.211C7.53715 0.93748 6.97522 0.937462 6.52914 0.997436C6.0583 1.06074 5.6332 1.19999 5.29159 1.54159C4.94999 1.8832 4.81074 2.3083 4.74743 2.77914C4.68746 3.22523 4.68748 3.78714 4.6875 4.46099L4.6875 5.4408C4.39588 5.44476 4.13781 5.45347 3.90879 5.4726C3.4758 5.50877 3.09863 5.58499 2.74875 5.76491C2.32988 5.9803 1.97028 6.29295 1.70327 6.67702C1.47867 7.00009 1.36033 7.36093 1.27892 7.77722C1.20033 8.1791 1.14855 8.67787 1.08471 9.29282L1.07899 9.3479C1.00233 10.0862 0.940552 10.6812 0.937613 11.1625C0.934587 11.6578 0.991815 12.096 1.19761 12.499C1.43918 12.972 1.81189 13.3673 2.27085 13.6425C2.65864 13.8751 3.09603 13.9718 3.60248 14.0177C3.94978 14.0492 4.35822 14.0585 4.83844 14.0613C4.79307 14.2666 4.7559 14.4483 4.73027 14.6091C4.68569 14.889 4.66701 15.155 4.71863 15.4191C4.83715 16.0255 5.21034 16.5576 5.75369 16.8452C5.99545 16.9732 6.25566 17.0202 6.52413 17.0417C6.78342 17.0625 7.10357 17.0625 7.48582 17.0625H10.5142C10.8964 17.0625 11.2166 17.0625 11.4758 17.0417C11.7443 17.0202 12.0045 16.9732 12.2463 16.8452C12.7896 16.5576 13.1628 16.0255 13.2813 15.4191C13.333 15.155 13.3143 14.889 13.2697 14.6091C13.2441 14.4483 13.2069 14.2666 13.1615 14.0613C13.6418 14.0585 14.0502 14.0492 14.3975 14.0177C14.904 13.9718 15.3414 13.8751 15.7291 13.6425C16.1881 13.3673 16.5608 12.972 16.8024 12.499C17.0082 12.096 17.0654 11.6578 17.0624 11.1625C17.0594 10.6812 16.9977 10.0862 16.921 9.34782L16.9153 9.29283C16.8515 8.67787 16.7997 8.1791 16.7211 7.77722C16.6397 7.36093 16.5213 7.00009 16.2967 6.67702C16.0297 6.29295 15.6701 5.9803 15.2513 5.76491C14.9014 5.58499 14.5242 5.50877 14.0912 5.4726C13.8622 5.45347 13.6041 5.44476 13.3125 5.4408L13.3125 4.46101C13.3125 3.78718 13.3125 3.22521 13.2526 2.77914C13.1893 2.3083 13.05 1.8832 12.7084 1.54159C12.3668 1.19999 11.9417 1.06074 11.4709 0.997436C11.0248 0.937462 10.4628 0.93748 9.789 0.937501ZM5.32712 12.3933C5.23179 12.5524 5.16432 12.7315 5.10525 12.9372C4.5102 12.9361 4.0634 12.9299 3.70399 12.8973C3.27255 12.8582 3.02844 12.7851 2.84939 12.6777C2.56741 12.5086 2.3432 12.2686 2.19952 11.9873C2.1106 11.8132 2.06008 11.5813 2.06259 11.1693C2.06516 10.7495 2.12062 10.2092 2.201 9.43495C2.26818 8.78787 2.31526 8.33955 2.383 7.99313C2.44903 7.65548 2.52636 7.46393 2.62698 7.31919C2.78702 7.08899 3.00501 6.89816 3.26321 6.76539C3.42896 6.68016 3.64192 6.62381 4.00245 6.59369C4.37037 6.56296 4.8414 6.5625 5.51547 6.5625H12.4845C13.1586 6.5625 13.6296 6.56296 13.9976 6.59369C14.3581 6.62381 14.571 6.68016 14.7368 6.76539C14.995 6.89816 15.213 7.08899 15.373 7.31919C15.4736 7.46393 15.551 7.65548 15.617 7.99313C15.6847 8.33955 15.7318 8.78787 15.799 9.43495C15.8794 10.2092 15.9348 10.7495 15.9374 11.1693C15.9399 11.5813 15.8894 11.8132 15.8005 11.9873C15.6568 12.2686 15.4326 12.5086 15.1506 12.6777C14.9716 12.7851 14.7275 12.8582 14.296 12.8973C13.9366 12.9299 13.4898 12.9361 12.8947 12.9372C12.8357 12.7315 12.7682 12.5524 12.6729 12.3933C12.4428 12.0094 12.0952 11.7105 11.6779 11.5547C11.3615 11.4365 11.0059 11.4369 10.5762 11.4374H7.42374C6.99411 11.4369 6.63849 11.4365 6.32209 11.5547C5.90474 11.7105 5.55713 12.0094 5.32712 12.3933ZM12.1875 5.4375V4.5C12.1875 3.77699 12.1863 3.29132 12.1376 2.92905C12.0911 2.58295 12.0107 2.43483 11.9129 2.33709C11.8152 2.23935 11.6671 2.15894 11.321 2.1124C10.9587 2.0637 10.473 2.0625 9.75 2.0625H8.25C7.52699 2.0625 7.04132 2.0637 6.67905 2.1124C6.33295 2.15894 6.18483 2.23935 6.08709 2.33709C5.98935 2.43483 5.90893 2.58295 5.8624 2.92905C5.8137 3.29132 5.8125 3.77699 5.8125 4.5V5.4375H12.1875ZM7.50847 12.5625C6.94849 12.5625 6.81597 12.5711 6.71562 12.6086C6.54989 12.6705 6.39823 12.7945 6.29215 12.9715C6.22306 13.0869 6.17873 13.2491 6.04475 13.8306C5.94559 14.261 5.87793 14.556 5.84126 14.7861C5.80501 15.0137 5.80812 15.1285 5.82273 15.2033C5.88085 15.5006 6.05819 15.7335 6.28005 15.8509C6.32525 15.8749 6.40929 15.9039 6.61411 15.9203C6.823 15.9371 7.09765 15.9375 7.50848 15.9375H10.4915C10.9023 15.9375 11.177 15.9371 11.3859 15.9203C11.5907 15.9039 11.6747 15.8749 11.7199 15.8509C11.9418 15.7335 12.1191 15.5006 12.1772 15.2033C12.1919 15.1285 12.195 15.0137 12.1587 14.7861C12.122 14.556 12.0544 14.261 11.9552 13.8306C11.8212 13.2491 11.7769 13.0869 11.7078 12.9715C11.6017 12.7945 11.4501 12.6705 11.2843 12.6086C11.184 12.5711 11.0515 12.5625 10.4915 12.5625H7.50847Z" fill="#067647"/>
</svg>
