<svg xmlns="http://www.w3.org/2000/svg" width="24" height="24" viewBox="0 0 24 24">
  <g id="Group_17" data-name="Group 17" transform="translate(0 -0.001)">
    <path id="Path_19" data-name="Path 19" d="M10.02,1.3A1,1,0,0,1,10.8.12a6.077,6.077,0,0,1,2.4,0,1,1,0,1,1-.4,1.96,4.085,4.085,0,0,0-1.6,0A1,1,0,0,1,10.02,1.3ZM14,17A7,7,0,1,1,4,10.685V10A2,2,0,0,1,6,8V7A1,1,0,0,1,8,7V8a2,2,0,0,1,2,2v.685A7,7,0,0,1,14,17Zm-2,0a5,5,0,1,0-5,5A5.006,5.006,0,0,0,12,17ZM15.667,4.4A1,1,0,0,0,17.5,3.6a6,6,0,0,0-.948-1.509,1,1,0,1,0-1.517,1.3,3.949,3.949,0,0,1,.632,1ZM20,10.685V10a2,2,0,0,0-2-2V7a1,1,0,0,0-2,0V8a2,2,0,0,0-2,2v.964a1.617,1.617,0,0,0,.3.8,1.251,1.251,0,0,0,1.375.424,4.754,4.754,0,0,1,2.9.077A4.995,4.995,0,0,1,17,22a4.774,4.774,0,0,1-1.477-.237.984.984,0,0,0-1.123.347l-.012.017a1,1,0,0,0,.5,1.545,6.96,6.96,0,0,0,2.729.3A6.994,6.994,0,0,0,20,10.686ZM7.016,4.917A1,1,0,0,0,8.333,4.4a3.986,3.986,0,0,1,.718-1.1A1,1,0,0,0,7.576,1.948,5.987,5.987,0,0,0,6.5,3.6a1,1,0,0,0,.516,1.317Z" fill="#1b8354"/>
  </g>
</svg>
