<svg xmlns="http://www.w3.org/2000/svg" xmlns:xlink="http://www.w3.org/1999/xlink" width="137.331" height="137.329" viewBox="0 0 137.331 137.329">
  <defs>
    <linearGradient id="linear-gradient" x1="1.216" y1="-0.256" x2="-0.052" y2="1.405" gradientUnits="objectBoundingBox">
      <stop offset="0" stop-color="#22907d"/>
      <stop offset="1" stop-color="#11483f"/>
    </linearGradient>
  </defs>
  <g id="question" transform="translate(0 -0.001)">
    <path id="Union_5" data-name="Union 5" d="M-16401.445-922.664a57.359,57.359,0,0,1-40.98-17.051A56.475,56.475,0,0,1-16459-980.146a56.737,56.737,0,0,1,16.754-40.022,56.751,56.751,0,0,1,40.055-16.7h.021a43.491,43.491,0,0,1,7.852-10.632,42.369,42.369,0,0,1,30.22-12.5,42.36,42.36,0,0,1,29.915,12.466,42.379,42.379,0,0,1,12.512,29.89,42.18,42.18,0,0,1-12.376,30.2,43.218,43.218,0,0,1-10.756,7.919,57.191,57.191,0,0,1-12.871,35.871,6.588,6.588,0,0,0,.363,8.72c2.486,2.594,4.887,4.858,6.46,6.3a3.41,3.41,0,0,1,.88,3.771,3.414,3.414,0,0,1-3.2,2.189Zm-53.217-57.454a52.181,52.181,0,0,0,15.309,37.346A53.075,53.075,0,0,0-16401.445-927h45.979c-1.442-1.359-3.186-3.057-4.974-4.924a10.921,10.921,0,0,1-.591-14.466,52.852,52.852,0,0,0,11.847-31.158,43.089,43.089,0,0,1-15.465,2.846h-35.569a3.085,3.085,0,0,1-2.889-1.974,3.187,3.187,0,0,1,.863-3.478c1.154-1.057,2.881-2.693,4.664-4.552a4.281,4.281,0,0,0,.24-5.667,42.7,42.7,0,0,1-9.258-21.467,2.167,2.167,0,0,1,2.152-2.441,2.166,2.166,0,0,1,2.148,1.875,38.389,38.389,0,0,0,8.311,19.286,8.619,8.619,0,0,1-.467,11.417c-.92.962-1.826,1.863-2.652,2.664h32.456a38.533,38.533,0,0,0,27.526-11.454,37.87,37.87,0,0,0,11.116-27.114,38.435,38.435,0,0,0-38.11-38.048h-.194a38.006,38.006,0,0,0-26.944,11.231,38.147,38.147,0,0,0-11.033,22.045,2.156,2.156,0,0,1-2.143,1.871,2.164,2.164,0,0,1-2.152-2.445,41.82,41.82,0,0,1,2.428-9.521A52.95,52.95,0,0,0-16454.662-980.117Zm35.418,3.247a5.784,5.784,0,0,1,5.781-5.783,5.781,5.781,0,0,1,5.779,5.783,5.781,5.781,0,0,1-5.779,5.783A5.784,5.784,0,0,1-16419.244-976.871Zm-17.35,0a5.784,5.784,0,0,1,5.783-5.783,5.784,5.784,0,0,1,5.783,5.783,5.784,5.784,0,0,1-5.783,5.783A5.784,5.784,0,0,1-16436.594-976.871Zm72.282-17.349a2.889,2.889,0,0,1,2.888-2.891,2.889,2.889,0,0,1,2.892,2.891,2.889,2.889,0,0,1-2.892,2.891A2.889,2.889,0,0,1-16364.312-994.22Zm.719-10.6v-9.633a2.168,2.168,0,0,1,2.169-2.169,12.305,12.305,0,0,0,12.289-12.289,12.305,12.305,0,0,0-12.289-12.289,12.3,12.3,0,0,0-12.284,12.289,2.168,2.168,0,0,1-2.169,2.169,2.166,2.166,0,0,1-2.169-2.169,16.643,16.643,0,0,1,16.622-16.626,16.647,16.647,0,0,1,16.626,16.626,16.65,16.65,0,0,1-14.457,16.481v7.609a2.172,2.172,0,0,1-2.169,2.173A2.172,2.172,0,0,1-16363.593-1004.823Z" transform="translate(16459 1059.994)" fill="url(#linear-gradient)"/>
  </g>
</svg>
