<svg width="81" height="81" viewBox="0 0 81 81" fill="none" xmlns="http://www.w3.org/2000/svg">
<g opacity="0.4">
<path fill-rule="evenodd" clip-rule="evenodd" d="M44.5516 35.1683C45.9691 36.0121 47.1505 36.2819 48.1293 36.2819L48.1968 36.3157C49.3781 36.3157 50.2218 35.877 50.7281 35.5057C51.6731 34.797 53.1242 33.1432 52.2804 29.5657L51.3691 25.2794L54.7103 21.9044C56.3303 20.2506 56.9716 18.327 56.3978 16.5382C55.8241 14.7832 54.2042 13.5345 51.9092 13.1295L47.7243 12.4542C47.6568 12.4205 47.5216 12.3871 47.5216 12.3871L45.1592 7.59442C44.113 5.46817 42.4255 4.21942 40.5693 4.21942C38.7805 4.18567 36.9918 5.43442 35.9118 7.59442L33.5157 12.4208L29.1618 13.1295C26.9005 13.5345 25.2803 14.7495 24.7066 16.5045C24.1328 18.2932 24.7407 20.2506 26.3607 21.9044L29.7357 25.4145L28.7906 29.5657C27.9468 33.1432 29.3642 34.8307 30.3092 35.5057C31.2542 36.1807 33.2794 37.0246 36.4181 35.1683L40.5355 32.7718L44.5516 35.1683ZM43.1343 28.3845C42.3918 27.9458 41.4467 27.7093 40.5017 27.7093L40.6031 27.6755C39.6581 27.6755 38.7129 27.912 37.9367 28.3507L33.9206 30.7469C33.894 30.7602 33.8726 30.7788 33.8523 30.7964C33.8212 30.8234 33.7926 30.8482 33.7517 30.8482C33.7517 30.7807 33.7855 30.6117 33.7855 30.6117L34.7306 26.4268C35.0681 24.773 34.4942 22.8158 33.3467 21.6683L30.0055 18.2933C29.9816 18.2694 29.9577 18.2497 29.9353 18.2313C29.8944 18.1976 29.8584 18.168 29.8366 18.1244C29.8704 18.0907 30.0055 18.0906 30.0055 18.0906L34.3928 17.382C35.844 17.112 37.3293 15.998 38.0718 14.6143L40.4342 9.85582C40.449 9.82623 40.4703 9.7966 40.4895 9.76982C40.5142 9.73551 40.5355 9.70586 40.5355 9.6869C40.5693 9.72065 40.6031 9.82203 40.6031 9.82203L42.9992 14.6818C43.7079 15.9981 45.1929 17.112 46.7454 17.4158L51.0317 18.1244C51.0992 18.1582 51.1669 18.1582 51.2344 18.1582C51.1669 18.1919 51.0655 18.3271 51.0655 18.3271L47.7243 21.7021C46.5768 22.8833 46.0029 24.8406 46.3404 26.5281L47.2855 30.6793C47.3193 30.7468 47.3193 30.8145 47.3193 30.882C47.2518 30.8482 47.1504 30.7806 47.1504 30.7806L43.1343 28.3845Z" fill="#1B8354"/>
<path fill-rule="evenodd" clip-rule="evenodd" d="M30.375 76.7812H11.8125C10.4288 76.7812 9.28125 75.6337 9.28125 74.25V60.75C9.28125 55.4513 9.28137 52.5489 11.5089 50.3214C13.7364 48.0939 16.6387 48.0938 21.9375 48.0938H23.625C27.2363 48.0938 29.3962 48.0938 31.1512 49.7812C32.9062 51.6037 32.9062 53.7638 32.9062 57.375V74.25C32.9062 75.6337 31.7587 76.7812 30.375 76.7812ZM14.3438 71.7188H27.8438V57.375C27.8438 55.7217 27.8438 53.6288 27.5739 53.3589C27.3714 53.1564 25.2787 53.1562 23.625 53.1562H21.9375C18.2596 53.1562 15.8286 53.1562 15.0862 53.8987C14.3438 54.6411 14.3438 57.0706 14.3438 60.7485V71.7188Z" fill="#1B8354"/>
<path fill-rule="evenodd" clip-rule="evenodd" d="M69.1875 76.7812H50.625C49.2413 76.7812 48.0938 75.6337 48.0938 74.25V64.125C48.0938 60.5138 48.0938 58.3538 49.7812 56.5988C51.6037 54.8438 53.7638 54.8438 57.375 54.8438H59.0625C64.3612 54.8438 67.2636 54.8439 69.4911 57.0714C71.7186 59.2989 71.7188 62.2013 71.7188 67.5V74.25C71.7188 75.6337 70.5712 76.7812 69.1875 76.7812ZM53.1562 71.7188H66.6562V67.5C66.6562 63.822 66.6562 61.3911 65.9138 60.6487C65.1714 59.9062 62.7419 59.9062 59.0639 59.9062H57.375C55.7217 59.9062 53.6288 59.9062 53.3589 60.1761C53.1564 60.3786 53.1562 62.4713 53.1562 64.125V71.7188Z" fill="#1B8354"/>
</g>
<path fill-rule="evenodd" clip-rule="evenodd" d="M6.75 76.7812C5.36625 76.7812 4.21875 75.6337 4.21875 74.25C4.21875 72.8663 5.36625 71.7188 6.75 71.7188H27.8438V54C27.8438 48.7012 27.8439 45.7989 30.0714 43.5714C32.2989 41.3439 35.2013 41.3438 40.5 41.3438C45.7987 41.3438 48.7011 41.3439 50.9286 43.5714C53.1561 45.7989 53.1562 48.7012 53.1562 54V71.7188H74.25C75.6337 71.7188 76.7812 72.8663 76.7812 74.25C76.7812 75.6337 75.6337 76.7812 74.25 76.7812H6.75ZM48.0938 71.7188V54C48.0938 50.3221 48.0938 47.8911 47.3513 47.1487C46.6089 46.4062 44.1794 46.4062 40.5015 46.4062C36.8235 46.4062 34.3911 46.4062 33.6487 47.1487C32.9062 47.8911 32.9062 50.3206 32.9062 53.9985V71.7188H48.0938Z" fill="#1B8354"/>
</svg>
