<svg width="24" height="24" viewBox="0 0 24 24" fill="none" xmlns="http://www.w3.org/2000/svg">
<path fill-rule="evenodd" clip-rule="evenodd" d="M12 2.75C6.89137 2.75 2.75 6.89137 2.75 12C2.75 17.1086 6.89137 21.25 12 21.25C17.1086 21.25 21.25 17.1086 21.25 12C21.25 6.89137 17.1086 2.75 12 2.75ZM1.25 12C1.25 6.06294 6.06294 1.25 12 1.25C17.9371 1.25 22.75 6.06294 22.75 12C22.75 17.9371 17.9371 22.75 12 22.75C6.06294 22.75 1.25 17.9371 1.25 12Z" fill="#1B8354"/>
<g opacity="0.4">
<path d="M8.59974 14.5498C8.35099 14.2186 7.88084 14.1518 7.54964 14.4006C7.21843 14.6493 7.1516 15.1195 7.40035 15.4507C8.44802 16.8456 10.1185 17.7502 12 17.7502C13.8816 17.7502 15.5521 16.8456 16.5997 15.4507C16.8485 15.1195 16.7817 14.6493 16.4505 14.4006C16.1192 14.1518 15.6491 14.2186 15.4003 14.5498C14.6238 15.5838 13.3898 16.2502 12 16.2502C10.6103 16.2502 9.37631 15.5838 8.59974 14.5498Z" fill="#161616"/>
<path d="M7.70572 8.74642C7.80927 9.03441 8.09436 9.2502 8.43918 9.2502C8.78399 9.2502 9.06908 9.03441 9.17263 8.74642C9.31279 8.35664 9.74239 8.15429 10.1322 8.29445C10.522 8.43461 10.7243 8.86421 10.5841 9.25399C10.2687 10.1312 9.42327 10.7502 8.43918 10.7502C7.45509 10.7502 6.60963 10.1312 6.2942 9.25399C6.15404 8.86421 6.3564 8.43461 6.74618 8.29445C7.13596 8.15429 7.56556 8.35664 7.70572 8.74642Z" fill="#161616"/>
<path d="M14.8273 8.74642C14.9308 9.03441 15.2159 9.2502 15.5607 9.2502C15.9056 9.2502 16.1906 9.03441 16.2942 8.74642C16.4344 8.35664 16.864 8.15429 17.2537 8.29445C17.6435 8.43461 17.8459 8.86421 17.7057 9.25399C17.3903 10.1312 16.5448 10.7502 15.5607 10.7502C14.5767 10.7502 13.7312 10.1312 13.4158 9.25399C13.2756 8.86421 13.478 8.43461 13.8677 8.29445C14.2575 8.15429 14.6871 8.35664 14.8273 8.74642Z" fill="#161616"/>
</g>
</svg>
