<svg xmlns="http://www.w3.org/2000/svg" xmlns:xlink="http://www.w3.org/1999/xlink" width="137.362" height="137.33" viewBox="0 0 137.362 137.33">
  <defs>
    <linearGradient id="linear-gradient" x1="1.089" y1="-0.153" x2="0" y2="1.192" gradientUnits="objectBoundingBox">
      <stop offset="0" stop-color="#22907d"/>
      <stop offset="1" stop-color="#11483f"/>
    </linearGradient>
  </defs>
  <g id="report" transform="translate(-0.996 -1.001)">
    <path id="Union_7" data-name="Union 7" d="M87.828,128.493H2.219A2.216,2.216,0,0,1,0,126.283V6.641A2.216,2.216,0,0,1,2.219,4.43H24.367V2.21A2.216,2.216,0,0,1,26.59,0h44.3a2.212,2.212,0,0,1,2.219,2.21V4.43H95.266a2.213,2.213,0,0,1,2.211,2.21V82.026a28.381,28.381,0,0,1,11.082-2.268,28.786,28.786,0,1,1-20.73,48.735Zm25.16,3.992v-10.6a2.214,2.214,0,0,1,1.27-1.991,13.276,13.276,0,0,0,.949-23.486v11.5a2.184,2.184,0,0,1-.656,1.582l-4.43,4.44a2.22,2.22,0,0,1-3.125,0l-4.43-4.44a2.176,2.176,0,0,1-.66-1.563v-11.5a13.274,13.274,0,0,0,.953,23.487,2.2,2.2,0,0,1,1.266,1.991v10.586A23.507,23.507,0,0,0,112.988,132.486Zm.629-41.561a17.7,17.7,0,0,1,3.8,32.309v8a24.355,24.355,0,0,0-8.859-47.049A24.065,24.065,0,0,0,97.832,86.7a2.233,2.233,0,0,1-1.68.115L86.035,83.445l3.543,7.965a2.224,2.224,0,0,1-.277,2.249,24.1,24.1,0,0,0-5.113,14.9A24.406,24.406,0,0,0,99.7,131.237v-8a17.708,17.708,0,0,1,3.8-32.309,2.207,2.207,0,0,1,2.84,2.125v13.939l2.219,2.211,2.219-2.211V93.049a2.211,2.211,0,0,1,.887-1.782,2.253,2.253,0,0,1,1.324-.435A2.175,2.175,0,0,1,113.617,90.925ZM4.426,124.063h79.9a28.6,28.6,0,0,1-3.762-8.861H11.074a2.215,2.215,0,0,1-2.219-2.211V15.5a2.214,2.214,0,0,1,2.219-2.21H24.367V8.861H4.426Zm8.859-13.292H79.867c-.055-.734-.109-1.467-.109-2.21A28.411,28.411,0,0,1,85,92.03L79.945,80.654a2.221,2.221,0,0,1,2.723-3l1.52.505V17.722H73.113v2.21a2.214,2.214,0,0,1-2.219,2.22H26.59a2.218,2.218,0,0,1-2.223-2.22v-2.21H13.285Zm59.828-97.48H86.406a2.212,2.212,0,0,1,2.207,2.21V79.634l4.434,1.477V8.861H73.113ZM28.8,17.722H68.684V4.43H28.8Zm0,74.032-5.082,5.078L20.586,93.7l5.082-5.079-5.082-5.078,3.133-3.135L28.8,85.484l5.078-5.078,3.133,3.135-5.078,5.078L37.012,93.7l-3.133,3.135ZM75.324,95.26V90.83h4.434v4.43Zm-33.23,0V90.83h28.8v4.43Zm0-8.861V81.969H79.758V86.4ZM25.02,68.029,20.586,63.6l3.133-3.135,2.871,2.868,7.289-7.3,3.133,3.135-8.859,8.861a2.212,2.212,0,0,1-3.133,0Zm17.074.648v-4.43H79.758v4.43Zm0-8.861v-4.43H79.758v4.43ZM25.02,43.657l-4.434-4.43,3.133-3.135,2.871,2.868,7.289-7.3L37.012,34.8l-8.859,8.861a2.212,2.212,0,0,1-3.133,0Zm17.074.648v-4.43H79.758V44.3Zm0-8.861v-4.43H79.758v4.43ZM57.6,13.291V8.861h4.43v4.431Zm-22.152,0V8.861h4.434v4.431Z" transform="translate(1 1.001)" fill="url(#linear-gradient)"/>
  </g>
</svg>
