<svg xmlns="http://www.w3.org/2000/svg" xmlns:xlink="http://www.w3.org/1999/xlink" width="137.34" height="137.327" viewBox="0 0 137.34 137.327">
  <defs>
    <linearGradient id="linear-gradient" x1="0.967" y1="-0.444" x2="-0.144" y2="1.336" gradientUnits="objectBoundingBox">
      <stop offset="0" stop-color="#22907d"/>
      <stop offset="1" stop-color="#11483f"/>
    </linearGradient>
  </defs>
  <g id="review" transform="translate(-0.001 -0.028)">
    <path id="Union_3" data-name="Union 3" d="M-17704.629-922.643a2.687,2.687,0,0,1-2-.893,2.675,2.675,0,0,1-.666-2.08l.826-7.577a13,13,0,0,1,10.43-11.394l10.105-2.013a1.928,1.928,0,0,0,1.551-1.893v-.436h-10.064a12.894,12.894,0,0,1-12.879-12.883v-84.746a13.423,13.423,0,0,1,13.406-13.412h96.039a13.428,13.428,0,0,1,13.412,13.412v20.989a16.03,16.03,0,0,1,14.482,15.932v22.451a16.026,16.026,0,0,1-14.482,15.927v9.448a12.9,12.9,0,0,1-12.883,12.883h-38.213a2.679,2.679,0,0,1-2.68-2.68,2.68,2.68,0,0,1,2.68-2.684h38.213a7.528,7.528,0,0,0,7.52-7.519v-9.372h-25.873l-9.736,9.737a2.674,2.674,0,0,1-1.9.787,2.671,2.671,0,0,1-1.025-.2,2.685,2.685,0,0,1-1.654-2.48v-7.839h-3.355a16.02,16.02,0,0,1-16-16v-22.451a16.018,16.018,0,0,1,16-16h43.543v-5.342h-112.131v7.51h29.953a2.684,2.684,0,0,1,2.684,2.68,2.685,2.685,0,0,1-2.684,2.684h-29.953v56.3a7.527,7.527,0,0,0,7.516,7.519h4.67a10.209,10.209,0,0,1-3.568-7.115,1.482,1.482,0,0,1-.014-.2v-14.478a12.416,12.416,0,0,1-2.777-7.83v-8.728a3.669,3.669,0,0,1,2.021-3.284,3.672,3.672,0,0,1,3.857.329,4.473,4.473,0,0,0,2.529.973h22.793a9.9,9.9,0,0,1,9.941,9.43,2.134,2.134,0,0,1,.018.3l0,6.026c0,3.32-1.17,5.222-2.773,6.266v11c0,.067,0,.133,0,.2a10.079,10.079,0,0,1-4.285,7.666l-.146.093-4.547,2.6v2.56a1.933,1.933,0,0,0,1.557,1.893l10.109,2.013a13,13,0,0,1,10.426,11.39l.832,7.581a2.657,2.657,0,0,1-.672,2.08,2.667,2.667,0,0,1-2,.893Zm9.639-16.683a7.665,7.665,0,0,0-6.146,6.71l-.5,4.608h52.168l-.5-4.608a7.669,7.669,0,0,0-6.146-6.71l-8.879-1.769a15.769,15.769,0,0,1-10.559,4.013,15.77,15.77,0,0,1-10.555-4.013Zm14.256-4.48a10.439,10.439,0,0,0,5.178,1.36,10.5,10.5,0,0,0,5.182-1.355,7.265,7.265,0,0,1-1.7-4.208,7.9,7.9,0,0,1-3.48.818,7.848,7.848,0,0,1-3.48-.822A7.274,7.274,0,0,1-17680.734-943.805Zm-7.256-17.918a4.76,4.76,0,0,0,1.848,3.466l8.986,5.151c.049.031.1.058.143.089a2.547,2.547,0,0,0,2.92,0c.049-.031.1-.062.146-.089l9.012-5.151a4.778,4.778,0,0,0,1.818-3.466v-9.732h-20.555a12.319,12.319,0,0,1-4.318-.778Zm43.977-47.915v22.451a10.652,10.652,0,0,0,10.639,10.639h6.035a2.68,2.68,0,0,1,2.684,2.68v4.048l5.943-5.946a2.688,2.688,0,0,1,1.9-.782h30.828a10.652,10.652,0,0,0,10.639-10.639v-22.451a10.652,10.652,0,0,0-10.639-10.639h-47.387A10.652,10.652,0,0,0-17644.014-1009.638Zm-46.754,25.717a7.1,7.1,0,0,0,7.1,7.1h21.367c1.076,0,1.543-.2,1.652-.32.031-.031.307-.378.307-1.733l.006-5.839a.453.453,0,0,0-.006-.089,4.569,4.569,0,0,0-4.59-4.462h-22.793a8.783,8.783,0,0,1-3.039-.56Zm-11.2-62.638v10.212h112.131v-10.212a8.057,8.057,0,0,0-8.049-8.044h-96.039A8.053,8.053,0,0,0-17701.963-1046.559Zm53.59,96.843a2.687,2.687,0,0,1-.787-1.893,2.69,2.69,0,0,1,.787-1.9,2.706,2.706,0,0,1,1.893-.787,2.709,2.709,0,0,1,1.9.787,2.706,2.706,0,0,1,.787,1.9,2.7,2.7,0,0,1-.787,1.893,2.69,2.69,0,0,1-1.9.787A2.705,2.705,0,0,1-17648.373-949.716Zm52.105-48.8a8.054,8.054,0,0,1,8.043-8.048,8.058,8.058,0,0,1,8.049,8.048,8.057,8.057,0,0,1-8.049,8.044A8.053,8.053,0,0,1-17596.268-998.515Zm5.359,0a2.684,2.684,0,0,0,2.684,2.68,2.684,2.684,0,0,0,2.686-2.68,2.688,2.688,0,0,0-2.686-2.684A2.688,2.688,0,0,0-17590.908-998.515Zm-26.818,0a8.054,8.054,0,0,1,8.047-8.048,8.058,8.058,0,0,1,8.049,8.048,8.057,8.057,0,0,1-8.049,8.044A8.053,8.053,0,0,1-17617.727-998.515Zm5.363,0a2.684,2.684,0,0,0,2.684,2.68,2.679,2.679,0,0,0,2.68-2.68,2.683,2.683,0,0,0-2.68-2.684A2.688,2.688,0,0,0-17612.363-998.515Zm-26.824,0a8.058,8.058,0,0,1,8.049-8.048,8.058,8.058,0,0,1,8.047,8.048,8.057,8.057,0,0,1-8.047,8.044A8.057,8.057,0,0,1-17639.187-998.515Zm5.363,0a2.684,2.684,0,0,0,2.686,2.68,2.684,2.684,0,0,0,2.684-2.68,2.688,2.688,0,0,0-2.684-2.684A2.688,2.688,0,0,0-17633.824-998.515Zm-30.023-20.38a2.713,2.713,0,0,1-.785-1.9,2.7,2.7,0,0,1,.785-1.893,2.69,2.69,0,0,1,1.9-.787,2.683,2.683,0,0,1,1.893.787,2.687,2.687,0,0,1,.787,1.893,2.69,2.69,0,0,1-.787,1.9,2.7,2.7,0,0,1-1.893.787A2.709,2.709,0,0,1-17663.848-1018.895Zm30.1-23.553a2.681,2.681,0,0,1-2.68-2.68,2.682,2.682,0,0,1,2.68-2.684h32.553a2.68,2.68,0,0,1,2.68,2.684,2.679,2.679,0,0,1-2.68,2.68Zm-33.236,0a2.684,2.684,0,0,1-2.684-2.68,2.685,2.685,0,0,1,2.684-2.684,2.692,2.692,0,0,1,2.693,2.684,2.668,2.668,0,0,1-2.666,2.68Zm-12.859,0a2.684,2.684,0,0,1-2.686-2.68,2.685,2.685,0,0,1,2.686-2.684,2.692,2.692,0,0,1,2.691,2.684,2.668,2.668,0,0,1-2.666,2.68Zm-12.861,0a2.68,2.68,0,0,1-2.684-2.68,2.681,2.681,0,0,1,2.684-2.684,2.692,2.692,0,0,1,2.693,2.684,2.669,2.669,0,0,1-2.666,2.68Z" transform="translate(17707.328 1059.998)" fill="url(#linear-gradient)"/>
  </g>
</svg>
