<svg xmlns="http://www.w3.org/2000/svg" width="22" height="24" viewBox="0 0 22 24">
  <g id="Group_19" data-name="Group 19" transform="translate(-2)">
    <path id="Path_21" data-name="Path 21" d="M16,6a1,1,0,0,1,0,2H8A1,1,0,0,1,8,6Zm7.707,17.707a1,1,0,0,1-1.414,0L19.886,21.3A4.535,4.535,0,1,1,21.3,19.886l2.407,2.407a1,1,0,0,1,0,1.414ZM17.5,20A2.5,2.5,0,1,0,15,17.5,2.5,2.5,0,0,0,17.5,20ZM13,22H7a3,3,0,0,1-3-3V5A3,3,0,0,1,7,2H19a1,1,0,0,1,1,1v8a1,1,0,0,0,2,0V3a3,3,0,0,0-3-3H7A5.006,5.006,0,0,0,2,5V19a5.006,5.006,0,0,0,5,5h6a1,1,0,0,0,0-2Z" fill="#1b8354"/>
  </g>
</svg>
