<svg width="18" height="18" viewBox="0 0 18 18" fill="none" xmlns="http://www.w3.org/2000/svg">
<path d="M5.66683 8.9974C5.20659 8.9974 4.8335 9.37049 4.8335 9.83073C4.8335 10.291 5.20659 10.6641 5.66683 10.6641H5.67431C6.13454 10.6641 6.50764 10.291 6.50764 9.83073C6.50764 9.37049 6.13454 8.9974 5.67431 8.9974H5.66683Z" fill="white"/>
<path d="M8.99642 8.9974C8.53619 8.9974 8.16309 9.37049 8.16309 9.83073C8.16309 10.291 8.53619 10.6641 8.99642 10.6641H9.0039C9.46414 10.6641 9.83723 10.291 9.83723 9.83073C9.83723 9.37049 9.46414 8.9974 9.0039 8.9974H8.99642Z" fill="white"/>
<path d="M12.326 8.9974C11.8658 8.9974 11.4927 9.37049 11.4927 9.83073C11.4927 10.291 11.8658 10.6641 12.326 10.6641H12.3335C12.7937 10.6641 13.1668 10.291 13.1668 9.83073C13.1668 9.37049 12.7937 8.9974 12.3335 8.9974H12.326Z" fill="white"/>
<path d="M5.66683 12.3307C5.20659 12.3307 4.8335 12.7038 4.8335 13.1641C4.8335 13.6243 5.20659 13.9974 5.66683 13.9974H5.67431C6.13454 13.9974 6.50764 13.6243 6.50764 13.1641C6.50764 12.7038 6.13454 12.3307 5.67431 12.3307H5.66683Z" fill="white"/>
<path d="M8.99642 12.3307C8.53619 12.3307 8.16309 12.7038 8.16309 13.1641C8.16309 13.6243 8.53619 13.9974 8.99642 13.9974H9.0039C9.46414 13.9974 9.83723 13.6243 9.83723 13.1641C9.83723 12.7038 9.46414 12.3307 9.0039 12.3307H8.99642Z" fill="white"/>
<path fill-rule="evenodd" clip-rule="evenodd" d="M4.62516 0.664063C4.62516 0.318885 4.34534 0.0390625 4.00016 0.0390625C3.65499 0.0390625 3.37516 0.318885 3.37516 0.664063V1.19305C2.70453 1.38313 2.13891 1.69206 1.66812 2.20103C1.01986 2.90185 0.731704 3.78733 0.593703 4.89699C0.45848 5.98432 0.458487 7.37778 0.458496 9.15576V9.67237C0.458487 11.4503 0.45848 12.8438 0.593703 13.9311C0.731704 15.0408 1.01986 15.9263 1.66812 16.6271C2.32278 17.3348 3.1608 17.6558 4.20957 17.8082C5.22459 17.9558 6.52145 17.9557 8.15786 17.9557H9.84246C11.4789 17.9557 12.7757 17.9558 13.7908 17.8082C14.8395 17.6558 15.6775 17.3348 16.3322 16.6271C16.9805 15.9263 17.2686 15.0408 17.4066 13.9311C17.5418 12.8438 17.5418 11.4503 17.5418 9.67234V9.15579C17.5418 7.3778 17.5418 5.98432 17.4066 4.89699C17.2686 3.78733 16.9805 2.90185 16.3322 2.20103C15.8614 1.69206 15.2958 1.38313 14.6252 1.19305V0.664063C14.6252 0.318885 14.3453 0.0390625 14.0002 0.0390625C13.655 0.0390625 13.3752 0.318885 13.3752 0.664063V0.968975C12.4284 0.872372 11.2635 0.872383 9.84246 0.872396H8.15787C6.73685 0.872383 5.57188 0.872372 4.62516 0.968975V0.664063ZM3.399 2.50227C3.47355 2.76404 3.71447 2.95573 4.00016 2.95573C4.34534 2.95573 4.62516 2.67591 4.62516 2.33073V2.22622C5.50933 2.1237 6.65214 2.1224 8.2085 2.1224H9.79183C11.3482 2.1224 12.491 2.1237 13.3752 2.22622V2.33073C13.3752 2.67591 13.655 2.95573 14.0002 2.95573C14.2859 2.95573 14.5268 2.76404 14.6013 2.50227C14.9408 2.63732 15.1985 2.81619 15.4146 3.04983C15.8088 3.47605 16.0422 4.06063 16.1653 5.04437C16.1385 5.04087 16.1112 5.03906 16.0835 5.03906H1.91683C1.8891 5.03906 1.86178 5.04087 1.83501 5.04437C1.95809 4.06063 2.19149 3.47605 2.58574 3.04983C2.80186 2.81619 3.05957 2.63732 3.399 2.50227ZM1.74194 6.26426C1.70896 7.06669 1.7085 8.02768 1.7085 9.2001V9.62803C1.7085 11.4599 1.70964 12.7757 1.83415 13.7769C1.95701 14.7648 2.19057 15.3511 2.58574 15.7783C2.97451 16.1986 3.4979 16.4417 4.38936 16.5712C5.30413 16.7042 6.51006 16.7057 8.2085 16.7057H9.79183C11.4903 16.7057 12.6962 16.7042 13.611 16.5712C14.5024 16.4417 15.0258 16.1986 15.4146 15.7783C15.8098 15.3511 16.0433 14.7648 16.1662 13.7769C16.2907 12.7757 16.2918 11.4599 16.2918 9.62803V9.2001C16.2918 8.02768 16.2914 7.06669 16.2584 6.26426C16.2029 6.28041 16.1442 6.28906 16.0835 6.28906H1.91683C1.85612 6.28906 1.79744 6.28041 1.74194 6.26426Z" fill="white"/>
</svg>
