<svg width="16" height="16" viewBox="0 0 16 16" fill="none" xmlns="http://www.w3.org/2000/svg">
<path d="M7.49967 1.33301C7.49967 1.05687 7.72353 0.833008 7.99967 0.833008C11.9583 0.833008 15.1663 4.0421 15.1663 7.99967C15.1663 11.9573 11.9583 15.1663 7.99967 15.1663C7.72353 15.1663 7.49967 14.9425 7.49967 14.6663C7.49967 14.3902 7.72353 14.1663 7.99967 14.1663C11.406 14.1663 14.1663 11.4051 14.1663 7.99967C14.1663 4.59429 11.406 1.83301 7.99967 1.83301C7.72353 1.83301 7.49967 1.60915 7.49967 1.33301Z" fill="#161616"/>
<path d="M6.47307 1.50528C6.56209 1.76668 6.42236 2.05075 6.16096 2.13978C5.41938 2.39235 4.72447 2.76371 4.12133 3.23097C3.90303 3.40009 3.58897 3.36022 3.41985 3.14192C3.25073 2.92363 3.2906 2.60957 3.50889 2.44045C4.20215 1.90337 4.99566 1.48025 5.83857 1.19317C6.09996 1.10415 6.38404 1.24388 6.47307 1.50528Z" fill="#161616"/>
<path d="M2.46139 4.2024C2.69589 4.34822 2.76777 4.65653 2.62195 4.89103C2.2292 5.52263 1.95677 6.21401 1.82461 6.92227C1.77396 7.19372 1.51284 7.37272 1.24139 7.32207C0.969929 7.27142 0.790929 7.0103 0.84158 6.73885C0.997517 5.90311 1.31725 5.09547 1.77275 4.36296C1.91857 4.12846 2.22689 4.05658 2.46139 4.2024Z" fill="#161616"/>
<path d="M1.24139 8.67755C1.51284 8.6269 1.77396 8.8059 1.82461 9.07736C1.95677 9.78561 2.2292 10.477 2.62195 11.1086C2.76777 11.3431 2.69589 11.6514 2.46139 11.7972C2.22689 11.943 1.91857 11.8712 1.77275 11.6367C1.31725 10.9041 0.997517 10.0965 0.84158 9.26078C0.790929 8.98932 0.969929 8.7282 1.24139 8.67755Z" fill="#161616"/>
<path d="M3.42206 12.8549C3.59274 12.6378 3.90708 12.6002 4.12416 12.7709C4.72373 13.2423 5.41684 13.6064 6.16096 13.8598C6.42236 13.9489 6.56209 14.2329 6.47307 14.4943C6.38404 14.7557 6.09996 14.8955 5.83857 14.8064C4.9982 14.5202 4.20289 14.1049 3.50606 13.557C3.28898 13.3863 3.25138 13.0719 3.42206 12.8549Z" fill="#161616"/>
<path fill-rule="evenodd" clip-rule="evenodd" d="M7.99466 4.49967C6.89398 4.49967 6.01106 5.4003 6.01106 6.49967C6.01106 7.59905 6.89398 8.49967 7.99466 8.49967C9.09534 8.49967 9.97825 7.59904 9.97825 6.49967C9.97825 5.4003 9.09534 4.49967 7.99466 4.49967ZM7.01106 6.49967C7.01106 5.94219 7.4566 5.49967 7.99466 5.49967C8.53271 5.49967 8.97825 5.94219 8.97825 6.49967C8.97825 7.05716 8.53271 7.49967 7.99466 7.49967C7.4566 7.49967 7.01106 7.05716 7.01106 6.49967Z" fill="#161616"/>
<path d="M5.69678 11.3427C6.89069 10.0766 9.10747 10.0299 10.2966 11.3362C10.4825 11.5405 10.7987 11.5553 11.0029 11.3694C11.2071 11.1835 11.222 10.8673 11.0361 10.6631C9.43201 8.90086 6.53883 8.99214 4.96924 10.6566C4.77979 10.8576 4.78907 11.174 4.98998 11.3634C5.19089 11.5529 5.50733 11.5436 5.69678 11.3427Z" fill="#161616"/>
</svg>
