<svg width="23" height="22" viewBox="0 0 23 22" fill="none" xmlns="http://www.w3.org/2000/svg">
<path d="M10.75 1C10.75 0.585786 11.0858 0.25 11.5 0.25C17.438 0.25 22.25 5.06364 22.25 11C22.25 16.9364 17.438 21.75 11.5 21.75C11.0858 21.75 10.75 21.4142 10.75 21C10.75 20.5858 11.0858 20.25 11.5 20.25C16.6094 20.25 20.75 16.1081 20.75 11C20.75 5.89192 16.6094 1.75 11.5 1.75C11.0858 1.75 10.75 1.41421 10.75 1Z" fill="white"/>
<path d="M9.21009 1.25841C9.34363 1.6505 9.13403 2.07662 8.74193 2.21016C7.62956 2.58901 6.58719 3.14605 5.68248 3.84694C5.35503 4.10062 4.88394 4.04082 4.63026 3.71338C4.37658 3.38593 4.43638 2.91484 4.76383 2.66116C5.80371 1.85554 6.99398 1.22087 8.25834 0.79025C8.65043 0.65671 9.07655 0.866311 9.21009 1.25841Z" fill="white"/>
<path d="M3.19257 5.30409C3.54432 5.52282 3.65215 5.98529 3.43342 6.33704C2.84429 7.28444 2.43564 8.3215 2.23741 9.38389C2.16143 9.79107 1.76975 10.0596 1.36257 9.9836C0.955382 9.90762 0.686882 9.51594 0.762858 9.10876C0.996764 7.85516 1.47636 6.6437 2.15961 5.54494C2.37835 5.19318 2.84082 5.08535 3.19257 5.30409Z" fill="white"/>
<path d="M1.36257 12.0168C1.76975 11.9408 2.16143 12.2093 2.23741 12.6165C2.43564 13.6789 2.84428 14.716 3.43342 15.6634C3.65215 16.0151 3.54432 16.4776 3.19257 16.6963C2.84082 16.9151 2.37835 16.8072 2.15962 16.4555C1.47636 15.3567 0.996764 14.1453 0.762858 12.8917C0.686882 12.4845 0.955382 12.0928 1.36257 12.0168Z" fill="white"/>
<path d="M4.63358 18.2828C4.8896 17.9572 5.36111 17.9008 5.68672 18.1568C6.58608 18.8639 7.62574 19.4101 8.74193 19.7903C9.13403 19.9238 9.34363 20.3499 9.21009 20.742C9.07655 21.1341 8.65043 21.3437 8.25834 21.2102C6.9978 20.7808 5.80482 20.1578 4.75958 19.3359C4.43396 19.0799 4.37755 18.6084 4.63358 18.2828Z" fill="white"/>
<path fill-rule="evenodd" clip-rule="evenodd" d="M11.4925 5.75C9.84146 5.75 8.51709 7.10094 8.51709 8.75C8.51709 10.3991 9.84146 11.75 11.4925 11.75C13.1435 11.75 14.4679 10.3991 14.4679 8.75C14.4679 7.10094 13.1435 5.75 11.4925 5.75ZM10.0171 8.75C10.0171 7.91377 10.6854 7.25 11.4925 7.25C12.2996 7.25 12.9679 7.91377 12.9679 8.75C12.9679 9.58623 12.2996 10.25 11.4925 10.25C10.6854 10.25 10.0171 9.58623 10.0171 8.75Z" fill="white"/>
<path d="M8.04566 16.0145C9.83652 14.1154 13.1617 14.0453 14.9454 16.0049C15.2242 16.3112 15.6985 16.3335 16.0049 16.0546C16.3112 15.7758 16.3335 15.3015 16.0546 14.9951C13.6485 12.3518 9.30873 12.4887 6.95434 14.9855C6.67017 15.2868 6.6841 15.7615 6.98546 16.0457C7.28682 16.3298 7.76149 16.3159 8.04566 16.0145Z" fill="white"/>
</svg>
