<svg width="18" height="18" viewBox="0 0 18 18" fill="none" xmlns="http://www.w3.org/2000/svg">
<path d="M8.9991 17.125H9C12.7033 17.125 14.5617 17.125 15.8433 15.8433C17.055 14.63 17.1175 12.8291 17.1233 9.75081C17.1233 9.40581 16.8442 9.125 16.4992 9.125H16.4975C16.1525 9.125 15.8725 9.40419 15.8725 9.74919C15.8667 12.7417 15.7792 14.1391 14.9583 14.96C14.0425 15.875 12.3575 15.875 8.99919 15.875C5.64085 15.875 3.955 15.875 3.04 14.96C2.125 14.0441 2.125 12.3583 2.125 9.00002C2.125 5.64168 2.12502 3.95587 3.04085 3.04004C3.86085 2.21921 5.25831 2.13083 8.25081 2.125C8.59665 2.125 8.875 1.84419 8.875 1.49919C8.87417 1.15419 8.595 0.875 8.25 0.875H8.24833C5.16916 0.880833 3.36832 0.943324 2.15666 2.15666C0.875 3.43748 0.875 5.29664 0.875 8.99991C0.875 12.7032 0.875 14.5617 2.15666 15.8433C3.43748 17.125 5.29666 17.125 8.9991 17.125Z" fill="#1B8354"/>
<path d="M7.76675 10.3251C7.88925 10.4459 8.04841 10.5067 8.20758 10.5067C8.36842 10.5067 8.5284 10.4443 8.6509 10.3218L15.8001 3.13092C15.8492 3.63592 15.8876 4.43343 15.8701 5.67926C15.8651 6.02509 16.1409 6.30837 16.4859 6.31337C16.8326 6.32171 17.1151 6.04257 17.1201 5.69757C17.1717 2.07325 16.7821 1.68207 16.5728 1.472C16.3628 1.26197 15.9718 0.87093 12.3501 0.922585C12.0051 0.927585 11.7292 1.2117 11.7342 1.5567C11.7392 1.89837 12.0184 2.17259 12.3592 2.17259H12.3684C13.6192 2.15509 14.4175 2.19339 14.9209 2.24339L7.76422 9.4409C7.52089 9.6859 7.52175 10.0818 7.76675 10.3251Z" fill="#1B8354"/>
</svg>
