<svg width="16" height="14" viewBox="0 0 16 14" fill="none" xmlns="http://www.w3.org/2000/svg">
<path fill-rule="evenodd" clip-rule="evenodd" d="M12.5 0.0625C10.9467 0.0625 9.6875 1.3217 9.6875 2.875C9.6875 3.0897 9.71156 3.29878 9.75712 3.4997L5.77022 5.33948C5.25848 4.64103 4.43221 4.1875 3.5 4.1875C1.9467 4.1875 0.6875 5.4467 0.6875 7C0.6875 8.5533 1.9467 9.8125 3.5 9.8125C4.43218 9.8125 5.25843 9.359 5.77017 8.66058L9.75711 10.5004C9.71155 10.7013 9.6875 10.9103 9.6875 11.125C9.6875 12.6783 10.9467 13.9375 12.5 13.9375C14.0533 13.9375 15.3125 12.6783 15.3125 11.125C15.3125 9.5717 14.0533 8.3125 12.5 8.3125C11.5628 8.3125 10.7327 8.7709 10.2216 9.47571L6.23976 7.63828C6.28735 7.43321 6.3125 7.21954 6.3125 7C6.3125 6.78049 6.28735 6.56685 6.23978 6.3618L10.2216 4.52435C10.7327 5.22913 11.5628 5.6875 12.5 5.6875C14.0533 5.6875 15.3125 4.4283 15.3125 2.875C15.3125 1.3217 14.0533 0.0625 12.5 0.0625ZM10.8125 2.875C10.8125 1.94302 11.568 1.1875 12.5 1.1875C13.432 1.1875 14.1875 1.94302 14.1875 2.875C14.1875 3.80698 13.432 4.5625 12.5 4.5625C11.568 4.5625 10.8125 3.80698 10.8125 2.875ZM1.8125 7C1.8125 6.06802 2.56802 5.3125 3.5 5.3125C4.43198 5.3125 5.1875 6.06802 5.1875 7C5.1875 7.93198 4.43198 8.6875 3.5 8.6875C2.56802 8.6875 1.8125 7.93198 1.8125 7ZM12.5 9.4375C11.568 9.4375 10.8125 10.193 10.8125 11.125C10.8125 12.057 11.568 12.8125 12.5 12.8125C13.432 12.8125 14.1875 12.057 14.1875 11.125C14.1875 10.193 13.432 9.4375 12.5 9.4375Z" fill="#067647"/>
</svg>
