<svg width="26" height="26" viewBox="0 0 26 26" fill="none" xmlns="http://www.w3.org/2000/svg">
<path d="M3.45387 23.0766C3.91703 23.1617 4.38484 23.2037 4.85267 23.2037L4.85387 23.205C6.1162 23.205 7.37152 22.8993 8.49036 22.3055L8.60583 22.2459L8.63876 22.2291C8.8276 22.133 9.01654 22.0369 9.11687 21.9939C9.15887 21.9985 9.22886 22.0067 9.33853 22.0277C9.81453 22.1164 10.2707 21.8038 10.3605 21.3289C10.4492 20.8541 10.1365 20.3967 9.66169 20.3069C9.33619 20.2462 9.10632 20.2288 8.89282 20.2498C8.86249 20.2533 8.83098 20.258 8.80065 20.2638C8.53115 20.3198 8.29082 20.4423 7.81132 20.6873L7.69004 20.749L7.67716 20.7561C6.88966 21.1749 6.01468 21.4094 5.12685 21.449C5.35435 20.966 5.52235 20.4515 5.62502 19.9172C5.77318 19.1297 5.48615 18.3026 4.83632 17.6457C3.14232 15.9424 2.21018 13.7176 2.21018 11.3796C2.21018 6.32325 6.56885 2.20963 11.9274 2.20963C16.5987 2.20963 20.6144 5.34796 21.4765 9.67162C21.571 10.1453 22.0307 10.4509 22.5055 10.3587C22.9792 10.2642 23.2872 9.80338 23.1927 9.32971C22.1684 4.18938 17.4305 0.458374 11.9262 0.458374C5.60282 0.458374 0.458984 5.35728 0.458984 11.3784C0.458984 14.1808 1.572 16.8454 3.5915 18.8766C3.70466 18.9909 3.96018 19.2884 3.90418 19.5894C3.75602 20.3583 3.42232 21.0734 2.93815 21.6579C2.73982 21.897 2.68387 22.2238 2.79004 22.5154C2.89504 22.8071 3.1482 23.0206 3.45387 23.0766Z" fill="#067647"/>
<path fill-rule="evenodd" clip-rule="evenodd" d="M20.1664 24.949C20.8954 25.3398 21.7095 25.5416 22.5283 25.5417C22.8361 25.5417 23.1439 25.5126 23.4482 25.4555C23.7515 25.3983 24.0012 25.186 24.1073 24.8966C24.2123 24.6073 24.1587 24.2829 23.9638 24.0437C23.7013 23.7217 23.5275 23.3484 23.4482 22.9365C23.4529 22.9155 23.4773 22.8607 23.5333 22.8058L23.5438 22.7954C24.8307 21.4899 25.54 19.776 25.54 17.9689C25.54 14.1025 22.2687 10.9572 18.2484 10.9572C14.228 10.9572 10.9567 14.1025 10.9567 17.9689C10.9567 21.8352 14.228 24.9806 18.2484 24.9806C18.736 24.9806 19.205 24.9362 19.6437 24.8499C19.6618 24.847 19.6794 24.8441 19.6965 24.8414C19.7335 24.8354 19.7681 24.8299 19.8 24.8243C19.8303 24.8196 19.8653 24.8138 19.8957 24.8091C19.947 24.8348 20.0147 24.8698 20.0765 24.9024L20.1664 24.949ZM20.8873 23.3508C20.6062 23.2038 20.4137 23.1034 20.1827 23.0672C19.9528 23.0252 19.7475 23.0591 19.5118 23.0988C19.4754 23.1052 19.4354 23.1115 19.3918 23.1184C19.3796 23.1204 19.3671 23.1224 19.3544 23.1244C19.3427 23.1256 19.331 23.1279 19.3193 23.1302C18.988 23.1967 18.6287 23.2306 18.2495 23.2306C15.194 23.2306 12.7078 20.8704 12.7078 17.9689C12.7078 15.0674 15.194 12.7072 18.2495 12.7072C21.305 12.7072 23.7912 15.0674 23.7912 17.9689C23.7912 19.3105 23.2627 20.5857 22.3037 21.561C21.8312 22.0277 21.6165 22.6589 21.7285 23.2527C21.7577 23.4102 21.7974 23.5654 21.844 23.7182C21.5477 23.6552 21.2595 23.5491 20.99 23.4045C20.9865 23.4021 20.9795 23.3985 20.9795 23.3985L20.8873 23.3508Z" fill="#067647"/>
</svg>
