<svg width="64" height="64" viewBox="0 0 64 64" fill="none" xmlns="http://www.w3.org/2000/svg">
<path d="M0.639893 32.0001C0.639893 14.6805 14.6803 0.640137 31.9999 0.640137C49.3195 0.640137 63.3599 14.6805 63.3599 32.0001C63.3599 49.3198 49.3195 63.3601 31.9999 63.3601C14.6803 63.3601 0.639893 49.3198 0.639893 32.0001Z" fill="#1B8354"/>
<path d="M45.4424 24.1559C45.4424 23.0357 44.8263 22.0275 43.8181 21.5346L34.6213 16.9306C32.997 16.124 30.9918 16.124 29.3787 16.9306L20.1819 21.5346C19.1737 22.0275 18.5576 23.0357 18.5576 24.1559C18.5576 25.2761 19.1737 26.2843 20.1819 26.7771L22.736 28.0542C22.2095 29.2976 21.9182 30.6418 21.9182 31.9973C21.9182 34.6746 22.9712 37.1054 24.6851 38.9089C21.1789 39.6931 18.5576 42.8296 18.5576 46.5599C18.5576 47.176 19.0617 47.6801 19.6778 47.6801C20.2939 47.6801 20.798 47.176 20.798 46.5599C20.798 43.4681 23.3073 40.9589 26.399 40.9589H27.4072C28.785 41.6646 30.3533 42.0791 32 42.0791C33.6467 42.0791 35.215 41.6646 36.5928 40.9589H37.601C40.6928 40.9589 43.202 43.4681 43.202 46.5599C43.202 47.176 43.7061 47.6801 44.3222 47.6801C44.9383 47.6801 45.4424 47.176 45.4424 46.5599C45.4424 42.8296 42.8211 39.6931 39.3149 38.9089C41.0288 37.1054 42.0818 34.6746 42.0818 31.9973C42.0818 30.6418 41.7906 29.2976 41.2641 28.0542L43.8181 26.7771C44.8263 26.2843 45.4424 25.2761 45.4424 24.1559ZM39.8414 31.9973C39.8414 36.3212 36.324 39.8387 32 39.8387C27.676 39.8387 24.1586 36.3212 24.1586 31.9973C24.1586 30.9891 24.3603 29.9809 24.7299 29.0512L29.3787 31.37C30.1853 31.7844 31.0927 31.9973 32 31.9973C32.9074 31.9973 33.8147 31.7844 34.6213 31.3812L35.3606 31.0115V33.1175C35.3606 33.7336 35.8647 34.2377 36.4808 34.2377C37.0969 34.2377 37.601 33.7336 37.601 33.1175V29.8913L39.2701 29.0624C39.6398 29.9809 39.8414 30.9891 39.8414 31.9973ZM42.8211 24.772L33.6243 29.376C32.6273 29.8801 31.3839 29.8801 30.3869 29.376L21.1789 24.772C20.9436 24.66 20.798 24.4247 20.798 24.1559C20.798 23.887 20.9436 23.6518 21.1789 23.5398L30.3757 18.9357C30.8798 18.6893 31.4399 18.5549 32 18.5549C32.5601 18.5549 33.1202 18.6893 33.6243 18.9357L42.8211 23.5398C43.0564 23.6518 43.202 23.887 43.202 24.1559C43.202 24.4247 43.0564 24.66 42.8211 24.772Z" fill="white"/>
</svg>
