<svg width="64" height="64" viewBox="0 0 64 64" fill="none" xmlns="http://www.w3.org/2000/svg">
<path d="M0.639893 32.0001C0.639893 14.6805 14.6803 0.640137 31.9999 0.640137C49.3195 0.640137 63.3599 14.6805 63.3599 32.0001C63.3599 49.3198 49.3195 63.3601 31.9999 63.3601C14.6803 63.3601 0.639893 49.3198 0.639893 32.0001Z" fill="#1B8354"/>
<path d="M20.9316 36.8425C19.9964 36.8425 19.0822 36.5652 18.3047 36.0455C17.5271 35.5259 16.9211 34.7874 16.5633 33.9234C16.2055 33.0594 16.112 32.1086 16.2946 31.1914C16.4772 30.2742 16.9276 29.4318 17.589 28.7706C18.2505 28.1095 19.0931 27.6593 20.0103 27.4771C20.9276 27.2949 21.8783 27.3888 22.7422 27.7469C23.6061 28.1051 24.3444 28.7113 24.8637 29.4891C25.383 30.2669 25.6599 31.1811 25.6596 32.1163C25.6581 33.3697 25.1595 34.5712 24.2731 35.4573C23.3867 36.3433 22.1849 36.8415 20.9316 36.8425ZM20.9316 29.2331C20.3613 29.2331 19.8039 29.4022 19.3297 29.719C18.8556 30.0358 18.486 30.4861 18.2678 31.013C18.0496 31.5398 17.9925 32.1195 18.1037 32.6788C18.215 33.2381 18.4896 33.7519 18.8928 34.1551C19.296 34.5584 19.8098 34.833 20.3691 34.9442C20.9284 35.0555 21.5081 34.9984 22.035 34.7801C22.5618 34.5619 23.0121 34.1924 23.329 33.7182C23.6458 33.2441 23.8149 32.6866 23.8149 32.1163C23.8144 31.3518 23.5105 30.6187 22.9698 30.0781C22.4292 29.5375 21.6961 29.2335 20.9316 29.2331Z" fill="white"/>
<path d="M26.4657 47.6802C26.2211 47.6802 25.9865 47.583 25.8135 47.41C25.6405 47.237 25.5434 47.0024 25.5434 46.7578V44.9131C25.5434 43.69 25.0575 42.517 24.1926 41.6521C23.3277 40.7872 22.1547 40.3013 20.9316 40.3013C19.7085 40.3013 18.5354 40.7872 17.6706 41.6521C16.8057 42.517 16.3198 43.69 16.3198 44.9131V46.7578C16.3198 47.0024 16.2226 47.237 16.0497 47.41C15.8767 47.583 15.6421 47.6802 15.3975 47.6802C15.1528 47.6802 14.9182 47.583 14.7452 47.41C14.5723 47.237 14.4751 47.0024 14.4751 46.7578V44.9131C14.4751 43.2007 15.1553 41.5585 16.3662 40.3477C17.577 39.1368 19.2192 38.4566 20.9316 38.4566C22.644 38.4566 24.2862 39.1368 25.497 40.3477C26.7078 41.5585 27.3881 43.2007 27.3881 44.9131V46.7578C27.3881 47.0024 27.2909 47.237 27.1179 47.41C26.945 47.583 26.7103 47.6802 26.4657 47.6802Z" fill="white"/>
<path d="M26.4657 46.4996C26.2903 46.4994 26.1185 46.4493 25.9706 46.355C25.8226 46.2607 25.7047 46.1261 25.6305 45.9671C25.5563 45.8082 25.529 45.6313 25.5518 45.4574C25.5746 45.2834 25.6466 45.1196 25.7592 44.985L38.6722 29.5633C38.8319 29.3849 39.0547 29.2757 39.2934 29.2586C39.5322 29.2416 39.7683 29.318 39.9517 29.4717C40.1352 29.6255 40.2517 29.8446 40.2766 30.0826C40.3015 30.3207 40.2329 30.5591 40.0852 30.7476L27.1723 46.1694C27.0858 46.2727 26.9777 46.3558 26.8556 46.4128C26.7335 46.4698 26.6005 46.4995 26.4657 46.4996Z" fill="white"/>
<path d="M19.0869 25.5436C18.8423 25.5436 18.6076 25.4465 18.4347 25.2735C18.2617 25.1005 18.1645 24.8659 18.1645 24.6213V17.2424C18.1645 16.9978 18.2617 16.7632 18.4347 16.5902C18.6076 16.4172 18.8423 16.3201 19.0869 16.3201C19.3315 16.3201 19.5661 16.4172 19.7391 16.5902C19.9121 16.7632 20.0092 16.9978 20.0092 17.2424V24.6213C20.0092 24.8659 19.9121 25.1005 19.7391 25.2735C19.5661 25.4465 19.3315 25.5436 19.0869 25.5436Z" fill="white"/>
<path d="M48.6023 18.1648H17.2422C16.9975 18.1648 16.7629 18.0676 16.59 17.8946C16.417 17.7217 16.3198 17.487 16.3198 17.2424C16.3198 16.9978 16.417 16.7632 16.59 16.5902C16.7629 16.4172 16.9975 16.3201 17.2422 16.3201H48.6023C48.8469 16.3201 49.0815 16.4172 49.2545 16.5902C49.4274 16.7632 49.5246 16.9978 49.5246 17.2424C49.5246 17.487 49.4274 17.7217 49.2545 17.8946C49.0815 18.0676 48.8469 18.1648 48.6023 18.1648Z" fill="white"/>
<path d="M46.7576 38.4566C46.5129 38.4566 46.2783 38.3594 46.1054 38.1865C45.9324 38.0135 45.8352 37.7789 45.8352 37.5343V17.2424C45.8352 16.9978 45.9324 16.7632 46.1054 16.5902C46.2783 16.4172 46.5129 16.3201 46.7576 16.3201C47.0022 16.3201 47.2368 16.4172 47.4098 16.5902C47.5827 16.7632 47.6799 16.9978 47.6799 17.2424V37.5343C47.6799 37.7789 47.5827 38.0135 47.4098 38.1865C47.2368 38.3594 47.0022 38.4566 46.7576 38.4566Z" fill="white"/>
<path d="M48.6023 38.4566H37.534C37.2894 38.4566 37.0548 38.3594 36.8818 38.1865C36.7088 38.0135 36.6116 37.7789 36.6116 37.5343C36.6116 37.2896 36.7088 37.055 36.8818 36.8821C37.0548 36.7091 37.2894 36.6119 37.534 36.6119H48.6023C48.8469 36.6119 49.0815 36.7091 49.2545 36.8821C49.4274 37.055 49.5246 37.2896 49.5246 37.5343C49.5246 37.7789 49.4274 38.0135 49.2545 38.1865C49.0815 38.3594 48.8469 38.4566 48.6023 38.4566Z" fill="white"/>
<path d="M41.2234 23.6989H30.1551C29.9105 23.6989 29.6759 23.6017 29.5029 23.4288C29.33 23.2558 29.2328 23.0212 29.2328 22.7766C29.2328 22.5319 29.33 22.2973 29.5029 22.1244C29.6759 21.9514 29.9105 21.8542 30.1551 21.8542H41.2234C41.468 21.8542 41.7027 21.9514 41.8756 22.1244C42.0486 22.2973 42.1458 22.5319 42.1458 22.7766C42.1458 23.0212 42.0486 23.2558 41.8756 23.4288C41.7027 23.6017 41.468 23.6989 41.2234 23.6989Z" fill="white"/>
<path d="M41.2234 27.3883H26.4657C26.2211 27.3883 25.9865 27.2912 25.8135 27.1182C25.6405 26.9452 25.5434 26.7106 25.5434 26.466C25.5434 26.2214 25.6405 25.9868 25.8135 25.8138C25.9865 25.6408 26.2211 25.5436 26.4657 25.5436H41.2234C41.468 25.5436 41.7027 25.6408 41.8756 25.8138C42.0486 25.9868 42.1458 26.2214 42.1458 26.466C42.1458 26.7106 42.0486 26.9452 41.8756 27.1182C41.7027 27.2912 41.468 27.3883 41.2234 27.3883Z" fill="white"/>
</svg>
