<svg width="64" height="64" viewBox="0 0 64 64" fill="none" xmlns="http://www.w3.org/2000/svg">
<path d="M0.639893 32.0001C0.639893 14.6805 14.6803 0.640137 31.9999 0.640137C49.3195 0.640137 63.3599 14.6805 63.3599 32.0001C63.3599 49.3198 49.3195 63.3601 31.9999 63.3601C14.6803 63.3601 0.639893 49.3198 0.639893 32.0001Z" fill="#1B8354"/>
<path d="M26.8293 24.504C26.8293 24.0095 27.2302 23.6087 27.7247 23.6087H30.1123C30.6068 23.6087 31.0076 24.0095 31.0076 24.504C31.0076 24.9985 30.6068 25.3994 30.1123 25.3994H27.7247C27.2302 25.3994 26.8293 24.9985 26.8293 24.504Z" fill="white"/>
<path d="M26.8293 28.0854C26.8293 27.5909 27.2302 27.1901 27.7247 27.1901H30.1123C30.6068 27.1901 31.0076 27.5909 31.0076 28.0854C31.0076 28.5799 30.6068 28.9808 30.1123 28.9808H27.7247C27.2302 28.9808 26.8293 28.5799 26.8293 28.0854Z" fill="white"/>
<path d="M26.8293 31.6668C26.8293 31.1723 27.2302 30.7715 27.7247 30.7715H30.1123C30.6068 30.7715 31.0076 31.1723 31.0076 31.6668C31.0076 32.1613 30.6068 32.5622 30.1123 32.5622H27.7247C27.2302 32.5622 26.8293 32.1613 26.8293 31.6668Z" fill="white"/>
<path fill-rule="evenodd" clip-rule="evenodd" d="M25.3371 18.8335C24.577 18.8335 23.9057 18.872 23.3354 18.9973C22.7549 19.1248 22.2233 19.3541 21.8022 19.7753C21.381 20.1965 21.1516 20.728 21.0241 21.3085C20.8988 21.8789 20.8604 22.5501 20.8604 23.3102V43.6048C20.8604 44.0992 21.2612 44.5001 21.7557 44.5001H43.244C43.7384 44.5001 44.1394 44.0992 44.1394 43.6048V30.473C44.1394 29.7129 44.1009 29.0416 43.9755 28.4713C43.848 27.8908 43.6188 27.3593 43.1977 26.9381C42.7765 26.5169 42.2448 26.2876 41.6643 26.16C41.0939 26.0348 40.4228 25.9963 39.6626 25.9963H36.9766V23.3102C36.9766 22.5501 36.9381 21.8789 36.8128 21.3085C36.6853 20.728 36.456 20.1965 36.0348 19.7753C35.6136 19.3541 35.0821 19.1248 34.5016 18.9973C33.9312 18.872 33.26 18.8335 32.4999 18.8335H25.3371ZM35.1859 42.7095H32.7983V38.7762C32.7984 38.2596 32.7984 37.7858 32.7466 37.4004C32.6896 36.976 32.5553 36.5274 32.1864 36.1586C31.8175 35.7897 31.369 35.6554 30.9446 35.5984C30.5592 35.5465 30.0855 35.5467 29.5688 35.5467H28.2682C27.7515 35.5467 27.2777 35.5465 26.8924 35.5984C26.468 35.6554 26.0195 35.7897 25.6505 36.1586C25.2816 36.5274 25.1474 36.976 25.0903 37.4004C25.0385 37.7858 25.0386 38.2594 25.0387 38.7762V42.7095H22.651V23.3102C22.651 22.5889 22.6899 22.0717 22.7731 21.6927C22.8541 21.3239 22.9646 21.1453 23.0684 21.0415C23.1722 20.9377 23.3508 20.8273 23.7196 20.7463C24.0985 20.663 24.6157 20.6242 25.3371 20.6242H32.4999C33.2212 20.6242 33.7384 20.663 34.1174 20.7463C34.4862 20.8273 34.6648 20.9377 34.7686 21.0415C34.8724 21.1453 34.9828 21.3239 35.0638 21.6927C35.1471 22.0717 35.1859 22.5889 35.1859 23.3102V42.7095ZM26.8293 42.7095V38.8296C26.8293 38.2415 26.8312 37.8905 26.8651 37.6389C26.8806 37.5238 26.8988 37.4659 26.9095 37.44C26.912 37.4339 26.9151 37.4276 26.9151 37.4276L26.9168 37.4248L26.9197 37.4231C26.9197 37.4231 26.9259 37.4199 26.932 37.4176C26.958 37.4068 27.0157 37.3886 27.131 37.373C27.3825 37.3393 27.7335 37.3374 28.3216 37.3374H29.5154C30.1035 37.3374 30.4544 37.3393 30.706 37.373C30.8213 37.3886 30.879 37.4068 30.905 37.4176C30.911 37.4199 30.9173 37.4231 30.9173 37.4231L30.9202 37.4248L30.9218 37.4276C30.9218 37.4276 30.925 37.4339 30.9275 37.44C30.9381 37.4659 30.9564 37.5238 30.9719 37.6389C31.0057 37.8905 31.0076 38.2415 31.0076 38.8296V42.7095H26.8293ZM36.9766 27.787H39.6626C40.3839 27.787 40.9013 27.8258 41.2802 27.909C41.6489 27.9901 41.8276 28.1005 41.9313 28.2043C42.0351 28.3081 42.1456 28.4867 42.2266 28.8555C42.3098 29.2345 42.3487 29.7516 42.3487 30.473V42.7095H36.9766V27.787Z" fill="white"/>
</svg>
