<svg width="64" height="64" viewBox="0 0 64 64" fill="none" xmlns="http://www.w3.org/2000/svg">
<path d="M0.639893 32.0001C0.639893 14.6805 14.6803 0.640137 31.9999 0.640137C49.3195 0.640137 63.3599 14.6805 63.3599 32.0001C63.3599 49.3198 49.3195 63.3601 31.9999 63.3601C14.6803 63.3601 0.639893 49.3198 0.639893 32.0001Z" fill="#1B8354"/>
<path d="M32.0004 27.3803C35.0547 27.3803 37.5307 24.9043 37.5307 21.8501C37.5307 18.7958 35.0547 16.3198 32.0004 16.3198C28.9462 16.3198 26.4702 18.7958 26.4702 21.8501C26.4702 24.9043 28.9462 27.3803 32.0004 27.3803ZM32.0004 27.3803C35.1757 27.3803 38.0182 28.8028 39.9276 31.0441M32.0004 27.3803C28.8252 27.3803 25.9817 28.8023 24.0723 31.0441M42.4104 34.5375V30.113L32.0004 34.0168M32.0004 34.0168V47.6802M32.0004 34.0168L21.5899 30.1134V34.5379M32.0004 47.6802L42.4104 43.7764V39.0918M32.0004 47.6802L21.5899 43.7768V39.0922M42.7354 39.0922H41.7595C41.4003 39.0922 41.109 38.8009 41.109 38.4418V35.1884C41.109 34.8293 41.4003 34.538 41.7595 34.538H42.7354C43.9929 34.538 45.0128 35.5573 45.0128 36.8153C45.0128 38.0733 43.9934 39.0922 42.7354 39.0922ZM21.2644 39.0922H22.2404C22.5996 39.0922 22.8909 38.8009 22.8909 38.4418V35.1884C22.8909 34.8293 22.5996 34.538 22.2404 34.538H21.2644C20.0069 34.538 18.9871 35.5573 18.9871 36.8153C18.9871 38.0733 20.0064 39.0922 21.2644 39.0922Z" stroke="white" stroke-width="1.95191" stroke-linecap="round" stroke-linejoin="round"/>
</svg>
