<svg width="120" height="41" viewBox="0 0 120 41" fill="none" xmlns="http://www.w3.org/2000/svg">
<rect x="0.5" y="0.904846" width="119" height="39" rx="5.5" fill="black"/>
<rect x="0.5" y="0.904846" width="119" height="39" rx="5.5" stroke="#A6A6A6"/>
<path d="M24.7045 21.168C24.7166 20.2481 24.9669 19.3461 25.4321 18.546C25.8972 17.7459 26.5621 17.0737 27.3648 16.5919C26.8548 15.8808 26.1821 15.2957 25.4 14.8828C24.6178 14.47 23.7479 14.241 22.8592 14.2138C20.9635 14.0196 19.1258 15.3213 18.1598 15.3213C17.1751 15.3213 15.6878 14.2331 14.0862 14.2653C13.0502 14.298 12.0406 14.5921 11.1557 15.119C10.2708 15.6458 9.54075 16.3875 9.03674 17.2718C6.85352 20.9621 8.48201 26.3858 10.5734 29.3689C11.6197 30.8296 12.8426 32.4612 14.4428 32.4034C16.0086 32.3399 16.5934 31.4285 18.4835 31.4285C20.3561 31.4285 20.9048 32.4034 22.5374 32.3666C24.2176 32.3399 25.2762 30.8994 26.2859 29.4248C27.0377 28.384 27.6162 27.2337 28 26.0165C27.0238 25.6134 26.1908 24.9387 25.6048 24.0765C25.0187 23.2143 24.7056 22.2027 24.7045 21.168Z" fill="white"/>
<path d="M21.621 12.252C22.5372 11.1783 22.9885 9.7982 22.8792 8.40485C21.4796 8.54837 20.1867 9.20144 19.2582 10.234C18.8043 10.7384 18.4566 11.3252 18.235 11.9609C18.0135 12.5965 17.9224 13.2686 17.9671 13.9386C18.6672 13.9457 19.3597 13.7975 19.9927 13.5054C20.6256 13.2132 21.1824 12.7847 21.621 12.252Z" fill="white"/>
<path d="M36.791 8.90631H38.8608C40.6494 8.90631 41.5195 9.96979 41.5195 11.899C41.5195 13.8282 40.6406 14.9048 38.8608 14.9048H36.791V8.90631ZM37.7886 9.74567V14.0655H38.751C39.9375 14.0655 40.4956 13.3492 40.4956 11.9122C40.4956 10.4664 39.9331 9.74567 38.751 9.74567H37.7886ZM44.6748 10.1807C45.8877 10.1807 46.7358 10.9673 46.7358 12.2725V12.8746C46.7358 14.2237 45.8877 14.9839 44.6748 14.9839C43.4443 14.9839 42.605 14.2325 42.605 12.879V12.2769C42.605 11.0069 43.4575 10.1807 44.6748 10.1807ZM44.6792 10.9673C43.9849 10.9673 43.5894 11.5474 43.5894 12.3253V12.8438C43.5894 13.6216 43.9585 14.1973 44.6792 14.1973C45.3911 14.1973 45.7559 13.626 45.7559 12.8438V12.3253C45.7559 11.5474 45.3735 10.9673 44.6792 10.9673ZM53.8989 10.2598L52.6772 14.9048H51.6841L50.7129 11.4771H50.6865L49.7329 14.9048H48.7354L47.4609 10.2598H48.5112L49.2583 13.8018H49.3022L50.2383 10.2598H51.1567L52.1191 13.8018H52.1631L52.9233 10.2598H53.8989ZM54.8657 14.9048V10.2598H55.8237V11.0948H55.8721C55.9907 10.73 56.3291 10.1895 57.2695 10.1895C58.2056 10.1895 58.834 10.7081 58.834 11.7672V14.9048H57.8584V12.0528C57.8584 11.3453 57.4893 11.0201 56.9399 11.0201C56.2192 11.0201 55.8413 11.5738 55.8413 12.3253V14.9048H54.8657ZM60.3105 14.9048V8.5899H61.2861V14.9048H60.3105ZM64.6348 10.1807C65.8477 10.1807 66.6958 10.9673 66.6958 12.2725V12.8746C66.6958 14.2237 65.8477 14.9839 64.6348 14.9839C63.4043 14.9839 62.5649 14.2325 62.5649 12.879V12.2769C62.5649 11.0069 63.4175 10.1807 64.6348 10.1807ZM64.6392 10.9673C63.9448 10.9673 63.5493 11.5474 63.5493 12.3253V12.8438C63.5493 13.6216 63.9185 14.1973 64.6392 14.1973C65.3511 14.1973 65.7158 13.626 65.7158 12.8438V12.3253C65.7158 11.5474 65.3335 10.9673 64.6392 10.9673ZM69.2227 14.9752C68.3218 14.9752 67.7021 14.4214 67.7021 13.5557C67.7021 12.7339 68.2734 12.1802 69.3457 12.1802H70.519V11.7452C70.519 11.2134 70.1807 10.963 69.6445 10.963C69.1172 10.963 68.8799 11.1827 68.8052 11.4903H67.8779C67.9351 10.7125 68.5195 10.1895 69.6753 10.1895C70.6685 10.1895 71.4902 10.6026 71.4902 11.7584V14.9048H70.563V14.3028H70.519C70.3125 14.6588 69.9082 14.9752 69.2227 14.9752ZM69.5259 14.2193C70.0796 14.2193 70.519 13.8414 70.519 13.336V12.835H69.4995C68.9326 12.835 68.6821 13.1207 68.6821 13.5074C68.6821 13.9908 69.0864 14.2193 69.5259 14.2193ZM74.4961 10.1983C75.1509 10.1983 75.6519 10.4883 75.832 10.9586H75.8804V8.5899H76.856V14.9048H75.9067V14.1622H75.8584C75.7178 14.6324 75.1597 14.9664 74.4829 14.9664C73.415 14.9664 72.7207 14.2061 72.7207 12.98V12.1846C72.7207 10.9586 73.4282 10.1983 74.4961 10.1983ZM74.7686 10.9981C74.1182 10.9981 73.7139 11.4815 73.7139 12.3253V12.835C73.7139 13.6832 74.1226 14.1666 74.7905 14.1666C75.4497 14.1666 75.8804 13.6876 75.8804 12.8965V12.1934C75.8804 11.4771 75.4102 10.9981 74.7686 10.9981ZM82.2129 10.1807C83.4258 10.1807 84.2739 10.9673 84.2739 12.2725V12.8746C84.2739 14.2237 83.4258 14.9839 82.2129 14.9839C80.9824 14.9839 80.1431 14.2325 80.1431 12.879V12.2769C80.1431 11.0069 80.9956 10.1807 82.2129 10.1807ZM82.2173 10.9673C81.5229 10.9673 81.1274 11.5474 81.1274 12.3253V12.8438C81.1274 13.6216 81.4966 14.1973 82.2173 14.1973C82.9292 14.1973 83.2939 13.626 83.2939 12.8438V12.3253C83.2939 11.5474 82.9116 10.9673 82.2173 10.9673ZM85.5308 14.9048V10.2598H86.4888V11.0948H86.5371C86.6558 10.73 86.9941 10.1895 87.9346 10.1895C88.8706 10.1895 89.499 10.7081 89.499 11.7672V14.9048H88.5234V12.0528C88.5234 11.3453 88.1543 11.0201 87.605 11.0201C86.8843 11.0201 86.5063 11.5738 86.5063 12.3253V14.9048H85.5308ZM93.2739 10.2906V9.13043H94.2275V10.2906H95.269V11.0552H94.2275V13.5206C94.2275 14.0259 94.4165 14.1666 94.9395 14.1666C95.0713 14.1666 95.2471 14.1578 95.3218 14.149V14.8961C95.2427 14.9092 94.9175 14.9356 94.6978 14.9356C93.5684 14.9356 93.2607 14.5313 93.2607 13.5997V11.0552H92.5532V10.2906H93.2739ZM96.4995 14.9048V8.5899H97.4707V11.0948H97.519C97.6201 10.7652 97.998 10.1895 98.9297 10.1895C99.835 10.1895 100.481 10.7125 100.481 11.7715V14.9048H99.5098V12.0572C99.5098 11.3497 99.1187 11.0201 98.5649 11.0201C97.8662 11.0201 97.4707 11.5694 97.4707 12.3253V14.9048H96.4995ZM103.755 14.9839C102.489 14.9839 101.703 14.2061 101.703 12.8965V12.2681C101.703 10.9498 102.564 10.1807 103.698 10.1807C104.862 10.1807 105.684 10.9893 105.684 12.2681V12.813H102.669V13.0416C102.669 13.7095 103.065 14.2017 103.75 14.2017C104.26 14.2017 104.612 13.96 104.678 13.67H105.631C105.574 14.2061 105.007 14.9839 103.755 14.9839ZM102.669 12.1758H104.73V12.1143C104.73 11.4156 104.322 10.9498 103.702 10.9498C103.083 10.9498 102.669 11.4156 102.669 12.1143V12.1758Z" fill="white"/>
<path d="M38.2061 30.9048H36.1758L40.3066 18.9078H42.5391L46.6611 30.9048H44.5518L43.4883 27.5826H39.2783L38.2061 30.9048ZM41.4316 20.982H41.3525L39.7266 26.0533H43.04L41.4316 20.982ZM52.2644 31.0367C51.0603 31.0367 50.1462 30.4654 49.654 29.6129H49.5837V33.9898H47.6325V21.6148H49.531V22.9771H49.6013C50.1111 22.0894 51.0603 21.4918 52.3083 21.4918C54.3913 21.4918 55.8767 23.065 55.8767 25.8423V26.6685C55.8767 29.4283 54.4089 31.0367 52.2644 31.0367ZM51.8161 29.4283C53.0554 29.4283 53.8991 28.4351 53.8991 26.563V25.9127C53.8991 24.1109 53.1081 23.0826 51.781 23.0826C50.4187 23.0826 49.5661 24.19 49.5661 25.9039V26.563C49.5661 28.3209 50.4275 29.4283 51.8161 29.4283ZM62.183 31.0367C60.9789 31.0367 60.0649 30.4654 59.5727 29.6129H59.5024V33.9898H57.5512V21.6148H59.4496V22.9771H59.52C60.0297 22.0894 60.9789 21.4918 62.227 21.4918C64.31 21.4918 65.7954 23.065 65.7954 25.8423V26.6685C65.7954 29.4283 64.3276 31.0367 62.183 31.0367ZM61.7348 29.4283C62.9741 29.4283 63.8178 28.4351 63.8178 26.563V25.9127C63.8178 24.1109 63.0268 23.0826 61.6996 23.0826C60.3373 23.0826 59.4848 24.19 59.4848 25.9039V26.563C59.4848 28.3209 60.3461 29.4283 61.7348 29.4283ZM69.8387 27.5738H71.7899C71.8778 28.6109 72.7919 29.4986 74.4882 29.4986C76.0438 29.4986 76.9667 28.7691 76.9667 27.6353C76.9667 26.7213 76.3514 26.2291 75.0682 25.9214L73.0995 25.4293C71.5526 25.0689 70.1639 24.1461 70.1639 22.1949C70.1639 19.9009 72.1679 18.6441 74.497 18.6441C76.8261 18.6441 78.7684 19.9009 78.8124 22.1422H76.8964C76.8085 21.1226 76.0262 20.2789 74.4706 20.2789C73.0995 20.2789 72.1679 20.9293 72.1679 22.0455C72.1679 22.8277 72.7128 23.3902 73.829 23.6451L75.7889 24.1285C77.5907 24.5679 78.9618 25.4205 78.9618 27.4595C78.9618 29.815 77.0546 31.1422 74.3387 31.1422C70.9989 31.1422 69.8827 29.191 69.8387 27.5738ZM81.3395 21.6148V19.356H83.2555V21.6148H85.066V23.1793H83.2555V28.1363C83.2555 29.147 83.6334 29.4283 84.6793 29.4283C84.8463 29.4283 85.0045 29.4283 85.1188 29.4107V30.9048C84.9605 30.9312 84.5914 30.9664 84.1959 30.9664C81.9371 30.9664 81.3131 30.1578 81.3131 28.2945V23.1793H80.0299V21.6148H81.3395ZM90.3353 21.4566C93.0071 21.4566 94.4573 23.3375 94.4573 25.8687V26.6158C94.4573 29.2349 93.0159 31.063 90.3353 31.063C87.6546 31.063 86.1956 29.2349 86.1956 26.6158V25.8687C86.1956 23.3463 87.6634 21.4566 90.3353 21.4566ZM90.3353 23.0211C88.8851 23.0211 88.1644 24.2076 88.1644 25.8951V26.607C88.1644 28.2681 88.8763 29.4898 90.3353 29.4898C91.7943 29.4898 92.4974 28.2769 92.4974 26.607V25.8951C92.4974 24.1988 91.7855 23.0211 90.3353 23.0211ZM96.1055 30.9048V21.6148H98.0567V22.8365H98.127C98.3643 22.2564 99.0586 21.483 100.351 21.483C100.606 21.483 100.825 21.5005 101.01 21.5357V23.2584C100.843 23.2144 100.5 23.188 100.175 23.188C98.6104 23.188 98.083 24.1548 98.083 25.4029V30.9048H96.1055ZM105.743 31.063C103.256 31.063 101.674 29.4195 101.674 26.6685V25.7281C101.674 23.1353 103.22 21.4566 105.664 21.4566C108.142 21.4566 109.636 23.1968 109.636 25.816V26.7037H103.598V26.9234C103.598 28.4879 104.442 29.525 105.769 29.525C106.762 29.525 107.439 29.0328 107.677 28.233H109.531C109.25 29.7359 108.037 31.063 105.743 31.063ZM103.598 25.3414H107.729V25.3238C107.729 24.0054 106.912 22.9683 105.673 22.9683C104.416 22.9683 103.598 24.0054 103.598 25.3238V25.3414Z" fill="white"/>
</svg>
