<svg xmlns="http://www.w3.org/2000/svg" width="273" height="124" viewBox="0 0 273 124" fill="none">
<g clip-path="url(#clip0_608_9)">
<path d="M17.4201 115.209C17.4016 115.644 17.4909 116.077 17.6801 116.469C17.8325 116.765 18.0558 117.02 18.3301 117.209C18.5803 117.378 18.8629 117.494 19.1601 117.549C19.4238 117.599 19.6915 117.626 19.9601 117.629C20.3908 117.633 20.8204 117.586 21.2401 117.489C21.5755 117.415 21.8988 117.294 22.2001 117.129V112.489H20.4001C20.0311 112.489 19.6629 112.522 19.3001 112.589C18.9544 112.65 18.6265 112.786 18.3401 112.989C18.0486 113.203 17.8178 113.489 17.6701 113.819C17.4868 114.259 17.4015 114.733 17.4201 115.209ZM25.9401 119.709C25.2294 119.72 24.5202 119.639 23.8301 119.469C23.5485 119.404 23.2834 119.281 23.0512 119.109C22.819 118.937 22.6246 118.719 22.4801 118.469C22.1325 118.617 21.775 118.741 21.4101 118.839C20.8912 118.975 20.3562 119.039 19.8201 119.029C19.3339 119.028 18.8498 118.964 18.3801 118.839C17.9103 118.717 17.471 118.499 17.0901 118.199C16.6965 117.882 16.3817 117.478 16.1701 117.019C15.9199 116.449 15.8003 115.831 15.8201 115.209C15.7876 114.657 15.8754 114.105 16.0774 113.59C16.2795 113.076 16.5908 112.611 16.9901 112.229C17.8936 111.479 19.048 111.1 20.2201 111.169H23.8401V116.829C23.809 117.06 23.8387 117.295 23.9264 117.511C24.0142 117.726 24.1567 117.915 24.3401 118.059C24.8571 118.305 25.4292 118.411 26.0001 118.369H26.1601C26.2431 118.359 26.3273 118.367 26.4069 118.393C26.4864 118.418 26.5592 118.462 26.6201 118.519C26.7167 118.685 26.7587 118.878 26.7401 119.069C26.7547 119.245 26.7308 119.423 26.6701 119.589C26.6435 119.63 26.6061 119.663 26.562 119.684C26.5179 119.706 26.4687 119.714 26.4201 119.709H25.9401ZM20.5601 108.269C20.5569 108.145 20.5793 108.021 20.6257 107.906C20.6722 107.791 20.7417 107.686 20.8301 107.599C20.9174 107.511 21.0219 107.441 21.1371 107.395C21.2523 107.348 21.3759 107.326 21.5001 107.329C21.6228 107.325 21.745 107.347 21.8587 107.394C21.9724 107.44 22.0751 107.51 22.1601 107.599C22.2458 107.688 22.3129 107.793 22.3576 107.908C22.4022 108.023 22.4234 108.146 22.4201 108.269C22.4234 108.392 22.4022 108.515 22.3576 108.63C22.3129 108.745 22.2458 108.85 22.1601 108.939C22.0751 109.028 21.9724 109.098 21.8587 109.144C21.745 109.191 21.6228 109.213 21.5001 109.209C21.3759 109.212 21.2523 109.19 21.1371 109.143C21.0219 109.097 20.9174 109.027 20.8301 108.939C20.7417 108.852 20.6722 108.747 20.6257 108.632C20.5793 108.517 20.5569 108.393 20.5601 108.269ZM18.0601 108.269C18.0569 108.145 18.0793 108.021 18.1257 107.906C18.1722 107.791 18.2417 107.686 18.3301 107.599C18.4174 107.511 18.5219 107.441 18.6371 107.395C18.7523 107.348 18.8759 107.326 19.0001 107.329C19.1228 107.325 19.245 107.347 19.3587 107.394C19.4724 107.44 19.5751 107.51 19.6601 107.599C19.7458 107.688 19.8129 107.793 19.8576 107.908C19.9022 108.023 19.9234 108.146 19.9201 108.269C19.9234 108.392 19.9022 108.515 19.8576 108.63C19.8129 108.745 19.7458 108.85 19.6601 108.939C19.5751 109.028 19.4724 109.098 19.3587 109.144C19.245 109.191 19.1228 109.213 19.0001 109.209C18.8759 109.212 18.7523 109.19 18.6371 109.143C18.5219 109.097 18.4174 109.027 18.3301 108.939C18.2417 108.852 18.1722 108.747 18.1257 108.632C18.0793 108.517 18.0569 108.393 18.0601 108.269ZM26.1601 118.369C26.8345 118.422 27.5044 118.222 28.0401 117.809C28.2672 117.563 28.4398 117.272 28.5467 116.955C28.6535 116.638 28.6922 116.302 28.6601 115.969V111.169H30.2801V116.269C30.2801 118.562 28.9934 119.709 26.4201 119.709C26.1847 119.729 25.9486 119.68 25.7401 119.569C25.6667 119.505 25.6102 119.425 25.5753 119.334C25.5404 119.243 25.5283 119.145 25.5401 119.049C25.5263 118.866 25.5796 118.685 25.6901 118.539C25.7516 118.479 25.8254 118.432 25.9065 118.403C25.9876 118.373 26.0741 118.362 26.1601 118.369ZM29.0601 122.269C29.0576 122.145 29.0803 122.022 29.1266 121.906C29.173 121.791 29.2421 121.687 29.3299 121.599C29.4177 121.511 29.5223 121.442 29.6375 121.396C29.7526 121.349 29.8759 121.327 30.0001 121.329C30.1228 121.325 30.245 121.347 30.3587 121.394C30.4724 121.44 30.5751 121.51 30.6601 121.599C30.7458 121.688 30.8129 121.793 30.8576 121.908C30.9022 122.023 30.9234 122.146 30.9201 122.269C30.9234 122.392 30.9022 122.515 30.8576 122.63C30.8129 122.745 30.7458 122.85 30.6601 122.939C30.5751 123.028 30.4724 123.098 30.3587 123.144C30.245 123.191 30.1228 123.213 30.0001 123.209C29.8759 123.211 29.7526 123.189 29.6375 123.142C29.5223 123.096 29.4177 123.027 29.3299 122.939C29.2421 122.851 29.173 122.747 29.1266 122.632C29.0803 122.516 29.0576 122.393 29.0601 122.269ZM26.5601 122.269C26.5576 122.145 26.5803 122.022 26.6266 121.906C26.673 121.791 26.7421 121.687 26.8299 121.599C26.9177 121.511 27.0223 121.442 27.1375 121.396C27.2526 121.349 27.3759 121.327 27.5001 121.329C27.6228 121.325 27.745 121.347 27.8587 121.394C27.9724 121.44 28.0751 121.51 28.1601 121.599C28.2458 121.688 28.3129 121.793 28.3576 121.908C28.4022 122.023 28.4234 122.146 28.4201 122.269C28.4234 122.392 28.4022 122.515 28.3576 122.63C28.3129 122.745 28.2458 122.85 28.1601 122.939C28.0751 123.028 27.9724 123.098 27.8587 123.144C27.745 123.191 27.6228 123.213 27.5001 123.209C27.3759 123.211 27.2526 123.189 27.1375 123.142C27.0223 123.096 26.9177 123.027 26.8299 122.939C26.7421 122.851 26.673 122.747 26.6266 122.632C26.5803 122.516 26.5576 122.393 26.5601 122.269ZM32.7201 123.209C32.5334 123.209 32.3301 123.199 32.1101 123.179C31.9051 123.161 31.7014 123.131 31.5001 123.089L31.7201 121.729C31.8667 121.756 32.0167 121.776 32.1701 121.789C32.3234 121.802 32.4734 121.809 32.6201 121.809C32.8824 121.833 33.1466 121.791 33.389 121.688C33.6315 121.585 33.8448 121.424 34.0101 121.219C34.3433 120.641 34.4932 119.975 34.4401 119.309V111.169H36.0801V118.369H38.0001C38.2534 118.369 38.4134 118.426 38.4801 118.539C38.5576 118.704 38.592 118.887 38.5801 119.069C38.5911 119.236 38.5637 119.404 38.5001 119.559C38.4791 119.605 38.4452 119.643 38.4026 119.67C38.3599 119.697 38.3104 119.71 38.2601 119.709H36.0601C36.0602 120.665 35.7358 121.592 35.1401 122.339C34.8213 122.647 34.4407 122.884 34.0235 123.034C33.6063 123.184 33.162 123.244 32.7201 123.209ZM38.8601 118.369C39.1725 118.383 39.4831 118.314 39.7601 118.169C39.9709 118.051 40.1495 117.882 40.2801 117.679C40.4063 117.47 40.4943 117.239 40.5401 116.999C40.5947 116.726 40.6215 116.448 40.6201 116.169V113.029H42.2601V116.449C42.2435 116.707 42.2792 116.966 42.3652 117.21C42.4511 117.454 42.5854 117.678 42.7601 117.869C42.9378 118.039 43.1482 118.171 43.3786 118.257C43.609 118.343 43.8545 118.381 44.1001 118.369C44.3971 118.38 44.6923 118.318 44.9601 118.189C45.1777 118.077 45.3634 117.912 45.5001 117.709C45.6385 117.496 45.7337 117.259 45.7801 117.009C45.8344 116.732 45.8612 116.451 45.8601 116.169V113.029H47.5001V116.449C47.4817 116.709 47.5166 116.97 47.6026 117.216C47.6885 117.461 47.8238 117.687 48.0001 117.879C48.1793 118.046 48.3902 118.176 48.6204 118.26C48.8506 118.344 49.0953 118.381 49.3401 118.369C49.6448 118.381 49.9456 118.297 50.2001 118.129C50.4235 117.973 50.5999 117.758 50.7101 117.509C50.8227 117.258 50.8968 116.992 50.9301 116.719C50.9618 116.47 50.9785 116.22 50.9801 115.969V111.169H52.6201V116.269C52.5717 116.844 52.7513 117.415 53.1201 117.859C53.3461 118.048 53.6074 118.191 53.8889 118.278C54.1704 118.366 54.4665 118.397 54.7601 118.369C55.0134 118.369 55.1734 118.426 55.2401 118.539C55.3187 118.711 55.3531 118.9 55.3401 119.089C55.35 119.25 55.3226 119.411 55.2601 119.559C55.2391 119.605 55.2052 119.643 55.1626 119.67C55.1199 119.697 55.0704 119.71 55.0201 119.709C54.4429 119.716 53.8697 119.614 53.3301 119.409C52.8276 119.218 52.4023 118.866 52.1201 118.409C51.896 118.806 51.5675 119.135 51.1701 119.359C50.6995 119.608 50.1719 119.728 49.6401 119.709C49.0929 119.721 48.551 119.601 48.0601 119.359C47.6403 119.157 47.2916 118.833 47.0601 118.429C46.9663 118.566 46.8627 118.697 46.7501 118.819C46.5937 118.983 46.4153 119.124 46.2201 119.239C45.9645 119.391 45.6883 119.506 45.4001 119.579C45.034 119.671 44.6575 119.715 44.2801 119.709C43.7485 119.725 43.2217 119.605 42.7501 119.359C42.3537 119.149 42.0296 118.825 41.8201 118.429C41.7234 118.57 41.6164 118.704 41.5001 118.829C41.3443 118.994 41.1659 119.135 40.9701 119.249C40.7167 119.396 40.4441 119.507 40.1601 119.579C39.794 119.671 39.4175 119.715 39.0401 119.709H38.2601C37.988 119.731 37.7152 119.679 37.4701 119.559C37.3905 119.502 37.3274 119.424 37.2871 119.335C37.2467 119.245 37.2305 119.147 37.2401 119.049C37.2401 118.596 37.4934 118.369 38.0001 118.369H38.8601ZM46.9601 108.269C46.9569 108.145 46.9793 108.021 47.0257 107.906C47.0722 107.791 47.1417 107.686 47.2301 107.599C47.3174 107.511 47.4219 107.441 47.5371 107.395C47.6524 107.348 47.7759 107.326 47.9001 107.329C48.0228 107.325 48.145 107.347 48.2587 107.394C48.3724 107.44 48.4751 107.51 48.5601 107.599C48.6458 107.688 48.7129 107.793 48.7576 107.908C48.8022 108.023 48.8234 108.146 48.8201 108.269C48.8234 108.392 48.8022 108.515 48.7576 108.63C48.7129 108.745 48.6458 108.85 48.5601 108.939C48.4751 109.028 48.3724 109.098 48.2587 109.144C48.145 109.191 48.0228 109.213 47.9001 109.209C47.7759 109.212 47.6524 109.19 47.5371 109.143C47.4219 109.097 47.3174 109.027 47.2301 108.939C47.1417 108.852 47.0722 108.747 47.0257 108.632C46.9793 108.517 46.9569 108.393 46.9601 108.269ZM44.4601 108.269C44.4569 108.145 44.4793 108.021 44.5257 107.906C44.5722 107.791 44.6417 107.686 44.7301 107.599C44.8174 107.511 44.9219 107.441 45.0371 107.395C45.1523 107.348 45.2759 107.326 45.4001 107.329C45.5228 107.325 45.645 107.347 45.7587 107.394C45.8724 107.44 45.9751 107.51 46.0601 107.599C46.1458 107.688 46.2129 107.793 46.2576 107.908C46.3022 108.023 46.3234 108.146 46.3201 108.269C46.3234 108.392 46.3022 108.515 46.2576 108.63C46.2129 108.745 46.1458 108.85 46.0601 108.939C45.9751 109.028 45.8724 109.098 45.7587 109.144C45.645 109.191 45.5228 109.213 45.4001 109.209C45.2759 109.212 45.1523 109.19 45.0371 109.143C44.9219 109.097 44.8174 109.027 44.7301 108.939C44.6417 108.852 44.5722 108.747 44.5257 108.632C44.4793 108.517 44.4569 108.393 44.4601 108.269ZM45.7001 106.169C45.6969 106.045 45.7193 105.921 45.7657 105.806C45.8122 105.691 45.8817 105.586 45.9701 105.499C46.0574 105.411 46.1619 105.341 46.2771 105.295C46.3923 105.248 46.5159 105.226 46.6401 105.229C46.7628 105.225 46.885 105.247 46.9987 105.294C47.1124 105.34 47.2151 105.41 47.3001 105.499C47.3858 105.588 47.4529 105.693 47.4976 105.808C47.5422 105.923 47.5634 106.046 47.5601 106.169C47.5634 106.292 47.5422 106.415 47.4976 106.53C47.4529 106.645 47.3858 106.75 47.3001 106.839C47.2151 106.928 47.1124 106.998 46.9987 107.044C46.885 107.091 46.7628 107.113 46.6401 107.109C46.5159 107.112 46.3923 107.09 46.2771 107.043C46.1619 106.997 46.0574 106.927 45.9701 106.839C45.8817 106.752 45.8122 106.647 45.7657 106.532C45.7193 106.417 45.6969 106.293 45.7001 106.169ZM54.7801 118.369C55.4549 118.426 56.1265 118.226 56.6601 117.809C56.8811 117.56 57.0485 117.268 57.1517 116.952C57.255 116.635 57.2918 116.3 57.2601 115.969V111.169H58.9001V116.449C58.8783 116.719 58.9194 116.991 59.02 117.242C59.1206 117.494 59.2781 117.718 59.4801 117.899C59.9496 118.238 60.522 118.404 61.1001 118.369C61.1831 118.359 61.2673 118.367 61.3469 118.393C61.4264 118.418 61.4992 118.462 61.5601 118.519C61.6567 118.685 61.6987 118.878 61.6801 119.069C61.6911 119.236 61.6637 119.404 61.6001 119.559C61.5791 119.605 61.5452 119.643 61.5026 119.67C61.4599 119.697 61.4104 119.71 61.3601 119.709C60.7656 119.717 60.1751 119.612 59.6201 119.399C59.1102 119.201 58.6809 118.838 58.4001 118.369C57.8001 119.262 56.6801 119.709 55.0401 119.709C54.8032 119.733 54.5647 119.681 54.3601 119.559C54.2909 119.482 54.2391 119.392 54.208 119.294C54.177 119.195 54.1674 119.091 54.1801 118.989C54.1668 118.906 54.173 118.822 54.1982 118.742C54.2233 118.662 54.2667 118.589 54.3249 118.529C54.3832 118.469 54.4546 118.423 54.5336 118.395C54.6126 118.367 54.697 118.359 54.7801 118.369ZM57.0801 122.209C57.0776 122.085 57.1003 121.962 57.1466 121.846C57.193 121.731 57.2622 121.627 57.3499 121.539C57.4377 121.451 57.5423 121.382 57.6575 121.336C57.7726 121.289 57.8959 121.267 58.0201 121.269C58.1428 121.265 58.265 121.287 58.3787 121.334C58.4924 121.38 58.5951 121.45 58.6801 121.539C58.7658 121.628 58.8329 121.733 58.8776 121.848C58.9222 121.963 58.9434 122.086 58.9401 122.209C58.9434 122.332 58.9222 122.455 58.8776 122.57C58.8329 122.685 58.7658 122.79 58.6801 122.879C58.5951 122.968 58.4924 123.038 58.3787 123.084C58.265 123.131 58.1428 123.153 58.0201 123.149C57.8959 123.151 57.7726 123.129 57.6575 123.082C57.5423 123.036 57.4377 122.967 57.3499 122.879C57.2622 122.791 57.193 122.687 57.1466 122.572C57.1003 122.456 57.0776 122.333 57.0801 122.209ZM61.1001 118.369C61.7745 118.422 62.4444 118.222 62.9801 117.809C63.2072 117.563 63.3798 117.272 63.4867 116.955C63.5935 116.638 63.6322 116.302 63.6001 115.969V105.009H65.2401V116.269C65.2401 118.562 63.9467 119.709 61.3601 119.709C61.1247 119.729 60.8886 119.68 60.6801 119.569C60.6068 119.505 60.5502 119.425 60.5153 119.334C60.4804 119.243 60.4683 119.145 60.4801 119.049C60.4725 118.876 60.5179 118.705 60.6101 118.559C60.6696 118.489 60.7456 118.435 60.8311 118.402C60.9166 118.369 61.009 118.358 61.1001 118.369ZM70.2801 105.009V119.709H68.6401V105.009H70.2801ZM81.8801 118.369C82.201 118.405 82.5258 118.375 82.8351 118.283C83.1444 118.19 83.4318 118.036 83.6801 117.829C84.0675 117.291 84.2453 116.629 84.1801 115.969V115.509C84.1844 115.091 84.134 114.674 84.0301 114.269C83.9381 113.91 83.7517 113.582 83.4901 113.319C83.1877 113.035 82.8203 112.829 82.4201 112.719C81.8601 112.565 81.2806 112.494 80.7001 112.509H79.2601V111.169H81.2401C81.9404 111.155 82.6386 111.249 83.3101 111.449C83.8398 111.607 84.328 111.88 84.7401 112.249C85.1113 112.593 85.3928 113.022 85.5601 113.499C85.7396 114.023 85.8275 114.575 85.8201 115.129V116.269C85.8986 117.211 85.6001 118.146 84.9901 118.869C84.6126 119.182 84.1771 119.417 83.7087 119.561C83.2403 119.705 82.748 119.755 82.2601 119.709H78.0001V118.369H81.8801ZM87.9601 123.209C87.7734 123.209 87.5701 123.199 87.3501 123.179C87.1451 123.161 86.9414 123.131 86.7401 123.089L86.9601 121.729C87.1067 121.756 87.2567 121.776 87.4101 121.789C87.5634 121.802 87.7134 121.809 87.8601 121.809C88.1224 121.833 88.3866 121.791 88.629 121.688C88.8715 121.585 89.0848 121.424 89.2501 121.219C89.5833 120.641 89.7332 119.975 89.6801 119.309V111.169H91.3201V119.089C91.399 120.179 91.1179 121.264 90.5201 122.179C90.2048 122.54 89.8086 122.822 89.3637 123.001C88.9187 123.18 88.4378 123.251 87.9601 123.209ZM96.2601 105.009V119.709H94.6201V105.009H96.2601ZM102.62 121.929C103.268 121.976 103.91 121.788 104.43 121.399C104.652 121.177 104.827 120.914 104.946 120.624C105.064 120.333 105.123 120.022 105.12 119.709H103.76C102.893 119.734 102.028 119.616 101.2 119.359C100.615 119.175 100.08 118.856 99.6401 118.429C99.2787 118.063 99.0141 117.613 98.8701 117.119C98.7304 116.635 98.6597 116.133 98.6601 115.629C98.6533 115.002 98.7582 114.379 98.9701 113.789C99.163 113.252 99.4623 112.758 99.8501 112.339C100.232 111.931 100.695 111.607 101.21 111.389C101.757 111.158 102.346 111.043 102.94 111.049C103.465 111.013 103.992 111.088 104.487 111.269C104.981 111.45 105.432 111.733 105.81 112.099C106.503 112.889 106.858 113.92 106.8 114.969V118.369H108.36C108.613 118.369 108.773 118.426 108.84 118.539C108.918 118.704 108.952 118.887 108.94 119.069C108.951 119.236 108.924 119.404 108.86 119.559C108.839 119.605 108.805 119.643 108.763 119.67C108.72 119.697 108.67 119.71 108.62 119.709H106.76C106.713 120.189 106.599 120.661 106.42 121.109C106.253 121.526 106.001 121.904 105.68 122.219C105.335 122.548 104.922 122.797 104.47 122.949C103.899 123.135 103.301 123.223 102.7 123.209C102.269 123.207 101.838 123.177 101.41 123.119C100.983 123.065 100.559 122.988 100.14 122.889L100.38 121.609C100.687 121.676 101.04 121.746 101.44 121.819C101.829 121.891 102.224 121.928 102.62 121.929ZM100.36 115.549C100.341 116.039 100.43 116.527 100.62 116.979C100.778 117.328 101.031 117.626 101.35 117.839C101.69 118.056 102.071 118.199 102.47 118.259C102.943 118.335 103.421 118.372 103.9 118.369H105.14V115.549C105.143 115.129 105.103 114.71 105.02 114.299C104.951 113.946 104.815 113.61 104.62 113.309C104.437 113.033 104.186 112.809 103.89 112.659C103.55 112.497 103.177 112.418 102.8 112.429C102.55 112.434 102.301 112.471 102.06 112.539C101.763 112.622 101.489 112.772 101.26 112.979C100.977 113.243 100.758 113.568 100.62 113.929C100.429 114.447 100.341 114.997 100.36 115.549ZM108.62 119.709C108.383 119.733 108.145 119.681 107.94 119.559C107.871 119.482 107.819 119.392 107.788 119.294C107.757 119.195 107.747 119.091 107.76 118.989C107.747 118.906 107.753 118.822 107.778 118.742C107.803 118.662 107.847 118.589 107.905 118.529C107.963 118.469 108.035 118.423 108.114 118.395C108.193 118.367 108.277 118.359 108.36 118.369H108.88C109.084 118.372 109.287 118.333 109.476 118.256C109.665 118.179 109.836 118.064 109.98 117.919C110.297 117.595 110.476 117.162 110.48 116.709C110.445 115.221 110.86 113.758 111.67 112.509C112.035 112.026 112.513 111.64 113.063 111.386C113.612 111.131 114.216 111.015 114.82 111.049C115.484 111.027 116.144 111.157 116.75 111.429C117.232 111.657 117.654 111.997 117.98 112.419C118.288 112.828 118.512 113.293 118.64 113.789C118.772 114.285 118.839 114.796 118.84 115.309C118.844 115.801 118.783 116.292 118.66 116.769C118.663 117.016 118.726 117.258 118.845 117.474C118.963 117.69 119.133 117.874 119.34 118.009C119.805 118.265 120.33 118.39 120.86 118.369C121.127 118.369 121.293 118.426 121.36 118.539C121.438 118.704 121.472 118.887 121.46 119.069C121.476 119.244 121.445 119.42 121.37 119.579C121.343 119.62 121.306 119.654 121.262 119.677C121.218 119.7 121.169 119.711 121.12 119.709C120.503 119.713 119.89 119.608 119.31 119.399C119.023 119.291 118.762 119.127 118.54 118.915C118.318 118.704 118.142 118.45 118.02 118.169C117.683 118.667 117.23 119.075 116.7 119.359C116.139 119.652 115.513 119.8 114.88 119.789C114.323 119.784 113.77 119.679 113.25 119.479C112.621 119.226 112.043 118.864 111.54 118.409C111.386 118.766 111.145 119.078 110.84 119.319C110.405 119.612 109.883 119.75 109.36 119.709H108.62ZM114.8 112.449C114.411 112.454 114.029 112.56 113.692 112.756C113.356 112.952 113.076 113.232 112.88 113.569C112.291 114.605 111.981 115.777 111.98 116.969C112.413 117.382 112.897 117.738 113.42 118.029C113.889 118.273 114.411 118.396 114.94 118.389C115.335 118.405 115.726 118.301 116.06 118.089C116.346 117.897 116.583 117.64 116.75 117.339C116.917 117.037 117.032 116.709 117.09 116.369C117.148 116.046 117.178 115.718 117.18 115.389C117.247 114.594 117.023 113.802 116.55 113.159C116.329 112.919 116.057 112.731 115.754 112.608C115.452 112.486 115.126 112.431 114.8 112.449ZM120.86 118.369C121.534 118.422 122.204 118.222 122.74 117.809C122.967 117.563 123.14 117.272 123.247 116.955C123.354 116.638 123.392 116.302 123.36 115.969V105.009H125V116.269C125 118.562 123.707 119.709 121.12 119.709C120.885 119.729 120.649 119.68 120.44 119.569C120.367 119.505 120.31 119.425 120.275 119.334C120.24 119.243 120.228 119.145 120.24 119.049C120.233 118.876 120.278 118.705 120.37 118.559C120.43 118.489 120.506 118.435 120.591 118.402C120.677 118.369 120.769 118.358 120.86 118.369ZM130.04 105.009V119.709H128.4V105.009H130.04ZM139.36 115.209C139.342 115.644 139.431 116.077 139.62 116.469C139.772 116.765 139.996 117.02 140.27 117.209C140.52 117.378 140.803 117.494 141.1 117.549C141.364 117.599 141.632 117.626 141.9 117.629C142.331 117.633 142.76 117.586 143.18 117.489C143.516 117.415 143.839 117.294 144.14 117.129V112.489H142.34C141.971 112.489 141.603 112.522 141.24 112.589C140.894 112.65 140.567 112.786 140.28 112.989C139.989 113.203 139.758 113.489 139.61 113.819C139.427 114.259 139.342 114.733 139.36 115.209ZM147.88 119.709C147.169 119.72 146.46 119.639 145.77 119.469C145.489 119.404 145.223 119.281 144.991 119.109C144.759 118.937 144.565 118.719 144.42 118.469C144.073 118.617 143.715 118.741 143.35 118.839C142.831 118.975 142.296 119.039 141.76 119.029C141.274 119.028 140.79 118.964 140.32 118.839C139.85 118.717 139.411 118.499 139.03 118.199C138.637 117.882 138.322 117.478 138.11 117.019C137.86 116.449 137.74 115.831 137.76 115.209C137.728 114.657 137.815 114.105 138.017 113.59C138.219 113.076 138.531 112.611 138.93 112.229C139.834 111.479 140.988 111.1 142.16 111.169H145.78V116.829C145.749 117.06 145.779 117.295 145.866 117.511C145.954 117.726 146.097 117.915 146.28 118.059C146.797 118.305 147.369 118.411 147.94 118.369H148.1C148.183 118.359 148.267 118.367 148.347 118.393C148.426 118.418 148.499 118.462 148.56 118.519C148.657 118.685 148.699 118.878 148.68 119.069C148.695 119.245 148.671 119.423 148.61 119.589C148.584 119.63 148.546 119.663 148.502 119.684C148.458 119.706 148.409 119.714 148.36 119.709H147.88ZM142.5 108.269C142.497 108.145 142.519 108.021 142.566 107.906C142.612 107.791 142.682 107.686 142.77 107.599C142.857 107.511 142.962 107.441 143.077 107.395C143.192 107.348 143.316 107.326 143.44 107.329C143.563 107.325 143.685 107.347 143.799 107.394C143.912 107.44 144.015 107.51 144.1 107.599C144.186 107.688 144.253 107.793 144.298 107.908C144.342 108.023 144.363 108.146 144.36 108.269C144.363 108.392 144.342 108.515 144.298 108.63C144.253 108.745 144.186 108.85 144.1 108.939C144.015 109.028 143.912 109.098 143.799 109.144C143.685 109.191 143.563 109.213 143.44 109.209C143.316 109.212 143.192 109.19 143.077 109.143C142.962 109.097 142.857 109.027 142.77 108.939C142.682 108.852 142.612 108.747 142.566 108.632C142.519 108.517 142.497 108.393 142.5 108.269ZM140 108.269C139.997 108.145 140.019 108.021 140.066 107.906C140.112 107.791 140.182 107.686 140.27 107.599C140.357 107.511 140.462 107.441 140.577 107.395C140.692 107.348 140.816 107.326 140.94 107.329C141.063 107.325 141.185 107.347 141.299 107.394C141.412 107.44 141.515 107.51 141.6 107.599C141.686 107.688 141.753 107.793 141.798 107.908C141.842 108.023 141.863 108.146 141.86 108.269C141.863 108.392 141.842 108.515 141.798 108.63C141.753 108.745 141.686 108.85 141.6 108.939C141.515 109.028 141.412 109.098 141.299 109.144C141.185 109.191 141.063 109.213 140.94 109.209C140.816 109.212 140.692 109.19 140.577 109.143C140.462 109.097 140.357 109.027 140.27 108.939C140.182 108.852 140.112 108.747 140.066 108.632C140.019 108.517 139.997 108.393 140 108.269ZM148.1 118.369C148.775 118.426 149.446 118.226 149.98 117.809C150.201 117.56 150.369 117.268 150.472 116.952C150.575 116.635 150.612 116.3 150.58 115.969V111.169H152.22V116.449C152.198 116.719 152.239 116.991 152.34 117.242C152.441 117.494 152.598 117.718 152.8 117.899C153.27 118.238 153.842 118.404 154.42 118.369C154.503 118.359 154.587 118.367 154.667 118.393C154.746 118.418 154.819 118.462 154.88 118.519C154.977 118.685 155.019 118.878 155 119.069C155.011 119.236 154.984 119.404 154.92 119.559C154.899 119.605 154.865 119.643 154.823 119.67C154.78 119.697 154.73 119.71 154.68 119.709C154.086 119.717 153.495 119.612 152.94 119.399C152.43 119.201 152.001 118.838 151.72 118.369C151.12 119.262 150 119.709 148.36 119.709C148.123 119.733 147.885 119.681 147.68 119.559C147.611 119.482 147.559 119.392 147.528 119.294C147.497 119.195 147.487 119.091 147.5 118.989C147.487 118.906 147.493 118.822 147.518 118.742C147.543 118.662 147.587 118.589 147.645 118.529C147.703 118.469 147.775 118.423 147.854 118.395C147.933 118.367 148.017 118.359 148.1 118.369ZM151.66 122.269C151.658 122.145 151.68 122.022 151.727 121.906C151.773 121.791 151.842 121.687 151.93 121.599C152.018 121.511 152.122 121.442 152.237 121.396C152.353 121.349 152.476 121.327 152.6 121.329C152.723 121.325 152.845 121.347 152.959 121.394C153.072 121.44 153.175 121.51 153.26 121.599C153.346 121.688 153.413 121.793 153.458 121.908C153.502 122.023 153.523 122.146 153.52 122.269C153.523 122.392 153.502 122.515 153.458 122.63C153.413 122.745 153.346 122.85 153.26 122.939C153.175 123.028 153.072 123.098 152.959 123.144C152.845 123.191 152.723 123.213 152.6 123.209C152.476 123.211 152.353 123.189 152.237 123.142C152.122 123.096 152.018 123.027 151.93 122.939C151.842 122.851 151.773 122.747 151.727 122.632C151.68 122.516 151.658 122.393 151.66 122.269ZM149.16 122.269C149.158 122.145 149.18 122.022 149.227 121.906C149.273 121.791 149.342 121.687 149.43 121.599C149.518 121.511 149.622 121.442 149.737 121.396C149.853 121.349 149.976 121.327 150.1 121.329C150.223 121.325 150.345 121.347 150.459 121.394C150.572 121.44 150.675 121.51 150.76 121.599C150.846 121.688 150.913 121.793 150.958 121.908C151.002 122.023 151.023 122.146 151.02 122.269C151.023 122.392 151.002 122.515 150.958 122.63C150.913 122.745 150.846 122.85 150.76 122.939C150.675 123.028 150.572 123.098 150.459 123.144C150.345 123.191 150.223 123.213 150.1 123.209C149.976 123.211 149.853 123.189 149.737 123.142C149.622 123.096 149.518 123.027 149.43 122.939C149.342 122.851 149.273 122.747 149.227 122.632C149.18 122.516 149.158 122.393 149.16 122.269ZM154.68 119.709C154.443 119.733 154.205 119.681 154 119.559C153.931 119.482 153.879 119.392 153.848 119.294C153.817 119.195 153.807 119.091 153.82 118.989C153.807 118.906 153.813 118.822 153.838 118.742C153.863 118.662 153.907 118.589 153.965 118.529C154.023 118.469 154.095 118.423 154.174 118.395C154.253 118.367 154.337 118.359 154.42 118.369H154.94C155.144 118.372 155.347 118.333 155.536 118.256C155.725 118.179 155.896 118.064 156.04 117.919C156.357 117.595 156.536 117.162 156.54 116.709C156.505 115.221 156.92 113.758 157.73 112.509C158.095 112.026 158.573 111.64 159.123 111.386C159.672 111.131 160.276 111.015 160.88 111.049C161.544 111.027 162.204 111.157 162.81 111.429C163.292 111.657 163.714 111.997 164.04 112.419C164.348 112.828 164.572 113.293 164.7 113.789C164.832 114.285 164.899 114.796 164.9 115.309C164.903 115.801 164.843 116.292 164.72 116.769C164.723 117.016 164.786 117.258 164.905 117.474C165.023 117.69 165.193 117.874 165.4 118.009C165.865 118.265 166.39 118.39 166.92 118.369C167.187 118.369 167.353 118.426 167.42 118.539C167.498 118.704 167.532 118.887 167.52 119.069C167.536 119.244 167.505 119.42 167.43 119.579C167.403 119.62 167.366 119.654 167.322 119.677C167.278 119.7 167.229 119.711 167.18 119.709C166.563 119.713 165.95 119.608 165.37 119.399C165.083 119.291 164.822 119.127 164.6 118.915C164.378 118.704 164.202 118.45 164.08 118.169C163.743 118.667 163.29 119.075 162.76 119.359C162.199 119.652 161.573 119.8 160.94 119.789C160.383 119.784 159.83 119.679 159.31 119.479C158.681 119.226 158.103 118.864 157.6 118.409C157.446 118.766 157.205 119.078 156.9 119.319C156.465 119.612 155.943 119.75 155.42 119.709H154.68ZM160.86 112.449C160.471 112.454 160.089 112.56 159.752 112.756C159.416 112.952 159.136 113.232 158.94 113.569C158.351 114.605 158.041 115.777 158.04 116.969C158.473 117.382 158.957 117.738 159.48 118.029C159.949 118.273 160.471 118.396 161 118.389C161.395 118.405 161.786 118.301 162.12 118.089C162.406 117.897 162.643 117.64 162.81 117.339C162.977 117.037 163.092 116.709 163.15 116.369C163.208 116.046 163.238 115.718 163.24 115.389C163.307 114.594 163.083 113.802 162.61 113.159C162.389 112.919 162.117 112.731 161.814 112.608C161.512 112.486 161.186 112.431 160.86 112.449ZM166.92 118.369C167.595 118.426 168.266 118.226 168.8 117.809C169.021 117.56 169.189 117.268 169.292 116.952C169.395 116.635 169.432 116.3 169.4 115.969V111.169H171.04V116.449C171.018 116.719 171.059 116.991 171.16 117.242C171.261 117.494 171.418 117.718 171.62 117.899C172.09 118.238 172.662 118.404 173.24 118.369C173.323 118.359 173.407 118.367 173.487 118.393C173.566 118.418 173.639 118.462 173.7 118.519C173.797 118.685 173.839 118.878 173.82 119.069C173.831 119.236 173.804 119.404 173.74 119.559C173.719 119.605 173.685 119.643 173.643 119.67C173.6 119.697 173.55 119.71 173.5 119.709C172.906 119.717 172.315 119.612 171.76 119.399C171.25 119.201 170.821 118.838 170.54 118.369C169.94 119.262 168.82 119.709 167.18 119.709C166.943 119.733 166.705 119.681 166.5 119.559C166.431 119.482 166.379 119.392 166.348 119.294C166.317 119.195 166.307 119.091 166.32 118.989C166.307 118.906 166.313 118.822 166.338 118.742C166.363 118.662 166.407 118.589 166.465 118.529C166.523 118.469 166.595 118.423 166.674 118.395C166.753 118.367 166.837 118.359 166.92 118.369ZM169.28 108.269C169.277 108.145 169.299 108.021 169.346 107.906C169.392 107.791 169.462 107.686 169.55 107.599C169.637 107.511 169.742 107.441 169.857 107.395C169.972 107.348 170.096 107.326 170.22 107.329C170.343 107.325 170.465 107.347 170.579 107.394C170.692 107.44 170.795 107.51 170.88 107.599C170.966 107.688 171.033 107.793 171.078 107.908C171.122 108.023 171.143 108.146 171.14 108.269C171.143 108.392 171.122 108.515 171.078 108.63C171.033 108.745 170.966 108.85 170.88 108.939C170.795 109.028 170.692 109.098 170.579 109.144C170.465 109.191 170.343 109.213 170.22 109.209C170.096 109.212 169.972 109.19 169.857 109.143C169.742 109.097 169.637 109.027 169.55 108.939C169.462 108.852 169.392 108.747 169.346 108.632C169.299 108.517 169.277 108.393 169.28 108.269ZM173.24 118.369C173.914 118.422 174.584 118.222 175.12 117.809C175.347 117.563 175.52 117.272 175.627 116.955C175.734 116.638 175.772 116.302 175.74 115.969V111.169H177.36V116.269C177.36 118.562 176.073 119.709 173.5 119.709C173.265 119.729 173.029 119.68 172.82 119.569C172.747 119.505 172.69 119.425 172.655 119.334C172.62 119.243 172.608 119.145 172.62 119.049C172.606 118.866 172.66 118.685 172.77 118.539C172.832 118.479 172.905 118.432 172.987 118.403C173.068 118.373 173.154 118.362 173.24 118.369ZM176.72 108.269C176.717 108.145 176.739 108.021 176.786 107.906C176.832 107.791 176.902 107.686 176.99 107.599C177.077 107.511 177.182 107.441 177.297 107.395C177.412 107.348 177.536 107.326 177.66 107.329C177.783 107.325 177.905 107.347 178.019 107.394C178.132 107.44 178.235 107.51 178.32 107.599C178.406 107.688 178.473 107.793 178.518 107.908C178.562 108.023 178.583 108.146 178.58 108.269C178.583 108.392 178.562 108.515 178.518 108.63C178.473 108.745 178.406 108.85 178.32 108.939C178.235 109.028 178.132 109.098 178.019 109.144C177.905 109.191 177.783 109.213 177.66 109.209C177.536 109.212 177.412 109.19 177.297 109.143C177.182 109.097 177.077 109.027 176.99 108.939C176.902 108.852 176.832 108.747 176.786 108.632C176.739 108.517 176.717 108.393 176.72 108.269ZM174.22 108.269C174.217 108.145 174.239 108.021 174.286 107.906C174.332 107.791 174.402 107.686 174.49 107.599C174.577 107.511 174.682 107.441 174.797 107.395C174.912 107.348 175.036 107.326 175.16 107.329C175.283 107.325 175.405 107.347 175.519 107.394C175.632 107.44 175.735 107.51 175.82 107.599C175.906 107.688 175.973 107.793 176.018 107.908C176.062 108.023 176.083 108.146 176.08 108.269C176.083 108.392 176.062 108.515 176.018 108.63C175.973 108.745 175.906 108.85 175.82 108.939C175.735 109.028 175.632 109.098 175.519 109.144C175.405 109.191 175.283 109.213 175.16 109.209C175.036 109.212 174.912 109.19 174.797 109.143C174.682 109.097 174.577 109.027 174.49 108.939C174.402 108.852 174.332 108.747 174.286 108.632C174.239 108.517 174.217 108.393 174.22 108.269ZM196.86 119.349C196.604 119.442 196.344 119.522 196.08 119.589C195.673 119.68 195.257 119.72 194.84 119.709C194.183 119.722 193.53 119.617 192.91 119.399C192.393 119.215 191.92 118.925 191.52 118.549C191.146 118.188 190.859 117.747 190.68 117.259C190.49 116.737 190.395 116.185 190.4 115.629C190.393 115.002 190.498 114.379 190.71 113.789C190.903 113.252 191.202 112.758 191.59 112.339C191.972 111.931 192.435 111.607 192.95 111.389C193.497 111.158 194.086 111.043 194.68 111.049C195.203 111.017 195.728 111.094 196.22 111.275C196.712 111.456 197.162 111.736 197.54 112.099C197.892 112.486 198.163 112.939 198.338 113.432C198.513 113.924 198.589 114.447 198.56 114.969V118.929C198.573 119.561 198.44 120.187 198.17 120.759C197.89 121.307 197.465 121.767 196.94 122.089C196.272 122.491 195.537 122.769 194.77 122.909C193.719 123.111 192.65 123.205 191.58 123.189C189.864 123.295 188.154 122.888 186.67 122.019C186.087 121.589 185.623 121.017 185.324 120.357C185.024 119.697 184.899 118.971 184.96 118.249C184.974 117.63 185.065 117.016 185.23 116.419C185.418 115.7 185.69 115.005 186.04 114.349L187.52 114.889C187.252 115.483 187.035 116.099 186.87 116.729C186.733 117.265 186.663 117.816 186.66 118.369C186.623 118.884 186.722 119.4 186.947 119.865C187.171 120.33 187.514 120.728 187.94 121.019C189.099 121.661 190.418 121.956 191.74 121.869C193.068 121.953 194.396 121.712 195.61 121.169C195.969 121.015 196.277 120.762 196.498 120.44C196.719 120.118 196.845 119.739 196.86 119.349ZM192.1 115.549C192.083 116.028 192.179 116.504 192.38 116.939C192.546 117.28 192.789 117.578 193.09 117.809C193.37 118.019 193.69 118.169 194.03 118.249C194.348 118.326 194.673 118.367 195 118.369C195.395 118.379 195.79 118.328 196.17 118.219C196.413 118.146 196.65 118.056 196.88 117.949V115.549C196.883 115.13 196.846 114.711 196.77 114.299C196.708 113.948 196.579 113.612 196.39 113.309C196.213 113.032 195.964 112.807 195.67 112.659C195.317 112.494 194.93 112.416 194.54 112.429C194.307 112.435 194.075 112.469 193.85 112.529C193.554 112.608 193.28 112.755 193.05 112.959C192.761 113.22 192.532 113.54 192.38 113.899C192.172 114.423 192.077 114.985 192.1 115.549ZM194.94 108.269C194.937 108.145 194.959 108.021 195.006 107.906C195.052 107.791 195.122 107.686 195.21 107.599C195.297 107.511 195.402 107.441 195.517 107.395C195.632 107.348 195.756 107.326 195.88 107.329C196.003 107.325 196.125 107.347 196.239 107.394C196.352 107.44 196.455 107.51 196.54 107.599C196.626 107.688 196.693 107.793 196.738 107.908C196.782 108.023 196.803 108.146 196.8 108.269C196.803 108.392 196.782 108.515 196.738 108.63C196.693 108.745 196.626 108.85 196.54 108.939C196.455 109.028 196.352 109.098 196.239 109.144C196.125 109.191 196.003 109.213 195.88 109.209C195.756 109.212 195.632 109.19 195.517 109.143C195.402 109.097 195.297 109.027 195.21 108.939C195.122 108.852 195.052 108.747 195.006 108.632C194.959 108.517 194.937 108.393 194.94 108.269ZM192.44 108.269C192.437 108.145 192.459 108.021 192.506 107.906C192.552 107.791 192.622 107.686 192.71 107.599C192.797 107.511 192.902 107.441 193.017 107.395C193.132 107.348 193.256 107.326 193.38 107.329C193.503 107.325 193.625 107.347 193.739 107.394C193.852 107.44 193.955 107.51 194.04 107.599C194.126 107.688 194.193 107.793 194.238 107.908C194.282 108.023 194.303 108.146 194.3 108.269C194.303 108.392 194.282 108.515 194.238 108.63C194.193 108.745 194.126 108.85 194.04 108.939C193.955 109.028 193.852 109.098 193.739 109.144C193.625 109.191 193.503 109.213 193.38 109.209C193.256 109.212 193.132 109.19 193.017 109.143C192.902 109.097 192.797 109.027 192.71 108.939C192.622 108.852 192.552 108.747 192.506 108.632C192.459 108.517 192.437 108.393 192.44 108.269ZM205.12 121.929C205.784 121.969 206.439 121.762 206.96 121.349C207.206 121.082 207.392 120.765 207.505 120.42C207.619 120.075 207.658 119.71 207.62 119.349C207.364 119.442 207.104 119.522 206.84 119.589C206.433 119.68 206.017 119.72 205.6 119.709C204.943 119.722 204.29 119.617 203.67 119.399C203.153 119.215 202.68 118.925 202.28 118.549C201.905 118.187 201.615 117.746 201.43 117.259C201.233 116.738 201.135 116.186 201.14 115.629C201.133 115.001 201.242 114.378 201.46 113.789C201.659 113.252 201.962 112.76 202.35 112.339C202.732 111.931 203.195 111.607 203.71 111.389C204.257 111.158 204.846 111.043 205.44 111.049C205.962 111.017 206.485 111.093 206.976 111.274C207.466 111.455 207.914 111.736 208.29 112.099C208.639 112.487 208.908 112.941 209.081 113.433C209.254 113.926 209.329 114.448 209.3 114.969V118.889C209.304 119.465 209.237 120.04 209.1 120.599C208.98 121.099 208.751 121.567 208.43 121.969C208.093 122.373 207.66 122.686 207.17 122.879C206.541 123.117 205.872 123.229 205.2 123.209C204.769 123.207 204.338 123.177 203.91 123.119C203.483 123.065 203.059 122.988 202.64 122.889L202.88 121.609C203.187 121.676 203.54 121.746 203.94 121.819C204.329 121.891 204.724 121.928 205.12 121.929ZM202.86 115.549C202.843 116.028 202.939 116.504 203.14 116.939C203.306 117.28 203.549 117.578 203.85 117.809C204.13 118.019 204.45 118.169 204.79 118.249C205.108 118.326 205.433 118.367 205.76 118.369C206.155 118.379 206.55 118.328 206.93 118.219C207.173 118.146 207.41 118.056 207.64 117.949V115.549C207.643 115.13 207.606 114.711 207.53 114.299C207.468 113.948 207.339 113.612 207.15 113.309C206.973 113.032 206.724 112.807 206.43 112.659C206.077 112.494 205.69 112.416 205.3 112.429C205.067 112.435 204.835 112.469 204.61 112.529C204.314 112.608 204.04 112.755 203.81 112.959C203.521 113.22 203.292 113.54 203.14 113.899C202.932 114.423 202.837 114.985 202.86 115.549ZM215.5 118.369C215.872 118.378 216.243 118.331 216.6 118.229C216.868 118.151 217.11 118.003 217.3 117.799C217.483 117.587 217.61 117.333 217.67 117.059C217.75 116.701 217.786 116.335 217.78 115.969V115.509C217.784 115.091 217.734 114.674 217.63 114.269C217.536 113.906 217.346 113.574 217.08 113.309C216.779 113.023 216.411 112.817 216.01 112.709C215.452 112.562 214.877 112.495 214.3 112.509H212.86V111.169H214.86C216.092 111.073 217.315 111.44 218.29 112.199C218.678 112.577 218.98 113.035 219.175 113.541C219.37 114.046 219.454 114.588 219.42 115.129V116.449C219.419 116.695 219.463 116.939 219.55 117.169C219.635 117.393 219.761 117.6 219.92 117.779C220.087 117.964 220.291 118.111 220.52 118.209C220.766 118.317 221.032 118.371 221.3 118.369C221.375 118.358 221.452 118.362 221.526 118.381C221.6 118.4 221.669 118.433 221.73 118.479C221.856 118.648 221.91 118.86 221.88 119.069C221.891 119.236 221.864 119.404 221.8 119.559C221.779 119.605 221.745 119.643 221.703 119.67C221.66 119.697 221.61 119.71 221.56 119.709C221.335 119.706 221.111 119.683 220.89 119.639C220.64 119.591 220.395 119.518 220.16 119.419C219.918 119.318 219.69 119.187 219.48 119.029C219.267 118.869 219.084 118.673 218.94 118.449C218.664 118.87 218.266 119.198 217.8 119.389C217.188 119.623 216.535 119.732 215.88 119.709H211.62V118.369H215.5ZM221.3 118.369C221.975 118.426 222.646 118.226 223.18 117.809C223.401 117.56 223.569 117.268 223.672 116.952C223.775 116.635 223.812 116.3 223.78 115.969V111.169H225.42V116.449C225.398 116.719 225.439 116.991 225.54 117.242C225.641 117.494 225.798 117.718 226 117.899C226.47 118.238 227.042 118.404 227.62 118.369C227.703 118.359 227.787 118.367 227.867 118.393C227.946 118.418 228.019 118.462 228.08 118.519C228.177 118.685 228.219 118.878 228.2 119.069C228.211 119.236 228.184 119.404 228.12 119.559C228.099 119.605 228.065 119.643 228.023 119.67C227.98 119.697 227.93 119.71 227.88 119.709C227.286 119.717 226.695 119.612 226.14 119.399C225.63 119.201 225.201 118.838 224.92 118.369C224.32 119.262 223.2 119.709 221.56 119.709C221.323 119.733 221.085 119.681 220.88 119.559C220.811 119.482 220.759 119.392 220.728 119.294C220.697 119.195 220.687 119.091 220.7 118.989C220.687 118.906 220.693 118.822 220.718 118.742C220.743 118.662 220.787 118.589 220.845 118.529C220.903 118.469 220.975 118.423 221.054 118.395C221.133 118.367 221.217 118.359 221.3 118.369ZM223.66 108.269C223.657 108.145 223.679 108.021 223.726 107.906C223.772 107.791 223.842 107.686 223.93 107.599C224.017 107.511 224.122 107.441 224.237 107.395C224.352 107.348 224.476 107.326 224.6 107.329C224.723 107.325 224.845 107.347 224.959 107.394C225.072 107.44 225.175 107.51 225.26 107.599C225.346 107.688 225.413 107.793 225.458 107.908C225.502 108.023 225.523 108.146 225.52 108.269C225.523 108.392 225.502 108.515 225.458 108.63C225.413 108.745 225.346 108.85 225.26 108.939C225.175 109.028 225.072 109.098 224.959 109.144C224.845 109.191 224.723 109.213 224.6 109.209C224.476 109.212 224.352 109.19 224.237 109.143C224.122 109.097 224.017 109.027 223.93 108.939C223.842 108.852 223.772 108.747 223.726 108.632C223.679 108.517 223.657 108.393 223.66 108.269ZM227.8 119.709C227.592 119.725 227.385 119.673 227.21 119.559C227.141 119.494 227.088 119.415 227.055 119.326C227.022 119.238 227.01 119.143 227.02 119.049C227.002 118.863 227.048 118.676 227.15 118.519C227.213 118.462 227.288 118.419 227.369 118.393C227.45 118.368 227.536 118.359 227.62 118.369H229.8V111.169H231.44V112.529C232.335 112.059 233.277 111.683 234.25 111.409C235.1 111.174 235.978 111.053 236.86 111.049C237.664 111.027 238.466 111.159 239.22 111.439C239.805 111.66 240.326 112.021 240.74 112.489C241.104 112.912 241.371 113.411 241.52 113.949C241.666 114.477 241.74 115.022 241.74 115.569V116.269C241.781 116.737 241.728 117.209 241.586 117.657C241.443 118.105 241.214 118.52 240.91 118.879C240.151 119.502 239.177 119.8 238.2 119.709H227.8ZM236.68 112.429C235.757 112.43 234.839 112.575 233.96 112.859C233.08 113.14 232.235 113.519 231.44 113.989V118.369H237.82C238.195 118.378 238.569 118.33 238.93 118.229C239.197 118.156 239.439 118.01 239.63 117.809C239.808 117.599 239.932 117.348 239.99 117.079C240.07 116.721 240.106 116.355 240.1 115.989C240.105 115.516 240.044 115.045 239.92 114.589C239.806 114.175 239.605 113.789 239.33 113.459C239.044 113.123 238.68 112.862 238.27 112.699C237.763 112.506 237.223 112.414 236.68 112.429ZM259.22 116.789C259.234 117.033 259.305 117.27 259.429 117.48C259.552 117.69 259.724 117.868 259.93 117.999C260.39 118.259 260.912 118.387 261.44 118.369C261.593 118.359 261.745 118.401 261.87 118.489C261.97 118.569 262.02 118.762 262.02 119.069C262.036 119.244 262.005 119.42 261.93 119.579C261.906 119.619 261.872 119.651 261.832 119.674C261.792 119.697 261.746 119.709 261.7 119.709C261.237 119.711 260.776 119.651 260.33 119.529C259.913 119.418 259.526 119.212 259.2 118.929C259.176 119.584 259.02 120.227 258.74 120.819C258.488 121.34 258.123 121.798 257.67 122.159C257.203 122.522 256.67 122.791 256.1 122.949C255.456 123.128 254.789 123.216 254.12 123.209C253.388 123.22 252.66 123.102 251.97 122.859C251.374 122.648 250.829 122.314 250.37 121.879C249.93 121.449 249.592 120.926 249.38 120.349C249.147 119.715 249.032 119.044 249.04 118.369C249.056 117.734 249.147 117.103 249.31 116.489C249.492 115.752 249.764 115.04 250.12 114.369L251.6 114.909C251.331 115.506 251.114 116.125 250.95 116.759C250.81 117.325 250.74 117.906 250.74 118.489C250.706 118.95 250.774 119.412 250.938 119.844C251.102 120.276 251.359 120.667 251.69 120.989C252.392 121.573 253.288 121.873 254.2 121.829C254.653 121.833 255.104 121.772 255.54 121.649C255.939 121.537 256.306 121.331 256.61 121.049C256.933 120.734 257.176 120.346 257.32 119.919C257.508 119.348 257.596 118.75 257.58 118.149V113.029H259.22V116.789ZM253.8 110.889C253.797 110.765 253.819 110.641 253.866 110.526C253.912 110.411 253.982 110.306 254.07 110.219C254.157 110.131 254.262 110.061 254.377 110.015C254.492 109.968 254.616 109.946 254.74 109.949C254.863 109.945 254.985 109.967 255.099 110.014C255.212 110.06 255.315 110.13 255.4 110.219C255.486 110.308 255.553 110.413 255.598 110.528C255.642 110.643 255.663 110.766 255.66 110.889C255.663 111.012 255.642 111.135 255.598 111.25C255.553 111.365 255.486 111.47 255.4 111.559C255.315 111.648 255.212 111.718 255.099 111.764C254.985 111.811 254.863 111.833 254.74 111.829C254.616 111.832 254.492 111.81 254.377 111.763C254.262 111.717 254.157 111.647 254.07 111.559C253.982 111.472 253.912 111.367 253.866 111.252C253.819 111.137 253.797 111.013 253.8 110.889ZM261.7 119.709C261.463 119.733 261.225 119.681 261.02 119.559C260.951 119.482 260.899 119.392 260.868 119.294C260.837 119.195 260.827 119.091 260.84 118.989C260.827 118.906 260.833 118.822 260.858 118.742C260.883 118.662 260.927 118.589 260.985 118.529C261.043 118.469 261.115 118.423 261.194 118.395C261.273 118.367 261.357 118.359 261.44 118.369H261.98C262.387 118.372 262.779 118.213 263.07 117.929C263.231 117.769 263.36 117.58 263.447 117.37C263.535 117.161 263.58 116.936 263.58 116.709C263.557 115.235 263.971 113.788 264.77 112.549C265.128 112.056 265.604 111.661 266.154 111.399C266.705 111.137 267.312 111.017 267.92 111.049C268.584 111.027 269.244 111.157 269.85 111.429C270.332 111.657 270.754 111.997 271.08 112.419C271.387 112.827 271.608 113.293 271.73 113.789C271.856 114.286 271.919 114.796 271.92 115.309C271.926 115.914 271.831 116.515 271.64 117.089C271.469 117.608 271.201 118.09 270.85 118.509C270.51 118.909 270.087 119.23 269.61 119.449C269.098 119.681 268.542 119.797 267.98 119.789C267.419 119.786 266.863 119.681 266.34 119.479C265.715 119.224 265.14 118.862 264.64 118.409C264.486 118.766 264.245 119.078 263.94 119.319C263.505 119.612 262.983 119.75 262.46 119.709H261.7ZM267.9 112.449C267.511 112.454 267.129 112.56 266.792 112.756C266.456 112.952 266.176 113.232 265.98 113.569C265.391 114.605 265.081 115.777 265.08 116.969C265.513 117.382 265.997 117.738 266.52 118.029C266.989 118.273 267.511 118.396 268.04 118.389C268.435 118.405 268.826 118.301 269.16 118.089C269.446 117.897 269.683 117.64 269.85 117.339C270.017 117.037 270.132 116.709 270.19 116.369C270.248 116.046 270.278 115.718 270.28 115.389C270.347 114.594 270.123 113.802 269.65 113.159C269.429 112.919 269.157 112.731 268.854 112.608C268.552 112.486 268.226 112.431 267.9 112.449Z" fill="#606161"/>
<path d="M173.39 60.7929C173.39 51.5605 169.722 42.7062 163.194 36.1779C156.666 29.6495 147.811 25.9819 138.579 25.9819H137.958C135.799 25.9819 133.728 26.8397 132.201 28.3665C130.674 29.8934 129.816 31.9642 129.816 34.1234C129.816 36.2827 130.674 38.3535 132.201 39.8803C133.728 41.4072 135.799 42.265 137.958 42.265H138.579C141.012 42.2651 143.421 42.7444 145.669 43.6756C147.917 44.6068 149.959 45.9716 151.679 47.6921C153.399 49.4126 154.764 51.455 155.695 53.7029C156.626 55.9507 157.105 58.3599 157.105 60.7929V72.2189H173.389L173.39 60.7929Z" fill="#204E84"/>
<path d="M227.88 10.347H203.595C201.436 10.347 199.365 11.2049 197.838 12.7318C196.311 14.2587 195.453 16.3297 195.453 18.489C195.453 20.6484 196.311 22.7194 197.838 24.2463C199.365 25.7732 201.436 26.631 203.595 26.631H227.881C243.258 26.631 255.768 37.775 255.768 51.47V72.2151H211.278V75.899H195.963V72.2151H173.39V72.415H157.106V72.2151H127.136C124.977 72.2151 122.906 73.0727 121.379 74.5994C119.852 76.126 118.994 78.1967 118.993 80.356C118.993 82.5155 119.851 84.5865 121.379 86.1134C122.906 87.6403 124.977 88.498 127.136 88.498H272.05V51.4741C272.05 28.7991 252.236 10.347 227.88 10.347Z" fill="#204E84"/>
<path d="M211.278 72.219H195.963V75.904H211.278V72.219Z" fill="#204E84"/>
<path d="M173.39 72.219H157.106V72.421H173.39V72.219Z" fill="#204E84"/>
<path d="M83.4971 17.46C88.3185 17.46 92.2271 13.5514 92.2271 8.73C92.2271 3.90855 88.3185 0 83.4971 0C78.6756 0 74.7671 3.90855 74.7671 8.73C74.7671 13.5514 78.6756 17.46 83.4971 17.46Z" fill="#204E84"/>
<path d="M211.278 54.339L211.364 54.252H211.278V54.339Z" fill="#19A66E"/>
<path d="M59.307 65.4961H75.591V44.8091C75.591 44.1725 75.8439 43.5621 76.294 43.112C76.744 42.6619 77.3545 42.4091 77.991 42.4091H96.838V56.6541C96.8377 60.7809 95.1982 64.7387 92.28 67.6567C89.3617 70.5747 85.4039 72.2141 81.277 72.2141H16.218V84.36L6.14215e-08 80.36C-0.000131271 81.4292 0.210351 82.488 0.619415 83.4758C1.02848 84.4636 1.62812 85.3612 2.38409 86.1172C3.14007 86.8733 4.03757 87.4731 5.02534 87.8823C6.01312 88.2914 7.07183 88.5021 8.14101 88.5021H81.271C85.4529 88.5022 89.5939 87.6786 93.4575 86.0784C97.3211 84.4781 100.832 82.1325 103.789 79.1755C106.746 76.2185 109.092 72.708 110.692 68.8445C112.292 64.9809 113.116 60.8399 113.116 56.6581V26.1281H68.471C67.268 26.1279 66.0768 26.3648 64.9653 26.825C63.8539 27.2853 62.8439 27.96 61.9933 28.8106C61.1426 29.6612 60.4678 30.671 60.0074 31.7824C59.547 32.8938 59.31 34.0851 59.31 35.2881L59.307 65.4961Z" fill="#204E84"/>
<path d="M16.218 72.22H8.14101C5.98188 72.22 3.91118 73.0777 2.38445 74.6044C0.857712 76.1311 0 78.2018 0 80.361L16.218 84.361V72.22Z" fill="#204E84"/>
<path d="M173.39 60.7929C173.39 51.5605 169.722 42.7062 163.194 36.1779C156.666 29.6495 147.811 25.9819 138.579 25.9819H137.958C135.799 25.9819 133.728 26.8397 132.201 28.3665C130.674 29.8934 129.816 31.9642 129.816 34.1234C129.816 36.2827 130.674 38.3535 132.201 39.8803C133.728 41.4072 135.799 42.265 137.958 42.265H138.579C141.012 42.2651 143.421 42.7444 145.669 43.6756C147.917 44.6068 149.959 45.9716 151.679 47.6921C153.399 49.4126 154.764 51.455 155.695 53.7029C156.626 55.9507 157.105 58.3599 157.105 60.7929V72.2189H173.389L173.39 60.7929Z" fill="#204E84"/>
<path d="M227.88 10.347H203.595C201.436 10.347 199.365 11.2049 197.838 12.7318C196.311 14.2587 195.453 16.3297 195.453 18.489C195.453 20.6484 196.311 22.7194 197.838 24.2463C199.365 25.7732 201.436 26.631 203.595 26.631H227.881C243.258 26.631 255.768 37.775 255.768 51.47V72.2151H211.278V75.899H195.963V72.2151H173.39V72.415H157.106V72.2151H127.136C124.977 72.2151 122.906 73.0727 121.379 74.5994C119.852 76.126 118.994 78.1967 118.993 80.356C118.993 82.5155 119.851 84.5865 121.379 86.1134C122.906 87.6403 124.977 88.498 127.136 88.498H272.05V51.4741C272.05 28.7991 252.236 10.347 227.88 10.347Z" fill="#204E84"/>
<path d="M211.278 72.219H195.963V75.904H211.278V72.219Z" fill="#204E84"/>
<path d="M173.39 72.219H157.106V72.421H173.39V72.219Z" fill="#204E84"/>
<path d="M83.4971 17.46C88.3185 17.46 92.2271 13.5514 92.2271 8.73C92.2271 3.90855 88.3185 0 83.4971 0C78.6756 0 74.7671 3.90855 74.7671 8.73C74.7671 13.5514 78.6756 17.46 83.4971 17.46Z" fill="#204E84"/>
<path d="M211.278 54.339L211.364 54.252H211.278V54.339Z" fill="#19A66E"/>
<path d="M204.962 38.936C202.575 38.936 200.286 39.8842 198.598 41.5721C196.91 43.2599 195.962 45.5491 195.962 47.936V72.219H211.275V58.019C211.275 57.0199 211.672 56.0618 212.378 55.3553C213.085 54.6489 214.043 54.252 215.042 54.252H231.956V48.209C231.956 46.9914 231.716 45.7858 231.25 44.6609C230.785 43.5359 230.102 42.5138 229.241 41.6528C228.38 40.7918 227.358 40.1088 226.233 39.6428C225.108 39.1768 223.902 38.937 222.685 38.937L204.962 38.936Z" fill="#E07B2C"/>
<path d="M8.99902 31.3289C6.61208 31.3289 4.32288 32.2771 2.63506 33.965C0.947228 35.6528 -0.000976562 37.942 -0.000976562 40.3289V80.3619L15.314 72.2209V48.9409C15.314 48.331 15.5563 47.7459 15.9877 47.3146C16.419 46.8833 17.004 46.6409 17.614 46.6409H35.997V40.4849C35.997 38.0558 35.0321 35.7262 33.3144 34.0085C31.5968 32.2909 29.2671 31.3259 26.838 31.3259L8.99902 31.3289Z" fill="#19A66E"/>
<path d="M59.307 65.4961H75.591V44.8091C75.591 44.1725 75.8439 43.5621 76.294 43.112C76.744 42.6619 77.3545 42.4091 77.991 42.4091H96.838V56.6541C96.8377 60.7809 95.1982 64.7387 92.28 67.6567C89.3617 70.5747 85.4039 72.2141 81.277 72.2141H16.218V84.36L6.14215e-08 80.36C-0.000131271 81.4292 0.210351 82.488 0.619415 83.4758C1.02848 84.4636 1.62812 85.3612 2.38409 86.1172C3.14007 86.8733 4.03757 87.4731 5.02534 87.8823C6.01312 88.2914 7.07183 88.5021 8.14101 88.5021H81.271C85.4529 88.5022 89.5939 87.6786 93.4575 86.0784C97.3211 84.4781 100.832 82.1325 103.789 79.1755C106.746 76.2185 109.092 72.708 110.692 68.8445C112.292 64.9809 113.116 60.8399 113.116 56.6581V26.1281H68.471C67.268 26.1279 66.0768 26.3648 64.9653 26.825C63.8539 27.2853 62.8439 27.96 61.9933 28.8106C61.1426 29.6612 60.4678 30.671 60.0074 31.7824C59.547 32.8938 59.31 34.0851 59.31 35.2881L59.307 65.4961Z" fill="#204E84"/>
<path d="M16.218 72.22H8.14101C5.98188 72.22 3.91118 73.0777 2.38445 74.6044C0.857712 76.1311 0 78.2018 0 80.361L16.218 84.361V72.22Z" fill="#204E84"/>
</g>
<defs>
<clipPath id="clip0_608_9">
<rect width="272.05" height="123.209" fill="white"/>
</clipPath>
</defs>
</svg>