<svg id="Group_26" data-name="Group 26" xmlns="http://www.w3.org/2000/svg" width="24" height="24" viewBox="0 0 24 24">
  <path id="Path_28" data-name="Path 28" d="M17.846,14.217l-4.393-1.892a3.737,3.737,0,0,0-2.948,0L6.14,14.217a1.947,1.947,0,0,0-.005,3.571L8,18.6v2.592a2.508,2.508,0,0,0,1.454,2.273A6.04,6.04,0,0,0,12,24a6.072,6.072,0,0,0,2.548-.533A2.51,2.51,0,0,0,16,21.194v-2.6l1-.434V21a1,1,0,1,0,2,0V16a1.919,1.919,0,0,0-1.154-1.783ZM11.3,14.163a1.723,1.723,0,0,1,1.362,0l4.35,1.777c0,.014-.007.025-.008.039L12.669,17.86a1.722,1.722,0,0,1-1.372,0L6.934,16.053l4.365-1.89Zm2.7,7.03a.5.5,0,0,1-.289.457,4.386,4.386,0,0,1-3.421,0,.5.5,0,0,1-.29-.457V19.474l.5.217a3.726,3.726,0,0,0,2.969,0L14,19.461ZM7,4.5A1.5,1.5,0,1,1,5.5,3,1.5,1.5,0,0,1,7,4.5Zm4,0A1.5,1.5,0,1,1,9.5,3,1.5,1.5,0,0,1,11,4.5ZM19,0H5A5.006,5.006,0,0,0,0,5V17a5.006,5.006,0,0,0,5,5,1,1,0,0,0,0-2,3,3,0,0,1-3-3V9H22v8a3,3,0,0,1-.749,1.983,1,1,0,1,0,1.5,1.322A4.989,4.989,0,0,0,24,17V5A5.006,5.006,0,0,0,19,0ZM2,7V5A3,3,0,0,1,5,2H19a3,3,0,0,1,3,3V7Z" fill="#1b8354"/>
</svg>
