<svg width="32" height="32" viewBox="0 0 32 32" fill="none" xmlns="http://www.w3.org/2000/svg">
<g opacity="0.4">
<path d="M7.33307 7C4.93983 7 2.99973 8.9401 2.99973 11.3333C2.99973 13.7266 4.93983 15.6667 7.33307 15.6667C7.88535 15.6667 8.33307 15.219 8.33307 14.6667C8.33307 14.1144 7.88535 13.6667 7.33307 13.6667C6.0444 13.6667 4.99973 12.622 4.99973 11.3333C4.99973 10.0447 6.0444 9 7.33307 9C7.88535 9 8.33307 8.55228 8.33307 8C8.33307 7.44772 7.88535 7 7.33307 7Z" fill="#1B8354"/>
<path d="M7.66233 17.2432C7.61257 16.6932 7.12634 16.2876 6.5763 16.3374C5.32493 16.4506 4.10819 16.932 3.0358 17.7578C2.974 17.8054 2.89259 17.8646 2.79693 17.9342C2.34268 18.2647 1.56713 18.8289 1.04445 19.4905C0.710477 19.9133 0.398158 20.4666 0.341927 21.1319C0.283038 21.8286 0.516606 22.5054 1.01735 23.1224C1.78382 24.0667 2.83555 25 4.30101 25C4.85329 25 5.30101 24.5523 5.30101 24C5.30101 23.4477 4.85329 23 4.30101 23C3.76833 23 3.23076 22.6758 2.57024 21.862C2.34068 21.5792 2.32628 21.4014 2.33482 21.3003C2.34602 21.1678 2.41653 20.9801 2.61383 20.7303C2.94616 20.3096 3.41201 19.9673 3.86481 19.6344C3.99758 19.5369 4.12922 19.4401 4.25605 19.3424C5.0432 18.7363 5.90275 18.4065 6.7565 18.3293C7.30654 18.2795 7.71209 17.7933 7.66233 17.2432Z" fill="#1B8354"/>
<path d="M23.9997 7C23.4474 7 22.9997 7.44772 22.9997 8C22.9997 8.55228 23.4474 9 23.9997 9C25.2883 9 26.333 10.0447 26.333 11.3333C26.333 12.622 25.2883 13.6667 23.9997 13.6667C23.4474 13.6667 22.9997 14.1144 22.9997 14.6667C22.9997 15.219 23.4474 15.6667 23.9997 15.6667C26.3929 15.6667 28.333 13.7266 28.333 11.3333C28.333 8.9401 26.3929 7 23.9997 7Z" fill="#1B8354"/>
<path d="M25.4231 16.3374C24.8731 16.2876 24.3868 16.6932 24.3371 17.2432C24.2873 17.7933 24.6929 18.2795 25.2429 18.3293C26.0967 18.4065 26.9562 18.7363 27.7434 19.3424C27.8702 19.4401 28.0018 19.5368 28.1345 19.6344C28.5873 19.9672 29.0532 20.3096 29.3856 20.7303C29.5829 20.9801 29.6534 21.1678 29.6646 21.3003C29.6731 21.4014 29.6587 21.5792 29.4292 21.862C28.7686 22.6758 28.2311 23 27.6984 23C27.1461 23 26.6984 23.4477 26.6984 24C26.6984 24.5523 27.1461 25 27.6984 25C29.1639 25 30.2156 24.0667 30.9821 23.1224C31.4828 22.5054 31.7164 21.8286 31.6575 21.1319C31.6012 20.4666 31.2889 19.9133 30.955 19.4905C30.4323 18.8289 29.6568 18.2648 29.2026 17.9343C29.1069 17.8647 29.0254 17.8054 28.9636 17.7578C27.8912 16.932 26.6745 16.4506 25.4231 16.3374Z" fill="#1B8354"/>
</g>
<path fill-rule="evenodd" clip-rule="evenodd" d="M15.9997 4.33325C12.8701 4.33325 10.333 6.8703 10.333 9.99992C10.333 13.1295 12.8701 15.6666 15.9997 15.6666C19.1293 15.6666 21.6663 13.1295 21.6663 9.99992C21.6663 6.8703 19.1293 4.33325 15.9997 4.33325ZM12.333 9.99992C12.333 7.97487 13.9746 6.33325 15.9997 6.33325C18.0247 6.33325 19.6663 7.97487 19.6663 9.99992C19.6663 12.025 18.0247 13.6666 15.9997 13.6666C13.9746 13.6666 12.333 12.025 12.333 9.99992Z" fill="#1B8354"/>
<path fill-rule="evenodd" clip-rule="evenodd" d="M21.7474 19.2976C18.2304 17.1229 13.7694 17.1229 10.2524 19.2976C10.1487 19.3618 10.0173 19.4386 9.86642 19.5269C9.18339 19.9266 8.09914 20.561 7.35927 21.3131C6.89457 21.7854 6.43111 22.4294 6.34661 23.2322C6.2562 24.091 6.62074 24.886 7.31616 25.574C8.46499 26.7106 9.8881 27.6666 11.754 27.6666H20.2457C22.1116 27.6666 23.5348 26.7106 24.6836 25.574C25.379 24.886 25.7435 24.091 25.6531 23.2322C25.5686 22.4294 25.1052 21.7854 24.6405 21.3131C23.9006 20.561 22.8163 19.9266 22.1333 19.5269C21.9825 19.4386 21.8511 19.3617 21.7474 19.2976ZM11.3042 20.9987C14.1766 19.2225 17.8231 19.2225 20.6955 20.9987C20.868 21.1053 21.0529 21.2144 21.2437 21.3268C21.9262 21.7293 22.6838 22.176 23.2148 22.7157C23.5414 23.0477 23.6482 23.2901 23.6641 23.4415C23.6742 23.5369 23.6693 23.7641 23.277 24.1523C22.3002 25.1186 21.356 25.6666 20.2457 25.6666H11.754C10.6437 25.6666 9.6995 25.1186 8.72278 24.1523C8.33039 23.7641 8.32558 23.5369 8.33562 23.4415C8.35156 23.2901 8.45833 23.0477 8.78498 22.7157C9.31594 22.176 10.0736 21.7293 10.7561 21.3268C10.9468 21.2144 11.1318 21.1053 11.3042 20.9987Z" fill="#1B8354"/>
</svg>
