<svg width="32" height="32" viewBox="0 0 32 32" fill="none" xmlns="http://www.w3.org/2000/svg">
<path fill-rule="evenodd" clip-rule="evenodd" d="M7.66683 9.33333C7.66683 12.8253 10.5082 15.6667 14.0002 15.6667C17.4922 15.6667 20.3335 12.8253 20.3335 9.33333C20.3335 5.84133 17.4922 3 14.0002 3C10.5082 3 7.66683 5.84133 7.66683 9.33333ZM9.66683 9.33333C9.66683 6.944 11.6108 5 14.0002 5C16.3895 5 18.3335 6.944 18.3335 9.33333C18.3335 11.7227 16.3895 13.6667 14.0002 13.6667C11.6108 13.6667 9.66683 11.7227 9.66683 9.33333Z" fill="#1B8354"/>
<path fill-rule="evenodd" clip-rule="evenodd" d="M3.48974 26.6253C5.21507 28.2453 6.89506 29 8.77373 29H19.2271C21.1058 29 22.7857 28.2454 24.5124 26.624C25.3817 25.8054 25.7644 24.9133 25.647 23.9733C25.4044 22.028 23.0405 20.7106 21.4765 19.84C21.4414 19.8203 21.4068 19.801 21.3727 19.7819C21.2123 19.6923 21.0633 19.609 20.9324 19.532C18.8498 18.312 16.4524 17.6667 14.0004 17.6667C11.5484 17.6667 9.15105 18.312 7.06839 19.532C6.93754 19.609 6.78856 19.6923 6.62818 19.7819C6.59407 19.801 6.55945 19.8203 6.52438 19.84C4.95904 20.7106 2.59514 22.0266 2.3538 23.9733C2.2378 24.9133 2.61907 25.8053 3.48974 26.6253ZM8.07906 21.2574C9.87773 20.204 11.9391 19.6773 14.0004 19.6773H14.003C16.0644 19.6773 18.1257 20.204 19.9244 21.2574C20.0697 21.3432 20.2356 21.4358 20.4154 21.5362C20.4452 21.5528 20.4753 21.5696 20.5058 21.5867L20.5073 21.5875C21.496 22.1385 23.5472 23.2818 23.6645 24.22C23.6978 24.492 23.5231 24.8107 23.1444 25.1667C21.8124 26.4173 20.5671 27 19.2284 27H8.77503C7.43503 27 6.19111 26.4173 4.86044 25.168C4.48044 24.8106 4.30576 24.492 4.33909 24.22C4.45642 23.28 6.50981 22.136 7.49781 21.5867L7.52625 21.5708C7.7298 21.457 7.91596 21.3529 8.07906 21.2574Z" fill="#1B8354"/>
<path opacity="0.4" d="M25.3334 10.3336C24.9974 10.3336 24.6828 10.1643 24.4974 9.88162C24.0734 9.23362 23.1787 8.66828 22.8693 8.50428C22.3813 8.24694 22.1934 7.64299 22.4494 7.15499C22.7054 6.66699 23.308 6.47767 23.796 6.73234C23.8973 6.78567 24.508 7.11366 25.1413 7.65232C26.0027 6.26566 27.5907 4.08698 29.552 3.10564C30.0467 2.85898 30.6467 3.05899 30.8934 3.55232C31.1401 4.04566 30.94 4.647 30.4467 4.89366C28.1147 6.06033 26.2454 9.74298 26.2267 9.78032C26.0667 10.1003 25.7467 10.3096 25.3894 10.331C25.3707 10.331 25.3507 10.3323 25.3321 10.3323L25.3334 10.3336Z" fill="#1B8354"/>
</svg>
