<svg xmlns="http://www.w3.org/2000/svg" width="79.313" height="59.062" viewBox="0 0 79.313 59.062">
  <g id="user-group" transform="translate(-0.843 -10.969)">
    <g id="Group_1" data-name="Group 1" opacity="0.4">
      <path id="Path_1" data-name="Path 1" d="M18.562,17.719a10.969,10.969,0,1,0,0,21.937,2.531,2.531,0,1,0,0-5.062,5.906,5.906,0,0,1,0-11.813,2.531,2.531,0,1,0,0-5.062Z" fill="#1b8354"/>
      <path id="Path_2" data-name="Path 2" d="M19.4,43.647a2.531,2.531,0,0,0-2.749-2.293,17.206,17.206,0,0,0-8.962,3.6c-.156.12-.363.27-.6.446a22.852,22.852,0,0,0-4.436,3.939A7.818,7.818,0,0,0,.866,53.49a6.965,6.965,0,0,0,1.71,5.038c1.94,2.39,4.6,4.753,8.312,4.753a2.531,2.531,0,1,0,0-5.062c-1.348,0-2.709-.821-4.381-2.881a1.968,1.968,0,0,1-.6-1.422,2.856,2.856,0,0,1,.706-1.443A16.107,16.107,0,0,1,9.783,49.7c.336-.247.669-.492.99-.739A12.148,12.148,0,0,1,17.1,46.4,2.531,2.531,0,0,0,19.4,43.647Z" fill="#1b8354"/>
      <path id="Path_3" data-name="Path 3" d="M60.75,17.719a2.531,2.531,0,1,0,0,5.062,5.906,5.906,0,1,1,0,11.813,2.531,2.531,0,0,0,0,5.062,10.969,10.969,0,1,0,0-21.937Z" fill="#1b8354"/>
      <path id="Path_4" data-name="Path 4" d="M64.353,41.354A2.531,2.531,0,0,0,63.9,46.4a12.147,12.147,0,0,1,6.329,2.565c.321.247.654.492.99.739a16.109,16.109,0,0,1,3.167,2.774,2.856,2.856,0,0,1,.706,1.443,1.967,1.967,0,0,1-.6,1.422c-1.672,2.06-3.033,2.881-4.381,2.881a2.531,2.531,0,0,0,0,5.062c3.71,0,6.372-2.362,8.312-4.753a6.965,6.965,0,0,0,1.71-5.038,7.818,7.818,0,0,0-1.778-4.155A22.85,22.85,0,0,0,73.919,45.4c-.242-.176-.448-.326-.6-.447A17.207,17.207,0,0,0,64.353,41.354Z" fill="#1b8354"/>
    </g>
    <path id="Path_5" data-name="Path 5" d="M40.5,10.969A14.344,14.344,0,1,0,54.843,25.313,14.344,14.344,0,0,0,40.5,10.969ZM31.219,25.313A9.281,9.281,0,1,1,40.5,34.594,9.281,9.281,0,0,1,31.219,25.313Z" fill="#1b8354" fill-rule="evenodd"/>
    <path id="Path_6" data-name="Path 6" d="M55.049,48.847a27.7,27.7,0,0,0-29.1,0c-.263.162-.595.357-.977.58a31.478,31.478,0,0,0-6.346,4.521,8.32,8.32,0,0,0-2.563,4.858,7.214,7.214,0,0,0,2.454,5.928c2.908,2.877,6.51,5.3,11.233,5.3H51.248c4.723,0,8.325-2.42,11.233-5.3a7.214,7.214,0,0,0,2.454-5.928,8.32,8.32,0,0,0-2.563-4.858,31.478,31.478,0,0,0-6.346-4.521C55.644,49.2,55.311,49.01,55.049,48.847ZM28.614,53.153a22.635,22.635,0,0,1,23.772,0c.437.27.9.546,1.387.831A24.675,24.675,0,0,1,58.763,57.5,3.447,3.447,0,0,1,59.9,59.336c.025.241.013.817-.98,1.8-2.472,2.446-4.862,3.833-7.673,3.833H29.753c-2.811,0-5.2-1.387-7.673-3.833-.993-.983-1.005-1.558-.98-1.8A3.447,3.447,0,0,1,22.238,57.5a24.678,24.678,0,0,1,4.989-3.515C27.71,53.7,28.178,53.423,28.614,53.153Z" fill="#1b8354" fill-rule="evenodd"/>
  </g>
</svg>
