<?xml version="1.0" encoding="utf-8"?>
<!-- Generator: Adobe Illustrator 24.3.0, SVG Export Plug-In . SVG Version: 6.00 Build 0)  -->
<svg version="1.1" id="Layer_1" xmlns="http://www.w3.org/2000/svg" xmlns:xlink="http://www.w3.org/1999/xlink" x="0px" y="0px"
	 viewBox="0 0 95.1 95.1" style="enable-background:new 0 0 95.1 95.1;" xml:space="preserve">
<style type="text/css">
	.st0{fill-rule:evenodd;clip-rule:evenodd;fill:url(#SVGID_1_);}
</style>
<linearGradient id="SVGID_1_" gradientUnits="userSpaceOnUse" x1="47.556" y1="95.113" x2="47.556" y2="1.000657e-03">
	<stop  offset="0" style="stop-color:#224E85"/>
	<stop  offset="1" style="stop-color:#0FAA6C"/>
</linearGradient>
<path class="st0" d="M47.6,90.4c23.6,0,42.8-19.2,42.8-42.8S71.2,4.8,47.6,4.8S4.8,23.9,4.8,47.6c0,0,0,0,0,0
	C4.8,71.2,23.9,90.4,47.6,90.4z M47.6,95.1c26.3,0,47.6-21.3,47.6-47.6S73.8,0,47.6,0C21.3,0,0,21.3,0,47.6
	C0,73.8,21.3,95.1,47.6,95.1z M59.9,47.6L38,33v29.2L59.9,47.6z M64.3,44.8c1.5,1,1.9,3.1,0.9,4.6c-0.2,0.4-0.6,0.7-0.9,0.9
	L38.5,67.6c-1.5,1-3.6,0.6-4.6-0.9c-0.4-0.5-0.6-1.2-0.6-1.8V30.3c0-1.8,1.5-3.3,3.3-3.3c0.7,0,1.3,0.2,1.8,0.6L64.3,44.8z"/>
</svg>
