<svg xmlns="http://www.w3.org/2000/svg" width="26.344" height="21.953" viewBox="0 0 26.344 21.953">
  <g id="Group_25" data-name="Group 25" transform="translate(0 -2)">
    <path id="Path_27" data-name="Path 27" d="M23.051,12.977h-1.1V5.293A3.3,3.3,0,0,0,18.66,2H7.684A3.3,3.3,0,0,0,4.391,5.293v7.684h-1.1A3.3,3.3,0,0,0,0,16.27v7.684H26.344V16.27A3.3,3.3,0,0,0,23.051,12.977ZM6.586,5.293a1.1,1.1,0,0,1,1.1-1.1H18.66a1.1,1.1,0,0,1,1.1,1.1V17.367H6.586ZM24.148,21.758H2.2V16.27a1.1,1.1,0,0,1,1.1-1.1h1.1v4.391H21.953V15.172h1.1a1.1,1.1,0,0,1,1.1,1.1ZM17.036,7.389l1.548,1.548-4.325,4.325a2.756,2.756,0,0,1-3.886,0L8.243,11.132,9.791,9.585l2.129,2.129a.551.551,0,0,0,.384.165.534.534,0,0,0,.384-.165l4.325-4.325Z" fill="#1b8354"/>
  </g>
</svg>
