<svg width="18" height="18" viewBox="0 0 18 18" fill="none" xmlns="http://www.w3.org/2000/svg">
<path fill-rule="evenodd" clip-rule="evenodd" d="M4.8335 4.35205C4.59879 4.35205 4.38387 4.48354 4.27702 4.69252C4.17017 4.90149 4.18941 5.15271 4.32682 5.34298L7.50981 9.75019L4.39156 12.8684C4.14748 13.1125 4.14748 13.5082 4.39156 13.7523C4.63563 13.9964 5.03136 13.9964 5.27544 13.7523L8.25113 10.7766L10.3453 13.6763C10.4628 13.839 10.6513 13.9354 10.852 13.9354H13.1668C13.4015 13.9354 13.6165 13.8039 13.7233 13.5949C13.8302 13.3859 13.8109 13.1347 13.6735 12.9445L10.4905 8.53724L13.6088 5.41899C13.8529 5.17491 13.8529 4.77919 13.6088 4.53511C13.3647 4.29103 12.969 4.29103 12.7249 4.53511L9.7492 7.5108L7.65499 4.61112C7.53749 4.44842 7.349 4.35205 7.14831 4.35205H4.8335ZM11.9445 12.6854H11.1716L6.05585 5.60205H6.82874L11.9445 12.6854Z" fill="white"/>
<path fill-rule="evenodd" clip-rule="evenodd" d="M9.04781 0.602051H8.95252C7.12693 0.60204 5.69303 0.602031 4.57352 0.752546C3.4263 0.906785 2.51609 1.22931 1.80092 1.94448C1.08576 2.65964 0.76323 3.56986 0.608991 4.71707C0.458476 5.83658 0.458485 7.27048 0.458496 9.09607V9.19136C0.458485 11.0169 0.458476 12.4508 0.608991 13.5704C0.76323 14.7176 1.08576 15.6278 1.80092 16.343C2.51609 17.0581 3.4263 17.3806 4.57352 17.5349C5.69303 17.6854 7.12692 17.6854 8.9525 17.6854H9.0478C10.8734 17.6854 12.3073 17.6854 13.4268 17.5349C14.574 17.3806 15.4842 17.0581 16.1994 16.343C16.9146 15.6278 17.2371 14.7176 17.3913 13.5704C17.5418 12.4509 17.5418 11.017 17.5418 9.19138V9.09608C17.5418 7.2705 17.5418 5.83658 17.3913 4.71707C17.2371 3.56986 16.9146 2.65964 16.1994 1.94448C15.4842 1.22931 14.574 0.906785 13.4268 0.752546C12.3073 0.602031 10.8734 0.60204 9.04781 0.602051ZM2.68481 2.82836C3.12901 2.38416 3.73147 2.127 4.74008 1.9914C5.76666 1.85338 7.11652 1.85205 9.00016 1.85205C10.8838 1.85205 12.2337 1.85338 13.2603 1.9914C14.2689 2.127 14.8713 2.38416 15.3155 2.82836C15.7597 3.27257 16.0169 3.87503 16.1525 4.88363C16.2905 5.91021 16.2918 7.26007 16.2918 9.14372C16.2918 11.0274 16.2905 12.3772 16.1525 13.4038C16.0169 14.4124 15.7597 15.0149 15.3155 15.4591C14.8713 15.9033 14.2689 16.1604 13.2603 16.296C12.2337 16.4341 10.8838 16.4354 9.00016 16.4354C7.11652 16.4354 5.76666 16.4341 4.74008 16.296C3.73147 16.1604 3.12901 15.9033 2.68481 15.4591C2.2406 15.0149 1.98345 14.4124 1.84784 13.4038C1.70982 12.3772 1.7085 11.0274 1.7085 9.14372C1.7085 7.26007 1.70982 5.91021 1.84784 4.88363C1.98345 3.87503 2.2406 3.27257 2.68481 2.82836Z" fill="white"/>
</svg>
