<svg width="18" height="16" viewBox="0 0 18 16" fill="none" xmlns="http://www.w3.org/2000/svg">
<path fill-rule="evenodd" clip-rule="evenodd" d="M10.5402 5.61762L10.472 5.58006C9.78494 5.20144 9.223 4.89178 8.76039 4.70021C8.29076 4.50573 7.80914 4.38173 7.31882 4.51024C7.04027 4.58325 6.77878 4.71284 6.55533 4.8935C6.14507 5.22517 6.00006 5.70008 5.93643 6.17866C5.87489 6.64157 5.87491 7.24036 5.87494 7.95483V8.04391C5.87491 8.75838 5.87489 9.35719 5.93643 9.8201C6.00006 10.2987 6.14507 10.7736 6.55533 11.1053C6.77878 11.2859 7.04027 11.4155 7.31882 11.4885C7.80914 11.617 8.29076 11.493 8.76039 11.2985C9.22301 11.107 9.78493 10.7973 10.472 10.4187L10.5402 10.3811C11.1688 10.0347 11.688 9.74865 12.0617 9.48355C12.436 9.21794 12.7912 8.8888 12.9088 8.4088C12.9748 8.13934 12.9748 7.85942 12.9088 7.58996C12.7912 7.10995 12.436 6.78081 12.0617 6.51521C11.688 6.2501 11.1688 5.96401 10.5402 5.61762ZM7.63573 5.7194C7.72511 5.69598 7.89118 5.6932 8.28214 5.8551C8.6726 6.01679 9.1734 6.2917 9.90235 6.69338C10.5742 7.06361 11.0299 7.3158 11.3383 7.53467C11.6529 7.75788 11.6886 7.86247 11.6947 7.88734C11.7128 7.96143 11.7128 8.03732 11.6947 8.11142C11.6886 8.13628 11.6529 8.24088 11.3383 8.46409C11.0299 8.68296 10.5742 8.93515 9.90235 9.30538C9.1734 9.70706 8.6726 9.98196 8.28214 10.1437C7.89118 10.3056 7.72511 10.3028 7.63573 10.2794C7.52161 10.2494 7.42144 10.1981 7.3412 10.1332C7.30313 10.1024 7.22399 10.0199 7.17553 9.65537C7.12626 9.28479 7.12494 8.77016 7.12494 7.99938C7.12494 7.2286 7.12626 6.71397 7.17553 6.34339C7.22399 5.97889 7.30313 5.89633 7.3412 5.86555C7.42144 5.80069 7.52161 5.74932 7.63573 5.7194Z" fill="white"/>
<path fill-rule="evenodd" clip-rule="evenodd" d="M8.99993 0.291016C7.45109 0.291016 5.96304 0.443983 4.58056 0.725796L4.47449 0.747395C2.89563 1.06876 1.84363 1.28288 0.937085 2.44845C0.0402705 3.6015 0.0407721 4.93868 0.0415489 7.00968L0.0415489 8.98902C0.0407721 11.06 0.0402705 12.3972 0.937085 13.5503C1.84363 14.7158 2.89563 14.9299 4.47449 15.2513L4.58056 15.2729C5.96304 15.5547 7.45109 15.7077 8.99993 15.7077C10.5488 15.7077 12.0368 15.5547 13.4193 15.2729L13.5254 15.2513C15.1042 14.9299 16.1562 14.7158 17.0628 13.5503C17.9596 12.3972 17.9591 11.06 17.9583 8.98902L17.9583 7.00968C17.9591 4.93868 17.9596 3.6015 17.0628 2.44845C16.1562 1.28288 15.1042 1.06876 13.5254 0.747395L13.4193 0.725796C12.0368 0.443983 10.5488 0.291016 8.99993 0.291016ZM4.83023 1.95061C6.1283 1.686 7.53262 1.54102 8.99993 1.54102C10.4672 1.54102 11.8716 1.686 13.1696 1.95061C14.8797 2.2992 15.4751 2.44318 16.0761 3.21587C16.6803 3.99269 16.7083 4.86488 16.7083 7.19639L16.7083 8.80231C16.7083 11.1338 16.6803 12.006 16.0761 12.7828C15.4751 13.5555 14.8797 13.6995 13.1696 14.0481C11.8716 14.3127 10.4672 14.4577 8.99993 14.4577C7.53262 14.4577 6.1283 14.3127 4.83023 14.0481C3.12015 13.6995 2.52476 13.5555 1.92378 12.7828C1.31959 12.006 1.2916 11.1338 1.2916 8.80231L1.2916 7.19639C1.2916 4.86488 1.31959 3.99269 1.92378 3.21587C2.52476 2.44318 3.12015 2.2992 4.83023 1.95061Z" fill="white"/>
</svg>
