<svg width="28" height="28" viewBox="0 0 28 28" fill="none" xmlns="http://www.w3.org/2000/svg">
<path fill-rule="evenodd" clip-rule="evenodd" d="M8.45703 23.0443V24.3649C8.45703 25.195 7.9318 25.888 7.21187 26.208L7.14791 26.2368C6.89439 26.3516 6.4688 26.5443 5.95969 26.5443H3.95437C3.44527 26.5443 3.01968 26.3516 2.76616 26.2368L2.70219 26.208C1.98226 25.888 1.45703 25.195 1.45703 24.3649L1.45703 21.0026C1.45703 20.9332 1.4651 20.8657 1.48036 20.801C1.46496 20.6968 1.45703 20.5907 1.45703 20.4836L1.45703 16.6596C1.45703 15.4946 2.05536 14.4777 2.68535 13.6814C3.18865 13.0451 3.7944 12.453 4.28317 11.9753C4.30755 11.9514 4.3317 11.9278 4.35548 11.9046C4.32798 11.8941 4.30074 11.8822 4.27386 11.8688L3.10719 11.2854C2.67496 11.0693 2.49977 10.5437 2.71588 10.1115C2.932 9.67925 3.45759 9.50406 3.88982 9.72017L4.98715 10.2688L5.70317 8.12079C5.94673 7.39003 6.15256 6.77247 6.37846 6.28687C6.61859 5.77069 6.9162 5.32282 7.38739 4.98321C7.85857 4.64359 8.37758 4.50289 8.9432 4.43831C9.02327 4.42917 9.10603 4.4214 9.19148 4.41481C9.27306 4.01762 9.34901 3.67415 9.4295 3.38446C9.55145 2.94551 9.70986 2.52532 9.99576 2.18028C10.3138 1.79644 10.7025 1.60847 11.1294 1.52686C11.4759 1.46062 11.8821 1.46079 12.2743 1.46095L15.7236 1.46095C16.1158 1.46079 16.522 1.46062 16.8685 1.52686C17.2954 1.60847 17.6841 1.79644 18.0021 2.18028C18.288 2.52532 18.4465 2.94551 18.5684 3.38446C18.6489 3.67418 18.7249 4.01769 18.8064 4.41492C18.8914 4.42149 18.9736 4.42922 19.0533 4.43831C19.6189 4.50289 20.1379 4.64359 20.6091 4.9832C21.0803 5.32282 21.3779 5.77069 21.618 6.28687C21.8439 6.77245 22.0497 7.38996 22.2933 8.12068L23.0094 10.2692L24.1076 9.72017C24.5398 9.50406 25.0654 9.67925 25.2815 10.1115C25.4976 10.5437 25.3224 11.0693 24.8902 11.2854L23.7235 11.8688C23.6967 11.8822 23.6694 11.8941 23.6419 11.9046C23.6656 11.9278 23.6897 11.9513 23.714 11.9751C24.2028 12.4528 24.8087 13.0451 25.312 13.6814C25.942 14.4777 26.5404 15.4946 26.5404 16.6596V20.4836C26.5404 20.5907 26.5324 20.6967 26.517 20.801C26.5323 20.8657 26.5404 20.9332 26.5404 21.0026L26.5404 24.3649C26.5404 25.195 26.0151 25.888 25.2952 26.208L25.2312 26.2368C24.9777 26.3516 24.5521 26.5443 24.043 26.5443L22.0377 26.5443C21.5286 26.5443 21.103 26.3516 20.8495 26.2368L20.7855 26.208C20.0656 25.888 19.5404 25.195 19.5404 24.3649L19.5404 23.0443L8.45703 23.0443ZM3.20703 22.5766C3.22257 22.5789 3.23817 22.581 3.25385 22.583L6.70703 23.0146V24.3649C6.70703 24.4186 6.6705 24.5335 6.50113 24.6088C6.16596 24.7578 6.0704 24.7943 5.95969 24.7943H3.95437C3.84366 24.7943 3.7481 24.7578 3.41293 24.6088C3.24356 24.5335 3.20703 24.4186 3.20703 24.3649V22.5766ZM7.05318 21.2943L3.47091 20.8465C3.36133 20.8328 3.20703 20.7126 3.20703 20.4836L3.20703 16.6596C3.20703 16.5458 3.21904 16.4297 3.24264 16.3113L4.85758 17.1188C5.28981 17.3349 5.8154 17.1597 6.03151 16.7274C6.24763 16.2952 6.07243 15.7696 5.6402 15.5535L4.06053 14.7637C4.48649 14.2258 4.9835 13.7393 5.46354 13.2694L5.60832 13.1276L22.3891 13.1276L22.5338 13.2694C23.0149 13.7403 23.513 14.2279 23.9396 14.7671C24.0228 14.8723 24.1004 14.9761 24.1721 15.0783L22.5363 15.4873C22.0675 15.6045 21.7824 16.0795 21.8996 16.5484C22.0168 17.0172 22.4919 17.3022 22.9607 17.185L24.7904 16.7276V20.4836C24.7904 20.7126 24.6361 20.8328 24.5265 20.8465L20.9442 21.2943H19.4906C19.4866 21.2831 19.4824 21.272 19.478 21.261L19.1752 20.5039C18.976 20.0058 18.8009 19.5681 18.616 19.2213C18.4159 18.8461 18.1681 18.5045 17.7858 18.2456C17.4034 17.9867 16.9942 17.8835 16.5715 17.8371C16.1809 17.7942 15.7095 17.7942 15.173 17.7943H12.8249C12.2884 17.7942 11.817 17.7942 11.4264 17.8371C11.0037 17.8835 10.5944 17.9867 10.2121 18.2456C9.82974 18.5045 9.58194 18.8461 9.38185 19.2213C9.19694 19.5681 9.02189 20.0058 8.82268 20.5039L8.51985 21.261C8.51542 21.272 8.51124 21.2831 8.50729 21.2943H7.05318ZM10.3913 21.2943L10.4313 21.1944C10.6516 20.6437 10.7917 20.2966 10.926 20.0447C11.0502 19.8119 11.1311 19.7367 11.1932 19.6947C11.2553 19.6527 11.3551 19.6055 11.6174 19.5767C11.9011 19.5455 12.2755 19.5443 12.8685 19.5443H15.1293C15.7224 19.5443 16.0967 19.5455 16.3805 19.5767C16.6427 19.6055 16.7426 19.6527 16.8047 19.6947C16.8667 19.7367 16.9477 19.8119 17.0718 20.0447C17.2061 20.2966 17.3463 20.6437 17.5666 21.1944L17.6065 21.2943H10.3913ZM21.2904 23.0146L24.7435 22.583C24.7592 22.581 24.7748 22.5789 24.7904 22.5766L24.7904 24.3649C24.7904 24.4186 24.7538 24.5335 24.5845 24.6088C24.2493 24.7578 24.1537 24.7943 24.043 24.7943L22.0377 24.7943C21.927 24.7943 21.8314 24.7578 21.4963 24.6088C21.3269 24.5335 21.2904 24.4186 21.2904 24.3649L21.2904 23.0146ZM21.5342 11.3776L6.46223 11.3776L7.34801 8.72024C7.61106 7.9311 7.78637 7.40937 7.96517 7.02501C8.13449 6.66106 8.27075 6.5037 8.41063 6.40288C8.55052 6.30205 8.74289 6.22255 9.14171 6.17701C9.56288 6.12893 10.1133 6.12761 10.9451 6.12761L17.0514 6.12761C17.8832 6.12761 18.4336 6.12893 18.8548 6.17701C19.2536 6.22255 19.4459 6.30205 19.5858 6.40288C19.7257 6.5037 19.862 6.66105 20.0313 7.02501C20.2101 7.40937 20.3854 7.9311 20.6484 8.72024L21.5342 11.3776ZM10.9881 4.3776L17.0098 4.3776C16.9655 4.17613 16.9241 4.00363 16.8823 3.85291C16.7807 3.48737 16.7023 3.35436 16.6546 3.29682C16.6435 3.28344 16.6366 3.27725 16.634 3.27507C16.6321 3.27346 16.6309 3.27261 16.6296 3.27188C16.6299 3.27204 16.6293 3.27171 16.6296 3.27188C16.6272 3.27055 16.6046 3.25811 16.5399 3.24573C16.377 3.21459 16.1418 3.21097 15.6656 3.21097L12.3323 3.21097C11.8561 3.21097 11.6209 3.21459 11.458 3.24573C11.3933 3.25811 11.3715 3.27005 11.3691 3.27138C11.3685 3.27175 11.3679 3.27211 11.3672 3.27255C11.3663 3.27316 11.3653 3.27392 11.3639 3.27507C11.3613 3.27725 11.3544 3.28344 11.3433 3.29682C11.2956 3.35436 11.2172 3.48737 11.1156 3.85291C11.0738 4.00363 11.0324 4.17613 10.9881 4.3776Z" fill="#067647"/>
</svg>
